<?xml version="1.0" encoding="iso-8859-1"?>
<!-- Generator: Adobe Illustrator 19.1.0, SVG Export Plug-In . SVG Version: 6.00 Build 0)  -->
<svg version="1.1" id="Capa_1" xmlns="http://www.w3.org/2000/svg" xmlns:xlink="http://www.w3.org/1999/xlink" x="0px" y="0px"
	 viewBox="0 0 408.063 408.063" style="enable-background:new 0 0 408.063 408.063;" xml:space="preserve">
<g>
	<rect x="193.06" y="349.678" style="fill:#8EB6CA;" width="21.94" height="14.59"/>
	<path style="fill:#7E6F83;" d="M225,335.186v34.082c0,2.762-2.238,5-5,5H188.06c-2.762,0-5-2.238-5-5v-34.082h-78.084
		c-5.764,0-11.184-1.496-15.898-4.113v44.125c0,12.607,10.258,22.865,22.867,22.865h184.176c12.605,0,22.863-10.258,22.863-22.865
		v-44.125c-4.715,2.617-10.135,4.113-15.9,4.113H225z"/>
	<rect x="193.06" y="315.575" style="fill:#BBD3DF;" width="21.94" height="24.103"/>
	<path style="fill:#C7BEA8;" d="M82.111,302.321c0,12.609,10.258,22.865,22.865,22.865h78.084v-14.611c0-2.762,2.238-5,5-5H220
		c2.762,0,5,2.238,5,5v14.611h78.084c12.609,0,22.867-10.256,22.867-22.865v-50.648H82.111V302.321z"/>
	<path style="fill:#3F352F;" d="M345.392,248.071V32.866C345.392,12.286,333.105,0,312.527,0
		c-38.672,0-119.607,58.026-167.965,92.696c-5.037,3.612-9.709,6.961-13.926,9.952c-46.201,32.78-67.967,53.663-67.967,103.368
		v42.055c-6.312,1.809-10.395,8.137-9.252,14.754l2.803,16.195c1.084,6.27,6.484,10.82,12.842,10.82
		c0.742,0,1.672-0.012,3.049-0.375v12.855c0,7.611,2.607,14.621,6.967,20.197v52.68c0,18.123,14.744,32.865,32.867,32.865h184.176
		c18.121,0,32.863-14.742,32.863-32.865v-52.68c4.359-5.578,6.967-12.586,6.967-20.197v-12.855c0.705,0.294,2.307,0.375,3.051,0.375
		c6.357,0,11.758-4.551,12.84-10.82l2.801-16.195c0.596-3.432-0.184-6.891-2.191-9.738
		C350.716,250.628,348.244,248.883,345.392,248.071z M71.556,278.549c-0.469,0.664-1.168,1.105-1.967,1.244
		c-1.674,0.285-3.232-0.842-3.516-2.477l-2.803-16.195c-0.285-1.652,0.826-3.23,2.479-3.516c0.176-0.031,2.846-0.399,3.516,2.479
		l2.801,16.197C72.205,277.081,72.023,277.887,71.556,278.549z M318.984,375.198c0,12.607-10.258,22.865-22.863,22.865H111.945
		c-12.609,0-22.867-10.258-22.867-22.865v-44.125c4.715,2.617,10.135,4.113,15.898,4.113h78.084v34.082c0,2.762,2.238,5,5,5H220
		c2.762,0,5-2.238,5-5v-34.082h78.084c5.766,0,11.186-1.496,15.9-4.113V375.198z M215,349.678v14.59H193.06v-14.59H215z
		 M193.06,339.678v-24.104H215v24.104H193.06z M325.951,302.321c0,12.609-10.258,22.865-22.867,22.865H225v-14.611
		c0-2.762-2.238-5-5-5H188.06c-2.762,0-5,2.238-5,5v14.611h-78.084c-12.607,0-22.865-10.256-22.865-22.865v-50.648h243.84V302.321z
		 M335.392,244.422c-0.826-1.625-2.494-2.75-4.441-2.75H77.111c-1.947,0-3.617,1.125-4.441,2.752v-38.408
		c0-45.251,19.426-63.762,63.754-95.212c4.229-3,8.914-6.359,13.967-9.981C194.662,69.082,277.07,10,312.527,10
		c18.898,0,22.865,12.435,22.865,22.866V244.422z M344.789,261.12l-2.801,16.197c-0.281,1.635-1.848,2.766-3.514,2.477
		c-0.801-0.139-1.5-0.58-1.967-1.242c-0.469-0.664-0.65-1.471-0.512-2.272l2.801-16.197c0.658-2.773,3.338-2.508,3.516-2.477
		c0.801,0.139,1.498,0.58,1.967,1.244C344.746,259.512,344.927,260.319,344.789,261.12z"/>
</g>
<g>
</g>
<g>
</g>
<g>
</g>
<g>
</g>
<g>
</g>
<g>
</g>
<g>
</g>
<g>
</g>
<g>
</g>
<g>
</g>
<g>
</g>
<g>
</g>
<g>
</g>
<g>
</g>
<g>
</g>
</svg>
