<?xml version="1.0" encoding="iso-8859-1"?>
<!-- Generator: Adobe Illustrator 19.1.0, SVG Export Plug-In . SVG Version: 6.00 Build 0)  -->
<svg version="1.1" id="Capa_1" xmlns="http://www.w3.org/2000/svg" xmlns:xlink="http://www.w3.org/1999/xlink" x="0px" y="0px"
	 viewBox="0 0 379.892 379.892" style="enable-background:new 0 0 379.892 379.892;" xml:space="preserve">
<g>
	<path style="fill:#D68E7E;" d="M189.945,19.797c0,0,0.002,0,0.002,0c0,0,0.002,0,0.002,0s0,0,0,0
		c39.616,0.001,72.426,11.021,97.544,32.744C263.868,24.674,230.872,10,189.947,10c-40.926,0-73.921,14.674-97.547,42.541
		C117.518,30.818,150.328,19.798,189.945,19.797L189.945,19.797z"/>
	<path style="fill:#E3D282;" d="M189.948,206.706c6.133,0,11.122-4.99,11.122-11.124v-28.049h-22.247v28.049
		C178.823,201.715,183.813,206.706,189.948,206.706z M186.416,192.136c0.92-0.93,2.21-1.47,3.53-1.47c1.32,0,2.6,0.54,3.54,1.47
		c0.93,0.93,1.46,2.22,1.46,3.53c0,1.32-0.53,2.61-1.46,3.54c-0.94,0.93-2.22,1.46-3.54,1.46c-1.32,0-2.61-0.53-3.53-1.46
		c-0.94-0.93-1.47-2.22-1.47-3.54C184.947,194.356,185.476,193.066,186.416,192.136z"/>
	<path style="fill:#C7BEA8;" d="M318.25,297.871c15.714-25.707,21.064-49.128,21.977-53.561l-13.979-95.146
		c0-0.001-0.001-0.003-0.001-0.005c-4.624-27.928-13.947-51.298-27.535-69.749c-3.089,20.84-11.85,40.497-25.478,56.595
		c-16.159,19.087-38.104,32.05-62.164,36.836v22.74c0,9.598-6.44,17.707-15.221,20.269l14.367,73.719
		c0.528,2.711-1.241,5.336-3.951,5.864c-0.323,0.063-0.645,0.093-0.962,0.093c-2.345,0-4.437-1.657-4.902-4.044l-5.454-27.986
		v46.895c0,2.761-2.239,5-5,5s-5-2.239-5-5v-46.891l-5.454,27.983c-0.465,2.387-2.558,4.044-4.902,4.044
		c-0.317,0-0.639-0.03-0.962-0.093c-2.71-0.528-4.48-3.154-3.951-5.864l14.368-73.719c-8.782-2.562-15.222-10.67-15.222-20.269
		v-22.74c-24.06-4.786-46.004-17.749-62.164-36.836c-13.627-16.096-22.388-35.751-25.481-56.589
		c-13.586,18.449-22.907,41.818-27.531,69.743c-0.001,0.005-0.003,0.009-0.003,0.014l-13.977,95.134
		c0.925,4.461,6.361,28.138,22.169,53.879c23.12,37.647,56.379,61.765,98.855,71.705h58.51
		C261.803,359.923,295.127,335.698,318.25,297.871z"/>
	<path style="fill:#D68E7E;" d="M343.699,267.94c-3.609,9.909-9.005,22.204-16.916,35.147
		c-13.705,22.42-37.325,50.086-75.808,66.805h62.282c0.581-0.005,14.79-0.268,25.32-12.53c10.283-11.974,13.607-31.163,9.88-57.034
		L343.699,267.94z"/>
	<path style="fill:#D68E7E;" d="M53.11,303.086c-7.91-12.94-13.308-25.236-16.916-35.143l-4.76,32.399
		c-3.725,25.856-0.4,45.045,9.883,57.02c10.53,12.262,24.739,12.525,25.339,12.53h62.27
		C90.437,353.175,66.815,325.508,53.11,303.086z"/>
	<path style="fill:#3F352F;" d="M336.127,147.616c-0.001-0.005-0.003-0.01-0.004-0.015c-6.69-46.838-22.723-83.462-47.656-108.854
		C263.223,13.037,230.077,0.001,189.949,0h0c0,0-0.002,0-0.002,0c0,0-0.002,0-0.002,0h0c-40.128,0.001-73.274,13.037-98.519,38.747
		c-24.931,25.391-40.964,62.011-47.655,108.846c-0.002,0.008-0.005,0.016-0.006,0.024L21.538,298.902
		c-4.173,28.97-0.023,50.886,12.335,65.141c13.574,15.657,31.928,15.849,32.759,15.849c0.001,0,0.003,0,0.004,0h246.617
		c0.001,0,0.003,0,0.004,0c0.837,0,19.19-0.193,32.763-15.849c12.358-14.255,16.508-36.171,12.333-65.155L336.127,147.616z
		 M189.947,10c40.926,0,73.921,14.674,97.547,42.541c-25.119-21.723-57.929-32.743-97.544-32.744c0,0,0,0,0,0s-0.002,0-0.002,0
		c0,0-0.002,0-0.002,0h0c-39.616,0.001-72.426,11.021-97.544,32.744C116.025,24.674,149.021,10,189.947,10z M189.947,29.797
		c42.273,0,76.084,13.414,99.845,38.852c-2.691,45.47-35.269,84.36-78.721,93.964v-0.081c0-2.761-2.239-5-5-5h-32.247
		c-2.761,0-5,2.239-5,5v0.073c-43.45-9.605-76.03-48.488-78.721-93.957C113.863,43.211,147.673,29.797,189.947,29.797z
		 M201.07,167.532v28.049c0,6.134-4.99,11.124-11.122,11.124c-6.134,0-11.125-4.99-11.125-11.124v-28.049H201.07z M66.655,369.892
		c-0.6-0.005-14.809-0.268-25.339-12.53c-10.283-11.975-13.607-31.164-9.883-57.02l4.76-32.399
		c3.608,9.908,9.006,22.203,16.916,35.143c13.706,22.422,37.327,50.089,75.815,66.805H66.655z M160.691,369.892
		c-42.477-9.94-75.736-34.058-98.855-71.705c-15.808-25.742-21.245-49.418-22.169-53.879l13.977-95.134
		c0-0.005,0.002-0.009,0.003-0.014c4.624-27.925,13.945-51.295,27.531-69.743c3.093,20.838,11.854,40.493,25.481,56.589
		c16.159,19.087,38.103,32.05,62.164,36.836v22.74c0,9.598,6.44,17.707,15.222,20.269l-14.368,73.719
		c-0.528,2.711,1.241,5.336,3.951,5.864c0.323,0.063,0.645,0.093,0.962,0.093c2.344,0,4.437-1.657,4.902-4.044l5.454-27.983v46.891
		c0,2.761,2.239,5,5,5s5-2.239,5-5v-46.895l5.454,27.986c0.465,2.387,2.558,4.044,4.902,4.044c0.317,0,0.639-0.03,0.962-0.093
		c2.71-0.528,4.48-3.154,3.951-5.864l-14.367-73.719c8.781-2.562,15.221-10.67,15.221-20.269v-22.74
		c24.06-4.786,46.004-17.749,62.164-36.836c13.628-16.098,22.389-35.754,25.478-56.595c13.587,18.45,22.911,41.821,27.535,69.749
		c0,0.002,0.001,0.003,0.001,0.005l13.979,95.146c-0.913,4.433-6.263,27.854-21.977,53.561
		c-23.122,37.827-56.447,62.052-99.049,72.021H160.691z M338.577,357.362c-10.53,12.262-24.739,12.525-25.32,12.53h-62.282
		c38.482-16.719,62.103-44.385,75.808-66.805c7.911-12.942,13.307-25.238,16.916-35.147l4.758,32.388
		C352.184,326.199,348.86,345.388,338.577,357.362z"/>
	<path style="fill:#3F352F;" d="M189.947,200.666c1.32,0,2.6-0.53,3.54-1.46c0.93-0.93,1.46-2.22,1.46-3.54
		c0-1.31-0.53-2.6-1.46-3.53c-0.94-0.93-2.22-1.47-3.54-1.47c-1.32,0-2.61,0.54-3.53,1.47c-0.94,0.93-1.47,2.22-1.47,3.53
		c0,1.32,0.53,2.61,1.47,3.54C187.336,200.136,188.626,200.666,189.947,200.666z"/>
</g>
<g>
</g>
<g>
</g>
<g>
</g>
<g>
</g>
<g>
</g>
<g>
</g>
<g>
</g>
<g>
</g>
<g>
</g>
<g>
</g>
<g>
</g>
<g>
</g>
<g>
</g>
<g>
</g>
<g>
</g>
</svg>
