<?xml version="1.0" encoding="iso-8859-1"?>
<!-- Generator: Adobe Illustrator 19.1.0, SVG Export Plug-In . SVG Version: 6.00 Build 0)  -->
<svg version="1.1" id="Capa_1" xmlns="http://www.w3.org/2000/svg" xmlns:xlink="http://www.w3.org/1999/xlink" x="0px" y="0px"
	 viewBox="0 0 402.832 402.832" style="enable-background:new 0 0 402.832 402.832;" xml:space="preserve">
<g>
	<path style="fill:#AB9E85;" d="M25.104,339.757h78.594v-55.766c-48.898-5.41-78.088-17.891-91.965-25.488L25.104,339.757z"/>
	<path style="fill:#D68E7E;" d="M43.043,66.744c-0.646-3.748-1.598-5.548-2.25-5.705c-0.85,0.722-3.033,4.327-3.359,22.034
		l6.564,0.448C43.964,77.064,43.803,71.153,43.043,66.744z"/>
	<path style="fill:#D68E7E;" d="M21.252,186.813c-12.828,33.158-6.55,56.839-4.467,62.989
		c33.861,20.083,96.145,24.115,103.992,26.902v-56.157l-96.4-41.879C23.422,181.197,21.252,186.813,21.252,186.813z"/>
	<path style="fill:#D68E7E;" d="M281.953,319.665c61.561-9.255,90.699-28.733,100.289-36.578
		c-5.719-4.333-13.621-6.926-23.844-7.697c-25.443-1.921-49.395-10.006-49.438-10.02c-28.777-10.01-52.573-33.062-52.821-33.543
		L175.947,76.16c-6.038,3.917-16.96,8.743-34.255,8.931c-4.192,0.046-7.209,1.033-8.967,2.934c-1.502,1.625-1.866,3.715-1.947,4.854
		v186.55c33.18,10.401,58.34,31.88,70.761,42.701C208.021,322.95,238.778,326.153,281.953,319.665z"/>
	<path style="fill:#AB9E85;" d="M283.439,329.554c-21.267,3.197-55.999,5.72-68.714,3.746c9.617,6.983,28.807,13.985,86.968,2.352
		c64.379-12.875,85.844-31.057,90.77-36.148c-0.756-3.334-1.939-6.3-3.512-8.94C378.363,299.427,347.892,319.865,283.439,329.554z"
		/>
	<path style="fill:#7E6F83;" d="M32.569,139.771c0.409,10.566-1.473,19.443-4.809,29.465l93.018,40.41V98.79l-88.209-6.026V139.771z
		"/>
	<path style="fill:#3F352F;" d="M359.185,265.421c-21.768-1.717-45.629-9.09-47.012-9.521
		c-24.178-8.432-43.982-26.119-47.536-29.414L182.071,66.211c-0.73-1.419-2.096-2.404-3.674-2.65
		c-1.583-0.249-3.178,0.275-4.307,1.404c-1.65,1.65-10.972,9.892-32.507,10.126c-7.153,0.078-12.655,2.201-16.353,6.312
		c-2.18,2.422-3.314,5.095-3.896,7.402L54,84.205c-0.029-7.178-0.187-13.849-1.103-19.159c-1.997-11.586-7.735-14.018-12.196-14.018
		c-11.117,0-13.014,14.84-13.272,31.411c-1.212,0.035-2.379,0.483-3.273,1.318c-1.013,0.945-1.588,2.269-1.588,3.654
		c0,0,0.004,52.592,0.004,52.659c0.01,14.3-10.646,43.135-10.646,43.135c-10.34,26.729-9.389,47.842-7.1,60.189
		c-0.813,0.028-1.625,0.243-2.357,0.674c-1.783,1.047-2.738,3.082-2.402,5.123l15.859,96.379c0.396,2.414,2.484,4.188,4.933,4.188
		h87.838c2.762,0,5-2.238,5-5v-59.312c46.439,8.589,88.764,50.609,89.704,51.451c6.754,6.047,16.646,14.91,46.604,14.908
		c13.379,0,30.765-1.77,53.649-6.346c80.404-16.082,97.643-40.736,98.338-41.779c0.705-1.057,0.98-2.342,0.772-3.594
		C400.357,285.651,390.845,267.921,359.185,265.421z M40.793,61.039c0.652,0.157,1.604,1.957,2.25,5.705
		c0.76,4.409,0.921,10.32,0.955,16.777l-6.564-0.448C37.76,65.366,39.944,61.761,40.793,61.039z M103.697,339.757H25.104
		l-13.371-81.254c13.877,7.598,43.066,20.078,91.965,25.488V339.757z M120.778,276.705c-7.848-2.787-70.131-6.819-103.992-26.902
		c-2.083-6.15-8.361-29.831,4.467-62.989c0,0,2.17-5.617,3.125-8.145l96.4,41.879V276.705z M120.778,209.646l-93.018-40.41
		c3.336-10.021,5.218-18.898,4.809-29.465V92.764l88.209,6.026V209.646z M201.538,322.13c-12.421-10.821-37.581-32.3-70.761-42.701
		V92.878c0.081-1.139,0.445-3.229,1.947-4.854c1.758-1.901,4.774-2.888,8.967-2.934c17.295-0.188,28.217-5.014,34.255-8.931
		l80.193,155.667c0.248,0.48,24.044,23.533,52.821,33.543c0.043,0.014,23.994,8.099,49.438,10.02
		c10.223,0.772,18.125,3.364,23.844,7.697c-9.59,7.845-38.728,27.323-100.289,36.578C238.778,326.153,208.021,322.95,201.538,322.13
		z M301.693,335.651c-58.161,11.634-77.351,4.632-86.968-2.352c12.715,1.974,47.447-0.549,68.714-3.746
		c64.453-9.688,94.924-30.127,105.512-38.99c1.572,2.64,2.756,5.605,3.512,8.94C387.537,304.595,366.072,322.776,301.693,335.651z"
		/>
</g>
<g>
</g>
<g>
</g>
<g>
</g>
<g>
</g>
<g>
</g>
<g>
</g>
<g>
</g>
<g>
</g>
<g>
</g>
<g>
</g>
<g>
</g>
<g>
</g>
<g>
</g>
<g>
</g>
<g>
</g>
</svg>
