<?xml version="1.0" encoding="iso-8859-1"?>
<!-- Generator: Adobe Illustrator 19.1.0, SVG Export Plug-In . SVG Version: 6.00 Build 0)  -->
<svg version="1.1" id="Capa_1" xmlns="http://www.w3.org/2000/svg" xmlns:xlink="http://www.w3.org/1999/xlink" x="0px" y="0px"
	 viewBox="0 0 403.538 403.538" style="enable-background:new 0 0 403.538 403.538;" xml:space="preserve">
<g>
	<polygon style="fill:#DAB342;" points="103.116,214.247 115.841,215.58 118.845,207.712 102.046,206.12 	"/>
	<path style="fill:#E3D282;" d="M159.112,40.49c5.186-0.109,13.865-0.304,17.629,9.299c2.961,7.782-0.191,13.929-2.723,18.867
		c-2.291,4.468-3.523,7.152-2.218,10.381c1.179,2.98,3.291,4.098,7.235,5.976c4.923,2.344,11.665,5.554,14.298,15.505
		c2.353,9-0.876,14.429-3.232,18.394c-2.111,3.55-3.385,5.693-2.066,10.46c1.354,4.911,4.156,7.861,7.4,11.277
		c0.44,0.464,0.887,0.936,1.335,1.416V86.658c-3.239-6.123-17.669-34.61-19.045-58.562c-4.386-1.818-11.586-5.836-15.58-13.638
		c-0.737,0.534-1.553,1.075-2.442,1.618c0.476,4.94-1.856,9.873-3.842,14.043c-1.708,3.586-3.643,7.65-2.582,9.41
		C153.821,40.464,155.439,40.57,159.112,40.49z"/>
	<path style="fill:#DAB342;" d="M189.531,176.82c-1.928,6.064-1.152,10.455-0.4,11.684c1.324-0.568,4.494-3.705,6.421-9.769
		c1.933-6.077,1.15-10.474,0.396-11.692C194.664,167.585,191.47,170.722,189.531,176.82z"/>
	<path style="fill:#E3D282;" d="M206.77,86.658v55.406c0.448-0.48,0.895-0.952,1.334-1.416c3.244-3.416,6.046-6.366,7.399-11.273
		c1.32-4.771,0.046-6.914-2.065-10.464c-2.357-3.965-5.585-9.394-3.236-18.379c2.638-9.966,9.379-13.176,14.302-15.52
		c3.944-1.878,6.056-2.995,7.22-5.939c1.32-3.265,0.087-5.949-2.203-10.417c-2.532-4.938-5.684-11.085-2.741-18.819
		c3.783-9.65,12.467-9.458,17.648-9.347c3.675,0.082,5.29-0.025,5.792-0.891c1.102-1.829-0.833-5.893-2.541-9.479
		c-1.986-4.17-4.32-9.104-3.842-14.044c-0.888-0.542-1.704-1.083-2.441-1.617c-3.995,7.802-11.194,11.819-15.581,13.638
		C224.439,52.047,210.008,80.535,206.77,86.658z"/>
	<path style="fill:#DAB342;" d="M207.987,178.734c1.929,6.065,5.098,9.201,6.422,9.77c0.753-1.229,1.528-5.619-0.4-11.684
		c-1.929-6.065-5.099-9.201-6.423-9.77C206.834,168.279,206.058,172.669,207.987,178.734z"/>
	<path style="fill:#D68E7E;" d="M183.822,19.66c2.23,0.553,3.797,2.556,3.797,4.853c0,16.812,8.668,37.981,14.148,49.685
		c5.48-11.712,14.153-32.898,14.153-49.685c0-2.298,1.567-4.301,3.797-4.853c0.352-0.091,6.494-1.747,10.687-6.71
		c-6.22,1.229-15.42,2.299-28.635,2.299c-13.205,0-22.401-1.069-28.62-2.296C177.431,18.006,183.732,19.637,183.822,19.66z"/>
	<path style="fill:#DAB342;" d="M158.068,156.96h37.073c-1.692-3.876-4.191-6.515-6.957-9.426c-3.642-3.835-7.77-8.182-9.789-15.502
		c-2.455-8.873,0.762-14.283,3.11-18.232c2.077-3.493,3.449-5.8,2.157-10.739c-1.445-5.458-4.583-6.952-8.926-9.021
		c-4.257-2.027-9.556-4.55-12.221-11.292c-3.069-7.59,0.077-13.726,2.604-18.655c2.333-4.551,3.59-7.292,2.293-10.702
		c-1.016-2.59-2.226-3.03-8.082-2.903c-4.689,0.1-11.11,0.243-14.658-5.865c-3.795-6.297-0.494-13.231,2.16-18.803
		c0.806-1.691,1.622-3.407,2.191-4.968c-2.401,0.774-5.065,1.477-8.037,2.064c-1.124,9.474-3.395,36.114,3.711,54.817
		c0.096,0.252,4.439,18.067,4.746,45.479C149.632,139.927,153.796,156.96,158.068,156.96z"/>
	<path style="fill:#DAB342;" d="M291.163,64.917c-0.801-22.889-10.943-33.443-18.128-38.079c1.161,12.619,2.026,35.978-4.695,54.046
		c-0.511,2.623-3.507,18.646-4.13,36.144c0.09,40.787,12.274,71.585,16.492,81.019l22.862-2.167
		c1.439-9.306-2.493-39.903-5.436-62.807C295.034,108.993,291.835,84.093,291.163,64.917z"/>
	<polygon style="fill:#DAB342;" points="287.697,215.58 300.421,214.247 301.491,206.12 284.692,207.712 	"/>
	<path style="fill:#DAB342;" d="M130.508,26.792c-7.199,4.607-17.33,15.139-18.135,38.125c-0.671,19.177-3.871,44.076-6.965,68.155
		c-2.942,22.898-6.873,53.487-5.433,62.807l22.855,2.167c4.214-9.457,16.417-40.367,16.497-81.072
		c-0.627-17.5-3.617-33.471-4.128-36.089C128.47,62.794,129.346,39.401,130.508,26.792z"/>
	<path style="fill:#DAB342;" d="M220.582,166.96c1.156,2.036,2.161,4.326,2.956,6.828c1.557,4.895,2.058,9.885,1.411,14.052
		c-0.825,5.311-3.547,9.074-7.47,10.32c-0.9,0.287-1.843,0.433-2.802,0.433c-0.604,0-1.207-0.077-1.809-0.191l9.882,45.218
		c0.589,2.697-1.12,5.362-3.817,5.952c-0.359,0.078-0.719,0.116-1.072,0.116c-2.299,0-4.369-1.596-4.88-3.934l-8.349-38.202v88.027
		c0,2.762-2.239,5-5,5c-2.761,0-5-2.238-5-5v-98.733c-1.865,1.126-3.817,1.747-5.77,1.747h0c-0.958,0-1.901-0.146-2.803-0.433
		c-3.921-1.246-6.644-5.009-7.468-10.32c-0.647-4.167-0.146-9.157,1.411-14.052c0.797-2.505,1.809-4.788,2.966-6.828H160.93
		c-6.675,12.042-36.538,73.5-36.787,208.883c3.332,3.629,19.979,17.694,77.627,17.694c57.647,0,74.295-14.065,77.626-17.694
		c-0.249-135.372-30.108-196.835-36.785-208.883H220.582z"/>
	<path style="fill:#DAB342;" d="M254.515,20.852c0.569,1.561,1.386,3.276,2.192,4.968c2.653,5.571,5.955,12.506,2.119,18.872
		c-3.508,6.038-9.926,5.897-14.618,5.796c-5.863-0.131-7.066,0.313-8.101,2.951c-1.279,3.362-0.022,6.104,2.312,10.654
		c2.528,4.93,5.674,11.065,2.59,18.691c-2.651,6.706-7.949,9.229-12.206,11.256c-4.343,2.068-7.482,3.562-8.93,9.035
		c-1.288,4.925,0.085,7.231,2.161,10.725c2.348,3.949,5.565,9.359,3.108,18.236c-2.017,7.316-6.145,11.663-9.787,15.498
		c-2.765,2.911-5.264,5.55-6.956,9.426h37.074c4.271,0,8.487-17.032,8.623-33.749c0.182-22.431,4.65-45.227,4.746-45.479
		c7.121-18.74,4.842-45.353,3.715-54.817C259.582,22.329,256.917,21.626,254.515,20.852z"/>
	<path style="fill:#3F352F;" d="M301.157,64.567c-1.51-43.14-31.736-50.527-33.022-50.821c-0.047-0.011-17.858-2.189-24.659-11.033
		c-0.956-1.977-3.044-2.985-5.216-2.648c-0.829,0.13-1.579,0.477-2.208,0.976c-2.111,0.891-11.528,4.208-34.282,4.208
		c-22.684,0-32.124-3.311-34.324-4.239c-0.621-0.482-1.354-0.818-2.165-0.945c-2.174-0.337-4.261,0.672-5.216,2.648
		c-7.338,9.108-24.613,11.023-24.662,11.033c-1.286,0.294-31.513,7.682-33.023,50.821c-0.655,18.713-3.825,43.378-6.89,67.23
		c-4.972,38.695-7.683,61.672-4.076,70.172l2.302,17.491c0.302,2.293,2.136,4.079,4.436,4.32c0,0,20.819,2.172,20.992,2.172
		c2.054,0,3.923-1.265,4.668-3.217l6.623-17.347c1.262-2.499,9.933-20.341,15.082-47.859c1.423,2.848,3.179,5.263,5.341,6.939
		c-9.348,17.611-36.717,80.505-36.717,213.066c0,0.84,0.212,1.667,0.616,2.403c1.324,2.416,15.016,23.6,87.012,23.6
		c71.997,0,85.688-21.184,87.013-23.6c0.403-0.736,0.615-1.563,0.615-2.403c0-132.557-27.368-195.452-36.716-213.066
		c2.161-1.676,3.916-4.09,5.338-6.935c5.146,27.5,13.81,45.335,15.079,47.851l6.625,17.351c0.745,1.952,2.614,3.217,4.669,3.217
		c0.173,0,20.992-2.172,20.992-2.172c2.299-0.241,4.134-2.027,4.436-4.32l2.302-17.491c3.606-8.5,0.897-31.476-4.076-70.172
		C304.983,107.945,301.814,83.28,301.157,64.567z M241.396,14.459c0.737,0.534,1.553,1.075,2.441,1.617
		c-0.478,4.94,1.856,9.874,3.842,14.044c1.708,3.586,3.643,7.65,2.541,9.479c-0.503,0.865-2.118,0.973-5.792,0.891
		c-5.18-0.111-13.864-0.304-17.648,9.347c-2.942,7.734,0.209,13.881,2.741,18.819c2.291,4.468,3.523,7.152,2.203,10.417
		c-1.164,2.944-3.276,4.062-7.22,5.939c-4.923,2.344-11.665,5.554-14.302,15.52c-2.349,8.985,0.879,14.414,3.236,18.379
		c2.111,3.55,3.385,5.693,2.065,10.464c-1.353,4.907-4.155,7.857-7.399,11.273c-0.44,0.464-0.887,0.936-1.334,1.416V86.658
		c3.239-6.123,17.669-34.61,19.045-58.562C230.201,26.278,237.401,22.26,241.396,14.459z M214.009,176.82
		c1.928,6.064,1.152,10.455,0.4,11.684c-1.324-0.568-4.493-3.704-6.422-9.77c-1.929-6.064-1.153-10.455-0.401-11.685
		C208.91,167.619,212.08,170.754,214.009,176.82z M201.77,15.249c13.215,0,22.415-1.07,28.635-2.299
		c-4.193,4.963-10.335,6.619-10.687,6.71c-2.23,0.553-3.797,2.556-3.797,4.853c0,16.786-8.672,37.973-14.153,49.685
		c-5.48-11.703-14.148-32.873-14.148-49.685c0-2.298-1.567-4.301-3.797-4.853c-0.09-0.023-6.391-1.653-10.672-6.707
		C179.369,14.179,188.565,15.249,201.77,15.249z M155.861,30.12c1.986-4.17,4.318-9.104,3.842-14.043
		c0.889-0.543,1.705-1.084,2.442-1.618c3.994,7.802,11.194,11.819,15.58,13.638c1.376,23.951,15.806,52.438,19.045,58.562v55.406
		c-0.448-0.48-0.895-0.952-1.335-1.416c-3.244-3.416-6.046-6.366-7.4-11.277c-1.319-4.767-0.044-6.91,2.066-10.46
		c2.357-3.965,5.586-9.394,3.232-18.394c-2.634-9.951-9.376-13.161-14.298-15.505c-3.944-1.878-6.056-2.995-7.235-5.976
		c-1.305-3.229-0.073-5.913,2.218-10.381c2.532-4.938,5.684-11.085,2.723-18.867c-3.764-9.603-12.443-9.408-17.629-9.299
		c-3.673,0.08-5.291-0.025-5.833-0.96C152.217,37.77,154.153,33.706,155.861,30.12z M195.552,178.735
		c-1.928,6.063-5.097,9.2-6.421,9.769c-0.752-1.229-1.528-5.619,0.4-11.684c1.939-6.098,5.133-9.234,6.418-9.777
		C196.702,168.261,197.485,172.658,195.552,178.735z M115.841,215.58l-12.726-1.333l-1.07-8.127l16.799,1.593L115.841,215.58z
		 M122.831,198.045l-22.855-2.167c-1.44-9.319,2.49-39.908,5.433-62.807c3.094-24.079,6.294-48.979,6.965-68.155
		c0.805-22.986,10.936-33.518,18.135-38.125c-1.163,12.609-2.038,36.003,4.691,54.093c0.511,2.618,3.501,18.589,4.128,36.089
		C139.248,157.678,127.045,188.588,122.831,198.045z M149.445,123.211c-0.307-27.411-4.65-45.227-4.746-45.479
		c-7.106-18.703-4.835-45.344-3.711-54.817c2.972-0.587,5.636-1.289,8.037-2.064c-0.569,1.561-1.386,3.276-2.191,4.968
		c-2.653,5.571-5.955,12.506-2.16,18.803c3.548,6.108,9.969,5.965,14.658,5.865c5.856-0.127,7.066,0.313,8.082,2.903
		c1.297,3.41,0.041,6.151-2.293,10.702c-2.528,4.93-5.674,11.065-2.604,18.655c2.665,6.742,7.964,9.265,12.221,11.292
		c4.343,2.068,7.481,3.562,8.926,9.021c1.291,4.94-0.081,7.246-2.157,10.739c-2.348,3.949-5.565,9.359-3.11,18.232
		c2.019,7.32,6.146,11.667,9.789,15.502c2.765,2.911,5.264,5.55,6.957,9.426h-37.073
		C153.796,156.96,149.632,139.927,149.445,123.211z M279.396,375.843c-3.331,3.629-19.979,17.694-77.626,17.694
		c-57.648,0-74.295-14.065-77.627-17.694c0.249-135.383,30.111-196.841,36.787-208.883h22.038c-1.157,2.04-2.169,4.323-2.966,6.828
		c-1.557,4.895-2.058,9.885-1.411,14.052c0.825,5.311,3.547,9.074,7.468,10.32c0.902,0.287,1.845,0.433,2.803,0.433h0
		c1.953,0,3.905-0.621,5.77-1.747v98.733c0,2.762,2.239,5,5,5c2.761,0,5-2.238,5-5v-88.027l8.349,38.202
		c0.511,2.338,2.581,3.934,4.88,3.934c0.354,0,0.713-0.038,1.072-0.116c2.698-0.59,4.407-3.255,3.817-5.952l-9.882-45.218
		c0.602,0.114,1.205,0.191,1.809,0.191c0.958,0,1.901-0.146,2.802-0.433c3.922-1.246,6.645-5.009,7.47-10.32
		c0.647-4.167,0.146-9.157-1.411-14.052c-0.795-2.502-1.8-4.792-2.956-6.828h22.028
		C249.288,179.008,279.147,240.471,279.396,375.843z M258.841,77.733c-0.096,0.252-4.564,23.048-4.746,45.479
		c-0.136,16.717-4.352,33.749-8.623,33.749h-37.074c1.692-3.876,4.191-6.515,6.956-9.426c3.642-3.835,7.77-8.182,9.787-15.498
		c2.457-8.877-0.76-14.287-3.108-18.236c-2.077-3.493-3.449-5.8-2.161-10.725c1.449-5.473,4.587-6.967,8.93-9.035
		c4.257-2.027,9.556-4.55,12.206-11.256c3.084-7.626-0.062-13.762-2.59-18.691c-2.333-4.551-3.59-7.292-2.312-10.654
		c1.034-2.638,2.238-3.082,8.101-2.951c4.691,0.101,11.11,0.242,14.618-5.796c3.836-6.366,0.534-13.301-2.119-18.872
		c-0.806-1.691-1.623-3.407-2.192-4.968c2.402,0.774,5.067,1.477,8.04,2.064C263.683,32.38,265.962,58.993,258.841,77.733z
		 M300.421,214.247l-12.725,1.333l-3.004-7.867l16.799-1.593L300.421,214.247z M303.565,195.878l-22.862,2.167
		c-4.218-9.434-16.402-40.231-16.492-81.019c0.623-17.497,3.619-33.521,4.13-36.144c6.722-18.068,5.856-41.427,4.695-54.046
		c7.185,4.636,17.327,15.19,18.128,38.079c0.672,19.177,3.871,44.076,6.966,68.155C301.072,155.975,305.003,186.573,303.565,195.878
		z"/>
</g>
<g>
</g>
<g>
</g>
<g>
</g>
<g>
</g>
<g>
</g>
<g>
</g>
<g>
</g>
<g>
</g>
<g>
</g>
<g>
</g>
<g>
</g>
<g>
</g>
<g>
</g>
<g>
</g>
<g>
</g>
</svg>
