<?xml version="1.0" encoding="iso-8859-1"?>
<!-- Generator: Adobe Illustrator 19.1.0, SVG Export Plug-In . SVG Version: 6.00 Build 0)  -->
<svg version="1.1" id="Capa_1" xmlns="http://www.w3.org/2000/svg" xmlns:xlink="http://www.w3.org/1999/xlink" x="0px" y="0px"
	 viewBox="0 0 398.632 398.632" style="enable-background:new 0 0 398.632 398.632;" xml:space="preserve">
<g>
	<path style="fill:#AB9E85;" d="M194.505,210.67c-2.676,0-5.205,1.014-6.938,2.78c-8.252,8.415-15.242,16.184-20.859,22.427
		c-12.154,13.507-15.855,17.4-20.297,17.399c-2.119,0-4.162-0.932-5.151-2.825c-3.605-6.903,1.39-132.893,1.487-136.009
		c0.101-3.14-0.795-5.779-2.591-7.633c-1.497-1.546-3.565-2.432-5.676-2.432c-4.089,0-8.142,3.426-9.704,12.717
		c-4.203,24.994-8.084,75.348-8.207,76.782c-0.223,2.587-2.391,4.529-4.984,4.528c-2.955,0-4.898-1.185-5.727-3.084
		c-3.027-6.957-4.896-87.851-5.113-92.224c-0.282-5.669-4.408-7.681-7.856-7.681c-3.934,0-8.567,2.571-8.669,9.818
		c0,0-2.493,90.184-4.579,94.304c-0.479,0.945-1.245,1.714-2.19,2.195c-0.939,0.48-1.989,0.662-3.193,0.606
		c-1.713-0.001-3.321-0.883-4.239-2.356c-2.388-3.834-3.6-16.686-6.265-55.99c-0.544-8.016-1.057-15.586-1.579-22.361
		c-0.583-7.567-4.558-10.264-8.083-10.264c-2.094,0-4.174,0.924-5.709,2.534c-2.059,2.161-3.048,5.337-2.861,9.185
		c3.718,76.661,2.146,80.004,1.107,82.217c-0.835,1.775-2.668,2.873-4.523,2.873c-0.002,0-0.004,0-0.006,0
		c-0.186,0.017-3.764,0.151-5.294-2.481c-2.194-3.775-9.358-46.323-9.896-49.552c-0.795-4.779-4.671-6.918-8.159-6.918
		c-1.423,0-4.12,0.372-6.193,2.865c-2.431,2.921-3.151,7.86-2.032,13.909c0,0,25.535,137.682,27.596,150.117
		c0.064,0.389-2.91,42.326-2.91,42.326h102.48c0.266-13.936,2.516-31.604,10.714-45.033c0,0,38.508-63.02,50.227-82.669
		c4.035-6.768,5.174-12.718,3.125-16.325C200.422,212.072,197.712,210.67,194.505,210.67z M58.339,303.517
		c-0.257,0.039-0.511,0.059-0.762,0.059c-2.428,0-4.559-1.771-4.938-4.246l-12.199-79.849c-0.416-2.729,1.459-5.28,4.188-5.697
		c2.734-0.421,5.281,1.457,5.699,4.188l12.199,79.849C62.943,300.55,61.068,303.101,58.339,303.517z M83.317,298.576
		c0,2.762-2.239,5-5,5c-2.761,0-5-2.238-5-5v-79.85c0-2.762,2.239-5,5-5c2.761,0,5,2.238,5,5V298.576z M116.193,219.481
		l-12.199,79.849c-0.379,2.475-2.51,4.246-4.938,4.246c-0.25,0-0.506-0.02-0.762-0.059c-2.729-0.416-4.604-2.967-4.188-5.697
		l12.199-79.849c0.418-2.73,2.969-4.605,5.699-4.188C114.734,214.201,116.609,216.752,116.193,219.481z"/>
	<path style="fill:#C7BEA8;" d="M260.817,296.228c-0.118,2.683-0.289,5.046-0.461,6.986h104.289l-0.503-6.986H260.817z"/>
	<path style="fill:#C7BEA8;" d="M34.49,368.445l-0.503,6.986h104.289c-0.172-1.939-0.343-4.303-0.461-6.986H34.49z"/>
	<path style="fill:#AB9E85;" d="M379.881,77.009c-3.488,0-7.364,2.139-8.159,6.918c-0.537,3.229-7.701,45.777-9.896,49.553
		c-1.53,2.633-5.108,2.498-5.294,2.48c-0.002,0-0.004,0-0.006,0c-1.855,0-3.688-1.098-4.523-2.873
		c-1.039-2.213-2.61-5.555,1.107-82.217c0.186-3.848-0.803-7.023-2.861-9.184c-1.535-1.611-3.615-2.535-5.709-2.535
		c-3.525,0-7.5,2.697-8.083,10.264c-0.523,6.775-1.035,14.346-1.579,22.361c-2.665,39.305-3.877,52.156-6.265,55.99
		c-0.918,1.475-2.526,2.355-4.239,2.357c-1.204,0.055-2.254-0.127-3.193-0.607c-0.945-0.48-1.711-1.25-2.19-2.195
		c-2.086-4.119-4.579-94.303-4.579-94.303c-0.102-7.248-4.734-9.818-8.669-9.818c-3.448,0-7.574,2.012-7.856,7.68
		c-0.217,4.373-2.086,85.268-5.113,92.225c-0.828,1.898-2.772,3.084-5.727,3.084c-2.594,0-4.762-1.941-4.984-4.529
		c-0.123-1.434-4.004-51.787-8.207-76.781c-1.562-9.291-5.615-12.717-9.704-12.717c-2.11,0-4.179,0.885-5.676,2.432
		c-1.796,1.854-2.691,4.492-2.591,7.633c0.098,3.115,5.093,129.105,1.487,136.008c-0.989,1.895-3.032,2.826-5.151,2.826
		c-4.441,0-8.143-3.893-20.297-17.4c-5.617-6.242-12.607-14.012-20.859-22.426c-1.732-1.768-4.262-2.781-6.938-2.781
		c-3.207,0-5.917,1.402-7.25,3.748c-2.049,3.607-0.91,9.557,3.125,16.324c11.719,19.65,50.227,82.67,50.227,82.67
		c8.198,13.429,10.448,31.097,10.714,45.033h102.48c0,0-2.975-41.938-2.91-42.326c2.061-12.436,27.596-150.117,27.596-150.117
		c1.119-6.049,0.398-10.988-2.032-13.91C384.001,77.382,381.304,77.009,379.881,77.009z M300.337,231.3
		c-0.256,0.039-0.512,0.059-0.762,0.059c-2.428,0-4.559-1.771-4.938-4.246l-12.199-79.85c-0.416-2.729,1.459-5.279,4.188-5.697
		c2.73-0.416,5.281,1.457,5.699,4.188l12.199,79.85C304.941,228.334,303.066,230.884,300.337,231.3z M325.315,226.359
		c0,2.762-2.239,5-5,5c-2.761,0-5-2.238-5-5v-79.85c0-2.762,2.239-5,5-5c2.761,0,5,2.238,5,5V226.359z M358.191,147.263
		l-12.199,79.85c-0.379,2.475-2.51,4.246-4.938,4.246c-0.251,0-0.505-0.02-0.762-0.059c-2.729-0.416-4.604-2.967-4.188-5.697
		l12.199-79.85c0.418-2.73,2.965-4.607,5.699-4.188C356.732,141.984,358.607,144.535,358.191,147.263z"/>
	<path style="fill:#3F352F;" d="M112.005,213.784c-2.73-0.417-5.281,1.457-5.699,4.188L94.107,297.82
		c-0.416,2.73,1.459,5.281,4.188,5.697c0.256,0.039,0.512,0.059,0.762,0.059c2.428,0,4.559-1.771,4.938-4.246l12.199-79.849
		C116.609,216.752,114.734,214.201,112.005,213.784z"/>
	<path style="fill:#3F352F;" d="M50.328,217.971c-0.418-2.73-2.965-4.608-5.699-4.188c-2.729,0.417-4.604,2.968-4.188,5.697
		L52.64,299.33c0.379,2.475,2.51,4.246,4.938,4.246c0.251,0,0.505-0.02,0.762-0.059c2.729-0.416,4.604-2.967,4.188-5.697
		L50.328,217.971z"/>
	<path style="fill:#3F352F;" d="M78.317,213.726c-2.761,0-5,2.238-5,5v79.85c0,2.762,2.239,5,5,5c2.761,0,5-2.238,5-5v-79.85
		C83.317,215.964,81.078,213.726,78.317,213.726z"/>
	<path style="fill:#3F352F;" d="M194.505,200.67c-5.346,0-10.477,2.106-14.077,5.778c-8.401,8.568-28.019,30.369-30.716,33.136
		c-0.506-21.299,2.932-121.703,3.031-124.824c0.186-5.824-1.734-11.119-5.404-14.908c-3.369-3.479-8.057-5.474-12.858-5.474
		c-8.726,0-18.187,6.723-19.655,21.744c-0.723,7.384-1.85,18.046-3.045,29.137c-0.206-7.648-0.355-14.994-0.475-20.929
		c-0.188-9.234-0.35-17.209-0.574-21.729c-0.56-11.282-9.4-17.185-17.843-17.185c-9.139,0-18.485,6.759-18.669,19.678
		c0,0-0.406,26.689-0.621,36.297c-0.496-7.326-0.971-14.253-1.454-20.526c-1.037-13.468-9.815-19.496-18.054-19.496
		c-4.816,0-9.537,2.055-12.949,5.637c-3.935,4.13-5.927,10.014-5.609,16.566c0.609,12.559,1.073,23.126,1.422,32.011
		c-0.061-0.359-1.634-16.356-18.204-16.356c-5.401,0-10.46,2.357-13.881,6.47c-3.087,3.71-6.317,10.561-4.179,22.124l2.124,11.453
		c6.307,34.004,22.909,123.521,25.343,137.899l-4.531,62.898c-0.1,1.385,0.381,2.748,1.327,3.766
		c0.946,1.016,2.271,1.594,3.66,1.594h115.251c1.453,0,2.835-0.633,3.785-1.734c0.949-1.1,1.373-2.559,1.161-3.996
		c-0.056-0.383-5.489-38.771,8.128-61.078c0,0,38.533-63.062,50.279-82.759c8.119-13.614,5.51-22.375,3.232-26.385
		C207.318,203.963,201.357,200.67,194.505,200.67z M33.987,375.431l0.503-6.986h103.325c0.118,2.684,0.289,5.047,0.461,6.986H33.987
		z M198.63,230.743c-11.719,19.649-50.227,82.669-50.227,82.669c-8.198,13.43-10.448,31.098-10.714,45.033H35.21
		c0,0,2.975-41.938,2.91-42.326c-2.061-12.436-27.596-150.117-27.596-150.117c-1.119-6.049-0.399-10.988,2.032-13.909
		c2.073-2.493,4.77-2.865,6.193-2.865c3.488,0,7.364,2.139,8.159,6.918c0.537,3.229,7.701,45.776,9.896,49.552
		c1.53,2.633,5.108,2.498,5.294,2.481c0.002,0,0.004,0,0.006,0c1.855,0,3.688-1.098,4.523-2.873
		c1.039-2.213,2.61-5.556-1.107-82.217c-0.186-3.848,0.803-7.023,2.861-9.185c1.535-1.61,3.615-2.534,5.709-2.534
		c3.525,0,7.5,2.696,8.083,10.264c0.522,6.775,1.035,14.346,1.579,22.361c2.665,39.305,3.877,52.156,6.265,55.99
		c0.918,1.474,2.526,2.355,4.239,2.356c1.204,0.056,2.254-0.126,3.193-0.606c0.945-0.482,1.711-1.25,2.19-2.195
		c2.086-4.12,4.579-94.304,4.579-94.304c0.102-7.247,4.734-9.818,8.669-9.818c3.448,0,7.574,2.012,7.856,7.681
		c0.217,4.373,2.086,85.267,5.113,92.224c0.828,1.899,2.771,3.084,5.727,3.084c2.594,0.001,4.762-1.941,4.984-4.528
		c0.123-1.435,4.004-51.788,8.207-76.782c1.562-9.291,5.615-12.717,9.704-12.717c2.11,0,4.179,0.886,5.676,2.432
		c1.796,1.854,2.691,4.493,2.591,7.633c-0.098,3.116-5.093,129.105-1.487,136.009c0.989,1.893,3.032,2.825,5.151,2.825
		c4.441,0.001,8.143-3.893,20.297-17.399c5.617-6.243,12.607-14.012,20.859-22.427c1.732-1.767,4.262-2.78,6.938-2.78
		c3.207,0,5.917,1.401,7.25,3.747C203.804,218.025,202.666,223.975,198.63,230.743z"/>
	<path style="fill:#3F352F;" d="M292.326,145.753c-0.418-2.73-2.969-4.604-5.699-4.188c-2.728,0.418-4.603,2.969-4.188,5.697
		l12.199,79.85c0.379,2.475,2.51,4.246,4.938,4.246c0.25,0,0.506-0.02,0.762-0.059c2.729-0.416,4.604-2.967,4.188-5.697
		L292.326,145.753z"/>
	<path style="fill:#3F352F;" d="M354.003,141.566c-2.734-0.42-5.281,1.457-5.699,4.188l-12.199,79.85
		c-0.416,2.73,1.459,5.281,4.188,5.697c0.257,0.039,0.511,0.059,0.762,0.059c2.428,0,4.559-1.771,4.938-4.246l12.199-79.85
		C358.607,144.535,356.732,141.984,354.003,141.566z"/>
	<path style="fill:#3F352F;" d="M320.315,141.509c-2.761,0-5,2.238-5,5v79.85c0,2.762,2.239,5,5,5c2.761,0,5-2.238,5-5v-79.85
		C325.315,143.748,323.076,141.509,320.315,141.509z"/>
	<path style="fill:#3F352F;" d="M379.881,67.009c-16.57,0-18.143,15.998-18.204,16.357c0.349-8.885,0.812-19.453,1.422-32.012
		c0.317-6.553-1.675-12.436-5.609-16.566c-3.412-3.582-8.133-5.637-12.949-5.637c-8.238,0-17.017,6.029-18.054,19.496
		c-0.483,6.273-0.958,13.201-1.454,20.527c-0.215-9.607-0.621-36.297-0.621-36.297c-0.184-12.92-9.53-19.678-18.669-19.678
		c-8.442,0-17.283,5.902-17.843,17.184c-0.225,4.52-0.387,12.494-0.574,21.729c-0.119,5.936-0.269,13.281-0.475,20.93
		c-1.195-11.092-2.322-21.754-3.045-29.137c-1.469-15.021-10.93-21.744-19.655-21.744c-4.802,0-9.489,1.994-12.858,5.473
		c-3.67,3.789-5.59,9.084-5.404,14.908c0.1,3.121,3.537,103.525,3.031,124.824c-2.697-2.766-22.314-24.566-30.716-33.135
		c-3.601-3.672-8.732-5.779-14.077-5.779c-6.852,0-12.812,3.293-15.945,8.809c-2.277,4.01-4.887,12.771,3.232,26.385
		c11.746,19.697,50.279,82.76,50.279,82.76c13.617,22.307,8.184,60.695,8.128,61.078c-0.212,1.438,0.212,2.897,1.161,3.996
		c0.95,1.102,2.332,1.734,3.785,1.734h115.251c1.389,0,2.714-0.578,3.66-1.594c0.946-1.018,1.427-2.381,1.327-3.766l-4.531-62.898
		c2.434-14.379,19.036-103.896,25.343-137.9l2.124-11.453c2.139-11.562-1.092-18.414-4.179-22.123
		C390.341,69.367,385.283,67.009,379.881,67.009z M260.356,303.214c0.172-1.94,0.343-4.304,0.461-6.986h103.325l0.503,6.986H260.356
		z M388.107,93.785c0,0-25.535,137.682-27.596,150.117c-0.064,0.389,2.91,42.326,2.91,42.326h-102.48
		c-0.266-13.936-2.516-31.605-10.714-45.033c0,0-38.508-63.02-50.227-82.67c-4.035-6.768-5.174-12.717-3.125-16.324
		c1.333-2.346,4.043-3.748,7.25-3.748c2.676,0,5.205,1.014,6.938,2.781c8.252,8.414,15.242,16.184,20.859,22.426
		c12.154,13.508,15.855,17.4,20.297,17.4c2.119,0,4.162-0.932,5.151-2.826c3.605-6.903-1.39-132.893-1.487-136.008
		c-0.101-3.141,0.795-5.779,2.591-7.633c1.497-1.547,3.565-2.432,5.676-2.432c4.089,0,8.142,3.426,9.704,12.717
		c4.203,24.994,8.084,75.348,8.207,76.781c0.223,2.588,2.391,4.529,4.984,4.529c2.955,0,4.898-1.186,5.727-3.084
		c3.027-6.957,4.897-87.852,5.113-92.225c0.282-5.668,4.408-7.68,7.856-7.68c3.935,0,8.567,2.57,8.669,9.818
		c0,0,2.493,90.184,4.579,94.303c0.479,0.945,1.245,1.715,2.19,2.195c0.939,0.48,1.989,0.662,3.193,0.607
		c1.713-0.002,3.321-0.883,4.239-2.357c2.388-3.834,3.6-16.686,6.265-55.99c0.544-8.016,1.057-15.586,1.579-22.361
		c0.583-7.566,4.558-10.264,8.083-10.264c2.094,0,4.174,0.924,5.709,2.535c2.059,2.16,3.048,5.336,2.861,9.184
		c-3.718,76.662-2.147,80.004-1.107,82.217c0.835,1.775,2.668,2.873,4.523,2.873c0.002,0,0.004,0,0.006,0
		c0.185,0.018,3.764,0.152,5.294-2.48c2.194-3.775,9.358-46.324,9.896-49.553c0.795-4.779,4.671-6.918,8.159-6.918
		c1.423,0,4.12,0.373,6.193,2.865C388.505,82.796,389.226,87.736,388.107,93.785z"/>
</g>
<g>
</g>
<g>
</g>
<g>
</g>
<g>
</g>
<g>
</g>
<g>
</g>
<g>
</g>
<g>
</g>
<g>
</g>
<g>
</g>
<g>
</g>
<g>
</g>
<g>
</g>
<g>
</g>
<g>
</g>
</svg>
