<?xml version="1.0" encoding="iso-8859-1"?>
<!-- Generator: Adobe Illustrator 19.1.0, SVG Export Plug-In . SVG Version: 6.00 Build 0)  -->
<svg version="1.1" id="Capa_1" xmlns="http://www.w3.org/2000/svg" xmlns:xlink="http://www.w3.org/1999/xlink" x="0px" y="0px"
	 viewBox="0 0 420.525 420.525" style="enable-background:new 0 0 420.525 420.525;" xml:space="preserve">
<g>
	<path style="fill:#C7BEA8;" d="M288.092,144.027c-0.255-3.4-0.651-6.237-1.003-8.303c-24.987,0.409-42.739,7.19-54.465,14.143
		C253.89,144.499,272.708,143.327,288.092,144.027z"/>
	<path style="fill:#C4573F;" d="M240.232,202.294c9.979,4.565,19.997,5.614,23.996,5.855c13.884-12.33,21.879-28.607,23.737-48.436
		c0.178-1.892,0.286-3.73,0.344-5.501c-19.247-0.963-44.388,1.102-72.929,11.421C216.357,182.848,224.689,195.182,240.232,202.294z"
		/>
	<path style="fill:#C7BEA8;" d="M187.918,149.877c-11.724-6.954-29.48-13.743-54.481-14.152c-0.353,2.065-0.748,4.903-1.004,8.306
		C147.821,143.33,166.647,144.507,187.918,149.877z"/>
	<path style="fill:#D68E7E;" d="M310.806,127.079c2.199,0.277,4.421,0.608,6.653,0.969c2.138-69.617-5.61-107.095-8.381-118.048
		h-7.072C311.79,48.7,311.199,109.748,310.806,127.079z"/>
	<path style="fill:#D68E7E;" d="M304.027,314.405c-6.707,5.439-15.927,11.329-28.239,16.26l-1.139,9.771
		c33.736-10.706,45.041-34.417,47.424-40.455l-1.268-3.621C317.312,301.515,311.952,307.978,304.027,314.405z"/>
	<path style="fill:#D68E7E;" d="M116.499,314.405c-7.926-6.428-13.284-12.891-16.778-18.047l-1.274,3.64
		c2.365,6.126,13.469,29.708,47.433,40.441l-1.14-9.774C132.426,325.735,123.206,319.845,116.499,314.405z"/>
	<path style="fill:#C4573F;" d="M155.239,334.366l1.274,10.924l50.254,65.235h6.992l50.254-65.235l1.274-10.924
		c-14.589,4.501-32.7,7.556-55.026,7.556C187.938,341.922,169.828,338.867,155.239,334.366z"/>
	<path style="fill:#C7BEA8;" d="M298.228,144.786c12.529,1.316,22.011,3.739,27.682,5.51c0.52-4.253,0.697-7.854,0.744-10.343
		c-10.137-2.21-19.971-3.556-29.375-4.045C297.649,138.323,298.009,141.334,298.228,144.786z"/>
	<path style="fill:#D68E7E;" d="M236.071,211.387c-9.302-4.256-19.782-11.728-25.81-24.702
		c-6.027,12.975-16.508,20.446-25.809,24.702c-14.767,6.756-29.357,6.834-29.971,6.834c-15.88,0-29.36-3.803-40.256-11.302
		l3.524,15.596c6.809,1.12,23.79,3.364,41.25,1.377c16.208-1.845,25.661-7.058,33.258-11.246c6.127-3.378,11.418-6.296,18.004-6.296
		c6.587,0,11.879,2.918,18.007,6.296c7.596,4.189,17.049,9.401,33.255,11.246c17.507,1.992,34.451-0.252,41.25-1.375l3.525-15.599
		c-10.895,7.5-24.376,11.303-40.256,11.303C265.428,218.221,250.838,218.143,236.071,211.387z"/>
	<path style="fill:#C4573F;" d="M279.19,207.126c11.879-2.08,21.679-7.132,29.227-15.107c8.82-9.319,13.398-21.278,15.764-31.734
		c-4.707-1.505-13.615-3.901-25.811-5.263C297.825,170.27,293.688,189.927,279.19,207.126z"/>
	<path style="fill:#C4573F;" d="M156.306,208.159c8.957-0.482,46.658-4.785,48.831-42.549
		c-28.536-10.318-53.675-12.364-72.922-11.402c0.058,1.774,0.166,3.611,0.344,5.505
		C134.417,179.548,142.416,195.828,156.306,208.159z"/>
	<path style="fill:#C7BEA8;" d="M123.248,135.908c-9.403,0.489-19.234,1.834-29.369,4.043c0.051,2.489,0.233,6.089,0.755,10.339
		c5.677-1.77,15.149-4.188,27.667-5.503C122.519,141.335,122.878,138.324,123.248,135.908z"/>
	<path style="fill:#D68E7E;" d="M109.719,127.079c-0.394-17.331-0.985-78.379,8.8-117.079h-7.074
		c-2.769,10.942-10.516,48.425-8.378,118.048C105.299,127.688,107.52,127.356,109.719,127.079z"/>
	<path style="fill:#C4573F;" d="M122.159,155.015c-12.169,1.355-21.07,3.754-25.795,5.261c2.373,10.487,6.957,22.482,15.781,31.785
		c7.546,7.955,17.337,12.993,29.203,15.069C126.846,189.927,122.706,170.267,122.159,155.015z"/>
	<path style="fill:#3F352F;" d="M332.774,131.091c-1.797-0.426-3.585-0.824-5.366-1.2c2.847-87.048-9.255-124.864-9.779-126.456
		C316.953,1.385,315.039,0,312.881,0h-17.455c-1.586,0-3.078,0.753-4.021,2.028c-0.943,1.275-1.225,2.922-0.76,4.439
		c10.924,35.597,10.534,100.79,10.168,119.64c-3.848-0.27-7.639-0.417-11.354-0.417c-45.487,0-70.148,19.711-79.197,28.933
		c-9.049-9.222-33.711-28.933-79.196-28.933c-3.716,0-7.508,0.147-11.354,0.417c-0.368-18.853-0.761-84.031,10.169-119.64
		c0.465-1.516,0.184-3.163-0.76-4.439C128.178,0.753,126.686,0,125.1,0h-17.458c-2.158,0-4.072,1.385-4.748,3.435
		c-0.524,1.592-12.626,39.408-9.778,126.457c-1.78,0.375-3.568,0.773-5.364,1.199c-2.154,0.512-3.717,2.379-3.838,4.59
		c-0.083,1.496-1.67,34.968,17.293,58.987l7.52,33.28c0.431,1.908,1.935,3.39,3.849,3.792c0.73,0.153,14.312,2.954,31.583,2.954
		c5.082,0,10.487-0.243,15.974-0.867c18.173-2.068,29.029-8.055,36.955-12.425c5.32-2.934,9.164-5.053,13.176-5.053
		c4.013,0,7.857,2.12,13.179,5.054c7.926,4.37,18.781,10.355,36.952,12.424c5.488,0.625,10.891,0.867,15.974,0.867
		c17.269,0,30.853-2.801,31.583-2.954c1.914-0.402,3.418-1.884,3.849-3.792l7.517-33.278c18.966-24.02,17.38-57.493,17.297-58.989
		C336.491,133.47,334.929,131.602,332.774,131.091z M309.078,10c2.771,10.953,10.519,48.431,8.381,118.048
		c-2.232-0.36-4.454-0.691-6.653-0.969c0.394-17.331,0.984-78.379-8.8-117.079H309.078z M287.089,135.725
		c0.352,2.065,0.748,4.902,1.003,8.303c-15.384-0.7-34.202,0.472-55.468,5.84C244.35,142.915,262.102,136.134,287.089,135.725z
		 M288.31,154.212c-0.058,1.771-0.166,3.609-0.344,5.501c-1.858,19.829-9.854,36.106-23.737,48.436
		c-3.999-0.241-14.018-1.29-23.996-5.855c-15.544-7.112-23.876-19.446-24.852-36.661
		C243.922,155.314,269.063,153.249,288.31,154.212z M133.437,135.725c25.001,0.409,42.758,7.198,54.481,14.152
		c-21.271-5.37-40.097-6.547-55.485-5.847C132.689,140.628,133.084,137.79,133.437,135.725z M205.137,165.61
		c-2.173,37.764-39.874,42.066-48.831,42.549c-13.89-12.331-21.889-28.611-23.747-48.446c-0.178-1.894-0.286-3.731-0.344-5.505
		C151.462,153.246,176.601,155.292,205.137,165.61z M111.444,10h7.074c-9.785,38.7-9.193,99.748-8.8,117.079
		c-2.199,0.277-4.42,0.608-6.652,0.969C100.929,58.425,108.676,20.942,111.444,10z M93.879,139.951
		c10.135-2.209,19.966-3.554,29.369-4.043c-0.37,2.416-0.729,5.427-0.947,8.879c-12.518,1.314-21.99,3.733-27.667,5.503
		C94.112,146.04,93.93,142.44,93.879,139.951z M112.146,192.061c-8.824-9.303-13.408-21.298-15.781-31.785
		c4.725-1.507,13.626-3.905,25.795-5.261c0.547,15.252,4.686,34.912,19.189,52.115C129.482,205.054,119.691,200.016,112.146,192.061
		z M302.773,222.517c-6.799,1.123-23.743,3.367-41.25,1.375c-16.206-1.845-25.659-7.058-33.255-11.246
		c-6.128-3.378-11.42-6.296-18.007-6.296c-6.586,0-11.877,2.918-18.004,6.296c-7.597,4.189-17.05,9.401-33.258,11.246
		c-17.46,1.987-34.441-0.257-41.25-1.377l-3.524-15.596c10.896,7.499,24.376,11.302,40.256,11.302
		c0.614,0,15.204-0.078,29.971-6.834c9.302-4.256,19.782-11.728,25.809-24.702c6.027,12.975,16.508,20.446,25.81,24.702
		c14.767,6.756,29.356,6.834,29.971,6.834c15.88,0,29.361-3.803,40.256-11.303L302.773,222.517z M308.417,192.02
		c-7.548,7.975-17.348,13.026-29.227,15.107c14.497-17.199,18.635-36.856,19.18-52.104c12.195,1.361,21.103,3.758,25.811,5.263
		C321.815,170.741,317.237,182.7,308.417,192.02z M325.909,150.296c-5.671-1.77-15.152-4.193-27.682-5.51
		c-0.219-3.452-0.578-6.463-0.949-8.878c9.404,0.489,19.238,1.835,29.375,4.045C326.607,142.442,326.429,146.043,325.909,150.296z"
		/>
	<path style="fill:#3F352F;" d="M326.54,282.47c-0.698-1.995-2.579-3.324-4.692-3.337c-0.011-0.001-0.021-0.001-0.031-0.001
		c-2.101,0-3.983,1.325-4.702,3.302c-0.045,0.123-4.667,12.475-19.941,24.651c-14.213,11.33-40.828,24.837-86.911,24.837
		c-46.082,0-72.696-13.507-86.908-24.837c-15.273-12.177-19.896-24.528-19.933-24.63c-0.706-1.998-2.595-3.334-4.714-3.334
		c-0.002,0-0.005,0-0.008,0c-2.121,0.003-4.011,1.346-4.711,3.348l-5.559,15.879c-0.35,0.997-0.374,2.078-0.07,3.089
		c0.466,1.553,11.849,37.766,60.45,50.239l51.537,66.901c0.946,1.228,2.41,1.948,3.961,1.948h11.912c1.551,0,3.015-0.72,3.961-1.948
		l51.537-66.901c48.597-12.474,59.982-48.686,60.448-50.239c0.304-1.011,0.279-2.092-0.069-3.088L326.54,282.47z M98.446,299.998
		l1.274-3.64c3.494,5.156,8.853,11.619,16.778,18.047c6.707,5.439,15.927,11.33,28.24,16.261l1.14,9.774
		C111.915,329.706,100.812,306.124,98.446,299.998z M264.014,345.29l-50.254,65.235h-6.992l-50.254-65.235l-1.274-10.924
		c14.589,4.501,32.698,7.556,55.022,7.556c22.326,0,40.438-3.055,55.026-7.556L264.014,345.29z M274.649,340.436l1.139-9.771
		c12.312-4.931,21.532-10.82,28.239-16.26c7.925-6.427,13.284-12.891,16.778-18.046l1.268,3.621
		C319.69,306.019,308.386,329.729,274.649,340.436z"/>
</g>
<g>
</g>
<g>
</g>
<g>
</g>
<g>
</g>
<g>
</g>
<g>
</g>
<g>
</g>
<g>
</g>
<g>
</g>
<g>
</g>
<g>
</g>
<g>
</g>
<g>
</g>
<g>
</g>
<g>
</g>
</svg>
