<?xml version="1.0" encoding="iso-8859-1"?>
<!-- Generator: Adobe Illustrator 19.1.0, SVG Export Plug-In . SVG Version: 6.00 Build 0)  -->
<svg version="1.1" id="Capa_1" xmlns="http://www.w3.org/2000/svg" xmlns:xlink="http://www.w3.org/1999/xlink" x="0px" y="0px"
	 viewBox="0 0 402.543 402.543" style="enable-background:new 0 0 402.543 402.543;" xml:space="preserve">
<g>
	<path style="fill:#D68E7E;" d="M264.414,205.157c0-23.305-12.7-43.686-31.534-54.626l30.9,63.48
		C264.189,211.115,264.414,208.163,264.414,205.157z"/>
	<path style="fill:#D68E7E;" d="M169.659,150.533c-18.831,10.941-31.529,31.321-31.529,54.624c0,3.005,0.225,5.957,0.633,8.851
		L169.659,150.533z"/>
	<path style="fill:#C4573F;" d="M213.229,133.008l-11.959-24.568l-11.96,24.569c3.895-0.644,7.888-0.994,11.962-0.994
		C205.345,132.015,209.336,132.365,213.229,133.008z"/>
	<path style="fill:#DAB342;" d="M201.271,52.752c26.35-0.027,36.832-18.302,40.995-32.205c-14.616,5.027-37.387,5.24-41.055,5.24
		c-3.501,0-26.293-0.205-40.927-5.216C164.452,34.469,174.936,52.724,201.271,52.752z"/>
	<path style="fill:#E3D282;" d="M11.675,111.559l43.207,45.75l16.878-6.277v-33.613c0.188-15.333-0.56-53.532-5.432-71.723
		L11.675,111.559z"/>
	<path style="fill:#C4573F;" d="M137.115,240.242l-13.657,28.057h40.966C152.98,261.596,143.506,251.885,137.115,240.242z"/>
	<path style="fill:#7E6F83;" d="M259.828,228.738l-40.997-84.221c-5.579-1.618-11.466-2.503-17.559-2.503
		c-6.095,0-11.984,0.886-17.565,2.505l-40.993,84.219c9.363,23.166,32.075,39.56,58.558,39.56
		C227.754,268.299,250.465,251.904,259.828,228.738z"/>
	<path style="fill:#E3D282;" d="M330.783,117.356v33.676l16.878,6.277l43.207-45.75l-54.654-65.864
		C331.34,63.887,330.595,102.078,330.783,117.356z"/>
	<path style="fill:#C4573F;" d="M238.121,268.299h40.964l-13.657-28.055C259.036,251.885,249.563,261.596,238.121,268.299z"/>
	<path style="fill:#E3D282;" d="M247.797,33.715c-6.357,13.224-19.576,28.978-46.442,29.035c-0.009,0-0.017,0.002-0.026,0.002
		c-0.02,0-0.038-0.001-0.058-0.001c-0.02,0-0.039,0.001-0.058,0.001c-0.009,0-0.017-0.002-0.026-0.002
		c-26.866-0.057-40.084-15.812-46.441-29.035c-4.33-9.007-6.062-17.949-6.749-23.284c-37.72,1.434-65.295,20.285-73.914,26.951
		c8.149,20.779,7.756,73.728,7.677,80.097l0.001,274.72h239.023v-274.78c-0.078-6.313-0.471-59.258,7.678-80.037
		c-8.614-6.662-36.192-25.516-73.915-26.95C253.859,15.766,252.127,24.708,247.797,33.715z M291.39,270.731
		c0.451,0.75,0.71,1.629,0.71,2.568c0,2.762-2.239,5-5,5c-0.008,0-0.014,0-0.02,0H115.463c-1.724,0-3.325-0.887-4.239-2.348
		c-0.914-1.462-1.011-3.291-0.257-4.84l20.896-42.93c-2.41-7.244-3.734-14.98-3.734-23.025c0-31.669,20.234-58.692,48.451-68.843
		l20.193-41.488c0.837-1.72,2.583-2.811,4.496-2.811c1.913,0,3.658,1.091,4.496,2.811l20.194,41.486
		c28.219,10.15,48.455,37.174,48.455,68.845c0,8.044-1.325,15.78-3.734,23.026L291.39,270.731z"/>
	<path style="fill:#3F352F;" d="M338.007,32.276c-1.433-1.312-35.891-31.931-88.014-31.931c-2.695,0-4.906,2.144-4.998,4.838
		c-0.009,0.267-0.056,1.363-0.237,3.048c-0.01,0.056-0.031,0.108-0.038,0.165c-2.489,2.624-17.537,7.392-43.509,7.392
		c-25.973,0-40.978-4.781-43.41-7.398c-0.195-1.772-0.244-2.924-0.254-3.198c-0.083-2.7-2.296-4.846-4.997-4.846
		c-52.122,0-86.397,30.854-88.014,31.931c-4.055,2.7-63.384,76.305-63.384,76.305c-1.614,1.945-1.523,4.789,0.212,6.627
		l48.521,51.375c0.963,1.02,2.285,1.567,3.637,1.567c0.584,0,1.174-0.102,1.742-0.313l16.495-6.135v235.497c0,2.761,2.238,5,5,5
		h249.023c2.761,0,5-2.239,5-5l0-235.497l16.497,6.135c0.568,0.211,1.158,0.313,1.742,0.313c1.351,0,2.674-0.548,3.636-1.567
		l48.521-51.375c1.735-1.838,1.827-4.682,0.212-6.627C401.391,108.58,345.606,39.234,338.007,32.276z M71.76,117.418v33.613
		l-16.878,6.277l-43.207-45.75l54.653-65.863C71.201,63.886,71.948,102.086,71.76,117.418z M201.211,25.787
		c3.668,0,26.439-0.212,41.055-5.24c-4.163,13.903-14.645,32.177-40.995,32.205c-26.335-0.027-36.819-18.283-40.987-32.181
		C174.917,25.581,197.71,25.787,201.211,25.787z M320.783,117.418v274.78H81.76l-0.001-274.72
		c0.079-6.369,0.473-59.318-7.677-80.097c8.619-6.666,36.194-25.516,73.914-26.951c0.688,5.335,2.419,14.277,6.749,23.284
		c6.357,13.223,19.575,28.978,46.441,29.035c0.009,0,0.017,0.002,0.026,0.002c0.02,0,0.039-0.001,0.058-0.001
		c0.02,0,0.039,0.001,0.058,0.001c0.009,0,0.017-0.002,0.026-0.002c26.867-0.057,40.085-15.812,46.442-29.035
		c4.33-9.007,6.061-17.949,6.749-23.284c37.723,1.434,65.301,20.289,73.915,26.95C320.312,58.16,320.705,111.106,320.783,117.418z
		 M347.661,157.309l-16.878-6.277v-33.676c-0.188-15.277,0.557-53.469,5.431-71.661l54.654,65.864L347.661,157.309z"/>
	<path style="fill:#3F352F;" d="M225.959,136.313l-20.194-41.486c-0.837-1.72-2.583-2.811-4.496-2.811
		c-1.913,0-3.658,1.092-4.496,2.811l-20.193,41.488c-28.217,10.15-48.451,37.174-48.451,68.843c0,8.044,1.324,15.78,3.734,23.025
		l-20.896,42.93c-0.754,1.549-0.657,3.378,0.257,4.84c0.914,1.461,2.516,2.348,4.239,2.348H287.08c0.006,0,0.012,0,0.02,0
		c2.761,0,5-2.238,5-5c0-0.939-0.259-1.818-0.71-2.568l-20.71-42.547c2.41-7.246,3.734-14.982,3.734-23.026
		C274.414,173.486,254.178,146.463,225.959,136.313z M264.414,205.157c0,3.006-0.225,5.958-0.633,8.854l-30.9-63.48
		C251.714,161.471,264.414,181.853,264.414,205.157z M201.269,108.44l11.959,24.568c-3.893-0.643-7.884-0.993-11.956-0.993
		c-4.075,0-8.067,0.351-11.962,0.994L201.269,108.44z M169.659,150.533l-30.896,63.475c-0.408-2.893-0.633-5.846-0.633-8.851
		C138.129,181.855,150.828,161.475,169.659,150.533z M123.457,268.299l13.657-28.057c6.392,11.643,15.865,21.353,27.309,28.057
		H123.457z M142.714,228.738l40.993-84.219c5.581-1.619,11.47-2.505,17.565-2.505c6.093,0,11.98,0.885,17.559,2.503l40.997,84.221
		c-9.364,23.166-32.075,39.56-58.556,39.56C174.789,268.299,152.078,251.904,142.714,228.738z M279.085,268.299h-40.964
		c11.442-6.703,20.915-16.414,27.308-28.055L279.085,268.299z"/>
</g>
<g>
</g>
<g>
</g>
<g>
</g>
<g>
</g>
<g>
</g>
<g>
</g>
<g>
</g>
<g>
</g>
<g>
</g>
<g>
</g>
<g>
</g>
<g>
</g>
<g>
</g>
<g>
</g>
<g>
</g>
</svg>
