<?xml version="1.0" encoding="iso-8859-1"?>
<!-- Generator: Adobe Illustrator 19.1.0, SVG Export Plug-In . SVG Version: 6.00 Build 0)  -->
<svg version="1.1" id="Capa_1" xmlns="http://www.w3.org/2000/svg" xmlns:xlink="http://www.w3.org/1999/xlink" x="0px" y="0px"
	 viewBox="0 0 430.856 430.856" style="enable-background:new 0 0 430.856 430.856;" xml:space="preserve">
<g>
	<path style="fill:#BBD3DF;" d="M272.127,247.971c-32.184-0.155-65.355-0.296-77.49,19.518c2.857,0.59,5.788,1.196,8.819,1.826
		c21.502,4.471,44.339,6.736,67.874,6.736c67.944,0,125.315-18.839,145.113-26.191c-1.019-23.212-19.937-25.719-60.619-28.893
		c-3.118-0.244-6.362-0.499-9.692-0.775c-0.132,2.176-0.464,4.725-1.324,7.611c-4.315,14.492-18.508,19.574-56.246,20.141
		C283.206,248.023,277.574,247.996,272.127,247.971z"/>
	<path style="fill:#8EB6CA;" d="M231.383,233.037c-0.554-0.217-56.023-21.478-92.479-4.703c-11.185,5.146-19.5,13.496-24.801,24.852
		c19.468,2.355,39.892,6.028,70.283,12.204c13.545-27.751,52.887-27.587,87.789-27.419c5.646,0.027,10.979,0.053,16.239-0.026
		c39.834-0.597,44.873-6.488,46.811-12.996c0.624-2.095,0.852-3.954,0.94-5.649c-5.691-0.549-11.574-1.195-17.588-2.016
		c-38.829-5.295-57.674-15.456-66.437-22.509c-3.597,12.796-9.081,29.36-15.047,36.747
		C235.723,233.218,233.415,233.831,231.383,233.037z"/>
	<path style="fill:#AB9E85;" d="M201.421,279.106c-57.423-11.938-82.255-16.29-116.126-18.539
		c-23.964-1.592-59.275-4.609-72.693-5.775v26.549h98.788v-5.71c0-1.444,0.665-2.775,1.714-3.769
		c1.284-1.214,3.74-1.216,3.968-1.184c0.212,0.029,21.469,2.975,40.598,7.278c19.859,4.467,42.06,8.506,55.324,10.918
		c2.813,0.512,5.19,0.944,7.013,1.285c7.729,1.441,26.45,2.993,49.292,2.993c27.112,0,79.527-2.312,125.951-17.796
		c0.143-0.048,0.29-0.09,0.436-0.124c0.213-0.051,18.299-4.507,23.676-15.797c-21.085,7.763-79.37,26.616-148.03,26.616
		C247.113,286.051,223.592,283.715,201.421,279.106z"/>
	<path style="fill:#C7BEA8;" d="M224.072,220.037c2.918,0.879,5.36,1.684,7.187,2.316c5.933-10.154,11.986-32.231,14.668-43.43
		c-0.942-0.803-2.167-1.836-3.602-3.033l-4.079,5.826c-0.973,1.39-2.524,2.133-4.1,2.133c-0.99,0-1.99-0.293-2.863-0.904
		c-2.262-1.584-2.812-4.701-1.228-6.963l4.505-6.436c-2.173-1.74-4.522-3.593-7.001-5.502l-4.391,5.941
		c-0.98,1.326-2.493,2.029-4.025,2.029c-1.033,0-2.074-0.319-2.968-0.98c-2.221-1.641-2.691-4.771-1.049-6.992l4.438-6.004
		c-2.282-1.669-4.606-3.326-6.941-4.936l-4.942,6.348c-0.986,1.267-2.459,1.929-3.949,1.929c-1.074,0-2.155-0.345-3.068-1.055
		c-2.179-1.696-2.57-4.838-0.874-7.017l4.454-5.721c-2.666-1.663-5.284-3.201-7.792-4.541l-4.918,5.83
		c-0.989,1.173-2.402,1.776-3.824,1.776c-1.139,0-2.283-0.387-3.222-1.179c-2.11-1.78-2.378-4.935-0.598-7.045l3.059-3.627
		c-0.63-0.209-1.247-0.398-1.842-0.557c-5.235-1.389-9.956,0.092-15.689,3.859l43.504,32.711
		C221.877,180.887,234.485,197.531,224.072,220.037z"/>
	<path style="fill:#BBD3DF;" d="M85.958,250.588c6.127,0.407,11.957,0.883,17.729,1.453c6.184-15.133,16.613-26.163,31.062-32.805
		c25.785-11.85,58.571-7.104,79.516-1.89c11.134-21.763-6.247-33.778-7.029-34.302c-0.076-0.051-0.15-0.104-0.223-0.158
		l-45.901-34.512c-1.724,1.416-3.539,2.943-5.497,4.606c-11.067,9.403-24.841,21.105-44.848,29.618
		c-8.804,3.746-17.771,5.254-26.491,5.255c-27.419,0.003-52.458-14.896-62.799-21.966c-20.724,43.605-7.626,72.106-3.478,79.332
		C33.647,246.568,64.418,249.157,85.958,250.588z"/>
	<path style="fill:#3F352F;" d="M428.428,247.304c-0.671-0.413-1.421-0.651-2.184-0.718c-3.006-30.382-32.689-32.705-69.641-35.59
		c-11.088-0.865-23.656-1.846-36.675-3.621c-45.496-6.204-60.937-19.289-64.89-23.591c0.687-2.786,1.144-4.783,1.323-5.581
		c0.401-1.786-0.206-3.649-1.583-4.855c-1.802-1.58-44.39-38.74-67.108-44.768c-14.31-3.793-24.997,5.283-38.529,16.781
		c-10.551,8.963-23.682,20.119-42.289,28.037c-38.64,16.441-83.66-18.582-84.107-18.936c-1.168-0.926-2.688-1.283-4.144-0.973
		c-1.457,0.31-2.7,1.252-3.391,2.572C-7.465,199.384,0.255,230.4,6.448,244.496c-0.818,0.195-1.589,0.57-2.222,1.15
		c-1.035,0.947-1.624,2.285-1.624,3.689v37.005c0,2.762,2.239,5,5,5H116.39c2.761,0,5-2.238,5-5v-4.918
		c7.512,1.151,21.292,3.411,34.085,6.289c20.06,4.512,42.388,8.574,55.729,11.001c2.795,0.509,5.157,0.938,6.968,1.276
		c8.166,1.523,27.648,3.163,51.126,3.163c33.809,0,83.6-3.168,128.917-18.243c3.304-0.823,34.116-9.168,32.586-33.656
		C430.7,249.629,429.814,248.155,428.428,247.304z M344.809,227.803c0.86-2.887,1.192-5.436,1.324-7.611
		c3.33,0.276,6.574,0.531,9.692,0.775c40.682,3.175,59.6,5.682,60.619,28.893c-19.798,7.352-77.169,26.191-145.113,26.191
		c-23.536,0-46.372-2.266-67.874-6.736c-3.031-0.63-5.961-1.236-8.819-1.826c12.134-19.814,45.306-19.673,77.49-19.518
		c5.446,0.025,11.078,0.053,16.436-0.027C326.301,247.377,340.494,242.295,344.809,227.803z M318.577,217.283
		c6.014,0.82,11.898,1.467,17.588,2.016c-0.088,1.695-0.316,3.555-0.94,5.649c-1.938,6.508-6.977,12.399-46.811,12.996
		c-5.26,0.079-10.593,0.054-16.239,0.026c-34.903-0.168-74.245-0.332-87.789,27.419c-30.391-6.176-50.815-9.85-70.283-12.204
		c5.301-11.355,13.616-19.706,24.801-24.852c36.456-16.774,91.925,4.486,92.479,4.703c2.032,0.794,4.34,0.181,5.709-1.516
		c5.966-7.387,11.45-23.951,15.047-36.747C260.903,201.827,279.748,211.988,318.577,217.283z M185.106,138.246
		c0.595,0.158,1.212,0.348,1.842,0.557l-3.059,3.627c-1.781,2.11-1.513,5.265,0.598,7.045c0.938,0.792,2.083,1.179,3.222,1.179
		c1.422,0,2.835-0.604,3.824-1.776l4.918-5.83c2.508,1.34,5.126,2.878,7.792,4.541l-4.454,5.721
		c-1.696,2.179-1.305,5.32,0.874,7.017c0.913,0.71,1.995,1.055,3.068,1.055c1.489,0,2.963-0.662,3.949-1.929l4.942-6.348
		c2.335,1.609,4.659,3.267,6.941,4.936l-4.438,6.004c-1.641,2.221-1.171,5.352,1.049,6.992c0.894,0.661,1.935,0.98,2.968,0.98
		c1.532,0,3.044-0.703,4.025-2.029l4.391-5.941c2.479,1.909,4.828,3.762,7.001,5.502l-4.505,6.436
		c-1.584,2.262-1.034,5.379,1.228,6.963c0.873,0.611,1.873,0.904,2.863,0.904c1.576,0,3.127-0.743,4.1-2.133l4.079-5.826
		c1.435,1.197,2.66,2.23,3.602,3.033c-2.682,11.198-8.735,33.275-14.668,43.43c-1.827-0.633-4.269-1.438-7.187-2.316
		c10.413-22.506-2.194-39.15-11.151-45.221l-43.504-32.711C175.15,138.338,179.871,136.857,185.106,138.246z M21.479,165.889
		c10.341,7.07,35.379,21.969,62.799,21.966c8.72-0.001,17.687-1.509,26.491-5.255c20.007-8.514,33.781-20.215,44.848-29.618
		c1.958-1.663,3.773-3.19,5.497-4.606l45.901,34.512c0.073,0.055,0.147,0.107,0.223,0.158c0.782,0.523,18.163,12.539,7.029,34.302
		c-20.945-5.214-53.732-9.96-79.516,1.89c-14.449,6.642-24.879,17.672-31.062,32.805c-5.772-0.57-11.603-1.046-17.729-1.453
		c-21.54-1.431-52.311-4.02-67.957-5.367C13.853,237.995,0.754,209.493,21.479,165.889z M395.685,275.231
		c-0.146,0.034-0.293,0.076-0.436,0.124c-46.423,15.484-98.838,17.796-125.951,17.796c-22.842,0-41.563-1.552-49.292-2.993
		c-1.823-0.341-4.2-0.773-7.013-1.285c-13.264-2.412-35.465-6.451-55.324-10.918c-19.128-4.303-40.385-7.249-40.598-7.278
		c-0.228-0.031-2.684-0.029-3.968,1.184c-1.05,0.993-1.714,2.324-1.714,3.769v5.71H12.602v-26.549
		c13.419,1.166,48.729,4.184,72.693,5.775c33.871,2.249,58.703,6.602,116.126,18.539c22.17,4.609,45.691,6.945,69.91,6.945
		c68.66,0,126.945-18.854,148.03-26.616C413.984,270.725,395.898,275.181,395.685,275.231z"/>
</g>
<g>
</g>
<g>
</g>
<g>
</g>
<g>
</g>
<g>
</g>
<g>
</g>
<g>
</g>
<g>
</g>
<g>
</g>
<g>
</g>
<g>
</g>
<g>
</g>
<g>
</g>
<g>
</g>
<g>
</g>
</svg>
