<?xml version="1.0" encoding="iso-8859-1"?>
<!-- Generator: Adobe Illustrator 19.1.0, SVG Export Plug-In . SVG Version: 6.00 Build 0)  -->
<svg version="1.1" id="Capa_1" xmlns="http://www.w3.org/2000/svg" xmlns:xlink="http://www.w3.org/1999/xlink" x="0px" y="0px"
	 viewBox="0 0 349.284 349.284" style="enable-background:new 0 0 349.284 349.284;" xml:space="preserve">
<g>
	<path style="fill:#AB9E85;" d="M58.746,41.936H39.357c-1.676,16.835-3.625,40.935-5.552,74.88
		C42.583,110.997,57.816,93.484,58.746,41.936z"/>
	<path style="fill:#D68E7E;" d="M120.363,46.647c0,2.761-2.238,5-5,5c-2.762,0-5-2.239-5-5v-4.712H68.746
		c-1.165,66.564-25.526,82.657-35.576,86.463c-0.674,12.687-1.341,26.609-1.988,41.906v142.781h124.633v-32.268
		c0-0.067,2.299-53.784,13.828-77.592V41.936h-49.279V46.647z"/>
	<rect x="120.363" y="10" style="fill:#8EB6CA;" width="49.279" height="21.936"/>
	<path style="fill:#AB9E85;" d="M315.484,116.814c-1.925-34.001-3.863-58.078-5.533-74.879h-19.406
		C291.474,93.481,306.708,110.993,315.484,116.814z"/>
	<path style="fill:#8EB6CA;" d="M110.363,10H43.383c-0.651,3.715-1.698,10.542-2.973,21.936h69.952V10z"/>
	<rect x="31.181" y="323.085" style="fill:#AB9E85;" width="124.633" height="16.199"/>
	<path style="fill:#D68E7E;" d="M194.788,124.178V41.936h-15.145v114.518C185.598,154.163,194.788,146.943,194.788,124.178z"/>
	<path style="fill:#8EB6CA;" d="M228.919,10h-49.277v21.936h49.277V10z M195.072,24.503c-0.93,0.93-2.22,1.47-3.54,1.47
		c-1.309,0-2.6-0.54-3.53-1.47c-0.93-0.93-1.46-2.22-1.46-3.54c0-1.31,0.53-2.6,1.46-3.53c0.931-0.93,2.221-1.46,3.53-1.46
		c1.32,0,2.61,0.53,3.54,1.46c0.93,0.93,1.46,2.22,1.46,3.53C196.532,22.282,196.001,23.572,195.072,24.503z"/>
	<rect x="193.468" y="323.085" style="fill:#AB9E85;" width="124.635" height="16.199"/>
	<path style="fill:#D68E7E;" d="M280.543,41.936h-41.623v4.712c0,2.761-2.238,5-5,5c-2.762,0-5-2.239-5-5v-4.712h-24.132v82.242
		c0,15.824-3.929,27.691-11.678,35.271c-4.682,4.579-9.788,6.554-13.468,7.412v36.365c11.527,23.808,13.732,75.18,13.822,77.389
		c0.003,0.068,0.004,32.471,0.004,32.471h124.635V170.304c-0.648-15.303-1.314-29.224-1.985-41.907
		C306.074,124.593,281.708,108.508,280.543,41.936z"/>
	<path style="fill:#8EB6CA;" d="M305.913,10h-66.993v21.936h69.979C307.619,20.505,306.569,13.698,305.913,10z"/>
	<path style="fill:#3F352F;" d="M314.838,3.728C314.26,1.531,312.275,0,310.003,0H39.281c-2.271,0-4.257,1.531-4.835,3.728
		c-0.303,1.15-7.481,29.746-13.26,166.26c-0.003,0.07-0.005,174.296-0.005,174.296c0,2.762,2.238,5,5,5h134.633c2.762,0,5-2.238,5-5
		v-63.359c0.095-2.15,1.808-38.707,8.828-62.603c7.019,23.896,8.731,60.452,8.826,62.603v63.359c0,2.762,2.238,5,5,5h134.635
		c2.762,0,5-2.238,5-5c0,0-0.002-174.226-0.005-174.296C322.32,33.473,315.141,4.878,314.838,3.728z M43.383,10h66.979v21.936
		H40.411C41.685,20.542,42.732,13.715,43.383,10z M39.357,41.936h19.389c-0.93,51.549-16.163,69.062-24.94,74.88
		C35.732,82.87,37.681,58.771,39.357,41.936z M155.814,339.284H31.181v-16.199h124.633V339.284z M169.642,203.226
		c-11.529,23.808-13.828,77.524-13.828,77.592v32.268H31.181V170.304c0.647-15.297,1.314-29.219,1.988-41.906
		c10.05-3.806,34.411-19.899,35.576-86.463h41.617v4.712c0,2.761,2.238,5,5,5c2.762,0,5-2.239,5-5v-4.712h49.279V203.226z
		 M169.642,31.936h-49.279V10h49.279V31.936z M315.484,116.814c-8.775-5.821-24.01-23.333-24.939-74.879h19.406
		C311.621,58.736,313.559,82.813,315.484,116.814z M238.919,10h66.993c0.656,3.698,1.706,10.505,2.985,21.936h-69.979V10z
		 M179.642,10h49.277v21.936h-49.277V10z M179.642,41.936h15.145v82.242c0,22.766-9.189,29.985-15.145,32.276V41.936z
		 M318.103,339.284H193.468v-16.199h124.635V339.284z M318.103,313.085H193.468c0,0-0.001-32.402-0.004-32.471
		c-0.09-2.209-2.295-53.581-13.822-77.389v-36.365c3.68-0.858,8.786-2.833,13.468-7.412c7.749-7.58,11.678-19.447,11.678-35.271
		V41.936h24.132v4.712c0,2.761,2.238,5,5,5c2.762,0,5-2.239,5-5v-4.712h41.623c1.166,66.572,25.531,82.658,35.575,86.462
		c0.671,12.683,1.337,26.604,1.985,41.907V313.085z"/>
	<path style="fill:#3F352F;" d="M191.532,15.972c-1.309,0-2.6,0.53-3.53,1.46c-0.93,0.93-1.46,2.22-1.46,3.53
		c0,1.32,0.53,2.61,1.46,3.54c0.931,0.93,2.221,1.47,3.53,1.47c1.32,0,2.61-0.54,3.54-1.47c0.93-0.93,1.46-2.22,1.46-3.54
		c0-1.31-0.53-2.6-1.46-3.53C194.142,16.503,192.852,15.972,191.532,15.972z"/>
</g>
<g>
</g>
<g>
</g>
<g>
</g>
<g>
</g>
<g>
</g>
<g>
</g>
<g>
</g>
<g>
</g>
<g>
</g>
<g>
</g>
<g>
</g>
<g>
</g>
<g>
</g>
<g>
</g>
<g>
</g>
</svg>
