<?xml version="1.0" encoding="iso-8859-1"?>
<!-- Generator: Adobe Illustrator 19.1.0, SVG Export Plug-In . SVG Version: 6.00 Build 0)  -->
<svg version="1.1" id="Capa_1" xmlns="http://www.w3.org/2000/svg" xmlns:xlink="http://www.w3.org/1999/xlink" x="0px" y="0px"
	 viewBox="0 0 371.18 371.18" style="enable-background:new 0 0 371.18 371.18;" xml:space="preserve">
<g>
	<path style="fill:#D68E7E;" d="M158.613,76.688c-2.363-0.144-4.626-0.303-6.781-0.475c-4.837,5.567-20.292,24.505-37,57.033
		c-18.233,35.498-41.648,94.791-50.612,176.736c8.829,2.532,19.179,4.964,31.214,7.072c3.068-77.359,20.766-139.774,35.273-178.86
		C141.945,107.918,152.817,86.975,158.613,76.688z"/>
	<path style="fill:#D68E7E;" d="M169.874,77.209c-4.213,7.105-16.939,29.77-29.911,64.786
		c-14.277,38.542-31.708,100.214-34.581,176.663c12.147,1.801,25.812,3.266,41.179,4.199
		c6.484-157.225,24.94-225.078,31.845-245.449C175.449,77.365,172.604,77.299,169.874,77.209z"/>
	<path style="fill:#D68E7E;" d="M139.804,75.021c-1.77-0.212-3.431-0.431-4.995-0.65C65.854,136.564,35.395,277.555,31.4,297.372
		c9.19,5.218,18.636,8.093,23.09,9.588c9.313-82.717,33.11-142.695,51.677-178.73C119.842,101.689,132.527,84.136,139.804,75.021z"
		/>
	<path style="fill:#AB9E85;" d="M245.672,62.649c-3.006-5.649-4.257-11.468-4.776-15.464H130.284
		c-0.518,3.992-1.768,9.808-4.77,15.452c9.355,1.898,28.84,4.825,60.075,4.825C216.969,67.463,236.363,64.549,245.672,62.649z"/>
	<path style="fill:#D68E7E;" d="M122.509,72.244c-1.562-0.332-2.842-0.633-3.852-0.887c-5.202,4.887-20.484,20.262-38.765,47.975
		c-20.577,31.194-49.219,84.775-69.408,163.489c1.785,1.874,5.451,5.267,11.78,9.318c2.716-12.969,10.304-46.365,23.639-84.48
		C67.167,146.884,92.91,101.406,122.509,72.244z"/>
	<path style="fill:#D68E7E;" d="M236.371,74.371c-1.564,0.22-3.226,0.438-4.994,0.65c7.281,9.119,19.969,26.68,33.636,53.208
		c18.572,36.048,42.379,96.054,51.686,178.812c9.394-3.161,16.998-6.456,23.097-9.593
		C335.863,277.919,305.415,136.645,236.371,74.371z"/>
	<path style="fill:#D68E7E;" d="M156.548,323.372c9.126,0.399,18.784,0.622,29.042,0.622c10.24,0,19.908-0.212,29.043-0.604
		c-5.764-139.853-21.255-208.69-29.029-235.267C177.832,114.79,162.3,183.859,156.548,323.372z"/>
	<path style="fill:#D68E7E;" d="M252.52,71.357c-1.01,0.254-2.29,0.556-3.854,0.888c29.601,29.161,55.346,74.636,76.61,135.415
		c13.36,38.189,20.952,71.641,23.654,84.555c6.351-4.072,9.999-7.479,11.772-9.367C325.383,145.085,264.054,82.223,252.52,71.357z"
		/>
	<path style="fill:#D68E7E;" d="M219.348,76.213c-2.156,0.172-4.418,0.331-6.782,0.475c5.795,10.284,16.667,31.224,27.907,61.507
		c14.513,39.1,32.217,101.544,35.276,178.94c11.885-2.071,22.233-4.486,31.22-7.068c-8.957-81.989-32.382-141.311-50.621-176.82
		C239.638,100.714,224.182,81.777,219.348,76.213z"/>
	<path style="fill:#D68E7E;" d="M201.306,77.209c-2.73,0.09-5.575,0.156-8.531,0.199c6.903,20.369,25.362,88.225,31.846,245.473
		c15.294-0.914,28.965-2.35,41.181-4.147c-2.864-76.483-20.302-138.184-34.584-176.738
		C218.245,106.979,205.519,84.314,201.306,77.209z"/>
	<path style="fill:#3F352F;" d="M299.329,113.362c-21.802-32.952-39.185-48.698-41.909-51.075
		c-6.863-8.099-6.892-19.942-6.891-20.048c0.014-1.335-0.506-2.621-1.445-3.57c-0.939-0.949-2.219-1.483-3.555-1.483H125.65
		c-1.336,0-2.615,0.534-3.555,1.483c-0.939,0.949-1.459,2.235-1.445,3.57c0.002,0.119-0.069,11.997-6.891,20.048
		c-2.725,2.377-20.107,18.123-41.909,51.075c-21.318,32.222-51.063,87.787-71.698,169.512c-0.354,1.399-0.085,2.883,0.736,4.069
		c1.33,1.922,34.303,47.051,184.701,47.051s183.371-45.129,184.701-47.051c0.821-1.186,1.09-2.67,0.736-4.069
		C350.393,201.149,320.648,145.584,299.329,113.362z M130.284,47.186h110.611c0.52,3.996,1.77,9.815,4.776,15.464
		c-9.309,1.899-28.703,4.813-60.082,4.813c-31.235,0-50.721-2.927-60.075-4.825C128.516,56.993,129.766,51.178,130.284,47.186z
		 M10.484,282.821c20.19-78.714,48.831-132.295,69.408-163.489c18.28-27.713,33.562-43.088,38.765-47.975
		c1.01,0.254,2.289,0.555,3.852,0.887c-29.599,29.162-55.342,74.64-76.605,135.416c-13.335,38.114-20.923,71.511-23.639,84.48
		C15.936,288.088,12.27,284.695,10.484,282.821z M31.4,297.372c3.994-19.817,34.453-160.808,103.408-223.001
		c1.564,0.22,3.225,0.438,4.995,0.65c-7.276,9.114-19.962,26.668-33.637,53.208c-18.566,36.035-42.363,96.014-51.677,178.73
		C50.036,305.465,40.59,302.59,31.4,297.372z M64.22,309.982c8.964-81.945,32.379-141.238,50.612-176.736
		c16.708-32.528,32.163-51.466,37-57.033c2.155,0.172,4.418,0.331,6.781,0.475c-5.796,10.287-16.668,31.23-27.906,61.507
		c-14.508,39.086-32.205,101.501-35.273,178.86C83.398,314.946,73.049,312.515,64.22,309.982z M105.382,318.658
		c2.873-76.449,20.304-138.121,34.581-176.663c12.972-35.017,25.698-57.681,29.911-64.786c2.73,0.09,5.575,0.156,8.531,0.199
		c-6.904,20.371-25.36,88.225-31.845,245.449C131.194,321.924,117.529,320.459,105.382,318.658z M185.59,323.994
		c-10.258,0-19.916-0.223-29.042-0.622c5.752-139.513,21.284-208.582,29.056-235.248c7.774,26.576,23.266,95.414,29.029,235.267
		C205.498,323.782,195.83,323.994,185.59,323.994z M224.62,322.881c-6.483-157.248-24.942-225.103-31.846-245.473
		c2.956-0.043,5.801-0.109,8.531-0.199c4.213,7.105,16.939,29.77,29.911,64.786c14.282,38.555,31.72,100.255,34.584,176.738
		C253.585,320.531,239.914,321.967,224.62,322.881z M275.749,317.135c-3.06-77.396-20.764-139.841-35.276-178.94
		c-11.24-30.283-22.112-51.223-27.907-61.507c2.364-0.144,4.626-0.303,6.782-0.475c4.834,5.564,20.29,24.501,37,57.033
		c18.239,35.51,41.664,94.831,50.621,176.82C297.982,312.648,287.634,315.063,275.749,317.135z M316.698,307.042
		c-9.307-82.759-33.113-142.765-51.686-178.812c-13.667-26.528-26.354-44.089-33.636-53.208c1.769-0.213,3.43-0.431,4.994-0.65
		c69.044,62.273,99.492,203.548,103.424,223.078C333.696,300.586,326.092,303.881,316.698,307.042z M348.931,292.215
		c-2.702-12.914-10.294-46.365-23.654-84.555c-21.265-60.779-47.01-106.254-76.61-135.415c1.563-0.332,2.844-0.634,3.854-0.888
		c11.534,10.865,72.863,73.727,108.183,211.49C358.93,284.736,355.281,288.143,348.931,292.215z"/>
</g>
<g>
</g>
<g>
</g>
<g>
</g>
<g>
</g>
<g>
</g>
<g>
</g>
<g>
</g>
<g>
</g>
<g>
</g>
<g>
</g>
<g>
</g>
<g>
</g>
<g>
</g>
<g>
</g>
<g>
</g>
</svg>
