<?xml version="1.0" encoding="iso-8859-1"?>
<!-- Generator: Adobe Illustrator 19.1.0, SVG Export Plug-In . SVG Version: 6.00 Build 0)  -->
<svg version="1.1" id="Capa_1" xmlns="http://www.w3.org/2000/svg" xmlns:xlink="http://www.w3.org/1999/xlink" x="0px" y="0px"
	 viewBox="0 0 341.721 341.721" style="enable-background:new 0 0 341.721 341.721;" xml:space="preserve">
<g>
	<path style="fill:#DAB342;" d="M272.918,144.073c-14.196,0-21.622-4.656-28.174-8.764c-6.192-3.883-11.54-7.236-22.861-7.236
		c-11.319,0-16.667,3.354-22.858,7.236c-6.551,4.107-13.976,8.764-28.17,8.764c-14.196,0-21.621-4.656-28.172-8.765
		c-6.191-3.883-11.539-7.235-22.858-7.235c-11.318,0-16.666,3.353-22.857,7.235c-6.551,4.108-13.976,8.765-28.171,8.765
		c-10.705,0-17.557-2.648-23.09-5.713c-7.795,22.123-6.848,60.866,2.825,110.309c5.09,26.014,11.172,69.291,13.065,83.053h218.528
		c1.894-13.762,7.977-57.039,13.065-83.053c9.675-49.441,10.625-88.188,2.829-110.312
		C290.484,141.422,283.629,144.073,272.918,144.073z"/>
	<path style="fill:#E3D282;" d="M276.987,32.456c-1.774-10.947-4.925-18.412-6.772-22.07c-11.354,1.385-50.049,5.613-99.354,5.613
		h-0.001h-0.001c-49.28,0-87.961-4.224-99.337-5.611c-1.842,3.681-4.999,11.189-6.78,22.064c11.462,1.938,45.14,6.547,106.118,6.547
		C232.004,38.999,265.569,34.394,276.987,32.456z"/>
	<path style="fill:#DAB342;" d="M229.443,118.568c-2.792-4.273-5.451-9.35-7.601-15.31c-2.151,5.965-4.813,11.047-7.607,15.323
		c2.319-0.323,4.847-0.509,7.648-0.509C224.647,118.073,227.149,118.253,229.443,118.568z"/>
	<path style="fill:#DAB342;" d="M127.494,118.585c-2.797-4.277-5.462-9.356-7.615-15.326c-2.149,5.959-4.807,11.035-7.598,15.307
		c2.29-0.312,4.786-0.492,7.544-0.492C122.634,118.073,125.169,118.26,127.494,118.585z"/>
	<path style="fill:#E3D282;" d="M278.091,42.425c-12.465,2.104-46.151,6.574-107.229,6.574c-61.111,0-94.783-4.473-107.231-6.574
		c-0.013,0.215-4.609,52.23-32.556,77.309c6.276,1.723,10.744,4.521,14.863,7.104c6.191,3.883,11.539,7.236,22.857,7.236
		c9.957,0,15.293-2.596,20.648-5.863c4.069-2.639,25.435-18.244,25.435-55.111c0-2.762,2.238-5,5-5c2.762,0,5,2.238,5,5
		c0,39.879,26.342,55.703,26.475,55.799c4.992,2.937,10.253,5.176,19.501,5.176c9.283,0,14.549-2.258,19.559-5.211
		c0.12-0.083,26.43-15.934,26.43-55.764c0-2.762,2.238-5,5-5c2.762,0,5,2.238,5,5c0,37.424,22.378,53.15,25.653,55.25
		c5.28,3.201,10.605,5.725,20.422,5.725c11.321,0,16.669-3.354,22.861-7.236c4.12-2.584,8.589-5.382,14.867-7.104
		C282.84,95.483,278.104,42.639,278.091,42.425z"/>
	<path style="fill:#3F352F;" d="M326.293,118.653c-31.315-16.578-37.893-73.621-38.18-76.27
		c-1.442-25.481-10.638-39.566-11.029-40.154c-1.064-1.6-2.949-2.445-4.853-2.182c-0.427,0.059-43.388,5.951-101.371,5.951
		c-57.931,0-100.944-5.893-101.372-5.951c-1.893-0.263-3.787,0.582-4.852,2.182c-0.392,0.588-9.588,14.674-11.029,40.156
		c-0.288,2.676-6.814,59.664-38.18,76.268c-2.44,1.293-3.371,4.318-2.079,6.759c0.897,1.694,2.63,2.661,4.423,2.661
		c0.004,0,0.008,0,0.012,0c9.072,0.002,14.306,2.162,19.218,5.02c-11.625,29.956-5.628,79.956,1.715,117.496
		c6.025,30.793,13.485,86.242,13.559,86.799c0.333,2.482,2.451,4.334,4.956,4.334h227.257c2.505,0,4.623-1.852,4.956-4.334
		c0.074-0.557,7.535-56.002,13.56-86.799c7.345-37.538,13.346-87.542,1.719-117.5c4.91-2.855,10.143-5.014,19.214-5.016
		c0.004,0,0.008,0,0.012,0c1.792,0,3.525-0.967,4.423-2.661C329.664,122.971,328.733,119.946,326.293,118.653z M71.523,10.387
		c11.376,1.388,50.057,5.611,99.337,5.611h0.001h0.001c49.304,0,88-4.229,99.354-5.613c1.847,3.658,4.998,11.123,6.772,22.07
		c-11.418,1.938-44.983,6.543-106.126,6.543c-60.978,0-94.656-4.608-106.118-6.547C66.524,21.577,69.681,14.068,71.523,10.387z
		 M293.19,248.669c-5.089,26.014-11.172,69.291-13.065,83.053H61.597c-1.894-13.762-7.976-57.039-13.065-83.053
		c-9.673-49.442-10.621-88.185-2.825-110.309c5.533,3.064,12.385,5.713,23.09,5.713c14.195,0,21.62-4.656,28.171-8.765
		c6.191-3.883,11.539-7.235,22.857-7.235c11.319,0,16.667,3.353,22.858,7.235c6.551,4.108,13.976,8.765,28.172,8.765
		c14.194,0,21.619-4.656,28.17-8.764c6.191-3.883,11.539-7.236,22.858-7.236c11.321,0,16.669,3.354,22.861,7.236
		c6.552,4.107,13.978,8.764,28.174,8.764c10.711,0,17.566-2.651,23.102-5.717C303.815,160.48,302.865,199.227,293.19,248.669z
		 M112.281,118.565c2.791-4.271,5.449-9.348,7.598-15.307c2.153,5.97,4.818,11.049,7.615,15.326c-2.325-0.324-4.86-0.512-7.67-0.512
		C117.066,118.073,114.571,118.253,112.281,118.565z M214.235,118.582c2.794-4.276,5.456-9.358,7.607-15.323
		c2.149,5.96,4.809,11.036,7.601,15.31c-2.294-0.315-4.796-0.495-7.561-0.495C219.082,118.073,216.554,118.259,214.235,118.582z
		 M295.779,126.837c-6.192,3.883-11.54,7.236-22.861,7.236c-9.817,0-15.142-2.523-20.422-5.725
		c-3.276-2.1-25.653-17.826-25.653-55.25c0-2.762-2.238-5-5-5c-2.762,0-5,2.238-5,5c0,39.83-26.31,55.681-26.43,55.764
		c-5.01,2.953-10.276,5.211-19.559,5.211c-9.248,0-14.509-2.239-19.501-5.176c-0.132-0.096-26.475-15.92-26.475-55.799
		c0-2.762-2.238-5-5-5c-2.762,0-5,2.238-5,5c0,36.867-21.365,52.473-25.435,55.111c-5.355,3.268-10.691,5.863-20.648,5.863
		c-11.318,0-16.666-3.354-22.857-7.236c-4.119-2.583-8.587-5.381-14.863-7.104c27.946-25.078,32.542-77.094,32.556-77.309
		c12.448,2.102,46.12,6.574,107.231,6.574c61.078,0,94.765-4.471,107.229-6.574c0.014,0.215,4.749,53.059,32.556,77.308
		C304.368,121.455,299.899,124.253,295.779,126.837z"/>
</g>
<g>
</g>
<g>
</g>
<g>
</g>
<g>
</g>
<g>
</g>
<g>
</g>
<g>
</g>
<g>
</g>
<g>
</g>
<g>
</g>
<g>
</g>
<g>
</g>
<g>
</g>
<g>
</g>
<g>
</g>
</svg>
