<?xml version="1.0" encoding="iso-8859-1"?>
<!-- Generator: Adobe Illustrator 19.1.0, SVG Export Plug-In . SVG Version: 6.00 Build 0)  -->
<svg version="1.1" id="Capa_1" xmlns="http://www.w3.org/2000/svg" xmlns:xlink="http://www.w3.org/1999/xlink" x="0px" y="0px"
	 viewBox="0 0 412.069 412.069" style="enable-background:new 0 0 412.069 412.069;" xml:space="preserve">
<g>
	<path style="fill:#8EB6CA;" d="M163.285,176.63c-18.865,13.749-42.58,27.621-70.905,27.623c-6.416,0.001-13.069-0.717-19.956-2.306
		c4.301,5.001,8.759,10.503,13.311,16.552c8.943-5.928,31.102-17.229,62.473-10.264l52.763-34.519
		c1.32-0.89,11.651-7.273,25.216-1.564c24.473,10.299,71.088,37.44,102.062,21.014c-4.575-1.1-9.067-2.26-13.466-3.475l-1.196,2.507
		c-0.858,1.797-2.649,2.848-4.517,2.848c-0.722,0-1.455-0.157-2.149-0.488c-2.492-1.189-3.548-4.174-2.359-6.666l0.484-1.015
		c-4.061-1.227-8.036-2.491-11.922-3.786l-2.345,4.545c-0.889,1.721-2.637,2.708-4.447,2.708c-0.772,0-1.556-0.18-2.289-0.558
		c-2.454-1.267-3.417-4.282-2.15-6.736l1.682-3.261c-4.339-1.554-8.555-3.132-12.637-4.726l-3.49,5.384
		c-0.957,1.476-2.562,2.281-4.201,2.281c-0.932,0-1.874-0.261-2.715-0.806c-2.316-1.502-2.977-4.598-1.475-6.915l2.429-3.746
		c-3.771-1.561-7.416-3.119-10.92-4.664l-6.264,6.053c-0.971,0.938-2.223,1.404-3.475,1.404c-1.308,0-2.614-0.51-3.596-1.525
		c-1.918-1.985-1.865-5.151,0.121-7.07l3.408-3.293c-3.998-1.854-7.767-3.658-11.323-5.394c-3.936,2.639-8.538,5.737-9.329,6.308
		c-0.885,0.64-1.91,0.947-2.925,0.947c-1.55,0-3.079-0.719-4.056-2.071c-1.618-2.238-1.115-5.363,1.123-6.981
		c0.598-0.432,2.641-1.817,4.881-3.327c-2.717-1.374-10.326-5.26-11.603-5.909c-5.399,2.967-10.71,5.918-11.568,6.451
		c-0.86,0.59-1.845,0.874-2.82,0.874c-1.534,0-3.05-0.705-4.03-2.035c-1.637-2.224-1.162-5.354,1.061-6.991
		c0.227-0.167,0.686-0.503,6.35-3.648c-0.48-0.208-12.199-5.61-17.7-5.75c-2.792-0.071-5.684,1.378-10.407,4.698
		c3.283,3.943,7.143,10.169,6.959,17.535C175.185,164.273,171.119,170.92,163.285,176.63z"/>
	<path style="fill:#7E6F83;" d="M184.111,220.505l49.165-34.405c-3.415-1.474-7.417-3.2-11.046-4.763
		c-8.871-3.82-15.367,0.464-15.639,0.649c-0.053,0.037-0.061,0.042-0.115,0.078l-45.631,29.854c1.836,0.659,3.695,1.374,5.584,2.164
		C172.061,216.441,177.996,218.578,184.111,220.505z"/>
	<path style="fill:#BBD3DF;" d="M91.649,226.605c5.452,7.699,10.986,16.169,16.482,25.449c20.687,0.872,43.848,2.747,71.061,6.664
		c33.683,4.848,62.252,7.389,85.013,7.572l25.694-22.983c-5.568,0.605-11.485,0.832-17.197,0.832
		c-9.542,0-18.504-0.625-24.281-1.143c-30.921-2.769-63.016-10.129-85.854-19.689C126.513,208.216,100.815,220.718,91.649,226.605z"
		/>
	<path style="fill:#BBD3DF;" d="M282.344,204.272c-16.953-4.399-32.329-10.732-38.355-13.463l-47.51,33.248
		c46.442,12.13,98.561,12.927,109.34,4.655c16.891-12.963,20.041-14.361,42.141-18.703c13.613-2.674,24.008-5.572,31.041-8.159
		c-13.537-1.36-26.584-3.446-39.053-6.051C330.09,208.403,305.701,210.332,282.344,204.272z"/>
	<path style="fill:#BBD3DF;" d="M158.943,123.991c-2.83,4.487-3.767,9.121-3.941,12.874c5.133-3.955,9.142-6.935,12.722-8.956
		L158.943,123.991z"/>
	<path style="fill:#C7BEA8;" d="M266.849,276.308c-23.648,0-53.619-2.588-89.081-7.691c-44.426-6.396-108.391-7.167-115.018-7.266
		c-2.241-0.033-36.296-0.299-45.682-3.611l-3.782,20.538c2.109,2.741,11.053,11.001,42.158,11.001h226.729
		c4.39-0.424,75.018-7.644,109.5-34.763l3.848-9.828c-18.602,8.771-55.544,23.86-80.871,27.355
		C312.053,272.402,287.647,276.308,266.849,276.308z"/>
	<path style="fill:#7E6F83;" d="M393.73,205.769c-9.597,6.562-30.957,11.521-43.845,14.053
		c-19.172,3.768-22.025,4.711-34.969,14.526l-35.428,31.688c12.406-0.555,31.005-3.51,34.166-3.944
		c29.177-4.012,77.065-26.065,87.054-31.036c2.269-7.891,1.939-14.367-0.985-19.271C398.133,209.117,395.922,207.174,393.73,205.769
		z"/>
	<path style="fill:#BBD3DF;" d="M92.16,194.127c25.887,0.002,47.783-12.859,65.235-25.579c5.175-3.771,7.858-7.771,7.977-11.887
		c0.13-4.546-2.706-8.724-4.974-11.329c-0.262,0.201-40.375,27.163-44.779,29.195c-5.154,2.378-10.301,4.308-16.043,4.308
		c-3.887,0-7.744-0.672-11.494-1.807c-4.68,6.685-11.51,11.164-17.645,14.06C77.959,193.199,85.205,194.126,92.16,194.127z"/>
	<path style="fill:#7E6F83;" d="M28.05,161.154c0.903,0.558,12.562,7.887,29.009,24.239c4.767-1.312,15.15-4.882,21.449-12.3
		c-16.201-8.332-28.602-22.883-29.322-23.739c-0.574-0.683-0.955-1.506-1.104-2.386c-1.714-10.142-6.099-15.072-13.405-15.072
		c-1.678,0-3.201,0.263-4.322,0.533c-4.229,11.069-7.648,21.119-10.39,30.238l3.094-1.663
		C24.629,160.161,26.531,160.216,28.05,161.154z"/>
	<path style="fill:#D68E7E;" d="M62.728,251.351c9.272-0.356,24.392,0.059,33.455,0.295c-30.758-49.892-62.348-74.273-71.053-80.403
		l-8.879,4.771c-13.529,53.23-1.283,68.869,0.156,70.455C23.84,251.015,55.609,251.624,62.728,251.351z"/>
	<path style="fill:#3F352F;" d="M387.109,192.547c-78.197-6.223-140.904-38.273-171.041-53.676
		c-7.382-3.773-21.884-10.191-23.307-10.74l-33.407-14.907c-2.024-0.903-4.403-0.366-5.842,1.321
		c-9.365,10.981-8.99,23.533-8.1,29.529c-12.697,9.187-33.352,20.952-34.83,21.814c-3.401,1.982-7.001,2.946-11.006,2.946
		c-18.338,0-37.679-20.283-41.897-24.965c-3.78-19.076-15.964-21.974-23.003-21.974c-5.39,0-9.571,1.665-10.03,1.855
		c-1.263,0.522-2.257,1.539-2.751,2.814C5.472,168.975-1.771,202.946,0.365,227.535c1.184,13.643,5.098,20.954,7.614,24.347
		l-4.857,26.375c-0.149,0.813-0.095,1.651,0.158,2.438c0.612,1.901,7.282,18.583,52.165,18.583h226.963
		c1.9,0,79.201-7.346,116.593-37.819c0.667-0.544,1.183-1.251,1.497-2.053c0,0,9.088-23.223,9.103-23.267
		c3.86-11.654,3.013-21.34-1.288-29.478C401.377,193.544,387.269,192.56,387.109,192.547z M339.947,195.799
		c12.469,2.605,25.516,4.691,39.053,6.051c-7.033,2.587-17.428,5.485-31.041,8.159c-22.1,4.342-25.25,5.74-42.141,18.703
		c-10.779,8.271-62.898,7.475-109.34-4.655l47.51-33.248c6.026,2.73,21.402,9.063,38.355,13.463
		C305.701,210.332,330.09,208.403,339.947,195.799z M162.568,223.307c22.838,9.561,54.933,16.921,85.854,19.689
		c5.777,0.518,14.739,1.143,24.281,1.143c5.712,0,11.629-0.227,17.197-0.832l-25.694,22.983c-22.761-0.184-51.33-2.725-85.013-7.572
		c-27.214-3.917-50.375-5.792-71.061-6.664c-5.496-9.28-11.03-17.75-16.482-25.449C100.815,220.718,126.513,208.216,162.568,223.307
		z M160.846,211.918l45.631-29.854c0.055-0.036,0.063-0.041,0.115-0.078c0.271-0.185,6.768-4.47,15.639-0.649
		c3.629,1.562,7.631,3.289,11.046,4.763l-49.165,34.405c-6.115-1.927-12.05-4.064-17.682-6.423
		C164.541,213.292,162.681,212.577,160.846,211.918z M178.817,134.64c5.501,0.14,17.22,5.542,17.7,5.75
		c-5.664,3.145-6.123,3.481-6.35,3.648c-2.223,1.638-2.697,4.768-1.061,6.991c0.98,1.331,2.496,2.035,4.03,2.035
		c0.976,0,1.96-0.285,2.82-0.874c0.858-0.534,6.169-3.484,11.568-6.451c1.276,0.649,8.886,4.536,11.603,5.909
		c-2.24,1.51-4.283,2.895-4.881,3.327c-2.238,1.618-2.741,4.743-1.123,6.981c0.977,1.353,2.506,2.071,4.056,2.071
		c1.015,0,2.04-0.308,2.925-0.947c0.791-0.571,5.393-3.669,9.329-6.308c3.557,1.736,7.325,3.54,11.323,5.394l-3.408,3.293
		c-1.986,1.919-2.039,5.085-0.121,7.07c0.981,1.016,2.288,1.525,3.596,1.525c1.252,0,2.504-0.467,3.475-1.404l6.264-6.053
		c3.504,1.545,7.149,3.104,10.92,4.664l-2.429,3.746c-1.502,2.317-0.841,5.413,1.475,6.915c0.841,0.545,1.783,0.806,2.715,0.806
		c1.639,0,3.244-0.805,4.201-2.281l3.49-5.384c4.082,1.594,8.298,3.172,12.637,4.726l-1.682,3.261
		c-1.267,2.454-0.304,5.47,2.15,6.736c0.733,0.378,1.517,0.558,2.289,0.558c1.811,0,3.559-0.987,4.447-2.708l2.345-4.545
		c3.886,1.295,7.86,2.56,11.922,3.786l-0.484,1.015c-1.188,2.492-0.133,5.477,2.359,6.666c0.694,0.331,1.428,0.488,2.149,0.488
		c1.867,0,3.658-1.051,4.517-2.848l1.196-2.507c4.398,1.215,8.891,2.375,13.466,3.475c-30.974,16.427-77.589-10.715-102.062-21.014
		c-13.564-5.709-23.895,0.675-25.216,1.564l-52.763,34.519c-31.371-6.966-53.529,4.336-62.473,10.264
		c-4.552-6.049-9.01-11.551-13.311-16.552c6.887,1.589,13.54,2.307,19.956,2.306c28.325-0.002,52.04-13.874,70.905-27.623
		c7.834-5.71,11.9-12.357,12.084-19.757c0.184-7.366-3.676-13.591-6.959-17.535C173.134,136.019,176.025,134.569,178.817,134.64z
		 M158.943,123.991l8.78,3.918c-3.58,2.021-7.589,5.001-12.722,8.956C155.177,133.112,156.113,128.478,158.943,123.991z
		 M88.082,177.029c3.75,1.135,7.607,1.807,11.494,1.807c5.742,0,10.889-1.93,16.043-4.308c4.404-2.032,44.518-28.994,44.779-29.195
		c2.268,2.605,5.104,6.783,4.974,11.329c-0.118,4.115-2.802,8.115-7.977,11.887c-17.452,12.72-39.349,25.581-65.235,25.579
		c-6.955-0.001-14.201-0.929-21.723-3.039C76.572,188.193,83.402,183.713,88.082,177.029z M30.353,132.429
		c1.121-0.27,2.645-0.533,4.322-0.533c7.307,0,11.691,4.93,13.405,15.072c0.149,0.879,0.53,1.703,1.104,2.386
		c0.721,0.856,13.121,15.407,29.322,23.739c-6.3,7.418-16.683,10.987-21.449,12.3c-16.447-16.353-28.105-23.682-29.009-24.239
		c-1.519-0.938-3.421-0.992-4.992-0.149l-3.094,1.663C22.705,153.548,26.124,143.498,30.353,132.429z M16.252,176.014l8.879-4.771
		c8.705,6.13,40.295,30.512,71.053,80.403c-9.063-0.236-24.183-0.651-33.455-0.295c-7.119,0.273-38.889-0.336-46.32-4.882
		C14.969,244.883,2.722,229.243,16.252,176.014z M391.674,254.516c-34.482,27.118-105.11,34.339-109.5,34.763H55.445
		c-31.105,0-40.049-8.26-42.158-11.001l3.782-20.538c9.386,3.312,43.44,3.578,45.682,3.611c6.627,0.099,70.592,0.87,115.018,7.266
		c35.462,5.103,65.433,7.691,89.081,7.691c20.798,0,45.203-3.906,47.801-4.265c25.327-3.495,62.27-18.585,80.871-27.355
		L391.674,254.516z M400.709,231.056c-9.988,4.971-57.877,27.024-87.054,31.036c-3.161,0.435-21.76,3.39-34.166,3.944l35.428-31.688
		c12.943-9.815,15.797-10.759,34.969-14.526c12.888-2.531,34.248-7.49,43.845-14.053c2.191,1.405,4.402,3.349,5.993,6.016
		C402.648,216.689,402.977,223.165,400.709,231.056z"/>
</g>
<g>
</g>
<g>
</g>
<g>
</g>
<g>
</g>
<g>
</g>
<g>
</g>
<g>
</g>
<g>
</g>
<g>
</g>
<g>
</g>
<g>
</g>
<g>
</g>
<g>
</g>
<g>
</g>
<g>
</g>
</svg>
