<?xml version="1.0" encoding="iso-8859-1"?>
<!-- Generator: Adobe Illustrator 19.1.0, SVG Export Plug-In . SVG Version: 6.00 Build 0)  -->
<svg version="1.1" id="Capa_1" xmlns="http://www.w3.org/2000/svg" xmlns:xlink="http://www.w3.org/1999/xlink" x="0px" y="0px"
	 viewBox="0 0 399.199 399.199" style="enable-background:new 0 0 399.199 399.199;" xml:space="preserve">
<g>
	<path style="fill:#7E6F83;" d="M76.883,52.31c-4.021,8.295-13.666,30.615-22.438,69.556
		c-10.371,46.039-21.564,125.226-16.498,242.118H79.14l13.357-56.363c-8.734-59.008-2.047-132.958,2.295-180.933
		c1.574-17.385,2.816-31.117,2.816-38.804C97.609,64.875,83.732,55.526,76.883,52.31z"/>
	<polygon style="fill:#D68E7E;" points="38.168,389.199 74.332,389.199 77.101,373.984 38.168,373.984 	"/>
	<path style="fill:#7E6F83;" d="M199.597,51.04c-3.676,0-7.273-0.271-10.762-0.786l10.762,11.517l10.764-11.517
		c-3.49,0.515-7.086,0.786-10.762,0.786H199.597z"/>
	<path style="fill:#AB9E85;" d="M199.597,41.04h0.002c22.135,0,40.832-11.139,46.559-26.286c-8.383,3.379-22.734,6.779-46.559,6.779
		h-0.002c-23.824,0-38.174-3.4-46.557-6.779C158.765,29.901,177.463,41.04,199.597,41.04z"/>
	<path style="fill:#7E6F83;" d="M291.59,87.883c0-25.794,14.721-38.092,24.141-43.321c-16.57-13.698-45.809-26.956-58.471-32.365
		c-2.756,13.782-13.293,25.551-27.939,32.413c0,0-26.223,28.06-26.307,28.139c-0.965,0.901-2.191,1.347-3.414,1.347
		c-1.336,0-2.67-0.533-3.654-1.586l-26.07-27.899c-14.645-6.863-25.182-18.63-27.938-32.412
		c-12.664,5.412-41.908,18.675-58.471,32.365c9.42,5.228,24.143,17.526,24.143,43.32c0,8.139-1.262,22.069-2.857,39.706
		c-4.318,47.721-10.979,121.479-2.262,179.268c0.02,0.098,4.373,23.77,7.723,34.06h178.771c3.35-10.295,7.703-33.961,7.721-34.047
		c8.721-57.793,2.061-131.559-2.26-179.284C292.849,109.951,291.59,96.022,291.59,87.883z"/>
	<polygon style="fill:#D68E7E;" points="115.418,367.204 283.777,367.204 286.621,350.917 112.576,350.917 	"/>
	<path style="fill:#7E6F83;" d="M301.59,87.883c0,7.687,1.242,21.419,2.814,38.803c4.342,47.975,11.031,121.924,2.295,180.93
		l13.355,56.367h41.195c8.686-200.203-29.775-292.706-38.939-311.674C315.474,55.52,301.59,64.868,301.59,87.883z"/>
	<polygon style="fill:#D68E7E;" points="324.865,389.199 361.031,389.199 361.031,373.984 322.094,373.984 	"/>
	<path style="fill:#3F352F;" d="M329.023,43.525C301.385,18.658,256.984,1.211,254.81,0.351c-1.539-0.609-3.279-0.417-4.65,0.515
		c-0.379,0.258-11.037,10.668-50.561,10.668h-0.002c-39.627,0-50.223-10.439-50.561-10.668c-1.371-0.932-3.113-1.124-4.65-0.515
		C142.213,1.21,94.488,18.658,70.17,43.522c-0.762,0.779-13.578,23.654-25.307,75.375c-10.734,47.333-22.34,129.157-16.695,250.19
		v25.111c0,2.76,2.238,5,5,5h45.336c2.416,0,4.486-1.729,4.918-4.105l4.568-25.082l9.141-38.57
		c1.355,5.461,2.895,10.711,4.635,15.709l4.525,25.914c0.418,2.393,2.496,4.141,4.926,4.141H287.98c2.43,0,4.508-1.748,4.926-4.141
		l4.525-25.914c1.74-4.998,3.279-10.248,4.635-15.711l9.139,38.572l4.568,25.082c0.434,2.377,2.504,4.105,4.92,4.105h45.338
		c2.762,0,5-2.24,5-5v-25.111c5.645-121.033-5.963-202.857-16.697-250.19C342.605,67.177,329.023,43.525,329.023,43.525z
		 M199.597,21.533h0.002c23.824,0,38.176-3.4,46.559-6.779c-5.727,15.147-24.424,26.286-46.559,26.286h-0.002
		c-22.135,0-40.832-11.139-46.557-26.286C161.424,18.133,175.773,21.533,199.597,21.533z M210.361,50.254l-10.764,11.517
		l-10.762-11.517c3.488,0.515,7.086,0.786,10.762,0.786h0.002C203.275,51.04,206.871,50.769,210.361,50.254z M74.332,389.199H38.168
		v-15.215h38.934L74.332,389.199z M94.793,126.687c-4.342,47.976-11.029,121.925-2.295,180.933L79.14,363.984H37.947
		c-5.066-116.893,6.127-196.08,16.498-242.118c8.771-38.941,18.416-61.26,22.438-69.556c6.85,3.216,20.727,12.565,20.727,35.573
		C97.609,95.57,96.367,109.302,94.793,126.687z M283.777,367.204H115.418l-2.842-16.287h174.045L283.777,367.204z M296.705,306.87
		c-0.018,0.086-4.371,23.752-7.721,34.047H110.213c-3.35-10.291-7.703-33.963-7.723-34.06
		c-8.717-57.789-2.057-131.547,2.262-179.268c1.596-17.636,2.857-31.567,2.857-39.706c0-25.794-14.723-38.092-24.143-43.32
		c16.562-13.689,45.807-26.953,58.471-32.365c2.756,13.782,13.293,25.549,27.938,32.412l26.07,27.899
		c0.984,1.054,2.318,1.586,3.654,1.586c1.223,0,2.449-0.446,3.414-1.347c0.084-0.079,26.307-28.139,26.307-28.139
		c14.646-6.862,25.184-18.631,27.939-32.413c12.662,5.41,41.9,18.667,58.471,32.365c-9.42,5.228-24.141,17.527-24.141,43.321
		c0,8.139,1.26,22.068,2.855,39.704C298.765,175.311,305.426,249.077,296.705,306.87z M361.031,389.199h-36.166l-2.771-15.215
		h38.938V389.199z M361.25,363.984h-41.195l-13.355-56.367c8.736-59.006,2.047-132.956-2.295-180.93
		c-1.572-17.385-2.814-31.116-2.814-38.803c0-23.015,13.885-32.363,20.721-35.573C331.474,71.278,369.935,163.781,361.25,363.984z"
		/>
</g>
<g>
</g>
<g>
</g>
<g>
</g>
<g>
</g>
<g>
</g>
<g>
</g>
<g>
</g>
<g>
</g>
<g>
</g>
<g>
</g>
<g>
</g>
<g>
</g>
<g>
</g>
<g>
</g>
<g>
</g>
</svg>
