<?xml version="1.0" encoding="iso-8859-1"?>
<!-- Generator: Adobe Illustrator 19.1.0, SVG Export Plug-In . SVG Version: 6.00 Build 0)  -->
<svg version="1.1" id="Capa_1" xmlns="http://www.w3.org/2000/svg" xmlns:xlink="http://www.w3.org/1999/xlink" x="0px" y="0px"
	 viewBox="0 0 425.381 425.381" style="enable-background:new 0 0 425.381 425.381;" xml:space="preserve">
<g>
	<polygon style="fill:#8EB6CA;" points="173.758,353.656 249.001,306.528 247.242,274.704 175.645,319.548 	"/>
	<polygon style="fill:#C7BEA8;" points="172.858,369.939 189.841,388.308 251.392,349.756 249.632,317.933 173.083,365.879 	"/>
	<polygon style="fill:#8EB6CA;" points="212.683,413.016 252.508,369.939 252.023,361.16 196.75,395.78 	"/>
	<polygon style="fill:#C7BEA8;" points="176.321,307.325 246.611,263.3 244.851,231.476 178.207,273.219 	"/>
	<path style="fill:#C7BEA8;" d="M162.256,19.589l20.216,15.649c0.125-0.323,0.277-0.638,0.471-0.933
		c0.48-0.732,1.135-1.309,1.889-1.698L169.294,12.55L162.256,19.589z"/>
	<polygon style="fill:#C7BEA8;" points="205.441,77.538 187.346,107.97 186.57,122.005 230.14,94.715 219.926,77.538 	"/>
	<polygon style="fill:#8EB6CA;" points="205.872,67.538 219.496,67.538 230.607,42.045 194.759,42.045 	"/>
	<polygon style="fill:#8EB6CA;" points="178.882,260.996 244.22,220.071 242.46,188.249 180.769,226.888 	"/>
	<path style="fill:#C7BEA8;" d="M240.544,32.612c0.749,0.389,1.401,0.965,1.879,1.693c0.195,0.298,0.348,0.615,0.474,0.941
		l20.228-15.658l-7.038-7.039L240.544,32.612z"/>
	<polygon style="fill:#C7BEA8;" points="181.445,214.665 241.83,176.845 240.07,145.02 183.332,180.558 	"/>
	<polygon style="fill:#8EB6CA;" points="184.007,168.335 239.439,133.615 238.021,107.97 235.251,103.313 185.894,134.228 	"/>
	<path style="fill:#3F352F;" d="M259.144,1.467c-1.015-1.016-2.414-1.555-3.851-1.455c-1.433,0.091-2.758,0.793-3.637,1.928
		l-23.323,30.105h-31.286L173.725,1.939c-0.88-1.135-2.205-1.837-3.638-1.928c-1.441-0.098-2.836,0.44-3.851,1.455l-15.066,15.065
		c-1.016,1.015-1.546,2.418-1.455,3.852c0.091,1.434,0.794,2.758,1.93,3.638l36.75,28.448l8.594,19.717l-18.866,31.727
		c-0.412,0.693-0.65,1.475-0.694,2.279l-14.673,265.309c-0.075,1.352,0.401,2.677,1.321,3.671l44.936,48.603
		c0.985,1.065,2.326,1.605,3.672,1.605c1.214,0,2.432-0.439,3.394-1.329c0.099-0.091,45.211-48.88,45.211-48.88
		c0.919-0.994,1.395-2.318,1.32-3.671l-14.672-265.309c-0.044-0.805-0.282-1.586-0.694-2.279l-18.865-31.728l8.588-19.701
		l36.768-28.463c1.136-0.88,1.839-2.204,1.93-3.638c0.091-1.434-0.439-2.836-1.455-3.852L259.144,1.467z M182.943,34.306
		c-0.193,0.295-0.346,0.609-0.471,0.933l-20.216-15.649l7.038-7.039l15.537,20.058C184.078,32.997,183.422,33.573,182.943,34.306z
		 M252.508,369.939l-39.825,43.077L196.75,395.78l55.273-34.62L252.508,369.939z M251.392,349.756l-61.551,38.552l-16.983-18.369
		l0.225-4.06l76.55-47.946L251.392,349.756z M249.001,306.528l-75.243,47.128l1.887-34.108l71.597-44.844L249.001,306.528z
		 M246.611,263.3l-70.29,44.025l1.886-34.107l66.645-41.743L246.611,263.3z M244.22,220.071l-65.338,40.925l1.887-34.108
		l61.691-38.639L244.22,220.071z M241.83,176.845l-60.385,37.82l1.887-34.107l56.738-35.538L241.83,176.845z M238.021,107.97
		l1.418,25.646l-55.432,34.72l1.887-34.107l49.357-30.915L238.021,107.97z M230.14,94.715l-43.57,27.29l0.776-14.035l18.095-30.432
		h14.485L230.14,94.715z M219.496,67.538h-13.624l-11.112-25.493h35.848L219.496,67.538z M242.897,35.247
		c-0.126-0.326-0.278-0.644-0.474-0.941c-0.477-0.729-1.13-1.305-1.879-1.693l15.542-20.062l7.038,7.039L242.897,35.247z"/>
</g>
<g>
</g>
<g>
</g>
<g>
</g>
<g>
</g>
<g>
</g>
<g>
</g>
<g>
</g>
<g>
</g>
<g>
</g>
<g>
</g>
<g>
</g>
<g>
</g>
<g>
</g>
<g>
</g>
<g>
</g>
</svg>
