<?xml version="1.0" encoding="iso-8859-1"?>
<!-- Generator: Adobe Illustrator 19.1.0, SVG Export Plug-In . SVG Version: 6.00 Build 0)  -->
<svg version="1.1" id="Capa_1" xmlns="http://www.w3.org/2000/svg" xmlns:xlink="http://www.w3.org/1999/xlink" x="0px" y="0px"
	 viewBox="0 0 414.779 414.779" style="enable-background:new 0 0 414.779 414.779;" xml:space="preserve">
<g>
	<polygon style="fill:#8EB6CA;" points="108.832,214.41 202.386,245.354 202.386,215.879 108.832,187.812 	"/>
	<path style="fill:#7E6F83;" d="M108.698,165.521c0.092,0.381,0.138,11.852,0.138,11.852l93.554,28.066v-29.562l-97.471-26.248
		C107.11,158.889,108.65,165.322,108.698,165.521z"/>
	<path style="fill:#7E6F83;" d="M90.2,85.002c0.697,3.531,1.798,8.635,3.123,14.578l109.065,26.018V95.885L91.748,72.891
		C90.105,75.729,89.147,79.656,90.2,85.002z"/>
	<path style="fill:#8EB6CA;" d="M102.307,138.57l100.079,26.949v-29.641L95.777,110.445
		C97.875,119.635,100.208,129.639,102.307,138.57z"/>
	<path style="fill:#8EB6CA;" d="M162.261,57.736c-3.857-4.297-5.709-8.791-6.584-12.422l-52.661,19.703l99.37,20.654V72.238
		C183.754,71.51,170.26,66.648,162.261,57.736z"/>
	<polygon style="fill:#7E6F83;" points="108.835,251.445 202.389,285.262 202.389,255.885 108.835,224.943 	"/>
	<polygon style="fill:#8EB6CA;" points="108.835,288.478 202.389,325.168 202.389,295.895 108.835,262.078 	"/>
	<path style="fill:#8EB6CA;" d="M212.386,85.672l99.37-20.654l-52.66-19.703c-0.875,3.631-2.728,8.125-6.583,12.422
		c-7.999,8.912-21.494,13.773-40.127,14.502V85.672z"/>
	<path style="fill:#7E6F83;" d="M212.389,62.229c15.286-0.664,26.48-4.42,32.515-10.984c5.418-5.894,4.962-12.125,4.939-12.387
		c-0.008-0.066-0.023-6.629-0.023-6.629c-11.936,9.234-29.056,11.797-37.431,12.506V62.229z"/>
	<path style="fill:#8EB6CA;" d="M108.835,362.654c0.01,3.363,0.942,13.682,4.863,18.145c2.94,1.498,22.596,10.035,88.69,10.447
		v-15.318l-93.554-39.565V362.654z"/>
	<path style="fill:#7E6F83;" d="M115.511,395.793c8.11,2.473,33.525,8.605,86.878,8.969v-3.514
		c-51.408-0.31-75.914-5.373-86.878-8.973V395.793z"/>
	<polygon style="fill:#7E6F83;" points="108.835,325.506 202.389,365.07 202.389,335.91 108.835,299.221 	"/>
	<path style="fill:#7E6F83;" d="M212.389,95.885v29.713L321.455,99.58c1.325-5.943,2.427-11.047,3.123-14.58
		c1.054-5.344,0.097-9.27-1.549-12.109L212.389,95.885z"/>
	<path style="fill:#8EB6CA;" d="M212.386,165.52l100.08-26.949c2.099-8.932,4.431-18.936,6.53-28.125l-106.61,25.434V165.52z"/>
	<path style="fill:#7E6F83;" d="M212.389,205.439l93.556-28.068c0,0,0.046-11.469,0.138-11.85c0.048-0.199,1.588-6.633,3.778-15.892
		l-97.472,26.248V205.439z"/>
	<path style="fill:#7E6F83;" d="M164.935,38.695c-0.004,0.057-0.431,6.705,4.941,12.549c6.035,6.564,17.229,10.32,32.514,10.984
		V44.734c-8.375-0.709-25.493-3.271-37.43-12.506C164.959,32.229,164.942,38.588,164.935,38.695z"/>
	<polygon style="fill:#8EB6CA;" points="212.386,245.354 305.942,214.41 305.942,187.812 212.386,215.879 	"/>
	<path style="fill:#7E6F83;" d="M212.389,404.762c53.328-0.363,78.745-6.49,86.879-8.971v-3.516
		c-10.964,3.6-35.47,8.662-86.879,8.973V404.762z"/>
	<path style="fill:#8EB6CA;" d="M212.389,391.246c66.044-0.412,85.721-8.936,88.685-10.445c3.237-3.81,4.674-13.756,4.871-18.252
		v-26.186l-93.556,39.565V391.246z"/>
	<path style="fill:#C7BEA8;" d="M249.249,18.428C247.2,16.092,238.829,10,207.389,10c-31.412,0-39.795,6.08-41.854,8.422
		c8.721,13.236,32.83,16.475,41.854,16.582C208.532,34.982,238.96,34.193,249.249,18.428z"/>
	<polygon style="fill:#7E6F83;" points="212.389,365.07 305.945,325.506 305.945,299.221 212.389,335.91 	"/>
	<polygon style="fill:#8EB6CA;" points="212.386,325.168 305.942,288.478 305.942,262.078 212.386,295.895 	"/>
	<polygon style="fill:#7E6F83;" points="212.389,285.262 305.945,251.445 305.945,224.943 212.389,255.885 	"/>
	<path style="fill:#3F352F;" d="M318.564,56.889l-58.744-21.98V18.797c0-0.002-0.001-0.006-0.001-0.01
		c0-1.053-0.313-4.244-3.688-7.689C248.917,3.734,232.518,0,207.389,0s-41.528,3.734-48.741,11.098
		c-3.374,3.445-3.688,6.635-3.688,7.689c0,0.004-0.001,0.008-0.001,0.01v16.111l-58.746,21.98
		c-7.085,2.455-19.412,11.846-15.823,30.047c3.537,17.939,16.847,73.66,18.445,80.34v195.381c0,1.67,0.203,15.67,6.676,23.953
		v12.748c0,1.988,1.18,3.789,3.004,4.584c1.016,0.441,25.726,10.838,98.874,10.838c73.149,0,97.859-10.396,98.875-10.838
		c1.824-0.795,3.004-2.596,3.004-4.584v-12.785c5.853-7.793,6.603-22.004,6.673-23.715c0.003-0.066,0.004-195.582,0.004-195.582
		c1.599-6.68,14.907-62.4,18.444-80.34C337.979,68.734,325.65,59.344,318.564,56.889z M252.516,57.736
		c3.855-4.297,5.708-8.791,6.583-12.422l52.66,19.703l-99.37,20.654V72.238C231.022,71.51,244.517,66.648,252.516,57.736z
		 M249.843,38.857c0.023,0.262,0.479,6.492-4.939,12.387c-6.035,6.564-17.229,10.32-32.515,10.984V44.734
		c8.375-0.709,25.494-3.271,37.431-12.506C249.82,32.229,249.835,38.791,249.843,38.857z M202.389,404.762
		c-53.352-0.363-78.768-6.496-86.878-8.969v-3.518c10.964,3.6,35.47,8.662,86.878,8.973V404.762z M202.389,391.246
		c-66.095-0.412-85.75-8.949-88.69-10.447c-3.921-4.463-4.854-14.781-4.863-18.145v-26.291l93.554,39.565V391.246z M202.389,365.07
		l-93.554-39.565v-26.285l93.554,36.689V365.07z M202.389,325.168l-93.554-36.689v-26.4l93.554,33.816V325.168z M202.389,285.262
		l-93.554-33.816v-26.502l93.554,30.941V285.262z M202.389,245.354l-93.554-30.943v-26.598l93.554,28.066V245.354z M202.389,205.439
		l-93.554-28.066c0,0-0.046-11.471-0.138-11.852c-0.048-0.199-1.588-6.633-3.779-15.892l97.471,26.248V205.439z M202.389,165.52
		L102.31,138.57c-2.099-8.932-4.432-18.936-6.53-28.125l106.609,25.434V165.52z M202.389,125.598L93.324,99.58
		c-1.325-5.943-2.426-11.047-3.123-14.578c-1.054-5.346-0.096-9.273,1.548-12.111l110.641,22.994V125.598z M202.389,85.672
		l-99.37-20.654l52.661-19.703c0.875,3.631,2.728,8.125,6.584,12.422c7.999,8.912,21.493,13.773,40.125,14.502V85.672z
		 M202.389,62.229c-15.285-0.664-26.479-4.42-32.514-10.984c-5.371-5.844-4.944-12.492-4.941-12.549
		c0.007-0.108,0.024-6.467,0.024-6.467c11.937,9.234,29.055,11.797,37.43,12.506V62.229z M165.534,18.422
		C167.594,16.08,175.977,10,207.389,10c31.441,0,39.811,6.092,41.86,8.428c-10.289,15.766-40.718,16.555-41.86,16.576
		C198.365,34.896,174.255,31.658,165.534,18.422z M299.268,395.791c-8.134,2.48-33.551,8.607-86.879,8.971v-3.514
		c51.409-0.31,75.915-5.373,86.879-8.973V395.791z M305.945,362.549c-0.197,4.496-1.634,14.441-4.871,18.252
		c-2.964,1.51-22.641,10.033-88.685,10.445v-15.318l93.556-39.565V362.549z M305.945,325.506l-93.556,39.565v-29.16l93.556-36.689
		V325.506z M305.945,288.478l-93.556,36.689v-29.273l93.556-33.816V288.478z M305.945,251.445l-93.556,33.816v-29.377l93.556-30.941
		V251.445z M305.945,214.41l-93.556,30.943v-29.475l93.556-28.066V214.41z M306.082,165.521c-0.092,0.381-0.138,11.85-0.138,11.85
		l-93.556,28.068v-29.562l97.472-26.248C307.67,158.889,306.13,165.322,306.082,165.521z M312.469,138.57l-100.08,26.949v-29.641
		l106.61-25.434C316.9,119.635,314.568,129.639,312.469,138.57z M324.578,85c-0.696,3.533-1.798,8.637-3.123,14.58l-109.066,26.018
		V95.885L323.03,72.891C324.675,75.73,325.632,79.656,324.578,85z"/>
</g>
<g>
</g>
<g>
</g>
<g>
</g>
<g>
</g>
<g>
</g>
<g>
</g>
<g>
</g>
<g>
</g>
<g>
</g>
<g>
</g>
<g>
</g>
<g>
</g>
<g>
</g>
<g>
</g>
<g>
</g>
</svg>
