<?xml version="1.0" encoding="iso-8859-1"?>
<!-- Generator: Adobe Illustrator 19.1.0, SVG Export Plug-In . SVG Version: 6.00 Build 0)  -->
<svg version="1.1" id="Capa_1" xmlns="http://www.w3.org/2000/svg" xmlns:xlink="http://www.w3.org/1999/xlink" x="0px" y="0px"
	 viewBox="0 0 406.174 406.174" style="enable-background:new 0 0 406.174 406.174;" xml:space="preserve">
<g>
	<path style="fill:#8EB6CA;" d="M91.4,142.151c-33.6,0-60.935,27.336-60.935,60.936c0,33.599,27.336,60.934,60.935,60.934
		c33.602,0,60.938-27.335,60.938-60.934C152.338,169.487,125.002,142.151,91.4,142.151z M120.961,234.571H61.84
		c-2.762,0-5-2.238-5-5s2.238-5,5-5h59.121c2.762,0,5,2.238,5,5S123.723,234.571,120.961,234.571z M125.961,206.347
		c0,2.762-2.238,5-5,5H61.84c-2.762,0-5-2.238-5-5v-29.002c0-2.762,2.238-5,5-5h59.121c2.762,0,5,2.238,5,5V206.347z"/>
	<path style="fill:#CBE8DE;" d="M91.4,121.685c-44.885,0-81.4,36.517-81.4,81.402c0,44.886,36.516,81.402,81.4,81.402
		s81.402-36.517,81.402-81.402C172.803,158.201,136.285,121.685,91.4,121.685z M91.4,274.02c-39.113,0-70.935-31.82-70.935-70.934
		c0-39.114,31.822-70.936,70.935-70.936c39.115,0,70.938,31.821,70.938,70.936C162.338,242.2,130.516,274.02,91.4,274.02z"/>
	<rect x="66.84" y="182.345" style="fill:#CBE8DE;" width="49.121" height="19.002"/>
	<path style="fill:#8EB6CA;" d="M172.5,143.688c-1.749-1.749-4.595-1.746-6.344,0.001l-2.939,2.939
		c1.876,2.381,3.636,4.855,5.271,7.417l4.013-4.012C174.25,148.285,174.249,145.438,172.5,143.688z"/>
	<path style="fill:#A9D8C8;" d="M182.803,203.087c0,3.209-0.176,6.376-0.5,9.5h6.582v-19.002h-6.582
		C182.627,196.71,182.803,199.878,182.803,203.087z"/>
	<path style="fill:#8EB6CA;" d="M168.488,252.13c-1.636,2.561-3.396,5.036-5.271,7.416l2.939,2.941
		c1.747,1.746,4.595,1.746,6.344-0.002c0.848-0.847,1.314-1.973,1.314-3.171c0-1.198-0.467-2.324-1.314-3.171L168.488,252.13z"/>
	<path style="fill:#A9D8C8;" d="M143.025,127.702l-4.507-23.201H44.284l-4.506,23.2c14.698-10.098,32.48-16.017,51.622-16.017
		S128.325,117.604,143.025,127.702z"/>
	<polygon style="fill:#CBE8DE;" points="117.362,63.946 65.44,63.946 53.546,94.501 129.257,94.501 	"/>
	<polygon style="fill:#CBE8DE;" points="65.44,342.226 117.362,342.226 129.257,311.671 53.546,311.671 	"/>
	<path style="fill:#A9D8C8;" d="M39.778,278.473l4.506,23.198h94.234l4.506-23.198c-14.699,10.098-32.482,16.017-51.624,16.017
		C72.26,294.489,54.477,288.57,39.778,278.473z"/>
	<polygon style="fill:#AB9E85;" points="313.318,351.694 372.02,351.694 372.77,335.489 312.567,335.489 	"/>
	<polygon style="fill:#C7BEA8;" points="312.104,325.489 373.234,325.489 373.986,309.282 311.353,309.282 	"/>
	<path style="fill:#C7BEA8;" d="M387.414,133.095h-88.945c-4.83,0-8.76,3.931-8.76,8.762v122.461c0,4.831,3.93,8.762,8.76,8.762
		h88.945c4.83,0,8.76-3.931,8.76-8.762V141.856C396.174,137.025,392.244,133.095,387.414,133.095z M387.172,259.519
		c0,2.762-2.238,5-5,5h-78.463c-2.762,0-5-2.238-5-5V146.655c0-2.762,2.238-5,5-5h78.463c2.762,0,5,2.238,5,5V259.519z"/>
	<polygon style="fill:#AB9E85;" points="310.89,299.282 374.449,299.282 375.201,283.079 310.139,283.079 	"/>
	<path style="fill:#D68E7E;" d="M347.67,161.153c0,2.762-2.238,5-5,5c-2.762,0-5-2.238-5-5v-9.498h-28.961v102.863h28.961v-9.496
		c0-2.762,2.238-5,5-5c2.762,0,5,2.238,5,5v9.496h29.502V151.655H347.67V161.153z M366.592,215.844
		c-0.9,1.688-2.629,2.648-4.416,2.648c-0.795,0-1.6-0.189-2.349-0.589l-19.512-10.404c-1.034-0.552-1.843-1.449-2.282-2.536
		l-11.352-28.047c-1.036-2.56,0.199-5.475,2.759-6.511c2.561-1.035,5.476,0.199,6.511,2.759l10.671,26.365l17.91,9.55
		C366.969,210.379,367.891,213.407,366.592,215.844z"/>
	<polygon style="fill:#AB9E85;" points="372.02,54.479 313.318,54.479 312.567,70.685 372.77,70.685 	"/>
	<polygon style="fill:#C7BEA8;" points="373.234,80.685 312.104,80.685 311.353,96.89 373.986,96.89 	"/>
	<polygon style="fill:#AB9E85;" points="374.449,106.89 310.89,106.89 310.139,123.095 375.2,123.095 	"/>
	<path style="fill:#3F352F;" d="M91.4,132.151c-39.113,0-70.935,31.821-70.935,70.936c0,39.113,31.822,70.934,70.935,70.934
		c39.115,0,70.938-31.82,70.938-70.934C162.338,163.973,130.516,132.151,91.4,132.151z M91.4,264.02
		c-33.6,0-60.935-27.335-60.935-60.934c0-33.6,27.336-60.936,60.935-60.936c33.602,0,60.938,27.336,60.938,60.936
		C152.338,236.686,125.002,264.02,91.4,264.02z"/>
	<path style="fill:#3F352F;" d="M193.885,183.585h-13.188c-1.568-7.177-3.973-14.043-7.121-20.485l5.998-5.996
		c5.645-5.648,5.645-14.838-0.004-20.485c-5.646-5.646-14.836-5.646-20.485,0l-2.484,2.484c-0.48-0.489-0.966-0.975-1.457-1.454
		l-7.595-39.101c-0.457-2.351-2.514-4.047-4.908-4.047h-2.653L125.44,57.133c-0.747-1.921-2.598-3.187-4.659-3.187h-58.76
		c-2.062,0-3.912,1.266-4.659,3.187L42.815,94.501h-2.653c-2.395,0-4.451,1.696-4.908,4.047l-7.595,39.1
		C10.608,154.261,0,177.456,0,203.087c0,25.631,10.608,48.826,27.66,65.439l7.594,39.098c0.457,2.35,2.514,4.047,4.908,4.047h2.653
		l14.547,37.368c0.747,1.921,2.598,3.187,4.659,3.187h58.76c2.062,0,3.912-1.266,4.659-3.187l14.546-37.368h2.654
		c2.395,0,4.451-1.696,4.908-4.047l7.594-39.098c0.492-0.479,0.977-0.965,1.458-1.455l2.483,2.485
		c2.824,2.822,6.533,4.234,10.243,4.234c3.71,0,7.419-1.412,10.243-4.234c2.736-2.735,4.244-6.373,4.244-10.243
		c0-3.87-1.508-7.508-4.244-10.242l-5.995-5.995c3.149-6.442,5.555-13.311,7.122-20.489h13.188c2.762,0,5-2.238,5-5v-29.002
		C198.885,185.823,196.646,183.585,193.885,183.585z M65.44,63.946h51.922l11.894,30.555H53.546L65.44,63.946z M44.284,104.501
		h94.234l4.507,23.201c-14.7-10.098-32.483-16.018-51.625-16.018s-36.924,5.919-51.622,16.017L44.284,104.501z M117.362,342.226
		H65.44l-11.894-30.555h75.711L117.362,342.226z M138.519,301.671H44.284l-4.506-23.198C54.477,288.57,72.26,294.489,91.4,294.489
		c19.142,0,36.925-5.919,51.624-16.017L138.519,301.671z M91.4,284.489c-44.885,0-81.4-36.517-81.4-81.402
		c0-44.886,36.516-81.402,81.4-81.402s81.402,36.517,81.402,81.402C172.803,247.973,136.285,284.489,91.4,284.489z M173.814,259.313
		c0,1.198-0.467,2.324-1.314,3.171c-1.749,1.748-4.597,1.748-6.344,0.002l-2.939-2.941c1.875-2.38,3.635-4.854,5.271-7.416
		l4.012,4.013C173.348,256.989,173.814,258.115,173.814,259.313z M172.502,150.033l-4.013,4.012
		c-1.636-2.562-3.395-5.036-5.271-7.417l2.939-2.939c1.749-1.747,4.595-1.75,6.344-0.001
		C174.249,145.438,174.25,148.285,172.502,150.033z M188.885,212.587h-6.582c0.324-3.124,0.5-6.291,0.5-9.5
		c0-3.209-0.176-6.377-0.5-9.502h6.582V212.587z"/>
	<path style="fill:#3F352F;" d="M120.961,172.345H61.84c-2.762,0-5,2.238-5,5v29.002c0,2.762,2.238,5,5,5h59.121
		c2.762,0,5-2.238,5-5v-29.002C125.961,174.583,123.723,172.345,120.961,172.345z M115.961,201.347H66.84v-19.002h49.121V201.347z"
		/>
	<path style="fill:#3F352F;" d="M120.961,224.571H61.84c-2.762,0-5,2.238-5,5s2.238,5,5,5h59.121c2.762,0,5-2.238,5-5
		S123.723,224.571,120.961,224.571z"/>
	<path style="fill:#3F352F;" d="M335.951,173.164c-1.035-2.56-3.95-3.794-6.511-2.759c-2.559,1.036-3.795,3.951-2.759,6.511
		l11.352,28.047c0.439,1.087,1.248,1.984,2.282,2.536l19.512,10.404c0.749,0.399,1.554,0.589,2.349,0.589
		c1.787,0,3.516-0.961,4.416-2.648c1.299-2.437,0.377-5.465-2.06-6.765l-17.91-9.55L335.951,173.164z"/>
	<path style="fill:#3F352F;" d="M387.414,123.095h-2.203l-3.424-73.847c-0.123-2.669-2.322-4.769-4.994-4.769h-68.248
		c-2.672,0-4.871,2.1-4.994,4.769l-3.422,73.847h-1.66c-10.344,0-18.76,8.416-18.76,18.762v122.461
		c0,10.346,8.416,18.762,18.76,18.762h1.661l3.421,73.847c0.123,2.669,2.322,4.769,4.994,4.769h68.248
		c2.672,0,4.871-2.1,4.994-4.769l3.423-73.847h2.204c10.344,0,18.76-8.416,18.76-18.762V141.856
		C406.174,131.511,397.758,123.095,387.414,123.095z M313.318,54.479h58.701l0.751,16.205h-60.203L313.318,54.479z M312.104,80.685
		h61.13l0.752,16.205h-62.633L312.104,80.685z M310.89,106.89h63.56l0.751,16.205h-65.061L310.89,106.89z M372.02,351.694h-58.701
		l-0.751-16.205h60.203L372.02,351.694z M373.234,325.489h-61.13l-0.751-16.207h62.633L373.234,325.489z M374.449,299.282h-63.56
		l-0.751-16.203h65.062L374.449,299.282z M396.174,264.317c0,4.831-3.93,8.762-8.76,8.762h-88.945c-4.83,0-8.76-3.931-8.76-8.762
		V141.856c0-4.831,3.93-8.762,8.76-8.762h88.945c4.83,0,8.76,3.931,8.76,8.762V264.317z"/>
	<path style="fill:#3F352F;" d="M382.172,141.655h-78.463c-2.762,0-5,2.238-5,5v112.863c0,2.762,2.238,5,5,5h78.463
		c2.762,0,5-2.238,5-5V146.655C387.172,143.894,384.934,141.655,382.172,141.655z M377.172,254.519H347.67v-9.496
		c0-2.762-2.238-5-5-5c-2.762,0-5,2.238-5,5v9.496h-28.961V151.655h28.961v9.498c0,2.762,2.238,5,5,5c2.762,0,5-2.238,5-5v-9.498
		h29.502V254.519z"/>
</g>
<g>
</g>
<g>
</g>
<g>
</g>
<g>
</g>
<g>
</g>
<g>
</g>
<g>
</g>
<g>
</g>
<g>
</g>
<g>
</g>
<g>
</g>
<g>
</g>
<g>
</g>
<g>
</g>
<g>
</g>
</svg>
