<?xml version="1.0" encoding="iso-8859-1"?>
<!-- Generator: Adobe Illustrator 19.1.0, SVG Export Plug-In . SVG Version: 6.00 Build 0)  -->
<svg version="1.1" id="Capa_1" xmlns="http://www.w3.org/2000/svg" xmlns:xlink="http://www.w3.org/1999/xlink" x="0px" y="0px"
	 viewBox="0 0 430.697 430.697" style="enable-background:new 0 0 430.697 430.697;" xml:space="preserve">
<g>
	<path style="fill:#E3D282;" d="M215.347,375.965c14.101-0.001,26.604-0.171,37.688-0.461
		c-3.75-76.459-29.482-129.712-35.705-141.56h-3.961c-6.22,11.867-31.95,65.219-35.706,141.56
		C188.747,375.794,201.248,375.964,215.347,375.965z"/>
	<rect x="206.526" y="217.707" style="fill:#E3D282;" width="17.643" height="6.238"/>
	<path style="fill:#AB9E85;" d="M261.251,192.251c-2.784,0-5.1-0.492-7.069-1.245c-0.234,4.528-0.212,9.906,0.43,15.038
		c2.921-0.02,5.681-0.178,8.275-0.456c-0.842-5.065-0.807-9.833-0.553-13.37C261.978,192.236,261.622,192.251,261.251,192.251z"/>
	<path style="fill:#AB9E85;" d="M215.349,20.677c52.855,0,70.573,83.438,73.419,143.711h11.212
		c-0.335-20.443-2.957-62.023-17.409-98.128C267.627,28.929,245.011,10,215.349,10c-29.662,0-52.279,18.929-67.223,56.26
		c-14.453,36.104-17.075,77.685-17.41,98.128h11.2C144.763,104.116,162.484,20.677,215.349,20.677z"/>
	<path style="fill:#D68E7E;" d="M289.197,194.843c4.288-3.711,9.245-10.117,10.517-20.455H289.11
		C289.167,177.033,289.197,194.843,289.197,194.843z"/>
	<path style="fill:#AB9E85;" d="M263.496,394.128c0,2.762-2.238,5-5,5c-2.762,0-5-2.238-5-5c0-2.91-0.036-5.79-0.1-8.643
		c-11.23,0.303-23.854,0.479-38.048,0.479c-14.193-0.001-26.816-0.177-38.045-0.479c-0.065,2.854-0.102,5.732-0.102,8.643
		c0,2.762-2.238,5-5,5c-2.762,0-5-2.238-5-5c0-3.021,0.045-5.999,0.111-8.956c-39.707-1.438-59.672-4.52-69.032-6.618
		c1.237,17.012,7.371,29.184,18.282,36.232c8.91,5.758,17.994,5.91,18.083,5.91h161.39c1.491-0.013,33.285-0.809,36.374-42.141
		c-9.363,2.098-29.327,5.18-69.024,6.616C263.451,388.129,263.496,391.108,263.496,394.128z"/>
	<path style="fill:#E3D282;" d="M202.108,233.945h-0.582c-2.762,0-5-2.239-5-5l-0.012-46.056c-1.133-0.542-2.412-0.859-4.121-0.859
		c-2.908,0-4.599,0.883-6.38,2.319c0.994,8.83,2.54,33.277-8.936,44.751c-0.977,0.976-2.256,1.464-3.535,1.464
		s-2.56-0.488-3.536-1.465c-1.952-1.952-1.952-5.117,0.001-7.07c1.564-1.564,2.786-3.64,3.732-6.029
		c-3.067-0.088-6.004-0.299-8.762-0.652c-1.87,4.268-4.656,8.329-8.756,11.629c-0.924,0.744-2.031,1.105-3.132,1.105
		c-1.462,0-2.91-0.639-3.898-1.865c-1.731-2.151-1.391-5.299,0.761-7.03c11.264-9.066,8.371-28.069,7.918-30.644
		c-1.233-0.891-2.286-1.828-3.229-2.668c-1.128-1.004-2.097-1.85-3.142-2.493c0,0-0.029,20.909-0.071,21.25
		c-0.001,0.005-0.001,0.009-0.002,0.013c-0.864,6.811-9.906,15.503-13.976,19.102c-35.5,33.522-39.022,125.273-39.367,144.536
		c6.418,1.709,24.855,5.332,69.583,6.916C171.079,303.535,192.958,252.421,202.108,233.945z"/>
	<path style="fill:#E3D282;" d="M293.246,223.747c-4.275-3.782-14.049-13.188-14.049-20.125v-20.243
		c-1.045,0.646-2.016,1.49-3.145,2.496c-0.942,0.84-1.993,1.775-3.226,2.666c-0.448,2.617-3.265,21.645,7.917,30.645
		c2.151,1.731,2.492,4.879,0.761,7.03c-0.988,1.227-2.438,1.865-3.898,1.865c-1.101,0-2.208-0.361-3.132-1.105
		c-4.102-3.301-6.888-7.364-8.758-11.633c-2.76,0.354-5.689,0.566-8.755,0.653c0.944,2.394,2.165,4.47,3.728,6.032
		c1.953,1.953,1.953,5.118,0.001,7.07c-0.977,0.977-2.257,1.465-3.536,1.465c-1.279,0-2.559-0.487-3.535-1.464
		c-11.474-11.472-9.93-35.914-8.937-44.748c-1.782-1.438-3.475-2.322-6.387-2.322c-1.712,0-2.992,0.318-4.127,0.862
		c0.001,4.744,0,46.053,0,46.053c0,2.761-2.238,5-5,5h-0.583c9.15,18.473,31.031,69.584,34.443,141.253
		c44.631-1.58,63.093-5.194,69.583-6.924C332.262,348.99,328.716,257.241,293.246,223.747z"/>
	<path style="fill:#D68E7E;" d="M141.575,174.388h-10.591c1.274,10.323,6.235,16.732,10.516,20.443
		C141.5,194.832,141.518,177.037,141.575,174.388z"/>
	<path style="fill:#AB9E85;" d="M176.097,206.044c0.643-5.135,0.663-10.514,0.425-15.041c-1.972,0.754-4.289,1.248-7.078,1.248
		c-0.37,0-0.726-0.016-1.079-0.033c0.254,3.539,0.287,8.31-0.557,13.377C170.41,205.87,173.173,206.025,176.097,206.044z"/>
	<path style="fill:#AB9E85;" d="M215.345,192.251c-3.663,0-6.515-0.851-8.83-2.029v17.484h17.663
		c-0.004-6.191-0.006-12.541-0.008-17.482C221.855,191.402,219.005,192.251,215.345,192.251z"/>
	<path style="fill:#3F352F;" d="M300.045,216.414c-0.039-0.037-7.11-5.557-9.464-10.242c6.97-4.274,19.36-14.936,19.442-36.766
		c0-0.003,1.366-55.085-18.169-106.861C276.296,21.309,249.021,0,215.349,0c-33.672,0-60.761,21.38-76.507,62.544
		c-18.074,47.253-18.169,106.858-18.169,106.861c0.082,21.854,12.462,32.5,19.438,36.769c-2.562,4.242-9.421,10.203-9.459,10.239
		c-42.749,40.251-42.631,150.82-42.605,155.508c0,0.002,0,0.003,0,0.004c0.01,30.042,12.56,44.458,23.088,51.262
		c11.479,7.416,22.974,7.51,23.512,7.51c0,0,0.003,0,0.004,0h161.396c0.466,0,46.586-0.672,46.604-58.771c0-0.001,0-0.002,0-0.004
		C342.676,367.234,342.794,256.665,300.045,216.414z M289.197,194.843c0,0-0.03-17.811-0.087-20.455h10.603
		C298.442,184.726,293.485,191.132,289.197,194.843z M148.127,66.26C163.07,28.929,185.687,10,215.349,10
		c29.661,0,52.277,18.929,67.222,56.26c14.452,36.104,17.074,77.685,17.409,98.128h-11.212
		c-2.846-60.272-20.564-143.711-73.419-143.711c-52.865,0-70.586,83.438-73.433,143.711h-11.2
		C131.052,143.945,133.674,102.365,148.127,66.26z M262.887,205.588c-2.595,0.278-5.354,0.436-8.275,0.456
		c-0.642-5.132-0.664-10.51-0.43-15.038c1.97,0.753,4.285,1.245,7.069,1.245c0.371,0,0.728-0.016,1.083-0.033
		C262.08,195.755,262.045,200.523,262.887,205.588z M261.251,182.251c-3.834,0-5.552-1.529-8.151-3.844
		c-3.021-2.691-7.16-6.378-14.804-6.378c-7.643,0-11.78,3.687-14.803,6.378c-2.599,2.314-4.315,3.844-8.148,3.844
		c-3.833,0-5.55-1.529-8.148-3.844c-3.022-2.691-7.16-6.378-14.803-6.378c-7.642,0-11.779,3.687-14.801,6.378
		c-2.599,2.314-4.315,3.844-8.148,3.844c-3.835,0-5.552-1.529-8.151-3.845c-2.26-2.013-5.156-4.569-9.666-5.733
		c1.52-53.98,16.109-141.996,63.723-141.996c47.604,0,62.19,88.018,63.709,141.998c-4.504,1.166-7.398,3.721-9.656,5.731
		C266.803,180.722,265.085,182.251,261.251,182.251z M213.369,233.945h3.961c6.223,11.848,31.955,65.101,35.705,141.56
		c-11.084,0.29-23.587,0.46-37.688,0.461c-14.1-0.001-26.601-0.171-37.685-0.461C181.419,299.164,207.149,245.812,213.369,233.945z
		 M206.526,223.945v-6.238h17.643v6.238H206.526z M206.514,207.707v-17.484c2.315,1.179,5.167,2.029,8.83,2.029
		c3.66,0,6.511-0.85,8.825-2.027c0.002,4.941,0.004,11.291,0.008,17.482H206.514z M168.365,192.218
		c0.354,0.018,0.709,0.033,1.079,0.033c2.789,0,5.106-0.494,7.078-1.248c0.238,4.527,0.218,9.906-0.425,15.041
		c-2.925-0.02-5.688-0.175-8.289-0.449C168.652,200.528,168.619,195.757,168.365,192.218z M130.984,174.388h10.591
		c-0.057,2.648-0.075,20.443-0.075,20.443C137.22,191.121,132.259,184.711,130.984,174.388z M137.451,223.747
		c4.069-3.6,13.111-12.292,13.976-19.102c0.001-0.004,0.001-0.008,0.002-0.013c0.042-0.341,0.071-21.25,0.071-21.25
		c1.045,0.644,2.014,1.489,3.142,2.493c0.943,0.84,1.996,1.777,3.229,2.668c0.453,2.574,3.346,21.577-7.918,30.644
		c-2.151,1.731-2.492,4.879-0.761,7.03c0.988,1.227,2.437,1.865,3.898,1.865c1.101,0,2.208-0.361,3.132-1.105
		c4.1-3.3,6.886-7.361,8.756-11.629c2.758,0.354,5.694,0.564,8.762,0.652c-0.946,2.39-2.168,4.465-3.732,6.029
		c-1.953,1.953-1.953,5.118-0.001,7.07c0.977,0.977,2.257,1.465,3.536,1.465s2.559-0.488,3.535-1.464
		c11.476-11.474,9.93-35.921,8.936-44.751c1.781-1.437,3.472-2.319,6.38-2.319c1.709,0,2.988,0.317,4.121,0.859l0.012,46.056
		c0,2.761,2.238,5,5,5h0.582c-9.15,18.477-31.029,69.59-34.441,141.254c-44.727-1.584-63.165-5.207-69.583-6.916
		C98.429,349.02,101.951,257.269,137.451,223.747z M296.035,420.697h-161.39c-0.089,0-9.173-0.152-18.083-5.91
		c-10.911-7.049-17.045-19.221-18.282-36.232c9.36,2.099,29.325,5.181,69.032,6.618c-0.066,2.957-0.111,5.936-0.111,8.956
		c0,2.762,2.238,5,5,5c2.762,0,5-2.238,5-5c0-2.91,0.036-5.789,0.102-8.643c11.229,0.303,23.852,0.479,38.045,0.479
		c14.194-0.001,26.818-0.177,38.048-0.479c0.064,2.853,0.1,5.732,0.1,8.643c0,2.762,2.238,5,5,5c2.762,0,5-2.238,5-5
		c0-3.021-0.045-5.999-0.111-8.956c39.697-1.436,59.661-4.518,69.024-6.616C329.32,419.888,297.526,420.684,296.035,420.697z
		 M263.029,375.198c-3.412-71.669-25.293-122.78-34.443-141.253h0.583c2.762,0,5-2.239,5-5c0,0,0.001-41.309,0-46.053
		c1.135-0.544,2.415-0.862,4.127-0.862c2.912,0,4.604,0.885,6.387,2.322c-0.993,8.834-2.537,33.276,8.937,44.748
		c0.977,0.976,2.256,1.464,3.535,1.464c1.279,0,2.56-0.488,3.536-1.465c1.952-1.952,1.952-5.117-0.001-7.07
		c-1.562-1.562-2.783-3.639-3.728-6.032c3.065-0.087,5.995-0.3,8.755-0.653c1.87,4.269,4.656,8.332,8.758,11.633
		c0.924,0.744,2.031,1.105,3.132,1.105c1.461,0,2.91-0.639,3.898-1.865c1.732-2.151,1.391-5.299-0.761-7.03
		c-11.182-9-8.365-28.028-7.917-30.645c1.232-0.891,2.283-1.826,3.226-2.666c1.129-1.006,2.1-1.85,3.145-2.496v20.243
		c0,6.937,9.773,16.343,14.049,20.125c35.47,33.494,39.016,125.243,39.366,144.527C326.122,370.003,307.66,373.618,263.029,375.198z
		"/>
</g>
<g>
</g>
<g>
</g>
<g>
</g>
<g>
</g>
<g>
</g>
<g>
</g>
<g>
</g>
<g>
</g>
<g>
</g>
<g>
</g>
<g>
</g>
<g>
</g>
<g>
</g>
<g>
</g>
<g>
</g>
</svg>
