<?xml version="1.0" encoding="iso-8859-1"?>
<!-- Generator: Adobe Illustrator 19.1.0, SVG Export Plug-In . SVG Version: 6.00 Build 0)  -->
<svg version="1.1" id="Capa_1" xmlns="http://www.w3.org/2000/svg" xmlns:xlink="http://www.w3.org/1999/xlink" x="0px" y="0px"
	 viewBox="0 0 412.698 412.698" style="enable-background:new 0 0 412.698 412.698;" xml:space="preserve">
<g>
	<path style="fill:#AB9E85;" d="M28.479,300.05c-8.929-17.09,7.773-51.298,14.459-63.706l-12.203-7.81
		c-6.501,11.428-22.956,43.067-20.49,66.599c1.64,15.649,12.901,32.372,39.592,32.372h20.005c-3.713-4.142-6.289-9.317-7.246-15.037
		C48.374,312.217,33.899,310.423,28.479,300.05z"/>
	<polygon style="fill:#AB9E85;" points="117.817,331.847 119.654,338.707 133.134,338.707 134.971,331.847 134.971,326.4 
		117.817,326.4 	"/>
	<path style="fill:#8EB6CA;" d="M72.177,307.505c0,11.027,8.973,20,20,20h15.64v-53.652c-15.681-1.334-27.257-3.548-35.64-6.878
		V307.505z"/>
	<path style="fill:#E3D282;" d="M126.393,301.071c-5.298,0-8.301,2.134-8.576,2.965V316.4h17.154v-12.41
		C134.734,303.231,131.722,301.071,126.393,301.071z"/>
	<path style="fill:#8EB6CA;" d="M164.555,82.513h83.618c1.201,0,2.178-0.977,2.178-2.177v-4.168c0-1.201-0.977-2.177-2.178-2.177
		h-83.618c-1.2,0-2.178,0.977-2.178,2.177v4.168C162.377,81.537,163.355,82.513,164.555,82.513z"/>
	<path style="fill:#8EB6CA;" d="M304.909,273.793v53.713h15.643c10.959,0,19.877-8.861,19.989-19.794
		c-0.003-0.069,0.011-41.077,0.011-41.077C332.191,269.95,320.613,272.255,304.909,273.793z"/>
	<path style="fill:#A9D8C8;" d="M312.358,234.143c0,0.563-0.096,1.124-0.282,1.655l-7.167,20.42v7.519
		c20.571-2.091,33.606-5.614,39.727-10.741c4.823-4.04,5.059-8.807,5.059-16.883h0.002c0-0.005-0.002-0.011-0.002-0.016V129.858
		c0-11.028-8.972-20-20-20H83.033c-11.027,0-20,8.972-20,20v106.239c0,8.217,0.236,13.067,5.09,17.201
		c6.16,5.245,19.184,8.693,39.694,10.512v-7.592l-7.165-20.42c-0.188-0.531-0.282-1.092-0.282-1.655
		c0-14.226,10.216-23.418,26.025-23.418s26.025,9.192,26.025,23.418c0,0.563-0.095,1.124-0.282,1.655l-7.167,20.42v10.059
		c17.272,0.715,37.415,1.065,61.393,1.065c23.976,0,44.117-0.35,61.39-1.065v-10.058l-7.165-20.42
		c-0.187-0.531-0.282-1.092-0.282-1.655c0-14.226,10.216-23.418,26.025-23.418S312.358,219.918,312.358,234.143z"/>
	<path style="fill:#AB9E85;" d="M286.332,220.725c-10.01,0-15.663,4.471-16.009,12.614l5.975,17.027h20.066l5.977-17.027
		C301.995,225.196,296.342,220.725,286.332,220.725z"/>
	<path style="fill:#AB9E85;" d="M369.76,236.344c6.686,12.408,23.389,46.616,14.459,63.706
		c-5.416,10.366-19.874,12.164-34.085,12.418c-0.957,5.719-3.533,10.896-7.245,15.037h19.973c26.689,0,37.952-16.723,39.592-32.372
		c2.469-23.568-13.984-55.182-20.488-66.601L369.76,236.344z"/>
	<path style="fill:#AB9E85;" d="M117.817,292.446c2.54-0.878,5.438-1.375,8.576-1.375c3.138,0,6.038,0.497,8.578,1.375v-21.591
		c0.001-0.009-0.002-0.018-0.001-0.027c0-0.003,0.001-0.006,0.001-0.01v-10.451h-17.154V292.446z"/>
	<path style="fill:#AB9E85;" d="M277.754,292.446c2.54-0.878,5.439-1.375,8.576-1.375c3.138,0,6.037,0.497,8.578,1.375v-32.079
		h-17.154V292.446z"/>
	<path style="fill:#8EB6CA;" d="M144.971,276.285v51.221h122.783v-51.221c-17.321,0.71-37.468,1.057-61.39,1.057
		C182.439,277.341,162.291,276.995,144.971,276.285z"/>
	<path style="fill:#E3D282;" d="M286.33,301.071c-5.3,0-8.304,2.136-8.576,2.966V316.4h17.154v-12.41
		C294.671,303.231,291.659,301.071,286.33,301.071z"/>
	<path style="fill:#AB9E85;" d="M126.395,220.725c-10.009,0-15.663,4.471-16.009,12.614l5.975,17.027h20.066l5.977-17.027
		C142.058,225.196,136.404,220.725,126.395,220.725z"/>
	<polygon style="fill:#AB9E85;" points="277.754,331.847 279.591,338.707 293.072,338.707 294.909,331.847 294.909,326.4 
		277.754,326.4 	"/>
	<path style="fill:#3F352F;" d="M384.723,216.649c-1.299-0.29-2.662-0.05-3.784,0.669l-5.77,3.692l-15.474-28.09v-63.062
		c0-16.542-13.458-30-30-30h-50.316V89.751c0-9.097-7.401-16.498-16.498-16.498h-2.897c-1.311-5.308-6.102-9.261-11.81-9.261
		h-83.618c-5.708,0-10.498,3.953-11.81,9.261h-2.897c-9.097,0-16.498,7.401-16.498,16.498v10.107H83.033c-16.542,0-30,13.458-30,30
		v63.011L37.53,221.01l-5.77-3.692c-1.122-0.719-2.484-0.959-3.785-0.669c-1.3,0.29-2.43,1.087-3.141,2.214
		c-1.143,1.814-27.941,44.785-24.534,77.312c1.998,19.066,16.171,41.33,49.537,41.33h59.144l2.008,7.494
		c0.585,2.188,2.566,3.707,4.829,3.707h21.154c2.263,0,4.244-1.52,4.829-3.707l2.008-7.494h125.109l2.007,7.494
		c0.586,2.188,2.566,3.707,4.83,3.707h21.154c2.264,0,4.244-1.52,4.83-3.707l2.007-7.494h16.807h42.31
		c33.367,0,47.539-22.264,49.537-41.33c3.408-32.527-23.392-75.498-24.534-77.312C387.155,217.736,386.024,216.939,384.723,216.649z
		 M359.695,213.647l7.032,12.766c0,0-6.813,4.402-7.032,4.606V213.647z M350.552,261.068c0.169-0.135,9.525-6.365,9.13-22.31
		c9.442,16.791,21.418,45.668,15.674,56.661c-2.841,5.436-13.553,6.777-24.804,7.033V261.068z M162.377,76.169
		c0-1.201,0.978-2.177,2.178-2.177h83.618c1.201,0,2.178,0.977,2.178,2.177v4.168c0,1.201-0.977,2.177-2.178,2.177h-83.618
		c-1.2,0-2.178-0.977-2.178-2.177V76.169z M143.35,89.751c0-3.583,2.915-6.498,6.498-6.498h2.897
		c1.313,5.308,6.102,9.261,11.81,9.261h83.618c5.708,0,10.498-3.953,11.81-9.261h2.897c3.583,0,6.498,2.915,6.498,6.498v10.107
		H143.35V89.751z M53.044,238.708c0.085,7.512,0.891,15.642,8.594,22.203c0.176,0.149,0.358,0.295,0.539,0.44v41.103
		c-11.263-0.255-21.992-1.594-24.835-7.034C31.592,284.416,43.599,255.492,53.044,238.708z M53.033,213.593v17.449
		c-0.227-0.215-7.062-4.63-7.062-4.63L53.033,213.593z M49.836,327.505c-26.69,0-37.952-16.723-39.592-32.372
		c-2.466-23.532,13.989-55.171,20.49-66.599l12.203,7.81c-6.686,12.408-23.388,46.616-14.459,63.706
		c5.42,10.373,19.895,12.167,34.116,12.418c0.957,5.72,3.533,10.896,7.246,15.037H49.836z M107.817,327.505h-15.64
		c-11.027,0-20-8.973-20-20v-40.53c8.383,3.33,19.959,5.544,35.64,6.878V327.505z M134.971,331.847l-1.837,6.859h-13.48
		l-1.837-6.859V326.4h17.154V331.847z M134.971,316.4h-17.154v-12.364c0.275-0.831,3.278-2.965,8.576-2.965
		c5.329,0,8.341,2.16,8.578,2.919V316.4z M134.971,270.818c0,0.004-0.001,0.007-0.001,0.01c-0.001,0.01,0.002,0.019,0.001,0.027
		v21.591c-2.54-0.878-5.441-1.375-8.578-1.375c-3.138,0-6.036,0.497-8.576,1.375v-32.079h17.154V270.818z M136.427,250.367h-20.066
		l-5.975-17.027c0.346-8.143,6-12.614,16.009-12.614s15.663,4.471,16.009,12.614L136.427,250.367z M267.754,327.505H144.971v-51.221
		c17.32,0.71,37.468,1.057,61.393,1.057c23.922,0,44.068-0.347,61.39-1.057V327.505z M294.909,331.847l-1.837,6.859h-13.48
		l-1.837-6.859V326.4h17.154V331.847z M294.909,316.4h-17.154v-12.363c0.272-0.83,3.276-2.966,8.576-2.966
		c5.329,0,8.341,2.16,8.578,2.919V316.4z M294.909,292.446c-2.541-0.878-5.441-1.375-8.578-1.375c-3.137,0-6.036,0.497-8.576,1.375
		v-32.079h17.154V292.446z M296.365,250.367h-20.066l-5.975-17.027c0.346-8.143,5.999-12.614,16.009-12.614
		s15.663,4.471,16.009,12.614L296.365,250.367z M286.332,210.725c-15.81,0-26.025,9.192-26.025,23.418
		c0,0.563,0.096,1.124,0.282,1.655l7.165,20.42v10.058c-17.273,0.716-37.414,1.065-61.39,1.065c-23.979,0-44.121-0.35-61.393-1.065
		v-10.059l7.167-20.42c0.188-0.531,0.282-1.092,0.282-1.655c0-14.226-10.216-23.418-26.025-23.418s-26.025,9.192-26.025,23.418
		c0,0.563,0.095,1.124,0.282,1.655l7.165,20.42v7.592c-20.511-1.818-33.534-5.267-39.694-10.512
		c-4.853-4.135-5.09-8.984-5.09-17.201V129.858c0-11.028,8.973-20,20-20h246.662c11.028,0,20,8.972,20,20v106.239
		c0,0.005,0.002,0.011,0.002,0.016h-0.002c0,8.076-0.235,12.843-5.059,16.883c-6.121,5.127-19.156,8.65-39.727,10.741v-7.519
		l7.167-20.42c0.186-0.531,0.282-1.092,0.282-1.655C312.358,219.918,302.142,210.725,286.332,210.725z M340.541,307.712
		c-0.112,10.933-9.03,19.794-19.989,19.794h-15.643v-53.713c15.704-1.537,27.282-3.843,35.643-7.158
		C340.552,266.634,340.538,307.642,340.541,307.712z M402.453,295.133c-1.64,15.649-12.902,32.372-39.592,32.372h-19.973
		c3.712-4.142,6.288-9.318,7.245-15.037c14.211-0.254,28.669-2.052,34.085-12.418c8.93-17.09-7.773-51.298-14.459-63.706
		l12.205-7.811C388.469,239.952,404.922,271.565,402.453,295.133z"/>
</g>
<g>
</g>
<g>
</g>
<g>
</g>
<g>
</g>
<g>
</g>
<g>
</g>
<g>
</g>
<g>
</g>
<g>
</g>
<g>
</g>
<g>
</g>
<g>
</g>
<g>
</g>
<g>
</g>
<g>
</g>
</svg>
