<?xml version="1.0" encoding="iso-8859-1"?>
<!-- Generator: Adobe Illustrator 19.1.0, SVG Export Plug-In . SVG Version: 6.00 Build 0)  -->
<svg version="1.1" id="Capa_1" xmlns="http://www.w3.org/2000/svg" xmlns:xlink="http://www.w3.org/1999/xlink" x="0px" y="0px"
	 viewBox="0 0 375.655 375.655" style="enable-background:new 0 0 375.655 375.655;" xml:space="preserve">
<g>
	<path style="fill:#E3D282;" d="M244.525,161.161v-28.094c-1.109-0.052-2.224-0.101-3.352-0.141v28.235H244.525z"/>
	<path style="fill:#E3D282;" d="M131.129,161.161h3.352v-28.235c-1.128,0.04-2.242,0.09-3.352,0.141V161.161z"/>
	<path style="fill:#C7BEA8;" d="M275.65,191.859l-14.459,9.669c-0.853,0.571-1.819,0.845-2.775,0.845
		c-1.239,0-1.953-0.293-2.78-0.846l-14.463-9.667v110.886h34.477V191.859z"/>
	<polygon style="fill:#AB9E85;" points="275.65,171.161 241.173,171.161 241.173,179.83 258.411,191.357 275.65,179.83 	"/>
	<path style="fill:#E3D282;" d="M275.65,136.698c-1.094-0.218-2.216-0.424-3.352-0.624v25.087h3.352V136.698z"/>
	<path style="fill:#7E6F83;" d="M144.481,302.745h86.692v-170.01c-0.262-0.001-86.43-0.001-86.692,0V302.745z"/>
	<path style="fill:#E3D282;" d="M121.129,115.448c0-50.309,29.921-91.238,66.698-91.238c36.777,0,66.697,40.93,66.697,91.238v45.714
		h7.773v-45.714c0-54.475-33.407-98.793-74.471-98.793c-41.064,0-74.472,44.318-74.472,98.793v45.714h7.773V115.448z"/>
	<path style="fill:#C4573F;" d="M344.95,290.678c-14.993,18.148-25.867,22.067-61.234,22.067H91.94
		c-35.368,0-46.241-3.919-61.234-22.067c-7.328-8.869-14.921-12.646-19.937-14.252l8.111,68.455
		c2.504,13.562,14.019,14.102,15.328,14.119H341.47c1.286-0.017,12.801-0.557,15.305-14.119l8.116-68.503
		C359.906,277.953,352.358,281.711,344.95,290.678z"/>
	<path style="fill:#7E6F83;" d="M38.414,284.309c11.916,14.423,18.748,18.287,51.59,18.43V139.04
		c-47.977,13.031-55.963,43.118-60.475,60.125c-0.769,2.898-1.433,5.4-2.2,7.523c-5.075,14.035-13.359,46.9-16.31,59.427
		C17.52,267.68,28.291,272.056,38.414,284.309z"/>
	<path style="fill:#7E6F83;" d="M346.125,199.165c-4.512-17.008-12.499-47.094-60.475-60.125v163.699
		c32.843-0.143,39.675-4.006,51.591-18.43c10.123-12.253,20.895-16.629,27.396-18.194c-2.95-12.527-11.235-45.396-16.311-59.427
		C347.557,204.566,346.893,202.063,346.125,199.165z"/>
	<path style="fill:#C7BEA8;" d="M134.481,191.859l-14.459,9.669c0,0-1.298,0.845-2.784,0.845c-0.955,0-1.921-0.273-2.775-0.845
		l-14.459-9.668v110.886h34.477V191.859z"/>
	<polygon style="fill:#AB9E85;" points="134.481,179.83 134.481,171.161 100.004,171.161 100.004,179.83 117.242,191.357 	"/>
	<path style="fill:#E3D282;" d="M103.356,136.073c-1.135,0.2-2.258,0.405-3.352,0.624v24.464h3.352V136.073z"/>
	<path style="fill:#3F352F;" d="M370.656,215.353c2.143,0,4.125-1.389,4.781-3.545c0.804-2.642-0.686-5.436-3.327-6.239
		l-15.12-4.603c-0.38-1.295-0.771-2.752-1.199-4.364c-5.136-19.362-15.725-59.219-83.492-70.681v-10.474
		c0-59.988-37.894-108.793-84.471-108.793c-46.578,0-84.472,48.805-84.472,108.793v10.476C35.591,137.385,25,177.24,19.864,196.602
		c-0.428,1.612-0.819,3.069-1.199,4.364l-15.119,4.603c-2.642,0.804-4.131,3.598-3.327,6.239c0.656,2.156,2.638,3.545,4.781,3.545
		c0.482,0,0.973-0.07,1.458-0.218l8.441-2.569C9.231,231.18,1.504,261.813,0.197,268.879c-0.196,0.647-0.184,1.755-0.161,1.951
		c0,0,8.958,75.577,8.975,75.674C12.197,364.308,26.811,369,34.13,369h307.379c7.335,0,21.949-4.693,25.135-22.496
		c0.017-0.097,8.975-75.674,8.975-75.674c0.023-0.196-0.042-1.532-0.16-1.95c-1.306-7.065-9.035-37.7-14.703-56.315l8.442,2.57
		C369.683,215.282,370.173,215.353,370.656,215.353z M272.298,136.074c1.135,0.2,2.258,0.405,3.352,0.624v24.464h-3.352V136.074z
		 M131.129,123.052v-7.605c0-44.795,25.434-81.238,56.698-81.238c31.263,0,56.697,36.443,56.697,81.238v7.604
		C239.918,123.052,135.947,123.052,131.129,123.052z M231.173,132.736v170.01h-86.692v-170.01
		C144.743,132.735,230.911,132.735,231.173,132.736z M134.481,132.927v28.235h-3.352v-28.094
		C132.239,133.016,133.353,132.967,134.481,132.927z M244.525,133.067v28.094h-3.352v-28.235
		C242.301,132.966,243.416,133.015,244.525,133.067z M241.173,191.86l14.463,9.667c0.827,0.553,1.541,0.846,2.78,0.846
		c0.956,0,1.921-0.273,2.775-0.845l14.459-9.669v110.887h-34.477V191.86z M258.411,191.357l-17.238-11.526v-8.669h34.477v8.669
		L258.411,191.357z M113.356,115.448c0-54.475,33.408-98.793,74.472-98.793c41.063,0,74.471,44.318,74.471,98.793v45.714h-7.773
		v-45.714c0-50.309-29.92-91.238-66.697-91.238c-36.777,0-66.698,40.93-66.698,91.238v45.714h-7.773V115.448z M100.004,136.697
		c1.094-0.218,2.216-0.424,3.352-0.624v25.088h-3.352V136.697z M100.004,171.161h34.477v8.669l-17.238,11.526l-17.238-11.526
		V171.161z M100.004,191.86l14.459,9.668c0.854,0.571,1.819,0.845,2.775,0.845c1.486,0,2.784-0.845,2.784-0.845l14.459-9.669
		v110.887h-34.477V191.86z M27.329,206.688c0.767-2.122,1.432-4.625,2.2-7.523c4.512-17.008,12.499-47.094,60.475-60.125v163.699
		c-32.842-0.143-39.674-4.007-51.59-18.43c-10.123-12.253-20.895-16.629-27.395-18.194C13.97,253.588,22.254,220.723,27.329,206.688
		z M356.775,344.881c-2.504,13.562-14.019,14.102-15.305,14.119H34.208c-1.309-0.017-12.824-0.557-15.328-14.119l-8.111-68.455
		c5.016,1.606,12.609,5.383,19.937,14.252c14.993,18.148,25.867,22.067,61.234,22.067h191.775c35.368,0,46.241-3.919,61.234-22.067
		c7.409-8.967,14.957-12.725,19.942-14.3L356.775,344.881z M364.636,266.115c-6.501,1.565-17.273,5.941-27.396,18.194
		c-11.916,14.424-18.748,18.287-51.591,18.43V139.04c47.977,13.032,55.963,43.118,60.475,60.125c0.768,2.898,1.433,5.4,2.2,7.523
		C353.401,220.719,361.686,253.587,364.636,266.115z"/>
</g>
<g>
</g>
<g>
</g>
<g>
</g>
<g>
</g>
<g>
</g>
<g>
</g>
<g>
</g>
<g>
</g>
<g>
</g>
<g>
</g>
<g>
</g>
<g>
</g>
<g>
</g>
<g>
</g>
<g>
</g>
</svg>
