<?xml version="1.0" encoding="iso-8859-1"?>
<!-- Generator: Adobe Illustrator 19.1.0, SVG Export Plug-In . SVG Version: 6.00 Build 0)  -->
<svg version="1.1" id="Capa_1" xmlns="http://www.w3.org/2000/svg" xmlns:xlink="http://www.w3.org/1999/xlink" x="0px" y="0px"
	 viewBox="0 0 401.749 401.749" style="enable-background:new 0 0 401.749 401.749;" xml:space="preserve">
<g>
	<path style="fill:#C7BEA8;" d="M160.622,53.491c0.404,1.946-0.383,3.946-2.005,5.097l-15.601,11.055
		c3.779,16.552,22.298,93.21,50.213,136.721c-3.391-16.533-21.654-106.217-26.065-127.781c-5.963-29.152-7.314-47.026-6.334-58.298
		c-4.965,4.56-9.969,9.916-13.512,15.423c-0.008,0.012-0.014,0.023-0.021,0.035c-2.335,3.635-4.031,7.334-4.654,10.909l14.111,2.964
		C158.699,50.023,160.217,51.545,160.622,53.491z"/>
	<path style="fill:#C7BEA8;" d="M227.592,10h-53.434c-1.541,1.666-3.504,5.913-3.607,16.627h60.65
		C231.101,15.902,229.133,11.666,227.592,10z"/>
	<path style="fill:#C7BEA8;" d="M92.355,378.324c0.06-0.457,5.5-41.965,15.707-80.471c-0.996-9.046-7.426-74.014,8.969-109.662
		c-3.137-24.322-30.053-124.088-30.053-124.088c-5.393,9.583-13.426,33.01-13.426,87.536c0,18.345-1.484,39.529-2.921,60.016
		c-1.42,20.254-2.761,39.385-2.761,55.723c0,28.654,2.106,103.773,2.691,124.068l33.709-1.746v-3.195
		c-4.936-1.568-8.121-2.652-8.575-2.808C93.447,382.928,92.05,380.682,92.355,378.324z"/>
	<path style="fill:#C7BEA8;" d="M258.735,69.643l-15.601-11.055c-1.622-1.15-2.409-3.15-2.005-5.097
		c0.404-1.946,1.923-3.468,3.868-3.876l14.112-2.964c-1.564-9.021-9.936-18.81-18.19-26.382c0.982,11.27-0.368,29.148-6.334,58.312
		c-4.37,21.365-22.64,111.083-26.058,127.752C236.457,162.79,254.96,86.186,258.735,69.643z"/>
	<path style="fill:#C7BEA8;" d="M120.242,210.802c-4.156,19.145-4.566,41.911-4,59.336
		C120.431,255.6,123.329,239.732,120.242,210.802z"/>
	<path style="fill:#C7BEA8;" d="M190.046,266.444c-8.074,0-14.643-6.569-14.643-14.645c0-8.075,6.568-14.645,14.643-14.645
		c3.374,0,6.477,1.158,8.955,3.083c-0.379-3.932-0.854-7.827-1.439-11.652c-39.859-43.352-64.023-155.273-65.041-160.06
		c-0.416-1.952,0.371-3.966,2-5.12l8.973-6.357l-7.109-1.494c-2.215-0.465-3.841-2.358-3.965-4.617
		c-0.166-3.015,0.227-6.02,1.049-8.975L95.359,56.611l19.664,75.468c32.043,110.827,8.059,149.94,8.041,149.995l35.238-2.786
		c2.752-0.219,5.162,1.838,5.379,4.591c0.218,2.752-1.838,5.16-4.59,5.378l-39.138,3.094c-9.495,32.986-15.35,70.879-17.115,83.179
		c10.89,3.549,42.149,13.322,63.309,15.772c16.958,1.968,20.456-8.69,20.824-10.025l6.644-38.103
		c0.107-0.57,7.273-39.533,6.586-80.846C197.566,264.871,193.989,266.444,190.046,266.444z"/>
	<path style="fill:#C7BEA8;" d="M281.507,210.799c-3.086,28.922-0.189,44.79,3.999,59.326
		C286.071,252.7,285.659,229.935,281.507,210.799z"/>
	<path style="fill:#C7BEA8;" d="M281.797,292.351l-39.137-3.094c-2.753-0.218-4.809-2.626-4.591-5.378
		c0.218-2.754,2.643-4.812,5.378-4.591l35.238,2.785c-0.017-0.055-23.605-41.608,8.032-149.958l19.674-75.504l-38.11-14.649
		c0.821,2.955,1.216,5.959,1.05,8.974c-0.124,2.259-1.75,4.153-3.965,4.618l-7.109,1.494l8.973,6.357
		c1.629,1.154,2.415,3.168,2,5.12c-0.974,4.576-23.98,111.174-62.073,156.68c6.17,37.682,1.911,81.161-1.222,103.977
		c1.194,8.588,2.178,13.875,2.188,13.929l6.689,38.359c0.246,1.26,2.979,12.568,20.607,9.855c21.117-3.246,52.44-12.51,63.48-15.881
		C297.122,363.057,291.271,325.262,281.797,292.351z"/>
	<path style="fill:#C7BEA8;" d="M328.197,151.64c0-54.522-8.032-77.95-13.424-87.535c0,0-18.219,63.864-30.054,124.085
		c16.395,35.646,9.968,100.611,8.97,109.662c10.207,38.507,15.647,80.016,15.707,80.473c0.311,2.399-1.142,4.677-3.447,5.408
		c-0.451,0.142-3.597,1.137-8.469,2.598v3.37l33.709,1.746c0.585-20.295,2.69-95.415,2.69-124.068
		c0-16.338-1.341-35.469-2.761-55.723C329.682,191.169,328.197,169.984,328.197,151.64z"/>
	<path style="fill:#7E6F83;" d="M230.845,36.627h-59.942c0.701,9.605,2.494,22.537,6.057,39.951
		c4.412,21.566,20.898,102.52,23.915,117.277c3.05-14.915,19.543-95.91,23.913-117.277C228.35,59.164,230.145,46.232,230.845,36.627
		z"/>
	<path style="fill:#AB9E85;" d="M185.404,251.8c0,2.561,2.082,4.645,4.643,4.645c2.561,0,4.645-2.084,4.645-4.645
		c0-2.561-2.084-4.645-4.645-4.645C187.486,247.155,185.404,249.239,185.404,251.8z"/>
	<path style="fill:#3F352F;" d="M338.197,151.64c0-89.053-21.308-101.503-23.736-102.629l-52.574-20.219
		c-9.996-14.735-26.77-26.192-29.437-27.96c-0.852-0.564-1.812-0.83-2.762-0.829V0h-0.033c-0.005,0-0.01,0-0.015,0h-57.577
		c-0.982,0-1.943,0.289-2.762,0.832c-2.668,1.768-19.441,13.225-29.438,27.961L87.291,49.011
		c-2.43,1.126-23.738,13.576-23.738,102.629c0,17.995-1.473,39.001-2.896,59.316c-1.432,20.434-2.785,39.734-2.785,56.422
		c0,33.25,2.815,128.516,2.844,129.475c0.04,1.345,0.62,2.616,1.609,3.528c0.926,0.853,2.136,1.323,3.389,1.323
		c0.086,0,43.817-2.263,43.817-2.263c2.657-0.138,4.741-2.332,4.741-4.993v-4.864c14.599,4.356,34.999,9.83,50.726,11.651
		c1.779,0.206,3.468,0.303,5.075,0.303c17.486,0,25.061-11.439,26.651-18.036c0.025-0.105,4.151-23.748,4.151-23.748l4.083,23.416
		c1.179,6.905,7.978,18.579,25.261,18.579c2.084,0,4.323-0.17,6.721-0.538c15.592-2.397,35.968-7.785,50.541-11.953v5.19
		c0,2.661,2.084,4.855,4.741,4.993c0,0,43.732,2.263,43.817,2.263c1.253,0,2.463-0.471,3.389-1.323
		c0.989-0.912,1.569-2.184,1.609-3.528c0.028-0.959,2.842-96.225,2.842-129.475c0-16.687-1.353-35.988-2.785-56.422
		C339.669,190.641,338.197,169.635,338.197,151.64z M234.585,78.582c5.966-29.164,7.316-47.043,6.334-58.312
		c8.255,7.572,16.627,17.361,18.19,26.382l-14.112,2.964c-1.945,0.408-3.464,1.93-3.868,3.876c-0.404,1.946,0.383,3.946,2.005,5.097
		l15.601,11.055c-3.774,16.543-22.278,93.147-50.207,136.691C211.946,189.665,230.215,99.947,234.585,78.582z M174.158,10h53.434
		c1.541,1.666,3.509,5.902,3.609,16.627h-60.65C170.654,15.913,172.617,11.666,174.158,10z M147.296,35.742
		c0.008-0.012,0.014-0.023,0.021-0.035c3.543-5.507,8.547-10.863,13.512-15.423c-0.98,11.271,0.371,29.145,6.334,58.298
		c4.411,21.564,22.675,111.248,26.065,127.781c-27.915-43.511-46.434-120.169-50.213-136.721l15.601-11.055
		c1.622-1.15,2.409-3.15,2.005-5.097c-0.404-1.946-1.923-3.468-3.868-3.876l-14.111-2.964
		C143.265,43.076,144.962,39.377,147.296,35.742z M104.271,389.7l-33.709,1.746c-0.585-20.295-2.691-95.414-2.691-124.068
		c0-16.338,1.341-35.469,2.761-55.723c1.437-20.486,2.921-41.671,2.921-60.016c0-54.526,8.033-77.953,13.426-87.536
		c0,0,26.916,99.766,30.053,124.088c-16.395,35.648-9.965,100.616-8.969,109.662c-10.207,38.506-15.647,80.014-15.707,80.471
		c-0.305,2.357,1.092,4.603,3.341,5.373c0.454,0.155,3.64,1.239,8.575,2.808V389.7z M120.242,210.802
		c3.087,28.931,0.189,44.798-4,59.336C115.675,252.713,116.086,229.947,120.242,210.802z M193.615,343.174l-6.644,38.103
		c-0.368,1.335-3.866,11.993-20.824,10.025c-21.159-2.45-52.419-12.224-63.309-15.772c1.765-12.3,7.62-50.192,17.115-83.179
		l39.138-3.094c2.752-0.218,4.808-2.626,4.59-5.378c-0.217-2.753-2.627-4.81-5.379-4.591l-35.238,2.786
		c0.018-0.055,24.002-39.168-8.041-149.995L95.359,56.611l38.109-14.649c-0.822,2.955-1.215,5.96-1.049,8.975
		c0.124,2.259,1.75,4.152,3.965,4.617l7.109,1.494l-8.973,6.357c-1.629,1.154-2.416,3.168-2,5.12
		c1.018,4.786,25.182,116.708,65.041,160.06c0.586,3.825,1.061,7.721,1.439,11.652c-2.479-1.925-5.581-3.083-8.955-3.083
		c-8.074,0-14.643,6.569-14.643,14.645c0,8.075,6.568,14.645,14.643,14.645c3.942,0,7.52-1.573,10.154-4.116
		C200.888,303.641,193.722,342.604,193.615,343.174z M194.691,251.8c0,2.561-2.084,4.645-4.645,4.645
		c-2.561,0-4.643-2.084-4.643-4.645c0-2.561,2.082-4.645,4.643-4.645C192.607,247.155,194.691,249.239,194.691,251.8z
		 M200.876,193.855c-3.017-14.757-19.503-95.711-23.915-117.277c-3.562-17.414-5.355-30.346-6.057-39.951h59.942
		c-0.7,9.605-2.495,22.537-6.057,39.951C220.419,97.945,203.925,178.941,200.876,193.855z M235.419,391.326
		c-17.629,2.713-20.361-8.596-20.607-9.855l-6.689-38.359c-0.01-0.054-0.993-5.341-2.188-13.929
		c3.133-22.816,7.392-66.295,1.222-103.977c38.094-45.506,61.1-152.104,62.073-156.68c0.415-1.952-0.371-3.966-2-5.12l-8.973-6.357
		l7.109-1.494c2.215-0.465,3.841-2.359,3.965-4.618c0.166-3.015-0.229-6.019-1.05-8.974l38.11,14.649l-19.674,75.504
		c-31.638,108.35-8.049,149.903-8.032,149.958l-35.238-2.785c-2.735-0.222-5.16,1.837-5.378,4.591
		c-0.218,2.752,1.838,5.16,4.591,5.378l39.137,3.094c9.474,32.911,15.324,70.706,17.103,83.095
		C287.86,378.816,256.537,388.08,235.419,391.326z M281.507,210.799c4.151,19.136,4.563,41.901,3.999,59.326
		C281.318,255.589,278.421,239.721,281.507,210.799z M331.189,391.446L297.48,389.7v-3.37c4.872-1.461,8.018-2.455,8.469-2.598
		c2.306-0.732,3.758-3.009,3.447-5.408c-0.06-0.457-5.5-41.966-15.707-80.473c0.998-9.051,7.425-74.017-8.97-109.662
		c11.835-60.221,30.054-124.085,30.054-124.085c5.392,9.585,13.424,33.013,13.424,87.535c0,18.345,1.485,39.529,2.921,60.016
		c1.42,20.254,2.761,39.385,2.761,55.723C333.879,296.031,331.774,371.151,331.189,391.446z"/>
</g>
<g>
</g>
<g>
</g>
<g>
</g>
<g>
</g>
<g>
</g>
<g>
</g>
<g>
</g>
<g>
</g>
<g>
</g>
<g>
</g>
<g>
</g>
<g>
</g>
<g>
</g>
<g>
</g>
<g>
</g>
</svg>
