<?xml version="1.0" encoding="iso-8859-1"?>
<!-- Generator: Adobe Illustrator 19.1.0, SVG Export Plug-In . SVG Version: 6.00 Build 0)  -->
<svg version="1.1" id="Capa_1" xmlns="http://www.w3.org/2000/svg" xmlns:xlink="http://www.w3.org/1999/xlink" x="0px" y="0px"
	 viewBox="0 0 393.59 393.59" style="enable-background:new 0 0 393.59 393.59;" xml:space="preserve">
<g>
	<path style="fill:#D68E7E;" d="M121.463,49.715c-8.353,3.76-14.463,5.494-18.326,6.291c0.071,15.578,0.529,28.439,1.215,39.348
		C108.98,76.853,116.011,60.652,121.463,49.715z"/>
	<path style="fill:#D68E7E;" d="M157.585,329.076c-0.981-2.721-2.796-4.5-5.137-6.771c-4.551-4.416-10.214-9.912-10.214-23.469
		c0-6.359,3.978-12.197,8.189-18.379c3.922-5.758,7.977-11.711,7.977-17.203c0-3.883-3.5-9.027-6.884-14.002
		c-4.352-6.396-9.282-13.645-9.282-21.578c0-7.256,4.482-13.848,8.818-20.221c3.612-5.312,7.348-10.805,7.348-15.363
		c0-4.393-3.678-9.801-7.234-15.031c-4.392-6.457-8.932-13.133-8.932-20.555c0-7.695,4.637-14.514,9.121-21.105
		c3.463-5.092,7.045-10.357,7.045-14.473c0-4.959-3.874-10.654-7.62-16.16c-4.201-6.174-8.546-12.561-8.546-19.42
		c0-8.902,5.276-16.637,9.932-23.459c2.596-3.803,5.258-7.711,6.015-10.631c-3.259-4.473-5.668-8.877-7.427-12.67
		c-7.067,20.033-20.787,84.836-20.954,286.105C139.059,326.799,148.64,328.186,157.585,329.076z"/>
	<path style="fill:#C7BEA8;" d="M188.614,63.314l-6.688-18.283c-3.943-2.234-11.402-8.188-11.402-21.232
		c0-5.463-1.037-9.631-2.934-11.885c-2.137,7.369-7.188,13.076-10.342,16.08C159.684,35.285,167.915,54.623,188.614,63.314z"/>
	<path style="fill:#C7BEA8;" d="M101.545,314.672c5.448,2.986,11.672,5.412,18.26,7.396c0.166-113.32,4.801-200.394,13.436-252.045
		c2.241-13.408,4.513-23.082,6.629-30.076c-0.863,0.521-1.713,1.025-2.549,1.514c-4.508,7.609-32.425,56.959-27.199,102.893
		c2.01,12.572,3.689,23.797,3.689,40.033c0,26.145-17.272,104.539-17.67,106.109C92.782,303.742,91.806,309.33,101.545,314.672z"/>
	<path style="fill:#C7BEA8;" d="M152.234,298.836c0,9.326,3.168,12.4,7.178,16.293c3.388,3.287,7.462,7.268,8.64,14.805
		c3.609,0.236,7.018,0.398,10.15,0.508c-0.818-3.543-2.832-5.502-5.547-8.137c-4.551-4.416-10.213-9.912-10.213-23.469
		c0-6.359,3.977-12.197,8.188-18.379c3.922-5.758,7.979-11.711,7.979-17.203c0-3.883-3.5-9.027-6.885-14.002
		c-4.352-6.396-9.281-13.645-9.281-21.578c0-7.256,4.482-13.848,8.818-20.221c3.611-5.312,7.348-10.805,7.348-15.363
		c0-4.393-3.678-9.801-7.234-15.031c-4.393-6.457-8.932-13.133-8.932-20.555c0-7.695,4.637-14.514,9.121-21.105
		c3.463-5.092,7.045-10.357,7.045-14.473c0-4.959-3.875-10.654-7.621-16.16c-4.201-6.174-8.545-12.561-8.545-19.42
		c0-7.857,4.109-14.803,8.273-21.014c-1.906-1.496-3.668-3.064-5.303-4.674c-1.408,2.6-3.168,5.199-4.987,7.865
		c-4.027,5.902-8.191,12.006-8.191,17.822c0,3.781,3.464,8.871,6.814,13.795c4.385,6.443,9.354,13.746,9.354,21.785
		c0,7.193-4.463,13.754-8.777,20.098c-3.633,5.34-7.39,10.863-7.39,15.48c0,4.344,3.66,9.727,7.2,14.932
		c4.408,6.48,8.967,13.182,8.967,20.654c0,7.639-4.617,14.424-9.08,20.986c-3.484,5.123-7.087,10.42-7.087,14.598
		c0,4.855,3.838,10.496,7.55,15.953c4.236,6.227,8.617,12.664,8.617,19.627c0,8.576-5.16,16.15-9.714,22.834
		C155.514,290.744,152.234,295.559,152.234,298.836z"/>
	<path style="fill:#D68E7E;" d="M102.166,326.154c-2.191,7.783-5.973,23.852-7.724,46.973c3.112,2.176,19.792,10.123,97.352,10.451
		l0.004-42.936C191.171,340.646,141.762,340.791,102.166,326.154z"/>
	<path style="fill:#D68E7E;" d="M58.402,76.58c5.822,7.836,22.593,30.498,39.506,54.242c-2.347-16.398-4.556-37.98-4.764-73.615
		C85.021,58.443,68.91,62.607,58.402,76.58z"/>
	<path style="fill:#D68E7E;" d="M172.442,85.346c0,3.781,3.463,8.871,6.812,13.795c4.385,6.443,9.354,13.746,9.354,21.785
		c0,7.193-4.463,13.754-8.777,20.098c-3.633,5.34-7.389,10.863-7.389,15.48c0,4.344,3.66,9.727,7.199,14.932
		c4.408,6.48,8.967,13.182,8.967,20.654c0,7.639-4.617,14.424-9.08,20.986c-3.484,5.123-7.086,10.42-7.086,14.598
		c0,4.855,3.838,10.496,7.549,15.953c4.236,6.227,8.617,12.664,8.617,19.627c0,8.576-5.16,16.15-9.713,22.834
		c-3.174,4.656-6.453,9.471-6.453,12.748c0,9.326,3.168,12.4,7.178,16.293c3.49,3.389,7.703,7.521,8.732,15.518
		c0.488,0.002,2.822,0,3.441-0.004V75.025c-4.691-1.336-8.912-3.117-12.723-5.199C175.598,75.002,172.442,80.283,172.442,85.346z"/>
	<path style="fill:#D68E7E;" d="M300.446,57.207c-0.209,35.633-2.418,57.217-4.764,73.615
		c16.914-23.744,33.684-46.408,39.506-54.242C324.682,62.607,308.569,58.443,300.446,57.207z"/>
	<path style="fill:#D68E7E;" d="M201.798,340.643l-0.004,42.938c77.568-0.328,94.242-8.277,97.354-10.453
		c-1.75-23.123-5.531-39.191-7.723-46.973C253.891,341.866,202.423,340.646,201.798,340.643z"/>
	<path style="fill:#C7BEA8;" d="M283.47,144.353c5.225-45.933-22.691-95.283-27.199-102.893c-0.838-0.488-1.688-0.994-2.551-1.514
		c2.115,6.992,4.389,16.666,6.631,30.076c8.635,51.65,13.27,138.725,13.436,252.045c6.588-1.984,12.811-4.41,18.26-7.396
		c9.738-5.342,8.762-10.93,5.404-24.176c-0.398-1.57-17.67-79.98-17.67-106.109C279.78,168.15,281.46,156.926,283.47,144.353z"/>
	<path style="fill:#D68E7E;" d="M289.237,95.385c0.686-10.914,1.145-23.785,1.217-39.379c-3.863-0.797-9.975-2.531-18.328-6.291
		C277.581,60.656,284.608,76.873,289.237,95.385z"/>
	<path style="fill:#C7BEA8;" d="M236.341,27.994c-3.152-3.004-8.205-8.711-10.34-16.08c-1.896,2.252-2.934,6.432-2.934,11.885
		c0,13.045-7.461,18.998-11.404,21.232l-6.688,18.283C225.671,54.625,233.901,35.295,236.341,27.994z"/>
	<path style="fill:#D68E7E;" d="M205.237,330.646c1.025-7.998,5.242-12.131,8.734-15.518c4.01-3.893,7.178-6.967,7.178-16.293
		c0-3.277-3.281-8.092-6.453-12.748c-4.553-6.684-9.713-14.258-9.713-22.834c0-6.963,4.379-13.4,8.615-19.627
		c3.713-5.457,7.551-11.098,7.551-15.953c0-4.178-3.604-9.475-7.088-14.598c-4.463-6.562-9.078-13.348-9.078-20.986
		c0-7.473,4.557-14.174,8.965-20.654c3.541-5.205,7.201-10.588,7.201-14.932c0-4.617-3.758-10.141-7.391-15.48
		c-4.314-6.344-8.775-12.904-8.775-20.098c0-8.039,4.969-15.342,9.352-21.785c3.35-4.924,6.814-10.014,6.814-13.795
		c0-5.064-3.156-10.344-6.629-15.52c-3.811,2.08-8.031,3.863-12.723,5.199v255.617C202.417,330.646,204.749,330.648,205.237,330.646
		z"/>
	<path style="fill:#C7BEA8;" d="M220.934,322.305c-2.711,2.631-4.719,4.598-5.539,8.137c3.131-0.109,6.535-0.271,10.139-0.508
		c1.18-7.535,5.256-11.518,8.645-14.805c4.01-3.893,7.178-6.967,7.178-16.293c0-3.277-3.281-8.092-6.453-12.748
		c-4.553-6.684-9.713-14.258-9.713-22.834c0-6.963,4.379-13.4,8.615-19.627c3.713-5.457,7.551-11.098,7.551-15.953
		c0-4.178-3.604-9.475-7.088-14.598c-4.463-6.562-9.078-13.348-9.078-20.986c0-7.473,4.557-14.174,8.965-20.654
		c3.541-5.205,7.201-10.588,7.201-14.932c0-4.617-3.758-10.141-7.391-15.48c-4.314-6.344-8.775-12.904-8.775-20.098
		c0-8.039,4.969-15.342,9.352-21.785c3.35-4.924,6.814-10.014,6.814-13.795c0-5.816-4.164-11.92-8.191-17.822
		c-1.818-2.664-3.584-5.262-4.994-7.858c-1.633,1.607-3.391,3.172-5.295,4.666c4.164,6.213,8.273,13.156,8.273,21.014
		c0,6.859-4.344,13.246-8.547,19.42c-3.746,5.506-7.619,11.201-7.619,16.16c0,4.115,3.582,9.381,7.045,14.473
		c4.484,6.592,9.121,13.41,9.121,21.105c0,7.422-4.541,14.098-8.932,20.555c-3.557,5.23-7.234,10.639-7.234,15.031
		c0,4.559,3.734,10.051,7.348,15.363c4.336,6.373,8.818,12.965,8.818,20.221c0,7.934-4.932,15.182-9.281,21.578
		c-3.385,4.975-6.885,10.119-6.885,14.002c0,5.492,4.055,11.445,7.977,17.203c4.211,6.182,8.189,12.02,8.189,18.379
		C231.149,312.393,225.485,317.889,220.934,322.305z"/>
	<path style="fill:#D68E7E;" d="M241.425,61.887c4.654,6.822,9.932,14.557,9.932,23.459c0,6.859-4.346,13.246-8.547,19.42
		c-3.746,5.506-7.619,11.201-7.619,16.16c0,4.115,3.582,9.381,7.045,14.473c4.484,6.592,9.121,13.41,9.121,21.105
		c0,7.422-4.541,14.098-8.932,20.555c-3.557,5.23-7.234,10.639-7.234,15.031c0,4.559,3.734,10.051,7.348,15.363
		c4.336,6.373,8.818,12.965,8.818,20.221c0,7.934-4.932,15.182-9.283,21.578c-3.383,4.975-6.883,10.119-6.883,14.002
		c0,5.492,4.055,11.445,7.977,17.203c4.211,6.182,8.189,12.02,8.189,18.379c0,13.557-5.664,19.053-10.215,23.469
		c-2.342,2.273-4.16,4.051-5.143,6.771c8.945-0.891,18.529-2.275,27.791-4.385c-0.121-143.932-7.285-217.016-13.303-253.02
		c-2.777-16.615-5.57-26.895-7.676-33.029c-1.758,3.779-4.158,8.162-7.402,12.613C236.167,54.176,238.829,58.084,241.425,61.887z"/>
	<path style="fill:#3F352F;" d="M295.557,46.689c-0.537-0.027-17.385-1.119-50.553-24.377c-0.855-0.682-10.008-8.184-10.008-17.305
		c0-2.582-1.967-4.74-4.537-4.978c-0.59-0.053-5.896-0.412-10.621,3.895c-4.494,4.094-6.771,10.781-6.771,19.875
		c0,9.906-6.398,12.654-7.057,12.908c-1.416,0.494-2.535,1.598-3.049,3.004l-6.166,16.859l-6.166-16.859
		c-0.516-1.406-1.635-2.51-3.051-3.004c-0.07-0.023-7.055-2.578-7.055-12.908c0-9.094-2.279-15.781-6.771-19.875
		c-4.727-4.307-10.031-3.947-10.623-3.895c-2.57,0.238-4.536,2.397-4.536,4.978c0,9.125-9.166,16.633-10.013,17.307
		c-33.542,23.52-50.404,24.369-50.513,24.373h-0.005c-1.342,0.018-33.06,0.723-50.03,27.309c-1.119,1.754-1.036,4.016,0.21,5.684
		c0.292,0.391,29.227,39.139,53.109,73.371c1.414,9.516,2.458,18.945,2.458,31.336c0,26.508-16.979,102.133-17.363,103.65
		c-3.005,11.852-6.09,24.07,6.73,33.174c-2.267,7.486-6.914,25.545-8.837,52.957c-0.003,0.041-0.006,0.084-0.008,0.125
		c-0.046,1.023,0.188,3.062,2.268,5.236c11.114,11.621,66.056,14.061,110.193,14.061c0,0,0,0,0.002,0c0,0,0,0,0.002,0
		c44.137,0,99.078-2.44,110.191-14.061c2.08-2.174,2.314-4.213,2.268-5.236c-0.002-0.041-6.578-45.602-8.844-53.08
		c12.82-9.105,9.734-21.324,6.73-33.176c-0.385-1.518-17.363-77.158-17.363-103.65c0-12.391,1.043-21.82,2.457-31.336
		c23.883-34.232,52.818-72.98,53.109-73.371c1.246-1.668,1.33-3.93,0.211-5.684C328.665,47.529,297.163,46.713,295.557,46.689z
		 M58.402,76.58C68.91,62.607,85.021,58.443,93.144,57.207c0.208,35.635,2.417,57.217,4.764,73.615
		C80.995,107.078,64.224,84.416,58.402,76.58z M191.794,75.025v255.617c-0.619,0.004-2.953,0.006-3.441,0.004
		c-1.029-7.996-5.242-12.129-8.732-15.518c-4.01-3.893-7.178-6.967-7.178-16.293c0-3.277,3.279-8.092,6.453-12.748
		c4.553-6.684,9.713-14.258,9.713-22.834c0-6.963-4.381-13.4-8.617-19.627c-3.711-5.457-7.549-11.098-7.549-15.953
		c0-4.178,3.602-9.475,7.086-14.598c4.463-6.562,9.08-13.348,9.08-20.986c0-7.473-4.559-14.174-8.967-20.654
		c-3.539-5.205-7.199-10.588-7.199-14.932c0-4.617,3.756-10.141,7.389-15.48c4.314-6.344,8.777-12.904,8.777-20.098
		c0-8.039-4.969-15.342-9.354-21.785c-3.35-4.924-6.812-10.014-6.812-13.795c0-5.062,3.156-10.344,6.629-15.52
		C182.882,71.908,187.102,73.689,191.794,75.025z M159.784,243.627c-3.712-5.457-7.55-11.098-7.55-15.953
		c0-4.178,3.603-9.475,7.087-14.598c4.463-6.562,9.08-13.348,9.08-20.986c0-7.473-4.559-14.174-8.967-20.654
		c-3.54-5.205-7.2-10.588-7.2-14.932c0-4.617,3.757-10.141,7.39-15.48c4.314-6.344,8.777-12.904,8.777-20.098
		c0-8.039-4.969-15.342-9.354-21.785c-3.35-4.924-6.814-10.014-6.814-13.795c0-5.816,4.164-11.92,8.191-17.822
		c1.819-2.666,3.579-5.266,4.987-7.865c1.635,1.609,3.396,3.178,5.303,4.674c-4.164,6.211-8.273,13.156-8.273,21.014
		c0,6.859,4.344,13.246,8.545,19.42c3.746,5.506,7.621,11.201,7.621,16.16c0,4.115-3.582,9.381-7.045,14.473
		c-4.484,6.592-9.121,13.41-9.121,21.105c0,7.422,4.539,14.098,8.932,20.555c3.557,5.23,7.234,10.639,7.234,15.031
		c0,4.559-3.736,10.051-7.348,15.363c-4.336,6.373-8.818,12.965-8.818,20.221c0,7.934,4.93,15.182,9.281,21.578
		c3.385,4.975,6.885,10.119,6.885,14.002c0,5.492-4.057,11.445-7.979,17.203c-4.211,6.182-8.188,12.02-8.188,18.379
		c0,13.557,5.662,19.053,10.213,23.469c2.715,2.635,4.729,4.594,5.547,8.137c-3.133-0.109-6.541-0.271-10.15-0.508
		c-1.178-7.537-5.252-11.518-8.64-14.805c-4.01-3.893-7.178-6.967-7.178-16.293c0-3.277,3.28-8.092,6.453-12.748
		c4.554-6.684,9.714-14.258,9.714-22.834C168.401,256.291,164.02,249.853,159.784,243.627z M167.591,11.914
		c1.896,2.254,2.934,6.422,2.934,11.885c0,13.045,7.459,18.998,11.402,21.232l6.688,18.283c-20.699-8.691-28.93-28.029-31.365-35.32
		C160.402,24.99,165.454,19.283,167.591,11.914z M150.754,38.586c1.759,3.793,4.168,8.197,7.427,12.67
		c-0.757,2.92-3.419,6.828-6.015,10.631c-4.655,6.822-9.932,14.557-9.932,23.459c0,6.859,4.345,13.246,8.546,19.42
		c3.746,5.506,7.62,11.201,7.62,16.16c0,4.115-3.582,9.381-7.045,14.473c-4.484,6.592-9.121,13.41-9.121,21.105
		c0,7.422,4.54,14.098,8.932,20.555c3.557,5.23,7.234,10.639,7.234,15.031c0,4.559-3.735,10.051-7.348,15.363
		c-4.336,6.373-8.818,12.965-8.818,20.221c0,7.934,4.931,15.182,9.282,21.578c3.384,4.975,6.884,10.119,6.884,14.002
		c0,5.492-4.056,11.445-7.977,17.203c-4.211,6.182-8.189,12.02-8.189,18.379c0,13.557,5.663,19.053,10.214,23.469
		c2.341,2.271,4.155,4.051,5.137,6.771c-8.944-0.891-18.525-2.277-27.785-4.385C129.967,123.422,143.686,58.619,150.754,38.586z
		 M103.136,56.006c3.863-0.797,9.974-2.531,18.326-6.291c-5.452,10.938-12.482,27.139-17.111,45.639
		C103.666,84.445,103.208,71.584,103.136,56.006z M96.14,290.496c0.397-1.57,17.67-79.965,17.67-106.109
		c0-16.236-1.68-27.461-3.689-40.033C104.895,98.42,132.812,49.07,137.32,41.461c0.836-0.488,1.686-0.992,2.549-1.514
		c-2.116,6.994-4.388,16.668-6.629,30.076c-8.635,51.65-13.27,138.725-13.436,252.045c-6.588-1.984-12.812-4.41-18.26-7.396
		C91.806,309.33,92.782,303.742,96.14,290.496z M191.794,383.578c-77.56-0.328-94.239-8.275-97.352-10.451
		c1.751-23.121,5.532-39.19,7.724-46.973c39.597,14.637,89.005,14.492,89.632,14.488L191.794,383.578z M242.811,38.643
		c2.105,6.135,4.898,16.414,7.676,33.029c6.018,36.004,13.182,109.088,13.303,253.02c-9.262,2.109-18.846,3.494-27.791,4.385
		c0.982-2.721,2.801-4.498,5.143-6.771c4.551-4.416,10.215-9.912,10.215-23.469c0-6.359-3.979-12.197-8.189-18.379
		c-3.922-5.758-7.977-11.711-7.977-17.203c0-3.883,3.5-9.027,6.883-14.002c4.352-6.396,9.283-13.645,9.283-21.578
		c0-7.256-4.482-13.848-8.818-20.221c-3.613-5.312-7.348-10.805-7.348-15.363c0-4.393,3.678-9.801,7.234-15.031
		c4.391-6.457,8.932-13.133,8.932-20.555c0-7.695-4.637-14.514-9.121-21.105c-3.463-5.092-7.045-10.357-7.045-14.473
		c0-4.959,3.873-10.654,7.619-16.16c4.201-6.174,8.547-12.561,8.547-19.42c0-8.902-5.277-16.637-9.932-23.459
		c-2.596-3.803-5.258-7.711-6.016-10.631C238.653,46.805,241.053,42.422,242.811,38.643z M222.96,280.457
		c-3.922-5.758-7.977-11.711-7.977-17.203c0-3.883,3.5-9.027,6.885-14.002c4.35-6.396,9.281-13.645,9.281-21.578
		c0-7.256-4.482-13.848-8.818-20.221c-3.613-5.312-7.348-10.805-7.348-15.363c0-4.393,3.678-9.801,7.234-15.031
		c4.391-6.457,8.932-13.133,8.932-20.555c0-7.695-4.637-14.514-9.121-21.105c-3.463-5.092-7.045-10.357-7.045-14.473
		c0-4.959,3.873-10.654,7.619-16.16c4.203-6.174,8.547-12.561,8.547-19.42c0-7.857-4.109-14.801-8.273-21.014
		c1.904-1.494,3.662-3.059,5.295-4.666c1.41,2.596,3.176,5.193,4.994,7.858c4.027,5.902,8.191,12.006,8.191,17.822
		c0,3.781-3.465,8.871-6.814,13.795c-4.383,6.443-9.352,13.746-9.352,21.785c0,7.193,4.461,13.754,8.775,20.098
		c3.633,5.34,7.391,10.863,7.391,15.48c0,4.344-3.66,9.727-7.201,14.932c-4.408,6.48-8.965,13.182-8.965,20.654
		c0,7.639,4.615,14.424,9.078,20.986c3.484,5.123,7.088,10.42,7.088,14.598c0,4.855-3.838,10.496-7.551,15.953
		c-4.236,6.227-8.615,12.664-8.615,19.627c0,8.576,5.16,16.15,9.713,22.834c3.172,4.656,6.453,9.471,6.453,12.748
		c0,9.326-3.168,12.4-7.178,16.293c-3.389,3.287-7.465,7.27-8.645,14.805c-3.604,0.236-7.008,0.398-10.139,0.508
		c0.82-3.539,2.828-5.506,5.539-8.137c4.551-4.416,10.215-9.912,10.215-23.469C231.149,292.477,227.171,286.639,222.96,280.457z
		 M211.663,45.031c3.943-2.234,11.404-8.188,11.404-21.232c0-5.453,1.037-9.633,2.934-11.885c2.135,7.369,7.188,13.076,10.34,16.08
		c-2.439,7.301-10.67,26.631-31.365,35.32L211.663,45.031z M201.798,75.025c4.691-1.336,8.912-3.119,12.723-5.199
		c3.473,5.176,6.629,10.455,6.629,15.52c0,3.781-3.465,8.871-6.814,13.795c-4.383,6.443-9.352,13.746-9.352,21.785
		c0,7.193,4.461,13.754,8.775,20.098c3.633,5.34,7.391,10.863,7.391,15.48c0,4.344-3.66,9.727-7.201,14.932
		c-4.408,6.48-8.965,13.182-8.965,20.654c0,7.639,4.615,14.424,9.078,20.986c3.484,5.123,7.088,10.42,7.088,14.598
		c0,4.855-3.838,10.496-7.551,15.953c-4.236,6.227-8.615,12.664-8.615,19.627c0,8.576,5.16,16.15,9.713,22.834
		c3.172,4.656,6.453,9.471,6.453,12.748c0,9.326-3.168,12.4-7.178,16.293c-3.492,3.387-7.709,7.52-8.734,15.518
		c-0.488,0.002-2.82,0-3.439-0.004V75.025z M201.794,383.58l0.004-42.938c0.625,0.004,52.094,1.224,89.627-14.488
		c2.191,7.781,5.973,23.85,7.723,46.973C296.036,375.303,279.362,383.252,201.794,383.58z M297.45,290.496
		c3.357,13.246,4.334,18.834-5.404,24.176c-5.449,2.986-11.672,5.412-18.26,7.396c-0.166-113.32-4.801-200.394-13.436-252.045
		c-2.242-13.41-4.516-23.084-6.631-30.076c0.863,0.52,1.713,1.025,2.551,1.514c4.508,7.609,32.424,56.959,27.199,102.893
		c-2.01,12.572-3.689,23.797-3.689,40.033C279.78,210.516,297.052,288.926,297.45,290.496z M289.237,95.385
		c-4.629-18.512-11.656-34.729-17.111-45.67c8.353,3.76,14.465,5.494,18.328,6.291C290.382,71.6,289.923,84.471,289.237,95.385z
		 M295.682,130.822c2.346-16.398,4.555-37.982,4.764-73.615c8.123,1.236,24.236,5.4,34.742,19.373
		C329.366,84.414,312.596,107.078,295.682,130.822z"/>
</g>
<g>
</g>
<g>
</g>
<g>
</g>
<g>
</g>
<g>
</g>
<g>
</g>
<g>
</g>
<g>
</g>
<g>
</g>
<g>
</g>
<g>
</g>
<g>
</g>
<g>
</g>
<g>
</g>
<g>
</g>
</svg>
