<?xml version="1.0" encoding="iso-8859-1"?>
<!-- Generator: Adobe Illustrator 19.1.0, SVG Export Plug-In . SVG Version: 6.00 Build 0)  -->
<svg version="1.1" id="Capa_1" xmlns="http://www.w3.org/2000/svg" xmlns:xlink="http://www.w3.org/1999/xlink" x="0px" y="0px"
	 viewBox="0 0 422.722 422.722" style="enable-background:new 0 0 422.722 422.722;" xml:space="preserve">
<g>
	<path style="fill:#AB9E85;" d="M42.174,87.441V74.282c0-2.699-1.3-5.093-3.301-6.61v26.379
		C40.874,92.534,42.174,90.139,42.174,87.441z"/>
	<path style="fill:#C7BEA8;" d="M75.575,271.249c0,5.764,4.688,10.451,10.45,10.451h62.35c5.632,0,10.238-4.478,10.443-10.062
		c0,0-23.654-136.127-23.826-137.74H75.154c0.276,2.011,0.421,4.137,0.421,6.386V271.249z"/>
	<path style="fill:#E3D282;" d="M194.161,336.212c-23.792-5.041-48.395-10.254-86.926-10.254c-31.451,0-80.039,0.057-95.668,0
		v26.727h104.22v-10.037c0-1.328,0.528-2.602,1.468-3.539c0.938-0.936,2.208-1.461,3.532-1.461c0.003,0,0.006,0,0.009,0
		c1.096,0.002,27.234,0.139,61.278,8.135c28.016,6.578,51.985,10.959,77.901,10.959c14.074,0,28.554-1.303,44.266-3.984
		c42.306-7.221,89.289-27.086,104.728-33.615c1.521-0.643,3.066-6.209,3.576-13.227c-21.58,10.217-85.98,38.311-143.25,39.176
		C238.281,345.551,216.869,341.022,194.161,336.212z"/>
	<path style="fill:#AB9E85;" d="M17.587,315.958c19.692,0.068,61.525,0,89.648,0c39.579,0,64.703,5.324,88.999,10.471
		c22.156,4.695,43.03,9.121,72.911,8.664c58.791-0.888,127.785-32.719,143.103-40.146c-0.618-3.103-1.854-5.444-3.746-7.103
		c-6.063-5.314-19.489-4.712-32.419-3.477c-8.78,0.839-49.083,1.027-55.699,0.361c-28.062-2.825-53.209-14.318-74.832-33.322
		c-17.15-15.076-32.075-35.047-44.358-59.357c-16.623-32.899-23.775-64.358-26.097-76.469c-3.564,0.718-9.467,1.904-19.031,3.823
		c-4.696,0.942-8.029,2.779-9.646,5.612c-2.117,3.71-1.141,9.773-1.126,9.828c0.046,0.164,23.501,132.957,23.532,136.405
		c0.102,11.277-9.174,20.451-20.45,20.451h-62.35c-11.276,0-20.45-9.174-20.45-20.451V140.283c0-6.998-1.615-12.156-4.799-15.332
		c-3.267-3.259-7.254-3.395-7.293-3.395H32.04c0.125,12.191,0.377,43.881-0.057,67.375c-0.357,19.286-2.382,25.373-6.822,38.711
		c-2.632,7.908-6.237,18.738-10.997,36.951C4.373,302.054,14.691,313.613,17.587,315.958z"/>
	<path style="fill:#3F352F;" d="M422.633,297.577c-0.001-0.011,0.001-0.021,0.001-0.031c-0.463-7.447-3.001-13.242-7.543-17.223
		c-9.193-8.057-24.015-7.023-39.705-5.932c-4.483,0.312-43.994,1.336-54.105,0.375c-47.122-5.293-84.486-34.562-111.047-86.996
		c-20.118-39.712-26.1-78.46-26.158-78.847c-0.204-1.355-0.955-2.568-2.078-3.354c-1.123-0.786-2.518-1.075-3.863-0.804
		c-0.011,0.002-3.898,0.792-24.039,4.833c-7.597,1.524-13.074,4.995-16.28,10.315c-0.795,1.319-1.385,2.659-1.828,3.983H72.17
		c-1.155-2.279-2.595-4.295-4.332-6.027c-6.173-6.157-13.542-6.314-14.368-6.313H38.874v-6.527
		c7.666-2.183,13.301-9.233,13.301-17.589V74.282c0-10.091-8.21-18.301-18.301-18.301c-2.761,0-5,2.24-5,5v50.575h-1.89
		c-1.337,0-2.619,0.535-3.558,1.487c-0.94,0.952-1.459,2.24-1.441,3.578c0.005,0.423,0.543,42.749,0,72.126
		c-0.329,17.758-1.958,22.655-6.312,35.737c-2.676,8.039-6.34,19.049-11.184,37.582c-7.618,29.146-4.232,45.251,0.531,53.918
		c-0.737,0.241-1.422,0.632-1.982,1.189c-0.942,0.938-1.471,2.213-1.471,3.541v36.969c0,2.762,2.239,5,5,5h114.22
		c2.761,0,5-2.238,5-5v-9.879c9.091,0.426,29.631,1.988,54,7.711c28.693,6.738,53.31,11.225,80.187,11.225
		c14.645,0,29.674-1.35,45.947-4.127c43.45-7.414,91.238-27.621,106.941-34.262c10.199-4.314,10.06-24.611,9.775-30.729
		C422.637,297.608,422.634,297.592,422.633,297.577z M38.874,67.672c2,1.517,3.301,3.912,3.301,6.61v13.158
		c0,2.699-1.3,5.093-3.301,6.61V67.672z M134.991,133.898c0.172,1.613,23.826,137.74,23.826,137.74
		c-0.204,5.584-4.811,10.062-10.443,10.062h-62.35c-5.762,0-10.45-4.688-10.45-10.451V140.283c0-2.249-0.145-4.374-0.421-6.386
		H134.991z M14.164,264.594c4.76-18.213,8.365-29.043,10.997-36.951c4.439-13.338,6.465-19.426,6.822-38.711
		c0.434-23.494,0.182-55.184,0.057-67.375h21.443c0.039,0,4.026,0.136,7.293,3.395c3.184,3.176,4.799,8.334,4.799,15.332v130.965
		c0,11.277,9.174,20.451,20.45,20.451h62.35c11.276,0,20.552-9.174,20.45-20.451c-0.031-3.447-23.486-136.241-23.532-136.405
		c-0.015-0.055-0.992-6.118,1.126-9.828c1.617-2.833,4.95-4.67,9.646-5.612c9.564-1.919,15.467-3.105,19.031-3.823
		c2.322,12.111,9.474,43.57,26.097,76.469c12.283,24.311,27.208,44.281,44.358,59.357c21.623,19.004,46.77,30.497,74.832,33.322
		c6.616,0.666,46.919,0.478,55.699-0.361c12.93-1.235,26.355-1.838,32.419,3.477c1.892,1.658,3.128,4,3.746,7.103
		c-15.318,7.427-84.312,39.258-143.103,40.146c-29.881,0.457-50.755-3.969-72.911-8.664c-24.296-5.147-49.42-10.471-88.999-10.471
		c-28.122,0-69.956,0.068-89.648,0C14.691,313.613,4.373,302.054,14.164,264.594z M408.968,319.141
		c-15.439,6.529-62.423,26.395-104.728,33.615c-15.712,2.682-30.191,3.984-44.266,3.984c-25.916,0-49.885-4.381-77.901-10.959
		c-34.044-7.996-60.182-8.133-61.278-8.135c-0.003,0-0.006,0-0.009,0c-1.324,0-2.595,0.525-3.532,1.461
		c-0.94,0.938-1.468,2.211-1.468,3.539v10.037H11.567v-26.727c15.629,0.057,64.217,0,95.668,0c38.531,0,63.134,5.213,86.926,10.254
		c22.708,4.81,44.12,9.34,75.134,8.879c57.27-0.865,121.67-28.959,143.25-39.176C412.035,312.932,410.489,318.499,408.968,319.141z"
		/>
</g>
<g>
</g>
<g>
</g>
<g>
</g>
<g>
</g>
<g>
</g>
<g>
</g>
<g>
</g>
<g>
</g>
<g>
</g>
<g>
</g>
<g>
</g>
<g>
</g>
<g>
</g>
<g>
</g>
<g>
</g>
</svg>
