<?xml version="1.0" encoding="iso-8859-1"?>
<!-- Generator: Adobe Illustrator 19.1.0, SVG Export Plug-In . SVG Version: 6.00 Build 0)  -->
<svg version="1.1" id="Capa_1" xmlns="http://www.w3.org/2000/svg" xmlns:xlink="http://www.w3.org/1999/xlink" x="0px" y="0px"
	 viewBox="0 0 358.293 358.293" style="enable-background:new 0 0 358.293 358.293;" xml:space="preserve">
<g>
	<rect x="123.611" y="75.288" style="fill:#A9D8C8;" width="8.719" height="4.769"/>
	<path style="fill:#AB9E85;" d="M203.646,204.146v24.301c0,8.271-6.729,15-15,15h-19c-8.271,0-15-6.729-15-15v-24.301H33
		c-8.938,0-17.052-3.577-23-9.368v134.857c0,0.551,0.448,1,1,1h336.293c0.552,0,1-0.449,1-1V194.778
		c-5.948,5.791-14.062,9.368-23,9.368H203.646z"/>
	<path style="fill:#CBE8DE;" d="M166.623,34.698h25.045c20.134,0,32.335,11.07,34.077,30.59h8.701
		c-1.991-21.159-16.458-37.631-33.95-37.631h-42.701c-17.492,0-31.959,16.472-33.95,37.631h8.701
		C134.288,45.769,146.489,34.698,166.623,34.698z"/>
	<rect x="225.961" y="75.288" style="fill:#A9D8C8;" width="8.719" height="4.769"/>
	<path style="fill:#C7BEA8;" d="M347.293,90.058H11c-0.552,0-1,0.449-1,1v80.088c0,12.682,10.317,23,23,23h121.646v-13
		c0-8.271,6.729-15,15-15h19c8.271,0,15,6.729,15,15v13h121.646c12.683,0,23-10.318,23-23V91.058
		C348.293,90.506,347.845,90.058,347.293,90.058z"/>
	<path style="fill:#CBE8DE;" d="M193.646,181.146c0-2.757-2.243-5-5-5h-19c-2.757,0-5,2.243-5,5v13h29V181.146z"/>
	<path style="fill:#CBE8DE;" d="M164.646,228.447c0,2.757,2.243,5,5,5h19c2.757,0,5-2.243,5-5v-24.301h-29V228.447z
		 M174.146,213.718c0-2.761,2.238-5,5-5s5,2.239,5,5v10.56c0,2.761-2.238,5-5,5s-5-2.239-5-5V213.718z"/>
	<path style="fill:#3F352F;" d="M347.293,80.058H244.68v-9.77c0-29.021-19.82-52.631-44.184-52.631h-42.701
		c-24.363,0-44.184,23.61-44.184,52.631v9.77H11c-6.065,0-11,4.935-11,11v238.578c0,6.065,4.935,11,11,11h336.293
		c6.065,0,11-4.935,11-11V91.058C358.293,84.992,353.358,80.058,347.293,80.058z M157.795,27.657h42.701
		c17.492,0,31.959,16.472,33.95,37.631h-8.701c-1.742-19.52-13.943-30.59-34.077-30.59h-25.045c-20.134,0-32.335,11.07-34.077,30.59
		h-8.701C125.836,44.129,140.303,27.657,157.795,27.657z M234.68,75.288v4.77h-8.719v-4.77H234.68z M215.961,70.288v9.77H142.33
		v-9.77c0-16.98,8.174-25.59,24.293-25.59h25.045C207.787,44.698,215.961,53.308,215.961,70.288z M123.611,75.288h8.719v4.77h-8.719
		V75.288z M348.293,329.636c0,0.551-0.448,1-1,1H11c-0.552,0-1-0.449-1-1V194.778c5.948,5.791,14.062,9.368,23,9.368h121.646v24.301
		c0,8.271,6.729,15,15,15h19c8.271,0,15-6.729,15-15v-24.301h121.646c8.938,0,17.052-3.577,23-9.368V329.636z M193.646,204.146
		v24.301c0,2.757-2.243,5-5,5h-19c-2.757,0-5-2.243-5-5v-24.301H193.646z M164.646,194.146v-13c0-2.757,2.243-5,5-5h19
		c2.757,0,5,2.243,5,5v13H164.646z M348.293,171.146c0,12.682-10.317,23-23,23H203.646v-13c0-8.271-6.729-15-15-15h-19
		c-8.271,0-15,6.729-15,15v13H33c-12.683,0-23-10.318-23-23V91.058c0-0.551,0.448-1,1-1h336.293c0.552,0,1,0.449,1,1V171.146z"/>
	<path style="fill:#3F352F;" d="M179.146,229.278c2.762,0,5-2.239,5-5v-10.56c0-2.761-2.238-5-5-5s-5,2.239-5,5v10.56
		C174.146,227.04,176.385,229.278,179.146,229.278z"/>
</g>
<g>
</g>
<g>
</g>
<g>
</g>
<g>
</g>
<g>
</g>
<g>
</g>
<g>
</g>
<g>
</g>
<g>
</g>
<g>
</g>
<g>
</g>
<g>
</g>
<g>
</g>
<g>
</g>
<g>
</g>
</svg>
