<?xml version="1.0" encoding="iso-8859-1"?>
<!-- Generator: Adobe Illustrator 19.1.0, SVG Export Plug-In . SVG Version: 6.00 Build 0)  -->
<svg version="1.1" id="Capa_1" xmlns="http://www.w3.org/2000/svg" xmlns:xlink="http://www.w3.org/1999/xlink" x="0px" y="0px"
	 viewBox="0 0 381.375 381.375" style="enable-background:new 0 0 381.375 381.375;" xml:space="preserve">
<g>
	<path style="fill:#C7BEA8;" d="M103.303,315.406h82.385v-20.459H99.369C100.541,301.664,101.845,308.487,103.303,315.406z"/>
	<path style="fill:#CBE8DE;" d="M133.912,11.916l-40.19,14.057c3.336,4.881,7.738,12.726,10.69,23.357
		c4.697,16.92,6.5,44.518-11.4,80.158c-0.996,7.801-8.436,72.115,4.695,155.459h87.98V70.052
		C159.817,67.072,137.055,41.398,133.912,11.916z"/>
	<polygon style="fill:#C7BEA8;" points="49.705,371.375 77.53,371.375 79.53,360.219 47.706,360.219 	"/>
	<path style="fill:#CBE8DE;" d="M83.217,127.279c0.078-0.543,0.244-1.068,0.492-1.557c13.418-26.381,17.191-50.996,11.219-73.162
		c-2.749-10.205-7.049-17.512-9.949-21.625c-3.689,4.049-9.883,12.184-16.295,26.506c-9.367,20.922-21.086,59.604-23.721,125.07
		c-1.352,33.578-2.891,60.041-4.127,81.305c-3.051,52.479-4.184,71.947,3.74,86.402H83.58c2.088-2.309,7.459-9.94,10.597-29.678
		C71.191,214.208,83.094,128.138,83.217,127.279z"/>
	<path style="fill:#C7BEA8;" d="M223.294,43.609c5.896-6.879,10.18-15.102,12.514-23.729c-8.193,4.673-21.966,8.676-45.12,8.676
		s-36.926-4.003-45.119-8.675c2.333,8.626,6.615,16.849,12.514,23.728c9.117,10.633,21.002,16.732,32.605,16.732
		C202.289,60.342,214.174,54.242,223.294,43.609z"/>
	<polygon style="fill:#C7BEA8;" points="303.845,371.375 331.669,371.375 333.669,360.219 301.845,360.219 	"/>
	<path style="fill:#C7BEA8;" d="M195.688,315.406h82.386c1.457-6.919,2.762-13.742,3.934-20.459h-86.319V315.406z"/>
	<path style="fill:#CBE8DE;" d="M336.413,182.511C332.241,78.929,305.933,41.24,296.419,30.9c-2.898,4.104-7.217,11.426-9.973,21.66
		c-5.973,22.166-2.197,46.781,11.219,73.162c0.248,0.488,0.414,1.014,0.492,1.557c0.125,0.859,12.027,86.929-10.959,193.262
		c3.139,19.737,8.508,27.369,10.596,29.678H336.8c7.924-14.455,6.791-33.924,3.74-86.41
		C339.304,242.547,337.765,216.086,336.413,182.511z"/>
	<path style="fill:#CBE8DE;" d="M288.364,129.488c-17.9-35.641-16.1-63.238-11.402-80.158c2.951-10.631,7.354-18.477,10.691-23.357
		l-40.189-14.057c-3.143,29.482-25.906,55.156-51.776,58.137v214.895h87.981C296.798,201.603,289.359,137.289,288.364,129.488z"/>
	<path style="fill:#3F352F;" d="M346.405,182.109C341.128,51.035,300.509,20.707,298.782,19.48l-0.004,0.006
		c-4.49-2.583-54.295-19.207-54.295-19.207c-1.527-0.531-3.223-0.297-4.545,0.643c-1.074,0.764-1.785,1.913-2.017,3.187
		c0-0.001-3.906,14.448-47.233,14.448c-43.328,0-47.233-14.45-47.234-14.449c-0.23-1.273-0.942-2.423-2.018-3.185
		c-1.32-0.939-3.018-1.174-4.543-0.643c0,0-46.67,15.734-54.295,19.209l-0.006-0.008c-1.727,1.226-42.346,31.555-47.621,162.629
		c-1.348,33.49-2.885,59.902-4.119,81.127c-3.301,56.773-4.44,76.527,6.123,93.79l3.625,20.229c0.428,2.385,2.5,4.119,4.922,4.119
		h36.191c2.42,0,4.494-1.734,4.922-4.117l3.475-19.382c3.379-3.24,9.619-11.769,13.38-32.47h174.396
		c3.762,20.704,10.004,29.232,13.381,32.471l3.473,19.379c0.428,2.385,2.502,4.119,4.922,4.119h36.191
		c2.422,0,4.494-1.734,4.922-4.119l3.627-20.229c10.562-17.263,9.422-37.019,6.121-93.798
		C349.288,242.006,347.753,215.595,346.405,182.109z M77.53,371.375H49.705l-1.999-11.156H79.53L77.53,371.375z M83.58,350.219
		H44.576c-7.924-14.455-6.791-33.924-3.74-86.402c1.236-21.264,2.775-47.727,4.127-81.305
		c2.635-65.467,14.354-104.148,23.721-125.07c6.412-14.322,12.605-22.457,16.295-26.506c2.9,4.113,7.2,11.42,9.949,21.625
		c5.973,22.166,2.199,46.781-11.219,73.162c-0.248,0.488-0.414,1.014-0.492,1.557c-0.123,0.859-12.026,86.929,10.96,193.262
		C91.039,340.278,85.668,347.91,83.58,350.219z M185.688,315.406h-82.385c-1.458-6.919-2.762-13.742-3.934-20.459h86.318V315.406z
		 M185.688,284.947h-87.98c-13.131-83.344-5.691-147.658-4.695-155.459c17.9-35.641,16.098-63.238,11.4-80.158
		c-2.951-10.631-7.354-18.477-10.69-23.357l40.19-14.057c3.143,29.482,25.904,55.156,51.775,58.137V284.947z M158.082,43.609
		c-5.898-6.879-10.181-15.102-12.514-23.728c8.193,4.672,21.965,8.675,45.119,8.675s36.927-4.003,45.12-8.676
		c-2.334,8.627-6.617,16.85-12.514,23.729c-9.12,10.633-21.005,16.732-32.606,16.732C179.084,60.342,167.199,54.242,158.082,43.609z
		 M278.073,315.406h-82.386v-20.459h86.319C280.835,301.664,279.53,308.487,278.073,315.406z M195.688,284.947V70.052
		c25.87-2.98,48.634-28.654,51.776-58.137l40.189,14.057c-3.338,4.881-7.74,12.726-10.691,23.357
		c-4.697,16.92-6.498,44.518,11.402,80.158c0.994,7.801,8.434,72.115-4.695,155.459H195.688z M331.669,371.375h-27.824l-2-11.156
		h31.824L331.669,371.375z M336.8,350.219h-39.006c-2.088-2.309-7.457-9.94-10.596-29.678
		c22.986-106.333,11.084-192.402,10.959-193.262c-0.078-0.543-0.244-1.068-0.492-1.557c-13.416-26.381-17.191-50.996-11.219-73.162
		c2.756-10.234,7.074-17.557,9.973-21.66c9.514,10.34,35.822,48.029,39.994,151.611c1.352,33.574,2.891,60.035,4.127,81.297
		C343.591,316.295,344.724,335.763,336.8,350.219z"/>
</g>
<g>
</g>
<g>
</g>
<g>
</g>
<g>
</g>
<g>
</g>
<g>
</g>
<g>
</g>
<g>
</g>
<g>
</g>
<g>
</g>
<g>
</g>
<g>
</g>
<g>
</g>
<g>
</g>
<g>
</g>
</svg>
