<?xml version="1.0" encoding="iso-8859-1"?>
<!-- Generator: Adobe Illustrator 19.1.0, SVG Export Plug-In . SVG Version: 6.00 Build 0)  -->
<svg version="1.1" id="Capa_1" xmlns="http://www.w3.org/2000/svg" xmlns:xlink="http://www.w3.org/1999/xlink" x="0px" y="0px"
	 viewBox="0 0 445.163 445.163" style="enable-background:new 0 0 445.163 445.163;" xml:space="preserve">
<g>
	<path style="fill:#C4573F;" d="M13.639,187.675c-2.007,0-3.639,1.632-3.639,3.638c0,2.007,1.632,3.64,3.639,3.64h8.205
		c-0.952-2.526-1.827-4.958-2.626-7.277H13.639z"/>
	<path style="fill:#7E6F83;" d="M95.69,178.658c-5.399,0-9.994,0.715-13.287,2.066c-13.62,5.588-18.434,18.072-13.554,35.153
		c1.53,5.352,10.398,32.736,34.72,46.061c8.921,4.887,18.286,7.365,27.837,7.365c24.066,0,42.238-15.203,47.751-30.22
		c2.947-8.03,1.587-16.191-4.044-24.257C160.66,194.127,121.262,178.658,95.69,178.658z M92.45,199.21
		c-0.018,0.002-1.897,0.38-2.964,2.095c-1.349,2.168-1.181,6.061,0.472,10.961c0.882,2.617-0.524,5.453-3.141,6.336
		c-0.53,0.179-1.068,0.263-1.599,0.263c-2.086,0-4.033-1.316-4.737-3.403c-2.7-8.009-2.527-14.549,0.513-19.438
		c3.542-5.694,9.468-6.637,10.132-6.726c2.743-0.374,5.252,1.557,5.618,4.294C97.109,196.328,95.188,198.844,92.45,199.21z"/>
	<path style="fill:#7E6F83;" d="M362.812,180.724c-3.294-1.351-7.889-2.066-13.288-2.066c-25.57,0-64.968,15.469-79.422,36.171
		c-5.631,8.066-6.991,16.226-4.044,24.256c5.513,15.017,23.685,30.22,47.751,30.22c9.551,0,18.916-2.479,27.837-7.365
		c24.328-13.328,33.189-40.709,34.719-46.061C381.246,198.796,376.433,186.312,362.812,180.724z M364.681,215.461
		c-0.704,2.087-2.651,3.403-4.737,3.403c-0.53,0-1.068-0.084-1.599-0.263c-2.616-0.883-4.022-3.719-3.141-6.336
		c1.652-4.9,1.82-8.793,0.472-10.961c-1.066-1.715-2.946-2.093-2.964-2.095c-2.737-0.366-4.659-2.882-4.294-5.618
		c0.366-2.737,2.875-4.668,5.618-4.294c0.664,0.089,6.59,1.031,10.132,6.726C367.208,200.912,367.381,207.452,364.681,215.461z"/>
	<path style="fill:#C4573F;" d="M431.525,187.675h-5.528c-0.799,2.319-1.674,4.751-2.626,7.277h8.154
		c2.006,0,3.638-1.633,3.638-3.64C435.163,189.307,433.531,187.675,431.525,187.675z"/>
	<path style="fill:#C4573F;" d="M416.786,163.717c-14.095-4.688-29.255-7.065-45.058-7.065c-49.491,0-94.232,22.835-115.733,33.81
		c-2.168,1.106-15.225,7.619-20.052,8.193c-3.222,0.387-23.451,0.387-26.678,0c-4.818-0.573-17.877-7.085-20.041-8.189
		c-21.503-10.976-66.248-33.814-115.74-33.814c-15.803,0-30.962,2.377-45.058,7.065c-2.939,0.979-5.237,2.289-3.565,8.453
		c5.004,18.46,21.144,60.864,46.413,89.23c15.275,17.146,33.211,25.974,54.833,26.989c1.73,0.081,3.458,0.122,5.135,0.122
		c46.208,0,59.869-30.799,63.598-44.041c8.271-29.364,16.277-35.691,27.313-36.696c0.15-0.014,0.756-0.014,0.906,0
		c11.039,1.005,19.048,7.332,27.314,36.697c3.73,13.24,17.394,44.04,63.598,44.04c1.677,0,3.404-0.041,5.135-0.122
		c21.622-1.016,39.558-9.844,54.833-26.989c25.272-28.368,41.411-70.771,46.413-89.23
		C422.025,166.006,419.727,164.695,416.786,163.717z M188.544,242.53c-7.821,21.309-31.852,36.774-57.138,36.774
		c-11.249,0-22.231-2.892-32.642-8.596c-21.541-11.801-34.544-34.643-39.53-52.084c-6.277-21.974,0.965-39.6,19.373-47.152
		c4.55-1.867,10.298-2.814,17.083-2.814c28.088,0,70.981,16.61,87.622,40.445C190.817,219.852,192.626,231.411,188.544,242.53z
		 M385.98,218.625c-4.981,17.439-17.982,40.28-39.529,52.084c-10.41,5.704-21.393,8.596-32.642,8.596
		c-25.286,0-49.316-15.466-57.138-36.774c-4.082-11.119-2.272-22.677,5.232-33.425c16.642-23.836,59.534-40.447,87.621-40.447
		c6.785,0,12.533,0.947,17.084,2.814C385.017,179.024,392.259,196.651,385.98,218.625z"/>
	<path style="fill:#3F352F;" d="M91.126,189.298c-0.664,0.089-6.59,1.031-10.132,6.726c-3.04,4.889-3.213,11.429-0.513,19.438
		c0.704,2.087,2.651,3.403,4.737,3.403c0.53,0,1.068-0.084,1.599-0.263c2.616-0.883,4.022-3.719,3.141-6.336
		c-1.652-4.9-1.82-8.793-0.472-10.961c1.066-1.715,2.946-2.093,2.964-2.095c2.737-0.366,4.659-2.882,4.294-5.618
		C96.378,190.854,93.869,188.924,91.126,189.298z"/>
	<path style="fill:#3F352F;" d="M95.69,168.658c-6.785,0-12.533,0.947-17.083,2.814c-18.408,7.553-25.65,25.179-19.373,47.152
		c4.986,17.441,17.989,40.283,39.53,52.084c10.41,5.704,21.393,8.596,32.642,8.596c25.286,0,49.316-15.466,57.138-36.774
		c4.082-11.119,2.273-22.678-5.232-33.427C166.672,185.268,123.778,168.658,95.69,168.658z M179.157,239.085
		c-5.513,15.017-23.685,30.22-47.751,30.22c-9.551,0-18.916-2.479-27.837-7.365c-24.321-13.325-33.189-40.709-34.72-46.061
		c-4.88-17.081-0.066-29.566,13.554-35.153c3.293-1.351,7.888-2.066,13.287-2.066c25.571,0,64.97,15.469,79.423,36.17
		C180.744,222.893,182.105,231.055,179.157,239.085z"/>
	<path style="fill:#3F352F;" d="M366.608,171.473c-4.551-1.867-10.299-2.814-17.084-2.814c-28.087,0-70.979,16.611-87.621,40.447
		c-7.504,10.748-9.314,22.306-5.232,33.425c7.821,21.309,31.852,36.774,57.138,36.774c11.249,0,22.232-2.892,32.642-8.596
		c21.547-11.804,34.548-34.645,39.529-52.084C392.259,196.651,385.017,179.024,366.608,171.473z M376.365,215.878
		c-1.529,5.352-10.391,32.733-34.719,46.061c-8.921,4.887-18.286,7.365-27.837,7.365c-24.066,0-42.238-15.203-47.751-30.22
		c-2.947-8.03-1.587-16.19,4.044-24.256c14.454-20.702,53.852-36.171,79.422-36.171c5.399,0,9.994,0.715,13.288,2.066
		C376.433,186.312,381.246,198.796,376.365,215.878z"/>
	<path style="fill:#3F352F;" d="M431.525,177.675h-2.338c0.291-0.999,0.568-1.973,0.816-2.888
		c2.723-10.033-0.945-17.527-10.062-20.559c-15.115-5.028-31.336-7.577-48.214-7.577c-51.896,0-98.083,23.573-120.279,34.902
		c-2.126,1.086-13.58,6.802-16.691,7.171c-1.725,0.207-22.575,0.207-24.305,0c-3.105-0.369-14.558-6.083-16.682-7.167
		c-22.198-11.33-68.389-34.906-120.286-34.906c-16.877,0-33.099,2.549-48.214,7.577c-9.114,3.031-12.781,10.525-10.061,20.559
		c0.248,0.915,0.525,1.889,0.816,2.888h-2.388C6.118,177.675,0,183.793,0,191.312c0,7.521,6.118,13.64,13.639,13.64h12.186
		c8.541,20.355,21.284,44.355,37.983,63.101c17.157,19.258,37.383,29.178,61.831,30.325c25.072,1.177,45.328-5.408,59.997-19.484
		c11.803-11.325,16.863-24.729,18.829-31.712c7.74-27.48,13.935-28.989,18.142-29.406c4.209,0.417,10.405,1.926,18.142,29.406
		c1.967,6.982,7.028,20.386,18.832,31.712c13.567,13.018,31.867,19.618,54.391,19.618c1.832,0,3.718-0.045,5.603-0.134
		c24.448-1.147,44.674-11.066,61.831-30.325c16.7-18.746,29.444-42.747,37.983-63.101h12.136c7.52,0,13.638-6.119,13.638-13.64
		C445.163,183.793,439.045,177.675,431.525,177.675z M13.639,194.952c-2.007,0-3.639-1.633-3.639-3.64
		c0-2.006,1.632-3.638,3.639-3.638h5.579c0.799,2.319,1.674,4.751,2.626,7.277H13.639z M420.353,172.171
		c-5.002,18.458-21.141,60.861-46.413,89.23c-15.275,17.146-33.211,25.974-54.833,26.989c-1.73,0.081-3.458,0.122-5.135,0.122
		c-46.203,0-59.867-30.8-63.598-44.04c-8.266-29.365-16.274-35.692-27.314-36.697c-0.15-0.014-0.756-0.014-0.906,0
		c-11.036,1.005-19.043,7.332-27.313,36.696c-3.729,13.242-17.39,44.041-63.598,44.041c-1.677,0-3.404-0.041-5.135-0.122
		c-21.622-1.016-39.558-9.844-54.833-26.989c-25.269-28.366-41.409-70.771-46.413-89.23c-1.672-6.164,0.626-7.475,3.565-8.453
		c14.096-4.688,29.255-7.065,45.058-7.065c49.492,0,94.237,22.838,115.74,33.814c2.164,1.104,15.223,7.616,20.041,8.189
		c3.227,0.387,23.456,0.387,26.678,0c4.826-0.574,17.884-7.087,20.052-8.193c21.501-10.975,66.241-33.81,115.733-33.81
		c15.803,0,30.963,2.377,45.058,7.065C419.727,164.695,422.025,166.006,420.353,172.171z M431.525,194.952h-8.154
		c0.952-2.526,1.827-4.958,2.626-7.277h5.528c2.006,0,3.638,1.632,3.638,3.638C435.163,193.319,433.531,194.952,431.525,194.952z"/>
	<path style="fill:#3F352F;" d="M354.036,189.298c-2.743-0.374-5.252,1.557-5.618,4.294c-0.365,2.736,1.557,5.252,4.294,5.618
		c0.017,0.002,1.897,0.38,2.964,2.095c1.349,2.168,1.181,6.061-0.472,10.961c-0.882,2.617,0.525,5.453,3.141,6.336
		c0.53,0.179,1.068,0.263,1.599,0.263c2.086,0,4.033-1.316,4.737-3.403c2.7-8.009,2.527-14.549-0.513-19.438
		C360.626,190.329,354.7,189.387,354.036,189.298z"/>
</g>
<g>
</g>
<g>
</g>
<g>
</g>
<g>
</g>
<g>
</g>
<g>
</g>
<g>
</g>
<g>
</g>
<g>
</g>
<g>
</g>
<g>
</g>
<g>
</g>
<g>
</g>
<g>
</g>
<g>
</g>
</svg>
