<?xml version="1.0" encoding="iso-8859-1"?>
<!-- Generator: Adobe Illustrator 19.1.0, SVG Export Plug-In . SVG Version: 6.00 Build 0)  -->
<svg version="1.1" id="Capa_1" xmlns="http://www.w3.org/2000/svg" xmlns:xlink="http://www.w3.org/1999/xlink" x="0px" y="0px"
	 viewBox="0 0 341.69 341.69" style="enable-background:new 0 0 341.69 341.69;" xml:space="preserve">
<g>
	<path style="fill:#BBD3DF;" d="M70.777,141.534c7.203-4.183,12.217-10.912,14.973-20.024c-29.739-3.682-45.791-8.82-53.611-12.131
		c-2.489,10.835-4.869,22.666-7.085,34.664C33.954,146.33,55.472,150.422,70.777,141.534z"/>
	<path style="fill:#8EB6CA;" d="M104.629,95.501C66.694,91.69,48.282,84.978,39.911,80.596c-1.83,5.516-3.635,11.91-5.396,18.896
		c6.636,3.039,25.696,9.911,68.203,13.752L104.629,95.501z"/>
	<path style="fill:#BBD3DF;" d="M270.913,141.534c15.287,8.88,36.801,4.8,45.724,2.509c-2.216-11.998-4.595-23.83-7.085-34.664
		c-7.82,3.311-23.873,8.449-53.611,12.131C258.697,130.621,263.711,137.352,270.913,141.534z"/>
	<path style="fill:#8EB6CA;" d="M238.974,113.244c42.508-3.842,61.566-10.713,68.201-13.752c-1.762-6.986-3.566-13.381-5.396-18.896
		c-8.37,4.382-26.782,11.094-64.717,14.905L238.974,113.244z"/>
	<path style="fill:#8EB6CA;" d="M75.762,150.203c-8.938,5.179-19.233,6.81-28.65,6.81c-9.69,0-18.438-1.724-23.842-3.085
		c-6.362,36.079-11.101,71.597-12.71,84.111l144.766,25.177l10.52-19.48V125.961c-28.545-0.137-51.556-1.44-70.029-3.319
		C92.474,135.143,85.753,144.412,75.762,150.203z"/>
	<path style="fill:#BBD3DF;" d="M175.845,201.166c2.761-0.268,6.059-1.076,8.348-3.097c2.311-2.039,3.434-5.111,3.434-9.394v-62.844
		c-3.822,0.064-7.74,0.109-11.781,0.129V201.166z"/>
	<path style="fill:#8EB6CA;" d="M112.689,114.055c15.016,1.091,32.604,1.805,53.156,1.905V98.397
		c-19.853-0.107-36.796-0.85-51.254-2.001L112.689,114.055z"/>
	<path style="fill:#8EB6CA;" d="M294.578,157.013c-9.418,0-19.712-1.63-28.65-6.81c-9.991-5.79-16.712-15.061-20.054-27.562
		c-13.52,1.375-29.48,2.439-48.248,2.967v63.068c0,7.252-2.314,12.953-6.879,16.946c-4.645,4.062-10.594,5.276-14.902,5.564v32.55
		l10.52,19.48l144.766-25.177c-1.609-12.515-6.349-48.033-12.711-84.112C313.018,155.288,304.273,157.013,294.578,157.013z"/>
	<path style="fill:#8EB6CA;" d="M227.099,96.396c-14.458,1.151-31.401,1.894-51.254,2.001v17.563
		c20.552-0.101,38.141-0.814,53.156-1.905L227.099,96.396z"/>
	<path style="fill:#BBD3DF;" d="M61.939,77.977c18.485,5.051,51.623,10.434,108.906,10.434c57.586,0,90.719-5.393,109.113-10.434
		H61.939z"/>
	<path style="fill:#3F352F;" d="M309.045,71.189c-0.602-1.572-1.955-2.736-3.6-3.097c-0.354-0.078-268.491-0.242-269.167-0.112
		c-1.695,0.328-3.017,1.596-3.634,3.209C15.516,115.916,0.661,236.433,0.037,241.541c-0.323,2.644,1.482,5.076,4.106,5.532
		c0,0,151.125,26.686,153.872,26.686c1.813,0,3.516-0.989,4.398-2.624l8.431-15.612l8.431,15.612
		c0.883,1.636,2.584,2.624,4.398,2.624c3.108,0,153.872-26.686,153.872-26.686c2.624-0.456,4.43-2.889,4.106-5.532
		C341.029,236.433,326.175,115.916,309.045,71.189z M309.552,109.379c2.49,10.834,4.869,22.666,7.085,34.664
		c-8.923,2.291-30.436,6.371-45.724-2.509c-7.202-4.183-12.217-10.913-14.973-20.024
		C285.679,117.828,301.732,112.69,309.552,109.379z M307.175,99.492c-6.635,3.039-25.693,9.91-68.201,13.752l-1.912-17.743
		c37.935-3.812,56.347-10.523,64.717-14.905C303.609,86.111,305.413,92.506,307.175,99.492z M39.911,80.596
		c8.37,4.382,26.782,11.094,64.718,14.905l-1.911,17.743c-42.507-3.841-61.567-10.713-68.203-13.752
		C36.277,92.506,38.081,86.111,39.911,80.596z M32.138,109.379c7.82,3.311,23.872,8.449,53.611,12.131
		c-2.756,9.112-7.77,15.842-14.973,20.024c-15.305,8.888-36.822,4.796-45.724,2.509C27.269,132.045,29.649,120.214,32.138,109.379z
		 M165.845,243.736l-10.52,19.48L10.56,238.039c1.609-12.515,6.348-48.032,12.71-84.111c5.403,1.361,14.151,3.085,23.842,3.085
		c9.417,0,19.713-1.631,28.65-6.81c9.991-5.791,16.712-15.061,20.054-27.562c18.474,1.879,41.484,3.183,70.029,3.319V243.736z
		 M165.845,115.96c-20.552-0.101-38.141-0.814-53.156-1.905l1.902-17.659c14.458,1.151,31.401,1.894,51.254,2.001V115.96z
		 M61.939,77.977h218.019c-18.395,5.041-51.527,10.434-109.113,10.434C113.562,88.41,80.424,83.027,61.939,77.977z M175.845,115.96
		V98.397c19.853-0.107,36.796-0.85,51.254-2.001l1.902,17.659C213.986,115.146,196.397,115.859,175.845,115.96z M187.626,125.832
		v62.844c0,4.282-1.123,7.354-3.434,9.394c-2.289,2.02-5.587,2.829-8.348,3.097v-75.205
		C179.886,125.941,183.804,125.897,187.626,125.832z M186.365,263.216l-10.52-19.48v-32.55c4.309-0.288,10.258-1.502,14.902-5.564
		c4.564-3.993,6.879-9.694,6.879-16.946v-63.068c18.768-0.527,34.729-1.592,48.248-2.967c3.342,12.502,10.062,21.772,20.054,27.562
		c8.938,5.18,19.232,6.81,28.65,6.81c9.694,0,18.439-1.725,23.841-3.086c6.362,36.079,11.102,71.598,12.711,84.112L186.365,263.216z
		"/>
</g>
<g>
</g>
<g>
</g>
<g>
</g>
<g>
</g>
<g>
</g>
<g>
</g>
<g>
</g>
<g>
</g>
<g>
</g>
<g>
</g>
<g>
</g>
<g>
</g>
<g>
</g>
<g>
</g>
<g>
</g>
</svg>
