<?xml version="1.0" encoding="iso-8859-1"?>
<!-- Generator: Adobe Illustrator 19.1.0, SVG Export Plug-In . SVG Version: 6.00 Build 0)  -->
<svg version="1.1" id="Capa_1" xmlns="http://www.w3.org/2000/svg" xmlns:xlink="http://www.w3.org/1999/xlink" x="0px" y="0px"
	 viewBox="0 0 412.527 412.527" style="enable-background:new 0 0 412.527 412.527;" xml:space="preserve">
<g>
	<path style="fill:#7E6F83;" d="M230.239,191.199l-0.609-5.316c-7.168,0.752-15.125,1.154-23.365,1.154
		c-13.729,0-26.684-1.105-36.48-3.113c-4.654-0.954-9.664-2.261-13.328-4.395c-1.85,3.077-4.469,8.312-7.446,16.787
		C160.924,199.516,194.189,205.984,230.239,191.199z"/>
	<path style="fill:#7E6F83;" d="M221.299,363.755l8.908-161.834c-2.197,0.826-4.381,1.584-6.548,2.273l-16.519,147.15
		C208.655,353.886,213.02,360.099,221.299,363.755z"/>
	<path style="fill:#D68E7E;" d="M258.851,205.053c12.549,58.749,18.996,102.425,19.07,102.927
		c2.559,19.727-15.426,28.678-25.289,30.667c-0.328,0.066-0.66,0.099-0.988,0.099c-1.049,0-2.08-0.33-2.941-0.956
		c-1.131-0.823-1.867-2.083-2.027-3.474l-9.289-80.883l-6.461,117.379c-0.082,1.474-0.808,2.836-1.987,3.723
		c-0.875,0.657-1.932,1.003-3.004,1.003c-0.375,0-0.752-0.042-1.125-0.128c-19.436-4.486-27.025-20.273-27.34-20.943
		c-0.391-0.835-0.543-1.762-0.439-2.678l16.247-144.736c-11.23,2.614-21.816,3.578-31.239,3.578c-16.448,0-29.371-2.864-36.099-4.75
		c-0.7,2.374-1.409,4.903-2.126,7.642c-7.21,27.541-16.616,80.551-20.836,177.241c9.053,0.826,14.457,3.742,19.299,6.369
		c5.338,2.895,9.947,5.395,19.74,5.395c9.791,0,14.4-2.5,19.736-5.395c5.707-3.096,12.176-6.605,24.506-6.605
		c12.33,0,18.801,3.509,24.507,6.605c5.338,2.895,9.947,5.395,19.742,5.395c9.793,0,14.402-2.5,19.74-5.395
		c4.844-2.627,10.248-5.543,19.303-6.369c-4.221-96.69-13.627-149.7-20.838-177.241c-0.809-3.089-1.607-5.913-2.393-8.539
		C264.761,205.05,259.769,205.077,258.851,205.053z"/>
	<path style="fill:#AB9E85;" d="M221.979,64.129c-4.904,1.562-10.236,2.408-15.715,2.408c-5.467,0-10.793-0.837-15.693-2.391
		c6.023,9.636,11.982,17.661,15.699,22.435C209.989,81.804,215.953,73.772,221.979,64.129z"/>
	<path style="fill:#D68E7E;" d="M144.971,13.116c-6.132-2.57-18.121-5.912-28.945,0.975c-1.098,3.431-3.232,13.846,7.129,23.212
		c5.619,4.59,13.756,16.405,5.023,28.969c-8.234,11.851-7.809,21.363,1.428,31.805c12.098,13.677,12.604,20.982,9.238,30.443
		c-1.445,4.066-1.025,8.721,1.123,12.451c1.689,2.932,4.422,5.261,8.041,6.905l-4.504-35.337
		C124.024,67.83,138.85,26.735,144.971,13.116z"/>
	<path style="fill:#D68E7E;" d="M296.497,14.089c-10.754-6.828-22.785-3.499-28.926-0.957c6.127,13.637,20.932,54.716,1.459,99.406
		l-4.502,35.333c3.615-1.645,6.344-3.972,8.029-6.901c2.15-3.73,2.57-8.385,1.125-12.452c-3.365-9.46-2.861-16.765,9.236-30.442
		c9.236-10.442,9.664-19.954,1.428-31.805c-8.73-12.563-0.596-24.378,5.025-28.969C299.714,27.954,297.605,17.56,296.497,14.089z"/>
	<path style="fill:#D68E7E;" d="M257.626,15.488l-5.363-0.628c-3.562,37.128-40.534,81.002-42.185,82.942l-0.013-0.011
		c-2.252,2.667-5.817,2.113-7.605,0.011c-1.65-1.94-38.625-45.814-42.186-82.942l-5.359,0.627
		c-4.594,9.84-21.068,50.587-1.973,93.676c0.197,0.443,0.328,0.913,0.389,1.394l7.65,60.03c3.129,2.349,18.93,6.45,45.281,6.45
		c26.376,0,42.185-4.11,45.29-6.458l7.648-60.022c0.062-0.481,0.193-0.95,0.389-1.394C278.745,65.945,262.24,25.313,257.626,15.488z
		"/>
	<path style="fill:#7E6F83;" d="M253.505,180.801c1.092,4.794,2.145,9.519,3.164,14.165c1.75,0.09,3.928,0.151,6.41,0.117
		c-2.795-7.753-5.248-12.627-7.006-15.552C255.277,179.994,254.41,180.412,253.505,180.801z"/>
	<path style="fill:#7E6F83;" d="M268.015,309.347c-0.072-0.483-8.238-55.806-24.111-125.671c-0.387,0.084-3.266,0.658-4.365,0.849
		l16.377,142.601C261.501,324.753,269.339,319.556,268.015,309.347z"/>
	<path style="fill:#3F352F;" d="M295.96,44.827c14.486-12.996,12.344-29.293,9.188-36.095c-0.363-0.784-0.926-1.461-1.629-1.963
		c-17.898-12.793-37.906-4.071-43.637-1.085l-11.764-1.377c-1.418-0.165-2.838,0.282-3.904,1.231
		c-1.066,0.949-1.676,2.308-1.676,3.735c0,11.992-4.805,25.508-11.084,38.061c-5.706,5.769-15.056,9.203-25.19,9.203
		c-10.119,0-19.461-3.426-25.171-9.183C174.811,34.796,170,21.272,170,9.273c0-1.427-0.611-2.787-1.678-3.735
		c-1.064-0.949-2.484-1.394-3.904-1.231l-11.773,1.377c-5.729-2.984-25.739-11.708-43.64,1.085
		c-0.703,0.502-1.264,1.179-1.627,1.963c-3.156,6.802-5.299,23.099,9.186,36.095c0.053,0.047,8.987,7.468,3.4,15.739
		c-10.713,15.86-10.217,30.154,2.15,44.136c10.402,11.761,9.17,15.224,7.307,20.468c-2.414,6.787-1.711,14.559,1.879,20.792
		c2.596,4.505,7.822,10.183,18.12,13.003l1.411,11.078c-7.719,9.379-30.911,51.671-38.059,225.279c0,0-0.414,5.205,4.996,5.205
		c9.793,0,14.402,2.5,19.738,5.395c5.707,3.097,12.178,6.605,24.508,6.605c12.328,0,18.797-3.51,24.504-6.605
		c5.338-2.895,9.945-5.395,19.738-5.395s14.402,2.5,19.74,5.395c5.708,3.097,12.177,6.605,24.509,6.605
		c12.33,0,18.772-3.561,24.508-6.605c10.939-5.805,19.879-5.396,19.947-5.398c2.76-0.113,4.904-2.443,4.791-5.201
		c-7.146-173.547-30.324-215.87-38.051-225.268l1.412-11.09c10.291-2.822,15.516-8.497,18.109-13.001
		c3.59-6.233,4.293-14.005,1.881-20.793c-1.865-5.243-3.098-8.706,7.305-20.467c12.369-13.982,12.793-28.228,2.15-44.137
		C286.632,51.704,295.894,44.887,295.96,44.827z M206.264,66.537c5.479,0,10.811-0.847,15.715-2.408
		c-6.026,9.644-11.99,17.675-15.709,22.452c-3.717-4.774-9.676-12.799-15.699-22.435C195.471,65.7,200.797,66.537,206.264,66.537z
		 M139.967,140.971c-2.148-3.73-2.568-8.385-1.123-12.451c3.365-9.46,2.859-16.766-9.238-30.443
		c-9.236-10.442-9.662-19.954-1.428-31.805c8.732-12.564,0.596-24.379-5.023-28.969c-10.361-9.366-8.227-19.781-7.129-23.212
		c10.824-6.887,22.814-3.545,28.945-0.975c-6.121,13.62-20.947,54.714-1.467,99.423l4.504,35.337
		C144.389,146.232,141.657,143.902,139.967,140.971z M156.455,179.529c3.664,2.134,8.674,3.441,13.328,4.395
		c9.797,2.007,22.752,3.113,36.48,3.113c8.24,0,16.197-0.401,23.365-1.154l0.609,5.316c-36.05,14.785-69.314,8.317-81.23,5.117
		C151.987,187.841,154.606,182.606,156.455,179.529z M230.207,201.921l-8.908,161.834c-8.279-3.656-12.645-9.869-14.158-12.41
		l16.519-147.15C225.827,203.505,228.01,202.748,230.207,201.921z M268.712,213.522c7.211,27.541,16.617,80.551,20.838,177.241
		c-9.055,0.826-14.459,3.742-19.303,6.369c-5.338,2.895-9.947,5.395-19.74,5.395c-9.795,0-14.404-2.5-19.742-5.395
		c-5.706-3.097-12.177-6.605-24.507-6.605c-12.33,0-18.799,3.51-24.506,6.605c-5.336,2.895-9.945,5.395-19.736,5.395
		c-9.793,0-14.402-2.5-19.74-5.395c-4.842-2.627-10.246-5.543-19.299-6.369c4.22-96.69,13.626-149.7,20.836-177.241
		c0.717-2.738,1.426-5.268,2.126-7.642c6.728,1.886,19.65,4.75,36.099,4.75c9.424,0,20.01-0.964,31.239-3.578L197.03,351.789
		c-0.104,0.916,0.049,1.843,0.439,2.678c0.314,0.67,7.904,16.457,27.34,20.943c0.373,0.086,0.75,0.128,1.125,0.128
		c1.072,0,2.129-0.346,3.004-1.003c1.18-0.887,1.905-2.249,1.987-3.723l6.461-117.379l9.289,80.883
		c0.16,1.391,0.896,2.65,2.027,3.474c0.861,0.626,1.893,0.956,2.941,0.956c0.328,0,0.66-0.033,0.988-0.099
		c9.863-1.989,27.848-10.94,25.289-30.667c-0.074-0.502-6.521-44.178-19.07-102.927c0.918,0.023,5.91-0.003,7.469-0.07
		C267.105,207.609,267.904,210.433,268.712,213.522z M239.538,184.525c1.1-0.191,3.979-0.765,4.365-0.849
		c15.873,69.865,24.039,125.187,24.111,125.671c1.324,10.209-6.514,15.405-12.1,17.779L239.538,184.525z M263.079,195.084
		c-2.482,0.034-4.66-0.027-6.41-0.117c-1.02-4.647-2.072-9.371-3.164-14.165c0.904-0.39,1.771-0.807,2.568-1.27
		C257.831,182.457,260.285,187.33,263.079,195.084z M259.591,109.163c-0.195,0.443-0.326,0.913-0.389,1.394l-7.648,60.022
		c-3.105,2.348-18.914,6.458-45.29,6.458c-26.352,0-42.152-4.101-45.281-6.45l-7.65-60.03c-0.061-0.481-0.191-0.95-0.389-1.394
		c-19.096-43.089-2.621-83.836,1.973-93.676l5.359-0.627c3.561,37.128,40.535,81.002,42.186,82.942
		c1.787,2.102,5.353,2.656,7.605-0.011l0.013,0.011c1.65-1.94,38.622-45.814,42.185-82.942l5.363,0.628
		C262.24,25.313,278.745,65.945,259.591,109.163z M289.372,37.303c-5.621,4.59-13.756,16.405-5.025,28.969
		c8.236,11.852,7.809,21.363-1.428,31.805c-12.098,13.677-12.602,20.982-9.236,30.442c1.445,4.067,1.025,8.722-1.125,12.452
		c-1.686,2.929-4.414,5.256-8.029,6.901l4.502-35.333c19.473-44.69,4.668-85.768-1.459-99.406
		c6.141-2.542,18.172-5.871,28.926,0.957C297.605,17.56,299.714,27.954,289.372,37.303z"/>
</g>
<g>
</g>
<g>
</g>
<g>
</g>
<g>
</g>
<g>
</g>
<g>
</g>
<g>
</g>
<g>
</g>
<g>
</g>
<g>
</g>
<g>
</g>
<g>
</g>
<g>
</g>
<g>
</g>
<g>
</g>
</svg>
