<?xml version="1.0" encoding="iso-8859-1"?>
<!-- Generator: Adobe Illustrator 19.1.0, SVG Export Plug-In . SVG Version: 6.00 Build 0)  -->
<svg version="1.1" id="Capa_1" xmlns="http://www.w3.org/2000/svg" xmlns:xlink="http://www.w3.org/1999/xlink" x="0px" y="0px"
	 viewBox="0 0 413.899 413.899" style="enable-background:new 0 0 413.899 413.899;" xml:space="preserve">
<g>
	<path style="fill:#7E6F83;" d="M160.631,86.48l6.924,60.987h78.789l2.326-20.477c-6.074-4.187-21.781-15.679-37.781-32.821
		C186.436,67.968,172.248,40,169.52,12.797l-29.604,14.538c1.598,10.109,7.17,39.757,19.762,56.731
		C160.203,84.772,160.532,85.605,160.631,86.48z"/>
	<path style="fill:#AB9E85;" d="M232.916,21.704c-0.848,0.152-1.65,0.279-2.361,0.389c-6.33,0.98-14.68,1.522-23.527,1.528
		c-0.004,0-0.008,0.001-0.012,0.001c-0.021,0-0.043,0-0.066,0c-0.021,0-0.043,0-0.066,0c-0.004,0-0.006-0.001-0.01-0.001
		c-8.848-0.006-17.199-0.547-23.529-1.528c-0.705-0.109-1.504-0.235-2.346-0.385c4.145,19.741,14.365,37.551,26,52.43
		C220.623,56.708,229.293,39.149,232.916,21.704z"/>
	<path style="fill:#7E6F83;" d="M249.965,115.586l3.305-29.106c0.098-0.875,0.428-1.708,0.951-2.415
		c12.592-16.974,18.166-46.622,19.762-56.731l-29.592-14.532c-2.268,23.178-12.641,46.41-30.881,69.215
		C227.272,97.811,241.762,109.503,249.965,115.586z"/>
	<path style="fill:#7E6F83;" d="M259.496,154.294l-0.203-32.226l-3.18,28.005C257.168,151.072,258.307,152.44,259.496,154.294z"/>
	<path style="fill:#7E6F83;" d="M157.787,150.076l-3.18-28.009l-0.205,32.233C155.592,152.445,156.731,151.076,157.787,150.076z"/>
	<path style="fill:#7E6F83;" d="M144.879,78.865c-6.84-13.556-10.928-29.499-13.152-40.51c-2.561,9.697-5.068,29.305-3.572,68.573
		c0.004,0.064,0.004,71.439,0.004,71.439h16.092L144.879,78.865z"/>
	<path style="fill:#7E6F83;" d="M181.45,334.862c21.541-21.916,49.006-57.102,57.525-100.262
		c5.465-27.695,6.561-64.012,6.779-77.133h-81.17c-1.652,1.671-7.213,8.993-12.207,35.258c-7.15,37.602-10.174,96.403-9,174.87
		C151.791,361.54,166.26,350.317,181.45,334.862z"/>
	<path style="fill:#7E6F83;" d="M269.02,78.865l0.629,99.502h16.092c0,0,0.002-71.375,0.004-71.439
		c1.498-39.275-1.012-58.874-3.572-68.569C279.948,49.37,275.858,65.311,269.02,78.865z"/>
	<path style="fill:#AB9E85;" d="M249.547,364.042c-11.297-9.307-27.469-24.021-42.611-42.777
		c-6.295,7.824-12.629,14.793-18.537,20.793c-20.064,20.381-38.486,33.363-44.863,37.625v10.877
		c2.543,2.799,15.322,13.33,63.416,13.34c48.377-0.01,61.133-10.756,63.416-13.25v-10.928c-1.119-0.76-2.494-1.732-4.24-2.969
		C262.405,374.118,256.508,369.774,249.547,364.042z"/>
	<path style="fill:#7E6F83;" d="M255.469,169.234c-0.596,17.259-2.223,44.698-6.684,67.302
		c-5.867,29.722-20.109,55.727-35.562,76.591c21.273,26.879,45.383,45.881,57.303,54.465c1.176-78.467-1.85-137.266-8.998-174.868
		C259.5,182.07,257.383,174.543,255.469,169.234z"/>
	<path style="fill:#3F352F;" d="M281.116,19.696L242.051,0.512c-1.535-0.752-3.348-0.671-4.805,0.218
		c-1.459,0.889-2.363,2.46-2.398,4.168c-0.043,2.049-0.182,4.103-0.365,6.157c-3.48,1.087-13.066,2.562-27.533,2.566
		c-14.482-0.004-24.076-1.482-27.547-2.57c-0.183-2.034-0.308-4.084-0.35-6.153c-0.035-1.708-0.939-3.28-2.398-4.168
		c-1.459-0.889-3.272-0.969-4.805-0.218l-39.066,19.184c-1.164,0.325-2.701,1.063-4.293,2.716
		c-8.652,8.988-12.129,37.52-10.332,84.802v76.153c0,2.761,2.238,5,5,5h19.885c-10.17,48.283-9.508,203.767-9.508,203.767
		c0,0.686,0.143,1.365,0.416,1.994c1.436,3.299,15.492,19.771,72.936,19.771c57.444,0,71.631-16.473,73.066-19.771
		c0.273-0.629,0.414-1.309,0.414-1.994c0,0,0.58-154.951-9.506-203.767h19.879c2.762,0,5-2.239,5-5v-76.153
		c1.797-47.282-1.68-75.813-10.332-84.802C283.817,20.759,282.28,20.021,281.116,19.696z M244.391,12.802l29.592,14.532
		c-1.596,10.109-7.17,39.757-19.762,56.731c-0.523,0.707-0.854,1.54-0.951,2.415l-3.305,29.106
		c-8.203-6.083-22.693-17.775-36.455-33.569C231.75,59.212,242.123,35.98,244.391,12.802z M259.496,154.294
		c-1.189-1.854-2.328-3.222-3.383-4.221l3.18-28.005L259.496,154.294z M183.344,22.092c6.33,0.98,14.682,1.522,23.529,1.528
		c0.004,0,0.006,0.001,0.01,0.001c0.024,0,0.045,0,0.066,0c0.023,0,0.045,0,0.066,0c0.004,0,0.008-0.001,0.012-0.001
		c8.848-0.006,17.197-0.547,23.527-1.528c0.711-0.11,1.514-0.236,2.361-0.389c-3.623,17.445-12.293,35.004-25.918,52.434
		c-11.635-14.879-21.855-32.69-26-52.43C181.84,21.858,182.639,21.984,183.344,22.092z M169.52,12.797
		c2.729,27.204,16.916,55.172,41.369,81.372c16,17.142,31.707,28.634,37.781,32.821l-2.326,20.477h-78.789l-6.924-60.987
		c-0.1-0.875-0.428-1.708-0.953-2.415c-12.592-16.974-18.164-46.622-19.762-56.731L169.52,12.797z M157.787,150.076
		c-1.057,1-2.195,2.369-3.385,4.224l0.205-32.233L157.787,150.076z M128.159,178.366c0,0,0-71.375-0.004-71.439
		c-1.496-39.268,1.012-58.876,3.572-68.573c2.225,11.011,6.312,26.954,13.152,40.51l-0.629,99.502H128.159z M152.377,192.725
		c4.994-26.265,10.555-33.587,12.207-35.258h81.17c-0.219,13.122-1.314,49.438-6.779,77.133
		c-8.52,43.16-35.984,78.346-57.525,100.262c-15.189,15.455-29.658,26.678-38.072,32.732
		C142.203,289.128,145.227,230.327,152.377,192.725z M270.368,390.649c-2.283,2.494-15.039,13.24-63.416,13.25
		c-48.094-0.01-60.873-10.541-63.416-13.34v-10.877c6.377-4.262,24.799-17.244,44.863-37.625c5.908-6,12.242-12.969,18.537-20.793
		c15.143,18.756,31.314,33.471,42.611,42.777c6.961,5.732,12.857,10.076,16.58,12.711c1.746,1.236,3.121,2.209,4.24,2.969V390.649z
		 M270.526,367.592c-11.92-8.584-36.029-27.586-57.303-54.465c15.453-20.863,29.695-46.869,35.562-76.591
		c4.461-22.604,6.088-50.043,6.684-67.302c1.914,5.309,4.031,12.835,6.059,23.49C268.676,230.327,271.702,289.126,270.526,367.592z
		 M285.744,106.928c-0.002,0.064-0.004,71.439-0.004,71.439h-16.092l-0.629-99.502c6.838-13.554,10.928-29.495,13.152-40.506
		C284.733,48.054,287.243,67.652,285.744,106.928z"/>
</g>
<g>
</g>
<g>
</g>
<g>
</g>
<g>
</g>
<g>
</g>
<g>
</g>
<g>
</g>
<g>
</g>
<g>
</g>
<g>
</g>
<g>
</g>
<g>
</g>
<g>
</g>
<g>
</g>
<g>
</g>
</svg>
