<?xml version="1.0" encoding="iso-8859-1"?>
<!-- Generator: Adobe Illustrator 19.1.0, SVG Export Plug-In . SVG Version: 6.00 Build 0)  -->
<svg version="1.1" id="Capa_1" xmlns="http://www.w3.org/2000/svg" xmlns:xlink="http://www.w3.org/1999/xlink" x="0px" y="0px"
	 viewBox="0 0 388.473 388.473" style="enable-background:new 0 0 388.473 388.473;" xml:space="preserve">
<g>
	<polygon style="fill:#7E6F83;" points="141.75,66.222 128.149,10 123.02,10 136.813,66.222 	"/>
	<polygon style="fill:#7E6F83;" points="265.453,10 260.323,10 246.723,66.222 251.66,66.222 	"/>
	<path style="fill:#D68E7E;" d="M273.779,272.632c-0.016-0.075-0.029-0.151-0.042-0.228c-10.369-65.266-30.487-83.169-34.822-86.333
		h-89.356c-4.333,3.162-24.452,21.061-34.824,86.333c-0.012,0.076-0.026,0.152-0.041,0.228c-0.179,0.865-4.467,21.458-12.125,43.944
		c-7.936,23.301-16.446,39.639-25.395,48.797c3.44,1.864,6.01,4.387,8.274,6.622c3.809,3.761,6.56,6.478,12.528,6.478
		c5.967,0,8.718-2.717,12.526-6.477c3.552-3.508,7.847-7.724,15.109-8.979l4.939-38.267c0.354-2.739,2.859-4.678,5.599-4.319
		c2.739,0.354,4.672,2.86,4.319,5.599l-4.804,37.215c6.566,1.484,10.587,5.436,13.945,8.751c3.809,3.761,6.561,6.478,12.53,6.478
		c5.969,0,8.72-2.717,12.529-6.477c3.462-3.418,7.623-7.517,14.556-8.886V325.39c0-2.762,2.239-5,5-5c2.762,0,5,2.238,5,5v37.721
		c6.932,1.369,11.093,5.468,14.555,8.885c3.81,3.761,6.562,6.478,12.532,6.478c5.969,0,8.721-2.717,12.529-6.477
		c3.375-3.332,7.417-7.307,14.039-8.774l-4.801-37.192c-0.354-2.738,1.58-5.245,4.319-5.599c2.739-0.356,5.245,1.58,5.599,4.319
		l4.941,38.282c7.205,1.277,11.478,5.472,15.015,8.963c3.81,3.761,6.561,6.478,12.532,6.478s8.723-2.717,12.532-6.478
		c2.265-2.235,4.836-4.759,8.278-6.624c-8.947-9.158-17.457-25.495-25.393-48.796C278.246,294.09,273.958,273.497,273.779,272.632z"
		/>
	<path style="fill:#D68E7E;" d="M238.249,176.071c3.576-4.087,14.727-19.203,22.688-56.028c-2.116-5.424-9.104-24.599-10.208-43.821
		h-9.56c-4.146,1.44-28.147,10.711-42.56,36.637l-0.018-0.01c-0.438,0.79-1.083,1.479-1.931,1.95c-2.414,1.341-5.458,0.472-6.8-1.94
		c-14.485-26.056-38.386-35.208-42.55-36.637h-9.568c-1.104,19.223-8.093,38.397-10.208,43.821
		c7.956,36.807,19.104,51.933,22.686,56.028H238.249z"/>
	<path style="fill:#3F352F;" d="M324.691,363.104c-19.939-9.31-36.399-69.73-41.096-92.384
		c-9.478-59.541-27.233-82.435-35.939-90.369c5.652-7.353,16.011-24.711,23.381-59.723c0.208-0.988,0.111-2.018-0.276-2.95
		c-0.101-0.243-9.997-24.325-10.171-45.884l16.095-65.604c0.365-1.491,0.025-3.068-0.922-4.277C274.814,0.706,273.364,0,271.828,0
		h-15.439c-2.309,0-4.317,1.58-4.859,3.824l-15.38,63.578c-7.296,2.778-27.187,11.936-41.913,33.544
		c-14.726-21.607-34.615-30.765-41.912-33.544L136.944,3.824C136.401,1.58,134.393,0,132.084,0h-15.438
		c-1.536,0-2.986,0.706-3.934,1.914c-0.948,1.209-1.288,2.786-0.922,4.277l16.094,65.602c-0.173,21.559-10.071,45.643-10.172,45.886
		c-0.387,0.933-0.484,1.962-0.276,2.95c7.367,34.998,17.725,52.361,23.381,59.722c-8.707,7.938-26.461,30.837-35.939,90.37
		c-4.692,22.65-21.144,83.067-41.096,92.384c-2.502,1.168-3.583,4.143-2.415,6.646c0.849,1.818,2.651,2.886,4.534,2.886
		c0.003,0,0.007-0.001,0.011-0.001c5.957,0.005,8.707,2.72,12.512,6.477c4.224,4.171,9.481,9.361,19.554,9.361
		c10.072,0,15.328-5.19,19.552-9.36c3.809-3.761,6.56-6.478,12.528-6.478c5.968,0,8.72,2.717,12.528,6.477
		c4.225,4.171,9.482,9.361,19.556,9.361c10.073,0,15.331-5.19,19.555-9.36c3.809-3.761,6.561-6.478,12.53-6.478
		c5.969,0,8.721,2.717,12.529,6.477c4.225,4.171,9.482,9.361,19.558,9.361c10.073,0,15.33-5.19,19.555-9.36
		c3.809-3.761,6.561-6.478,12.53-6.478c5.97,0,8.722,2.717,12.531,6.478c4.225,4.17,9.483,9.36,19.558,9.36
		c10.074,0,15.333-5.19,19.558-9.36c3.807-3.758,6.558-6.473,12.519-6.478c0.004,0,0.007,0.001,0.011,0.001
		c1.882,0,3.685-1.067,4.533-2.886C328.275,367.248,327.193,364.272,324.691,363.104z M260.323,10h5.13L251.66,66.222h-4.938
		L260.323,10z M123.02,10h5.129l13.601,56.222h-4.937L123.02,10z M127.536,120.043c2.116-5.424,9.105-24.599,10.208-43.821h9.568
		c4.165,1.429,28.065,10.581,42.55,36.637c1.342,2.412,4.386,3.281,6.8,1.94c0.848-0.472,1.492-1.16,1.931-1.95l0.018,0.01
		c14.413-25.926,38.413-35.196,42.56-36.637h9.56c1.104,19.223,8.092,38.397,10.208,43.821
		c-7.961,36.825-19.112,51.941-22.688,56.028h-88.027C146.64,171.976,135.491,156.85,127.536,120.043z M303.018,371.995
		c-3.809,3.761-6.561,6.478-12.532,6.478s-8.723-2.717-12.532-6.478c-3.537-3.491-7.81-7.686-15.015-8.963l-4.941-38.282
		c-0.354-2.739-2.859-4.676-5.599-4.319c-2.739,0.354-4.673,2.86-4.319,5.599l4.801,37.192c-6.622,1.468-10.664,5.442-14.039,8.774
		c-3.809,3.76-6.561,6.477-12.529,6.477c-5.971,0-8.723-2.717-12.532-6.478c-3.462-3.417-7.623-7.516-14.555-8.885V325.39
		c0-2.762-2.238-5-5-5c-2.761,0-5,2.238-5,5v37.721c-6.933,1.369-11.094,5.468-14.556,8.886c-3.809,3.76-6.561,6.477-12.529,6.477
		c-5.969,0-8.721-2.717-12.53-6.478c-3.358-3.315-7.379-7.267-13.945-8.751l4.804-37.215c0.354-2.738-1.58-5.245-4.319-5.599
		c-2.74-0.358-5.245,1.58-5.599,4.319l-4.939,38.267c-7.262,1.256-11.557,5.472-15.109,8.979c-3.808,3.76-6.559,6.477-12.526,6.477
		c-5.968,0-8.72-2.717-12.528-6.478c-2.264-2.235-4.834-4.758-8.274-6.622c8.948-9.158,17.459-25.496,25.395-48.797
		c7.658-22.486,11.946-43.079,12.125-43.944c0.016-0.075,0.029-0.151,0.041-0.228c10.372-65.272,30.491-83.171,34.824-86.333h89.356
		c4.335,3.164,24.453,21.067,34.822,86.333c0.013,0.076,0.026,0.152,0.042,0.228c0.179,0.865,4.467,21.458,12.125,43.943
		c7.936,23.301,16.445,39.638,25.393,48.796C307.854,367.236,305.283,369.76,303.018,371.995z"/>
</g>
<g>
</g>
<g>
</g>
<g>
</g>
<g>
</g>
<g>
</g>
<g>
</g>
<g>
</g>
<g>
</g>
<g>
</g>
<g>
</g>
<g>
</g>
<g>
</g>
<g>
</g>
<g>
</g>
<g>
</g>
</svg>
