<?xml version="1.0" encoding="iso-8859-1"?>
<!-- Generator: Adobe Illustrator 19.1.0, SVG Export Plug-In . SVG Version: 6.00 Build 0)  -->
<svg version="1.1" id="Capa_1" xmlns="http://www.w3.org/2000/svg" xmlns:xlink="http://www.w3.org/1999/xlink" x="0px" y="0px"
	 viewBox="0 0 415.051 415.051" style="enable-background:new 0 0 415.051 415.051;" xml:space="preserve">
<g>
	<path style="fill:#C7BEA8;" d="M140.942,22.802c-11.031-3.907-18.243-8.124-22.318-10.943
		c-6.499,8.146-22.066,30.846-25.703,65.208c3.865,4.779,17.773,20.321,37.876,24.047c1.29-4.802,3.055-15.37,1.005-33.558
		C128.902,41.815,135.038,29.818,140.942,22.802z"/>
	<path style="fill:#E3D282;" d="M260.539,159.148h-3.588c4.08,7.322,8.776,20.008,11.214,41.472c0.312,2.744-1.66,5.221-4.403,5.532
		c-0.191,0.021-0.383,0.032-0.57,0.032c-2.51,0-4.673-1.884-4.962-4.437c-3.304-29.09-10.761-39.703-13.363-42.6h-74.68
		c-2.604,2.898-10.06,13.511-13.365,42.601c-0.29,2.552-2.453,4.436-4.962,4.436c-0.188,0-0.379-0.011-0.571-0.032
		c-2.744-0.312-4.715-2.789-4.404-5.533c2.438-21.463,7.136-34.149,11.217-41.472h-3.59c-2.28,1.685-10.523,9.359-18.75,36.587
		c-8.694,28.776-19.085,85.923-19.465,195.041c7.266,3.631,33.5,14.275,91.229,14.275c58.202,0,84.045-10.591,91.23-14.247
		c-0.379-109.133-10.771-166.291-19.466-195.07C271.063,168.507,262.82,160.833,260.539,159.148z"/>
	<path style="fill:#7E6F83;" d="M207.525,68.446c44.722,0,61.879-8.795,66.449-11.82c0.334-18.801-5.766-25.885-10.479-30.537
		c-13.969,3.758-32.356,6.627-55.969,6.627c-0.001,0-0.001,0-0.002,0c-23.613,0-42.001-2.869-55.97-6.627
		c-4.711,4.649-10.805,11.726-10.481,30.499C145.795,59.661,163.174,68.446,207.525,68.446z"/>
	<path style="fill:#E3D282;" d="M273.101,68.421c-10.085,4.543-29.683,10.025-65.574,10.026c-0.001,0-0.001,0-0.002,0
		c-35.882-0.001-55.487-5.482-65.576-10.024c2.354,23.208-1.08,34.975-2.706,39.031c0.601,5.078,3.718,25.492,16.299,41.694h3.214
		c-2.656-4.988-5.208-11.962-5.208-20.384c0-2.761,2.239-5,5-5c2.761,0,5,2.239,5,5c0,9.992,4.692,17.355,7.009,20.384h73.919
		c2.31-3.053,7.027-10.495,7.027-20.384c0-2.761,2.238-5,5-5c2.762,0,5,2.239,5,5c0,8.422-2.552,15.395-5.208,20.384h3.214
		c12.635-16.262,15.712-36.621,16.302-41.689C274.185,103.407,270.747,91.64,273.101,68.421z"/>
	<path style="fill:#C7BEA8;" d="M274.107,22.803c5.903,7.016,12.041,19.012,9.141,44.753c-2.047,18.159-0.289,28.722,1.013,33.557
		c20.093-3.726,33.998-19.258,37.869-24.047c-3.645-34.505-19.192-57.108-25.692-65.215
		C292.364,14.672,285.15,18.892,274.107,22.803z"/>
	<path style="fill:#3F352F;" d="M300.698,1.496c-1.909-1.949-5.021-1.993-6.995-0.129l-0.006-0.006
		c-0.229,0.213-23.643,21.355-86.172,21.355c-62.38,0-85.832-21.042-86.17-21.354c-1.979-1.871-5.092-1.804-6.998,0.139
		l-0.004-0.004c-1.106,1.128-27.151,28.189-31.58,76.599c-0.109,1.186,0.21,2.371,0.896,3.343
		c0.745,1.053,17.82,24.75,45.955,29.612c1.163,7.962,4.954,26.212,16.454,42.131c-12.181,11.714-39.457,58.291-39.788,240.516
		c-0.003,1.654,0.812,3.203,2.176,4.137c1.028,0.703,26.004,17.217,99.06,17.218c0.001,0,0.001,0,0.002,0
		c73.055-0.001,98.032-16.515,99.059-17.218c1.365-0.934,2.18-2.482,2.177-4.137c-0.332-182.225-27.608-228.802-39.79-240.516
		c11.5-15.918,15.292-34.169,16.456-42.13c28.134-4.861,45.209-28.559,45.953-29.612c0.688-0.972,1.006-2.157,0.898-3.343
		C327.852,29.686,301.805,2.624,300.698,1.496z M151.555,26.089c13.969,3.758,32.356,6.627,55.97,6.627c0.001,0,0.001,0,0.002,0
		c23.612,0,42-2.869,55.969-6.627c4.713,4.652,10.812,11.736,10.479,30.537c-4.57,3.025-21.728,11.82-66.449,11.82
		c-44.351,0-61.73-8.785-66.45-11.859C140.75,37.815,146.845,30.738,151.555,26.089z M130.797,101.114
		c-20.103-3.726-34.011-19.268-37.876-24.047c3.636-34.362,19.203-57.062,25.703-65.208c4.076,2.819,11.287,7.036,22.318,10.943
		c-5.903,7.016-12.04,19.013-9.14,44.754C133.852,85.745,132.087,96.312,130.797,101.114z M279.289,195.734
		c8.695,28.779,19.087,85.937,19.466,195.07c-7.186,3.656-33.028,14.247-91.23,14.247c-57.729,0-83.962-10.645-91.229-14.275
		c0.38-109.118,10.771-166.265,19.465-195.041c8.227-27.228,16.47-34.902,18.75-36.587h3.59
		c-4.081,7.322-8.778,20.008-11.217,41.472c-0.312,2.744,1.66,5.221,4.404,5.533c0.192,0.021,0.382,0.032,0.571,0.032
		c2.509,0,4.672-1.884,4.962-4.436c3.305-29.09,10.761-39.703,13.365-42.601h74.68c2.603,2.898,10.06,13.51,13.363,42.6
		c0.289,2.552,2.452,4.437,4.962,4.437c0.188,0,0.379-0.011,0.57-0.032c2.743-0.311,4.715-2.788,4.403-5.532
		c-2.438-21.464-7.134-34.15-11.214-41.472h3.588C262.82,160.833,271.063,168.507,279.289,195.734z M259.509,149.148h-3.214
		c2.656-4.988,5.208-11.962,5.208-20.384c0-2.761-2.238-5-5-5c-2.762,0-5,2.239-5,5c0,9.889-4.718,17.331-7.027,20.384h-73.919
		c-2.317-3.028-7.009-10.392-7.009-20.384c0-2.761-2.239-5-5-5c-2.761,0-5,2.239-5,5c0,8.422,2.552,15.395,5.208,20.384h-3.214
		c-12.581-16.202-15.698-36.616-16.299-41.694c1.626-4.056,5.06-15.822,2.706-39.031c10.089,4.542,29.694,10.023,65.576,10.024
		c0.001,0,0.001,0,0.002,0c35.892-0.001,55.489-5.483,65.574-10.026c-2.354,23.219,1.084,34.986,2.71,39.038
		C275.221,112.527,272.144,132.885,259.509,149.148z M284.26,101.113c-1.302-4.835-3.06-15.398-1.013-33.557
		c2.9-25.742-3.237-37.738-9.141-44.753c11.043-3.911,18.257-8.131,22.33-10.951c6.5,8.107,22.047,30.71,25.692,65.215
		C318.258,81.855,304.353,97.387,284.26,101.113z"/>
</g>
<g>
</g>
<g>
</g>
<g>
</g>
<g>
</g>
<g>
</g>
<g>
</g>
<g>
</g>
<g>
</g>
<g>
</g>
<g>
</g>
<g>
</g>
<g>
</g>
<g>
</g>
<g>
</g>
<g>
</g>
</svg>
