<?xml version="1.0" encoding="iso-8859-1"?>
<!-- Generator: Adobe Illustrator 19.1.0, SVG Export Plug-In . SVG Version: 6.00 Build 0)  -->
<svg version="1.1" id="Capa_1" xmlns="http://www.w3.org/2000/svg" xmlns:xlink="http://www.w3.org/1999/xlink" x="0px" y="0px"
	 viewBox="0 0 429.405 429.405" style="enable-background:new 0 0 429.405 429.405;" xml:space="preserve">
<g>
	<path style="fill:#A9D8C8;" d="M180.533,125.909h5.482c-1.073-3.517-1.834-8.137-1.427-13.837c0.197-2.755,2.588-4.83,5.344-4.631
		c2.754,0.196,4.828,2.589,4.631,5.344c-0.46,6.44,1.037,10.822,2.154,13.124h17.986h17.991c1.105-2.282,2.61-6.669,2.149-13.124
		c-0.197-2.755,1.877-5.147,4.631-5.344c2.768-0.191,5.148,1.877,5.344,4.631c0.407,5.7-0.354,10.32-1.427,13.837h5.482
		c0.968,0,2.079-0.651,3.128-1.833c3.019-3.402,5.698-11.586,4.167-24.349c-2.316-19.301-2.038-40.867-1.974-44.388
		c-1.673-9.618-12.496-27.297-18.663-36.521c-6.018,2.21-13.442,3.337-20.827,3.337c-7.385,0-14.809-1.127-20.827-3.337
		c-6.167,9.224-16.99,26.902-18.663,36.521c0.064,3.52,0.342,25.087-1.974,44.388c-1.531,12.763,1.148,20.946,4.167,24.349
		C178.455,125.258,179.565,125.909,180.533,125.909z"/>
	<path style="fill:#A9D8C8;" d="M248.872,135.909h-4.096c2.707,6.458,5.149,17.143,5.149,34.691c0,2.762-2.239,5-5,5
		c-2.761,0-5-2.238-5-5c0-23.668-4.61-32.213-6.462-34.691h-18.76h-18.76c-1.854,2.479-6.463,11.024-6.463,34.691
		c0,2.762-2.239,5-5,5c-2.761,0-5-2.238-5-5c0-17.549,2.443-28.233,5.149-34.691h-4.096c-0.042,0-0.084-0.007-0.126-0.008
		c-2.96,4.045-13.71,25.397-16.049,123.815V407.7c3.064,2.884,15.307,11.705,50.345,11.705s47.281-8.821,50.345-11.705V259.717
		c-2.339-98.418-13.089-119.771-16.049-123.815C248.956,135.902,248.915,135.909,248.872,135.909z"/>
	<path style="fill:#3F352F;" d="M258.307,131.917c0.403-0.377,0.795-0.777,1.173-1.204c5.864-6.61,8.276-18.339,6.615-32.177
		c-2.39-19.92-1.901-43.204-1.896-43.437c0.007-0.287-0.012-0.575-0.055-0.858c-1.838-12.173-14.067-31.642-19.868-40.338
		c2.766-2.442,4.409-5.414,4.409-8.903c0-2.762-2.239-5-5-5c-2.761,0-5,2.238-5,5c0,1.839-8.246,7.156-23.982,7.156
		S190.72,6.839,190.72,5c0-2.762-2.239-5-5-5c-2.761,0-5,2.238-5,5c0,3.488,1.643,6.461,4.408,8.903
		c-5.799,8.694-18.029,28.166-19.867,40.338c-0.043,0.283-0.061,0.571-0.055,0.858c0.005,0.232,0.494,23.517-1.896,43.437
		c-1.661,13.838,0.751,25.566,6.615,32.177c0.381,0.43,0.776,0.833,1.182,1.212c-9.173,15.709-15.157,60.525-16.749,127.614
		c-0.001,0.039-0.001,0.079-0.001,0.118v149.925c0,0.938,0.264,1.856,0.761,2.651c1.099,1.758,12.109,17.172,59.585,17.172
		s58.485-15.414,59.585-17.172c0.497-0.795,0.761-1.714,0.761-2.651V259.657c0-0.039,0-0.079-0.001-0.118
		C273.456,192.467,267.476,147.637,258.307,131.917z M173.239,99.728c2.316-19.301,2.038-40.867,1.974-44.388
		c1.673-9.618,12.496-27.297,18.663-36.521c6.018,2.21,13.442,3.337,20.827,3.337c7.385,0,14.809-1.127,20.827-3.337
		c6.167,9.224,16.99,26.902,18.663,36.521c-0.064,3.52-0.342,25.087,1.974,44.388c1.531,12.763-1.148,20.946-4.167,24.349
		c-1.049,1.182-2.16,1.833-3.128,1.833h-5.482c1.073-3.517,1.834-8.137,1.427-13.837c-0.196-2.754-2.576-4.822-5.344-4.631
		c-2.754,0.196-4.828,2.589-4.631,5.344c0.461,6.455-1.043,10.842-2.149,13.124h-17.991h-17.986
		c-1.117-2.302-2.614-6.684-2.154-13.124c0.197-2.755-1.876-5.147-4.631-5.344c-2.756-0.199-5.147,1.876-5.344,4.631
		c-0.407,5.7,0.354,10.32,1.427,13.837h-5.482c-0.968,0-2.079-0.651-3.128-1.833C174.387,120.674,171.708,112.49,173.239,99.728z
		 M265.048,407.7c-3.064,2.884-15.307,11.705-50.345,11.705s-47.281-8.821-50.345-11.705V259.717
		c2.339-98.418,13.089-119.771,16.049-123.815c0.042,0.001,0.084,0.008,0.126,0.008h4.096c-2.707,6.458-5.149,17.143-5.149,34.691
		c0,2.762,2.239,5,5,5c2.761,0,5-2.238,5-5c0-23.667,4.609-32.213,6.463-34.691h18.76h18.76c1.852,2.479,6.462,11.023,6.462,34.691
		c0,2.762,2.239,5,5,5c2.761,0,5-2.238,5-5c0-17.549-2.443-28.233-5.149-34.691h4.096c0.043,0,0.084-0.007,0.127-0.008
		c2.96,4.045,13.71,25.397,16.049,123.815V407.7z"/>
</g>
<g>
</g>
<g>
</g>
<g>
</g>
<g>
</g>
<g>
</g>
<g>
</g>
<g>
</g>
<g>
</g>
<g>
</g>
<g>
</g>
<g>
</g>
<g>
</g>
<g>
</g>
<g>
</g>
<g>
</g>
</svg>
