<?xml version="1.0" encoding="iso-8859-1"?>
<!-- Generator: Adobe Illustrator 19.1.0, SVG Export Plug-In . SVG Version: 6.00 Build 0)  -->
<svg version="1.1" id="Capa_1" xmlns="http://www.w3.org/2000/svg" xmlns:xlink="http://www.w3.org/1999/xlink" x="0px" y="0px"
	 viewBox="0 0 387.713 387.713" style="enable-background:new 0 0 387.713 387.713;" xml:space="preserve">
<path style="fill:#AB9E85;" d="M136.77,161.412l14.017-41.172c0.671-3.387,6.327-31.573,14.147-60.159
	c0.212-0.776,0.43-1.537,0.652-2.281c-12.41,17.586-28.106,47.555-45.394,98.55c0.787-0.086,1.585-0.133,2.394-0.133
	C127.986,156.217,132.936,158.174,136.77,161.412z M128.906,142.398c0.94-0.93,2.22-1.46,3.54-1.46c1.32,0,2.6,0.53,3.53,1.46
	c0.941,0.93,1.47,2.22,1.47,3.54c0,1.309-0.53,2.6-1.47,3.53c-0.92,0.93-2.21,1.47-3.53,1.47c-1.32,0-2.61-0.54-3.54-1.47
	c-0.93-0.93-1.46-2.22-1.46-3.53C127.446,144.618,127.976,143.328,128.906,142.398z"/>
<path style="fill:#AB9E85;" d="M236.926,120.24l14.017,41.172c3.835-3.238,8.784-5.195,14.184-5.195
	c0.807,0,1.603,0.047,2.387,0.132c-17.281-50.969-32.97-80.924-45.376-98.516c0.218,0.733,0.433,1.484,0.642,2.248
	C230.6,88.666,236.255,116.853,236.926,120.24z M251.726,142.398c0.93-0.93,2.22-1.46,3.54-1.46c1.32,0,2.61,0.53,3.54,1.46
	c0.93,0.93,1.46,2.22,1.46,3.54c0,1.309-0.53,2.6-1.46,3.53c-0.94,0.93-2.22,1.47-3.54,1.47c-1.31,0-2.6-0.54-3.54-1.47
	c-0.93-0.93-1.46-2.22-1.46-3.53C250.266,144.618,250.796,143.328,251.726,142.398z"/>
<rect x="318.821" y="174.347" style="fill:#DAB342;" width="13.016" height="4.977"/>
<polygon style="fill:#AB9E85;" points="255.873,197.306 252.14,211.481 265.127,218.056 278.114,211.481 274.381,197.306 "/>
<path style="fill:#DAB342;" d="M310.407,265.995c0.004,0.156,0.024,0.309,0.024,0.467v11.959c0,0.158-0.02,0.311-0.024,0.468
	c3.271-0.325,5.833-3.093,5.833-6.447C316.239,269.087,313.677,266.32,310.407,265.995z"/>
<path style="fill:#C7BEA8;" d="M291.799,257.829H95.914c-4.76,0-8.632,3.873-8.632,8.633v11.959c0,4.76,3.872,8.633,8.632,8.633
	h23.047l1.24-9.612h-1.206c-2.761,0-5-2.239-5-5c0-2.761,2.239-5,5-5h149.723c2.761,0,5,2.239,5,5c0,2.761-2.239,5-5,5H140.911
	l1.24,9.612h149.648c4.76,0,8.632-3.873,8.632-8.633v-11.959C300.431,261.702,296.559,257.829,291.799,257.829z"/>
<polygon style="fill:#AB9E85;" points="135.573,211.481 131.84,197.306 113.332,197.306 109.599,211.481 122.586,218.056 "/>
<path style="fill:#A9D8C8;" d="M341.837,183.066v1.258c0,2.761-2.239,5-5,5h-23.016c-2.761,0-5-2.239-5-5v-2.489h-21.977
	c-0.548,3.318-1.867,6.428-3.797,9.134c0.006,0.021,0.017,0.041,0.023,0.063l5.744,21.811c0.601,2.279-0.473,4.67-2.577,5.734
	l-18.851,9.544c-0.71,0.359-1.484,0.539-2.258,0.539c-0.774,0-1.548-0.18-2.258-0.539l-18.851-9.544
	c-2.103-1.064-3.177-3.455-2.577-5.734l5.744-21.811c0.003-0.013,0.01-0.024,0.013-0.037c-1.93-2.714-3.238-5.84-3.788-9.16h-99.107
	c-0.548,3.314-1.869,6.423-3.798,9.13c0.006,0.023,0.018,0.044,0.024,0.067l5.744,21.811c0.601,2.279-0.473,4.67-2.577,5.734
	l-18.851,9.544c-0.71,0.359-1.484,0.539-2.258,0.539s-1.548-0.18-2.258-0.539l-18.851-9.544c-2.103-1.064-3.177-3.455-2.577-5.734
	l5.744-21.811c0.004-0.018,0.013-0.033,0.018-0.05c-1.931-2.71-3.245-5.827-3.793-9.147H78.892v2.489c0,2.761-2.239,5-5,5H50.875
	c-2.761,0-5-2.239-5-5v-1.258C31.126,189.693,10,222.979,10,268.375c0,50.999,15.915,86.54,30.198,86.54h307.317
	c14.283,0,30.197-35.541,30.197-86.54C377.713,222.979,356.586,189.693,341.837,183.066z M309.759,288.922h-2.582
	c-3.36,4.904-8.997,8.132-15.378,8.132H143.44l2.306,17.882c0.184,1.426-0.255,2.862-1.204,3.941
	c-0.949,1.079-2.317,1.698-3.755,1.698h-20.463c-1.438,0-2.806-0.619-3.755-1.698c-0.949-1.079-1.388-2.516-1.204-3.941
	l2.306-17.882H95.914c-6.38,0-12.018-3.228-15.378-8.132h-2.582c-9.087,0-16.48-7.394-16.48-16.48c0-9.087,7.393-16.48,16.48-16.48
	h2.582c3.359-4.905,8.998-8.133,15.378-8.133h195.885c6.381,0,12.019,3.227,15.378,8.133h2.582c9.087,0,16.48,7.393,16.48,16.48
	C326.239,281.528,318.846,288.922,309.759,288.922z"/>
<path style="fill:#DAB342;" d="M77.306,265.995c-3.271,0.325-5.833,3.092-5.833,6.446c0,3.354,2.562,6.122,5.833,6.447
	c-0.004-0.156-0.024-0.31-0.024-0.468v-11.959C77.282,266.304,77.302,266.151,77.306,265.995z"/>
<rect x="55.875" y="174.347" style="fill:#DAB342;" width="13.016" height="4.977"/>
<path style="fill:#3F352F;" d="M132.446,150.938c1.32,0,2.61-0.54,3.53-1.47c0.941-0.93,1.47-2.22,1.47-3.53
	c0-1.32-0.53-2.61-1.47-3.54c-0.93-0.93-2.21-1.46-3.53-1.46c-1.32,0-2.6,0.53-3.54,1.46c-0.93,0.93-1.46,2.22-1.46,3.54
	c0,1.309,0.53,2.6,1.46,3.53C129.836,150.398,131.126,150.938,132.446,150.938z"/>
<path style="fill:#3F352F;" d="M255.266,150.938c1.32,0,2.6-0.54,3.54-1.47c0.93-0.93,1.46-2.22,1.46-3.53
	c0-1.32-0.53-2.61-1.46-3.54c-0.93-0.93-2.22-1.46-3.54-1.46c-1.32,0-2.61,0.53-3.54,1.46c-0.93,0.93-1.46,2.22-1.46,3.54
	c0,1.309,0.53,2.6,1.46,3.53C252.666,150.398,253.956,150.938,255.266,150.938z"/>
<polygon style="fill:none;" points="131.913,285.858 132.068,287.054 132.068,287.054 130.828,277.441 130.283,277.441 
	129.043,287.054 129.043,287.054 129.198,285.858 "/>
<polygon style="fill:none;" points="127.65,297.858 127.754,297.054 127.754,297.054 126.01,310.575 135.102,310.575 
	133.461,297.858 "/>
<path style="fill:none;" d="M77.306,265.995c-3.271,0.325-5.833,3.092-5.833,6.446c0,3.354,2.562,6.122,5.833,6.447
	c-0.004-0.156-0.024-0.31-0.024-0.468v-11.959C77.282,266.304,77.302,266.151,77.306,265.995z"/>
<path style="fill:none;" d="M291.799,257.829H95.914c-4.76,0-8.632,3.873-8.632,8.633v11.959c0,4.76,3.872,8.633,8.632,8.633h23.047
	l1.24-9.612h-1.206c-2.761,0-5-2.239-5-5c0-2.761,2.239-5,5-5h149.723c2.761,0,5,2.239,5,5c0,2.761-2.239,5-5,5H140.911l1.24,9.612
	h149.648c4.76,0,8.632-3.873,8.632-8.633v-11.959C300.431,261.702,296.559,257.829,291.799,257.829z"/>
<path style="fill:none;" d="M310.407,265.995c0.004,0.156,0.024,0.309,0.024,0.467v11.959c0,0.158-0.02,0.311-0.024,0.468
	c3.271-0.325,5.833-3.093,5.833-6.447C316.239,269.087,313.677,266.32,310.407,265.995z"/>
<g>
	<path style="fill:none;" d="M77.306,265.995c-3.271,0.325-5.833,3.092-5.833,6.446c0,3.354,2.562,6.122,5.833,6.447
		c-0.004-0.156-0.024-0.31-0.024-0.468v-11.959C77.282,266.304,77.302,266.151,77.306,265.995z"/>
	<path style="fill:none;" d="M291.799,257.829H95.914c-4.76,0-8.632,3.873-8.632,8.633v11.959c0,4.76,3.872,8.633,8.632,8.633
		h23.047l1.24-9.612h-1.206c-2.761,0-5-2.239-5-5c0-2.761,2.239-5,5-5h149.723c2.761,0,5,2.239,5,5c0,2.761-2.239,5-5,5H140.911
		l1.24,9.612h149.648c4.76,0,8.632-3.873,8.632-8.633v-11.959C300.431,261.702,296.559,257.829,291.799,257.829z"/>
	<path style="fill:none;" d="M310.407,265.995c0.004,0.156,0.024,0.309,0.024,0.467v11.959c0,0.158-0.02,0.311-0.024,0.468
		c3.271-0.325,5.833-3.093,5.833-6.447C316.239,269.087,313.677,266.32,310.407,265.995z"/>
	<polygon style="fill:#DAB342;" points="130.828,277.441 130.283,277.441 126.01,310.575 135.102,310.575 	"/>
	<path style="fill:#3F352F;" d="M309.759,255.962h-2.582c-3.359-4.905-8.998-8.133-15.378-8.133H95.914
		c-6.381,0-12.019,3.227-15.378,8.133h-2.582c-9.087,0-16.48,7.393-16.48,16.48c0,9.087,7.393,16.48,16.48,16.48h2.582
		c3.36,4.904,8.998,8.132,15.378,8.132h21.757l-2.306,17.882c-0.184,1.426,0.255,2.862,1.204,3.941
		c0.949,1.079,2.317,1.698,3.755,1.698h20.463c1.438,0,2.806-0.619,3.755-1.698c0.949-1.079,1.388-2.516,1.204-3.941l-2.306-17.882
		h148.358c6.38,0,12.018-3.228,15.378-8.132h2.582c9.087,0,16.48-7.394,16.48-16.48
		C326.239,263.354,318.846,255.962,309.759,255.962z M77.306,278.889c-3.271-0.325-5.833-3.093-5.833-6.447
		c0-3.355,2.562-6.121,5.833-6.446c-0.004,0.156-0.024,0.309-0.024,0.467v11.959C77.282,278.579,77.302,278.732,77.306,278.889z
		 M126.01,310.575l4.273-33.134h0.545l4.273,33.134H126.01z M300.431,278.421c0,4.76-3.872,8.633-8.632,8.633H142.151l-1.24-9.612
		h127.807c2.761,0,5-2.239,5-5c0-2.761-2.239-5-5-5H118.995c-2.761,0-5,2.239-5,5c0,2.761,2.239,5,5,5h1.206l-1.24,9.612H95.914
		c-4.76,0-8.632-3.873-8.632-8.633v-11.959c0-4.76,3.872-8.633,8.632-8.633h195.885c4.76,0,8.632,3.873,8.632,8.633V278.421z
		 M310.407,278.889c0.004-0.156,0.024-0.31,0.024-0.468v-11.959c0-0.158-0.02-0.31-0.024-0.467c3.271,0.325,5.833,3.092,5.833,6.446
		C316.239,275.796,313.677,278.563,310.407,278.889z"/>
</g>
<g>
	<path style="fill:none;" d="M254.971,171.835h20.312c-2.132-3.37-5.882-5.618-10.156-5.618S257.103,168.465,254.971,171.835z"/>
	<path style="fill:none;" d="M236.926,120.24l14.017,41.172c3.835-3.238,8.784-5.195,14.184-5.195c0.807,0,1.603,0.047,2.387,0.132
		c-17.281-50.969-32.97-80.924-45.376-98.516c0.218,0.733,0.433,1.484,0.642,2.248C230.6,88.666,236.255,116.853,236.926,120.24z"/>
	<path style="fill:none;" d="M136.77,161.412l14.017-41.172c0.671-3.387,6.327-31.573,14.147-60.159
		c0.212-0.776,0.43-1.537,0.652-2.281c-12.41,17.586-28.106,47.555-45.394,98.55c0.787-0.086,1.585-0.133,2.394-0.133
		C127.986,156.217,132.936,158.174,136.77,161.412z"/>
	<polygon style="fill:none;" points="252.14,211.481 265.127,218.056 278.114,211.481 274.381,197.306 255.873,197.306 	"/>
	<rect x="318.821" y="174.347" style="fill:none;" width="13.016" height="4.977"/>
	<path style="fill:none;" d="M160.361,123.146l-16.575,48.688h100.142l-16.575-48.688c-0.073-0.213-0.131-0.432-0.174-0.653
		c-0.058-0.295-5.85-29.82-14.044-59.774c-6.121-22.376-16.066-28.292-19.236-29.646c-3.216,1.411-13.25,7.462-19.319,29.646
		c-8.198,29.97-13.987,59.479-14.045,59.774C160.492,122.715,160.434,122.933,160.361,123.146z"/>
	<rect x="55.875" y="174.347" style="fill:none;" width="13.016" height="4.977"/>
	<path style="fill:none;" d="M341.837,183.066v1.258c0,2.761-2.239,5-5,5h-23.016c-2.761,0-5-2.239-5-5v-2.489h-21.977
		c-0.548,3.318-1.867,6.428-3.797,9.134c0.006,0.021,0.017,0.041,0.023,0.063l5.744,21.811c0.601,2.279-0.473,4.67-2.577,5.734
		l-18.851,9.544c-0.71,0.359-1.484,0.539-2.258,0.539c-0.774,0-1.548-0.18-2.258-0.539l-18.851-9.544
		c-2.103-1.064-3.177-3.455-2.577-5.734l5.744-21.811c0.003-0.013,0.01-0.024,0.013-0.037c-1.93-2.714-3.238-5.84-3.788-9.16
		h-99.107c-0.548,3.314-1.869,6.423-3.798,9.13c0.006,0.023,0.018,0.044,0.024,0.067l5.744,21.811
		c0.601,2.279-0.473,4.67-2.577,5.734l-18.851,9.544c-0.71,0.359-1.484,0.539-2.258,0.539s-1.548-0.18-2.258-0.539l-18.851-9.544
		c-2.103-1.064-3.177-3.455-2.577-5.734l5.744-21.811c0.004-0.018,0.013-0.033,0.018-0.05c-1.931-2.71-3.245-5.827-3.793-9.147
		H78.892v2.489c0,2.761-2.239,5-5,5H50.875c-2.761,0-5-2.239-5-5v-1.258C31.126,189.693,10,222.979,10,268.375
		c0,50.999,15.915,86.54,30.198,86.54h307.317c14.283,0,30.197-35.541,30.197-86.54
		C377.713,222.979,356.586,189.693,341.837,183.066z"/>
	<polygon style="fill:none;" points="109.599,211.481 122.586,218.056 135.573,211.481 131.84,197.306 113.332,197.306 	"/>
	<path style="fill:none;" d="M122.586,166.217c-4.274,0-8.024,2.249-10.156,5.618h20.312
		C130.61,168.465,126.86,166.217,122.586,166.217z"/>
	<path style="fill:#A9D8C8;" d="M130.46,187.306c1.684-1.47,2.911-3.366,3.573-5.471h-22.896c0.662,2.106,1.89,4.001,3.574,5.471
		H130.46z"/>
	<path style="fill:#A9D8C8;" d="M273.001,187.306c1.685-1.47,2.913-3.365,3.574-5.471H253.68c0.662,2.105,1.889,4.001,3.573,5.471
		H273.001z"/>
	<path style="fill:#3F352F;" d="M371.454,201.251c-8.629-15.814-19.389-26.149-29.617-28.758v-3.146c0-2.761-2.239-5-5-5h-23.016
		c-2.761,0-5,2.239-5,5v2.488h-22.63c-1.173-3.852-3.369-7.262-6.279-9.903c-43.984-134.402-80.41-139.228-86.022-139.13
		c-5.387-0.159-41.945,4.187-86.102,139.142c-2.904,2.64-5.095,6.045-6.267,9.892h-22.63v-2.488c0-2.761-2.239-5-5-5H50.875
		c-2.761,0-5,2.239-5,5v3.151c-10.228,2.608-20.987,12.939-29.616,28.753C5.774,220.467,0,244.306,0,268.375
		c0,25.05,3.78,48.675,10.642,66.522c7.443,19.357,17.939,30.017,29.556,30.017h307.317c11.616,0,22.112-10.66,29.556-30.017
		c6.862-17.848,10.642-41.473,10.642-66.522C387.713,244.306,381.938,220.467,371.454,201.251z M318.821,174.347h13.016v4.978
		h-13.016V174.347z M278.114,211.481l-12.987,6.574l-12.987-6.574l3.733-14.176h18.508L278.114,211.481z M276.576,181.835
		c-0.662,2.106-1.89,4.001-3.574,5.471h-15.749c-1.684-1.47-2.911-3.366-3.573-5.471H276.576z M275.283,171.835h-20.312
		c2.132-3.37,5.882-5.618,10.156-5.618S273.151,168.465,275.283,171.835z M267.514,156.348c-0.785-0.085-1.581-0.132-2.387-0.132
		c-5.4,0-10.35,1.957-14.184,5.195l-14.017-41.172c-0.671-3.387-6.327-31.573-14.147-60.159c-0.209-0.764-0.423-1.515-0.642-2.248
		C234.544,75.425,250.233,105.379,267.514,156.348z M174.579,62.719c6.069-22.184,16.103-28.236,19.319-29.646
		c3.169,1.354,13.115,7.271,19.236,29.646c8.194,29.954,13.987,59.479,14.044,59.774c0.043,0.222,0.101,0.44,0.174,0.653
		l16.575,48.688H143.786l16.575-48.688c0.073-0.213,0.131-0.432,0.174-0.653C160.592,122.199,166.381,92.689,174.579,62.719z
		 M165.585,57.799c-0.222,0.744-0.439,1.505-0.652,2.281c-7.82,28.586-13.476,56.772-14.147,60.159l-14.017,41.172
		c-3.834-3.238-8.784-5.195-14.184-5.195c-0.81,0-1.608,0.047-2.394,0.133C137.479,105.354,153.176,75.386,165.585,57.799z
		 M135.573,211.481l-12.987,6.574l-12.987-6.574l3.733-14.176h18.508L135.573,211.481z M134.034,181.835
		c-0.662,2.105-1.89,4.001-3.573,5.471h-15.749c-1.685-1.47-2.913-3.365-3.574-5.471H134.034z M122.586,166.217
		c4.274,0,8.024,2.249,10.156,5.618H112.43C114.562,168.465,118.312,166.217,122.586,166.217z M55.875,174.347h13.016v4.978H55.875
		V174.347z M347.516,354.915H40.198c-14.283,0-30.198-35.541-30.198-86.54c0-45.396,21.126-78.682,35.875-85.309v1.258
		c0,2.761,2.239,5,5,5h23.016c2.761,0,5-2.239,5-5v-2.489h21.977c0.548,3.32,1.862,6.437,3.793,9.147
		c-0.005,0.017-0.014,0.033-0.018,0.05L98.9,212.843c-0.601,2.279,0.473,4.67,2.577,5.734l18.851,9.544
		c0.71,0.359,1.484,0.539,2.258,0.539s1.548-0.18,2.258-0.539l18.851-9.544c2.104-1.064,3.177-3.455,2.577-5.734l-5.744-21.811
		c-0.006-0.023-0.018-0.044-0.024-0.067c1.93-2.706,3.25-5.815,3.798-9.13h99.107c0.549,3.32,1.857,6.446,3.788,9.16
		c-0.003,0.013-0.01,0.024-0.013,0.037l-5.744,21.811c-0.601,2.279,0.473,4.67,2.577,5.734l18.851,9.544
		c0.71,0.359,1.484,0.539,2.258,0.539c0.774,0,1.548-0.18,2.258-0.539l18.851-9.544c2.103-1.064,3.177-3.455,2.577-5.734
		l-5.744-21.811c-0.006-0.022-0.016-0.042-0.023-0.063c1.931-2.706,3.25-5.816,3.797-9.134h21.977v2.489c0,2.761,2.239,5,5,5h23.016
		c2.761,0,5-2.239,5-5v-1.258c14.749,6.627,35.875,39.913,35.875,85.309C377.713,319.374,361.798,354.915,347.516,354.915z"/>
</g>
<g>
</g>
<g>
</g>
<g>
</g>
<g>
</g>
<g>
</g>
<g>
</g>
<g>
</g>
<g>
</g>
<g>
</g>
<g>
</g>
<g>
</g>
<g>
</g>
<g>
</g>
<g>
</g>
<g>
</g>
</svg>
