<?xml version="1.0" encoding="iso-8859-1"?>
<!-- Generator: Adobe Illustrator 19.1.0, SVG Export Plug-In . SVG Version: 6.00 Build 0)  -->
<svg version="1.1" id="Capa_1" xmlns="http://www.w3.org/2000/svg" xmlns:xlink="http://www.w3.org/1999/xlink" x="0px" y="0px"
	 viewBox="0 0 423.305 423.305" style="enable-background:new 0 0 423.305 423.305;" xml:space="preserve">
<g>
	<rect x="181.27" y="10" style="fill:#8EB6CA;" width="25.383" height="9.061"/>
	<path style="fill:#CBE8DE;" d="M181.27,29.858c0,2.761-2.238,5-5,5s-5-2.239-5-5v-0.797h-13.945
		c-0.786,13.173-4.74,23.182-11.82,29.761c-5.411,5.028-11.438,6.854-15.586,7.502c-0.631,10.582-1.266,22.929-1.876,37.33
		l6.888,309.65h56.608l6.863-243.815c0.056-1.383,1.364-31.848,8.252-46.625V29.062H181.27V29.858z"/>
	<path style="fill:#A9D8C8;" d="M147.316,29.062h-14.611c-0.662,6.896-1.39,15.72-2.137,26.937c2.461-0.669,5.474-1.99,8.254-4.619
		C143.787,46.685,146.629,39.183,147.316,29.062z"/>
	<path style="fill:#A9D8C8;" d="M284.858,51.497c2.758,2.563,5.758,3.856,8.193,4.51c-0.641-12.052-1.197-20.63-1.719-26.946h-15.1
		C276.927,39.273,279.815,46.811,284.858,51.497z"/>
	<path style="fill:#8EB6CA;" d="M171.27,10h-36.274c-0.323,1.997-0.743,4.93-1.23,9.062h37.505V10z"/>
	<path style="fill:#8EB6CA;" d="M219.303,18.062c-0.93-0.93-1.47-2.21-1.47-3.53s0.54-2.61,1.47-3.54
		c0.421-0.421,0.923-0.747,1.46-0.992h-4.109v9.062h4.107C220.225,18.815,219.724,18.487,219.303,18.062z"/>
	<path style="fill:#8EB6CA;" d="M288.612,10h-36.578v9.062h38.285C289.769,14.807,289.222,12.338,288.612,10z"/>
	<path style="fill:#CBE8DE;" d="M278.052,58.823c-7.082-6.581-11.047-16.584-11.832-29.761h-14.186v0.797c0,2.761-2.238,5-5,5
		c-2.762,0-5-2.239-5-5v-0.797h-10.371v47.073c0,10.008-2.549,17.576-7.577,22.494c-2.512,2.457-5.19,3.79-7.433,4.52v19.715
		c6.888,14.778,8.196,45.241,8.25,46.564l6.865,243.877h56.608l6.889-309.649c-0.627-14.812-1.184-27.094-1.688-37.342
		C289.437,65.66,283.444,63.833,278.052,58.823z"/>
	<path style="fill:#8EB6CA;" d="M227.833,14.532c0,1.32-0.53,2.6-1.46,3.53c-0.421,0.425-0.921,0.753-1.459,1h17.12V10h-17.121
		c0.538,0.245,1.039,0.571,1.46,0.992C227.303,11.922,227.833,13.212,227.833,14.532z"/>
	<path style="fill:#A9D8C8;" d="M221.663,76.135V29.062h-5.01v62.826C219.164,89.685,221.663,85.215,221.663,76.135z"/>
	<path style="fill:#3F352F;" d="M292.448,0H130.86c-2.271,0-4.257,1.531-4.835,3.727c-0.183,0.695-4.521,17.967-7.98,99.665
		c-0.004,0.107,6.997,315.023,6.997,315.023c0.06,2.717,2.28,4.889,4.998,4.889h66.359c2.707,0,4.922-2.154,4.998-4.859
		l6.998-248.612c0.229-5.599,1.18-17.927,3.258-28.694c2.079,10.761,3.029,23.074,3.256,28.631l7,248.675
		c0.076,2.705,2.291,4.859,4.998,4.859h66.359c2.717,0,4.938-2.172,4.998-4.889c0,0,6.998-314.916,6.996-315.023
		c-0.965-83.488-7.805-99.007-7.978-99.666C296.704,1.531,294.72,0,292.448,0z M134.996,10h36.274v9.062h-37.505
		C134.252,14.93,134.673,11.997,134.996,10z M132.705,29.062h14.611c-0.688,10.121-3.529,17.623-8.494,22.318
		c-2.78,2.629-5.794,3.95-8.254,4.619C131.315,44.782,132.043,35.957,132.705,29.062z M206.653,122.864
		c-6.888,14.778-8.196,45.243-8.252,46.625l-6.863,243.815H134.93l-6.888-309.65c0.611-14.401,1.246-26.749,1.876-37.33
		c4.148-0.647,10.175-2.474,15.586-7.502c7.08-6.58,11.034-16.588,11.82-29.761h13.945v0.797c0,2.761,2.238,5,5,5s5-2.239,5-5
		v-0.797h25.383V122.864z M206.653,19.062H181.27V10h25.383V19.062z M293.052,56.007c-2.435-0.654-5.435-1.947-8.193-4.51
		c-5.043-4.687-7.932-12.224-8.625-22.436h15.1C291.855,35.377,292.411,43.955,293.052,56.007z M252.034,10h36.578
		c0.609,2.338,1.156,4.807,1.707,9.062h-38.285V10z M242.034,10v9.062h-17.12c0.538-0.246,1.038-0.574,1.459-1
		c0.93-0.93,1.46-2.21,1.46-3.53s-0.53-2.61-1.46-3.54c-0.421-0.421-0.922-0.747-1.46-0.992H242.034z M216.653,10h4.109
		c-0.537,0.245-1.039,0.571-1.46,0.992c-0.93,0.93-1.47,2.22-1.47,3.54s0.54,2.6,1.47,3.53c0.421,0.425,0.922,0.753,1.458,1h-4.107
		V10z M216.653,29.062h5.01v47.073c0,9.08-2.499,13.55-5.01,15.753V29.062z M288.376,413.305h-56.608l-6.865-243.877
		c-0.054-1.323-1.362-31.786-8.25-46.564v-19.715c2.242-0.73,4.921-2.063,7.433-4.52c5.028-4.918,7.577-12.485,7.577-22.494V29.062
		h10.371v0.797c0,2.761,2.238,5,5,5c2.762,0,5-2.239,5-5v-0.797h14.186c0.785,13.177,4.75,23.18,11.832,29.761
		c5.393,5.011,11.385,6.837,15.525,7.49c0.504,10.249,1.061,22.531,1.688,37.342L288.376,413.305z"/>
</g>
<g>
</g>
<g>
</g>
<g>
</g>
<g>
</g>
<g>
</g>
<g>
</g>
<g>
</g>
<g>
</g>
<g>
</g>
<g>
</g>
<g>
</g>
<g>
</g>
<g>
</g>
<g>
</g>
<g>
</g>
</svg>
