<?xml version="1.0" encoding="iso-8859-1"?>
<!-- Generator: Adobe Illustrator 19.1.0, SVG Export Plug-In . SVG Version: 6.00 Build 0)  -->
<svg version="1.1" id="Capa_1" xmlns="http://www.w3.org/2000/svg" xmlns:xlink="http://www.w3.org/1999/xlink" x="0px" y="0px"
	 viewBox="0 0 423.305 423.305" style="enable-background:new 0 0 423.305 423.305;" xml:space="preserve">
<g>
	<path style="fill:#C7BEA8;" d="M129.148,80.204c-0.372,7.135-0.741,14.919-1.103,23.426l9.841,309.674h20.105V29.062h-11.338
		C145.486,60.516,133.531,75.678,129.148,80.204z"/>
	<path style="fill:#C7BEA8;" d="M181.273,29.858c0,2.761-2.238,5-5,5c-2.762,0-5-2.239-5-5v-0.797h-3.281v384.243H188.6
		l9.807-243.875c0.054-1.324,1.361-31.764,8.242-46.549V29.062h-25.375V29.858z"/>
	<path style="fill:#AB9E85;" d="M171.273,10h-36.274c-0.322,1.997-0.743,4.93-1.23,9.062h37.505V10z"/>
	<path style="fill:#CBE8DE;" d="M132.709,29.062c-0.734,7.653-1.551,17.687-2.384,30.724c3.032-7.101,5.783-17.14,6.335-30.724
		H132.709z"/>
	<rect x="181.273" y="10" style="fill:#AB9E85;" width="25.375" height="9.061"/>
	<rect x="216.656" y="10" style="fill:#AB9E85;" width="25.375" height="9.061"/>
	<path style="fill:#C7BEA8;" d="M276.65,29.062h-11.338v384.243h20.105l9.841-309.674c-0.36-8.508-0.729-16.291-1.103-23.427
		C289.774,75.677,277.818,60.517,276.65,29.062z"/>
	<path style="fill:#CBE8DE;" d="M292.978,59.764c-0.833-13.026-1.648-23.053-2.384-30.703h-3.943
		C287.203,42.631,289.949,52.664,292.978,59.764z"/>
	<path style="fill:#C7BEA8;" d="M252.031,29.858c0,2.761-2.238,5-5,5c-2.762,0-5-2.239-5-5v-0.797h-10.365v47.073
		c0,10.008-2.549,17.576-7.577,22.494c-2.512,2.457-5.19,3.789-7.433,4.52v19.732c6.881,14.785,8.188,45.225,8.242,46.547
		l9.807,243.877h20.607V29.062h-3.281V29.858z"/>
	<path style="fill:#AB9E85;" d="M288.304,10h-36.273v9.062h37.504C289.048,14.934,288.627,12,288.304,10z"/>
	<path style="fill:#AB9E85;" d="M221.666,76.135V29.062h-5.01v62.825C219.167,89.686,221.666,85.215,221.666,76.135z"/>
	<path style="fill:#3F352F;" d="M292.441,0H130.863c-2.271,0-4.257,1.531-4.835,3.727c-0.184,0.695-4.521,17.967-7.98,99.665
		c-0.006,0.123,9.998,315.07,9.998,315.07c0.085,2.699,2.298,4.842,4.997,4.842h60.359c2.684,0,4.888-2.118,4.996-4.799l10-248.673
		c0.229-5.595,1.179-17.91,3.254-28.673c2.075,10.762,3.025,23.076,3.254,28.67l10,248.676c0.108,2.681,2.312,4.799,4.996,4.799
		h60.359c2.699,0,4.912-2.142,4.997-4.842c0,0,10.004-314.947,9.998-315.07c-3.459-81.698-7.797-98.97-7.98-99.665
		C296.698,1.531,294.713,0,292.441,0z M134.999,10h36.274v9.062h-37.505C134.256,14.93,134.677,11.997,134.999,10z M132.709,29.062
		h3.951c-0.552,13.583-3.303,23.622-6.335,30.724C131.158,46.748,131.975,36.714,132.709,29.062z M157.992,413.305h-20.105
		l-9.841-309.674c0.361-8.508,0.73-16.291,1.103-23.426c4.383-4.527,16.338-19.689,17.506-51.143h11.338V413.305z M206.648,122.881
		c-6.881,14.785-8.189,45.225-8.242,46.549L188.6,413.305h-20.607V29.062h3.281v0.797c0,2.761,2.238,5,5,5c2.762,0,5-2.239,5-5
		v-0.797h25.375V122.881z M206.648,19.062h-25.375V10h25.375V19.062z M292.978,59.764c-3.029-7.101-5.775-17.133-6.327-30.703h3.943
		C291.33,36.711,292.146,46.738,292.978,59.764z M252.031,10h36.273c0.323,2,0.744,4.934,1.231,9.062h-37.504V10z M216.656,10
		h25.375v9.062h-25.375V10z M216.656,29.062h5.01v47.073c0,9.08-2.499,13.551-5.01,15.752V29.062z M255.312,413.305h-20.607
		l-9.807-243.877c-0.054-1.322-1.361-31.762-8.242-46.547v-19.732c2.242-0.73,4.921-2.062,7.433-4.52
		c5.028-4.918,7.577-12.486,7.577-22.494V29.062h10.365v0.797c0,2.761,2.238,5,5,5c2.762,0,5-2.239,5-5v-0.797h3.281V413.305z
		 M285.418,413.305h-20.105V29.062h11.338c1.168,31.455,13.124,46.615,17.506,51.143c0.373,7.136,0.742,14.919,1.103,23.427
		L285.418,413.305z"/>
</g>
<g>
</g>
<g>
</g>
<g>
</g>
<g>
</g>
<g>
</g>
<g>
</g>
<g>
</g>
<g>
</g>
<g>
</g>
<g>
</g>
<g>
</g>
<g>
</g>
<g>
</g>
<g>
</g>
<g>
</g>
</svg>
