<?xml version="1.0" encoding="iso-8859-1"?>
<!-- Generator: Adobe Illustrator 19.1.0, SVG Export Plug-In . SVG Version: 6.00 Build 0)  -->
<svg version="1.1" id="Capa_1" xmlns="http://www.w3.org/2000/svg" xmlns:xlink="http://www.w3.org/1999/xlink" x="0px" y="0px"
	 viewBox="0 0 403.155 403.155" style="enable-background:new 0 0 403.155 403.155;" xml:space="preserve">
<g>
	<path style="fill:#D68E7E;" d="M51.014,63.582H35.349c0.146,7.231,0.333,14.841,0.568,22.657h15.097V63.582z"/>
	<path style="fill:#C4573F;" d="M110.641,357.077c3.504-1.955,15.731-9.27,27.124-22.021c17.676-19.782,25.133-42.714,22.164-68.157
		c-4.06-34.796,18.923-47.324,28.559-51.008c-0.729-27.355,3.778-136.329,5.945-186.214H34.889
		c0.049,6.927,0.134,15.027,0.278,23.905H135.61c11.761,0,21.329,9.568,21.329,21.329c0,11.76-9.568,21.328-21.329,21.328H36.244
		c1.315,37.346,3.833,77.562,8.626,102.485c4.568,23.76,9.749,38.731,13.532,49.663c5.404,15.617,8.666,25.044,2.572,40.36
		c-14.439,36.296-7.401,60.678-4.372,68.329H110.641z"/>
	<path style="fill:#C4573F;" d="M169.863,265.738c3.281,28.137-5.326,54.507-24.893,76.262
		c-5.618,6.245-11.352,11.249-16.334,15.077h15.444c0.837,0,20.904,0.114,55.715,10.099c20.092,5.761,73.855,15.928,153.025-7.982
		c-4.623-26.288-17.205-39.756-37.452-40.03c-1.735-0.023-3.483-0.031-5.26-0.041c-14.428-0.073-30.865,0.128-56.58-7.719
		c-49.407-15.077-62.499-63.743-64.418-85.017C180.902,230.245,166.928,240.59,169.863,265.738z"/>
	<path style="fill:#D68E7E;" d="M195.301,10H34.829c-0.004,2.436-0.004,5.714,0.008,9.677h160.034
		C195.044,15.755,195.189,12.486,195.301,10z"/>
	<rect x="61.014" y="63.582" style="fill:#7E6F83;" width="23.636" height="22.657"/>
	<path style="fill:#D68E7E;" d="M146.939,74.911c0-6.247-5.082-11.329-11.329-11.329H94.649v22.657h40.961
		C141.857,86.239,146.939,81.158,146.939,74.911z M121.034,79.91h-12.266c-2.762,0-5-2.239-5-5c0-2.761,2.238-5,5-5h12.266
		c2.762,0,5,2.239,5,5C126.034,77.671,123.796,79.91,121.034,79.91z"/>
	<path style="fill:#7E6F83;" d="M197.04,376.787c-33.298-9.549-52.772-9.709-52.966-9.71H53.761v25.511h10.514v-5.977
		c0-2.762,2.238-5,5-5h12.312c1.438,0,2.808,0.619,3.757,1.7l8.147,9.276h6.844v-5.977c0-2.762,2.238-5,5-5h12.312
		c1.438,0,2.808,0.619,3.757,1.701l8.147,9.275h10.008c0.804-3.898,2.618-7.002,5.424-9.262c5.349-4.309,13.763-5.133,25.722-2.527
		c8.366,1.824,44.444,8.766,55.107,10.445l0.884-1.434c0.992-1.61,2.81-2.523,4.691-2.359l20.168,1.762
		c2.215,0.193,3.974,1.805,4.442,3.872c3.083-0.01,6.543,0.017,8.904,0.04l1.449-2.335c0.858-1.382,2.334-2.259,3.958-2.355
		c6.095-0.353,15.581-0.918,16.736-1.02c1.494-0.133,2.969,0.416,4.016,1.49l2.059,2.109c3.388-0.361,6.242-0.718,9.194-1.119
		l1.162-2.414c0.697-1.447,2.049-2.473,3.631-2.753l21.402-3.798c2.444-0.439,4.774,0.975,5.582,3.236
		c16.189-3.732,27.397-7.691,33.001-9.886l-2.805-8.202C277.903,394.188,218.722,383.006,197.04,376.787z"/>
	<path style="fill:#3F352F;" d="M121.034,69.91h-12.266c-2.762,0-5,2.239-5,5c0,2.761,2.238,5,5,5h12.266c2.762,0,5-2.239,5-5
		C126.034,72.149,123.796,69.91,121.034,69.91z"/>
	<path style="fill:#3F352F;" d="M372.147,358.157c-0.892-2.607-3.728-4.002-6.333-3.119c-1.132,0.383-2.257,0.755-3.38,1.124
		c-5.73-30.44-21.869-46.658-46.931-46.996c-1.763-0.024-3.538-0.033-5.343-0.043c-13.768-0.07-29.35-0.227-53.819-7.316
		c-55.595-16.105-58.453-82.109-58.47-82.263c-1.622-14.901,4.578-146.705,7.654-214.317c0.062-1.364-0.436-2.694-1.38-3.681
		C203.203,0.559,201.896,0,200.531,0H29.847c-2.747,0-4.979,2.216-5,4.963c-0.041,5.609-0.878,138.029,10.203,195.65
		c4.704,24.465,10.021,39.827,13.902,51.045c5.27,15.228,7.45,21.53,2.731,33.393c-14.22,35.745-9.298,61.289-5.46,72.74
		c-1.469,0.871-2.463,2.456-2.463,4.286v35.511c0,2.762,2.238,5,5,5h20.514c2.762,0,5-2.238,5-5v-5.977h5.05l8.147,9.276
		c0.949,1.081,2.318,1.7,3.757,1.7h14.106c2.762,0,5-2.238,5-5v-5.977h5.049l8.147,9.275c0.988,1.126,2.37,1.701,3.759,1.701
		c0.008,0,0.016-0.002,0.023-0.002c0.008,0,0.014,0.002,0.021,0.002h16.746c2.762,0,5-2.238,5-5c0-4.232,1.241-5.723,2.174-6.475
		c1.577-1.27,5.924-3.029,17.318-0.543c5.492,1.197,55.53,11.026,59.8,11.034c0.003,0,0.006,0,0.009,0
		c1.735,0,3.347-0.899,4.257-2.378l0.952-1.545l12.333,1.077c0.132,1.083,0.615,2.101,1.39,2.893
		c0.942,0.964,2.231,1.504,3.574,1.504c0.061,0,0.121-0.001,0.182-0.003c4.25-0.154,16.406,0.001,16.528,0.002
		c0.022,0.001,0.044,0.001,0.065,0.001c1.727,0,3.335-0.892,4.248-2.362l1.567-2.525c3.302-0.193,8.812-0.52,12.038-0.725
		l2.133,2.188c1.062,1.088,2.561,1.633,4.077,1.482c5.732-0.574,9.847-1.107,14.627-1.781c1.654-0.233,3.082-1.277,3.807-2.781
		l1.215-2.522l14.109-2.503c0.343,1.103,1.06,2.06,2.037,2.699c1.116,0.731,2.477,0.983,3.783,0.706
		c28.284-6.048,43.52-13.11,44.155-13.409c2.31-1.082,3.434-3.73,2.608-6.144L372.147,358.157z M253.529,311.404
		c25.715,7.847,42.152,7.646,56.58,7.719c1.776,0.01,3.524,0.018,5.26,0.041c20.247,0.275,32.829,13.742,37.452,40.03
		c-79.17,23.909-132.934,13.742-153.025,7.982c-34.811-9.984-54.878-10.099-55.715-10.099h-15.444
		c4.982-3.828,10.716-8.832,16.334-15.077c19.566-21.755,28.174-48.125,24.893-76.262c-2.936-25.149,11.039-35.493,19.248-39.351
		C191.03,247.661,204.122,296.327,253.529,311.404z M34.829,10h160.472c-0.111,2.486-0.257,5.755-0.43,9.677H34.837
		C34.825,15.714,34.825,12.436,34.829,10z M35.349,63.582h15.665v22.657H35.917C35.682,78.423,35.495,70.813,35.349,63.582z
		 M60.974,288.748c6.094-15.316,2.832-24.743-2.572-40.36c-3.783-10.932-8.964-25.903-13.532-49.663
		c-4.793-24.923-7.311-65.139-8.626-102.485h99.366c11.761,0,21.329-9.568,21.329-21.328c0-11.761-9.568-21.329-21.329-21.329
		H35.167c-0.144-8.878-0.229-16.979-0.278-23.905h159.545c-2.167,49.885-6.674,158.859-5.945,186.214
		c-9.636,3.684-32.618,16.212-28.559,51.008c2.969,25.443-4.488,48.375-22.164,68.157c-11.394,12.751-23.62,20.066-27.124,22.021
		H56.602C53.573,349.426,46.535,325.044,60.974,288.748z M61.014,86.239V63.582h23.636v22.657H61.014z M94.649,86.239V63.582h40.961
		c6.247,0,11.329,5.082,11.329,11.329c0,6.247-5.082,11.328-11.329,11.328H94.649z M334.091,384.168
		c-0.808-2.262-3.138-3.676-5.582-3.236l-21.402,3.798c-1.582,0.28-2.934,1.306-3.631,2.753l-1.162,2.414
		c-2.952,0.401-5.807,0.758-9.194,1.119l-2.059-2.109c-1.047-1.074-2.522-1.623-4.016-1.49c-1.155,0.102-10.642,0.666-16.736,1.02
		c-1.624,0.096-3.1,0.973-3.958,2.355l-1.449,2.335c-2.361-0.023-5.821-0.05-8.904-0.04c-0.469-2.067-2.227-3.679-4.442-3.872
		l-20.168-1.762c-1.882-0.164-3.699,0.749-4.691,2.359l-0.884,1.434c-10.663-1.68-46.741-8.621-55.107-10.445
		c-11.959-2.605-20.373-1.781-25.722,2.527c-2.806,2.26-4.62,5.363-5.424,9.262h-10.008l-8.147-9.275
		c-0.949-1.082-2.318-1.701-3.757-1.701h-12.312c-2.762,0-5,2.238-5,5v5.977h-6.844l-8.147-9.276c-0.949-1.081-2.318-1.7-3.757-1.7
		H69.274c-2.762,0-5,2.238-5,5v5.977H53.761v-25.511h90.313c0.193,0.001,19.668,0.161,52.966,9.71
		c21.682,6.219,80.863,17.4,167.247-10.707l2.805,8.202C361.487,376.477,350.279,380.435,334.091,384.168z"/>
</g>
<g>
</g>
<g>
</g>
<g>
</g>
<g>
</g>
<g>
</g>
<g>
</g>
<g>
</g>
<g>
</g>
<g>
</g>
<g>
</g>
<g>
</g>
<g>
</g>
<g>
</g>
<g>
</g>
<g>
</g>
</svg>
