<?xml version="1.0" encoding="iso-8859-1"?>
<!-- Generator: Adobe Illustrator 19.1.0, SVG Export Plug-In . SVG Version: 6.00 Build 0)  -->
<svg version="1.1" id="Capa_1" xmlns="http://www.w3.org/2000/svg" xmlns:xlink="http://www.w3.org/1999/xlink" x="0px" y="0px"
	 viewBox="0 0 425.777 425.777" style="enable-background:new 0 0 425.777 425.777;" xml:space="preserve">
<g>
	<polygon style="fill:#A9D8C8;" points="124.288,327.6 250.497,206.371 250.497,167.244 124.288,288.471 	"/>
	<polygon style="fill:#7E6F83;" points="124.288,389.568 142.53,389.568 250.497,285.863 250.497,220.237 124.288,341.466 	"/>
	<polygon style="fill:#7E6F83;" points="124.288,274.603 242.549,161.012 174.226,161.012 124.288,208.979 	"/>
	<polygon style="fill:#7E6F83;" points="250.497,389.568 250.497,352.725 212.138,389.568 	"/>
	<polygon style="fill:#A9D8C8;" points="197.702,389.568 250.497,338.857 250.497,299.73 156.966,389.568 	"/>
	<polygon style="fill:#A9D8C8;" points="124.288,195.113 159.79,161.012 124.288,161.012 	"/>
	<polygon style="fill:#A9D8C8;" points="260.497,315.506 284.214,338.287 301.592,338.287 301.592,315.852 260.497,276.379 	"/>
	<path style="fill:#D68E7E;" d="M327,139.502c-54.415-19.027-80.031-29.08-89.396-57.4h-49.431
		c-9.364,28.32-34.98,38.373-89.396,57.4c-32.864,11.49-43.961,21.469-47.703,26.824h63.213v-5.314H95.925
		c-2.279,0-4.27-1.541-4.841-3.748c-0.57-2.205,0.422-4.52,2.415-5.625c2.792-1.549,68.705-38.004,96.403-43.396
		c0.314-0.062,45.657-0.062,45.972,0c27.698,5.392,93.61,41.847,96.402,43.396c1.993,1.105,2.985,3.42,2.415,5.625
		c-0.571,2.207-2.561,3.748-4.841,3.748h-18.259v5.314h63.11C370.96,160.971,359.864,150.992,327,139.502z"/>
	<polygon style="fill:#7E6F83;" points="260.497,338.287 269.777,338.287 260.497,329.373 	"/>
	<polygon style="fill:#7E6F83;" points="301.592,169.499 301.592,161.012 292.756,161.012 	"/>
	<polygon style="fill:#7E6F83;" points="260.497,262.512 301.592,301.984 301.592,236.359 260.497,196.886 	"/>
	<polygon style="fill:#A9D8C8;" points="260.497,161.012 260.497,183.02 301.592,222.492 301.592,183.365 278.321,161.012 	"/>
	<path style="fill:#3F352F;" d="M330.3,130.062c-58.046-20.297-77.379-28.982-84.142-54.253c-0.585-2.187-2.566-3.708-4.83-3.708
		h-23.44v-8.014c15.41-2.41,27.238-15.773,27.238-31.85C245.126,14.463,230.665,0,212.888,0c-17.776,0-32.238,14.463-32.238,32.238
		c0,2.762,2.238,5,5,5c2.762,0,5-2.238,5-5c0-12.262,9.976-22.238,22.238-22.238c12.263,0,22.238,9.977,22.238,22.238
		c0,12.263-9.976,22.238-22.238,22.238c-2.762,0-5,2.239-5,5v12.625h-23.439c-2.264,0-4.245,1.521-4.83,3.708
		c-6.763,25.271-26.096,33.956-84.142,54.253c-58.684,20.518-56.99,39.046-56.055,42.552c0.584,2.188,2.566,3.712,4.831,3.712
		h70.034l-0.102,244.451c0,2.762,2.238,5,5,5c2.762,0,5-2.238,5-5v-21.209h9.473v21.209c0,2.762,2.238,5,5,5c2.762,0,5-2.238,5-5
		v-21.209h9.474v21.209c0,2.762,2.238,5,5,5c2.762,0,5-2.238,5-5v-21.209h9.474v21.209c0,2.762,2.238,5,5,5c2.762,0,5-2.238,5-5
		v-21.209h9.472v21.209c0,2.762,2.238,5,5,5s5-2.238,5-5v-21.209h9.473v21.209c0,2.762,2.238,5,5,5c2.762,0,5-2.238,5-5v-21.209
		h9.474v21.209c0,2.762,2.238,5,5,5c2.762,0,5-2.238,5-5v-21.209h9.473v21.107c0,2.762,2.238,5,5,5c2.762,0,5-2.238,5-5v-72.389
		h2.148V369.6c0,2.762,2.238,5,5,5c2.762,0,5-2.238,5-5v-21.312h9.473V369.6c0,2.762,2.238,5,5,5s5-2.238,5-5v-21.312h9.475v21.209
		c0,2.762,2.238,5,5,5c2.762,0,5-2.238,5-5v-193.17h69.932c2.265,0,4.247-1.523,4.831-3.712
		C387.291,169.108,388.984,150.58,330.3,130.062z M250.497,389.568h-38.358l38.358-36.844V389.568z M250.497,338.857l-52.795,50.711
		h-40.735l93.53-89.838V338.857z M250.497,285.863L142.53,389.568h-18.242v-48.103l126.209-121.228V285.863z M250.497,206.371
		L124.288,327.6v-39.129l126.209-121.227V206.371z M174.226,161.012h68.323L124.288,274.603v-65.625L174.226,161.012z
		 M124.288,195.113v-34.102h35.502L124.288,195.113z M260.497,338.287v-8.914l9.28,8.914H260.497z M301.592,338.287h-17.378
		l-23.718-22.781v-39.127l41.096,39.473V338.287z M301.592,301.984l-41.096-39.473v-65.626l41.096,39.474V301.984z M301.592,222.492
		l-41.096-39.473v-22.008h17.824l23.272,22.354V222.492z M301.592,169.499l-8.836-8.487h8.836V169.499z M115.852,151.012
		c21.575-11.285,57.573-29.186,75.501-32.861h43.071c17.922,3.675,53.922,21.575,75.499,32.861H115.852z M311.592,166.326v-5.314
		h18.259c2.279,0,4.27-1.541,4.841-3.748c0.57-2.205-0.422-4.52-2.415-5.625c-2.792-1.549-68.704-38.004-96.402-43.396
		c-0.315-0.062-45.657-0.062-45.972,0c-27.698,5.392-93.611,41.847-96.403,43.396c-1.993,1.105-2.985,3.42-2.415,5.625
		c0.571,2.207,2.561,3.748,4.841,3.748h18.362v5.314H51.075c3.742-5.355,14.839-15.334,47.703-26.824
		c54.415-19.027,80.031-29.08,89.396-57.4h49.431c9.364,28.32,34.981,38.373,89.396,57.4c32.864,11.49,43.961,21.469,47.703,26.824
		H311.592z"/>
</g>
<g>
</g>
<g>
</g>
<g>
</g>
<g>
</g>
<g>
</g>
<g>
</g>
<g>
</g>
<g>
</g>
<g>
</g>
<g>
</g>
<g>
</g>
<g>
</g>
<g>
</g>
<g>
</g>
<g>
</g>
</svg>
