<?xml version="1.0" encoding="iso-8859-1"?>
<!-- Generator: Adobe Illustrator 19.1.0, SVG Export Plug-In . SVG Version: 6.00 Build 0)  -->
<svg version="1.1" id="Capa_1" xmlns="http://www.w3.org/2000/svg" xmlns:xlink="http://www.w3.org/1999/xlink" x="0px" y="0px"
	 viewBox="0 0 403.08 403.08" style="enable-background:new 0 0 403.08 403.08;" xml:space="preserve">
<g>
	<path style="fill:#CBE8DE;" d="M180.97,76.632c-0.959-0.795-21.643-18.59-27.537-43.541c-9.572,4.172-32.286,14.148-57.592,29.866
		c5.801,8.086,5.377,22.895,5.377,22.895c0.001,0.035-0.001,63.161-0.008,63.27L90.303,315.387l-0.575,52.721
		c0,0.002,1.097,6.053,13.975,11.919c12.684,5.778,39.037,12.632,92.836,13.033V65.299l-8.419,10.622
		C186.097,78.23,183.637,78.845,180.97,76.632z"/>
	<path style="fill:#CBE8DE;" d="M91.217,85.758C91.159,79.666,90.2,74.35,88.541,70.53c-4.927,6.456-8.226,14.389-10.561,24.736
		c-3.549,15.715-45.488,175.963-46.765,200.098c-1.486,28.096,1.33,54.929,2.593,65.064h31.785
		c3.295-6.494,11.767-24.715,14.733-45.746l10.893-166.053C91.221,148.629,91.218,85.877,91.217,85.758z"/>
	<polygon style="fill:#A9D8C8;" points="36.061,382.628 59.581,382.628 62.346,370.428 34.923,370.428 	"/>
	<path style="fill:#BBD3DF;" d="M194.279,52.051c-14.734-10.845-22.217-24.933-25.885-34.713l-5.968,9.769
		c2.747,17.46,14.975,31.896,21.256,38.314L194.279,52.051z"/>
	<path style="fill:#BBD3DF;" d="M208.799,52.051l10.592,13.362c6.283-6.438,18.52-20.909,21.26-38.307l-5.968-9.769
		C231.016,27.119,223.534,41.206,208.799,52.051z"/>
	<polygon style="fill:#A9D8C8;" points="236.012,156.151 253.918,164.46 271.824,156.151 271.824,124.003 236.012,124.003 	"/>
	<path style="fill:#CBE8DE;" d="M325.099,95.266c-2.336-10.346-5.634-18.278-10.56-24.734c-1.655,3.817-2.616,9.129-2.677,15.219
		c-0.001,0.124-0.004,62.878-0.004,62.878l10.895,166.053c2.967,21.03,11.436,39.25,14.734,45.746h31.783
		c1.263-10.143,4.079-37,2.595-65.064C370.587,271.229,328.648,110.981,325.099,95.266z"/>
	<polygon style="fill:#A9D8C8;" points="343.499,382.628 367.019,382.628 368.157,370.428 340.733,370.428 	"/>
	<path style="fill:#CBE8DE;" d="M301.868,149.122c-0.007-0.109-0.006-63.471-0.006-63.471c0.058-5.784,0.904-15.515,5.377-22.693
		c-2.875-2.39-36.427-21.235-57.594-29.867c-5.893,24.951-26.636,42.679-27.536,43.541c-1.668,1.598-4.885,2.071-7.149-0.71
		l-8.421-10.623V393.06c53.799-0.401,80.153-7.255,92.836-13.033c12.878-5.866,13.909-11.429,13.975-11.911c0-0.003,0-0.006,0-0.009
		l-0.573-52.72L301.868,149.122z M281.824,159.343c0,1.946-1.13,3.716-2.896,4.536l-22.906,10.629l-0.002-0.004
		c-0.656,0.304-1.374,0.469-2.106,0.469c-0.705,0.001-1.42-0.148-2.101-0.465l-22.906-10.629c-1.766-0.82-2.896-2.59-2.896-4.536
		v-40.34c0-2.761,2.239-5,5-5h45.813c2.761,0,5,2.239,5,5V159.343z"/>
	<path style="fill:#A9D8C8;" d="M226.611,10h-25.072h-25.05c2.609,8.337,9.337,23.956,25.051,34.939
		C217.342,33.907,224.031,18.322,226.611,10z"/>
	<path style="fill:#3F352F;" d="M276.824,114.003h-45.813c-2.761,0-5,2.239-5,5v40.34c0,1.946,1.13,3.716,2.896,4.536l22.906,10.629
		c0.681,0.316,1.396,0.466,2.101,0.465c0.732,0,1.45-0.165,2.106-0.469l0.002,0.004l22.906-10.629
		c1.766-0.82,2.896-2.59,2.896-4.536v-40.34C281.824,116.243,279.585,114.003,276.824,114.003z M271.824,156.151l-17.906,8.31
		l-17.906-8.31v-32.147h35.813V156.151z"/>
	<path style="fill:#3F352F;" d="M334.853,93.063c-3.259-14.434-8.586-25.254-16.934-33.79c-0.078-0.096-20.38-16.735-68.643-37.23
		l-12.004-19.65c-0.939-1.539-2.622-2.425-4.382-2.385V0h-31.352h-31.352v0.008c-1.761-0.04-3.442,0.846-4.382,2.385l-12.004,19.65
		C103.407,43.66,85.241,59.175,85.163,59.27c-8.35,8.536-12.668,16.535-16.938,33.794c-3.828,15.475-45.665,176.618-46.997,201.772
		c-1.889,35.73,2.837,68.489,3.239,71.188l2.059,22.068c0.24,2.57,2.397,4.535,4.978,4.535h32.068c2.335,0,4.36-1.617,4.876-3.895
		l4.877-21.508c0.957-1.756,3.592-6.774,6.563-14.012l-0.161,14.732c-0.036,1.361,0.262,6.006,5.298,11.41
		c10.085,10.822,38.485,23.724,116.512,23.724c78.028,0,106.428-12.901,116.512-23.724c5.036-5.404,5.333-10.049,5.297-11.41
		l-0.16-14.736c2.972,7.24,5.607,12.26,6.564,14.016l4.877,21.508c0.517,2.277,2.541,3.895,4.876,3.895h32.068
		c2.581,0,4.739-1.965,4.978-4.535l2.058-22.068c0.402-2.698,5.129-35.457,3.24-71.188
		C380.519,269.682,338.365,108.614,334.853,93.063z M234.684,17.338l5.968,9.769c-2.74,17.397-14.977,31.869-21.26,38.307
		l-10.592-13.362C223.534,41.206,231.016,27.119,234.684,17.338z M168.394,17.338c3.667,9.78,11.15,23.868,25.885,34.713
		l-10.596,13.37c-6.281-6.417-18.509-20.854-21.256-38.314L168.394,17.338z M59.581,382.628h-23.52l-1.138-12.199h27.424
		L59.581,382.628z M80.327,314.682c-2.967,21.031-11.438,39.252-14.733,45.746H33.809c-1.264-10.136-4.079-36.969-2.593-65.064
		c1.277-24.135,43.216-184.383,46.765-200.098c2.335-10.347,5.633-18.28,10.561-24.736c1.658,3.819,2.618,9.135,2.675,15.228
		c0.001,0.12,0.004,62.871,0.004,62.871L80.327,314.682z M196.539,393.06c-53.799-0.401-80.152-7.255-92.836-13.033
		c-12.878-5.866-13.975-11.917-13.975-11.919l0.575-52.721l10.907-166.266c0.007-0.109,0.009-63.236,0.008-63.27
		c0,0,0.424-14.808-5.377-22.895c25.306-15.718,48.02-25.694,57.592-29.866c5.894,24.951,26.579,42.746,27.537,43.541
		c2.667,2.213,5.127,1.598,7.149-0.71l8.419-10.622V393.06z M176.489,10h25.05h25.072c-2.58,8.322-9.269,23.907-25.071,34.939
		C185.826,33.956,179.098,18.337,176.489,10z M313.35,368.116c-0.065,0.482-1.097,6.045-13.975,11.911
		c-12.683,5.778-39.037,12.632-92.836,13.033V65.298l8.421,10.623c2.264,2.781,5.481,2.308,7.149,0.71
		c0.9-0.862,21.643-18.59,27.536-43.541c21.167,8.632,54.719,27.476,57.594,29.867c-4.473,7.179-5.319,16.91-5.377,22.693
		c0,0-0.001,63.361,0.006,63.471l10.909,166.266l0.573,52.72C313.35,368.11,313.35,368.113,313.35,368.116z M367.019,382.628h-23.52
		l-2.766-12.199h27.423L367.019,382.628z M369.269,360.428h-31.783c-3.297-6.496-11.767-24.716-14.734-45.746l-10.895-166.053
		c0,0,0.003-62.754,0.004-62.878c0.061-6.089,1.022-11.402,2.677-15.219c4.926,6.456,8.224,14.388,10.56,24.734
		c3.549,15.715,45.488,175.963,46.765,200.098C373.348,323.428,370.532,350.286,369.269,360.428z"/>
</g>
<g>
</g>
<g>
</g>
<g>
</g>
<g>
</g>
<g>
</g>
<g>
</g>
<g>
</g>
<g>
</g>
<g>
</g>
<g>
</g>
<g>
</g>
<g>
</g>
<g>
</g>
<g>
</g>
<g>
</g>
</svg>
