<?xml version="1.0" encoding="iso-8859-1"?>
<!-- Generator: Adobe Illustrator 19.1.0, SVG Export Plug-In . SVG Version: 6.00 Build 0)  -->
<svg version="1.1" id="Capa_1" xmlns="http://www.w3.org/2000/svg" xmlns:xlink="http://www.w3.org/1999/xlink" x="0px" y="0px"
	 viewBox="0 0 409.448 409.448" style="enable-background:new 0 0 409.448 409.448;" xml:space="preserve">
<g>
	<path style="fill:#C7BEA8;" d="M37.94,154.942l-17.426-8.861c-5.592,15.792-20.35,64.871-0.134,94.849h90.006
		C96.445,227.749,69.258,199.676,37.94,154.942z"/>
	<rect x="22.765" y="250.93" style="fill:#AB9E85;" width="91.694" height="14.424"/>
	<path style="fill:#C7BEA8;" d="M370.926,226.465c-0.042-0.01-66.844-18.438-66.844-18.438
		c-6.929,5.929-31.143,24.329-91.961,51.578c39.227,7.841,100.235,10.517,185.643-11.35c1.092-1.504,2.799-4.807,1.345-9.181
		C397.87,235.352,393.079,231.969,370.926,226.465z"/>
	<path style="fill:#3F352F;" d="M373.399,216.775l-69.302-19.117c-1.73-0.477-3.601,0.023-4.875,1.294
		c-0.217,0.216-22.522,21.924-103.291,56.854c-29.131-7.601-63.109-13.39-70.314-14.585c-6.16-5.296-40.17-35.648-80.194-93.028
		c-0.471-0.675-1.101-1.224-1.835-1.597l-23.519-11.959c-1.239-0.63-2.685-0.716-3.99-0.236c-1.305,0.479-2.352,1.48-2.889,2.763
		c-1.203,2.873-28.789,70.045-0.425,110.326v22.866c0,2.761,2.239,5,5,5h101.694c2.761,0,5-2.239,5-5v-19.19
		c8.089,1.348,42.021,7.179,70.544,14.736c0.032,0.009,0.063,0.017,0.095,0.025c19.266,5.102,45.362,9.38,78.714,9.38
		c34.67,0,77.178-4.625,127.969-17.758c0.834-0.216,1.6-0.644,2.22-1.243c0.357-0.344,8.008-8.358,4.553-20.513
		C405.87,226.352,395.622,222.297,373.399,216.775z M20.513,146.081l17.426,8.861c31.319,44.734,58.506,72.808,72.445,85.988H20.379
		C0.163,210.952,14.922,161.873,20.513,146.081z M114.459,265.354H22.765V250.93h91.694V265.354z M397.764,248.256
		c-85.407,21.867-146.416,19.191-185.643,11.35c60.818-27.249,85.032-45.649,91.961-51.578c0,0,66.802,18.427,66.844,18.438
		c22.153,5.503,26.944,8.886,28.183,12.61C400.563,243.449,398.856,246.751,397.764,248.256z"/>
</g>
<g>
</g>
<g>
</g>
<g>
</g>
<g>
</g>
<g>
</g>
<g>
</g>
<g>
</g>
<g>
</g>
<g>
</g>
<g>
</g>
<g>
</g>
<g>
</g>
<g>
</g>
<g>
</g>
<g>
</g>
</svg>
