<?xml version="1.0" encoding="iso-8859-1"?>
<!-- Generator: Adobe Illustrator 19.1.0, SVG Export Plug-In . SVG Version: 6.00 Build 0)  -->
<svg version="1.1" id="Capa_1" xmlns="http://www.w3.org/2000/svg" xmlns:xlink="http://www.w3.org/1999/xlink" x="0px" y="0px"
	 viewBox="0 0 429.257 429.257" style="enable-background:new 0 0 429.257 429.257;" xml:space="preserve">
<g>
	<polygon style="fill:#E3D282;" points="203.049,341.748 226.208,341.748 214.629,321.692 	"/>
	<rect x="101.219" y="159.378" style="fill:#8EB6CA;" width="26.143" height="14.44"/>
	<polygon style="fill:#D68E7E;" points="214.63,389.313 226.21,369.256 203.049,369.256 	"/>
	<polygon style="fill:#E3D282;" points="226.208,262.823 203.049,262.823 214.628,282.879 	"/>
	<polygon style="fill:#BBD3DF;" points="291.896,40.648 267.347,16.821 267.347,173.818 291.896,173.818 	"/>
	<polygon style="fill:#7E6F83;" points="255.386,336.748 266.966,316.692 243.808,316.692 	"/>
	<rect x="171.91" y="10" style="fill:#8EB6CA;" width="85.437" height="25.566"/>
	<rect x="171.91" y="159.378" style="fill:#8EB6CA;" width="85.437" height="14.44"/>
	<polygon style="fill:#BBD3DF;" points="161.91,16.821 137.361,40.648 137.361,173.818 161.91,173.818 	"/>
	<polygon style="fill:#C7BEA8;" points="255.386,267.823 243.808,287.879 266.966,287.879 	"/>
	<path style="fill:#BBD3DF;" d="M101.219,392.952c0,14.505,11.801,26.306,26.306,26.306h174.207
		c14.506,0,26.307-11.801,26.307-26.306V183.818h-226.82V392.952z M239.201,366.756l-20.241,35.056c-0.893,1.547-2.543,2.5-4.33,2.5
		c-1.786,0-3.437-0.953-4.33-2.5l-20.241-35.056c-0.893-1.547-0.893-3.453,0-5c0.893-1.547,2.544-2.5,4.33-2.5h40.482
		c1.786,0,3.436,0.953,4.33,2.5C240.094,363.303,240.094,365.209,239.201,366.756z M234.888,351.748c-0.005,0-0.013,0-0.02,0h-40.48
		c-1.786,0-3.437-0.953-4.33-2.5c-0.893-1.547-0.893-3.453,0-5l20.241-35.056c0.893-1.547,2.544-2.5,4.33-2.5
		c1.787,0,3.437,0.953,4.331,2.5l20.033,34.7c0.564,0.81,0.895,1.794,0.895,2.856C239.888,349.509,237.65,351.748,234.888,351.748z
		 M210.298,295.379l-20.239-35.057c-0.893-1.547-0.893-3.453,0-5c0.893-1.547,2.544-2.5,4.33-2.5h40.48
		c1.786,0,3.437,0.953,4.33,2.5c0.894,1.547,0.894,3.453,0,5l-20.24,35.057c-0.894,1.547-2.544,2.5-4.331,2.5
		C212.841,297.879,211.191,296.926,210.298,295.379z M279.957,314.192l-20.24,35.056c-0.894,1.547-2.544,2.5-4.33,2.5
		c-1.786,0-3.438-0.953-4.33-2.5l-20.238-35.056c-0.894-1.547-0.894-3.453,0-5c0.894-1.547,2.544-2.5,4.33-2.5h40.479
		c1.786,0,3.437,0.953,4.33,2.5C280.85,310.739,280.85,312.645,279.957,314.192z M255.386,252.823c1.786,0,3.437,0.953,4.33,2.5
		l20.035,34.701c0.565,0.81,0.895,1.794,0.895,2.856c0,2.761-2.238,5-5,5c-0.005,0-0.013,0-0.02,0h-40.479
		c-1.786,0-3.436-0.953-4.33-2.5c-0.894-1.547-0.894-3.453,0-5l20.238-35.057C251.949,253.776,253.6,252.823,255.386,252.823z
		 M190.057,237.815l20.241-35.056c0.893-1.547,2.544-2.5,4.33-2.5c1.787,0,3.437,0.953,4.33,2.5l20.036,34.7
		c0.564,0.81,0.895,1.794,0.895,2.856c0,2.761-2.238,5-5,5c-0.005,0-0.013,0.001-0.02,0h-40.482c-1.786,0-3.437-0.953-4.33-2.5
		C189.164,241.268,189.164,239.362,190.057,237.815z M149.301,290.379l20.24-35.057c0.893-1.547,2.544-2.5,4.33-2.5
		c1.787,0,3.437,0.953,4.33,2.5l20.033,34.701c0.564,0.81,0.896,1.794,0.896,2.856c0,2.761-2.239,5-5,5
		c-0.008-0.001-0.014-0.001-0.02,0h-40.479c-1.786,0-3.437-0.953-4.33-2.5C148.408,293.833,148.408,291.926,149.301,290.379z
		 M149.301,309.192c0.893-1.547,2.544-2.5,4.33-2.5h40.479c1.786,0,3.437,0.953,4.33,2.5c0.893,1.547,0.893,3.453,0,5
		l-20.238,35.056c-0.893,1.547-2.544,2.5-4.33,2.5c-1.786,0-3.437-0.953-4.33-2.5l-20.24-35.056
		C148.408,312.645,148.408,310.739,149.301,309.192z"/>
	<rect x="301.896" y="159.378" style="fill:#8EB6CA;" width="26.143" height="14.44"/>
	<polygon style="fill:#7E6F83;" points="173.871,267.823 162.291,287.879 185.45,287.879 	"/>
	<polygon style="fill:#C7BEA8;" points="185.449,316.692 162.291,316.692 173.871,336.748 	"/>
	<polygon style="fill:#D68E7E;" points="214.628,215.258 203.047,235.315 226.208,235.315 	"/>
	<path style="fill:#3F352F;" d="M153.631,297.879h40.479c0.006-0.001,0.012-0.001,0.02,0c2.761,0,5-2.239,5-5
		c0-1.062-0.331-2.046-0.896-2.856l-20.033-34.701c-0.893-1.547-2.544-2.5-4.33-2.5c-1.786,0-3.437,0.953-4.33,2.5l-20.24,35.057
		c-0.893,1.547-0.893,3.453,0,5C150.194,296.926,151.845,297.879,153.631,297.879z M173.871,267.823l11.579,20.056h-23.159
		L173.871,267.823z"/>
	<path style="fill:#3F352F;" d="M230.818,295.379c0.894,1.547,2.544,2.5,4.33,2.5h40.479c0.007,0,0.015,0,0.02,0
		c2.762,0,5-2.239,5-5c0-1.062-0.33-2.046-0.895-2.856l-20.035-34.701c-0.894-1.547-2.544-2.5-4.33-2.5
		c-1.786,0-3.438,0.953-4.33,2.5l-20.238,35.057C229.924,291.927,229.924,293.833,230.818,295.379z M255.386,267.823l11.58,20.056
		h-23.158L255.386,267.823z"/>
	<path style="fill:#3F352F;" d="M214.628,297.879c1.787,0,3.437-0.953,4.331-2.5l20.24-35.057c0.894-1.547,0.894-3.453,0-5
		c-0.893-1.547-2.544-2.5-4.33-2.5h-40.48c-1.786,0-3.437,0.953-4.33,2.5c-0.893,1.547-0.893,3.453,0,5l20.239,35.057
		C211.191,296.926,212.841,297.879,214.628,297.879z M203.049,262.823h23.16l-11.581,20.057L203.049,262.823z"/>
	<path style="fill:#3F352F;" d="M194.387,245.315h40.482c0.007,0.001,0.015,0,0.02,0c2.762,0,5-2.239,5-5
		c0-1.062-0.33-2.046-0.895-2.856l-20.036-34.7c-0.893-1.547-2.543-2.5-4.33-2.5c-1.786,0-3.437,0.953-4.33,2.5l-20.241,35.056
		c-0.893,1.547-0.893,3.453,0,5C190.95,244.362,192.601,245.315,194.387,245.315z M214.628,215.258l11.581,20.057h-23.161
		L214.628,215.258z"/>
	<path style="fill:#3F352F;" d="M275.626,306.692h-40.479c-1.786,0-3.436,0.953-4.33,2.5c-0.894,1.547-0.894,3.453,0,5
		l20.238,35.056c0.893,1.547,2.544,2.5,4.33,2.5c1.786,0,3.437-0.953,4.33-2.5l20.24-35.056c0.894-1.547,0.894-3.453,0-5
		C279.063,307.645,277.413,306.692,275.626,306.692z M255.386,336.748l-11.578-20.056h23.158L255.386,336.748z"/>
	<path style="fill:#3F352F;" d="M169.541,349.248c0.893,1.547,2.544,2.5,4.33,2.5c1.787,0,3.437-0.953,4.33-2.5l20.238-35.056
		c0.893-1.547,0.893-3.453,0-5c-0.893-1.547-2.544-2.5-4.33-2.5h-40.479c-1.786,0-3.437,0.953-4.33,2.5
		c-0.893,1.547-0.893,3.453,0,5L169.541,349.248z M185.449,316.692l-11.578,20.056l-11.58-20.056H185.449z"/>
	<path style="fill:#3F352F;" d="M218.96,309.192c-0.894-1.547-2.544-2.5-4.331-2.5c-1.786,0-3.437,0.953-4.33,2.5l-20.241,35.056
		c-0.893,1.547-0.893,3.453,0,5c0.893,1.547,2.544,2.5,4.33,2.5h40.48c0.007,0,0.015,0,0.02,0c2.762,0,5-2.239,5-5
		c0-1.062-0.33-2.046-0.895-2.856L218.96,309.192z M203.049,341.748l11.58-20.056l11.579,20.056H203.049z"/>
	<path style="fill:#3F352F;" d="M234.871,359.256h-40.482c-1.786,0-3.437,0.953-4.33,2.5c-0.893,1.547-0.893,3.453,0,5
		l20.241,35.056c0.893,1.547,2.544,2.5,4.33,2.5c1.787,0,3.437-0.953,4.33-2.5l20.241-35.056c0.894-1.547,0.894-3.453,0-5
		C238.307,360.209,236.657,359.256,234.871,359.256z M214.63,389.313l-11.581-20.057h23.161L214.63,389.313z"/>
	<path style="fill:#3F352F;" d="M333.039,149.378h-31.143V38.534c0-1.352-0.548-2.646-1.518-3.588L265.83,1.412l-0.007,0.003
		C264.922,0.543,263.7,0,262.347,0H166.91c-1.352,0-2.575,0.543-3.475,1.415l-0.007-0.003l-34.549,33.534
		c-0.97,0.942-1.518,2.236-1.518,3.588v110.844H96.219c-2.761,0-5,2.239-5,5v238.574c0,20.019,16.287,36.306,36.306,36.306h174.207
		c20.02,0,36.307-16.287,36.307-36.306V154.378C338.039,151.617,335.8,149.378,333.039,149.378z M267.347,16.821l24.549,23.828
		v133.169h-24.549V16.821z M171.91,10h85.437v25.566H171.91V10z M171.91,45.566h85.437v103.812H171.91V45.566z M171.91,159.378
		h85.437v14.44H171.91V159.378z M137.361,40.648l24.549-23.828v156.997h-24.549V40.648z M101.219,159.378h26.143v14.44h-26.143
		V159.378z M328.039,392.952c0,14.505-11.801,26.306-26.307,26.306H127.524c-14.505,0-26.306-11.801-26.306-26.306V183.818h226.82
		V392.952z M328.039,173.818h-26.143v-14.44h26.143V173.818z"/>
</g>
<g>
</g>
<g>
</g>
<g>
</g>
<g>
</g>
<g>
</g>
<g>
</g>
<g>
</g>
<g>
</g>
<g>
</g>
<g>
</g>
<g>
</g>
<g>
</g>
<g>
</g>
<g>
</g>
<g>
</g>
</svg>
