<?xml version="1.0" encoding="iso-8859-1"?>
<!-- Generator: Adobe Illustrator 19.1.0, SVG Export Plug-In . SVG Version: 6.00 Build 0)  -->
<svg version="1.1" id="Capa_1" xmlns="http://www.w3.org/2000/svg" xmlns:xlink="http://www.w3.org/1999/xlink" x="0px" y="0px"
	 viewBox="0 0 379.218 379.218" style="enable-background:new 0 0 379.218 379.218;" xml:space="preserve">
<g>
	<rect x="269.124" y="97.783" style="fill:#7E6F83;" width="77.88" height="10.733"/>
	<rect x="116.553" y="10" style="fill:#C4573F;" width="77.88" height="12.852"/>
	<rect x="116.553" y="32.852" style="fill:#7E6F83;" width="77.88" height="10.732"/>
	<path style="fill:#C4573F;" d="M174.713,192.373c2.421-1.509,4.968-2.856,7.57-3.87c15.192-5.921,22.602-15.279,23.498-28.562
		c0.999-14.816-8.719-36.332-8.819-36.595C186.006,131.595,161.918,154.814,174.713,192.373z"/>
	<path style="fill:#C4573F;" d="M26.99,250.234c-3.657,6.143-6.021,11.876-6.16,18.513c-0.193,9.299,3.247,18.117,9.688,24.831
		c6.44,6.713,15.109,10.517,24.41,10.71c8.617,0.155,16.75-2.766,23.156-8.184C66.587,266.593,37.118,253.838,26.99,250.234z"/>
	<rect x="269.124" y="74.932" style="fill:#C4573F;" width="77.88" height="12.851"/>
	<path style="fill:#D68E7E;" d="M164.509,194.514c0.094-0.094,0.205-0.165,0.307-0.251c-5.834-18.081-4.121-33.237,0.303-45.105
		c-0.217-0.154-0.43-0.314-0.62-0.503c-0.93-0.931-1.46-2.221-1.46-3.53c0-1.32,0.53-2.61,1.46-3.54c0.94-0.93,2.229-1.46,3.54-1.46
		c0.393,0,0.779,0.061,1.158,0.151c1.184-2.154,2.428-4.159,3.689-6.001c2.831-4.127,5.887-7.695,8.842-10.713
		c-0.306,0.059-0.616,0.093-0.93,0.093c-1.32,0-2.6-0.53-3.529-1.46c-0.941-0.931-1.471-2.221-1.471-3.54
		c0-1.31,0.53-2.6,1.471-3.53c0.93-0.94,2.209-1.47,3.529-1.47c1.32,0,2.61,0.529,3.541,1.47c0.93,0.93,1.459,2.22,1.459,3.53
		c0,0.391-0.06,0.775-0.149,1.151c3.56-3.201,6.718-5.512,8.784-6.905V97.106c-0.288,0.052-0.58,0.088-0.874,0.088
		c-1.311,0-2.601-0.54-3.53-1.471c-0.939-0.93-1.471-2.22-1.471-3.529c0-1.32,0.531-2.61,1.471-3.54c0.93-0.931,2.21-1.46,3.53-1.46
		c0.294,0,0.586,0.035,0.874,0.087V53.584h-77.88v33.655c0.149-0.014,0.296-0.045,0.445-0.045c1.32,0,2.601,0.529,3.53,1.46
		c0.93,0.93,1.47,2.22,1.47,3.54c0,1.31-0.54,2.6-1.47,3.529c-0.93,0.931-2.221,1.471-3.53,1.471c-0.178,0-0.352-0.034-0.527-0.053
		c-1.208,33.115-16.824,54.066-18.019,55.62l-30.146,40.907c0.43,0.229,0.836,0.499,1.183,0.845c0.931,0.931,1.47,2.221,1.47,3.54
		c0,1.311-0.539,2.6-1.47,3.54c-0.931,0.931-2.22,1.46-3.53,1.46c-1.307,0-2.582-0.521-3.51-1.436l-29.557,40.108
		c10.161,3.889,29.514,13.183,43.508,31.319c0.714-0.376,1.506-0.602,2.318-0.602c1.311,0,2.601,0.54,3.53,1.47
		c0.931,0.93,1.47,2.22,1.47,3.53c0,1.319-0.539,2.609-1.47,3.54c-0.093,0.093-0.204,0.163-0.304,0.248
		c1.293,2.194,2.511,4.485,3.62,6.895l29.061-32.773c-0.423-0.23-0.825-0.498-1.167-0.84c-0.93-0.93-1.46-2.21-1.46-3.529
		c0-1.32,0.53-2.61,1.46-3.54c0.93-0.931,2.221-1.46,3.54-1.46c1.31,0,2.601,0.529,3.53,1.46c0.199,0.199,0.371,0.422,0.533,0.65
		l35.736-40.303c0.211-0.245,2.896-3.327,7.027-7.069c-0.504-0.799-0.787-1.726-0.787-2.669
		C163.038,196.734,163.569,195.444,164.509,194.514z M177.259,62.194c0.93-0.931,2.219-1.471,3.539-1.471
		c1.32,0,2.61,0.54,3.541,1.471c0.93,0.93,1.459,2.22,1.459,3.529c0,1.32-0.529,2.61-1.47,3.54c-0.93,0.931-2.21,1.46-3.53,1.46
		c-1.31,0-2.6-0.529-3.539-1.46c-0.931-0.93-1.461-2.22-1.461-3.54C175.798,64.414,176.328,63.124,177.259,62.194z M164.509,88.654
		c0.92-0.931,2.209-1.46,3.529-1.46s2.61,0.529,3.54,1.46c0.931,0.93,1.46,2.22,1.46,3.54c0,1.31-0.529,2.6-1.46,3.529
		c-0.94,0.931-2.22,1.471-3.54,1.471s-2.6-0.54-3.529-1.471c-0.931-0.93-1.471-2.22-1.471-3.529
		C163.038,90.874,163.578,89.584,164.509,88.654z M56.728,228.054c-0.93,0.931-2.219,1.46-3.529,1.46c-1.32,0-2.609-0.529-3.54-1.46
		c-0.931-0.93-1.46-2.22-1.46-3.54c0-1.31,0.529-2.6,1.46-3.529c0.931-0.931,2.22-1.471,3.54-1.471c1.311,0,2.6,0.54,3.529,1.471
		c0.931,0.93,1.461,2.22,1.461,3.529C58.189,225.834,57.659,227.124,56.728,228.054z M69.489,254.514
		c-0.931,0.931-2.22,1.471-3.53,1.471c-1.32,0-2.609-0.54-3.539-1.471c-0.931-0.92-1.461-2.21-1.461-3.529
		c0-1.32,0.53-2.61,1.461-3.54c0.93-0.931,2.219-1.46,3.539-1.46c1.311,0,2.6,0.529,3.53,1.46c0.931,0.93,1.47,2.22,1.47,3.54
		C70.958,252.304,70.419,253.594,69.489,254.514z M82.248,228.054c-0.93,0.931-2.22,1.46-3.53,1.46c-1.319,0-2.609-0.529-3.539-1.46
		c-0.931-0.93-1.461-2.22-1.461-3.54c0-1.31,0.53-2.6,1.461-3.529c0.93-0.931,2.22-1.471,3.539-1.471c1.311,0,2.601,0.54,3.53,1.471
		c0.931,0.93,1.47,2.22,1.47,3.529C83.718,225.834,83.179,227.124,82.248,228.054z M95.009,254.514
		c-0.931,0.931-2.221,1.471-3.531,1.471c-1.319,0-2.609-0.54-3.539-1.471c-0.93-0.93-1.461-2.21-1.461-3.529
		c0-1.32,0.531-2.61,1.461-3.54c0.93-0.931,2.22-1.46,3.539-1.46c1.311,0,2.601,0.529,3.531,1.46c0.93,0.93,1.469,2.22,1.469,3.54
		C96.478,252.304,95.939,253.584,95.009,254.514z M95.009,201.594c-0.931,0.931-2.221,1.46-3.531,1.46
		c-1.319,0-2.609-0.529-3.539-1.46c-0.93-0.939-1.461-2.229-1.461-3.54c0-1.319,0.531-2.609,1.461-3.54
		c0.93-0.93,2.22-1.46,3.539-1.46c1.32,0,2.601,0.53,3.531,1.46c0.93,0.931,1.469,2.221,1.469,3.54
		C96.478,199.364,95.939,200.654,95.009,201.594z M107.769,228.054c-0.93,0.931-2.221,1.46-3.53,1.46c-1.319,0-2.61-0.529-3.54-1.46
		c-0.93-0.93-1.46-2.22-1.46-3.54c0-1.31,0.53-2.6,1.46-3.529c0.93-0.931,2.221-1.471,3.54-1.471c1.31,0,2.601,0.54,3.53,1.471
		c0.93,0.93,1.47,2.22,1.47,3.529C109.239,225.834,108.699,227.124,107.769,228.054z M107.769,175.124
		c-0.93,0.93-2.221,1.47-3.53,1.47c-1.319,0-2.61-0.54-3.54-1.47c-0.93-0.93-1.46-2.22-1.46-3.54c0-1.309,0.53-2.6,1.46-3.53
		c0.93-0.93,2.221-1.47,3.54-1.47c1.31,0,2.601,0.54,3.53,1.47c0.93,0.931,1.47,2.221,1.47,3.53
		C109.239,172.904,108.699,174.194,107.769,175.124z M120.529,201.594c-0.93,0.931-2.21,1.46-3.53,1.46
		c-1.319,0-2.61-0.529-3.54-1.46c-0.93-0.939-1.46-2.229-1.46-3.54c0-1.319,0.53-2.609,1.46-3.54c0.93-0.93,2.221-1.46,3.54-1.46
		c1.32,0,2.601,0.53,3.53,1.46c0.93,0.931,1.47,2.221,1.47,3.54C121.998,199.364,121.458,200.654,120.529,201.594z M120.529,148.654
		c-0.93,0.93-2.221,1.47-3.53,1.47c-1.319,0-2.61-0.54-3.54-1.47c-0.93-0.931-1.46-2.221-1.46-3.53c0-1.32,0.53-2.61,1.46-3.54
		c0.93-0.93,2.221-1.46,3.54-1.46c1.31,0,2.601,0.53,3.53,1.46s1.47,2.22,1.47,3.54
		C121.998,146.434,121.458,147.724,120.529,148.654z M133.288,228.054c-0.93,0.931-2.22,1.46-3.529,1.46
		c-1.32,0-2.61-0.529-3.541-1.46c-0.93-0.93-1.459-2.22-1.459-3.54c0-1.31,0.529-2.6,1.459-3.529
		c0.931-0.931,2.221-1.471,3.541-1.471c1.31,0,2.6,0.54,3.529,1.471c0.93,0.93,1.471,2.22,1.471,3.529
		C134.759,225.834,134.218,227.124,133.288,228.054z M133.288,175.124c-0.93,0.93-2.22,1.47-3.529,1.47
		c-1.32,0-2.61-0.54-3.541-1.47c-0.93-0.93-1.459-2.22-1.459-3.54c0-1.309,0.529-2.6,1.459-3.53c0.931-0.93,2.221-1.47,3.541-1.47
		c1.31,0,2.6,0.54,3.529,1.47c0.93,0.931,1.471,2.221,1.471,3.53C134.759,172.904,134.218,174.194,133.288,175.124z
		 M133.288,122.194c-0.93,0.93-2.22,1.46-3.529,1.46c-1.32,0-2.61-0.53-3.541-1.46c-0.93-0.931-1.459-2.221-1.459-3.54
		c0-1.31,0.529-2.6,1.459-3.53c0.931-0.94,2.221-1.47,3.541-1.47c1.31,0,2.6,0.529,3.529,1.47c0.93,0.93,1.471,2.22,1.471,3.53
		C134.759,119.974,134.218,121.264,133.288,122.194z M133.288,69.264c-0.93,0.931-2.22,1.46-3.529,1.46
		c-1.32,0-2.61-0.529-3.541-1.46c-0.93-0.93-1.459-2.22-1.459-3.54c0-1.31,0.529-2.6,1.459-3.529
		c0.931-0.931,2.221-1.471,3.541-1.471c1.31,0,2.6,0.54,3.529,1.471c0.93,0.93,1.471,2.22,1.471,3.529
		C134.759,67.044,134.218,68.334,133.288,69.264z M146.058,201.594c-0.93,0.931-2.219,1.46-3.539,1.46
		c-1.32,0-2.61-0.529-3.541-1.46c-0.93-0.939-1.459-2.229-1.459-3.54c0-1.319,0.529-2.609,1.459-3.54
		c0.931-0.93,2.221-1.46,3.541-1.46c1.32,0,2.609,0.53,3.539,1.46c0.931,0.931,1.461,2.221,1.461,3.54
		C147.519,199.364,146.989,200.654,146.058,201.594z M146.048,148.654c-0.93,0.93-2.209,1.47-3.529,1.47
		c-1.32,0-2.61-0.54-3.541-1.47c-0.93-0.931-1.459-2.221-1.459-3.53c0-1.32,0.529-2.61,1.459-3.54c0.931-0.93,2.221-1.46,3.541-1.46
		c1.32,0,2.6,0.53,3.529,1.46c0.94,0.93,1.471,2.22,1.471,3.54C147.519,146.434,146.989,147.724,146.048,148.654z M146.058,95.724
		c-0.939,0.931-2.23,1.471-3.539,1.471c-1.32,0-2.61-0.54-3.541-1.471c-0.93-0.93-1.459-2.22-1.459-3.529
		c0-1.32,0.529-2.61,1.459-3.54c0.931-0.931,2.221-1.46,3.541-1.46c1.32,0,2.609,0.529,3.539,1.46c0.931,0.93,1.461,2.22,1.461,3.54
		C147.519,93.504,146.989,94.794,146.058,95.724z M158.808,175.124c-0.93,0.93-2.219,1.47-3.529,1.47c-1.32,0-2.609-0.54-3.54-1.47
		c-0.931-0.93-1.46-2.22-1.46-3.54c0-1.309,0.529-2.6,1.46-3.53c0.931-0.93,2.22-1.47,3.54-1.47c1.311,0,2.6,0.54,3.529,1.47
		c0.94,0.931,1.471,2.221,1.471,3.53C160.279,172.904,159.748,174.194,158.808,175.124z M158.819,122.194
		c-0.941,0.93-2.23,1.46-3.54,1.46c-1.32,0-2.6-0.53-3.54-1.46c-0.931-0.931-1.46-2.221-1.46-3.54c0-1.31,0.529-2.6,1.46-3.53
		c0.94-0.94,2.22-1.47,3.54-1.47c1.311,0,2.6,0.529,3.54,1.47c0.93,0.93,1.46,2.22,1.46,3.53
		C160.279,119.974,159.748,121.264,158.819,122.194z M158.808,69.264c-0.93,0.931-2.209,1.46-3.529,1.46
		c-1.32,0-2.6-0.529-3.54-1.46c-0.931-0.93-1.46-2.22-1.46-3.54c0-1.31,0.529-2.6,1.46-3.529c0.931-0.931,2.22-1.471,3.54-1.471
		c1.32,0,2.609,0.54,3.529,1.471c0.931,0.93,1.471,2.22,1.471,3.529C160.279,67.044,159.739,68.334,158.808,69.264z"/>
	<path style="fill:#C4573F;" d="M179.56,315.166c-3.656,6.142-6.021,11.876-6.159,18.513c-0.193,9.299,3.247,18.117,9.687,24.831
		c6.44,6.713,15.109,10.517,24.409,10.71c8.618,0.155,16.751-2.766,23.156-8.185C219.159,331.525,189.689,318.77,179.56,315.166z"/>
	<path style="fill:#D68E7E;" d="M334.299,188.493c-0.306,0.059-0.616,0.093-0.929,0.093c-1.32,0-2.601-0.53-3.531-1.46
		c-0.939-0.931-1.469-2.221-1.469-3.54c0-1.311,0.529-2.601,1.469-3.53c0.931-0.94,2.211-1.47,3.531-1.47
		c1.319,0,2.609,0.529,3.539,1.47c0.93,0.93,1.461,2.22,1.461,3.53c0,0.391-0.061,0.774-0.15,1.151
		c3.56-3.201,6.718-5.513,8.784-6.905v-15.794c-0.288,0.052-0.579,0.088-0.874,0.088c-1.311,0-2.601-0.54-3.53-1.471
		c-0.94-0.93-1.47-2.22-1.47-3.529c0-1.32,0.529-2.61,1.47-3.54c0.93-0.931,2.21-1.46,3.53-1.46c0.295,0,0.586,0.035,0.874,0.087
		v-33.697h-77.88v33.655c0.148-0.014,0.295-0.045,0.445-0.045c1.32,0,2.6,0.529,3.53,1.46c0.93,0.93,1.47,2.22,1.47,3.54
		c0,1.31-0.54,2.6-1.47,3.529c-0.931,0.931-2.22,1.471-3.53,1.471c-0.178,0-0.352-0.034-0.527-0.053
		c-1.208,33.115-16.824,54.065-18.019,55.62l-30.145,40.907c0.428,0.229,0.836,0.499,1.182,0.845c0.93,0.931,1.47,2.221,1.47,3.54
		c0,1.31-0.54,2.601-1.47,3.54c-0.93,0.931-2.221,1.46-3.53,1.46c-1.307,0-2.582-0.522-3.51-1.436l-29.556,40.108
		c10.16,3.889,29.513,13.183,43.508,31.319c0.713-0.376,1.504-0.602,2.318-0.602c1.31,0,2.6,0.54,3.529,1.47
		c0.93,0.93,1.471,2.22,1.471,3.53c0,1.319-0.541,2.609-1.471,3.54c-0.093,0.093-0.204,0.163-0.304,0.248
		c1.294,2.194,2.511,4.485,3.62,6.895l29.061-32.773c-0.424-0.229-0.825-0.498-1.167-0.84c-0.93-0.93-1.46-2.21-1.46-3.529
		c0-1.32,0.53-2.61,1.46-3.54c0.931-0.931,2.22-1.46,3.54-1.46c1.311,0,2.6,0.529,3.53,1.46c0.199,0.199,0.37,0.422,0.532,0.65
		l35.737-40.303c0.211-0.245,2.896-3.327,7.028-7.069c-0.504-0.799-0.788-1.725-0.788-2.669c0-1.319,0.53-2.609,1.47-3.54
		c0.095-0.094,0.206-0.165,0.307-0.251c-5.832-18.081-4.12-33.237,0.304-45.104c-0.216-0.155-0.43-0.315-0.62-0.504
		c-0.93-0.931-1.46-2.221-1.46-3.53c0-1.32,0.53-2.61,1.46-3.54c0.94-0.93,2.23-1.46,3.54-1.46c0.393,0,0.779,0.061,1.158,0.151
		c1.183-2.154,2.427-4.16,3.69-6.001C328.288,195.079,331.344,191.512,334.299,188.493z M329.829,127.126
		c0.93-0.931,2.221-1.471,3.541-1.471c1.319,0,2.609,0.54,3.539,1.471c0.93,0.93,1.461,2.22,1.461,3.529
		c0,1.32-0.531,2.61-1.471,3.54c-0.93,0.931-2.21,1.46-3.529,1.46c-1.311,0-2.601-0.529-3.541-1.46
		c-0.93-0.93-1.459-2.22-1.459-3.54C328.37,129.346,328.9,128.056,329.829,127.126z M209.3,292.985
		c-0.93,0.931-2.221,1.46-3.53,1.46c-1.319,0-2.61-0.529-3.54-1.46c-0.93-0.93-1.46-2.22-1.46-3.54c0-1.31,0.53-2.6,1.46-3.529
		c0.93-0.931,2.221-1.471,3.54-1.471c1.31,0,2.601,0.54,3.53,1.471c0.93,0.93,1.459,2.22,1.459,3.529
		C210.759,290.766,210.23,292.056,209.3,292.985z M222.06,319.445c-0.93,0.931-2.221,1.471-3.53,1.471
		c-1.319,0-2.61-0.54-3.54-1.471c-0.93-0.92-1.46-2.21-1.46-3.529c0-1.32,0.53-2.61,1.46-3.54c0.93-0.931,2.221-1.46,3.54-1.46
		c1.31,0,2.601,0.529,3.53,1.46c0.93,0.93,1.47,2.22,1.47,3.54C223.53,317.235,222.99,318.525,222.06,319.445z M234.82,292.985
		c-0.93,0.931-2.22,1.46-3.529,1.46c-1.32,0-2.61-0.529-3.541-1.46c-0.93-0.93-1.459-2.22-1.459-3.54c0-1.31,0.529-2.6,1.459-3.529
		c0.931-0.931,2.221-1.471,3.541-1.471c1.31,0,2.6,0.54,3.529,1.471c0.93,0.93,1.471,2.22,1.471,3.529
		C236.29,290.766,235.749,292.056,234.82,292.985z M247.579,319.445c-0.93,0.931-2.22,1.471-3.529,1.471
		c-1.32,0-2.61-0.54-3.541-1.471c-0.93-0.93-1.459-2.21-1.459-3.529c0-1.32,0.529-2.61,1.459-3.54
		c0.931-0.931,2.221-1.46,3.541-1.46c1.31,0,2.6,0.529,3.529,1.46c0.93,0.93,1.471,2.22,1.471,3.54
		C249.05,317.235,248.509,318.516,247.579,319.445z M247.579,266.525c-0.93,0.931-2.22,1.46-3.529,1.46
		c-1.32,0-2.61-0.529-3.541-1.46c-0.93-0.939-1.459-2.229-1.459-3.54c0-1.319,0.529-2.609,1.459-3.54
		c0.931-0.93,2.221-1.46,3.541-1.46s2.6,0.53,3.529,1.46c0.93,0.931,1.471,2.221,1.471,3.54
		C249.05,264.296,248.509,265.586,247.579,266.525z M260.339,292.985c-0.93,0.931-2.219,1.46-3.529,1.46
		c-1.32,0-2.609-0.529-3.54-1.46c-0.931-0.93-1.46-2.22-1.46-3.54c0-1.31,0.529-2.6,1.46-3.529c0.931-0.931,2.22-1.471,3.54-1.471
		c1.311,0,2.6,0.54,3.529,1.471c0.931,0.93,1.471,2.22,1.471,3.529C261.81,290.766,261.27,292.056,260.339,292.985z
		 M260.339,240.056c-0.93,0.93-2.219,1.47-3.529,1.47c-1.32,0-2.609-0.54-3.54-1.47c-0.931-0.93-1.46-2.22-1.46-3.54
		c0-1.31,0.529-2.6,1.46-3.53c0.931-0.93,2.22-1.47,3.54-1.47c1.311,0,2.6,0.54,3.529,1.47c0.931,0.931,1.471,2.221,1.471,3.53
		C261.81,237.836,261.27,239.126,260.339,240.056z M273.1,266.525c-0.931,0.931-2.21,1.46-3.53,1.46c-1.32,0-2.609-0.529-3.54-1.46
		c-0.93-0.939-1.46-2.229-1.46-3.54c0-1.319,0.53-2.609,1.46-3.54c0.931-0.93,2.22-1.46,3.54-1.46c1.32,0,2.6,0.53,3.53,1.46
		c0.93,0.931,1.47,2.221,1.47,3.54C274.57,264.296,274.03,265.586,273.1,266.525z M273.1,213.586c-0.931,0.93-2.22,1.47-3.53,1.47
		c-1.32,0-2.609-0.54-3.54-1.47c-0.93-0.931-1.46-2.221-1.46-3.53c0-1.32,0.53-2.61,1.46-3.54c0.931-0.93,2.22-1.46,3.54-1.46
		c1.311,0,2.6,0.53,3.53,1.46c0.93,0.93,1.47,2.22,1.47,3.54C274.57,211.365,274.03,212.655,273.1,213.586z M285.86,292.985
		c-0.93,0.931-2.22,1.46-3.53,1.46c-1.32,0-2.609-0.529-3.539-1.46c-0.931-0.93-1.461-2.22-1.461-3.54c0-1.31,0.53-2.6,1.461-3.529
		c0.93-0.931,2.219-1.471,3.539-1.471c1.311,0,2.601,0.54,3.53,1.471c0.931,0.93,1.47,2.22,1.47,3.529
		C287.329,290.766,286.79,292.056,285.86,292.985z M285.86,240.056c-0.93,0.93-2.22,1.47-3.53,1.47c-1.32,0-2.609-0.54-3.539-1.47
		c-0.931-0.93-1.461-2.22-1.461-3.54c0-1.31,0.53-2.6,1.461-3.53c0.93-0.93,2.219-1.47,3.539-1.47c1.311,0,2.601,0.54,3.53,1.47
		c0.931,0.931,1.47,2.221,1.47,3.53C287.329,237.836,286.79,239.126,285.86,240.056z M285.86,187.126
		c-0.93,0.93-2.22,1.46-3.53,1.46c-1.32,0-2.609-0.53-3.539-1.46c-0.931-0.931-1.461-2.221-1.461-3.54
		c0-1.311,0.53-2.601,1.461-3.53c0.93-0.94,2.219-1.47,3.539-1.47c1.311,0,2.601,0.529,3.53,1.47c0.931,0.93,1.47,2.22,1.47,3.53
		C287.329,184.905,286.79,186.195,285.86,187.126z M285.86,134.195c-0.93,0.931-2.22,1.46-3.53,1.46c-1.32,0-2.609-0.529-3.539-1.46
		c-0.931-0.93-1.461-2.22-1.461-3.54c0-1.31,0.53-2.6,1.461-3.529c0.93-0.931,2.219-1.471,3.539-1.471
		c1.311,0,2.601,0.54,3.53,1.471c0.931,0.93,1.47,2.22,1.47,3.529C287.329,131.976,286.79,133.266,285.86,134.195z M298.63,266.525
		c-0.93,0.931-2.221,1.46-3.541,1.46c-1.319,0-2.609-0.529-3.539-1.46c-0.93-0.939-1.461-2.229-1.461-3.54
		c0-1.319,0.531-2.609,1.461-3.54c0.93-0.93,2.22-1.46,3.539-1.46c1.32,0,2.611,0.53,3.541,1.46c0.93,0.931,1.459,2.221,1.459,3.54
		C300.089,264.296,299.56,265.586,298.63,266.525z M298.62,213.586c-0.931,0.93-2.211,1.47-3.531,1.47
		c-1.319,0-2.609-0.54-3.539-1.47c-0.93-0.931-1.461-2.221-1.461-3.53c0-1.32,0.531-2.61,1.461-3.54s2.22-1.46,3.539-1.46
		c1.32,0,2.601,0.53,3.531,1.46c0.939,0.93,1.469,2.22,1.469,3.54C300.089,211.365,299.56,212.655,298.62,213.586z M298.63,160.655
		c-0.94,0.931-2.23,1.471-3.541,1.471c-1.319,0-2.609-0.54-3.539-1.471c-0.93-0.93-1.461-2.22-1.461-3.529
		c0-1.32,0.531-2.61,1.461-3.54c0.93-0.931,2.22-1.46,3.539-1.46c1.32,0,2.611,0.529,3.541,1.46c0.93,0.93,1.459,2.22,1.459,3.54
		C300.089,158.436,299.56,159.726,298.63,160.655z M311.38,240.056c-0.93,0.93-2.221,1.47-3.53,1.47c-1.32,0-2.61-0.54-3.54-1.47
		c-0.93-0.93-1.46-2.22-1.46-3.54c0-1.31,0.53-2.6,1.46-3.53c0.93-0.93,2.22-1.47,3.54-1.47c1.31,0,2.601,0.54,3.53,1.47
		c0.939,0.931,1.47,2.221,1.47,3.53C312.85,237.836,312.32,239.126,311.38,240.056z M311.39,187.126c-0.94,0.93-2.23,1.46-3.54,1.46
		c-1.32,0-2.601-0.53-3.54-1.46c-0.93-0.931-1.46-2.221-1.46-3.54c0-1.311,0.53-2.601,1.46-3.53c0.939-0.94,2.22-1.47,3.54-1.47
		c1.31,0,2.601,0.529,3.54,1.47c0.93,0.93,1.46,2.22,1.46,3.53C312.85,184.905,312.32,186.195,311.39,187.126z M311.38,134.195
		c-0.93,0.931-2.211,1.46-3.53,1.46c-1.32,0-2.601-0.529-3.54-1.46c-0.93-0.93-1.46-2.22-1.46-3.54c0-1.31,0.53-2.6,1.46-3.529
		c0.93-0.931,2.22-1.471,3.54-1.471c1.319,0,2.61,0.54,3.53,1.471c0.93,0.93,1.47,2.22,1.47,3.529
		C312.85,131.976,312.31,133.266,311.38,134.195z M320.61,162.126c-1.319,0-2.601-0.54-3.53-1.471c-0.93-0.93-1.47-2.22-1.47-3.529
		c0-1.32,0.54-2.61,1.47-3.54c0.92-0.931,2.211-1.46,3.53-1.46c1.32,0,2.61,0.529,3.54,1.46c0.93,0.93,1.46,2.22,1.46,3.54
		c0,1.31-0.53,2.6-1.46,3.529C323.21,161.586,321.93,162.126,320.61,162.126z"/>
	<path style="fill:#C4573F;" d="M327.285,257.305c2.42-1.509,4.969-2.856,7.57-3.87c15.192-5.921,22.603-15.279,23.498-28.562
		c0.999-14.816-8.719-36.332-8.818-36.595C338.578,196.526,314.49,219.745,327.285,257.305z"/>
	<path style="fill:#3F352F;" d="M185.915,197.82c18.999-7.405,29.044-19.993,29.855-37.415c0.658-14.133-4.79-28.389-9.167-39.845
		c-0.782-2.048-1.527-3.997-2.171-5.781V5c0-2.762-2.238-5-5-5h-87.88c-2.761,0-5,2.238-5,5v88.088
		c0,32.442-15.884,53.39-16.036,53.589c-0.028,0.035-69.885,94.842-69.914,94.887c-4.942,7.663-9.547,16.235-9.771,26.976
		c-0.248,11.97,4.18,23.32,12.469,31.961c8.29,8.642,19.447,13.537,31.419,13.786c0.319,0.007,21.825,0,35.977-16.873l73.627-83.036
		C164.43,214.255,175.073,202.046,185.915,197.82z M205.782,159.941c-0.896,13.283-8.306,22.642-23.498,28.562
		c-2.603,1.014-5.149,2.361-7.57,3.87c-12.795-37.56,11.293-60.778,22.249-69.027C197.063,123.608,206.781,145.124,205.782,159.941z
		 M116.553,10h77.88v12.852h-77.88V10z M116.553,32.852h77.88v10.732h-77.88V32.852z M54.927,304.288
		c-9.301-0.193-17.97-3.997-24.41-10.71c-6.44-6.714-9.881-15.532-9.688-24.831c0.139-6.637,2.503-12.37,6.16-18.513
		c10.128,3.604,39.598,16.358,51.094,45.869C71.677,301.522,63.544,304.443,54.927,304.288z M156.798,207.792l-35.736,40.303
		c-0.162-0.229-0.334-0.451-0.533-0.65c-0.93-0.931-2.221-1.46-3.53-1.46c-1.319,0-2.61,0.529-3.54,1.46
		c-0.93,0.93-1.46,2.22-1.46,3.54c0,1.319,0.53,2.6,1.46,3.529c0.342,0.342,0.744,0.61,1.167,0.84l-29.061,32.773
		c-1.109-2.409-2.327-4.7-3.62-6.895c0.1-0.085,0.211-0.155,0.304-0.248c0.931-0.931,1.47-2.221,1.47-3.54
		c0-1.311-0.539-2.601-1.47-3.53c-0.93-0.93-2.22-1.47-3.53-1.47c-0.812,0-1.604,0.226-2.318,0.602
		c-13.994-18.137-33.347-27.431-43.508-31.319l29.557-40.108c0.928,0.914,2.203,1.436,3.51,1.436c1.311,0,2.6-0.529,3.53-1.46
		c0.931-0.939,1.47-2.229,1.47-3.54c0-1.319-0.539-2.609-1.47-3.54c-0.347-0.346-0.753-0.616-1.183-0.845l30.146-40.907
		c1.194-1.555,16.811-22.505,18.019-55.62c0.176,0.019,0.35,0.053,0.527,0.053c1.31,0,2.601-0.54,3.53-1.471
		c0.93-0.93,1.47-2.22,1.47-3.529c0-1.32-0.54-2.61-1.47-3.54c-0.93-0.931-2.21-1.46-3.53-1.46c-0.149,0-0.296,0.031-0.445,0.045
		V53.584h77.88v33.697c-0.288-0.052-0.58-0.087-0.874-0.087c-1.32,0-2.601,0.529-3.53,1.46c-0.939,0.93-1.471,2.22-1.471,3.54
		c0,1.31,0.531,2.6,1.471,3.529c0.93,0.931,2.22,1.471,3.53,1.471c0.294,0,0.586-0.036,0.874-0.088V112.9
		c-2.066,1.394-5.225,3.704-8.784,6.905c0.09-0.377,0.149-0.761,0.149-1.151c0-1.31-0.529-2.6-1.459-3.53
		c-0.931-0.94-2.221-1.47-3.541-1.47c-1.32,0-2.6,0.529-3.529,1.47c-0.941,0.93-1.471,2.22-1.471,3.53
		c0,1.319,0.53,2.609,1.471,3.54c0.93,0.93,2.209,1.46,3.529,1.46c0.313,0,0.624-0.034,0.93-0.093
		c-2.955,3.018-6.011,6.586-8.842,10.713c-1.262,1.842-2.506,3.847-3.689,6.001c-0.379-0.091-0.766-0.151-1.158-0.151
		c-1.311,0-2.6,0.53-3.54,1.46c-0.93,0.93-1.46,2.22-1.46,3.54c0,1.309,0.53,2.6,1.46,3.53c0.19,0.189,0.403,0.349,0.62,0.503
		c-4.424,11.868-6.137,27.024-0.303,45.105c-0.102,0.086-0.213,0.157-0.307,0.251c-0.94,0.931-1.471,2.221-1.471,3.54
		c0,0.943,0.283,1.87,0.787,2.669C159.695,204.465,157.009,207.547,156.798,207.792z"/>
	<path style="fill:#3F352F;" d="M129.759,60.724c-1.32,0-2.61,0.54-3.541,1.471c-0.93,0.93-1.459,2.22-1.459,3.529
		c0,1.32,0.529,2.61,1.459,3.54c0.931,0.931,2.221,1.46,3.541,1.46c1.31,0,2.6-0.529,3.529-1.46c0.93-0.93,1.471-2.22,1.471-3.54
		c0-1.31-0.541-2.6-1.471-3.529C132.359,61.264,131.069,60.724,129.759,60.724z"/>
	<path style="fill:#3F352F;" d="M155.279,60.724c-1.32,0-2.609,0.54-3.54,1.471c-0.931,0.93-1.46,2.22-1.46,3.529
		c0,1.32,0.529,2.61,1.46,3.54c0.94,0.931,2.22,1.46,3.54,1.46c1.32,0,2.6-0.529,3.529-1.46c0.931-0.93,1.471-2.22,1.471-3.54
		c0-1.31-0.54-2.6-1.471-3.529C157.888,61.264,156.599,60.724,155.279,60.724z"/>
	<path style="fill:#3F352F;" d="M180.798,70.724c1.32,0,2.601-0.529,3.53-1.46c0.941-0.93,1.47-2.22,1.47-3.54
		c0-1.31-0.529-2.6-1.459-3.529c-0.931-0.931-2.221-1.471-3.541-1.471c-1.32,0-2.609,0.54-3.539,1.471
		c-0.931,0.93-1.461,2.22-1.461,3.529c0,1.32,0.53,2.61,1.461,3.54C178.199,70.194,179.489,70.724,180.798,70.724z"/>
	<path style="fill:#3F352F;" d="M142.519,87.194c-1.32,0-2.61,0.529-3.541,1.46c-0.93,0.93-1.459,2.22-1.459,3.54
		c0,1.31,0.529,2.6,1.459,3.529c0.931,0.931,2.221,1.471,3.541,1.471c1.309,0,2.6-0.54,3.539-1.471
		c0.931-0.93,1.461-2.22,1.461-3.529c0-1.32-0.53-2.61-1.461-3.54C145.128,87.724,143.839,87.194,142.519,87.194z"/>
	<path style="fill:#3F352F;" d="M168.038,97.194c1.32,0,2.6-0.54,3.54-1.471c0.931-0.93,1.46-2.22,1.46-3.529
		c0-1.32-0.529-2.61-1.46-3.54c-0.93-0.931-2.22-1.46-3.54-1.46s-2.609,0.529-3.529,1.46c-0.931,0.93-1.471,2.22-1.471,3.54
		c0,1.31,0.54,2.6,1.471,3.529C165.439,96.654,166.718,97.194,168.038,97.194z"/>
	<path style="fill:#3F352F;" d="M129.759,113.654c-1.32,0-2.61,0.529-3.541,1.47c-0.93,0.93-1.459,2.22-1.459,3.53
		c0,1.319,0.529,2.609,1.459,3.54c0.931,0.93,2.221,1.46,3.541,1.46c1.31,0,2.6-0.53,3.529-1.46c0.93-0.931,1.471-2.221,1.471-3.54
		c0-1.31-0.541-2.6-1.471-3.53C132.359,114.184,131.069,113.654,129.759,113.654z"/>
	<path style="fill:#3F352F;" d="M155.279,113.654c-1.32,0-2.6,0.529-3.54,1.47c-0.931,0.93-1.46,2.22-1.46,3.53
		c0,1.319,0.529,2.609,1.46,3.54c0.94,0.93,2.22,1.46,3.54,1.46c1.311,0,2.6-0.53,3.54-1.46c0.93-0.931,1.46-2.221,1.46-3.54
		c0-1.31-0.53-2.6-1.46-3.53C157.878,114.184,156.589,113.654,155.279,113.654z"/>
	<path style="fill:#3F352F;" d="M116.998,140.124c-1.319,0-2.61,0.53-3.54,1.46c-0.93,0.93-1.46,2.22-1.46,3.54
		c0,1.309,0.53,2.6,1.46,3.53c0.93,0.93,2.221,1.47,3.54,1.47c1.31,0,2.601-0.54,3.53-1.47c0.93-0.931,1.47-2.221,1.47-3.53
		c0-1.32-0.54-2.61-1.47-3.54S118.308,140.124,116.998,140.124z"/>
	<path style="fill:#3F352F;" d="M142.519,140.124c-1.32,0-2.61,0.53-3.541,1.46c-0.93,0.93-1.459,2.22-1.459,3.54
		c0,1.309,0.529,2.6,1.459,3.53c0.931,0.93,2.221,1.47,3.541,1.47c1.32,0,2.6-0.54,3.529-1.47c0.94-0.931,1.471-2.221,1.471-3.53
		c0-1.32-0.53-2.61-1.471-3.54C145.119,140.654,143.839,140.124,142.519,140.124z"/>
	<path style="fill:#3F352F;" d="M104.239,166.584c-1.319,0-2.61,0.54-3.54,1.47c-0.93,0.931-1.46,2.221-1.46,3.53
		c0,1.32,0.53,2.61,1.46,3.54c0.93,0.93,2.221,1.47,3.54,1.47c1.31,0,2.601-0.54,3.53-1.47c0.93-0.93,1.47-2.22,1.47-3.54
		c0-1.309-0.54-2.6-1.47-3.53C106.839,167.124,105.548,166.584,104.239,166.584z"/>
	<path style="fill:#3F352F;" d="M129.759,166.584c-1.32,0-2.61,0.54-3.541,1.47c-0.93,0.931-1.459,2.221-1.459,3.53
		c0,1.32,0.529,2.61,1.459,3.54c0.931,0.93,2.221,1.47,3.541,1.47c1.31,0,2.6-0.54,3.529-1.47c0.93-0.93,1.471-2.22,1.471-3.54
		c0-1.309-0.541-2.6-1.471-3.53C132.359,167.124,131.069,166.584,129.759,166.584z"/>
	<path style="fill:#3F352F;" d="M155.279,166.584c-1.32,0-2.609,0.54-3.54,1.47c-0.931,0.931-1.46,2.221-1.46,3.53
		c0,1.32,0.529,2.61,1.46,3.54c0.931,0.93,2.22,1.47,3.54,1.47c1.311,0,2.6-0.54,3.529-1.47c0.94-0.93,1.471-2.22,1.471-3.54
		c0-1.309-0.53-2.6-1.471-3.53C157.878,167.124,156.589,166.584,155.279,166.584z"/>
	<path style="fill:#3F352F;" d="M91.478,193.054c-1.319,0-2.609,0.53-3.539,1.46c-0.93,0.931-1.461,2.221-1.461,3.54
		c0,1.311,0.531,2.6,1.461,3.54c0.93,0.931,2.22,1.46,3.539,1.46c1.311,0,2.601-0.529,3.531-1.46c0.93-0.939,1.469-2.229,1.469-3.54
		c0-1.319-0.539-2.609-1.469-3.54C94.078,193.584,92.798,193.054,91.478,193.054z"/>
	<path style="fill:#3F352F;" d="M116.998,193.054c-1.319,0-2.61,0.53-3.54,1.46c-0.93,0.931-1.46,2.221-1.46,3.54
		c0,1.311,0.53,2.6,1.46,3.54c0.93,0.931,2.221,1.46,3.54,1.46c1.32,0,2.601-0.529,3.53-1.46c0.93-0.939,1.47-2.229,1.47-3.54
		c0-1.319-0.54-2.609-1.47-3.54C119.599,193.584,118.319,193.054,116.998,193.054z"/>
	<path style="fill:#3F352F;" d="M142.519,193.054c-1.32,0-2.61,0.53-3.541,1.46c-0.93,0.931-1.459,2.221-1.459,3.54
		c0,1.311,0.529,2.6,1.459,3.54c0.931,0.931,2.221,1.46,3.541,1.46c1.32,0,2.609-0.529,3.539-1.46
		c0.931-0.939,1.461-2.229,1.461-3.54c0-1.319-0.53-2.609-1.461-3.54C145.128,193.584,143.839,193.054,142.519,193.054z"/>
	<path style="fill:#3F352F;" d="M53.199,219.514c-1.32,0-2.609,0.54-3.54,1.471c-0.931,0.93-1.46,2.22-1.46,3.529
		c0,1.32,0.529,2.61,1.46,3.54c0.931,0.931,2.22,1.46,3.54,1.46c1.311,0,2.6-0.529,3.529-1.46c0.931-0.93,1.461-2.22,1.461-3.54
		c0-1.31-0.53-2.6-1.461-3.529C55.798,220.054,54.509,219.514,53.199,219.514z"/>
	<path style="fill:#3F352F;" d="M78.718,219.514c-1.319,0-2.609,0.54-3.539,1.471c-0.931,0.93-1.461,2.22-1.461,3.529
		c0,1.32,0.53,2.61,1.461,3.54c0.93,0.931,2.22,1.46,3.539,1.46c1.311,0,2.601-0.529,3.53-1.46c0.931-0.93,1.47-2.22,1.47-3.54
		c0-1.31-0.539-2.6-1.47-3.529C81.319,220.054,80.029,219.514,78.718,219.514z"/>
	<path style="fill:#3F352F;" d="M104.239,219.514c-1.319,0-2.61,0.54-3.54,1.471c-0.93,0.93-1.46,2.22-1.46,3.529
		c0,1.32,0.53,2.61,1.46,3.54c0.93,0.931,2.221,1.46,3.54,1.46c1.31,0,2.601-0.529,3.53-1.46c0.93-0.93,1.47-2.22,1.47-3.54
		c0-1.31-0.54-2.6-1.47-3.529C106.839,220.054,105.548,219.514,104.239,219.514z"/>
	<path style="fill:#3F352F;" d="M129.759,219.514c-1.32,0-2.61,0.54-3.541,1.471c-0.93,0.93-1.459,2.22-1.459,3.529
		c0,1.32,0.529,2.61,1.459,3.54c0.931,0.931,2.221,1.46,3.541,1.46c1.31,0,2.6-0.529,3.529-1.46c0.93-0.93,1.471-2.22,1.471-3.54
		c0-1.31-0.541-2.6-1.471-3.529C132.359,220.054,131.069,219.514,129.759,219.514z"/>
	<path style="fill:#3F352F;" d="M65.958,245.984c-1.32,0-2.609,0.529-3.539,1.46c-0.931,0.93-1.461,2.22-1.461,3.54
		c0,1.319,0.53,2.609,1.461,3.529c0.93,0.931,2.219,1.471,3.539,1.471c1.311,0,2.6-0.54,3.53-1.471c0.931-0.92,1.47-2.21,1.47-3.529
		c0-1.32-0.539-2.61-1.47-3.54C68.558,246.514,67.269,245.984,65.958,245.984z"/>
	<path style="fill:#3F352F;" d="M91.478,245.984c-1.319,0-2.609,0.529-3.539,1.46c-0.93,0.93-1.461,2.22-1.461,3.54
		c0,1.319,0.531,2.6,1.461,3.529c0.93,0.931,2.22,1.471,3.539,1.471c1.311,0,2.601-0.54,3.531-1.471
		c0.93-0.93,1.469-2.21,1.469-3.529c0-1.32-0.539-2.61-1.469-3.54C94.078,246.514,92.788,245.984,91.478,245.984z"/>
	<path style="fill:#3F352F;" d="M357.004,179.711V69.932c0-2.762-2.238-5-5-5h-87.88c-2.762,0-5,2.238-5,5v88.088
		c0,32.442-15.883,53.39-16.037,53.589c-0.027,0.035-69.884,94.842-69.912,94.887c-4.943,7.663-9.549,16.235-9.772,26.975
		c-0.249,11.97,4.18,23.32,12.47,31.961c8.289,8.642,19.447,13.537,31.418,13.786c0.32,0.007,21.826,0,35.977-16.873l73.628-83.036
		c0.107-0.122,10.749-12.331,21.591-16.557c19-7.405,29.045-19.993,29.856-37.415c0.658-14.133-4.79-28.389-9.167-39.845
		C358.393,183.444,357.648,181.495,357.004,179.711z M269.124,74.932h77.88v12.852h-77.88V74.932z M269.124,97.783h77.88v10.732
		h-77.88V97.783z M207.497,369.22c-9.3-0.193-17.969-3.997-24.409-10.71c-6.44-6.714-9.881-15.532-9.687-24.831
		c0.139-6.637,2.503-12.37,6.159-18.513c10.129,3.603,39.599,16.358,51.094,45.869C224.248,366.454,216.116,369.375,207.497,369.22z
		 M320.61,205.056c-1.31,0-2.601,0.53-3.54,1.46c-0.93,0.93-1.46,2.22-1.46,3.54c0,1.31,0.53,2.6,1.46,3.53
		c0.19,0.189,0.404,0.349,0.62,0.504c-4.424,11.867-6.136,27.023-0.304,45.104c-0.1,0.086-0.212,0.157-0.307,0.251
		c-0.939,0.931-1.47,2.221-1.47,3.54c0,0.943,0.284,1.87,0.788,2.669c-4.132,3.742-6.817,6.824-7.028,7.069l-35.737,40.303
		c-0.162-0.228-0.333-0.451-0.532-0.65c-0.931-0.931-2.22-1.46-3.53-1.46c-1.32,0-2.609,0.529-3.54,1.46
		c-0.93,0.93-1.46,2.22-1.46,3.54c0,1.319,0.53,2.6,1.46,3.529c0.342,0.342,0.743,0.61,1.167,0.84l-29.061,32.773
		c-1.109-2.409-2.326-4.7-3.62-6.895c0.1-0.085,0.211-0.155,0.304-0.248c0.93-0.931,1.471-2.221,1.471-3.54
		c0-1.311-0.541-2.601-1.471-3.53c-0.93-0.93-2.22-1.47-3.529-1.47c-0.814,0-1.605,0.226-2.318,0.602
		c-13.995-18.137-33.348-27.431-43.508-31.319l29.556-40.108c0.928,0.914,2.203,1.436,3.51,1.436c1.31,0,2.601-0.529,3.53-1.46
		c0.93-0.939,1.47-2.229,1.47-3.54c0-1.319-0.54-2.609-1.47-3.54c-0.346-0.346-0.754-0.616-1.182-0.845l30.145-40.907
		c1.195-1.555,16.812-22.505,18.019-55.62c0.176,0.018,0.35,0.053,0.527,0.053c1.311,0,2.6-0.54,3.53-1.471
		c0.93-0.93,1.47-2.22,1.47-3.529c0-1.32-0.54-2.61-1.47-3.54c-0.931-0.931-2.21-1.46-3.53-1.46c-0.15,0-0.297,0.031-0.445,0.045
		v-33.655h77.88v33.697c-0.288-0.052-0.579-0.087-0.874-0.087c-1.32,0-2.601,0.529-3.53,1.46c-0.94,0.93-1.47,2.22-1.47,3.54
		c0,1.31,0.529,2.6,1.47,3.529c0.93,0.931,2.22,1.471,3.53,1.471c0.295,0,0.586-0.036,0.874-0.088v15.794
		c-2.066,1.393-5.225,3.704-8.784,6.905c0.09-0.377,0.15-0.761,0.15-1.151c0-1.311-0.531-2.601-1.461-3.53
		c-0.93-0.94-2.22-1.47-3.539-1.47c-1.32,0-2.601,0.529-3.531,1.47c-0.939,0.93-1.469,2.22-1.469,3.53
		c0,1.319,0.529,2.609,1.469,3.54c0.931,0.93,2.211,1.46,3.531,1.46c0.312,0,0.623-0.034,0.929-0.093
		c-2.955,3.019-6.011,6.586-8.841,10.713c-1.264,1.841-2.508,3.847-3.69,6.001C321.389,205.116,321.003,205.056,320.61,205.056z
		 M358.353,224.872c-0.896,13.283-8.306,22.642-23.498,28.562c-2.602,1.014-5.15,2.361-7.57,3.87
		c-12.795-37.559,11.293-60.778,22.25-69.027C349.634,188.54,359.352,210.056,358.353,224.872z"/>
	<path style="fill:#3F352F;" d="M282.329,125.655c-1.32,0-2.609,0.54-3.539,1.471c-0.931,0.93-1.461,2.22-1.461,3.529
		c0,1.32,0.53,2.61,1.461,3.54c0.93,0.931,2.219,1.46,3.539,1.46c1.311,0,2.601-0.529,3.53-1.46c0.931-0.93,1.47-2.22,1.47-3.54
		c0-1.31-0.539-2.6-1.47-3.529C284.93,126.195,283.64,125.655,282.329,125.655z"/>
	<path style="fill:#3F352F;" d="M307.85,125.655c-1.32,0-2.61,0.54-3.54,1.471c-0.93,0.93-1.46,2.22-1.46,3.529
		c0,1.32,0.53,2.61,1.46,3.54c0.939,0.931,2.22,1.46,3.54,1.46c1.319,0,2.601-0.529,3.53-1.46c0.93-0.93,1.47-2.22,1.47-3.54
		c0-1.31-0.54-2.6-1.47-3.529C310.46,126.195,309.169,125.655,307.85,125.655z"/>
	<path style="fill:#3F352F;" d="M333.37,135.655c1.319,0,2.6-0.529,3.529-1.46c0.939-0.93,1.471-2.22,1.471-3.54
		c0-1.31-0.531-2.6-1.461-3.529c-0.93-0.931-2.22-1.471-3.539-1.471c-1.32,0-2.611,0.54-3.541,1.471
		c-0.93,0.93-1.459,2.22-1.459,3.529c0,1.32,0.529,2.61,1.459,3.54C330.77,135.126,332.06,135.655,333.37,135.655z"/>
	<path style="fill:#3F352F;" d="M295.089,152.126c-1.319,0-2.609,0.529-3.539,1.46c-0.93,0.93-1.461,2.22-1.461,3.54
		c0,1.31,0.531,2.6,1.461,3.529c0.93,0.931,2.22,1.471,3.539,1.471c1.311,0,2.601-0.54,3.541-1.471
		c0.93-0.93,1.459-2.22,1.459-3.529c0-1.32-0.529-2.61-1.459-3.54C297.701,152.655,296.41,152.126,295.089,152.126z"/>
	<path style="fill:#3F352F;" d="M324.15,153.586c-0.93-0.931-2.22-1.46-3.54-1.46c-1.319,0-2.61,0.529-3.53,1.46
		c-0.93,0.93-1.47,2.22-1.47,3.54c0,1.31,0.54,2.6,1.47,3.529c0.93,0.931,2.211,1.471,3.53,1.471c1.32,0,2.601-0.54,3.54-1.471
		c0.93-0.93,1.46-2.22,1.46-3.529C325.61,155.806,325.079,154.516,324.15,153.586z"/>
	<path style="fill:#3F352F;" d="M282.329,178.586c-1.32,0-2.609,0.529-3.539,1.47c-0.931,0.93-1.461,2.22-1.461,3.53
		c0,1.319,0.53,2.609,1.461,3.54c0.93,0.93,2.219,1.46,3.539,1.46c1.311,0,2.601-0.53,3.53-1.46c0.931-0.931,1.47-2.221,1.47-3.54
		c0-1.311-0.539-2.601-1.47-3.53C284.93,179.115,283.64,178.586,282.329,178.586z"/>
	<path style="fill:#3F352F;" d="M307.85,178.586c-1.32,0-2.601,0.529-3.54,1.47c-0.93,0.93-1.46,2.22-1.46,3.53
		c0,1.319,0.53,2.609,1.46,3.54c0.939,0.93,2.22,1.46,3.54,1.46c1.31,0,2.601-0.53,3.54-1.46c0.93-0.931,1.46-2.221,1.46-3.54
		c0-1.311-0.53-2.601-1.46-3.53C310.451,179.115,309.16,178.586,307.85,178.586z"/>
	<path style="fill:#3F352F;" d="M269.57,205.056c-1.32,0-2.609,0.53-3.54,1.46c-0.93,0.93-1.46,2.22-1.46,3.54
		c0,1.31,0.53,2.6,1.46,3.53c0.931,0.93,2.22,1.47,3.54,1.47c1.311,0,2.6-0.54,3.53-1.47c0.93-0.931,1.47-2.221,1.47-3.53
		c0-1.32-0.54-2.61-1.47-3.54C272.169,205.586,270.88,205.056,269.57,205.056z"/>
	<path style="fill:#3F352F;" d="M295.089,205.056c-1.319,0-2.609,0.53-3.539,1.46s-1.461,2.22-1.461,3.54
		c0,1.31,0.531,2.6,1.461,3.53c0.93,0.93,2.22,1.47,3.539,1.47c1.32,0,2.601-0.54,3.531-1.47c0.939-0.931,1.469-2.221,1.469-3.53
		c0-1.32-0.529-2.61-1.469-3.54C297.69,205.586,296.41,205.056,295.089,205.056z"/>
	<path style="fill:#3F352F;" d="M256.81,231.516c-1.32,0-2.609,0.54-3.54,1.47c-0.931,0.931-1.46,2.221-1.46,3.53
		c0,1.32,0.529,2.61,1.46,3.54c0.931,0.93,2.22,1.47,3.54,1.47c1.311,0,2.6-0.54,3.529-1.47c0.931-0.93,1.471-2.22,1.471-3.54
		c0-1.31-0.54-2.6-1.471-3.53C259.41,232.056,258.12,231.516,256.81,231.516z"/>
	<path style="fill:#3F352F;" d="M282.329,231.516c-1.32,0-2.609,0.54-3.539,1.47c-0.931,0.931-1.461,2.221-1.461,3.53
		c0,1.32,0.53,2.61,1.461,3.54c0.93,0.93,2.219,1.47,3.539,1.47c1.311,0,2.601-0.54,3.53-1.47c0.931-0.93,1.47-2.22,1.47-3.54
		c0-1.31-0.539-2.6-1.47-3.53C284.93,232.056,283.64,231.516,282.329,231.516z"/>
	<path style="fill:#3F352F;" d="M307.85,231.516c-1.32,0-2.61,0.54-3.54,1.47c-0.93,0.931-1.46,2.221-1.46,3.53
		c0,1.32,0.53,2.61,1.46,3.54c0.93,0.93,2.22,1.47,3.54,1.47c1.31,0,2.601-0.54,3.53-1.47c0.939-0.93,1.47-2.22,1.47-3.54
		c0-1.31-0.53-2.6-1.47-3.53C310.451,232.056,309.16,231.516,307.85,231.516z"/>
	<path style="fill:#3F352F;" d="M244.05,257.985c-1.32,0-2.61,0.53-3.541,1.46c-0.93,0.931-1.459,2.221-1.459,3.54
		c0,1.31,0.529,2.601,1.459,3.54c0.931,0.931,2.221,1.46,3.541,1.46c1.31,0,2.6-0.529,3.529-1.46c0.93-0.939,1.471-2.229,1.471-3.54
		c0-1.319-0.541-2.609-1.471-3.54C246.65,258.516,245.37,257.985,244.05,257.985z"/>
	<path style="fill:#3F352F;" d="M269.57,257.985c-1.32,0-2.609,0.53-3.54,1.46c-0.93,0.931-1.46,2.221-1.46,3.54
		c0,1.31,0.53,2.601,1.46,3.54c0.931,0.931,2.22,1.46,3.54,1.46c1.32,0,2.6-0.529,3.53-1.46c0.93-0.939,1.47-2.229,1.47-3.54
		c0-1.319-0.54-2.609-1.47-3.54C272.169,258.516,270.89,257.985,269.57,257.985z"/>
	<path style="fill:#3F352F;" d="M295.089,257.985c-1.319,0-2.609,0.53-3.539,1.46c-0.93,0.931-1.461,2.221-1.461,3.54
		c0,1.31,0.531,2.601,1.461,3.54c0.93,0.931,2.22,1.46,3.539,1.46c1.32,0,2.611-0.529,3.541-1.46c0.93-0.939,1.459-2.229,1.459-3.54
		c0-1.319-0.529-2.609-1.459-3.54C297.701,258.516,296.41,257.985,295.089,257.985z"/>
	<path style="fill:#3F352F;" d="M205.77,284.445c-1.319,0-2.61,0.54-3.54,1.471c-0.93,0.93-1.46,2.22-1.46,3.529
		c0,1.32,0.53,2.61,1.46,3.54c0.93,0.931,2.221,1.46,3.54,1.46c1.31,0,2.601-0.529,3.53-1.46c0.93-0.93,1.459-2.22,1.459-3.54
		c0-1.31-0.529-2.6-1.459-3.529C208.37,284.985,207.079,284.445,205.77,284.445z"/>
	<path style="fill:#3F352F;" d="M231.29,284.445c-1.32,0-2.61,0.54-3.541,1.471c-0.93,0.93-1.459,2.22-1.459,3.529
		c0,1.32,0.529,2.61,1.459,3.54c0.931,0.931,2.221,1.46,3.541,1.46c1.31,0,2.6-0.529,3.529-1.46c0.93-0.93,1.471-2.22,1.471-3.54
		c0-1.31-0.541-2.6-1.471-3.529C233.89,284.985,232.6,284.445,231.29,284.445z"/>
	<path style="fill:#3F352F;" d="M256.81,284.445c-1.32,0-2.609,0.54-3.54,1.471c-0.931,0.93-1.46,2.22-1.46,3.529
		c0,1.32,0.529,2.61,1.46,3.54c0.931,0.931,2.22,1.46,3.54,1.46c1.311,0,2.6-0.529,3.529-1.46c0.931-0.93,1.471-2.22,1.471-3.54
		c0-1.31-0.54-2.6-1.471-3.529C259.41,284.985,258.12,284.445,256.81,284.445z"/>
	<path style="fill:#3F352F;" d="M282.329,284.445c-1.32,0-2.609,0.54-3.539,1.471c-0.931,0.93-1.461,2.22-1.461,3.529
		c0,1.32,0.53,2.61,1.461,3.54c0.93,0.931,2.219,1.46,3.539,1.46c1.311,0,2.601-0.529,3.53-1.46c0.931-0.93,1.47-2.22,1.47-3.54
		c0-1.31-0.539-2.6-1.47-3.529C284.93,284.985,283.64,284.445,282.329,284.445z"/>
	<path style="fill:#3F352F;" d="M218.53,310.916c-1.319,0-2.61,0.529-3.54,1.46c-0.93,0.93-1.46,2.22-1.46,3.54
		c0,1.319,0.53,2.609,1.46,3.529c0.93,0.931,2.221,1.471,3.54,1.471c1.31,0,2.601-0.54,3.53-1.471c0.93-0.92,1.47-2.21,1.47-3.529
		c0-1.32-0.54-2.61-1.47-3.54C221.13,311.445,219.839,310.916,218.53,310.916z"/>
	<path style="fill:#3F352F;" d="M244.05,310.916c-1.32,0-2.61,0.529-3.541,1.46c-0.93,0.93-1.459,2.22-1.459,3.54
		c0,1.319,0.529,2.6,1.459,3.529c0.931,0.931,2.221,1.471,3.541,1.471c1.31,0,2.6-0.54,3.529-1.471
		c0.93-0.93,1.471-2.21,1.471-3.529c0-1.32-0.541-2.61-1.471-3.54C246.65,311.445,245.36,310.916,244.05,310.916z"/>
</g>
<g>
</g>
<g>
</g>
<g>
</g>
<g>
</g>
<g>
</g>
<g>
</g>
<g>
</g>
<g>
</g>
<g>
</g>
<g>
</g>
<g>
</g>
<g>
</g>
<g>
</g>
<g>
</g>
<g>
</g>
</svg>
