<?xml version="1.0" encoding="iso-8859-1"?>
<!-- Generator: Adobe Illustrator 19.1.0, SVG Export Plug-In . SVG Version: 6.00 Build 0)  -->
<svg version="1.1" id="Capa_1" xmlns="http://www.w3.org/2000/svg" xmlns:xlink="http://www.w3.org/1999/xlink" x="0px" y="0px"
	 viewBox="0 0 418.321 418.321" style="enable-background:new 0 0 418.321 418.321;" xml:space="preserve">
<g>
	<path style="fill:#7E6F83;" d="M47.554,311.947h10.973v-52.315c0-27.263,13.675-32.77,14.327-33.135
		c-15.397-5.344-31.643-9.645-48.719-12.885C46.765,246.24,47.865,295.672,47.554,311.947z"/>
	<path style="fill:#C4573F;" d="M360.776,261.336c-18.488-3.011-32.803-7.321-38.29-9.103c-6.15,3.655-20.887,9.778-40.459,9.778
		c-26.369,0-52.302-10.562-77.076-31.39C151.757,185.903,53.788,122.539,31.779,108.444C0,168.436,13.247,198.881,14.777,201.823
		c47.467,7.873,84.051,21.055,119.088,42.335c32.605,19.803,52.04,41.582,52.04,41.582c11.577,11.838,33.896,25.949,74.477,25.949
		c49.928,0,128.614-17.012,147.58-21.283C404.864,275.979,382.294,264.839,360.776,261.336z"/>
	<path style="fill:#3F352F;" d="M362.383,251.467c-22.38-3.646-38.804-9.41-38.967-9.468c-1.747-0.619-3.689-0.219-5.048,1.026
		c-2.055,1.567-15.89,8.986-36.342,8.986c-23.951,0-47.718-9.771-70.641-29.044C151,172.201,33.845,97.894,32.669,97.15
		c-1.155-0.731-2.56-0.958-3.884-0.627c-1.326,0.331-2.459,1.19-3.135,2.377C-17.472,174.639,6.554,208.119,7.707,209.418
		c8.301,9.351,30.392,31.98,29.678,107.23c-0.013,1.377,0.407,2.725,1.352,3.727c0.945,1.004,2.261,1.572,3.639,1.572h21.151
		c2.761,0,5-2.238,5-5v-57.315c0-11.951,2.692-19.954,8.067-23.694c7.482-5.207,17.073-1.329,17.248-1.287
		c49.496,20.598,84.914,58.082,84.914,58.082c12.919,13.211,37.567,28.957,81.625,28.957c57.96,0,150.183-21.592,154.08-22.512
		c2.211-0.521,3.792-2.467,3.851-4.738C418.912,271.266,389.741,255.919,362.383,251.467z M58.527,259.632v52.315H47.554
		c0.311-16.275-0.789-65.707-23.419-98.335c17.076,3.239,33.322,7.541,48.719,12.885C72.202,226.862,58.527,232.369,58.527,259.632z
		 M260.382,311.69c-40.58,0-62.899-14.111-74.477-25.949c0,0-19.436-21.779-52.04-41.582
		c-35.038-21.28-71.622-34.462-119.088-42.335c-1.529-2.942-14.776-33.387,17.003-93.38
		c22.009,14.096,119.978,77.46,173.171,122.179c24.774,20.828,50.707,31.39,77.076,31.39c19.572,0,34.309-6.123,40.459-9.778
		c5.487,1.781,19.802,6.092,38.29,9.103c21.518,3.503,44.088,14.643,47.185,29.07C388.996,294.678,310.309,311.69,260.382,311.69z"
		/>
</g>
<g>
</g>
<g>
</g>
<g>
</g>
<g>
</g>
<g>
</g>
<g>
</g>
<g>
</g>
<g>
</g>
<g>
</g>
<g>
</g>
<g>
</g>
<g>
</g>
<g>
</g>
<g>
</g>
<g>
</g>
</svg>
