<?xml version="1.0" encoding="iso-8859-1"?>
<!-- Generator: Adobe Illustrator 19.1.0, SVG Export Plug-In . SVG Version: 6.00 Build 0)  -->
<svg version="1.1" id="Capa_1" xmlns="http://www.w3.org/2000/svg" xmlns:xlink="http://www.w3.org/1999/xlink" x="0px" y="0px"
	 viewBox="0 0 395.494 395.494" style="enable-background:new 0 0 395.494 395.494;" xml:space="preserve">
<g>
	<path style="fill:#E3D282;" d="M197.747,122.941c29.633,0,46.541-68.343,52.54-106.398c-12.53,5.642-33.078,8.255-52.54,8.255
		c-19.462,0-40.01-2.613-52.54-8.256C151.206,54.598,168.114,122.941,197.747,122.941z"/>
	<polygon style="fill:#E3D282;" points="238.414,169.309 250.134,177.143 261.855,169.309 261.855,151.686 238.414,151.686 	"/>
	<path style="fill:#DAB342;" d="M277.643,126.655c-10.372-14.849-19.83-46.372-6.909-112.421l-9.609-2.804
		c-1.493,10.449-5.235,33.306-12.159,56.472c-11.862,39.693-27.395,61.374-46.219,64.601v7.543c0.032-0.035,0.057-0.076,0.09-0.109
		c0.93-0.93,2.21-1.47,3.53-1.47c1.319,0,2.609,0.54,3.54,1.47c0.93,0.931,1.46,2.221,1.46,3.53c0,1.32-0.53,2.61-1.46,3.54
		c-0.931,0.93-2.221,1.46-3.54,1.46c-1.311,0-2.601-0.53-3.53-1.46c-0.033-0.033-0.058-0.074-0.09-0.109v8.777
		c0.032-0.034,0.057-0.075,0.09-0.108c0.93-0.939,2.22-1.47,3.53-1.47c1.319,0,2.609,0.53,3.54,1.47
		c0.93,0.931,1.46,2.221,1.46,3.53c0,1.32-0.53,2.61-1.46,3.54c-0.931,0.93-2.221,1.46-3.54,1.46c-1.311,0-2.601-0.53-3.53-1.46
		c-0.033-0.033-0.058-0.075-0.09-0.108v8.756c0.029-0.03,0.05-0.067,0.08-0.098c0.939-0.93,2.229-1.46,3.54-1.46
		c1.319,0,2.609,0.53,3.529,1.46c0.94,0.931,1.471,2.221,1.471,3.54c0,1.311-0.53,2.601-1.471,3.54
		c-0.93,0.931-2.21,1.46-3.529,1.46c-1.311,0-2.601-0.529-3.54-1.46c-0.03-0.03-0.051-0.067-0.08-0.099v8.747
		c0.029-0.031,0.05-0.068,0.08-0.099c0.93-0.93,2.22-1.46,3.54-1.46c1.319,0,2.609,0.53,3.54,1.46c0.93,0.931,1.46,2.221,1.46,3.54
		c0,1.311-0.53,2.601-1.46,3.53c-0.931,0.93-2.221,1.47-3.54,1.47c-1.32,0-2.601-0.54-3.54-1.47c-0.03-0.03-0.051-0.067-0.08-0.098
		v7.469c0,2.762-2.238,5-5,5c-2.761,0-5-2.238-5-5v-68.755c-18.824-3.227-34.357-24.907-46.219-64.601
		c-6.923-23.166-10.666-46.023-12.159-56.472l-9.609,2.804c12.919,66.049,3.461,97.572-6.911,112.422
		c-5.785,8.281-12.074,11.976-16.099,13.598l-8.636,213.18c0.085,7.367,10.803,15.377,28.708,21.445
		c20.199,6.846,47.155,10.615,75.902,10.615c0.007,0,0.014,0.002,0.022,0.002c0.007,0,0.014-0.002,0.021-0.002
		c28.748,0,55.703-3.77,75.902-10.615c17.905-6.068,28.624-14.078,28.708-21.445l-8.636-213.18
		C289.717,138.631,283.427,134.937,277.643,126.655z M271.855,171.981c0,1.67-0.833,3.229-2.222,4.157l-16.721,11.177
		c-0.841,0.561-1.81,0.843-2.778,0.843c-0.969,0-1.938-0.281-2.778-0.843l-16.721-11.177c-1.389-0.928-2.222-2.487-2.222-4.157
		v-25.295c0-2.762,2.238-5,5-5h33.441c2.762,0,5,2.238,5,5V171.981z"/>
	<path style="fill:#3F352F;" d="M303.591,136.319c-0.098-2.398-1.885-4.39-4.259-4.743c-0.067-0.01-7.048-1.422-13.491-10.646
		c-9.482-13.575-17.943-43.539-4.405-109.2c0.526-2.552-0.995-5.08-3.496-5.809L258.335,0.2c-1.415-0.411-2.937-0.181-4.163,0.633
		c-0.89,0.59-1.554,1.444-1.919,2.426l-0.003-0.001c-1.539,4.142-21.068,11.54-54.503,11.54c-33.434,0-52.963-7.398-54.502-11.54
		l-0.003,0.001c-0.365-0.981-1.03-1.836-1.919-2.426c-1.227-0.813-2.751-1.044-4.164-0.633l-19.606,5.72
		c-2.501,0.729-4.023,3.258-3.496,5.809c13.401,64.998,5.201,94.968-4.037,108.663c-6.58,9.755-13.64,11.142-13.86,11.184
		c-2.374,0.354-4.162,2.345-4.259,4.743l-8.783,216.824c-0.002,0.067-0.004,0.135-0.004,0.202c0,27.376,59.05,42.148,114.611,42.148
		c0.007,0,0.014-0.002,0.022-0.002c0.007,0,0.014,0.002,0.021,0.002c55.561,0,114.611-14.772,114.611-42.148
		c0-0.067-0.001-0.135-0.004-0.202L303.591,136.319z M197.747,24.797c19.462,0,40.01-2.613,52.54-8.255
		c-5.999,38.056-22.907,106.398-52.54,106.398c-29.633,0-46.541-68.343-52.54-106.399C157.737,22.184,178.285,24.797,197.747,24.797
		z M273.671,374.878c-20.199,6.846-47.154,10.615-75.902,10.615c-0.007,0-0.014,0.002-0.021,0.002c-0.007,0-0.014-0.002-0.022-0.002
		c-28.747,0-55.704-3.77-75.902-10.615c-17.905-6.068-28.624-14.078-28.708-21.445l8.636-213.18
		c4.025-1.622,10.314-5.316,16.099-13.598c10.372-14.85,19.83-46.373,6.911-112.422l9.609-2.804
		c1.493,10.449,5.235,33.306,12.159,56.472c11.862,39.693,27.395,61.374,46.219,64.601v68.755c0,2.762,2.239,5,5,5
		c2.762,0,5-2.238,5-5v-7.469c0.029,0.03,0.05,0.067,0.08,0.098c0.939,0.93,2.22,1.47,3.54,1.47c1.319,0,2.609-0.54,3.54-1.47
		c0.93-0.93,1.46-2.22,1.46-3.53c0-1.319-0.53-2.609-1.46-3.54c-0.931-0.93-2.221-1.46-3.54-1.46c-1.32,0-2.61,0.53-3.54,1.46
		c-0.03,0.03-0.051,0.067-0.08,0.099v-8.747c0.029,0.031,0.05,0.068,0.08,0.099c0.939,0.931,2.229,1.46,3.54,1.46
		c1.319,0,2.6-0.529,3.529-1.46c0.94-0.939,1.471-2.229,1.471-3.54c0-1.319-0.53-2.609-1.471-3.54c-0.92-0.93-2.21-1.46-3.529-1.46
		c-1.311,0-2.601,0.53-3.54,1.46c-0.03,0.03-0.051,0.067-0.08,0.098v-8.756c0.032,0.033,0.057,0.075,0.09,0.108
		c0.93,0.93,2.22,1.46,3.53,1.46c1.319,0,2.609-0.53,3.54-1.46c0.93-0.93,1.46-2.22,1.46-3.54c0-1.31-0.53-2.6-1.46-3.53
		c-0.931-0.939-2.221-1.47-3.54-1.47c-1.311,0-2.601,0.53-3.53,1.47c-0.033,0.033-0.058,0.074-0.09,0.108v-8.777
		c0.032,0.035,0.057,0.076,0.09,0.109c0.93,0.93,2.22,1.46,3.53,1.46c1.319,0,2.609-0.53,3.54-1.46c0.93-0.93,1.46-2.22,1.46-3.54
		c0-1.309-0.53-2.6-1.46-3.53c-0.931-0.93-2.221-1.47-3.54-1.47c-1.32,0-2.601,0.54-3.53,1.47c-0.033,0.033-0.058,0.074-0.09,0.109
		v-7.543c18.824-3.227,34.356-24.907,46.219-64.601c6.924-23.166,10.666-46.023,12.159-56.472l9.609,2.804
		c-12.921,66.049-3.463,97.572,6.909,112.421c5.784,8.282,12.074,11.977,16.1,13.599l8.636,213.18
		C302.295,360.8,291.576,368.81,273.671,374.878z"/>
	<path style="fill:#3F352F;" d="M266.855,141.686h-33.441c-2.762,0-5,2.238-5,5v25.295c0,1.67,0.833,3.229,2.222,4.157
		l16.721,11.177c0.841,0.561,1.81,0.843,2.778,0.843c0.969,0,1.938-0.281,2.778-0.843l16.721-11.177
		c1.389-0.928,2.222-2.487,2.222-4.157v-25.295C271.855,143.924,269.617,141.686,266.855,141.686z M261.855,169.309l-11.721,7.834
		l-11.721-7.834v-17.623h23.441V169.309z"/>
</g>
<g>
</g>
<g>
</g>
<g>
</g>
<g>
</g>
<g>
</g>
<g>
</g>
<g>
</g>
<g>
</g>
<g>
</g>
<g>
</g>
<g>
</g>
<g>
</g>
<g>
</g>
<g>
</g>
<g>
</g>
</svg>
