<?xml version="1.0" encoding="iso-8859-1"?>
<!-- Generator: Adobe Illustrator 18.0.0, SVG Export Plug-In . SVG Version: 6.00 Build 0)  -->
<!DOCTYPE svg PUBLIC "-//W3C//DTD SVG 1.1//EN" "http://www.w3.org/Graphics/SVG/1.1/DTD/svg11.dtd">
<svg version="1.1" id="Capa_1" xmlns="http://www.w3.org/2000/svg" xmlns:xlink="http://www.w3.org/1999/xlink" x="0px" y="0px"
	 viewBox="0 0 373.616 373.616" style="enable-background:new 0 0 373.616 373.616;" xml:space="preserve">
<path d="M368.616,155.218h-54.055c-6.22-21.404-17.159-31.116-17.802-31.67c-1.1-0.95-2.558-1.374-3.999-1.161
	c-52.031,7.706-74.293,26.498-82.832,36.756c-3.688-4.28-9.136-7.006-15.217-7.006h-15.759c-6.081,0-11.528,2.726-15.217,7.006
	c-8.539-10.258-30.8-29.05-82.831-36.756c-1.439-0.213-2.897,0.211-3.999,1.161c-0.642,0.554-11.582,10.266-17.801,31.67H5
	c-2.762,0-5,2.238-5,5v53.22c0,2.762,2.238,5,5,5h54.105c6.219,21.403,17.183,31.087,17.801,31.669
	c1.288,1.215,3.755,1.197,3.999,1.161c52.03-7.707,74.291-26.498,82.83-36.755c3.689,4.281,9.137,7.007,15.218,7.007h15.759
	c6.081,0,11.528-2.726,15.217-7.007c8.54,10.257,30.801,29.048,82.832,36.755c0.244,0.036,2.705,0.116,4-1.161
	c0.603-0.596,11.581-10.266,17.8-31.669h54.056c2.762,0,5-2.238,5-5v-53.22C373.616,157.456,371.378,155.218,368.616,155.218z
	 M56.755,208.438H10v-43.22h46.755c-1.17,6.392-1.887,13.575-1.887,21.609C54.868,194.862,55.585,202.046,56.755,208.438z
	 M81.95,240.991c-4.433-4.963-17.082-21.951-17.082-54.164c0-32.237,12.668-49.227,17.079-54.164
	c58.621,9.281,74.829,33.198,77.083,37.047c-0.104,0.828-0.176,2.646-0.176,2.646l-35.06-7.96c-2.69-0.612-5.373,1.076-5.983,3.769
	c-0.611,2.693,1.076,5.372,3.769,5.983l37.274,8.463v8.434l-37.274,8.463c-2.692,0.611-4.38,3.29-3.769,5.983
	c0.527,2.32,2.589,3.893,4.871,3.893c0.367,0,36.171-8.085,36.171-8.085s0.071,1.816,0.176,2.645
	C156.77,207.802,140.558,231.711,81.95,240.991z M204.811,201.42c0,5.569-4.53,10.1-10.099,10.1h-15.759
	c-5.568,0-10.099-4.53-10.099-10.1v-29.186c0-5.567,4.53-10.098,10.099-10.098h15.759c5.568,0,10.099,4.53,10.099,10.098V201.42z
	 M291.719,240.991c-58.622-9.282-74.83-33.198-77.085-37.047c0.105-0.828,0.177-2.645,0.177-2.645s35.805,8.085,36.172,8.085
	c2.282,0,4.345-1.574,4.871-3.893c0.611-2.693-1.076-5.372-3.769-5.983l-37.274-8.463v-8.433l37.277-8.464
	c2.692-0.611,4.38-3.29,3.768-5.983c-0.612-2.693-3.287-4.38-5.983-3.769l-35.063,7.961c0,0-0.071-1.819-0.177-2.648
	c2.26-3.857,18.475-27.768,77.082-37.047c4.433,4.962,17.082,21.95,17.082,54.164C308.798,219.064,296.13,236.054,291.719,240.991z
	 M363.616,208.438h-46.705c1.17-6.392,1.887-13.575,1.887-21.61c0-8.034-0.717-15.218-1.887-21.609h46.705V208.438z"/>
<g>
</g>
<g>
</g>
<g>
</g>
<g>
</g>
<g>
</g>
<g>
</g>
<g>
</g>
<g>
</g>
<g>
</g>
<g>
</g>
<g>
</g>
<g>
</g>
<g>
</g>
<g>
</g>
<g>
</g>
</svg>
