<?xml version="1.0" encoding="iso-8859-1"?>
<!-- Generator: Adobe Illustrator 18.0.0, SVG Export Plug-In . SVG Version: 6.00 Build 0)  -->
<!DOCTYPE svg PUBLIC "-//W3C//DTD SVG 1.1//EN" "http://www.w3.org/Graphics/SVG/1.1/DTD/svg11.dtd">
<svg version="1.1" id="Capa_1" xmlns="http://www.w3.org/2000/svg" xmlns:xlink="http://www.w3.org/1999/xlink" x="0px" y="0px"
	 viewBox="0 0 430.697 430.697" style="enable-background:new 0 0 430.697 430.697;" xml:space="preserve">
<path d="M300.045,216.414c-0.039-0.037-7.11-5.557-9.464-10.242c6.97-4.274,19.36-14.936,19.442-36.766
	c0-0.003,1.366-55.085-18.169-106.861C276.296,21.309,249.021,0,215.349,0c-33.672,0-60.761,21.38-76.507,62.544
	c-18.074,47.253-18.169,106.858-18.169,106.861c0.082,21.854,12.462,32.5,19.438,36.769c-2.563,4.242-9.421,10.203-9.459,10.239
	c-42.749,40.251-42.631,150.82-42.605,155.508c0,0.002,0,0.003,0,0.004c0.01,30.042,12.56,44.458,23.088,51.262
	c11.479,7.416,22.974,7.51,23.512,7.51c0,0,0.003,0,0.004,0h161.396c0.466,0,46.586-0.672,46.604-58.771c0-0.001,0-0.002,0-0.004
	C342.676,367.234,342.794,256.665,300.045,216.414z M293.246,223.747c35.47,33.494,39.016,125.243,39.366,144.527
	c-6.49,1.729-24.952,5.344-69.583,6.924c-3.412-71.669-25.293-122.78-34.443-141.253h0.583c2.762,0,5-2.239,5-5
	c0,0,0.001-41.309,0-46.053c1.135-0.544,2.415-0.862,4.127-0.862c2.912,0,4.604,0.885,6.387,2.322
	c-0.993,8.834-2.537,33.276,8.937,44.748c0.977,0.976,2.256,1.464,3.535,1.464c1.279,0,2.56-0.488,3.536-1.465
	c1.952-1.952,1.952-5.117-0.001-7.07c-1.563-1.563-2.783-3.639-3.728-6.032c3.065-0.087,5.995-0.3,8.755-0.653
	c1.87,4.269,4.656,8.332,8.758,11.633c0.924,0.744,2.031,1.105,3.132,1.105c1.461,0,2.91-0.639,3.898-1.865
	c1.732-2.151,1.391-5.299-0.761-7.03c-11.182-9-8.365-28.028-7.917-30.645c1.232-0.891,2.283-1.826,3.226-2.666
	c1.129-1.006,2.1-1.85,3.145-2.496v20.243C279.197,210.558,288.97,219.964,293.246,223.747z M168.365,192.218
	c0.354,0.018,0.709,0.033,1.079,0.033c2.789,0,5.106-0.494,7.078-1.248c0.238,4.527,0.218,9.906-0.425,15.041
	c-2.925-0.02-5.688-0.175-8.289-0.449C168.652,200.528,168.619,195.757,168.365,192.218z M169.444,182.251
	c-3.835,0-5.552-1.529-8.151-3.845c-2.26-2.013-5.156-4.569-9.666-5.733c1.52-53.98,16.109-141.996,63.723-141.996
	c47.604,0,62.19,88.018,63.709,141.998c-4.504,1.166-7.398,3.721-9.656,5.731c-2.6,2.315-4.317,3.845-8.151,3.845
	c-3.834,0-5.552-1.529-8.151-3.844c-3.021-2.691-7.16-6.378-14.804-6.378c-7.643,0-11.78,3.687-14.803,6.378
	c-2.599,2.314-4.315,3.844-8.148,3.844c-3.833,0-5.55-1.529-8.148-3.844c-3.022-2.691-7.16-6.378-14.803-6.378
	c-7.642,0-11.779,3.687-14.801,6.378C174.994,180.722,173.277,182.251,169.444,182.251z M262.887,205.588
	c-2.595,0.278-5.354,0.436-8.275,0.456c-0.642-5.132-0.664-10.51-0.43-15.038c1.97,0.753,4.285,1.245,7.069,1.245
	c0.371,0,0.728-0.016,1.083-0.033C262.08,195.755,262.045,200.523,262.887,205.588z M206.514,190.222
	c2.315,1.179,5.167,2.029,8.83,2.029c3.66,0,6.511-0.85,8.825-2.027c0.002,4.941,0.004,11.291,0.008,17.482h-17.663V190.222z
	 M224.169,217.707v6.238h-17.643v-6.238H224.169z M213.369,233.945h3.961c6.223,11.848,31.955,65.101,35.705,141.56
	c-11.084,0.29-23.587,0.46-37.688,0.461c-14.1-0.001-26.601-0.171-37.685-0.461C181.419,299.164,207.149,245.812,213.369,233.945z
	 M289.197,194.843c0,0-0.03-17.811-0.087-20.455h10.603C298.442,184.726,293.485,191.132,289.197,194.843z M148.127,66.26
	C163.07,28.929,185.687,10,215.349,10c29.661,0,52.277,18.929,67.222,56.26c14.452,36.104,17.074,77.685,17.409,98.128h-11.212
	c-2.846-60.272-20.564-143.711-73.419-143.711c-52.865,0-70.586,83.438-73.433,143.711h-11.2
	C131.052,143.945,133.674,102.365,148.127,66.26z M130.984,174.388h10.591c-0.057,2.648-0.075,20.443-0.075,20.443
	C137.22,191.121,132.259,184.711,130.984,174.388z M137.451,223.747c4.069-3.6,13.111-12.292,13.976-19.102
	c0.001-0.004,0.001-0.008,0.002-0.013c0.042-0.341,0.071-21.25,0.071-21.25c1.045,0.644,2.014,1.489,3.142,2.493
	c0.943,0.84,1.996,1.777,3.229,2.668c0.453,2.574,3.346,21.577-7.918,30.644c-2.151,1.731-2.492,4.879-0.761,7.03
	c0.988,1.227,2.437,1.865,3.898,1.865c1.101,0,2.208-0.361,3.132-1.105c4.1-3.3,6.886-7.361,8.756-11.629
	c2.758,0.354,5.694,0.564,8.762,0.652c-0.946,2.39-2.168,4.465-3.732,6.029c-1.953,1.953-1.953,5.118-0.001,7.07
	c0.977,0.977,2.257,1.465,3.536,1.465s2.559-0.488,3.535-1.464c11.476-11.474,9.93-35.921,8.936-44.751
	c1.781-1.437,3.472-2.319,6.38-2.319c1.709,0,2.988,0.317,4.121,0.859l0.012,46.056c0,2.761,2.238,5,5,5h0.582
	c-9.15,18.477-31.029,69.59-34.441,141.254c-44.727-1.584-63.165-5.207-69.583-6.916C98.429,349.02,101.951,257.269,137.451,223.747
	z M296.035,420.697h-161.39c-0.089,0-9.173-0.152-18.083-5.91c-10.911-7.049-17.045-19.221-18.282-36.232
	c9.36,2.099,29.325,5.181,69.032,6.618c-0.066,2.957-0.111,5.936-0.111,8.956c0,2.762,2.238,5,5,5c2.762,0,5-2.238,5-5
	c0-2.91,0.036-5.789,0.102-8.643c11.229,0.303,23.852,0.479,38.045,0.479c14.194-0.001,26.818-0.177,38.048-0.479
	c0.064,2.853,0.1,5.732,0.1,8.643c0,2.762,2.238,5,5,5c2.762,0,5-2.238,5-5c0-3.021-0.045-5.999-0.111-8.956
	c39.697-1.436,59.661-4.518,69.024-6.616C329.32,419.888,297.526,420.684,296.035,420.697z"/>
<g>
</g>
<g>
</g>
<g>
</g>
<g>
</g>
<g>
</g>
<g>
</g>
<g>
</g>
<g>
</g>
<g>
</g>
<g>
</g>
<g>
</g>
<g>
</g>
<g>
</g>
<g>
</g>
<g>
</g>
</svg>
