<?xml version="1.0" encoding="iso-8859-1"?>
<!-- Generator: Adobe Illustrator 18.0.0, SVG Export Plug-In . SVG Version: 6.00 Build 0)  -->
<!DOCTYPE svg PUBLIC "-//W3C//DTD SVG 1.1//EN" "http://www.w3.org/Graphics/SVG/1.1/DTD/svg11.dtd">
<svg version="1.1" id="Capa_1" xmlns="http://www.w3.org/2000/svg" xmlns:xlink="http://www.w3.org/1999/xlink" x="0px" y="0px"
	 viewBox="0 0 399.469 399.469" style="enable-background:new 0 0 399.469 399.469;" xml:space="preserve">
<path d="M363.452,347.532c-7.425-187.573-40.862-285.949-43.001-292.057c-3.853-17.753-17.817-25.229-18.414-25.541
	c-0.091-0.047-39.203-17.486-39.203-17.486l-19.638-11.74c-1.544-0.924-3.467-0.945-5.032-0.058C236.597,1.539,235.63,3.2,235.63,5
	c0,0.089-0.007,0.177-0.008,0.266h-71.775c-0.001-0.089-0.008-0.177-0.008-0.266c0-1.8-0.967-3.461-2.533-4.349
	c-1.565-0.887-3.487-0.867-5.032,0.058l-19.638,11.74L97.708,29.801c-0.094,0.042-14.835,7.921-18.691,25.672
	c-2.13,6.083-35.574,104.46-43.001,292.06l-1.945,28.891c-0.167,2.482,1.516,4.709,3.95,5.227c0,0,40.607,8.588,40.951,8.588
	c2.203,0,4.205-1.464,4.815-3.667l7.604-27.468c0.002-0.008,3.386-12.783,7.199-31.342v49.141c0,0.613,0.113,1.223,0.333,1.795
	c1.874,4.873,14.681,20.771,100.814,20.771s98.94-15.898,100.813-20.771c0.22-0.572,0.333-1.182,0.333-1.795v-49.137
	c3.813,18.557,7.193,31.309,7.195,31.316c0.002,0.006,7.607,27.489,7.607,27.489c0.61,2.204,2.612,3.667,4.815,3.667
	c0.344,0,40.951-8.588,40.951-8.588c2.434-0.518,4.117-2.745,3.95-5.228L363.452,347.532z M244.719,13.27l9.788,5.852
	c-3.775,10.049-17.08,37.74-49.772,40.724v-10.59C223.871,46.924,240.697,31.533,244.719,13.27z M75.403,379.369l-31.065-6.6
	l1.269-18.836l34.735,7.592L75.403,379.369z M82.915,351.852l-36.741-8.031c6.1-145.555,27.854-235.905,37.585-269.894
	l14.828,49.011V261.94C95.058,300.531,86.13,338.868,82.915,351.852z M194.734,389.447c-67.325-0.52-83.237-11.5-86.147-14.223
	V122.197c0-0.491-0.072-0.979-0.214-1.448L88.993,56.692c2.956-11.879,11.874-17.222,12.966-17.837l34.071-15.188
	c1.958,4.913,5.56,12.512,11.471,20.181c12.021,15.596,28.278,24.51,47.233,26.017V389.447z M194.734,59.845
	c-32.695-2.984-45.998-30.674-49.773-40.724l9.788-5.852c4.022,18.263,20.848,33.642,39.985,35.973V59.845z M165.754,15.266h67.96
	c-5.008,13.463-19.165,24.294-33.98,24.294C184.92,39.56,170.762,28.729,165.754,15.266z M291.095,120.75
	c-0.142,0.469-0.214,0.957-0.214,1.448v253.027c-2.909,2.724-18.812,13.705-86.146,14.225V69.865
	c18.954-1.507,35.211-10.421,47.232-26.017c5.911-7.669,9.514-15.268,11.472-20.181l34.071,15.188
	c1.044,0.587,10.003,5.938,12.964,17.836L291.095,120.75z M316.553,351.852c-3.215-12.983-12.143-51.32-15.672-89.912V122.937
	l14.83-49.021c9.731,33.948,31.477,124.204,37.581,269.905L316.553,351.852z M324.066,379.369l-4.939-17.844l34.734-7.592
	l1.269,18.836L324.066,379.369z"/>
<g>
</g>
<g>
</g>
<g>
</g>
<g>
</g>
<g>
</g>
<g>
</g>
<g>
</g>
<g>
</g>
<g>
</g>
<g>
</g>
<g>
</g>
<g>
</g>
<g>
</g>
<g>
</g>
<g>
</g>
</svg>
