<?xml version="1.0" encoding="iso-8859-1"?>
<!-- Generator: Adobe Illustrator 18.0.0, SVG Export Plug-In . SVG Version: 6.00 Build 0)  -->
<!DOCTYPE svg PUBLIC "-//W3C//DTD SVG 1.1//EN" "http://www.w3.org/Graphics/SVG/1.1/DTD/svg11.dtd">
<svg version="1.1" id="Capa_1" xmlns="http://www.w3.org/2000/svg" xmlns:xlink="http://www.w3.org/1999/xlink" x="0px" y="0px"
	 viewBox="0 0 381.375 381.375" style="enable-background:new 0 0 381.375 381.375;" xml:space="preserve">
<path d="M350.523,263.228c-1.234-21.223-2.77-47.633-4.117-81.119C341.128,51.035,300.509,20.707,298.782,19.48l-0.004,0.006
	c-4.49-2.583-54.295-19.207-54.295-19.207c-1.527-0.531-3.223-0.297-4.545,0.643c-1.074,0.764-1.785,1.913-2.017,3.187
	c0-0.001-3.906,14.448-47.233,14.448c-43.328,0-47.233-14.45-47.234-14.449c-0.23-1.273-0.942-2.423-2.018-3.185
	c-1.32-0.939-3.018-1.174-4.543-0.643c0,0-46.67,15.734-54.295,19.209l-0.006-0.008c-1.727,1.226-42.346,31.555-47.621,162.629
	c-1.348,33.49-2.885,59.902-4.119,81.127c-3.301,56.773-4.44,76.527,6.123,93.79l3.625,20.229c0.428,2.385,2.5,4.119,4.922,4.119
	h36.191c2.42,0,4.494-1.734,4.922-4.117l3.475-19.382c3.379-3.24,9.619-11.769,13.38-32.47h174.396
	c3.762,20.704,10.004,29.232,13.381,32.471l3.473,19.379c0.428,2.385,2.502,4.119,4.922,4.119h36.191
	c2.422,0,4.494-1.734,4.922-4.119l3.627-20.229C354.964,339.763,353.823,320.008,350.523,263.228z M247.464,11.916l40.189,14.057
	c-3.338,4.881-7.74,12.726-10.691,23.357c-4.697,16.92-6.498,44.518,11.402,80.158c0.994,7.801,8.434,72.115-4.695,155.459h-87.981
	V70.052C221.558,67.072,244.322,41.398,247.464,11.916z M190.688,28.556c23.154,0,36.927-4.003,45.12-8.676
	c-2.334,8.627-6.617,16.85-12.514,23.729c-9.12,10.633-21.005,16.732-32.606,16.732c-11.604,0-23.488-6.1-32.605-16.732
	c-5.898-6.879-10.181-15.102-12.514-23.728C153.762,24.553,167.533,28.556,190.688,28.556z M133.912,11.916
	c3.143,29.482,25.904,55.156,51.775,58.137v214.895h-87.98c-13.131-83.344-5.691-147.658-4.695-155.459
	c17.9-35.641,16.098-63.238,11.4-80.158c-2.951-10.631-7.354-18.477-10.69-23.357L133.912,11.916z M77.53,371.375H49.705
	l-1.999-11.156H79.53L77.53,371.375z M83.58,350.219H44.576c-7.924-14.455-6.791-33.924-3.74-86.402
	c1.236-21.264,2.775-47.727,4.127-81.305c2.635-65.467,14.354-104.148,23.721-125.07c6.412-14.322,12.605-22.457,16.295-26.506
	c2.9,4.113,7.2,11.42,9.949,21.625c5.973,22.166,2.199,46.781-11.219,73.162c-0.248,0.488-0.414,1.014-0.492,1.557
	c-0.123,0.859-12.026,86.929,10.96,193.262C91.039,340.278,85.668,347.91,83.58,350.219z M103.303,315.406
	c-1.458-6.919-2.762-13.742-3.934-20.459h86.318v20.459H103.303z M195.688,315.406v-20.459h86.319
	c-1.172,6.717-2.477,13.54-3.934,20.459H195.688z M331.669,371.375h-27.824l-2-11.156h31.824L331.669,371.375z M336.8,350.219
	h-39.006c-2.088-2.309-7.457-9.94-10.596-29.678c22.986-106.333,11.084-192.402,10.959-193.262
	c-0.078-0.543-0.244-1.068-0.492-1.557c-13.416-26.381-17.191-50.996-11.219-73.162c2.756-10.234,7.074-17.557,9.973-21.66
	c9.514,10.34,35.822,48.029,39.994,151.611c1.352,33.574,2.891,60.035,4.127,81.297C343.591,316.295,344.724,335.763,336.8,350.219z
	"/>
<g>
</g>
<g>
</g>
<g>
</g>
<g>
</g>
<g>
</g>
<g>
</g>
<g>
</g>
<g>
</g>
<g>
</g>
<g>
</g>
<g>
</g>
<g>
</g>
<g>
</g>
<g>
</g>
<g>
</g>
</svg>
