<?xml version="1.0" encoding="iso-8859-1"?>
<!-- Generator: Adobe Illustrator 18.0.0, SVG Export Plug-In . SVG Version: 6.00 Build 0)  -->
<!DOCTYPE svg PUBLIC "-//W3C//DTD SVG 1.1//EN" "http://www.w3.org/Graphics/SVG/1.1/DTD/svg11.dtd">
<svg version="1.1" id="Capa_1" xmlns="http://www.w3.org/2000/svg" xmlns:xlink="http://www.w3.org/1999/xlink" x="0px" y="0px"
	 viewBox="0 0 393.966 393.966" style="enable-background:new 0 0 393.966 393.966;" xml:space="preserve">
<path d="M315.289,387.213c-38.338-143.289-24.95-214.254-23.643-220.428c1.901-4.111,11.588-27.552,3.581-62.826
	c-0.136-0.602-0.383-1.172-0.726-1.684c-1.228-1.827-12.974-16.859-63.062-12.271l35.63-72.22c0.59-1.195,0.678-2.578,0.244-3.84
	c-0.434-1.26-1.354-2.297-2.556-2.875c-0.104-0.051-10.538-5.086-20.825-10.496c-1.208-0.635-2.624-0.748-3.915-0.314
	c-1.293,0.434-2.354,1.375-2.935,2.609l-39.968,84.834L157.145,2.869c-0.581-1.234-1.642-2.176-2.935-2.609
	c-1.293-0.434-2.707-0.318-3.915,0.314c-10.288,5.41-20.722,10.445-20.826,10.496c-1.202,0.578-2.122,1.615-2.556,2.875
	c-0.434,1.262-0.347,2.645,0.244,3.84l35.703,72.367c-50.268-4.649-62.034,10.424-63.264,12.254c-0.343,0.51-0.59,1.08-0.726,1.682
	c-7.765,34.209,1.111,57.29,3.388,62.404c0.805,3.564,15.663,74.047-23.581,220.721c-0.366,1.369-0.134,2.83,0.639,4.019
	c0.773,1.188,2.014,1.992,3.414,2.213c0.376,0.059,3.476,0.521,8.074,0.521c9.783,0,26.347-2.096,37.897-14.631
	c0.009-0.01,0.632-0.803,0.844-1.25c1.892-0.877,7.5-2.156,15.67-2.156c7.811,0,13.272,1.168,15.392,2.037
	c2.016,10.21,19.292,15.539,36.374,15.539h0.002c0,0,0.001,0,0.001,0c17.082,0,34.358-5.329,36.375-15.539
	c2.119-0.869,7.58-2.037,15.391-2.037c8.171,0,13.779,1.279,15.671,2.156c0.211,0.446,0.834,1.239,0.844,1.25
	c11.551,12.537,28.115,14.631,37.897,14.631c4.597,0,7.698-0.463,8.074-0.521c1.4-0.221,2.641-1.025,3.414-2.213
	C315.423,390.043,315.655,388.582,315.289,387.213z M285.759,107.457c1.622,7.523,2.356,14.444,2.519,20.657
	c-12.554-1.075-44.998-5.029-66.712-18.101l4.64-9.405C269.395,95.534,283.043,105.02,285.759,107.457z M288.045,138.146
	c-0.78,10.624-3.093,18.238-4.497,22.025c-10.188-0.26-43.968-3.498-70.138-33.627l3.717-7.535
	C241.183,133.156,275.267,137.123,288.045,138.146z M202.114,100.55l41.796-88.715c4.599,2.365,8.909,4.516,11.97,6.025
	l-49.296,99.919c-1.534-2.194-3.025-4.508-4.47-6.935V100.55z M138.345,17.861c3.062-1.51,7.371-3.66,11.97-6.025l41.796,88.715
	v10.182c-1.433,2.422-2.92,4.773-4.481,7.025L138.345,17.861z M180.817,126.548c-11.4,13.258-25.494,22.832-42.123,28.525
	c-12.527,4.289-23.179,5.107-28.162,5.229c-1.424-3.792-3.767-11.433-4.528-22.162c12.887-1.037,47.033-5.036,71.039-19.242
	L180.817,126.548z M108.337,107.588c2.721-2.442,16.413-11.952,59.758-6.824l4.508,9.138
	c-21.616,13.101-54.109,17.101-66.801,18.201C105.981,121.937,106.723,115.07,108.337,107.588z M89.889,383.935
	c32.705-125.043,26.428-193.59,23.237-213.719c5.496-0.283,14.205-1.264,24.432-4.294l-17.363,207.786
	C110.889,382.755,97.431,384.041,89.889,383.935z M130.768,367.256l17.127-204.967c7.099-2.918,14.955-7.043,22.838-12.867
	l-9.964,218.1c-5.014-1.287-11.021-1.592-15.554-1.592C141.013,365.929,135.54,366.191,130.768,367.256z M196.985,383.506
	c0,0-0.001,0-0.001,0h-0.002c-17.437,0-26.574-5.615-26.574-7.557c0-0.045,10.736-235.3,10.736-235.3
	c5.555-5.311,10.96-11.597,15.947-19.05c4.92,7.334,10.246,13.536,15.719,18.787c0,0,10.748,235.516,10.748,235.563
	C223.558,377.89,214.422,383.506,196.985,383.506z M233.198,367.521l-9.975-218.335c7.877,5.839,15.729,9.979,22.833,12.912
	l17.143,205.158c-4.772-1.065-10.245-1.327-14.448-1.327C244.219,365.929,238.211,366.234,233.198,367.521z M273.772,373.709
	L256.395,165.75c10.224,3.046,18.941,4.039,24.468,4.331c-3.185,19.95-9.566,88.52,23.214,213.855
	C296.535,384.025,283.077,382.752,273.772,373.709z"/>
<g>
</g>
<g>
</g>
<g>
</g>
<g>
</g>
<g>
</g>
<g>
</g>
<g>
</g>
<g>
</g>
<g>
</g>
<g>
</g>
<g>
</g>
<g>
</g>
<g>
</g>
<g>
</g>
<g>
</g>
</svg>
