<?xml version="1.0" encoding="iso-8859-1"?>
<!-- Generator: Adobe Illustrator 18.0.0, SVG Export Plug-In . SVG Version: 6.00 Build 0)  -->
<!DOCTYPE svg PUBLIC "-//W3C//DTD SVG 1.1//EN" "http://www.w3.org/Graphics/SVG/1.1/DTD/svg11.dtd">
<svg version="1.1" id="Capa_1" xmlns="http://www.w3.org/2000/svg" xmlns:xlink="http://www.w3.org/1999/xlink" x="0px" y="0px"
	 viewBox="0 0 409.448 409.448" style="enable-background:new 0 0 409.448 409.448;" xml:space="preserve">
<path d="M408.554,235.792c-2.684-9.441-12.932-13.496-35.155-19.017l-69.302-19.117c-1.73-0.477-3.601,0.023-4.875,1.294
	c-0.217,0.216-22.522,21.924-103.291,56.854c-29.131-7.601-63.109-13.39-70.314-14.585c-6.16-5.296-40.17-35.648-80.194-93.028
	c-0.471-0.675-1.101-1.224-1.835-1.597l-23.519-11.959c-1.239-0.63-2.685-0.716-3.99-0.236c-1.305,0.479-2.352,1.48-2.889,2.763
	c-1.203,2.873-28.789,70.045-0.425,110.326v22.866c0,2.761,2.239,5,5,5h101.694c2.761,0,5-2.239,5-5v-19.19
	c8.089,1.348,42.021,7.179,70.544,14.736c0.032,0.009,0.063,0.017,0.095,0.025c19.266,5.102,45.362,9.38,78.714,9.38
	c34.67,0,77.178-4.625,127.969-17.758c0.834-0.216,1.6-0.644,2.22-1.243C404.359,255.961,412.009,247.947,408.554,235.792z
	 M20.513,146.081l17.426,8.861c31.319,44.734,58.506,72.808,72.445,85.988H20.379C0.163,210.952,14.922,161.873,20.513,146.081z
	 M22.765,265.354V250.93h91.694v14.424H22.765z M397.764,248.256c-85.407,21.867-146.416,19.191-185.643,11.35
	c60.818-27.249,85.032-45.649,91.961-51.578c0,0,66.802,18.427,66.844,18.438c22.153,5.503,26.944,8.886,28.183,12.61
	C400.563,243.449,398.856,246.751,397.764,248.256z"/>
<g>
</g>
<g>
</g>
<g>
</g>
<g>
</g>
<g>
</g>
<g>
</g>
<g>
</g>
<g>
</g>
<g>
</g>
<g>
</g>
<g>
</g>
<g>
</g>
<g>
</g>
<g>
</g>
<g>
</g>
</svg>
