<?xml version="1.0" encoding="iso-8859-1"?>
<!-- Generator: Adobe Illustrator 18.0.0, SVG Export Plug-In . SVG Version: 6.00 Build 0)  -->
<!DOCTYPE svg PUBLIC "-//W3C//DTD SVG 1.1//EN" "http://www.w3.org/Graphics/SVG/1.1/DTD/svg11.dtd">
<svg version="1.1" id="Capa_1" xmlns="http://www.w3.org/2000/svg" xmlns:xlink="http://www.w3.org/1999/xlink" x="0px" y="0px"
	 viewBox="0 0 398.815 398.815" style="enable-background:new 0 0 398.815 398.815;" xml:space="preserve">
<path d="M396.263,281.928c-1.574-0.885-3.506-0.852-5.049,0.09c-0.244,0.147-24.238,14.485-61.914,15.064l17.882-44.504
	c0.512-1.273,0.478-2.7-0.094-3.947c-0.572-1.247-1.631-2.205-2.929-2.648l-15.88-5.428c-2.518-0.862-5.273,0.402-6.261,2.877
	l-21.419,53.678h-6.079l22.175-55.187c0.501-1.249,0.479-2.647-0.063-3.88c-0.543-1.232-1.559-2.192-2.819-2.666l-15.72-5.9
	c-2.549-0.957-5.393,0.3-6.401,2.828l-25.861,64.805h-5.976l27.055-66.617c1.033-2.543-0.177-5.443-2.711-6.498l-15.49-6.447
	c-1.233-0.514-2.62-0.512-3.852,0.004c-1.232,0.516-2.206,1.503-2.706,2.741l-30.996,76.817h-6.04l32.271-79.242
	c1.003-2.465-0.099-5.283-2.508-6.413l-15.413-7.227c-1.245-0.583-2.675-0.629-3.953-0.126c-1.279,0.504-2.294,1.511-2.808,2.785
	l-36.335,90.223h-27.245l40.201-103.814c0.874-2.256,0.007-4.814-2.058-6.073l-15.352-9.369c-1.27-0.774-2.818-0.943-4.226-0.461
	c-1.407,0.482-2.526,1.566-3.054,2.957l-44.258,116.76H88.105c-4.458-6.941-8.328-14.816-11.718-23.222l100.567-99.197
	c1.025-1.011,1.564-2.414,1.48-3.851c-0.084-1.438-0.783-2.768-1.919-3.652l-13.671-10.654c-1.974-1.539-4.784-1.381-6.573,0.373
	l-89.529,87.76c-4.604-16.856-7.992-33.933-10.886-48.542c-0.642-3.239-1.263-6.372-1.871-9.377
	c-2.5-12.352-6.097-27.189-9.894-41.873h105.332c1.575,0,3.058-0.742,4.002-2.003c0.944-1.26,1.239-2.892,0.796-4.402l-4.961-16.934
	c-0.624-2.131-2.578-3.595-4.798-3.595H36.89c-0.52-1.89-1.032-3.741-1.535-5.552h107.866c2.761,0,5-2.238,5-5V90.455
	c0-2.762-2.239-5-5-5H27.699c-1.318-4.533-2.118-7.225-2.157-7.357c-0.631-2.119-2.58-3.572-4.792-3.572H5
	c-1.56,0-3.031,0.729-3.977,1.969c-0.946,1.241-1.258,2.852-0.845,4.356c19.954,72.597,17.42,96.303,11.301,153.577l-0.424,3.973
	c-6.713,62.979,19.694,83.986,20.822,84.85l0.04-0.006c0.84,0.641,1.877,1.036,3.016,1.036c0,0,294.229,0.009,294.965,0.009
	c10.203,0,53.399-0.943,67.613-16.546c0.839-0.921,1.304-2.122,1.304-3.367v-18.089C398.815,284.48,397.84,282.813,396.263,281.928z
	 M329.546,251.555l6.394,2.186l-17.426,43.369h-7.145L329.546,251.555z M299.166,240.56l6.344,2.382l-21.765,54.168h-7.146
	L299.166,240.56z M269.534,228.722l6.247,2.601l-26.718,65.787h-7.125L269.534,228.722z M240.007,215.526l6.328,2.968
	l-32.017,78.616h-7.167L240.007,215.526z M191.852,189.53l6.641,4.053l-40.09,103.527h-7.329L191.852,189.53z M160.148,167.11
	l5.727,4.463l-93.322,92.05c-0.919-2.658-1.798-5.349-2.641-8.061L160.148,167.11z M140.717,127.941l2.031,6.934H41.47
	c-0.62-2.335-1.239-4.649-1.855-6.934H140.717z M138.221,95.455v6.934H32.553c-0.693-2.451-1.353-4.773-1.971-6.934H138.221z
	 M11.537,84.526h5.474c4.237,14.453,20.129,69.416,27.173,104.206c0.605,2.991,1.224,6.112,1.862,9.336
	c5.945,30.004,13.911,70.131,30.389,99.042H26.524c-4.696-11.918-8.427-30.414-5.524-57.65l0.424-3.97
	C27.505,178.574,30.125,154.057,11.537,84.526z M388.815,302.272c-11.907,10.272-47.319,12.16-60.522,12.009H36.876
	c-1.187-1.215-3.195-3.536-5.425-7.171h295.515c29.25,0,51.028-7.774,61.85-12.674V302.272z"/>
<g>
</g>
<g>
</g>
<g>
</g>
<g>
</g>
<g>
</g>
<g>
</g>
<g>
</g>
<g>
</g>
<g>
</g>
<g>
</g>
<g>
</g>
<g>
</g>
<g>
</g>
<g>
</g>
<g>
</g>
</svg>
