<?xml version="1.0" encoding="iso-8859-1"?>
<!-- Generator: Adobe Illustrator 18.0.0, SVG Export Plug-In . SVG Version: 6.00 Build 0)  -->
<!DOCTYPE svg PUBLIC "-//W3C//DTD SVG 1.1//EN" "http://www.w3.org/Graphics/SVG/1.1/DTD/svg11.dtd">
<svg version="1.1" id="Capa_1" xmlns="http://www.w3.org/2000/svg" xmlns:xlink="http://www.w3.org/1999/xlink" x="0px" y="0px"
	 viewBox="0 0 414.054 414.054" style="enable-background:new 0 0 414.054 414.054;" xml:space="preserve">
<g>
	<g>
		<path d="M368.986,230.842l-5.953-30.783c-0.01-0.039-1.463-12.279-0.475-70.746c1.162-68.703-20.313-87.355-21.229-88.117
			l-0.012,0.016c-0.478-0.396-1.016-0.72-1.619-0.918C290.8,24.177,267.411,1.657,267.186,1.438
			c-1.35-1.329-3.334-1.782-5.129-1.168c-0.789,0.271-1.473,0.735-2.021,1.322l-0.01-0.008
			c-0.104,0.112-11.627,11.193-52.999,11.193c-41.123,0-52.958-11.156-53.072-11.269l0.072,0.076l-0.008,0.008
			c-0.549-0.587-1.232-1.051-2.022-1.322c-1.794-0.614-3.778-0.163-5.129,1.168c-0.229,0.225-23.394,22.667-72.515,38.856
			c-0.602,0.198-1.142,0.522-1.618,0.919l-0.013-0.016c-0.916,0.761-22.389,19.413-21.227,88.116
			c0.987,58.467-0.467,70.719-0.479,70.764l-5.949,30.765c-0.522,2.705,1.242,5.324,3.945,5.855l58.303,11.455
			c0.525,6.737,0.832,13.757,0.832,21.228c0,49.835-7.261,121.99-9.739,128.695c-0.681,1.267-0.786,2.772-0.276,4.129
			c1.103,2.931,4.459,11.85,108.894,11.85c104.435,0,107.791-8.919,108.894-11.849c0.51-1.357,0.404-2.863-0.277-4.131
			c-2.479-6.704-9.738-78.858-9.738-128.694c0-7.471,0.307-14.49,0.832-21.228l58.303-11.455
			C367.744,236.167,369.509,233.547,368.986,230.842z M352.56,129.145c-0.715,42.318-0.25,60.302,0.191,67.809l-40.084,8.013
			c0.102-0.597,7.068-41.172,7.557-65.112c0.727-35.574,13.027-70.018,19.094-84.934C344.792,64.306,353.29,85.944,352.56,129.145z
			 M207.027,22.777c23.638,0,38.596-3.472,47.723-7.017c-1.092,2.149-11.865,25.238-47.723,25.238
			c-29.512,0-42.35-14.5-47.815-25.274C168.332,19.282,183.311,22.777,207.027,22.777z M61.495,129.145
			c-0.731-43.2,7.767-64.838,13.239-74.225c6.067,14.917,18.37,49.36,19.096,84.934c0.488,23.941,7.455,64.517,7.558,65.112
			l-40.085-8.013C61.744,189.447,62.209,171.463,61.495,129.145z M55.834,227.846l4.057-20.979l43.276,8.653
			c1.199,7.321,2.297,14.647,3.154,22.246L55.834,227.846z M207.027,404.054c-70.211,0-91.943-4.153-98.354-6.169
			c2.032-9.551,3.997-29.242,5.41-45.867c2.583-30.399,4.065-60.52,4.065-82.638c0-25.897-3.666-47.248-7.212-67.896
			c-3.263-18.998-6.636-38.643-7.108-61.834c-0.823-40.348-15.356-78.178-21.109-91.641c34.002-11.912,55.184-26.389,64.906-34.076
			c1.496,4.138,3.948,9.366,7.902,14.585c7.303,9.638,21.208,21.012,46.5,22.347v101.8c0,2.762,2.239,5,5,5
			c2.762,0,5.001-2.238,5.001-5V50.87c25.295-1.335,39.197-12.713,46.5-22.351c3.953-5.219,6.406-10.446,7.902-14.585
			c9.722,7.687,30.903,22.164,64.903,34.076c-5.752,13.462-20.283,51.293-21.107,91.641c-0.473,23.189-3.846,42.835-7.109,61.833
			c-3.545,20.647-7.211,41.997-7.211,67.896c0,22.118,1.48,52.239,4.065,82.638c1.412,16.626,3.379,36.316,5.41,45.867
			C298.97,399.901,277.238,404.054,207.027,404.054z M307.732,237.766c0.859-7.598,1.957-14.925,3.156-22.245l43.275-8.653
			l4.057,20.979L307.732,237.766z"/>
		<g>
			<path d="M219.836,71.868c-1.309,0-2.6-0.53-3.529-1.461c-0.93-0.93-1.471-2.219-1.471-3.539c0-1.311,0.541-2.601,1.471-3.53
				c0.93-0.931,2.221-1.47,3.529-1.47c1.32,0,2.611,0.539,3.541,1.47c0.93,0.93,1.459,2.22,1.459,3.53
				c0,1.32-0.529,2.609-1.459,3.539C222.448,71.337,221.157,71.868,219.836,71.868z"/>
		</g>
		<g>
			<path d="M219.836,107.747c-1.309,0-2.6-0.539-3.529-1.469c-0.93-0.931-1.471-2.221-1.471-3.531c0-1.319,0.541-2.609,1.471-3.539
				c0.93-0.93,2.221-1.461,3.529-1.461c1.32,0,2.611,0.531,3.541,1.461c0.93,0.93,1.459,2.22,1.459,3.539
				c0,1.311-0.529,2.601-1.459,3.531C222.448,107.208,221.157,107.747,219.836,107.747z"/>
		</g>
		<g>
			<path d="M219.836,143.618c-1.309,0-2.6-0.53-3.529-1.461c-0.93-0.93-1.471-2.219-1.471-3.529c0-1.32,0.541-2.61,1.471-3.54
				c0.93-0.931,2.221-1.46,3.529-1.46c1.32,0,2.611,0.529,3.541,1.46c0.93,0.93,1.459,2.22,1.459,3.54
				c0,1.311-0.529,2.6-1.459,3.529C222.448,143.087,221.157,143.618,219.836,143.618z"/>
		</g>
	</g>
</g>
<g>
</g>
<g>
</g>
<g>
</g>
<g>
</g>
<g>
</g>
<g>
</g>
<g>
</g>
<g>
</g>
<g>
</g>
<g>
</g>
<g>
</g>
<g>
</g>
<g>
</g>
<g>
</g>
<g>
</g>
</svg>
