<?xml version="1.0" encoding="iso-8859-1"?>
<!-- Generator: Adobe Illustrator 18.0.0, SVG Export Plug-In . SVG Version: 6.00 Build 0)  -->
<!DOCTYPE svg PUBLIC "-//W3C//DTD SVG 1.1//EN" "http://www.w3.org/Graphics/SVG/1.1/DTD/svg11.dtd">
<svg version="1.1" id="Capa_1" xmlns="http://www.w3.org/2000/svg" xmlns:xlink="http://www.w3.org/1999/xlink" x="0px" y="0px"
	 viewBox="0 0 425.111 425.111" style="enable-background:new 0 0 425.111 425.111;" xml:space="preserve">
<path d="M301.867,371.277v-47.936c0.342-0.141,1.549-0.848,1.914-1.213c20.521-20.518,16.85-109.797,16.328-120.547
	c-0.027-36.674-12.365-70.148-34.75-94.275C273,93.986,258.287,84.143,242.778,78.492c9.33-8.447,14.855-20.531,14.855-33.414
	C257.633,20.223,237.41,0,212.555,0s-45.077,20.223-45.077,45.078c0,12.883,5.528,24.967,14.856,33.414
	c-15.51,5.65-30.222,15.494-42.583,28.814c-22.385,24.127-34.724,57.603-34.751,94.275c-0.521,10.76-4.189,100.031,16.326,120.547
	c0.365,0.365,1.574,1.072,1.918,1.215v47.934c-12.463,2.467-21.89,13.48-21.89,26.656c0,14.986,12.192,27.178,27.178,27.178
	c14.985,0,27.177-12.191,27.177-27.178c0-13.379-9.719-24.521-22.465-26.76v-47.928c3.927-1.811,6.308-5.736,8.271-11.32
	c3.946-11.215,2.966-55.813,2.966-59.02c0-31.75,40.383-33.357,48.479-33.357h39.186c8.096,0,48.48,1.607,48.48,33.357
	c0,32.623,0.443,49.775,2.967,59.02c1.56,5.711,4.346,9.512,8.273,11.322v47.926c-12.746,2.238-22.465,13.381-22.465,26.76
	c0,14.986,12.191,27.178,27.176,27.178c14.986,0,27.178-12.191,27.178-27.178C323.756,384.758,314.33,373.746,301.867,371.277z
	 M309.752,191.463c-8.609-6.916-20.445-9.189-28.049-9.189h-24.234l23.935-29.244l28.004,34.215
	C309.545,188.643,309.655,190.051,309.752,191.463z M258.733,97.791l-11.75,14.355l-23.115-28.238
	C235.78,85.805,247.758,90.604,258.733,97.791z M177.479,45.078c0-19.342,15.734-35.078,35.076-35.078s35.078,15.736,35.078,35.078
	c0,11.508-5.662,22.197-14.973,28.725c1.918-2.226,3.502-4.787,4.629-7.644c1.014-2.568-0.246-5.473-2.814-6.486
	c-2.566-1.018-5.473,0.246-6.486,2.814c-2.52,6.379-8.576,10.502-15.434,10.502c-6.855,0-12.912-4.123-15.434-10.504
	c-1.014-2.568-3.92-3.83-6.486-2.813c-2.568,1.014-3.828,3.918-2.814,6.486c1.129,2.857,2.713,5.418,4.631,7.644
	C183.141,67.277,177.479,56.586,177.479,45.078z M201.256,83.904l-23.117,28.244l-11.756-14.359
	C177.36,90.6,189.342,85.801,201.256,83.904z M158.281,103.678l15.989,19.531c0.949,1.16,2.369,1.832,3.869,1.832
	c1.498,0,2.918-0.672,3.869-1.832l30.553-37.328l30.553,37.328c0.949,1.16,2.371,1.832,3.869,1.832c1.5,0,2.92-0.672,3.869-1.832
	l15.982-19.527c2.906,2.338,5.711,4.854,8.395,7.533l-28.246,34.508l-30.553-37.328c-0.949-1.16-2.369-1.832-3.869-1.832
	s-2.92,0.672-3.869,1.832l-30.553,37.328l-28.253-34.512C152.569,108.531,155.375,106.016,158.281,103.678z M134.038,131.273
	l9.674-11.818l30.558,37.328c0.949,1.16,2.369,1.832,3.869,1.832c1.498,0,2.918-0.672,3.869-1.832l30.553-37.328l30.553,37.328
	c0.949,1.16,2.369,1.832,3.869,1.832s2.92-0.672,3.869-1.832l30.553-37.328l9.652,11.793c6.744,10.879,11.795,23.049,14.992,36.104
	l-20.775-25.383c-0.949-1.16-2.369-1.832-3.869-1.832s-2.92,0.672-3.869,1.832l-30.553,37.328l-30.553-37.328
	c-0.949-1.16-2.369-1.832-3.869-1.832c-1.498,0-2.92,0.672-3.869,1.832l-30.553,37.328l-30.558-37.328
	c-0.949-1.16-2.37-1.832-3.869-1.832c-1.5,0-2.92,0.672-3.869,1.832l-20.783,25.389
	C122.255,154.313,127.301,142.148,134.038,131.273z M236.43,182.191h-47.738l23.869-29.162L236.43,182.191z M143.712,153.029
	l23.941,29.244h-24.254c-7.602,0-19.432,2.266-28.038,9.172c0.097-1.404,0.206-2.807,0.341-4.197L143.712,153.029z M145.71,397.934
	c0,9.473-7.705,17.178-17.177,17.178c-9.472,0-17.178-7.705-17.178-17.178c0-9.471,7.706-17.178,17.178-17.178
	C138.005,380.756,145.71,388.463,145.71,397.934z M134.468,225.098v36.934c-0.088,25.359-0.616,39.998-2.6,47.262
	c-1.006,3.688-3.786,5.072-4.184,4.994c-15.724-19.676-13.037-101.598-13.031-101.674c1.543-20.008,27.657-20.336,28.76-20.34h2.443
	C145.222,192.875,134.468,200.963,134.468,225.098z M280.643,226.445c-2.855-3.064-6.299-5.77-10.328-8.066
	c-13.478-7.684-29.699-8.83-38.168-8.83h-39.186c-8.469,0-24.689,1.146-38.166,8.83c-4.028,2.297-7.472,5-10.328,8.064
	c0,0-0.401-16.586,7.037-25.662c4.421-5.395,11.665-8.025,20.787-8.508h80.527c9.121,0.482,15.982,3.451,20.785,8.506
	C281.299,208.879,280.643,226.445,280.643,226.445z M290.643,262.541v-37.443c0-23.36-10.756-32.223-11.391-32.824h2.436
	c0.002,0,0.002,0,0.004,0c1.164,0,27.207,0.242,28.756,20.338c0.008,0.107,2.302,83.962-13.023,101.676
	c-0.396,0.078-3.176-1.307-4.182-4.996C291.272,302.076,290.737,287.584,290.643,262.541z M296.578,415.111
	c-9.471,0-17.176-7.705-17.176-17.178c0-9.471,7.705-17.178,17.176-17.178c9.471,0,17.178,7.707,17.178,17.178
	C313.756,407.406,306.049,415.111,296.578,415.111z"/>
<g>
</g>
<g>
</g>
<g>
</g>
<g>
</g>
<g>
</g>
<g>
</g>
<g>
</g>
<g>
</g>
<g>
</g>
<g>
</g>
<g>
</g>
<g>
</g>
<g>
</g>
<g>
</g>
<g>
</g>
</svg>
