<?xml version="1.0" encoding="iso-8859-1"?>
<!-- Generator: Adobe Illustrator 18.0.0, SVG Export Plug-In . SVG Version: 6.00 Build 0)  -->
<!DOCTYPE svg PUBLIC "-//W3C//DTD SVG 1.1//EN" "http://www.w3.org/Graphics/SVG/1.1/DTD/svg11.dtd">
<svg version="1.1" id="Capa_1" xmlns="http://www.w3.org/2000/svg" xmlns:xlink="http://www.w3.org/1999/xlink" x="0px" y="0px"
	 viewBox="0 0 425.703 425.703" style="enable-background:new 0 0 425.703 425.703;" xml:space="preserve">
<g>
	<g>
		<g>
			<g>
				<path d="M188.544,217.564c-1.968,0-50.469-6.652-74.11-10.743c-2.721-0.471-4.545-3.059-4.074-5.779
					c0.471-2.722,3.056-4.548,5.779-4.074c23.471,4.061,48.03,7.64,72.995,10.632c2.741,0.328,4.697,2.816,4.369,5.559
					C193.198,215.698,191.04,217.564,188.544,217.564z"/>
			</g>
			<g>
				<path d="M99.692,204.095c-3.232,0-63.611-13.871-63.836-13.935c-2.658-0.747-4.207-3.508-3.461-6.166
					c0.747-2.658,3.507-4.208,6.166-3.461c0.222,0.062,22.584,6.3,62.04,13.646c2.715,0.505,4.506,3.115,4.001,5.83
					C104.154,202.414,102.053,204.095,99.692,204.095z"/>
			</g>
			<g>
				<g>
					<path d="M252.708,211.222c-0.254,0-12.539-1.981-12.722-2.014c-2.719-0.483-4.531-3.079-4.048-5.798
						c0.483-2.72,3.085-4.53,5.798-4.048c0.044,0.008,4.458,0.791,11.732,1.918c2.729,0.422,4.599,2.977,4.176,5.706
						C257.26,209.456,255.132,211.222,252.708,211.222z"/>
				</g>
				<g>
					<path d="M357.212,220.179c-2.725,0-4.955-2.188-4.997-4.923c-0.043-2.761,2.16-5.034,4.922-5.077
						c7.551-0.116,14.443-0.514,20.484-1.182c2.757-0.303,5.216,1.677,5.519,4.422c0.304,2.744-1.676,5.215-4.421,5.518
						C372.365,219.639,357.238,220.179,357.212,220.179z M336.221,219.881c-0.067,0-13.975-0.694-21.357-1.27
						c-2.753-0.213-4.811-2.619-4.597-5.373c0.215-2.754,2.616-4.814,5.374-4.596c7.257,0.564,14.246,0.983,20.775,1.243
						c2.759,0.11,4.906,2.436,4.797,5.194C341.106,217.771,338.89,219.881,336.221,219.881z M294.348,216.683
						c-0.178,0-14.417-1.602-21.513-2.533c-2.738-0.36-4.666-2.871-4.306-5.609c0.359-2.738,2.868-4.666,5.608-4.307
						c7.017,0.923,13.993,1.756,20.736,2.477c2.745,0.295,4.733,2.758,4.439,5.504C299.04,214.779,296.871,216.683,294.348,216.683z
						"/>
				</g>
			</g>
			<path d="M425.439,218.031c-1.193-6.568-7.815-19.461-24.336-21.246c-2.176-0.236-5.293-0.408-9.239-0.628
				c-28.25-1.568-103.294-5.734-173.694-52.399c-1.808-1.197-4.195-1.138-5.892,0.212c-1.696,1.35-2.345,3.597-1.584,5.626
				c0.082,0.243,1.936,6.07-2.213,15.871c-3.976,9.396-4.338,19.08-0.994,26.566c0.29,0.648,0.605,1.278,0.949,1.891
				c-40.662-4.913-144.244-18.864-187.292-38.037c-2.239-0.998-4.87-0.225-6.214,1.824c-0.427,0.648-10.474,16.414-14.254,61.646
				c-0.032,0.288-4.306,41.708,9.037,56.667c3.952,4.432,9.157,6.774,15.05,6.774h186.444c5.835-0.001,133.255-0.473,193.583-37.183
				C419.982,237.303,427.215,227.918,425.439,218.031z M211.208,272.797H24.763c-3.087,0-5.497-1.089-7.583-3.427
				c-2.72-3.047-4.511-7.736-5.657-13.043c5.758,5.514,13.445,8.316,22.9,8.316h175.444c3.377,0.581,25.081,4.178,52.68,5.646
				C233.298,272.72,211.774,272.797,211.208,272.797z M411.741,228.175c-3.564,3.212-7.68,6.186-12.221,8.951
				c-12.129,6.578-32.31,13.691-64.491,19.711c-14.459,2.705-31.23,4.076-49.849,4.076c-39.176,0-73.648-6.129-73.992-6.189
				c-0.293-0.053-176.765-0.08-176.765-0.08c-7.509,0-13.42-1.907-17.074-6.655c-7.861-10.214-6.72-27.656-6.714-27.72
				c2.548-30.574,8.011-46.746,10.854-53.378c51.494,20.814,165.614,34.74,195.554,38.126l-2.007,2.105
				c-1.905,2-1.83,5.164,0.17,7.069c0.968,0.923,2.209,1.381,3.448,1.381c1.32,0,2.638-0.52,3.62-1.55l28.308-29.701
				c1.905-1.998,1.829-5.164-0.17-7.069c-1.998-1.905-5.163-1.828-7.068,0.17l-17.594,18.458c-4.433-1.646-7.514-4.304-9.132-7.927
				c-2.185-4.891-1.783-11.84,1.073-18.592c1.936-4.574,2.877-8.602,3.261-11.963c70.144,43.18,142.469,47.193,170.358,48.742
				c1.37,0.076,2.632,0.147,3.781,0.215c-1.242,1.308-1.748,3.23-1.123,5.053c0.712,2.075,2.652,3.379,4.729,3.379
				c0.537,0,1.085-0.088,1.622-0.272c3.511-1.204,6.567-2.628,9.152-4.243c4.792,3.637,5.99,8.751,6.127,9.535
				C416.349,224.123,411.873,228.056,411.741,228.175z"/>
		</g>
	</g>
</g>
<g>
</g>
<g>
</g>
<g>
</g>
<g>
</g>
<g>
</g>
<g>
</g>
<g>
</g>
<g>
</g>
<g>
</g>
<g>
</g>
<g>
</g>
<g>
</g>
<g>
</g>
<g>
</g>
<g>
</g>
</svg>
