<?xml version="1.0" encoding="iso-8859-1"?>
<!-- Generator: Adobe Illustrator 18.0.0, SVG Export Plug-In . SVG Version: 6.00 Build 0)  -->
<!DOCTYPE svg PUBLIC "-//W3C//DTD SVG 1.1//EN" "http://www.w3.org/Graphics/SVG/1.1/DTD/svg11.dtd">
<svg version="1.1" id="Capa_1" xmlns="http://www.w3.org/2000/svg" xmlns:xlink="http://www.w3.org/1999/xlink" x="0px" y="0px"
	 viewBox="0 0 419.035 419.035" style="enable-background:new 0 0 419.035 419.035;" xml:space="preserve">
<g>
	<g>
		<path d="M195.216,96.488h-41.82c-2.762,0-5,2.239-5,5v58.406c0,2.761,2.238,5,5,5h41.82c2.762,0,5-2.239,5-5v-58.406
			C200.216,98.726,197.978,96.488,195.216,96.488z M158.396,106.488h15.018c-0.996,0.182-1.928,0.654-2.646,1.371
			c-0.93,0.93-1.459,2.22-1.459,3.54c0,1.32,0.529,2.6,1.459,3.53c0.813,0.813,1.904,1.303,3.047,1.42h-15.418V106.488z
			 M190.216,154.894h-31.82v-28.545h31.82V154.894z M190.216,116.349h-15.42c1.137-0.117,2.229-0.607,3.041-1.42
			c0.93-0.93,1.471-2.22,1.471-3.53c0-1.32-0.541-2.61-1.471-3.54c-0.719-0.717-1.652-1.189-2.643-1.371h15.021V116.349z"/>
		<path d="M265.64,96.488h-41.822c-2.762,0-5,2.239-5,5v58.406c0,2.761,2.238,5,5,5h41.822c2.762,0,5-2.239,5-5v-58.406
			C270.64,98.726,268.402,96.488,265.64,96.488z M228.818,106.488h15.021c-0.992,0.182-1.924,0.654-2.643,1.371
			c-0.93,0.93-1.469,2.22-1.469,3.54c0,1.31,0.539,2.6,1.469,3.53c0.813,0.813,1.904,1.303,3.041,1.42h-15.42V106.488z
			 M260.64,154.894h-31.822v-28.545h31.822V154.894z M260.64,116.349h-15.42c1.143-0.117,2.234-0.607,3.047-1.42
			c0.93-0.93,1.461-2.22,1.461-3.53c0-1.32-0.531-2.61-1.461-3.54c-0.719-0.717-1.65-1.189-2.646-1.371h15.02V116.349z"/>
	</g>
	<path d="M328.179,70.876l-38.508-37.878c-0.004-0.004-0.01-0.006-0.014-0.01c-0.227-0.223-0.478-0.428-0.754-0.608
		c-0.002-0.002-0.01-0.007-0.014-0.009c-0.006-0.004-0.012-0.008-0.018-0.011c-0.728-0.474-11.537-7.409-33.391-16.119
		L243.839,1.838c-1.396-1.727-3.699-2.257-5.666-1.505l-0.008-0.021c-4.498,1.721-14.387,3.56-28.65,3.56
		c-14.268,0-24.154-1.839-28.65-3.56l-0.008,0.019c-1.967-0.749-4.268-0.218-5.662,1.508L163.552,16.24
		c-21.869,8.717-32.678,15.656-33.391,16.121c-0.006,0.003-0.01,0.005-0.014,0.008c-0.004,0.003-0.014,0.009-0.018,0.011
		c-0.275,0.181-0.525,0.386-0.754,0.608c-0.004,0.003-0.008,0.006-0.012,0.01L90.857,70.876c-1.51,1.484-1.92,3.758-1.027,5.677
		c0.807,1.727,19.219,40.75,42.533,51.485c1.746,19.221,4.232,46.117,5.631,59.004c0.969,8.928-2.148,46.904-5.447,87.11
		c-4.543,55.337-9.238,112.56-6.822,129.767c0.189,1.354,0.926,2.57,2.037,3.367c1.676,1.203,18.213,11.748,81.756,11.748
		s80.08-10.545,81.758-11.748c1.111-0.797,1.848-2.014,2.037-3.367c2.416-17.209-2.281-74.438-6.824-129.783
		c-3.299-40.198-6.416-78.167-5.447-87.094c1.398-12.888,3.885-39.784,5.631-59.005c23.313-10.736,41.729-49.757,42.533-51.484
		C330.099,74.635,329.689,72.361,328.179,70.876z M100.435,75.48l4.105-4.039c9.135,17.463,22.01,32.142,26.016,36.514
		c0.145,1.641,0.391,4.382,0.707,7.91C118.128,106.542,105.966,86.365,100.435,75.48z M133.632,96.272
		c-5.824-6.919-15.164-18.988-21.617-32.183l19.297-18.981C140.144,66.545,136.95,85.579,133.632,96.272z M251.749,54.123
		c0.643-1.763,5.953-14.255,6.369-25.988c10.391,4.412,17.555,8.154,21.541,10.389c-13.957,30.74-5.816,57.188-1.102,68.105
		c-0.234,2.643-0.82,9.192-1.58,17.572c0,0.003,0,0.007,0,0.01c-1.746,19.282-5.916,62.16-5.934,62.37h-56.527V88.973l15.268-41.692
		l14.74,9.121C247.954,58.482,250.704,56.982,251.749,54.123z M241.611,14.989l6.199,7.667c1.236,6.307-1.068,15.623-3.203,22.038
		l-11.311-7L241.611,14.989z M171.224,22.656l6.199-7.667l8.305,22.681l-11.309,7.019C172.284,38.282,169.982,28.979,171.224,22.656
		z M204.517,409.013c-45.383-0.428-63.744-6.602-69.16-8.986c-1.545-19.055,3.066-75.227,7.154-125.056
		c2.695-32.834,5.104-62.193,5.563-78.39h56.443V409.013z M204.517,186.581h-56.527c-0.018-0.21-6.736-71.227-7.514-79.952
		c4.717-10.918,12.855-37.366-1.102-68.105c3.986-2.236,11.15-5.978,21.541-10.389c0.416,11.732,5.633,24.261,6.369,25.987
		c1.252,2.942,5.17,3.775,7.23,2.275l14.725-9.139l15.277,41.713V186.581z M187.03,12.142c6.379,1.109,14.186,1.729,22.484,1.729
		c8.299,0,16.107-0.621,22.488-1.73l-22.486,61.404L187.03,12.142z M283.677,400.027c-5.416,2.385-23.777,8.559-69.16,8.986v-35.579
		c0.227,0.834,0.646,1.611,1.26,2.226c0.941,0.93,2.23,1.459,3.541,1.459c1.32,0,2.6-0.529,3.539-1.459
		c0.93-0.93,1.461-2.221,1.461-3.541c0-1.309-0.531-2.6-1.461-3.529c-0.939-0.931-2.219-1.471-3.539-1.471
		c-1.311,0-2.6,0.54-3.541,1.471c-0.613,0.614-1.033,1.392-1.26,2.222v-29.697c0.227,0.833,0.646,1.611,1.26,2.226
		c0.941,0.93,2.23,1.459,3.541,1.459c1.32,0,2.6-0.529,3.539-1.459c0.93-0.931,1.461-2.221,1.461-3.541
		c0-1.31-0.531-2.6-1.461-3.529c-0.93-0.93-2.219-1.471-3.539-1.471c-1.32,0-2.611,0.541-3.541,1.471
		c-0.613,0.614-1.033,1.392-1.26,2.222v-29.704c0.227,0.831,0.646,1.608,1.26,2.223c0.941,0.93,2.23,1.47,3.541,1.47
		c1.32,0,2.6-0.54,3.539-1.47c0.93-0.931,1.461-2.221,1.461-3.53c0-1.32-0.531-2.601-1.461-3.54c-0.939-0.93-2.219-1.46-3.539-1.46
		c-1.311,0-2.6,0.53-3.541,1.46c-0.613,0.614-1.033,1.392-1.26,2.225v-29.696c0.227,0.83,0.646,1.607,1.26,2.222
		c0.941,0.93,2.23,1.47,3.541,1.47c1.32,0,2.6-0.54,3.539-1.47c0.93-0.93,1.461-2.221,1.461-3.53c0-1.319-0.531-2.61-1.461-3.54
		c-0.939-0.93-2.219-1.46-3.539-1.46c-1.311,0-2.6,0.53-3.541,1.46c-0.613,0.614-1.033,1.392-1.26,2.225v-29.699
		c0.227,0.833,0.646,1.61,1.26,2.225c0.941,0.93,2.23,1.46,3.541,1.46c1.32,0,2.6-0.53,3.539-1.46c0.93-0.93,1.461-2.22,1.461-3.54
		c0-1.31-0.531-2.6-1.461-3.53c-0.939-0.93-2.23-1.47-3.539-1.47c-1.311,0-2.6,0.54-3.541,1.47c-0.613,0.614-1.033,1.392-1.26,2.223
		v-29.697c0.227,0.833,0.646,1.61,1.26,2.225c0.941,0.931,2.23,1.461,3.541,1.461c1.309,0,2.6-0.53,3.539-1.461
		c0.93-0.939,1.461-2.22,1.461-3.539c0-1.311-0.531-2.601-1.461-3.53c-0.939-0.931-2.219-1.47-3.539-1.47
		c-1.311,0-2.6,0.539-3.541,1.47c-0.613,0.614-1.033,1.392-1.26,2.222v-12.62h56.441c0.459,16.195,2.869,45.547,5.563,78.374
		C280.612,324.791,285.222,380.969,283.677,400.027z M285.402,96.274c-3.318-10.693-6.512-29.729,2.32-51.166l19.293,18.978
		C300.564,77.275,291.226,89.355,285.402,96.274z M287.771,115.868c0.316-3.529,0.563-6.271,0.709-7.913
		c4.004-4.371,16.883-19.046,26.018-36.51l4.104,4.036C313.077,86.365,300.923,106.544,287.771,115.868z"/>
</g>
<g>
</g>
<g>
</g>
<g>
</g>
<g>
</g>
<g>
</g>
<g>
</g>
<g>
</g>
<g>
</g>
<g>
</g>
<g>
</g>
<g>
</g>
<g>
</g>
<g>
</g>
<g>
</g>
<g>
</g>
</svg>
