<?xml version="1.0" encoding="iso-8859-1"?>
<!-- Generator: Adobe Illustrator 18.0.0, SVG Export Plug-In . SVG Version: 6.00 Build 0)  -->
<!DOCTYPE svg PUBLIC "-//W3C//DTD SVG 1.1//EN" "http://www.w3.org/Graphics/SVG/1.1/DTD/svg11.dtd">
<svg version="1.1" id="Capa_1" xmlns="http://www.w3.org/2000/svg" xmlns:xlink="http://www.w3.org/1999/xlink" x="0px" y="0px"
	 viewBox="0 0 415.533 415.533" style="enable-background:new 0 0 415.533 415.533;" xml:space="preserve">
<path d="M258.333,154.138c-0.393-3.157-1.971-12.636-7.648-24.154c0.01-1.942,0.508-8.483,5.824-20.518
	c1.451-3.286,2.963-6.153,4.424-8.926c6.541-12.416,11.709-22.223,0.758-47.806c-0.727-1.696-2.283-2.762-3.99-2.974l0.004-0.021
	c-34.906-4.296-77.721-47.792-78.148-48.231c-1.463-1.498-3.701-1.926-5.615-1.076l-14.799,6.594
	c-2.217,0.988-3.404,3.425-2.814,5.779c5.318,21.292-2.4,39.736-2.482,39.929c-10.953,25.583-5.785,35.39,0.758,47.806
	c1.461,2.773,2.971,5.641,4.424,8.926c5.316,12.035,5.813,18.576,5.822,20.519c-5.678,11.518-7.256,20.997-7.646,24.154
	c-41.603,85.379-51.611,241.747-51.611,241.877c0,2.761,2.238,5,5,5c6.184,0,8.982,2.509,12.856,5.982
	c4.242,3.803,9.523,8.536,19.533,8.536s15.289-4.733,19.531-8.536c3.875-3.473,6.674-5.982,12.857-5.982
	c6.186,0,8.984,2.509,12.857,5.982c4.244,3.803,9.523,8.536,19.533,8.536c0.002,0,0.006-0.001,0.008-0.001
	c0.002,0,0.006,0.001,0.008,0.001c10.012,0,15.291-4.733,19.533-8.536c3.875-3.473,6.674-5.982,12.857-5.982
	c6.186,0,8.984,2.509,12.857,5.982c4.242,3.803,9.521,8.536,19.531,8.536c10.012,0,15.291-4.733,19.533-8.536
	c3.873-3.473,6.672-5.982,12.855-5.982c2.762,0,5-2.239,5-5C309.942,395.885,303.362,256.789,258.333,154.138z M163.448,95.878
	c-5.916-11.229-9.486-18.007-0.42-39.189c0.357-0.822,8.205-19.35,3.902-42.185l7.953-3.544c9.74,9.471,45.742,42.562,78.668,48.263
	c7.713,19.209,4.205,25.891-1.467,36.655c-1.469,2.787-3.133,5.945-4.723,9.546c-5.346,12.097-6.496,19.786-6.652,23.67
	c-3.891,1.368-15.301,3.269-32.947,3.269c-17.633,0-29.039-1.899-32.939-3.266c-0.156-3.883-1.305-11.573-6.65-23.674
	C166.581,101.823,164.917,98.665,163.448,95.878z M219.38,237.762c0.746-16.865,2.09-61.238-2.336-95.585
	c2.848-0.112,5.602-0.273,8.217-0.485c4.518,8.783,18.469,38.502,28.117,87.35L219.38,237.762z M235.837,140.446
	c2.791-0.458,5.494-1.011,7.813-1.803c3.182,7.565,4.311,13.614,4.674,16.116c-0.691,0.469-2.211,1.294-5.244,2.221
	C240.225,149.802,237.708,144.285,235.837,140.446z M208.843,160.948c-0.359,0.003-30.076,0.818-41.643-6.163
	c0.348-2.463,1.453-8.489,4.68-16.141c2.438,0.833,5.297,1.405,8.24,1.876c7.24,1.16,16.76,1.806,26.871,1.838
	C207.776,148.265,208.382,154.535,208.843,160.948z M138.708,405.032c-3.463-0.897-5.734-2.926-8.586-5.48
	c-3.41-3.057-7.494-6.709-14.162-8.027c10.854-135.746,38.531-207.122,47.588-227.38c2.936,1.574,6.66,2.787,10.729,3.722
	C146.35,246.379,139.823,376.685,138.708,405.032z M183.866,392.368c-2.408-0.829-5.191-1.353-8.498-1.353
	c-10.01,0-15.291,4.733-19.533,8.536c-2.418,2.169-4.418,3.961-7.086,5.002c1.262-29.638,8.23-159.723,35.523-234.962
	c3.645,0.461,7.281,0.771,10.654,0.977C181.489,233.629,183.114,357.816,183.866,392.368z M221.507,398.77
	c-0.297,0.264-0.588,0.524-0.875,0.781c-3.873,3.473-6.672,5.981-12.857,5.981c-0.002,0-0.006,0.001-0.008,0.001
	c-0.002,0-0.006-0.001-0.008-0.001c-6.184,0-8.982-2.509-12.857-5.981c-0.287-0.257-0.58-0.519-0.877-0.782
	c-0.488-19.44-3.5-162.182,11.047-227.829c1.508,0.041,2.695,0.12,4.369-0.005c1.758,35.855-0.357,72.577-0.385,73.061
	c-0.096,1.595,0.578,3.138,1.811,4.153c0.904,0.747,2.033,1.113,3.18,1.143c1.475,0.038,5.492-1.246,5.492-1.246
	C223.411,312.895,221.846,385.357,221.507,398.77z M259.698,399.551c-4.242-3.803-9.521-8.536-19.533-8.536
	c-3.313,0-6.1,0.525-8.51,1.357c0.479-23.298,1.344-88.394-2.252-146.857l19.994-5.128c12.557,67.85,16.475,142.625,17.387,164.166
	C264.118,403.513,262.118,401.72,259.698,399.551z M285.411,399.551c-2.854,2.558-5.127,4.589-8.598,5.483
	c-0.854-20.624-4.764-97.54-17.707-167.137l1.313-0.337c2.551-0.654,4.158-3.174,3.674-5.764
	c-5.168-27.593-11.686-49.446-17.465-65.449c1.875-0.593,3.729-1.289,5.389-2.158c9.082,20.273,36.693,91.442,47.557,227.333
	C292.907,392.842,288.821,396.495,285.411,399.551z"/>
<g>
</g>
<g>
</g>
<g>
</g>
<g>
</g>
<g>
</g>
<g>
</g>
<g>
</g>
<g>
</g>
<g>
</g>
<g>
</g>
<g>
</g>
<g>
</g>
<g>
</g>
<g>
</g>
<g>
</g>
</svg>
