<?xml version="1.0" encoding="iso-8859-1"?>
<!-- Generator: Adobe Illustrator 18.0.0, SVG Export Plug-In . SVG Version: 6.00 Build 0)  -->
<!DOCTYPE svg PUBLIC "-//W3C//DTD SVG 1.1//EN" "http://www.w3.org/Graphics/SVG/1.1/DTD/svg11.dtd">
<svg version="1.1" id="Capa_1" xmlns="http://www.w3.org/2000/svg" xmlns:xlink="http://www.w3.org/1999/xlink" x="0px" y="0px"
	 viewBox="0 0 423.305 423.305" style="enable-background:new 0 0 423.305 423.305;" xml:space="preserve">
<path d="M305.257,103.393c-3.459-81.698-7.797-98.97-7.98-99.665C296.698,1.531,294.713,0,292.441,0H130.863
	c-2.271,0-4.257,1.531-4.835,3.727c-0.184,0.695-4.521,17.967-7.98,99.665c-0.006,0.123,9.998,315.07,9.998,315.07
	c0.085,2.699,2.298,4.842,4.997,4.842h60.359c2.684,0,4.888-2.118,4.996-4.799l10-248.673c0.229-5.595,1.179-17.91,3.254-28.673
	c2.075,10.762,3.025,23.076,3.254,28.67l10,248.676c0.108,2.681,2.313,4.799,4.996,4.799h60.359c2.699,0,4.912-2.142,4.997-4.842
	C295.259,418.463,305.263,103.516,305.257,103.393z M134.999,10h36.274v9.062h-37.505C134.256,14.93,134.677,11.997,134.999,10z
	 M132.709,29.062h3.951c-0.552,13.583-3.303,23.622-6.335,30.724C131.158,46.748,131.975,36.714,132.709,29.062z M157.992,413.305
	h-20.105l-9.841-309.674c0.361-8.508,0.73-16.291,1.103-23.426c4.383-4.527,16.338-19.689,17.506-51.143h11.338V413.305z
	 M206.648,122.881c-6.881,14.785-8.189,45.225-8.242,46.549L188.6,413.305h-20.607V29.062h3.281v0.797c0,2.761,2.238,5,5,5
	c2.762,0,5-2.239,5-5v-0.797h25.375V122.881z M206.648,19.062h-25.375V10h25.375V19.062z M292.978,59.764
	c-3.029-7.101-5.775-17.133-6.327-30.703h3.943C291.33,36.711,292.146,46.738,292.978,59.764z M252.031,10h36.273
	c0.323,2,0.744,4.934,1.231,9.062h-37.504V10z M216.656,10h25.375v9.062h-25.375V10z M221.666,29.062v47.073
	c0,9.08-2.499,13.551-5.01,15.752V29.062H221.666z M255.313,413.305h-20.607l-9.807-243.877c-0.054-1.322-1.361-31.762-8.242-46.547
	v-19.732c2.242-0.73,4.921-2.063,7.433-4.52c5.028-4.918,7.577-12.486,7.577-22.494V29.062h10.365v0.797c0,2.761,2.238,5,5,5
	c2.762,0,5-2.239,5-5v-0.797h3.281V413.305z M285.418,413.305h-20.105V29.062h11.338c1.168,31.455,13.124,46.615,17.506,51.143
	c0.373,7.136,0.742,14.919,1.103,23.427L285.418,413.305z"/>
<g>
</g>
<g>
</g>
<g>
</g>
<g>
</g>
<g>
</g>
<g>
</g>
<g>
</g>
<g>
</g>
<g>
</g>
<g>
</g>
<g>
</g>
<g>
</g>
<g>
</g>
<g>
</g>
<g>
</g>
</svg>
