<?xml version="1.0" encoding="iso-8859-1"?>
<!-- Generator: Adobe Illustrator 18.0.0, SVG Export Plug-In . SVG Version: 6.00 Build 0)  -->
<!DOCTYPE svg PUBLIC "-//W3C//DTD SVG 1.1//EN" "http://www.w3.org/Graphics/SVG/1.1/DTD/svg11.dtd">
<svg version="1.1" id="Capa_1" xmlns="http://www.w3.org/2000/svg" xmlns:xlink="http://www.w3.org/1999/xlink" x="0px" y="0px"
	 viewBox="0 0 415.423 415.423" style="enable-background:new 0 0 415.423 415.423;" xml:space="preserve">
<g>
	<path d="M298.506,79.664c-1.713-1.771-3.528-3.862-5.405-6.181c-6.247-34.138-18.897-49.686-23.046-54.003l-3.218-15.497
		C266.355,1.663,264.311,0,261.941,0h-108.46c-2.37,0-4.414,1.663-4.896,3.983l-3.217,15.498c-4.15,4.316-16.8,19.865-23.046,54.002
		c-1.876,2.318-3.692,4.409-5.405,6.181c-1.354,1.401-1.771,3.46-1.069,5.277c0.149,0.386,1.539,3.948,3.804,8.866
		c-0.339,4.021-0.59,8.171-0.739,12.372c-2.247,63.45,8.388,302.064,8.495,304.467c0.12,2.672,2.321,4.776,4.995,4.776h50.961
		c2.526,0,4.656-1.885,4.963-4.392c0.7-5.711,12.456-102.017,19.386-179.669c6.929,77.651,18.685,173.958,19.385,179.669
		c0.307,2.507,2.437,4.392,4.963,4.392h50.961c2.675,0,4.876-2.104,4.995-4.776c0.107-2.402,10.74-241.017,8.495-304.466
		c-0.147-4.183-0.399-8.335-0.739-12.375c2.266-4.916,3.654-8.479,3.804-8.864C300.277,83.124,299.859,81.065,298.506,79.664z
		 M263.372,26.986c2.352,2.61,7.817,9.599,12.865,22.679c-5.579-8.619-10.61-16.963-13.979-22.679H263.372z M157.55,10h100.323
		l1.45,6.986H156.1L157.55,10z M152.049,26.986h1.117c-3.37,5.716-8.401,14.061-13.981,22.681
		C144.23,36.59,149.696,29.6,152.049,26.986z M178.933,405.423h-41.746c-1.459-33.348-9.923-231.134-8.409-294.521
		c2.731,4.33,5.749,8.411,8.912,11.492c0.972,0.947,2.231,1.419,3.489,1.419c1.301,0,2.602-0.505,3.582-1.511
		c1.927-1.977,1.886-5.143-0.092-7.07c-8.021-7.815-15.512-24.375-18.322-31.034c1.45-1.626,2.947-3.421,4.468-5.33
		c0.002-0.003,0.004-0.006,0.007-0.009c13.53-16.978,29.13-43.538,33.927-51.872h0.994c-2.905,11.686-10.42,38.24-23.21,59.428
		c-1.427,2.364-0.667,5.438,1.697,6.864c0.808,0.488,1.699,0.721,2.579,0.721c1.694,0,3.346-0.861,4.286-2.417
		c14.595-24.18,22.448-53.93,24.952-64.596h1.487c-0.804,14.19-3.569,53.817-10.239,73.825c-0.873,2.62,0.543,5.451,3.163,6.324
		c0.524,0.175,1.058,0.258,1.581,0.258c2.094,0,4.044-1.325,4.743-3.42c7.226-21.678,10.008-62.897,10.774-76.987h15.155v124.101
		C202.712,205.699,182.498,375.843,178.933,405.423z M278.236,405.423H236.49c-3.565-29.58-23.778-199.724-23.778-254.336V26.986
		h15.154c0.766,14.09,3.549,55.31,10.775,76.987c0.698,2.096,2.649,3.42,4.743,3.42c0.523,0,1.057-0.083,1.581-0.258
		c2.62-0.873,4.036-3.705,3.162-6.324c-6.669-20.008-9.436-59.635-10.239-73.825h1.488c2.504,10.666,10.356,40.416,24.951,64.596
		c0.939,1.556,2.592,2.417,4.286,2.417c0.88,0,1.77-0.232,2.579-0.721c2.364-1.427,3.123-4.5,1.697-6.864
		c-12.791-21.188-20.306-47.741-23.21-59.428h0.993c4.797,8.333,20.396,34.892,33.926,51.87c0.003,0.004,0.006,0.008,0.01,0.012
		c1.521,1.908,3.017,3.703,4.467,5.329c-2.81,6.659-10.301,23.22-18.321,31.034c-1.978,1.927-2.018,5.093-0.092,7.07
		c0.979,1.006,2.28,1.511,3.581,1.511c1.258,0,2.518-0.472,3.489-1.419c3.162-3.081,6.18-7.162,8.911-11.492
		C288.158,174.29,279.694,372.075,278.236,405.423z"/>
</g>
<g>
</g>
<g>
</g>
<g>
</g>
<g>
</g>
<g>
</g>
<g>
</g>
<g>
</g>
<g>
</g>
<g>
</g>
<g>
</g>
<g>
</g>
<g>
</g>
<g>
</g>
<g>
</g>
<g>
</g>
</svg>
