<?xml version="1.0" encoding="iso-8859-1"?>
<!-- Generator: Adobe Illustrator 18.0.0, SVG Export Plug-In . SVG Version: 6.00 Build 0)  -->
<!DOCTYPE svg PUBLIC "-//W3C//DTD SVG 1.1//EN" "http://www.w3.org/Graphics/SVG/1.1/DTD/svg11.dtd">
<svg version="1.1" id="Capa_1" xmlns="http://www.w3.org/2000/svg" xmlns:xlink="http://www.w3.org/1999/xlink" x="0px" y="0px"
	 viewBox="0 0 388.103 388.103" style="enable-background:new 0 0 388.103 388.103;" xml:space="preserve">
<g>
	<g>
		<g>
			<path d="M120.309,93.481c-1.32,0-2.61-0.53-3.54-1.46c-0.931-0.93-1.46-2.22-1.46-3.54c0-1.319,0.529-2.6,1.46-3.53
				c0.93-0.93,2.22-1.47,3.54-1.47c1.319,0,2.609,0.54,3.54,1.47c0.93,0.93,1.46,2.22,1.46,3.53c0,1.32-0.53,2.61-1.46,3.54
				C122.918,92.951,121.628,93.481,120.309,93.481z"/>
		</g>
		<g>
			<path d="M95.128,81.251c-1.319,0-2.609-0.53-3.54-1.46c-0.93-0.93-1.46-2.22-1.46-3.54c0-1.32,0.53-2.6,1.46-3.53
				c0.931-0.93,2.221-1.47,3.54-1.47c1.31,0,2.6,0.54,3.54,1.47c0.931,0.93,1.46,2.22,1.46,3.53c0,1.32-0.529,2.61-1.46,3.54
				C97.729,80.721,96.439,81.251,95.128,81.251z"/>
		</g>
		<path d="M386.645,280.123c-1.127-1.131-2.73-1.658-4.308-1.41l-36.877,5.716c7.001-22.131-2.391-38.218-9.125-44.093
			c-0.976-0.849-2.233-1.291-3.538-1.225c-29.17,1.465-52.684-7.602-52.913-7.691c-1.294-0.512-2.743-0.459-3.997,0.142
			c-1.254,0.604-2.2,1.701-2.612,3.029c-0.566,1.83-0.975,3.488-1.335,4.949c-1.493,6.061-2.479,10.063-13.966,20.664
			c-19.854,18.324-24.662,31.133-26.159,38.026c-16.227-2.488-34.962-10.513-49.102-31.577c-0.021-0.031-0.043-0.064-0.065-0.096
			c-0.405-0.575-3.487-4.873-9.409-11.438c4.988-5.309,14.824-16.143,24.588-29c18.792-24.742,27.622-44.207,26.246-57.85
			c-0.001-0.01-0.005-0.02-0.006-0.03c-0.002-0.018-0.001-0.037-0.003-0.055c-0.191-1.621-4.763-39.922-11.144-57.418
			c-5.538-15.186-22.502-22.134-70.738-39.992C97.026,54.057,68.999,30.435,68.724,30.201c-1.081-0.923-2.508-1.343-3.913-1.153
			c-1.409,0.19-2.671,0.97-3.47,2.146L39.376,63.532c-5.314,5.248-54.91,56.022-34.456,102.04l10.455,188.804
			c0.146,2.65,2.338,4.725,4.992,4.725H76.6c2.762,0,5-2.238,5-5V236.444c0.024-4.091,1.854-6.061,3.259-6.061
			c0.472,0,2.281,0.236,5.751,3.271c14.543,12.725,57.662,61.568,81.768,100.086c1.561,2.865,15.229,25.359,59.328,25.359
			c41.219,0,142.378-30.434,146.664-31.73c1.835-0.555,3.191-2.109,3.492-4.002l6.18-38.93
			C388.291,282.86,387.773,281.256,386.645,280.123z M264.756,267.553c13.3-12.274,15.081-18.301,16.745-25.02
			c8.704,2.713,27.265,7.412,49.521,6.66c3.443,3.977,11.899,16.59,3.146,36.986c0,0-69.647,12.036-92.256,12.962
			C243.519,293.268,248.338,282.707,264.756,267.553z M214.215,171.538c-0.287,21.381-31.648,59.118-47.85,76.319
			c-6.881-6.951-15.998-15.279-27.471-24.01c11.026-10.177,38.233-37.652,51.732-72.114
			C199.217,157.897,212.557,170.282,214.215,171.538z M203.526,114.195c3.782,10.372,7.005,29.532,8.874,42.315
			c-7.951-7.233-21.275-18.337-46.087-31.047l14.852-28.621C195.763,103.432,201.274,108.022,203.526,114.195z M150.041,84.379
			c8.58,3.225,15.818,6.022,21.904,8.517l-14.605,28.146c-6.695-3.174-14.114-6.428-22.342-9.73L150.041,84.379z M66.582,41.274
			c32.213,25.053,73.36,39.338,73.98,39.568l-14.969,26.8C85.797,92.387,59.008,72.915,49.939,65.778L66.582,41.274z
			 M123.028,117.372c27.108,10.287,45.855,20.148,59.099,28.611c-12.919,34.8-42.148,63.33-51.475,71.822
			c-11.062-7.809-23.978-15.753-38.82-23.165c-5.315-9.117-37.641-66.305-42.903-117.025
			C61.549,86.946,87.022,103.708,123.028,117.372z M38.992,78.805c4.354,41.937,25.681,86.705,37.371,108.633
			c-1.313-0.568-62.72-26.868-62.72-26.868C0.795,129.776,25.629,94.602,38.992,78.805z M372.479,318.69
			c-17.323,5.113-104.863,30.41-140.773,30.41c-39.486,0-50.674-20.381-50.757-20.514c-24.959-39.936-68.411-89.031-83.753-102.457
			c-4.42-3.867-8.455-5.746-12.337-5.746c-8.899,0-13.182,8.717-13.218,15.047C71.639,235.645,71.6,349.1,71.6,349.1H25.098
			l-9.799-176.939l53.198,22.798c70.981,29.574,104.865,75.82,105.953,77.328c21.585,32.105,53.179,36.82,70.098,36.898
			c19.866,0.092,132.541-19.541,132.541-19.541L372.479,318.69z"/>
	</g>
</g>
<g>
</g>
<g>
</g>
<g>
</g>
<g>
</g>
<g>
</g>
<g>
</g>
<g>
</g>
<g>
</g>
<g>
</g>
<g>
</g>
<g>
</g>
<g>
</g>
<g>
</g>
<g>
</g>
<g>
</g>
</svg>
