<?xml version="1.0" encoding="iso-8859-1"?>
<!-- Generator: Adobe Illustrator 18.0.0, SVG Export Plug-In . SVG Version: 6.00 Build 0)  -->
<!DOCTYPE svg PUBLIC "-//W3C//DTD SVG 1.1//EN" "http://www.w3.org/Graphics/SVG/1.1/DTD/svg11.dtd">
<svg version="1.1" id="Capa_1" xmlns="http://www.w3.org/2000/svg" xmlns:xlink="http://www.w3.org/1999/xlink" x="0px" y="0px"
	 viewBox="0 0 429.257 429.257" style="enable-background:new 0 0 429.257 429.257;" xml:space="preserve">
<g>
	<g>
		<g>
			<g>
				<g>
					<path d="M194.129,297.879c-0.008-0.001-0.014-0.001-0.02,0h-40.479c-1.786,0-3.437-0.953-4.33-2.5
						c-0.893-1.547-0.893-3.453,0-5l20.24-35.057c0.893-1.547,2.544-2.5,4.33-2.5l0,0c1.787,0,3.437,0.953,4.33,2.5l20.033,34.701
						c0.564,0.81,0.896,1.794,0.896,2.856C199.129,295.641,196.891,297.879,194.129,297.879z M162.291,287.879h23.159
						l-11.579-20.056L162.291,287.879z"/>
				</g>
				<g>
					<path d="M275.646,297.879c-0.005,0-0.013,0-0.02,0h-40.479c-1.786,0-3.436-0.953-4.33-2.5c-0.894-1.547-0.894-3.453,0-5
						l20.238-35.057c0.893-1.547,2.544-2.5,4.33-2.5c1.786,0,3.437,0.953,4.33,2.5l20.035,34.701
						c0.565,0.81,0.895,1.794,0.895,2.856C280.646,295.641,278.408,297.879,275.646,297.879z M243.808,287.879h23.158l-11.58-20.056
						L243.808,287.879z"/>
				</g>
			</g>
			<g>
				<path d="M214.628,297.879L214.628,297.879c-1.787,0-3.437-0.953-4.33-2.5l-20.239-35.057c-0.893-1.547-0.893-3.453,0-5
					c0.893-1.547,2.544-2.5,4.33-2.5h40.48c1.786,0,3.437,0.953,4.33,2.5c0.894,1.547,0.894,3.453,0,5l-20.24,35.057
					C218.065,296.926,216.414,297.879,214.628,297.879z M203.049,262.823l11.579,20.057l11.581-20.057H203.049z"/>
			</g>
			<g>
				<path d="M234.888,245.315c-0.005,0-0.013,0.001-0.02,0h-40.482c-1.786,0-3.437-0.953-4.33-2.5c-0.893-1.547-0.893-3.453,0-5
					l20.241-35.056c0.893-1.547,2.544-2.5,4.33-2.5l0,0c1.787,0,3.437,0.953,4.33,2.5l20.036,34.7
					c0.564,0.81,0.895,1.794,0.895,2.856C239.888,243.076,237.65,245.315,234.888,245.315z M203.047,235.315h23.161l-11.581-20.057
					L203.047,235.315z"/>
			</g>
		</g>
		<g>
			<g>
				<g>
					<path d="M255.386,351.748L255.386,351.748c-1.786,0-3.438-0.953-4.33-2.5l-20.238-35.056c-0.894-1.547-0.894-3.453,0-5
						c0.894-1.547,2.544-2.5,4.33-2.5h40.479c1.786,0,3.437,0.953,4.33,2.5c0.894,1.547,0.894,3.453,0,5l-20.24,35.056
						C258.823,350.794,257.172,351.748,255.386,351.748z M243.808,316.692l11.578,20.056l11.58-20.056H243.808z"/>
				</g>
				<g>
					<path d="M173.871,351.748c-1.786,0-3.437-0.953-4.33-2.5l-20.24-35.056c-0.893-1.547-0.893-3.453,0-5
						c0.893-1.547,2.544-2.5,4.33-2.5h40.479c1.786,0,3.437,0.953,4.33,2.5c0.893,1.547,0.893,3.453,0,5l-20.238,35.056
						C177.308,350.794,175.658,351.748,173.871,351.748z M162.291,316.692l11.58,20.056l11.578-20.056H162.291z"/>
				</g>
			</g>
			<g>
				<path d="M234.888,351.748c-0.005,0-0.013,0-0.02,0h-40.48c-1.786,0-3.437-0.953-4.33-2.5c-0.893-1.547-0.893-3.453,0-5
					l20.241-35.056c0.893-1.547,2.544-2.5,4.33-2.5l0,0c1.787,0,3.437,0.953,4.331,2.5l20.033,34.7
					c0.564,0.81,0.895,1.794,0.895,2.856C239.888,349.509,237.65,351.748,234.888,351.748z M203.049,341.748h23.159l-11.579-20.056
					L203.049,341.748z"/>
			</g>
			<g>
				<path d="M214.63,404.312c-1.786,0-3.437-0.953-4.33-2.5l-20.241-35.056c-0.893-1.547-0.893-3.453,0-5
					c0.893-1.547,2.544-2.5,4.33-2.5h40.482c1.786,0,3.436,0.953,4.33,2.5c0.894,1.547,0.894,3.453,0,5l-20.241,35.056
					C218.067,403.359,216.416,404.312,214.63,404.312z M203.049,369.256l11.581,20.057l11.581-20.057H203.049z"/>
			</g>
		</g>
	</g>
	<path d="M333.039,149.378h-31.143V38.534c0-1.352-0.548-2.646-1.518-3.588L265.83,1.412l-0.007,0.003
		C264.922,0.543,263.7,0,262.347,0H166.91c-1.352,0-2.575,0.543-3.475,1.415l-0.007-0.003l-34.549,33.534
		c-0.97,0.942-1.518,2.236-1.518,3.588v110.844H96.219c-2.761,0-5,2.239-5,5v238.574c0,20.019,16.287,36.306,36.306,36.306h174.207
		c20.02,0,36.307-16.287,36.307-36.306V154.378C338.039,151.617,335.8,149.378,333.039,149.378z M328.039,159.378v14.44h-26.143
		v-14.44H328.039z M267.347,16.821l24.549,23.828v133.169h-24.549V16.821z M171.91,10h85.437v25.566H171.91V10z M171.91,45.566
		h85.437v103.812H171.91V45.566z M171.91,159.378h85.437v14.44H171.91V159.378z M137.361,40.648l24.549-23.828v156.997h-24.549
		V40.648z M127.361,159.378v14.44h-26.143v-14.44H127.361z M301.732,419.257H127.524c-14.505,0-26.306-11.801-26.306-26.306V183.818
		h226.82v209.134C328.039,407.457,316.238,419.257,301.732,419.257z"/>
</g>
<g>
</g>
<g>
</g>
<g>
</g>
<g>
</g>
<g>
</g>
<g>
</g>
<g>
</g>
<g>
</g>
<g>
</g>
<g>
</g>
<g>
</g>
<g>
</g>
<g>
</g>
<g>
</g>
<g>
</g>
</svg>
