<?xml version="1.0" encoding="iso-8859-1"?>
<!-- Generator: Adobe Illustrator 18.0.0, SVG Export Plug-In . SVG Version: 6.00 Build 0)  -->
<!DOCTYPE svg PUBLIC "-//W3C//DTD SVG 1.1//EN" "http://www.w3.org/Graphics/SVG/1.1/DTD/svg11.dtd">
<svg version="1.1" id="Capa_1" xmlns="http://www.w3.org/2000/svg" xmlns:xlink="http://www.w3.org/1999/xlink" x="0px" y="0px"
	 viewBox="0 0 371.18 371.18" style="enable-background:new 0 0 371.18 371.18;" xml:space="preserve">
<path d="M371.027,282.874c-20.634-81.725-50.379-137.29-71.698-169.512c-21.802-32.952-39.185-48.698-41.909-51.075
	c-6.863-8.099-6.892-19.942-6.891-20.048c0.014-1.335-0.506-2.621-1.445-3.57c-0.939-0.949-2.219-1.483-3.555-1.483H125.65
	c-1.336,0-2.615,0.534-3.555,1.483c-0.939,0.949-1.459,2.235-1.445,3.57c0.002,0.119-0.069,11.997-6.891,20.048
	c-2.725,2.377-20.107,18.123-41.909,51.075c-21.318,32.222-51.063,87.787-71.698,169.512c-0.354,1.399-0.085,2.883,0.736,4.069
	c1.33,1.922,34.303,47.051,184.701,47.051s183.371-45.129,184.701-47.051C371.112,285.757,371.381,284.273,371.027,282.874z
	 M339.795,297.449c-6.099,3.137-13.703,6.432-23.097,9.593c-9.307-82.759-33.113-142.765-51.686-178.813
	c-13.667-26.528-26.354-44.089-33.636-53.208c1.769-0.213,3.43-0.431,4.994-0.65C305.415,136.645,335.863,277.919,339.795,297.449z
	 M185.59,323.994c-10.258,0-19.916-0.223-29.042-0.622c5.752-139.513,21.284-208.582,29.056-235.248
	c7.774,26.576,23.266,95.414,29.029,235.267C205.498,323.782,195.83,323.994,185.59,323.994z M158.613,76.688
	c-5.796,10.287-16.668,31.23-27.906,61.507c-14.508,39.086-32.205,101.501-35.273,178.86c-12.035-2.108-22.385-4.54-31.214-7.072
	c8.964-81.945,32.379-141.238,50.612-176.736c16.708-32.528,32.163-51.466,37-57.033C153.987,76.385,156.25,76.544,158.613,76.688z
	 M139.963,141.995c12.972-35.017,25.698-57.681,29.911-64.786c2.73,0.09,5.575,0.156,8.531,0.199
	c-6.904,20.371-25.36,88.225-31.845,245.449c-15.366-0.934-29.031-2.398-41.179-4.199
	C108.255,242.209,125.686,180.537,139.963,141.995z M192.774,77.408c2.956-0.043,5.801-0.109,8.531-0.199
	c4.213,7.105,16.939,29.77,29.911,64.786c14.282,38.555,31.72,100.255,34.584,176.738c-12.216,1.798-25.887,3.233-41.181,4.147
	C218.137,165.633,199.678,97.777,192.774,77.408z M240.473,138.194c-11.24-30.283-22.112-51.223-27.907-61.507
	c2.364-0.144,4.626-0.303,6.782-0.475c4.834,5.564,20.29,24.501,37,57.033c18.239,35.51,41.664,94.831,50.621,176.82
	c-8.986,2.582-19.335,4.997-31.22,7.068C272.689,239.738,254.985,177.294,240.473,138.194z M130.284,47.186h110.611
	c0.52,3.996,1.77,9.815,4.776,15.464c-9.309,1.899-28.703,4.813-60.082,4.813c-31.235,0-50.721-2.927-60.075-4.825
	C128.516,56.993,129.766,51.178,130.284,47.186z M10.484,282.821c20.19-78.714,48.831-132.295,69.408-163.489
	c18.28-27.713,33.563-43.088,38.765-47.975c1.01,0.254,2.289,0.555,3.852,0.887c-29.599,29.162-55.342,74.64-76.605,135.416
	c-13.335,38.114-20.923,71.511-23.639,84.48C15.936,288.088,12.27,284.695,10.484,282.821z M31.4,297.372
	c3.994-19.817,34.453-160.808,103.408-223.001c1.564,0.22,3.225,0.438,4.995,0.65c-7.276,9.114-19.962,26.668-33.637,53.208
	c-18.566,36.035-42.363,96.014-51.677,178.73C50.036,305.465,40.59,302.59,31.4,297.372z M348.931,292.215
	c-2.702-12.914-10.294-46.365-23.654-84.555c-21.265-60.779-47.01-106.254-76.61-135.415c1.563-0.332,2.844-0.634,3.854-0.888
	c11.534,10.865,72.863,73.727,108.183,211.49C358.93,284.736,355.281,288.143,348.931,292.215z"/>
<g>
</g>
<g>
</g>
<g>
</g>
<g>
</g>
<g>
</g>
<g>
</g>
<g>
</g>
<g>
</g>
<g>
</g>
<g>
</g>
<g>
</g>
<g>
</g>
<g>
</g>
<g>
</g>
<g>
</g>
</svg>
