<?xml version="1.0" encoding="iso-8859-1"?>
<!-- Generator: Adobe Illustrator 18.0.0, SVG Export Plug-In . SVG Version: 6.00 Build 0)  -->
<!DOCTYPE svg PUBLIC "-//W3C//DTD SVG 1.1//EN" "http://www.w3.org/Graphics/SVG/1.1/DTD/svg11.dtd">
<svg version="1.1" id="Capa_1" xmlns="http://www.w3.org/2000/svg" xmlns:xlink="http://www.w3.org/1999/xlink" x="0px" y="0px"
	 viewBox="0 0 406.174 406.174" style="enable-background:new 0 0 406.174 406.174;" xml:space="preserve">
<g>
	<g>
		<g>
			<g>
				<path d="M91.4,274.02c-39.113,0-70.935-31.82-70.935-70.934c0-39.114,31.822-70.936,70.935-70.936
					c39.115,0,70.938,31.821,70.938,70.936C162.338,242.2,130.516,274.02,91.4,274.02z M91.4,142.151
					c-33.6,0-60.935,27.336-60.935,60.936c0,33.599,27.336,60.934,60.935,60.934c33.602,0,60.938-27.335,60.938-60.934
					C152.338,169.487,125.002,142.151,91.4,142.151z"/>
			</g>
			<path d="M193.885,183.585h-13.188c-1.568-7.177-3.973-14.043-7.121-20.485l5.998-5.996c5.645-5.648,5.645-14.838-0.004-20.485
				c-5.646-5.646-14.836-5.646-20.485,0l-2.484,2.484c-0.48-0.489-0.966-0.975-1.457-1.454l-7.595-39.101
				c-0.457-2.351-2.514-4.047-4.908-4.047h-2.653L125.44,57.133c-0.747-1.921-2.598-3.187-4.659-3.187h-58.76
				c-2.062,0-3.912,1.266-4.659,3.187L42.815,94.501h-2.653c-2.395,0-4.451,1.696-4.908,4.047l-7.595,39.1
				C10.608,154.261,0,177.456,0,203.087c0,25.631,10.608,48.826,27.66,65.439l7.594,39.098c0.457,2.35,2.514,4.047,4.908,4.047
				h2.653l14.547,37.368c0.747,1.921,2.598,3.187,4.659,3.187h58.76c2.062,0,3.912-1.266,4.659-3.187l14.546-37.368h2.654
				c2.395,0,4.451-1.696,4.908-4.047l7.594-39.098c0.492-0.479,0.977-0.965,1.458-1.455l2.483,2.485
				c2.824,2.822,6.533,4.234,10.243,4.234c3.71,0,7.419-1.412,10.243-4.234c2.736-2.735,4.244-6.373,4.244-10.243
				c0-3.87-1.508-7.508-4.244-10.242l-5.995-5.995c3.149-6.442,5.555-13.311,7.122-20.489h13.188c2.762,0,5-2.238,5-5v-29.002
				C198.885,185.823,196.646,183.585,193.885,183.585z M65.44,63.946h51.922l11.894,30.555H53.546L65.44,63.946z M44.284,104.501
				h94.234l4.507,23.201c-14.7-10.098-32.483-16.018-51.625-16.018s-36.924,5.919-51.622,16.017L44.284,104.501z M117.362,342.226
				H65.44l-11.894-30.555h75.711L117.362,342.226z M138.519,301.671H44.284l-4.506-23.198C54.477,288.57,72.26,294.489,91.4,294.489
				c19.142,0,36.925-5.919,51.624-16.017L138.519,301.671z M91.4,284.489c-44.885,0-81.4-36.517-81.4-81.402
				c0-44.886,36.516-81.402,81.4-81.402s81.402,36.517,81.402,81.402C172.803,247.973,136.285,284.489,91.4,284.489z
				 M173.814,259.313c0,1.198-0.467,2.324-1.314,3.171c-1.749,1.748-4.597,1.748-6.344,0.002l-2.939-2.941
				c1.875-2.38,3.635-4.854,5.271-7.416l4.012,4.013C173.348,256.989,173.814,258.115,173.814,259.313z M172.502,150.033
				l-4.013,4.012c-1.636-2.562-3.395-5.036-5.271-7.417l2.939-2.939c1.749-1.747,4.595-1.75,6.344-0.001
				C174.249,145.438,174.25,148.285,172.502,150.033z M188.885,212.587h-6.582c0.324-3.124,0.5-6.291,0.5-9.5
				c0-3.209-0.176-6.377-0.5-9.502h6.582V212.587z"/>
			<g>
				<path d="M120.961,211.347H61.84c-2.762,0-5-2.238-5-5v-29.002c0-2.762,2.238-5,5-5h59.121c2.762,0,5,2.238,5,5v29.002
					C125.961,209.108,123.723,211.347,120.961,211.347z M66.84,201.347h49.121v-19.002H66.84V201.347z"/>
			</g>
			<g>
				<path d="M120.961,234.571H61.84c-2.762,0-5-2.238-5-5s2.238-5,5-5h59.121c2.762,0,5,2.238,5,5S123.723,234.571,120.961,234.571z
					"/>
			</g>
		</g>
		<g>
			<g>
				<path d="M362.176,218.492c-0.795,0-1.6-0.189-2.349-0.589l-19.512-10.404c-1.034-0.552-1.843-1.449-2.282-2.536l-11.352-28.047
					c-1.036-2.56,0.199-5.475,2.759-6.511c2.561-1.035,5.476,0.199,6.511,2.759l10.671,26.365l17.91,9.55
					c2.437,1.3,3.358,4.328,2.06,6.765C365.691,217.531,363.963,218.492,362.176,218.492z"/>
			</g>
			<g>
				<path d="M387.414,123.095h-2.203l-3.424-73.847c-0.123-2.669-2.322-4.769-4.994-4.769h-68.248c-2.672,0-4.871,2.1-4.994,4.769
					l-3.422,73.847h-1.66c-10.344,0-18.76,8.416-18.76,18.762v122.461c0,10.346,8.416,18.762,18.76,18.762h1.661l3.421,73.847
					c0.123,2.669,2.322,4.769,4.994,4.769h68.248c2.672,0,4.871-2.1,4.994-4.769l3.423-73.847h2.204
					c10.344,0,18.76-8.416,18.76-18.762V141.856C406.174,131.511,397.758,123.095,387.414,123.095z M313.318,54.479h58.701
					l0.751,16.205h-60.203L313.318,54.479z M312.104,80.685h61.13l0.752,16.205h-62.633L312.104,80.685z M310.89,106.89h63.56
					l0.751,16.205h-65.061L310.89,106.89z M372.02,351.694h-58.701l-0.751-16.205h60.203L372.02,351.694z M373.234,325.489h-61.13
					l-0.751-16.207h62.633L373.234,325.489z M374.449,299.282h-63.56l-0.751-16.203h65.063L374.449,299.282z M396.174,264.317
					c0,4.831-3.93,8.762-8.76,8.762h-88.945c-4.83,0-8.76-3.931-8.76-8.762V141.856c0-4.831,3.93-8.762,8.76-8.762h88.945
					c4.83,0,8.76,3.931,8.76,8.762V264.317z"/>
				<path d="M382.172,141.655h-78.463c-2.762,0-5,2.238-5,5v112.863c0,2.762,2.238,5,5,5h78.463c2.762,0,5-2.238,5-5V146.655
					C387.172,143.894,384.934,141.655,382.172,141.655z M377.172,254.519H347.67v-9.496c0-2.762-2.238-5-5-5c-2.762,0-5,2.238-5,5
					v9.496h-28.961V151.655h28.961v9.498c0,2.762,2.238,5,5,5c2.762,0,5-2.238,5-5v-9.498h29.502V254.519z"/>
			</g>
		</g>
	</g>
</g>
<g>
</g>
<g>
</g>
<g>
</g>
<g>
</g>
<g>
</g>
<g>
</g>
<g>
</g>
<g>
</g>
<g>
</g>
<g>
</g>
<g>
</g>
<g>
</g>
<g>
</g>
<g>
</g>
<g>
</g>
</svg>
