<?xml version="1.0" encoding="iso-8859-1"?>
<!-- Generator: Adobe Illustrator 18.0.0, SVG Export Plug-In . SVG Version: 6.00 Build 0)  -->
<!DOCTYPE svg PUBLIC "-//W3C//DTD SVG 1.1//EN" "http://www.w3.org/Graphics/SVG/1.1/DTD/svg11.dtd">
<svg version="1.1" id="Capa_1" xmlns="http://www.w3.org/2000/svg" xmlns:xlink="http://www.w3.org/1999/xlink" x="0px" y="0px"
	 viewBox="0 0 408.063 408.063" style="enable-background:new 0 0 408.063 408.063;" xml:space="preserve">
<path d="M352.451,253.086c-1.734-2.459-4.207-4.203-7.059-5.016V32.866C345.392,12.286,333.105,0,312.527,0
	c-38.672,0-119.607,58.026-167.965,92.696c-5.037,3.612-9.709,6.961-13.926,9.952c-46.201,32.78-67.967,53.663-67.967,103.368
	v42.055c-6.313,1.809-10.395,8.137-9.252,14.754l2.803,16.195c1.084,6.27,6.484,10.82,12.842,10.82c0.742,0,1.672-0.012,3.049-0.375
	v12.855c0,7.611,2.607,14.621,6.967,20.197v52.68c0,18.123,14.744,32.865,32.867,32.865h184.176
	c18.121,0,32.863-14.742,32.863-32.865v-52.68c4.359-5.578,6.967-12.586,6.967-20.197v-12.855c0.705,0.294,2.307,0.375,3.051,0.375
	l0,0c6.357,0,11.758-4.551,12.84-10.82l2.801-16.195C355.238,259.393,354.458,255.934,352.451,253.086z M215,339.678H193.06v-24.104
	H215V339.678z M193.06,349.678H215v14.59H193.06V349.678z M220,305.575H188.06c-2.762,0-5,2.238-5,5v14.611h-78.084
	c-12.607,0-22.865-10.256-22.865-22.865v-50.648h243.84v50.648c0,12.609-10.258,22.865-22.867,22.865H225v-14.611
	C225,307.813,222.761,305.575,220,305.575z M136.423,110.804c4.229-3,8.914-6.359,13.967-9.981C194.662,69.082,277.07,10,312.527,10
	c18.898,0,22.865,12.435,22.865,22.866v211.557c-0.826-1.625-2.494-2.75-4.441-2.75H77.111c-1.947,0-3.617,1.125-4.441,2.752
	v-38.408C72.669,160.765,92.095,142.254,136.423,110.804z M71.556,278.549c-0.469,0.664-1.168,1.105-1.967,1.244
	c-1.674,0.285-3.232-0.842-3.516-2.477l-2.803-16.195c-0.285-1.652,0.826-3.23,2.479-3.516c0.176-0.031,2.846-0.399,3.516,2.479
	l2.801,16.197C72.205,277.081,72.023,277.887,71.556,278.549z M296.121,398.063H111.945c-12.609,0-22.867-10.258-22.867-22.865
	v-44.125c4.715,2.617,10.135,4.113,15.898,4.113h78.084v34.082c0,2.762,2.238,5,5,5H220c2.762,0,5-2.238,5-5v-34.082h78.084
	c5.766,0,11.186-1.496,15.9-4.113v44.125C318.984,387.805,308.726,398.063,296.121,398.063z M344.789,261.12l-2.801,16.197
	c-0.281,1.635-1.848,2.766-3.514,2.477c-0.801-0.139-1.5-0.58-1.967-1.242c-0.469-0.664-0.65-1.471-0.512-2.272l2.801-16.197
	c0.658-2.773,3.338-2.508,3.516-2.477c0.801,0.139,1.498,0.58,1.967,1.244C344.746,259.512,344.927,260.319,344.789,261.12z"/>
<g>
</g>
<g>
</g>
<g>
</g>
<g>
</g>
<g>
</g>
<g>
</g>
<g>
</g>
<g>
</g>
<g>
</g>
<g>
</g>
<g>
</g>
<g>
</g>
<g>
</g>
<g>
</g>
<g>
</g>
</svg>
