<?xml version="1.0" encoding="iso-8859-1"?>
<!-- Generator: Adobe Illustrator 18.0.0, SVG Export Plug-In . SVG Version: 6.00 Build 0)  -->
<!DOCTYPE svg PUBLIC "-//W3C//DTD SVG 1.1//EN" "http://www.w3.org/Graphics/SVG/1.1/DTD/svg11.dtd">
<svg version="1.1" id="Capa_1" xmlns="http://www.w3.org/2000/svg" xmlns:xlink="http://www.w3.org/1999/xlink" x="0px" y="0px"
	 viewBox="0 0 341.301 341.301" style="enable-background:new 0 0 341.301 341.301;" xml:space="preserve">
<path d="M329.167,126.15c-0.022-0.089-20.801-69.602-21.148-70.063l-5.813-39.499c-0.361-2.454-2.466-4.273-4.947-4.273H44.041
	c-2.48,0-4.586,1.818-4.947,4.273l-5.816,39.534c-0.339,0.456-21.122,69.939-21.143,70.028
	c-21.184,88.811-8.223,197.359-8.089,198.445c0.308,2.507,2.437,4.391,4.963,4.391h145.213c2.114,0,4-1.33,4.71-3.321
	c5.539-15.542,9.242-26.257,11.719-33.677c2.477,7.42,6.179,18.135,11.718,33.677c0.71,1.991,2.596,3.321,4.71,3.321h145.214
	c2.526,0,4.655-1.884,4.963-4.391C337.389,323.509,350.348,214.962,329.167,126.15z M48.36,22.315h244.581l4.676,31.775H43.685
	L48.36,22.315z M165.651,261.422c-35.09-2.688-38.979-33.896-42.111-59.206c-0.19-1.539-9.911-115.067-11.613-138.125h53.725
	V261.422z M229.375,64.09c-1.702,23.063-11.423,136.586-11.613,138.125c-3.132,25.311-7.021,56.519-42.111,59.206V64.09H229.375z
	 M150.693,318.986H13.495c-0.315-3.09-0.753-7.732-1.214-13.632h143.2C153.864,310,152.222,314.672,150.693,318.986z
	 M158.934,295.354H11.571c-2.415-37.684-3.996-106.876,10.26-166.751L41.01,64.09h60.888
	c1.627,22.106,11.529,137.835,11.717,139.354c1.66,13.409,3.725,30.097,11.292,43.609c8.398,14.995,22.099,23.173,40.743,24.396
	v3.061C165.245,276.579,162.43,285.136,158.934,295.354z M327.806,318.986H190.608c-1.53-4.314-3.171-8.986-4.788-13.632H329.02
	C328.56,311.254,328.121,315.896,327.806,318.986z M329.73,295.354H182.367c-3.488-10.195-6.3-18.738-6.716-20.836v-3.068
	c18.644-1.224,32.345-9.401,40.743-24.396c7.568-13.513,9.633-30.2,11.292-43.609c0.188-1.518,10.09-117.247,11.717-139.354h60.887
	l19.181,64.513C333.725,188.478,332.144,257.669,329.73,295.354z"/>
<g>
</g>
<g>
</g>
<g>
</g>
<g>
</g>
<g>
</g>
<g>
</g>
<g>
</g>
<g>
</g>
<g>
</g>
<g>
</g>
<g>
</g>
<g>
</g>
<g>
</g>
<g>
</g>
<g>
</g>
</svg>
