<?xml version="1.0" encoding="iso-8859-1"?>
<!-- Generator: Adobe Illustrator 18.0.0, SVG Export Plug-In . SVG Version: 6.00 Build 0)  -->
<!DOCTYPE svg PUBLIC "-//W3C//DTD SVG 1.1//EN" "http://www.w3.org/Graphics/SVG/1.1/DTD/svg11.dtd">
<svg version="1.1" id="Capa_1" xmlns="http://www.w3.org/2000/svg" xmlns:xlink="http://www.w3.org/1999/xlink" x="0px" y="0px"
	 viewBox="0 0 418.715 418.715" style="enable-background:new 0 0 418.715 418.715;" xml:space="preserve">
<g>
	<path d="M402.94,223.821h-55.583c4.508-10.799,5-27.472-11.656-42.519c-31.612-28.558-69.817-31.85-110.681-9.306
		c-60.558,33.41-111.787,49.822-118.226,51.824H15.773C6.044,223.821,0,231.043,0,242.67c0,11.627,6.044,18.85,15.773,18.85H402.94
		c9.73,0,15.774-7.223,15.774-18.85C418.715,231.043,412.671,223.821,402.94,223.821z M338.362,219.207
		c-7.052-8.987-22.351-22.855-49.617-22.855c-4.864,0-9.396,0.607-13.671,1.618l-23.107-26.826
		c21.391-7.795,47.066-5.26,68.965,10.779C343.357,198.349,341.357,212.349,338.362,219.207z M329.24,223.821h-84.665
		c1.792-1.054,22.005-17.391,44.17-17.469C310.411,206.276,323.006,216.542,329.24,223.821z M241.958,174.847l22.8,26.471
		c-5.732,2.359-10.981,5.303-15.926,8.261l-23.111-26.567C227.093,182.266,237.969,176.542,241.958,174.847z M216.669,187.842
		l23.478,26.987c-8.487,5.053-16.254,8.992-24.973,8.992h-78.248C156.573,216.347,184.938,204.486,216.669,187.842z M402.94,251.519
		H15.773c-1.428,0-5.773,0-5.773-8.85c0-8.849,4.346-8.849,5.773-8.849H402.94c1.428,0,5.774,0,5.774,8.849
		C408.715,251.519,404.368,251.519,402.94,251.519z"/>
</g>
<g>
</g>
<g>
</g>
<g>
</g>
<g>
</g>
<g>
</g>
<g>
</g>
<g>
</g>
<g>
</g>
<g>
</g>
<g>
</g>
<g>
</g>
<g>
</g>
<g>
</g>
<g>
</g>
<g>
</g>
</svg>
