<?xml version="1.0" encoding="iso-8859-1"?>
<!-- Generator: Adobe Illustrator 18.0.0, SVG Export Plug-In . SVG Version: 6.00 Build 0)  -->
<!DOCTYPE svg PUBLIC "-//W3C//DTD SVG 1.1//EN" "http://www.w3.org/Graphics/SVG/1.1/DTD/svg11.dtd">
<svg version="1.1" id="Capa_1" xmlns="http://www.w3.org/2000/svg" xmlns:xlink="http://www.w3.org/1999/xlink" x="0px" y="0px"
	 viewBox="0 0 421.026 421.026" style="enable-background:new 0 0 421.026 421.026;" xml:space="preserve">
<path d="M280.137,201.529c10.887-42.969,12.491-81.584,11.522-108.727c-1.3-36.377-7.206-59.818-7.817-62.163l-5.46-26.643
	c-0.54-2.637-3.061-4.371-5.727-3.927c-13.941,2.342-38.042,5.928-62.142,5.928S162.314,2.41,148.371,0.07
	c-2.662-0.445-5.186,1.291-5.727,3.927l-5.46,26.643c-0.612,2.345-6.518,25.786-7.817,62.163
	c-0.97,27.143,0.635,65.758,11.522,108.727c-0.722,8.357-5.703,73.01,7.699,122.826c-0.576,7.882-3.8,61.433,12.219,93.884
	c0.842,1.707,2.58,2.787,4.483,2.787h31.65c2.649,0,4.839-2.066,4.991-4.711c0.033-0.571,3.326-57.378,5.191-80.673
	c2.041-25.512,3.713-63.623,2.847-91.256c-1.083-34.568-0.432-53.417,0.544-63.68c0.977,10.263,1.628,29.111,0.545,63.68
	c-0.866,27.624,0.806,65.738,2.847,91.256c1.864,23.295,5.156,80.102,5.189,80.673c0.152,2.645,2.342,4.711,4.991,4.711h31.651
	c1.903,0,3.642-1.08,4.483-2.787c16.019-32.451,12.795-86.003,12.219-93.884C285.841,274.538,280.859,209.885,280.137,201.529z
	 M275.231,37.812c1.72,8.086,4.975,26.063,6.154,50.602c-7.565-5.308-19.182-18.296-21.818-48.656
	C266.973,39.132,271.952,38.423,275.231,37.812z M151.485,10.673c26.929,3.87,44.945,4.513,59.028,4.513
	c13.298,0,32.101-0.643,59.028-4.513l0.698,3.409c-7.522,1.394-28.203,5.072-59.714,5.072c-31.544,0-52.235-3.682-59.739-5.076
	L151.485,10.673z M145.789,37.811c3.298,0.614,8.319,1.329,15.804,1.957c-2.658,30.509-14.436,43.476-22.032,48.731
	C140.744,64,144.05,45.927,145.789,37.811z M168.477,411.026c-0.979-2.232-1.868-4.571-2.679-6.986h26.84
	c-0.162,2.739-0.303,5.114-0.413,6.986H168.477z M205.513,161.956c-2.617,2.71-7.851,8.966-5.538,82.742
	c0.853,27.249-0.802,64.91-2.821,90.146c-1.129,14.115-2.776,40.412-3.914,59.194h-30.257c-3.6-15.236-4.747-32.058-4.958-45.371
	c0.867,0.655,1.925,1.024,3.017,1.024c0.697,0,1.406-0.146,2.082-0.456c2.51-1.151,3.611-4.12,2.46-6.63
	c-14.699-32.044-16.57-81.025-16.025-111.999c0.817,2.379,1.655,4.763,2.536,7.156c0.744,2.022,2.657,3.275,4.693,3.274
	c0.573,0,1.156-0.099,1.726-0.309c2.592-0.953,3.92-3.827,2.966-6.419c-19.109-51.934-22.86-100.577-22.3-134.164
	c8.514-3.862,28.76-17.415,32.396-59.692c1.382,0.077,2.818,0.151,4.318,0.221c0.061,22.088-4.32,67.9-26.135,75.679
	c-2.601,0.928-3.957,3.788-3.03,6.39c0.729,2.046,2.655,3.321,4.71,3.321c0.558,0,1.124-0.094,1.68-0.291
	c30.094-10.731,32.695-66.896,32.753-84.728c1.597,0.047,3.244,0.089,4.95,0.126c0.081,18.573-0.267,87.282-9.388,120.888
	c-0.724,2.665,0.851,5.412,3.516,6.135c0.439,0.119,0.879,0.176,1.313,0.176c2.201,0,4.218-1.465,4.822-3.691
	c9.536-35.131,9.854-104.042,9.745-123.35c1.525,0.015,3.084,0.026,4.684,0.033V161.956z M210.513,32.823
	c-38.564,0-55.713-3.508-62.591-4.766l0.857-4.184c3.633,0.721,25.73,4.651,61.746,4.651s58.09-3.929,61.722-4.646l0.856,4.18
	C266.226,29.315,249.077,32.823,210.513,32.823z M228.801,411.026c-0.11-1.872-0.251-4.247-0.413-6.986h26.843
	c-0.812,2.414-1.7,4.753-2.681,6.986H228.801z M262.513,240.73c0.569,0.21,1.152,0.309,1.726,0.309c2.036,0,3.949-1.252,4.693-3.274
	c0.881-2.394,1.719-4.778,2.537-7.157c0.545,30.975-1.326,79.956-16.025,112c-1.151,2.51-0.05,5.479,2.46,6.63
	c0.676,0.31,1.384,0.456,2.082,0.456c1.094,0,2.154-0.371,3.022-1.029c-0.21,13.313-1.355,30.133-4.96,45.376h-30.262
	c-1.137-18.782-2.784-45.079-3.913-59.194c-2.02-25.242-3.675-62.905-2.82-90.146c2.312-73.776-2.923-80.032-5.54-82.742V41.363
	c1.645-0.008,3.249-0.02,4.815-0.035c-0.109,19.304,0.208,88.219,9.745,123.352c0.604,2.227,2.621,3.691,4.822,3.691
	c0.434,0,0.874-0.057,1.313-0.176c2.665-0.723,4.239-3.47,3.516-6.135c-9.123-33.615-9.469-102.345-9.387-120.891
	c1.705-0.037,3.354-0.08,4.949-0.127c0.057,17.83,2.658,74,32.753,84.731c0.556,0.197,1.122,0.291,1.68,0.291
	c2.055,0,3.98-1.275,4.71-3.321c0.927-2.602-0.43-5.462-3.03-6.39c-21.788-7.769-26.183-53.595-26.132-75.685
	c1.499-0.07,2.932-0.145,4.313-0.222c3.615,42.137,23.656,55.741,32.186,59.657c0.629,36.238-3.677,83.816-22.219,134.206
	C258.593,236.903,259.921,239.777,262.513,240.73z"/>
<g>
</g>
<g>
</g>
<g>
</g>
<g>
</g>
<g>
</g>
<g>
</g>
<g>
</g>
<g>
</g>
<g>
</g>
<g>
</g>
<g>
</g>
<g>
</g>
<g>
</g>
<g>
</g>
<g>
</g>
</svg>
