<?xml version="1.0" encoding="iso-8859-1"?>
<!-- Generator: Adobe Illustrator 18.0.0, SVG Export Plug-In . SVG Version: 6.00 Build 0)  -->
<!DOCTYPE svg PUBLIC "-//W3C//DTD SVG 1.1//EN" "http://www.w3.org/Graphics/SVG/1.1/DTD/svg11.dtd">
<svg version="1.1" id="Capa_1" xmlns="http://www.w3.org/2000/svg" xmlns:xlink="http://www.w3.org/1999/xlink" x="0px" y="0px"
	 viewBox="0 0 395.048 395.048" style="enable-background:new 0 0 395.048 395.048;" xml:space="preserve">
<path d="M393.803,292.297c-5.814-13.478-29.709-23.438-59.457-24.784c-22.25-1.006-47.139-17.417-47.387-17.581
	c-2.064-1.378-4.828-1.033-6.488,0.812c-9.434,10.467-18.586,15.342-28.805,15.343c-23.512,0.003-53.486-25.937-91.633-79.304
	C92.658,92.526,54.133,55.188,52.525,53.645c-1.037-0.995-2.445-1.498-3.883-1.376c-1.432,0.12-2.742,0.851-3.598,2.005
	L28.322,76.832c-1.395,1.881-1.297,4.478,0.236,6.249c77.377,89.443,89.398,125.41,90.709,137.514
	c-10.041-5.837-99.381-61.007-109.432-66.235c-1.211-0.63-2.625-0.738-3.916-0.299c-1.291,0.439-2.348,1.387-2.924,2.623
	c-0.229,0.493-5.574,12.262-1.42,29.111c12.381,50.175,15.893,150.057,15.928,151.06c0.092,2.694,2.301,4.831,4.996,4.831h23.41
	c2.762,0,5-2.239,5-5v-92.417c0-18.955,3.236-25.661,6.266-25.708c2.351-0.037,36.351,19.963,85.016,68.594
	c6.683,6.678,12.389,13.568,19.494,20.391c31.941,30.672,73.744,35.252,95.818,35.252c6.461,0,12.678-0.389,18.48-1.154
	c64.252-8.485,112.061-32.296,114.064-33.305c0.586-0.297,1.109-0.705,1.537-1.203C395.236,302.899,396.043,297.491,393.803,292.297
	z M27.313,331.686c-0.094-2.295-0.226-5.331-0.4-8.967H40.91v8.967H27.313z M40.91,244.269v68.45H26.398
	c-1.754-32.104-5.881-89.304-14.299-125.89l37.213,24.465C40.918,218.206,40.91,236.435,40.91,244.269z M384.535,299.9
	c-7.246,3.472-52.383,24.239-109.859,31.829c-5.369,0.709-11.148,1.068-17.172,1.068c-16.563,0-58.377-3.164-88.893-32.465
	c-6.869-6.595-12.695-13.145-19.035-19.92C103.648,231.322,10.009,173.487,10.009,173.487c-0.03-2.895,0.249-5.387,0.61-7.371
	c8.701,4.786,109.805,66.693,110.082,66.851c2.066,1.176,4.678,0.732,6.242-1.061c2.045-2.348,5.811-10.167-3.383-32.012
	c-11.885-28.242-40.418-68.713-84.822-120.322l10.867-14.657c11.57,12.001,47.715,51.331,102.293,127.683
	c40.717,56.963,72.42,83.491,99.77,83.488c11.961-0.001,22.9-5.107,33.336-15.589c8.188,4.901,28.936,16.103,48.891,17.005
	c31.678,1.434,47.926,12.266,50.727,18.756C385.234,297.68,385.221,298.788,384.535,299.9z"/>
<g>
</g>
<g>
</g>
<g>
</g>
<g>
</g>
<g>
</g>
<g>
</g>
<g>
</g>
<g>
</g>
<g>
</g>
<g>
</g>
<g>
</g>
<g>
</g>
<g>
</g>
<g>
</g>
<g>
</g>
</svg>
