<?xml version="1.0" encoding="iso-8859-1"?>
<!-- Generator: Adobe Illustrator 18.0.0, SVG Export Plug-In . SVG Version: 6.00 Build 0)  -->
<!DOCTYPE svg PUBLIC "-//W3C//DTD SVG 1.1//EN" "http://www.w3.org/Graphics/SVG/1.1/DTD/svg11.dtd">
<svg version="1.1" id="Capa_1" xmlns="http://www.w3.org/2000/svg" xmlns:xlink="http://www.w3.org/1999/xlink" x="0px" y="0px"
	 viewBox="0 0 413.899 413.899" style="enable-background:new 0 0 413.899 413.899;" xml:space="preserve">
<path d="M285.409,22.412c-1.592-1.652-3.129-2.391-4.293-2.716L242.051,0.512c-1.535-0.752-3.348-0.671-4.805,0.218
	c-1.459,0.889-2.363,2.46-2.398,4.168c-0.043,2.049-0.182,4.103-0.365,6.157c-3.48,1.087-13.066,2.562-27.533,2.566
	c-14.482-0.004-24.076-1.482-27.547-2.57c-0.183-2.034-0.308-4.084-0.35-6.153c-0.035-1.708-0.939-3.28-2.398-4.168
	c-1.459-0.889-3.272-0.969-4.805-0.218l-39.066,19.184c-1.164,0.325-2.701,1.063-4.293,2.716
	c-8.652,8.988-12.129,37.52-10.332,84.802v76.153c0,2.761,2.238,5,5,5h19.885c-10.17,48.283-9.508,203.767-9.508,203.767
	c0,0.686,0.143,1.365,0.416,1.994c1.436,3.299,15.492,19.771,72.936,19.771c57.444,0,71.631-16.473,73.066-19.771
	c0.273-0.629,0.414-1.309,0.414-1.994c0,0,0.58-154.951-9.506-203.767h19.879c2.762,0,5-2.239,5-5v-76.153
	C297.537,59.931,294.061,31.4,285.409,22.412z M244.391,12.802l29.592,14.532c-1.596,10.109-7.17,39.757-19.762,56.731
	c-0.523,0.707-0.854,1.54-0.951,2.415l-3.305,29.106c-8.203-6.083-22.693-17.775-36.455-33.569
	C231.75,59.212,242.123,35.98,244.391,12.802z M270.526,367.592c-11.92-8.584-36.029-27.586-57.303-54.465
	c15.453-20.863,29.695-46.869,35.563-76.591c4.461-22.604,6.088-50.043,6.684-67.302c1.914,5.309,4.031,12.835,6.059,23.49
	C268.676,230.327,271.702,289.126,270.526,367.592z M143.377,367.594c-1.174-78.467,1.85-137.268,9-174.87
	c4.994-26.265,10.555-33.587,12.207-35.258h81.17c-0.219,13.122-1.314,49.438-6.779,77.133
	c-8.52,43.16-35.984,78.346-57.525,100.262C166.26,350.317,151.791,361.54,143.377,367.594z M154.403,154.3l0.205-32.233
	l3.18,28.009C156.731,151.076,155.592,152.445,154.403,154.3z M256.114,150.073l3.18-28.005l0.203,32.226
	C258.307,152.44,257.168,151.072,256.114,150.073z M183.344,22.092c6.33,0.98,14.682,1.522,23.529,1.528
	c0.004,0,0.006,0.001,0.01,0.001c0.024,0,0.045,0,0.066,0c0.023,0,0.045,0,0.066,0c0.004,0,0.008-0.001,0.012-0.001
	c8.848-0.006,17.197-0.547,23.527-1.528c0.711-0.11,1.514-0.236,2.361-0.389c-3.623,17.445-12.293,35.004-25.918,52.434
	c-11.635-14.879-21.855-32.69-26-52.43C181.84,21.858,182.639,21.984,183.344,22.092z M169.52,12.797
	c2.729,27.204,16.916,55.172,41.369,81.372c16,17.142,31.707,28.634,37.781,32.821l-2.326,20.477h-78.789l-6.924-60.987
	c-0.1-0.875-0.428-1.708-0.953-2.415c-12.592-16.974-18.164-46.622-19.762-56.731L169.52,12.797z M128.159,178.366
	c0,0,0-71.375-0.004-71.439c-1.496-39.268,1.012-58.876,3.572-68.573c2.225,11.011,6.313,26.954,13.152,40.51l-0.629,99.502H128.159
	z M206.952,403.899c-48.094-0.01-60.873-10.541-63.416-13.34v-10.877c6.377-4.262,24.799-17.244,44.863-37.625
	c5.908-6,12.242-12.969,18.537-20.793c15.143,18.756,31.314,33.471,42.611,42.777c6.961,5.732,12.857,10.076,16.58,12.711
	c1.746,1.236,3.121,2.209,4.24,2.969v10.928C268.084,393.143,255.328,403.889,206.952,403.899z M285.744,106.928
	c-0.002,0.064-0.004,71.439-0.004,71.439h-16.092l-0.629-99.502c6.838-13.554,10.928-29.495,13.152-40.506
	C284.733,48.054,287.243,67.652,285.744,106.928z"/>
<g>
</g>
<g>
</g>
<g>
</g>
<g>
</g>
<g>
</g>
<g>
</g>
<g>
</g>
<g>
</g>
<g>
</g>
<g>
</g>
<g>
</g>
<g>
</g>
<g>
</g>
<g>
</g>
<g>
</g>
</svg>
