<?xml version="1.0" encoding="iso-8859-1"?>
<!-- Generator: Adobe Illustrator 18.0.0, SVG Export Plug-In . SVG Version: 6.00 Build 0)  -->
<!DOCTYPE svg PUBLIC "-//W3C//DTD SVG 1.1//EN" "http://www.w3.org/Graphics/SVG/1.1/DTD/svg11.dtd">
<svg version="1.1" id="Capa_1" xmlns="http://www.w3.org/2000/svg" xmlns:xlink="http://www.w3.org/1999/xlink" x="0px" y="0px"
	 viewBox="0 0 430.856 430.856" style="enable-background:new 0 0 430.856 430.856;" xml:space="preserve">
<g>
	<path d="M430.801,251.252c-0.102-1.623-0.987-3.097-2.373-3.948c-0.671-0.413-1.421-0.651-2.184-0.718
		c-3.006-30.382-32.689-32.705-69.641-35.59c-11.088-0.865-23.656-1.846-36.675-3.621c-45.496-6.204-60.937-19.289-64.89-23.591
		c0.687-2.786,1.144-4.783,1.323-5.581c0.401-1.786-0.206-3.649-1.583-4.855c-1.802-1.58-44.39-38.74-67.108-44.768
		c-14.31-3.793-24.997,5.283-38.529,16.781c-10.551,8.963-23.682,20.119-42.289,28.037c-38.64,16.441-83.66-18.582-84.107-18.936
		c-1.168-0.926-2.688-1.283-4.144-0.973c-1.457,0.31-2.7,1.252-3.391,2.572C-7.465,199.384,0.255,230.4,6.448,244.496
		c-0.818,0.195-1.589,0.57-2.222,1.15c-1.035,0.947-1.624,2.285-1.624,3.689v37.005c0,2.762,2.239,5,5,5H116.39c2.761,0,5-2.238,5-5
		v-4.918c7.512,1.151,21.292,3.411,34.085,6.289c20.06,4.512,42.388,8.574,55.729,11.001c2.795,0.509,5.157,0.938,6.968,1.276
		c8.166,1.523,27.648,3.163,51.126,3.163c33.809,0,83.6-3.168,128.917-18.243C401.519,284.085,432.332,275.74,430.801,251.252z
		 M344.809,227.803c0.86-2.887,1.192-5.436,1.324-7.611c3.33,0.276,6.574,0.531,9.692,0.775c40.682,3.175,59.6,5.682,60.619,28.893
		c-19.798,7.352-77.169,26.191-145.113,26.191c-23.536,0-46.372-2.266-67.874-6.736c-3.031-0.63-5.961-1.236-8.819-1.826
		c12.134-19.814,45.306-19.673,77.49-19.518c5.446,0.025,11.078,0.053,16.436-0.027
		C326.301,247.377,340.494,242.295,344.809,227.803z M318.577,217.283c6.014,0.82,11.898,1.467,17.588,2.016
		c-0.088,1.695-0.316,3.555-0.94,5.649c-1.938,6.508-6.977,12.399-46.811,12.996c-5.26,0.079-10.593,0.054-16.239,0.026
		c-34.903-0.168-74.245-0.332-87.789,27.419c-30.391-6.176-50.815-9.85-70.283-12.204c5.301-11.355,13.616-19.706,24.801-24.852
		c36.456-16.774,91.925,4.486,92.479,4.703c2.032,0.794,4.34,0.181,5.709-1.516c5.966-7.387,11.45-23.951,15.047-36.747
		C260.903,201.827,279.748,211.988,318.577,217.283z M185.106,138.246c0.595,0.158,1.212,0.348,1.842,0.557l-3.059,3.627
		c-1.781,2.11-1.513,5.265,0.598,7.045c0.938,0.792,2.083,1.179,3.222,1.179c1.422,0,2.835-0.604,3.824-1.776l4.918-5.83
		c2.508,1.34,5.126,2.878,7.792,4.541l-4.454,5.721c-1.696,2.179-1.305,5.32,0.874,7.017c0.913,0.71,1.995,1.055,3.068,1.055
		c1.489,0,2.963-0.662,3.949-1.929l4.942-6.348c2.335,1.609,4.659,3.267,6.941,4.936l-4.438,6.004
		c-1.641,2.221-1.171,5.352,1.049,6.992c0.894,0.661,1.935,0.98,2.968,0.98c1.532,0,3.044-0.703,4.025-2.029l4.391-5.941
		c2.479,1.909,4.828,3.762,7.001,5.502l-4.505,6.436c-1.584,2.262-1.034,5.379,1.228,6.963c0.873,0.611,1.873,0.904,2.863,0.904
		c1.576,0,3.127-0.743,4.1-2.133l4.079-5.826c1.435,1.197,2.66,2.23,3.602,3.033c-2.682,11.198-8.735,33.275-14.668,43.43
		c-1.827-0.633-4.269-1.438-7.187-2.316c10.413-22.506-2.194-39.15-11.151-45.221l-43.504-32.711
		C175.15,138.338,179.871,136.857,185.106,138.246z M21.479,165.889c10.341,7.07,35.379,21.969,62.799,21.966
		c8.72-0.001,17.687-1.509,26.491-5.255c20.007-8.514,33.781-20.215,44.848-29.618c1.958-1.663,3.773-3.19,5.497-4.606
		l45.901,34.512c0.073,0.055,0.147,0.107,0.223,0.158c0.782,0.523,18.163,12.539,7.029,34.302
		c-20.945-5.214-53.732-9.96-79.516,1.89c-14.449,6.642-24.879,17.672-31.063,32.805c-5.772-0.57-11.603-1.046-17.729-1.453
		c-21.54-1.431-52.311-4.02-67.957-5.367C13.853,237.995,0.754,209.493,21.479,165.889z M395.685,275.231
		c-0.146,0.034-0.293,0.076-0.436,0.124c-46.423,15.484-98.838,17.796-125.951,17.796c-22.842,0-41.563-1.552-49.292-2.993
		c-1.823-0.341-4.2-0.773-7.013-1.285c-13.264-2.412-35.465-6.451-55.324-10.918c-19.128-4.303-40.385-7.249-40.598-7.278
		c-0.228-0.031-2.684-0.029-3.968,1.184c-1.05,0.993-1.714,2.324-1.714,3.769v5.71H12.602v-26.549
		c13.419,1.166,48.729,4.184,72.693,5.775c33.871,2.249,58.703,6.602,116.126,18.539c22.17,4.609,45.691,6.945,69.91,6.945
		c68.66,0,126.945-18.854,148.03-26.616C413.984,270.725,395.898,275.181,395.685,275.231z"/>
</g>
<g>
</g>
<g>
</g>
<g>
</g>
<g>
</g>
<g>
</g>
<g>
</g>
<g>
</g>
<g>
</g>
<g>
</g>
<g>
</g>
<g>
</g>
<g>
</g>
<g>
</g>
<g>
</g>
<g>
</g>
</svg>
