<?xml version="1.0" encoding="iso-8859-1"?>
<!-- Generator: Adobe Illustrator 18.0.0, SVG Export Plug-In . SVG Version: 6.00 Build 0)  -->
<!DOCTYPE svg PUBLIC "-//W3C//DTD SVG 1.1//EN" "http://www.w3.org/Graphics/SVG/1.1/DTD/svg11.dtd">
<svg version="1.1" id="Capa_1" xmlns="http://www.w3.org/2000/svg" xmlns:xlink="http://www.w3.org/1999/xlink" x="0px" y="0px"
	 viewBox="0 0 422.606 422.606" style="enable-background:new 0 0 422.606 422.606;" xml:space="preserve">
<g>
	<g>
		<path d="M361.326,250.018c-0.68-1.777-1.327-3.471-1.888-5.022V90.67c0-0.001,0-0.002,0-0.003c0-0.702-0.176-1.315-0.2-1.397
			l-3.365-11.539V58.355c0-2.762-2.239-5-5-5h-70.81c-2.761,0-5,2.238-5,5V77.73l-3.367,11.539c-0.024,0.082-0.2,0.621-0.2,1.398
			v0.002v135.188c0,32.403-9.406,44.697-9.464,44.773c-0.037,0.045-66.635,86.543-66.673,86.604
			c-4.429,6.865-8.556,14.553-8.758,24.219c-0.461,22.23,17.249,40.691,39.477,41.152c0.289,0.006,19.653,0,32.322-15.131
			l65.327-73.676c0.093-0.107,9.446-10.834,18.926-14.527C381.94,303.959,368.531,268.869,361.326,250.018z M340.352,209.254
			c-1.293-1.428-3.219-1.912-4.963-1.461l-12.472-11.289l12.469-11.287c0.414,0.107,0.835,0.181,1.258,0.181
			c1.363,0,2.722-0.554,3.709-1.645c1.054-1.165,1.435-2.688,1.21-4.128l7.875-7.129v12.93c-1.985-1.099-4.532-0.744-6.121,1.012
			c-1.853,2.047-1.696,5.209,0.352,7.063l3.318,3.004l-3.318,3.004c-2.047,1.854-2.205,5.016-0.352,7.063
			c0.987,1.09,2.345,1.645,3.708,1.645c0.832,0,1.66-0.221,2.412-0.637v12.934l-7.875-7.129
			C341.788,211.941,341.407,210.42,340.352,209.254z M295.546,207.793c-1.744-0.453-3.67,0.033-4.964,1.463
			c-1.054,1.164-1.435,2.688-1.21,4.127l-7.875,7.129v-12.934c0.752,0.416,1.581,0.637,2.412,0.637c1.363,0,2.721-0.555,3.708-1.645
			c1.853-2.047,1.696-5.209-0.352-7.063l-3.318-3.004l3.318-3.004c2.047-1.854,2.205-5.016,0.352-7.063
			c-1.589-1.754-4.135-2.109-6.121-1.012v-12.93l7.875,7.129c-0.225,1.439,0.156,2.963,1.21,4.127
			c0.987,1.091,2.345,1.645,3.709,1.645c0.424,0,0.844-0.072,1.258-0.18l12.469,11.287L295.546,207.793z M295.982,150.332
			l2.366,2.141c0.957,0.866,2.157,1.293,3.354,1.293c1.363,0,2.721-0.555,3.708-1.645c1.853-2.047,1.696-5.209-0.352-7.063
			l-1.626-1.472l12.035-10.894l12.035,10.894l-1.625,1.472c-2.047,1.854-2.205,5.016-0.352,7.063
			c0.987,1.09,2.345,1.645,3.708,1.645c1.197,0,2.397-0.427,3.354-1.293l2.365-2.141l12.035,10.894l-12.035,10.895l-2.365-2.141
			c-2.047-1.853-5.21-1.696-7.063,0.351c-1.853,2.048-1.696,5.21,0.352,7.063l1.625,1.472l-12.035,10.895l-12.035-10.895
			l1.626-1.473c2.047-1.854,2.205-5.015,0.352-7.063c-1.854-2.047-5.015-2.204-7.063-0.352l-2.366,2.143l-12.035-10.895
			L295.982,150.332z M305.409,99.775c-1.854-2.049-5.015-2.205-7.063-0.352l-2.365,2.141l-6.512-5.895h18.022
			c0.213,0.506,0.493,0.99,0.882,1.42c0.987,1.091,2.345,1.645,3.708,1.645c1.196,0,2.397-0.427,3.354-1.293l0.03-0.027l0.031,0.027
			c0.957,0.867,2.157,1.294,3.354,1.294c1.363,0,2.721-0.554,3.708-1.645c0.389-0.43,0.669-0.915,0.882-1.421h18.022l-6.512,5.895
			l-2.365-2.141c-2.047-1.854-5.21-1.697-7.063,0.352c-1.853,2.047-1.696,5.209,0.352,7.063l1.625,1.471l-12.035,10.896
			l-12.035-10.896l1.626-1.471C307.105,104.984,307.262,101.822,305.409,99.775z M349.439,114.871
			c-1.985-1.1-4.532-0.744-6.121,1.011c-1.853,2.048-1.696,5.209,0.352,7.063l3.318,3.004l-3.318,3.004
			c-2.047,1.854-2.205,5.015-0.352,7.063c0.987,1.091,2.345,1.645,3.708,1.645c0.832,0,1.66-0.22,2.412-0.637v12.933l-7.875-7.129
			c0.225-1.439-0.156-2.963-1.211-4.127c-1.294-1.429-3.22-1.914-4.964-1.462l-12.471-11.289l12.469-11.288
			c0.414,0.108,0.835,0.182,1.258,0.182c1.363,0,2.722-0.555,3.709-1.645c1.054-1.165,1.436-2.688,1.21-4.128l7.875-7.129V114.871z
			 M337.078,63.355h8.795v15.089c0,0.474,0.067,0.944,0.2,1.399l1.699,5.826h-10.694V63.355z M319.928,63.355h7.15V85.67h-7.15
			V63.355z M302.778,63.355h7.15V85.67h-7.15V63.355z M284.864,79.845c0.133-0.454,0.2-0.927,0.2-1.4V63.355h7.714V85.67h-9.614
			L284.864,79.845z M289.371,109.069c-0.225,1.44,0.156,2.962,1.21,4.128c0.987,1.09,2.345,1.645,3.709,1.645
			c0.424,0,0.844-0.074,1.257-0.182l12.469,11.288l-12.471,11.288c-1.744-0.453-3.67,0.033-4.963,1.463
			c-1.054,1.164-1.435,2.688-1.21,4.127l-7.875,7.129v-12.933c0.752,0.417,1.581,0.637,2.412,0.637c1.363,0,2.721-0.554,3.708-1.645
			c1.853-2.048,1.696-5.209-0.352-7.063l-3.318-3.004l3.318-3.004c2.047-1.854,2.205-5.015,0.352-7.063
			c-1.589-1.755-4.135-2.11-6.121-1.011V101.94L289.371,109.069z M226.285,412.607c-16.716-0.348-30.033-14.228-29.686-30.945
			c0.117-5.621,2.083-10.516,5.142-15.732c9.236,3.371,34.366,14.607,44.4,39.814C240.612,410.309,233.656,412.775,226.285,412.607z
			 M339.023,309.953c-11.82,4.605-22.421,16.797-22.82,17.262l-62.61,70.609c-11.497-24.15-34.322-35.807-45.825-40.342
			l62.061-80.59c1.08-1.371,9.984-13.54,11.457-42.701l14.697-13.305l2.366,2.143c0.957,0.865,2.157,1.293,3.354,1.293
			c1.363,0,2.721-0.555,3.708-1.645c1.853-2.048,1.696-5.209-0.352-7.063l-1.626-1.473l12.035-10.895l12.035,10.895l-1.625,1.472
			c-2.047,1.853-2.205,5.015-0.352,7.063c0.987,1.091,2.345,1.645,3.708,1.645c1.197,0,2.397-0.427,3.354-1.293l2.365-2.142
			L349.439,234v11.861c0,0.566,0.096,1.129,0.285,1.663c0.665,1.885,1.44,3.914,2.262,6.064c5.032,13.168,8.931,25.366,7.119,35.513
			l-24.19-12.59c-2.45-1.274-5.469-0.322-6.744,2.127c-1.275,2.449-0.323,5.469,2.126,6.743l25.011,13.018
			C352.111,302.973,346.91,306.878,339.023,309.953z"/>
		<path d="M315.498,225.01l-0.031,0.028l-0.03-0.027c-2.047-1.854-5.21-1.696-7.062,0.351c-1.853,2.047-1.696,5.209,0.351,7.063
			l3.386,3.064c0.957,0.867,2.157,1.294,3.354,1.294l0.001-0.004l0.002,0.004c1.197,0,2.397-0.427,3.354-1.294l3.386-3.064
			c2.047-1.854,2.205-5.016,0.351-7.063C320.707,223.314,317.544,223.157,315.498,225.01z"/>
		<path d="M308.375,167.646c0.987,1.09,2.345,1.645,3.708,1.645c1.196,0,2.397-0.428,3.354-1.294l0.03-0.027l0.031,0.028
			c0.957,0.866,2.157,1.293,3.354,1.293c1.363,0,2.721-0.555,3.708-1.645c1.656-1.828,1.696-4.541,0.228-6.421
			c1.467-1.88,1.427-4.592-0.228-6.421c-1.854-2.047-5.015-2.203-7.063-0.351l-0.03,0.027l-0.03-0.027
			c-2.048-1.853-5.209-1.696-7.063,0.352c-1.655,1.829-1.695,4.54-0.228,6.42C306.679,163.105,306.719,165.818,308.375,167.646z"/>
	</g>
	<g>
		<path d="M227.859,196.662c-0.68-1.777-1.327-3.471-1.888-5.023V37.314c0-0.002-0.001-0.002-0.001-0.004
			c0-0.701-0.176-1.315-0.2-1.396l-3.365-11.54V5c0-2.762-2.239-5-5-5h-70.81c-2.761,0-5,2.238-5,5v19.374l-3.367,11.54
			c-0.024,0.082-0.2,0.621-0.2,1.398v0.002v135.188c0,32.402-9.406,44.697-9.464,44.773c-0.037,0.045-66.635,86.543-66.673,86.602
			c-4.429,6.866-8.556,14.553-8.758,24.22c-0.461,22.23,17.248,40.69,39.478,41.151c0.289,0.006,19.653,0,32.322-15.13
			l65.327-73.676c0.093-0.107,9.446-10.835,18.926-14.528C248.472,250.604,235.063,215.514,227.859,196.662z M206.885,155.898
			c-1.293-1.428-3.219-1.913-4.963-1.461l-12.472-11.289l12.469-11.287c0.414,0.107,0.835,0.18,1.258,0.18
			c1.363,0,2.722-0.554,3.708-1.645c1.054-1.164,1.435-2.688,1.211-4.127l7.875-7.129v12.93c-1.985-1.1-4.532-0.744-6.121,1.012
			c-1.853,2.047-1.696,5.209,0.352,7.063l3.318,3.004l-3.318,3.004c-2.047,1.854-2.205,5.015-0.352,7.063
			c0.987,1.09,2.345,1.645,3.708,1.645c0.832,0,1.66-0.221,2.412-0.637v12.934l-7.876-7.13
			C208.321,158.586,207.939,157.063,206.885,155.898z M162.078,154.438c-1.744-0.453-3.67,0.033-4.964,1.462
			c-1.054,1.165-1.435,2.688-1.21,4.128l-7.875,7.129v-12.934c0.752,0.416,1.581,0.637,2.412,0.637c1.363,0,2.721-0.555,3.708-1.645
			c1.853-2.048,1.696-5.209-0.352-7.063l-3.318-3.004l3.318-3.004c2.047-1.854,2.205-5.016,0.352-7.063
			c-1.589-1.755-4.135-2.11-6.121-1.012v-12.93l7.875,7.129c-0.225,1.439,0.156,2.962,1.21,4.127
			c0.987,1.09,2.345,1.645,3.708,1.645c0.424,0,0.844-0.073,1.258-0.181l12.469,11.288L162.078,154.438z M162.514,96.976
			l2.366,2.142c0.957,0.865,2.157,1.293,3.354,1.293c1.363,0,2.721-0.555,3.708-1.645c1.853-2.048,1.696-5.209-0.352-7.063
			l-1.626-1.473l12.035-10.894l12.035,10.894l-1.625,1.473c-2.047,1.854-2.205,5.015-0.352,7.063
			c0.987,1.09,2.345,1.645,3.708,1.645c1.197,0,2.397-0.428,3.354-1.293l2.365-2.142l12.035,10.894l-12.035,10.895l-2.365-2.141
			c-2.047-1.853-5.21-1.696-7.063,0.352c-1.853,2.048-1.696,5.21,0.352,7.063l1.625,1.472l-12.035,10.896l-12.035-10.896
			l1.626-1.472c2.047-1.854,2.205-5.016,0.352-7.063c-1.855-2.048-5.015-2.205-7.063-0.352l-2.366,2.142l-12.035-10.895
			L162.514,96.976z M171.942,46.419c-1.855-2.048-5.015-2.204-7.063-0.352l-2.365,2.142l-6.512-5.895h18.022
			c0.213,0.505,0.493,0.99,0.882,1.42c0.987,1.09,2.345,1.645,3.708,1.645c1.196,0,2.397-0.428,3.354-1.293l0.03-0.027l0.031,0.027
			c0.957,0.867,2.157,1.293,3.354,1.293c1.363,0,2.721-0.554,3.708-1.645c0.389-0.43,0.669-0.914,0.882-1.42h18.022l-6.512,5.895
			l-2.365-2.141c-2.047-1.853-5.21-1.697-7.063,0.352c-1.853,2.047-1.696,5.209,0.352,7.063l1.625,1.471l-12.035,10.895
			l-12.035-10.895l1.626-1.472C173.637,51.628,173.795,48.467,171.942,46.419z M215.971,61.515
			c-1.985-1.099-4.532-0.744-6.121,1.011c-1.853,2.048-1.696,5.209,0.352,7.063l3.318,3.004l-3.318,3.004
			c-2.047,1.854-2.205,5.016-0.352,7.063c0.987,1.091,2.345,1.644,3.708,1.644c0.832,0,1.66-0.22,2.412-0.637V96.6l-7.876-7.129
			c0.225-1.441-0.156-2.963-1.21-4.127c-1.294-1.43-3.22-1.915-4.964-1.463L189.45,72.592l12.469-11.287
			c0.414,0.107,0.835,0.182,1.258,0.182c1.363,0,2.722-0.555,3.708-1.645c1.054-1.166,1.436-2.688,1.211-4.129l7.875-7.129V61.515z
			 M203.611,10h8.795v15.088c0,0.475,0.067,0.945,0.2,1.4l1.699,5.826h-10.694V10z M186.46,10h7.15v22.314h-7.15V10z M169.31,10
			h7.15v22.314h-7.15V10z M151.396,26.488c0.133-0.454,0.2-0.926,0.2-1.4V10h7.714v22.314h-9.614L151.396,26.488z M155.904,55.713
			c-0.225,1.441,0.156,2.963,1.21,4.128c0.987,1.091,2.345,1.644,3.708,1.644c0.424,0,0.844-0.073,1.257-0.181l12.469,11.287
			l-12.471,11.289c-1.744-0.453-3.67,0.033-4.963,1.463c-1.054,1.164-1.435,2.687-1.211,4.126l-7.875,7.13V83.666
			c0.752,0.417,1.581,0.637,2.412,0.637c1.363,0,2.721-0.554,3.708-1.644c1.853-2.047,1.696-5.209-0.352-7.063l-3.318-3.004
			l3.318-3.004c2.047-1.854,2.205-5.015,0.352-7.063c-1.589-1.754-4.135-2.109-6.121-1.011V48.584L155.904,55.713z M92.818,359.251
			c-16.716-0.347-30.033-14.228-29.687-30.945c0.117-5.62,2.083-10.515,5.142-15.732c9.236,3.372,34.366,14.608,44.4,39.814
			C107.144,356.953,100.188,359.419,92.818,359.251z M205.555,256.597c-11.82,4.607-22.42,16.798-22.82,17.262l-62.61,70.61
			c-11.497-24.151-34.322-35.808-45.825-40.342l62.061-80.59c1.08-1.371,9.984-13.541,11.457-42.701l14.697-13.305l2.366,2.142
			c0.957,0.866,2.157,1.293,3.354,1.293c1.363,0,2.721-0.554,3.709-1.645c1.853-2.048,1.696-5.209-0.352-7.063l-1.626-1.472
			l12.035-10.895l12.035,10.895l-1.625,1.471c-2.047,1.854-2.205,5.016-0.352,7.063c0.987,1.091,2.345,1.645,3.708,1.645
			c1.197,0,2.397-0.426,3.354-1.293l2.365-2.141l14.486,13.113v11.861c0,0.566,0.096,1.129,0.285,1.662
			c0.665,1.885,1.44,3.915,2.262,6.065c5.032,13.168,8.931,25.366,7.119,35.513l-24.19-12.59c-2.45-1.274-5.469-0.323-6.744,2.126
			c-1.275,2.45-0.323,5.469,2.126,6.744l25.011,13.017C218.643,249.617,213.443,253.522,205.555,256.597z"/>
		<path d="M182.03,171.654l-0.031,0.027l-0.03-0.027c-2.047-1.854-5.209-1.696-7.062,0.352c-1.853,2.047-1.696,5.209,0.351,7.063
			l3.386,3.064c0.957,0.867,2.157,1.293,3.354,1.293l0.001-0.004l0.001,0.004c1.197,0,2.397-0.427,3.354-1.293l3.386-3.065
			c2.047-1.853,2.205-5.015,0.351-7.062C187.239,169.958,184.076,169.801,182.03,171.654z"/>
		<path d="M174.907,114.29c0.987,1.091,2.345,1.645,3.708,1.645c1.196,0,2.397-0.427,3.354-1.294l0.03-0.027l0.031,0.028
			c0.957,0.866,2.157,1.294,3.354,1.294c1.363,0,2.721-0.555,3.708-1.645c1.656-1.829,1.696-4.541,0.228-6.422
			c1.467-1.88,1.427-4.592-0.228-6.42c-1.854-2.048-5.015-2.203-7.063-0.352l-0.03,0.027l-0.03-0.027
			c-2.048-1.853-5.209-1.696-7.063,0.352c-1.655,1.829-1.695,4.54-0.228,6.42C173.211,109.75,173.251,112.462,174.907,114.29z"/>
	</g>
</g>
<g>
</g>
<g>
</g>
<g>
</g>
<g>
</g>
<g>
</g>
<g>
</g>
<g>
</g>
<g>
</g>
<g>
</g>
<g>
</g>
<g>
</g>
<g>
</g>
<g>
</g>
<g>
</g>
<g>
</g>
</svg>
