<?xml version="1.0" encoding="iso-8859-1"?>
<!-- Generator: Adobe Illustrator 18.0.0, SVG Export Plug-In . SVG Version: 6.00 Build 0)  -->
<!DOCTYPE svg PUBLIC "-//W3C//DTD SVG 1.1//EN" "http://www.w3.org/Graphics/SVG/1.1/DTD/svg11.dtd">
<svg version="1.1" id="Capa_1" xmlns="http://www.w3.org/2000/svg" xmlns:xlink="http://www.w3.org/1999/xlink" x="0px" y="0px"
	 viewBox="0 0 415.051 415.051" style="enable-background:new 0 0 415.051 415.051;" xml:space="preserve">
<path d="M332.28,78.095c-4.428-48.41-30.475-75.471-31.582-76.599c-1.909-1.949-5.021-1.993-6.995-0.129l-0.006-0.006
	c-0.229,0.213-23.643,21.355-86.172,21.355c-62.38,0-85.832-21.042-86.17-21.354c-1.979-1.871-5.092-1.804-6.998,0.139l-0.004-0.004
	c-1.106,1.128-27.151,28.189-31.58,76.599c-0.109,1.186,0.21,2.371,0.896,3.343c0.745,1.053,17.82,24.75,45.955,29.612
	c1.163,7.962,4.954,26.212,16.454,42.131c-12.181,11.714-39.457,58.291-39.788,240.516c-0.003,1.654,0.812,3.203,2.176,4.137
	c1.028,0.703,26.004,17.217,99.06,17.218l0,0l0,0c0.001,0,0.001,0,0.002,0l0,0c73.055-0.001,98.032-16.515,99.059-17.218
	c1.365-0.934,2.18-2.482,2.177-4.137c-0.332-182.225-27.608-228.802-39.79-240.516c11.5-15.918,15.292-34.169,16.456-42.13
	c28.134-4.861,45.209-28.559,45.953-29.612C332.07,80.466,332.388,79.281,332.28,78.095z M151.555,26.089
	c13.969,3.758,32.356,6.627,55.97,6.627l0,0c0.001,0,0.001,0,0.002,0c23.612,0,42-2.869,55.969-6.627
	c4.713,4.652,10.813,11.736,10.479,30.537c-4.57,3.025-21.728,11.82-66.449,11.82c-44.351,0-61.73-8.785-66.45-11.859
	C140.75,37.815,146.845,30.738,151.555,26.089z M130.797,101.114c-20.103-3.726-34.011-19.268-37.876-24.047
	c3.636-34.362,19.203-57.062,25.703-65.208c4.076,2.819,11.287,7.036,22.318,10.943c-5.903,7.016-12.04,19.013-9.14,44.754
	C133.852,85.745,132.087,96.312,130.797,101.114z M279.289,195.734c8.695,28.779,19.087,85.937,19.466,195.07
	c-7.186,3.656-33.028,14.247-91.23,14.247c-57.729,0-83.962-10.645-91.229-14.275c0.38-109.118,10.771-166.265,19.465-195.041
	c8.227-27.228,16.47-34.902,18.75-36.587h3.59c-4.081,7.322-8.778,20.008-11.217,41.472c-0.312,2.744,1.66,5.221,4.404,5.533
	c0.192,0.021,0.382,0.032,0.571,0.032c2.509,0,4.672-1.884,4.962-4.436c3.305-29.09,10.761-39.703,13.365-42.601h74.68
	c2.603,2.898,10.06,13.51,13.363,42.6c0.289,2.552,2.452,4.437,4.962,4.437c0.188,0,0.379-0.011,0.57-0.032
	c2.743-0.311,4.715-2.788,4.403-5.532c-2.438-21.464-7.134-34.15-11.214-41.472h3.588
	C262.82,160.833,271.063,168.507,279.289,195.734z M259.509,149.148h-3.214c2.656-4.988,5.208-11.962,5.208-20.384
	c0-2.761-2.238-5-5-5c-2.762,0-5,2.239-5,5c0,9.889-4.718,17.331-7.027,20.384h-73.919c-2.317-3.028-7.009-10.392-7.009-20.384
	c0-2.761-2.239-5-5-5c-2.761,0-5,2.239-5,5c0,8.422,2.552,15.395,5.208,20.384h-3.214c-12.581-16.202-15.698-36.616-16.299-41.694
	c1.626-4.056,5.06-15.822,2.706-39.031c10.089,4.542,29.694,10.023,65.576,10.024l0,0c0.001,0,0.001,0,0.002,0
	c35.892-0.001,55.489-5.483,65.574-10.026c-2.354,23.219,1.084,34.986,2.71,39.038C275.221,112.527,272.144,132.885,259.509,149.148
	z M284.26,101.113c-1.302-4.835-3.06-15.398-1.013-33.557c2.9-25.742-3.237-37.738-9.141-44.753
	c11.043-3.911,18.257-8.131,22.33-10.951c6.5,8.107,22.047,30.71,25.692,65.215C318.258,81.855,304.353,97.387,284.26,101.113z"/>
<g>
</g>
<g>
</g>
<g>
</g>
<g>
</g>
<g>
</g>
<g>
</g>
<g>
</g>
<g>
</g>
<g>
</g>
<g>
</g>
<g>
</g>
<g>
</g>
<g>
</g>
<g>
</g>
<g>
</g>
</svg>
