<?xml version="1.0" encoding="iso-8859-1"?>
<!-- Generator: Adobe Illustrator 18.0.0, SVG Export Plug-In . SVG Version: 6.00 Build 0)  -->
<!DOCTYPE svg PUBLIC "-//W3C//DTD SVG 1.1//EN" "http://www.w3.org/Graphics/SVG/1.1/DTD/svg11.dtd">
<svg version="1.1" id="Capa_1" xmlns="http://www.w3.org/2000/svg" xmlns:xlink="http://www.w3.org/1999/xlink" x="0px" y="0px"
	 viewBox="0 0 378.306 378.306" style="enable-background:new 0 0 378.306 378.306;" xml:space="preserve">
<path d="M322.081,341.513c-18.194-46.064-54.592-103.256-61.14-113.393l9.558-70.959c16.423-17.821,12.818-44.535,11.321-52.329
	l8.7-13.693c0.354-0.559,0.595-1.181,0.707-1.832l11.354-65.849c0.444-2.577-1.172-5.062-3.708-5.699
	c-22.446-5.641-45.623-17.117-45.854-17.232c-2.458-1.224-5.445-0.237-6.688,2.213c-12.599,24.824-56.582,23.814-57.026,23.797
	c-0.057-0.002-0.11,0.012-0.167,0.012c-0.047-0.001-0.091-0.013-0.138-0.012c-0.442,0.012-44.427,1.027-57.026-23.797
	c-1.243-2.45-4.231-3.438-6.688-2.213c-0.231,0.115-23.373,11.583-45.853,17.232c-2.536,0.638-4.153,3.122-3.709,5.699
	l11.353,65.849c0.112,0.651,0.353,1.273,0.707,1.832l8.723,13.729c-1.385,7.78-4.746,34.811,11.299,52.29l9.558,70.962
	c-6.547,10.138-42.945,67.33-61.14,113.393c-0.593,1.501-0.425,3.196,0.452,4.552c1.098,1.698,10.856,15.188,43.508,15.188
	c1.547,0,3.156-0.037,4.809-0.101c-0.544,2.22-1.079,4.37-1.603,6.433c-0.647,2.548,0.79,5.162,3.289,5.981
	c0.871,0.286,14.74,4.74,31.276,4.74c8.648-0.001,18.028-1.22,26.655-4.891c1.87-0.796,3.057-2.642,3.032-4.662h43.021
	c-0.025,2.021,1.162,3.866,3.032,4.662c8.628,3.672,18.006,4.891,26.655,4.891c16.534,0,30.404-4.454,31.276-4.74
	c2.499-0.819,3.936-3.434,3.289-5.981c-0.523-2.062-1.059-4.211-1.603-6.431c1.654,0.065,3.261,0.099,4.81,0.099
	c32.647-0.001,42.41-13.489,43.508-15.188C322.506,344.709,322.674,343.014,322.081,341.513z M116.08,151.342
	c-11.805-11.805-11.376-31.111-10.292-40.645l6.013,2.239c0.575,0.214,1.165,0.315,1.745,0.315c2.028,0,3.937-1.243,4.686-3.256
	c0.964-2.588-0.353-5.467-2.94-6.431l-10.171-3.788L96.761,86.62L86.356,26.263c16.349-4.585,31.932-11.412,39.182-14.777
	c17.299,25.695,60.214,25.139,63.62,25.049c3.465,0.087,46.326,0.626,63.611-25.049c7.25,3.365,22.833,10.192,39.183,14.777
	L281.544,86.62l-8.359,13.156l-10.17,3.788c-2.588,0.964-3.904,3.843-2.94,6.431c0.75,2.013,2.658,3.256,4.686,3.256
	c0.58,0,1.17-0.102,1.745-0.315l6.104-2.274c1.197,9.387,1.794,28.503-10.383,40.681c-0.774,0.774-1.273,1.782-1.419,2.868
	l-9.439,70.078h-3.988v-54.652c0-2.762-2.239-5-5-5c-2.761,0-5,2.238-5,5v54.652h-48.227h-48.228v-54.652c0-2.762-2.239-5-5-5
	c-2.761,0-5,2.238-5,5v54.652h-3.987l-9.439-70.078C117.353,153.124,116.854,152.116,116.08,151.342z M66.702,342.254
	c17.803-43.677,51.212-96.513,58.583-107.966h5.64v6.164c-1.188,6.021-13.294,67.158-23.502,110.566
	C81.907,352.55,70.595,345.598,66.702,342.254z M220.812,365.429l4.429-97.98c0.125-2.759-2.011-5.096-4.77-5.221
	c-2.756-0.122-5.096,2.011-5.221,4.77l-4.148,91.756h-43.899l-4.148-91.756c-0.125-2.758-2.472-4.88-5.221-4.77
	c-2.759,0.125-4.894,2.462-4.77,5.221l4.429,97.979c-15.95,5.354-34.782,1.919-43.22-0.141
	c11.176-45.219,26.399-122.579,26.557-123.383c0.063-0.317,0.094-0.641,0.094-0.964v-6.652h48.228h48.227v6.652
	c0,0.323,0.031,0.646,0.094,0.964c0.158,0.805,15.383,78.172,26.559,123.389C255.604,367.362,236.801,370.805,220.812,365.429z
	 M270.882,351.019c-10.208-43.407-22.314-104.547-23.502-110.566v-6.164h5.641c7.371,11.453,40.78,64.289,58.583,107.966
	C307.712,345.597,296.4,352.55,270.882,351.019z"/>
<g>
</g>
<g>
</g>
<g>
</g>
<g>
</g>
<g>
</g>
<g>
</g>
<g>
</g>
<g>
</g>
<g>
</g>
<g>
</g>
<g>
</g>
<g>
</g>
<g>
</g>
<g>
</g>
<g>
</g>
</svg>
