<?xml version="1.0" encoding="iso-8859-1"?>
<!-- Generator: Adobe Illustrator 18.0.0, SVG Export Plug-In . SVG Version: 6.00 Build 0)  -->
<!DOCTYPE svg PUBLIC "-//W3C//DTD SVG 1.1//EN" "http://www.w3.org/Graphics/SVG/1.1/DTD/svg11.dtd">
<svg version="1.1" id="Capa_1" xmlns="http://www.w3.org/2000/svg" xmlns:xlink="http://www.w3.org/1999/xlink" x="0px" y="0px"
	 viewBox="0 0 403.155 403.155" style="enable-background:new 0 0 403.155 403.155;" xml:space="preserve">
<g>
	<g>
		<g>
			<path d="M121.034,79.91h-12.266c-2.762,0-5-2.239-5-5c0-2.761,2.238-5,5-5h12.266c2.762,0,5,2.239,5,5
				C126.034,77.671,123.796,79.91,121.034,79.91z"/>
		</g>
		<path d="M378.068,375.478l-5.921-17.32c-0.892-2.607-3.728-4.002-6.333-3.119c-1.132,0.383-2.257,0.755-3.38,1.124
			c-5.73-30.44-21.869-46.658-46.931-46.996c-1.763-0.024-3.538-0.033-5.343-0.043c-13.768-0.07-29.35-0.227-53.819-7.316
			c-55.595-16.105-58.453-82.109-58.47-82.263c-1.622-14.901,4.578-146.705,7.654-214.317c0.062-1.364-0.436-2.694-1.38-3.681
			C203.203,0.559,201.896,0,200.531,0H29.847c-2.747,0-4.979,2.216-5,4.963c-0.041,5.609-0.878,138.029,10.203,195.65
			c4.704,24.465,10.021,39.827,13.902,51.045c5.27,15.228,7.45,21.53,2.731,33.393c-14.22,35.745-9.298,61.289-5.46,72.74
			c-1.469,0.871-2.463,2.456-2.463,4.286v35.511c0,2.762,2.238,5,5,5h20.514c2.762,0,5-2.238,5-5v-5.977h5.05l8.147,9.276
			c0.949,1.081,2.318,1.7,3.757,1.7h14.106c2.762,0,5-2.238,5-5v-5.977h5.049l8.147,9.275c0.988,1.126,2.37,1.701,3.759,1.701
			c0.008,0,0.016-0.002,0.023-0.002c0.008,0,0.014,0.002,0.021,0.002h16.746c2.762,0,5-2.238,5-5c0-4.232,1.241-5.723,2.174-6.475
			c1.577-1.27,5.924-3.029,17.318-0.543c5.492,1.197,55.53,11.026,59.8,11.034c0.003,0,0.006,0,0.009,0
			c1.735,0,3.347-0.899,4.257-2.378l0.952-1.545l12.333,1.077c0.132,1.083,0.615,2.101,1.39,2.893
			c0.942,0.964,2.231,1.504,3.574,1.504c0.061,0,0.121-0.001,0.182-0.003c4.25-0.154,16.406,0.001,16.528,0.002
			c0.022,0.001,0.044,0.001,0.065,0.001c1.727,0,3.335-0.892,4.248-2.362l1.567-2.525c3.302-0.193,8.813-0.52,12.038-0.725
			l2.133,2.188c1.063,1.088,2.561,1.633,4.077,1.482c5.732-0.574,9.847-1.107,14.627-1.781c1.654-0.233,3.082-1.277,3.807-2.781
			l1.215-2.522l14.109-2.503c0.343,1.103,1.06,2.06,2.037,2.699c1.116,0.731,2.477,0.983,3.783,0.706
			c28.284-6.048,43.52-13.11,44.155-13.409C377.769,380.539,378.893,377.891,378.068,375.478z M253.529,311.404
			c25.715,7.847,42.152,7.646,56.58,7.719c1.776,0.01,3.524,0.018,5.26,0.041c20.247,0.275,32.829,13.742,37.452,40.03
			c-79.17,23.909-132.934,13.742-153.025,7.982c-34.811-9.984-54.878-10.099-55.715-10.099h-15.444
			c4.982-3.828,10.716-8.832,16.334-15.077c19.566-21.755,28.174-48.125,24.893-76.262c-2.936-25.149,11.039-35.493,19.248-39.351
			C191.03,247.661,204.122,296.327,253.529,311.404z M34.829,10h160.472c-0.111,2.486-0.257,5.755-0.43,9.677H34.837
			C34.825,15.714,34.825,12.436,34.829,10z M35.349,63.582h15.665v22.657H35.917C35.682,78.423,35.495,70.813,35.349,63.582z
			 M60.974,288.748c6.094-15.316,2.832-24.743-2.572-40.36c-3.783-10.932-8.964-25.903-13.532-49.663
			c-4.793-24.923-7.311-65.139-8.626-102.485h99.366c11.761,0,21.329-9.568,21.329-21.328c0-11.761-9.568-21.329-21.329-21.329
			H35.167c-0.144-8.878-0.229-16.979-0.278-23.905h159.545c-2.167,49.885-6.674,158.859-5.945,186.214
			c-9.636,3.684-32.618,16.212-28.559,51.008c2.969,25.443-4.488,48.375-22.164,68.157c-11.394,12.751-23.62,20.066-27.124,22.021
			H56.602C53.573,349.426,46.535,325.044,60.974,288.748z M61.014,86.239V63.582h23.636v22.657H61.014z M94.649,86.239V63.582
			h40.961c6.247,0,11.329,5.082,11.329,11.329c0,6.247-5.082,11.328-11.329,11.328H94.649z M334.091,384.168
			c-0.808-2.262-3.138-3.676-5.582-3.236l-21.402,3.798c-1.582,0.28-2.934,1.306-3.631,2.753l-1.162,2.414
			c-2.952,0.401-5.807,0.758-9.194,1.119l-2.059-2.109c-1.047-1.074-2.522-1.623-4.016-1.49c-1.155,0.102-10.642,0.666-16.736,1.02
			c-1.624,0.096-3.1,0.973-3.958,2.355l-1.449,2.335c-2.361-0.023-5.821-0.05-8.904-0.04c-0.469-2.067-2.227-3.679-4.442-3.872
			l-20.168-1.762c-1.882-0.164-3.699,0.749-4.691,2.359l-0.884,1.434c-10.663-1.68-46.741-8.621-55.107-10.445
			c-11.959-2.605-20.373-1.781-25.722,2.527c-2.806,2.26-4.62,5.363-5.424,9.262h-10.008l-8.147-9.275
			c-0.949-1.082-2.318-1.701-3.757-1.701h-12.313c-2.762,0-5,2.238-5,5v5.977h-6.844l-8.147-9.276c-0.949-1.081-2.318-1.7-3.757-1.7
			H69.274c-2.762,0-5,2.238-5,5v5.977H53.761v-25.511h90.313c0.193,0.001,19.668,0.161,52.966,9.71
			c21.682,6.219,80.863,17.4,167.247-10.707l2.805,8.202C361.487,376.477,350.279,380.435,334.091,384.168z"/>
	</g>
</g>
<g>
</g>
<g>
</g>
<g>
</g>
<g>
</g>
<g>
</g>
<g>
</g>
<g>
</g>
<g>
</g>
<g>
</g>
<g>
</g>
<g>
</g>
<g>
</g>
<g>
</g>
<g>
</g>
<g>
</g>
</svg>
