<?xml version="1.0" encoding="iso-8859-1"?>
<!-- Generator: Adobe Illustrator 18.0.0, SVG Export Plug-In . SVG Version: 6.00 Build 0)  -->
<!DOCTYPE svg PUBLIC "-//W3C//DTD SVG 1.1//EN" "http://www.w3.org/Graphics/SVG/1.1/DTD/svg11.dtd">
<svg version="1.1" id="Capa_1" xmlns="http://www.w3.org/2000/svg" xmlns:xlink="http://www.w3.org/1999/xlink" x="0px" y="0px"
	 viewBox="0 0 428.218 428.218" style="enable-background:new 0 0 428.218 428.218;" xml:space="preserve">
<g>
	<path d="M425.548,250.627c-12.814-21.002-46.897-33.038-80.654-44.214c-15.859-5.251-30.84-10.211-41.72-15.756
		c-33.374-17.013-67.716-33.249-68.059-33.412c-2.497-1.18-5.477-0.111-6.657,2.385c-0.024,0.052-0.034,0.106-0.056,0.158
		l-0.013-0.005l-17.252,39.932c-111.84-13.387-170.712-32.936-181.161-36.637l-10.283-19c-1.315-2.429-4.349-3.33-6.777-2.018
		c-2.429,1.314-3.332,4.349-2.018,6.777l10.265,18.966c-1.702,6.824-7.905,31.293-14.638,52.987
		c-4.843,15.601-5.19,32.376-5.208,35.907c-0.636,2.713-2.647,12.738,0.05,21.274c0.643,2.036,2.509,3.44,4.643,3.492l161.604,4.004
		c3.528,0.113,41.257,1.289,87.498,1.289c61.39,0,137.776-2.072,168.976-11.451c1.809-0.543,3.157-2.061,3.484-3.92
		C427.655,270.931,429.883,257.732,425.548,250.627z M235.514,168.508c10.503,5.011,37.108,17.799,63.119,31.059
		c11.556,5.891,26.887,10.966,43.118,16.34c27.118,8.978,57.459,19.024,70.909,33.887c-78.146,12.849-215.478,7.441-215.478,7.441
		L235.514,168.508z M16.077,223.757c5.933-19.118,11.458-40.36,13.919-50.07c16.857,5.727,73.717,23.05,177.006,35.604
		l-20.592,47.666l-174.963-4.521C11.748,246.087,12.751,234.472,16.077,223.757z M418.042,266.614
		c-57.401,14.859-248.147,8.924-250.141,8.859l-157.716-3.908c-0.408-3.28-0.127-6.661,0.235-9.154l187.222,4.84
		c98.539,1.81,156.792,1.946,220.044-8.215C418.169,261.819,418.166,264.598,418.042,266.614z"/>
</g>
<g>
</g>
<g>
</g>
<g>
</g>
<g>
</g>
<g>
</g>
<g>
</g>
<g>
</g>
<g>
</g>
<g>
</g>
<g>
</g>
<g>
</g>
<g>
</g>
<g>
</g>
<g>
</g>
<g>
</g>
</svg>
