<?xml version="1.0" encoding="iso-8859-1"?>
<!-- Generator: Adobe Illustrator 18.0.0, SVG Export Plug-In . SVG Version: 6.00 Build 0)  -->
<!DOCTYPE svg PUBLIC "-//W3C//DTD SVG 1.1//EN" "http://www.w3.org/Graphics/SVG/1.1/DTD/svg11.dtd">
<svg version="1.1" id="Capa_1" xmlns="http://www.w3.org/2000/svg" xmlns:xlink="http://www.w3.org/1999/xlink" x="0px" y="0px"
	 viewBox="0 0 429.62 429.62" style="enable-background:new 0 0 429.62 429.62;" xml:space="preserve">
<g>
	<path d="M425.891,232.242c-0.531-3.008-3.604-4.232-7.379-5.736c-2.672-1.063-93.146-31.227-96.564-32.316
		c-5.838-3.076-74.215-39.036-105.07-52.594c-8.828-3.879-16.545-5.765-23.594-5.765c-18.031,0-27.371,12.818-34.189,22.179
		c-4.273,5.866-13.734,8.84-28.121,8.84c-41.266,0-105.781-25.079-106.43-25.333c-1.994-0.781-4.129-0.069-5.654,1.443
		c-6.105,6.054-12.109,24.952-12.115,25.297c-7.814,28.18-5.879,63.266-5.51,68.822c-0.805,4.371-4.344,27.115,5.668,43.863
		c0.904,1.51,2.533,2.434,4.293,2.434c0.008,0,0.016,0,0.023,0c1.184-0.006,118.564-0.535,144.439,2.148
		c58.566,6.074,105.25,8.268,142.135,8.266c92.826,0,123.566-13.885,125.293-14.705c1.041-0.494,1.881-1.332,2.375-2.373
		C425.857,275.935,434.332,257.548,425.891,232.242z M412.18,234.755c-7.934,3.162-30.023,8.459-90.758,11.008
		c-11.51,0.482-25.523,0.738-40.529,0.738c-16.547,0-50.439-0.352-84.041-2.805c0.279-4.594,1.662-12.363,7.393-18.148
		c6.451-6.514,16.949-9.17,31.207-7.883c49.5,4.451,76.699,0.471,86.766-12.895C352.523,214.458,396.227,228.761,412.18,234.755z
		 M24.441,152.179c14.408,5.391,68.596,24.67,106.531,24.67c17.762,0,29.943-4.357,36.203-12.953
		c7.707-10.579,14.092-18.042,26.107-18.066c10.274-0.021,21.908,5.957,23.148,6.517c-6.256,3.984-10.088,9.658-10.348,10.05
		c-1.52,2.298-0.891,5.386,1.402,6.914c0.852,0.566,1.813,0.836,2.764,0.836c1.613,0,3.199-0.779,4.166-2.219
		c0.068-0.105,6.877-10.112,15.205-9.417c4.156,1.989,8.547,4.127,13.064,6.353c-6.58,4.076-10.166,10.176-10.396,10.578
		c-1.373,2.385-0.553,5.42,1.826,6.805c0.787,0.459,1.65,0.676,2.502,0.676c1.719,0,3.395-0.887,4.328-2.475
		c0.057-0.098,5.693-9.492,14.58-9.199c4.478,2.246,8.975,4.52,13.389,6.764c-8.563,4.387-12.217,11.438-12.428,11.855
		c-1.24,2.469-0.246,5.473,2.223,6.713c0.721,0.363,1.486,0.533,2.24,0.533c1.83,0,3.594-1.008,4.473-2.756
		c0.045-0.09,4.604-8.826,16.48-9.709c13.127,6.742,24.406,12.629,30.625,15.889c-7.266,6.449-26.977,11.593-76.18,7.167
		c-17.428-1.57-30.65,2.098-39.297,10.896c-7.817,7.953-9.777,18.072-10.18,24.301c-11.715-1.014-23.182-2.307-33.631-3.957
		c-11.764-1.858-36.479-3.262-62.342-4.285c-1.533-22.002-15.092-41.107-39.451-55.461c-13.145-7.744-26.158-12.219-33.207-14.303
		C19.918,160.156,21.955,155.821,24.441,152.179z M11.043,232.46c-0.426-10.316-0.83-36.266,4.373-57.955
		c15.221,4.549,61.91,21.561,65.42,59.777C51.297,233.23,22.24,232.658,11.043,232.46z M417.103,270.728
		c-11.09,4.043-77.039,23.869-260.385,4.85c-24.365-2.527-123.51-2.285-142.518-2.213c-5.156-10.721-4.418-24.264-3.621-30.91
		c21.4,0.387,115.305,2.293,141.1,6.367c43.871,6.932,104.977,7.68,129.213,7.68c15.143,0,29.303-0.258,40.949-0.746
		c63.063-2.646,86.994-8.303,96.555-12.851C421.135,256.495,418.439,266.828,417.103,270.728z"/>
</g>
<g>
</g>
<g>
</g>
<g>
</g>
<g>
</g>
<g>
</g>
<g>
</g>
<g>
</g>
<g>
</g>
<g>
</g>
<g>
</g>
<g>
</g>
<g>
</g>
<g>
</g>
<g>
</g>
<g>
</g>
</svg>
