<?xml version="1.0" encoding="iso-8859-1"?>
<!-- Generator: Adobe Illustrator 18.0.0, SVG Export Plug-In . SVG Version: 6.00 Build 0)  -->
<!DOCTYPE svg PUBLIC "-//W3C//DTD SVG 1.1//EN" "http://www.w3.org/Graphics/SVG/1.1/DTD/svg11.dtd">
<svg version="1.1" id="Capa_1" xmlns="http://www.w3.org/2000/svg" xmlns:xlink="http://www.w3.org/1999/xlink" x="0px" y="0px"
	 viewBox="0 0 423.132 423.132" style="enable-background:new 0 0 423.132 423.132;" xml:space="preserve">
<path d="M300.646,363.726V101.21c0-41.278-14.044-66.532-17.812-72.563V5c0-2.762-2.239-5-5-5H145.298c-2.761,0-5,2.238-5,5v23.645
	c-3.779,6.055-17.812,31.316-17.812,72.565v262.516c-5.631,6.911-11.238,20.675,0.094,33.418v9.457
	c0,9.115,8.451,16.531,18.838,16.531h30.156c10.388,0,18.839-7.416,18.839-16.531v-8.491c5.423-3.597,11.24-11.958,7.542-26.858
	l13.61-171.258l13.612,171.258c-3.698,14.9,2.119,23.261,7.542,26.858v8.491c0,9.115,8.45,16.531,18.837,16.531h30.158
	c10.387,0,18.837-7.416,18.837-16.531v-9.456C311.883,384.4,306.277,370.637,300.646,363.726z M290.063,87.427
	c-6.473-1.1-9.62-4.75-12.727-13.543c-3.036-8.589-8.904-28.495-11.891-38.757h9.615C278.505,41.03,287.674,59.102,290.063,87.427z
	 M150.298,10h122.537v15.127h-48.893l-0.288-2.854h1.42c2.762,0,5-2.238,5-5c0-2.762-2.238-5-5-5h-27.017c-2.761,0-5,2.238-5,5
	c0,2.762,2.239,5,5,5h1.419l-0.288,2.854h-48.891V10z M148.083,35.127h9.604c-2.986,10.256-8.855,30.164-11.892,38.757
	c-3.111,8.803-6.244,12.459-12.726,13.558C135.465,59.248,144.641,41.07,148.083,35.127z M171.574,413.132h-30.156
	c-4.791,0-8.838-2.992-8.838-6.531v-6.531h47.833v6.531C180.413,410.14,176.365,413.132,171.574,413.132z M206.565,136.684
	l-18.645,234.61c-0.045,0.568,0.007,1.141,0.155,1.691c3.255,12.137-1.868,16.094-3.69,17.084h-54.702
	c-8.376-10.08,0.346-19.867,1.399-20.98c0.901-0.934,1.404-2.178,1.404-3.475c0,0,0.016-266.84,0.042-268.035
	c11.5-1.236,18.067-7.268,22.696-20.363c3.474-9.83,10.274-33.097,12.878-42.089h30.078l-5.097,50.509
	c-0.277,2.748,1.726,5.199,4.473,5.477c0.171,0.018,4.618,0.426,5.477-4.473l3.533-35.014V136.684z M209.239,25.127l0.288-2.854
	h4.077l0.288,2.854H209.239z M216.565,136.685V51.616L220.1,86.64c0.71,4.834,5.307,4.49,5.477,4.473
	c2.748-0.277,4.75-2.729,4.473-5.477l-5.097-50.509h30.079c2.604,8.991,9.403,32.259,12.877,42.089
	c4.624,13.085,11.21,19.094,22.694,20.334c0.026,1.205,0.044,268.064,0.044,268.064c0,1.295,0.504,2.541,1.404,3.475
	c0.028,0.029,10.118,10.134,1.407,20.98h-54.717c-1.761-0.957-6.952-4.902-3.684-17.084c0.148-0.551,0.2-1.123,0.155-1.691
	L216.565,136.685z M281.715,413.132h-30.158c-4.79,0-8.837-2.992-8.837-6.531v-6.531h47.832v6.531
	C290.552,410.14,286.505,413.132,281.715,413.132z"/>
<g>
</g>
<g>
</g>
<g>
</g>
<g>
</g>
<g>
</g>
<g>
</g>
<g>
</g>
<g>
</g>
<g>
</g>
<g>
</g>
<g>
</g>
<g>
</g>
<g>
</g>
<g>
</g>
<g>
</g>
</svg>
