<?xml version="1.0" encoding="iso-8859-1"?>
<!-- Generator: Adobe Illustrator 19.1.0, SVG Export Plug-In . SVG Version: 6.00 Build 0)  -->
<svg version="1.1" id="Capa_1" xmlns="http://www.w3.org/2000/svg" xmlns:xlink="http://www.w3.org/1999/xlink" x="0px" y="0px"
	 viewBox="0 0 402.758 402.758" style="enable-background:new 0 0 402.758 402.758;" xml:space="preserve">
<g>
	<path style="fill:#C4573F;" d="M291.95,348.956c0,14.214-11.564,25.777-25.777,25.777h-129.59
		c-14.213,0-25.775-11.564-25.775-25.777V327.52H93.511v41.205c0,13.252,10.742,24.033,23.943,24.033h167.85
		c13.201,0,23.943-10.781,23.943-24.033V327.52H291.95V348.956z"/>
	<path style="fill:#C7BEA8;" d="M174.435,39.089c0-10.139,2.299-20.442,6.48-27.929c-11.146,3.371-19.289,13.734-19.289,25.967
		v14.819c4.168-1.497,8.441-2.769,12.809-3.794V39.089z"/>
	<path style="fill:#AB9E85;" d="M120.274,77.484h-7.154c-6.797,0-12.324,5.529-12.324,12.324v11.737
		C106.22,92.688,112.78,84.602,120.274,77.484z"/>
	<path style="fill:#AB9E85;" d="M206.356,10h-9.959c-2.691,0-6.16,3.708-8.67,10.088h27.301C212.519,13.708,209.05,10,206.356,10z"
		/>
	<path style="fill:#AB9E85;" d="M301.954,101.532V89.809c0-6.795-5.529-12.324-12.324-12.324h-7.147
		C289.974,84.598,296.53,92.68,301.954,101.532z"/>
	<path style="fill:#C7BEA8;" d="M228.321,48.151c4.367,1.025,8.641,2.297,12.809,3.794V37.127c0-12.232-8.141-22.596-19.287-25.967
		c4.182,7.487,6.479,17.791,6.479,27.929V48.151z"/>
	<path style="fill:#D68E7E;" d="M201.38,55.041c-59.479,0-107.869,48.389-107.869,107.867V317.52h17.297v-26.378h-1.07
		c-2.762,0-5-2.239-5-5V253.76c0-2.762,2.238-5,5-5h183.281c2.762,0,5,2.238,5,5v32.382c0,2.761-2.238,5-5,5h-1.068v26.378h17.297
		V162.908C309.247,103.43,260.858,55.041,201.38,55.041z M293.019,167.908c-2.762,0-5-2.238-5-5
		c0-25.418-11.004-48.315-28.496-64.178v15.188c0,2.761-2.238,5-5,5c-2.762,0-5-2.239-5-5V90.91
		c-13.779-9.243-30.342-14.643-48.143-14.643c-47.775,0-86.643,38.867-86.643,86.641c0,2.762-2.238,5-5,5c-2.762,0-5-2.238-5-5
		c0-53.287,43.353-96.641,96.643-96.641c53.287,0,96.639,43.354,96.639,96.641C298.019,165.67,295.78,167.908,293.019,167.908z"/>
	<rect x="114.737" y="258.76" style="fill:#AB9E85;" width="173.281" height="22.382"/>
	<rect x="184.935" y="311.596" style="fill:#C4573F;" width="32.887" height="11.342"/>
	<path style="fill:#C7BEA8;" d="M120.808,291.142v57.814c0,8.7,7.078,15.777,15.775,15.777h129.59
		c8.699,0,15.777-7.077,15.777-15.777v-57.814h-14.857v20.989c0,2.761-2.238,5-5,5c-2.762,0-5-2.239-5-5v-20.989H120.808z
		 M227.821,327.938c0,2.762-2.238,5-5,5h-42.887c-2.762,0-5-2.238-5-5v-21.342c0-2.762,2.238-5,5-5h42.887c2.762,0,5,2.238,5,5
		V327.938z"/>
	<path style="fill:#3F352F;" d="M222.821,301.596h-42.887c-2.762,0-5,2.238-5,5v21.342c0,2.762,2.238,5,5,5h42.887
		c2.762,0,5-2.238,5-5v-21.342C227.821,303.834,225.583,301.596,222.821,301.596z M217.821,322.938h-32.887v-11.342h32.887V322.938z
		"/>
	<path style="fill:#3F352F;" d="M201.38,66.268c-53.289,0-96.643,43.354-96.643,96.641c0,2.762,2.238,5,5,5c2.762,0,5-2.238,5-5
		c0-47.773,38.867-86.641,86.643-86.641c17.801,0,34.363,5.399,48.143,14.643v23.009c0,2.761,2.238,5,5,5c2.762,0,5-2.239,5-5V98.73
		c17.492,15.862,28.496,38.76,28.496,64.178c0,2.762,2.238,5,5,5c2.762,0,5-2.238,5-5C298.019,109.621,254.667,66.268,201.38,66.268
		z"/>
	<path style="fill:#3F352F;" d="M311.954,89.809c0-12.31-10.016-22.324-22.324-22.324h-19.178
		c-6.041-4.384-12.5-8.223-19.322-11.413V37.127C251.13,16.655,234.474,0,214.003,0h-25.248c-20.473,0-37.129,16.655-37.129,37.127
		v18.945c-6.822,3.19-13.281,7.029-19.318,11.412H113.12c-12.311,0-22.324,10.015-22.324,22.324v32.337
		c-4.701,12.71-7.285,26.438-7.285,40.763v205.816c0,18.766,15.227,34.033,33.943,34.033h167.85
		c18.717,0,33.943-15.268,33.943-34.033V162.908c0-14.333-2.586-28.07-7.293-40.786V89.809z M289.63,77.484
		c6.795,0,12.324,5.529,12.324,12.324v11.724c-5.424-8.853-11.98-16.935-19.471-24.048H289.63z M241.13,37.127v14.818
		c-4.168-1.497-8.441-2.769-12.809-3.794v-9.062c0-10.138-2.297-20.441-6.479-27.929C232.989,14.531,241.13,24.895,241.13,37.127z
		 M196.397,10h9.959c2.693,0,6.162,3.708,8.672,10.088h-27.301C190.237,13.708,193.706,10,196.397,10z M217.649,30.088
		c0.428,2.779,0.672,5.79,0.672,9.001v7.175c-5.535-0.801-11.189-1.223-16.941-1.223c-5.754,0-11.41,0.422-16.945,1.223v-7.175
		c0-3.211,0.246-6.222,0.672-9.001 M161.626,37.127c0-12.232,8.143-22.596,19.289-25.967c-4.182,7.486-6.48,17.79-6.48,27.929v9.063
		c-4.367,1.025-8.641,2.297-12.809,3.794V37.127z M100.796,89.809c0-6.795,5.527-12.324,12.324-12.324h7.154
		c-7.494,7.117-14.055,15.204-19.479,24.062V89.809z M309.247,368.725c0,13.252-10.742,24.033-23.943,24.033h-167.85
		c-13.201,0-23.943-10.781-23.943-24.033V327.52h17.297v21.436c0,14.214,11.562,25.777,25.775,25.777h129.59
		c14.213,0,25.777-11.564,25.777-25.777V327.52h17.297V368.725z M262.093,317.131c2.762,0,5-2.239,5-5v-20.989h14.857v57.814
		c0,8.7-7.078,15.777-15.777,15.777h-129.59c-8.697,0-15.775-7.077-15.775-15.777v-57.814h136.285v20.989
		C257.093,314.892,259.331,317.131,262.093,317.131z M114.737,281.142V258.76h173.281v22.382H114.737z M309.247,317.52H291.95
		v-26.378h1.068c2.762,0,5-2.239,5-5V253.76c0-2.762-2.238-5-5-5H109.737c-2.762,0-5,2.238-5,5v32.382c0,2.761,2.238,5,5,5h1.07
		v26.378H93.511V162.908c0-59.479,48.391-107.867,107.869-107.867s107.867,48.389,107.867,107.867V317.52z"/>
</g>
<g>
</g>
<g>
</g>
<g>
</g>
<g>
</g>
<g>
</g>
<g>
</g>
<g>
</g>
<g>
</g>
<g>
</g>
<g>
</g>
<g>
</g>
<g>
</g>
<g>
</g>
<g>
</g>
<g>
</g>
</svg>
