<?xml version="1.0" encoding="iso-8859-1"?>
<!-- Generator: Adobe Illustrator 19.1.0, SVG Export Plug-In . SVG Version: 6.00 Build 0)  -->
<svg version="1.1" id="Capa_1" xmlns="http://www.w3.org/2000/svg" xmlns:xlink="http://www.w3.org/1999/xlink" x="0px" y="0px"
	 viewBox="0 0 420.875 420.875" style="enable-background:new 0 0 420.875 420.875;" xml:space="preserve">
<g>
	<rect x="24.304" y="255.609" style="fill:#D68E7E;" width="78.062" height="6.797"/>
	<path style="fill:#A9D8C8;" d="M407.698,213.293c-12.078-9.052-50.428-19.674-67.291-23.786
		c-32.613,26.711-98.195,24.785-98.195,24.785c-72.122,0-183.806-36.909-223.425-54.114c-5.156,14.167-18.102,57.246,2.951,85.431
		h85.629c17.529,0,33.809,2.36,52.658,5.094c28.922,4.193,64.916,9.412,124.774,9.412c98.387,0,121.615-30.742,121.838-31.053
		c0.07-0.098,4.738-5.609,4.184-10.897C410.622,216.263,409.6,214.718,407.698,213.293z"/>
	<path style="fill:#3F352F;" d="M413.696,205.291c-17.029-12.765-71.311-25.605-73.611-26.145c-1.799-0.42-3.498,0.363-4.896,1.565
		c-29.137,25.033-92.977,23.58-92.977,23.58c-73.778,0-190.179-39.602-224.061-55.357c-1.217-0.565-2.611-0.618-3.869-0.146
		c-1.256,0.473-2.27,1.431-2.812,2.659c-1.129,2.556-26.969,62.301,2.836,100.895v15.063c0,2.761,2.238,5,5,5h88.062
		c2.762,0,5-2.239,5-5v-11.727c14.885,0.382,28.92,2.411,46.223,4.92c29.24,4.239,65.631,9.516,126.21,9.516
		c100.836,0,127.582-32.086,129.832-35.046c1.084-1.33,7.154-9.223,6.127-18.036C420.217,212.41,417.776,208.349,413.696,205.291z
		 M102.367,262.406H24.304v-6.797h78.062V262.406z M406.637,229.062c-0.223,0.311-23.451,31.053-121.838,31.053
		c-59.858,0-95.853-5.219-124.774-9.412c-18.85-2.733-35.129-5.094-52.658-5.094H21.738c-21.053-28.185-8.107-71.264-2.951-85.431
		c39.619,17.205,151.303,54.114,223.425,54.114c0,0,65.582,1.926,98.195-24.785c16.863,4.112,55.213,14.734,67.291,23.786
		c1.902,1.425,2.924,2.97,3.123,4.871C411.376,223.452,406.708,228.964,406.637,229.062z"/>
</g>
<g>
</g>
<g>
</g>
<g>
</g>
<g>
</g>
<g>
</g>
<g>
</g>
<g>
</g>
<g>
</g>
<g>
</g>
<g>
</g>
<g>
</g>
<g>
</g>
<g>
</g>
<g>
</g>
<g>
</g>
</svg>
