<?xml version="1.0" encoding="iso-8859-1"?>
<!-- Generator: Adobe Illustrator 19.1.0, SVG Export Plug-In . SVG Version: 6.00 Build 0)  -->
<svg version="1.1" id="Capa_1" xmlns="http://www.w3.org/2000/svg" xmlns:xlink="http://www.w3.org/1999/xlink" x="0px" y="0px"
	 viewBox="0 0 448.751 448.751" style="enable-background:new 0 0 448.751 448.751;" xml:space="preserve">
<g>
	<path style="fill:#7E6F83;" d="M10,254.785h148.371v-60.818H10V254.785z M130.395,220.835c0.93-0.931,2.221-1.46,3.541-1.46
		c1.309,0,2.6,0.529,3.529,1.46c0.93,0.93,1.471,2.22,1.471,3.54c0,1.319-0.541,2.609-1.471,3.54c-0.93,0.93-2.221,1.46-3.529,1.46
		c-1.32,0-2.611-0.53-3.541-1.46c-0.93-0.94-1.459-2.221-1.459-3.54C128.936,223.064,129.466,221.774,130.395,220.835z
		 M90.155,220.835c0.931-0.931,2.221-1.46,3.541-1.46c1.31,0,2.6,0.529,3.529,1.46c0.93,0.93,1.471,2.22,1.471,3.54
		c0,1.319-0.541,2.609-1.471,3.54c-0.93,0.93-2.22,1.46-3.529,1.46c-1.32,0-2.61-0.53-3.541-1.46
		c-0.93-0.931-1.459-2.221-1.459-3.54C88.696,223.054,89.226,221.764,90.155,220.835z M49.916,220.835
		c0.93-0.931,2.22-1.46,3.54-1.46c1.309,0,2.6,0.529,3.529,1.46c0.931,0.93,1.471,2.22,1.471,3.54c0,1.319-0.54,2.609-1.471,3.54
		c-0.93,0.93-2.22,1.46-3.529,1.46c-1.32,0-2.61-0.53-3.54-1.46c-0.931-0.931-1.46-2.221-1.46-3.54
		C48.456,223.054,48.985,221.764,49.916,220.835z"/>
	<path style="fill:#7E6F83;" d="M252.6,219.376h10.05V206.8h-76.548v35.15h76.548v-12.575H252.6c-2.761,0-5-2.238-5-5
		S249.839,219.376,252.6,219.376z M215.936,227.915c-0.931,0.93-2.221,1.46-3.531,1.46c-1.319,0-2.609-0.53-3.539-1.46
		c-0.93-0.94-1.461-2.221-1.461-3.54c0-1.311,0.531-2.601,1.461-3.54c0.93-0.931,2.22-1.46,3.539-1.46
		c1.311,0,2.601,0.529,3.531,1.46c0.93,0.93,1.469,2.22,1.469,3.54C217.405,225.694,216.866,226.984,215.936,227.915z"/>
	<path style="fill:#A9D8C8;" d="M168.371,264.271h112.008v-34.895h-7.729v17.575c0,2.762-2.238,5-5,5h-86.548c-2.761,0-5-2.238-5-5
		V201.8c0-2.762,2.239-5,5-5h86.548c2.762,0,5,2.238,5,5v17.575h7.729V184.48H168.371V264.271z"/>
	<rect x="290.379" y="193.966" style="fill:#7E6F83;" width="19.377" height="60.818"/>
	<path style="fill:#7E6F83;" d="M417.101,224.376c0,12.118-4.045,22.999-10.432,30.409h32.082v-60.818h-32.074
		C413.061,201.377,417.101,212.26,417.101,224.376z"/>
	<path style="fill:#7E6F83;" d="M386.657,193.966h-36.249v60.818h36.249c11.082,0,20.443-13.926,20.443-30.409
		S397.739,193.966,386.657,193.966z M361.655,227.915c-0.93,0.93-2.219,1.46-3.529,1.46c-1.32,0-2.61-0.53-3.54-1.46
		c-0.931-0.931-1.47-2.221-1.47-3.54c0-1.311,0.539-2.601,1.47-3.54c0.93-0.931,2.22-1.46,3.54-1.46c1.31,0,2.6,0.529,3.529,1.46
		c0.931,0.939,1.471,2.229,1.471,3.54C363.126,225.694,362.586,226.984,361.655,227.915z"/>
	<rect x="319.756" y="184.48" style="fill:#D68E7E;" width="20.652" height="79.791"/>
	<path style="fill:#3F352F;" d="M133.936,229.374c1.309,0,2.6-0.53,3.529-1.46c0.93-0.931,1.471-2.221,1.471-3.54
		c0-1.32-0.541-2.61-1.471-3.54c-0.93-0.931-2.221-1.46-3.529-1.46c-1.32,0-2.611,0.529-3.541,1.46
		c-0.93,0.939-1.459,2.229-1.459,3.54c0,1.319,0.529,2.6,1.459,3.54C131.325,228.844,132.616,229.374,133.936,229.374z"/>
	<path style="fill:#3F352F;" d="M93.696,229.374c1.31,0,2.6-0.53,3.529-1.46c0.93-0.931,1.471-2.221,1.471-3.54
		c0-1.32-0.541-2.61-1.471-3.54c-0.93-0.931-2.22-1.46-3.529-1.46c-1.32,0-2.61,0.529-3.541,1.46c-0.93,0.93-1.459,2.22-1.459,3.54
		c0,1.319,0.529,2.609,1.459,3.54C91.086,228.844,92.376,229.374,93.696,229.374z"/>
	<path style="fill:#3F352F;" d="M53.456,229.374c1.309,0,2.6-0.53,3.529-1.46c0.931-0.931,1.471-2.221,1.471-3.54
		c0-1.32-0.54-2.61-1.471-3.54c-0.93-0.931-2.22-1.46-3.529-1.46c-1.32,0-2.61,0.529-3.54,1.46c-0.931,0.93-1.46,2.22-1.46,3.54
		c0,1.319,0.529,2.609,1.46,3.54C50.846,228.844,52.136,229.374,53.456,229.374z"/>
	<path style="fill:#3F352F;" d="M212.405,219.374c-1.319,0-2.609,0.529-3.539,1.46c-0.93,0.939-1.461,2.229-1.461,3.54
		c0,1.319,0.531,2.6,1.461,3.54c0.93,0.93,2.22,1.46,3.539,1.46c1.311,0,2.601-0.53,3.531-1.46c0.93-0.931,1.469-2.221,1.469-3.54
		c0-1.32-0.539-2.61-1.469-3.54C215.006,219.904,213.716,219.374,212.405,219.374z"/>
	<path style="fill:#3F352F;" d="M358.126,219.374c-1.32,0-2.61,0.529-3.54,1.46c-0.931,0.939-1.47,2.229-1.47,3.54
		c0,1.319,0.539,2.609,1.47,3.54c0.93,0.93,2.22,1.46,3.54,1.46c1.31,0,2.6-0.53,3.529-1.46c0.931-0.931,1.471-2.221,1.471-3.54
		c0-1.311-0.54-2.601-1.471-3.54C360.726,219.904,359.436,219.374,358.126,219.374z"/>
	<path style="fill:#3F352F;" d="M443.751,183.966h-93.343v-4.486c0-2.762-2.239-5-5-5h-30.652c-2.761,0-5,2.238-5,5v4.486h-19.377
		v-4.486c0-2.762-2.239-5-5-5H163.371c-2.761,0-5,2.238-5,5v4.486H5c-2.761,0-5,2.238-5,5v70.818c0,2.762,2.239,5,5,5h153.371v4.486
		c0,2.762,2.239,5,5,5h122.008c2.761,0,5-2.238,5-5v-4.486h19.377v4.486c0,2.762,2.239,5,5,5h30.652c2.761,0,5-2.238,5-5v-4.486
		h93.343c2.762,0,5-2.238,5-5v-70.818C448.751,186.205,446.513,183.966,443.751,183.966z M158.371,254.785H10v-60.818h148.371
		V254.785z M280.379,219.376h-7.729V201.8c0-2.762-2.238-5-5-5h-86.548c-2.761,0-5,2.238-5,5v45.15c0,2.762,2.239,5,5,5h86.548
		c2.762,0,5-2.238,5-5v-17.575h7.729v34.895H168.371V184.48h112.008V219.376z M252.6,229.376h10.05v12.575h-76.548V206.8h76.548
		v12.575H252.6c-2.761,0-5,2.238-5,5S249.839,229.376,252.6,229.376z M309.756,254.785h-19.377v-60.818h19.377V254.785z
		 M340.408,264.271h-20.652V184.48h20.652V264.271z M386.657,254.785h-36.249v-60.818h36.249c11.082,0,20.443,13.926,20.443,30.409
		S397.739,254.785,386.657,254.785z M438.751,254.785h-32.082c6.387-7.41,10.432-18.291,10.432-30.409
		c0-12.115-4.04-22.998-10.424-30.409h32.074V254.785z"/>
</g>
<g>
</g>
<g>
</g>
<g>
</g>
<g>
</g>
<g>
</g>
<g>
</g>
<g>
</g>
<g>
</g>
<g>
</g>
<g>
</g>
<g>
</g>
<g>
</g>
<g>
</g>
<g>
</g>
<g>
</g>
</svg>
