<?xml version="1.0" encoding="iso-8859-1"?>
<!-- Generator: Adobe Illustrator 19.1.0, SVG Export Plug-In . SVG Version: 6.00 Build 0)  -->
<svg version="1.1" id="Capa_1" xmlns="http://www.w3.org/2000/svg" xmlns:xlink="http://www.w3.org/1999/xlink" x="0px" y="0px"
	 viewBox="0 0 341.301 341.301" style="enable-background:new 0 0 341.301 341.301;" xml:space="preserve">
<g>
	<path style="fill:#CBE8DE;" d="M13.495,318.986h137.198c1.53-4.314,3.172-8.986,4.789-13.632h-143.2
		C12.741,311.254,13.18,315.896,13.495,318.986z"/>
	<path style="fill:#A9D8C8;" d="M124.907,247.053c-7.568-13.513-9.633-30.2-11.292-43.609
		c-0.188-1.518-10.09-117.247-11.717-139.354H41.01l-19.179,64.513C7.575,188.478,9.156,257.671,11.571,295.354h147.362
		c3.496-10.218,6.312-18.775,6.717-20.844v-3.061C147.007,270.226,133.305,262.048,124.907,247.053z"/>
	<path style="fill:#CBE8DE;" d="M123.539,202.215c3.132,25.311,7.021,56.519,42.111,59.206V64.09h-53.725
		C113.628,87.148,123.349,200.676,123.539,202.215z"/>
	<path style="fill:#CBE8DE;" d="M190.608,318.986h137.199c0.315-3.09,0.753-7.732,1.214-13.632H185.819
		C187.436,310,189.078,314.672,190.608,318.986z"/>
	<path style="fill:#A9D8C8;" d="M300.29,64.09h-60.887c-1.627,22.106-11.529,137.835-11.717,139.354
		c-1.66,13.409-3.725,30.097-11.292,43.609c-8.398,14.995-22.099,23.173-40.743,24.396v3.068c0.417,2.098,3.228,10.641,6.716,20.836
		H329.73c2.415-37.685,3.996-106.876-10.259-166.751L300.29,64.09z"/>
	<polygon style="fill:#8EB6CA;" points="292.941,22.315 48.36,22.315 43.685,54.09 297.617,54.09 	"/>
	<path style="fill:#CBE8DE;" d="M217.762,202.215c0.191-1.539,9.911-115.062,11.613-138.125h-53.725v197.331
		C210.74,258.734,214.63,227.526,217.762,202.215z"/>
	<path style="fill:#3F352F;" d="M308.018,56.087l-5.812-39.499c-0.361-2.454-2.466-4.273-4.947-4.273H44.041
		c-2.48,0-4.586,1.818-4.947,4.273l-5.816,39.534c-0.339,0.456-21.122,69.939-21.143,70.028
		c-21.184,88.811-8.223,197.359-8.089,198.445c0.308,2.507,2.437,4.391,4.963,4.391h145.213c2.114,0,4-1.33,4.71-3.321
		c5.539-15.542,9.242-26.257,11.719-33.677c2.477,7.42,6.179,18.135,11.718,33.677c0.71,1.991,2.596,3.321,4.71,3.321h145.214
		c2.526,0,4.655-1.884,4.963-4.391c0.134-1.086,13.093-109.634-8.088-198.445C329.145,126.061,308.365,56.548,308.018,56.087z
		 M150.693,318.986H13.495c-0.315-3.09-0.753-7.732-1.214-13.632h143.2C153.864,310,152.222,314.672,150.693,318.986z
		 M165.651,274.51c-0.405,2.068-3.221,10.626-6.717,20.844H11.571c-2.415-37.684-3.996-106.876,10.26-166.751L41.01,64.09h60.888
		c1.627,22.106,11.529,137.835,11.717,139.354c1.66,13.409,3.725,30.097,11.292,43.609c8.398,14.995,22.099,23.173,40.743,24.396
		V274.51z M165.651,261.422c-35.09-2.688-38.979-33.896-42.111-59.206c-0.19-1.539-9.911-115.067-11.613-138.125h53.725V261.422z
		 M43.685,54.09l4.674-31.775h244.581l4.676,31.775H43.685z M229.375,64.09c-1.702,23.062-11.423,136.586-11.613,138.125
		c-3.132,25.311-7.021,56.519-42.111,59.206V64.09H229.375z M327.806,318.986H190.608c-1.53-4.314-3.171-8.986-4.788-13.632H329.02
		C328.56,311.254,328.121,315.896,327.806,318.986z M329.73,295.354H182.367c-3.488-10.195-6.3-18.738-6.716-20.836v-3.068
		c18.644-1.224,32.345-9.401,40.743-24.396c7.568-13.513,9.633-30.2,11.292-43.609c0.188-1.518,10.09-117.247,11.717-139.354h60.887
		l19.181,64.513C333.725,188.478,332.144,257.669,329.73,295.354z"/>
</g>
<g>
</g>
<g>
</g>
<g>
</g>
<g>
</g>
<g>
</g>
<g>
</g>
<g>
</g>
<g>
</g>
<g>
</g>
<g>
</g>
<g>
</g>
<g>
</g>
<g>
</g>
<g>
</g>
<g>
</g>
</svg>
