<?xml version="1.0" encoding="iso-8859-1"?>
<!-- Generator: Adobe Illustrator 19.1.0, SVG Export Plug-In . SVG Version: 6.00 Build 0)  -->
<svg version="1.1" id="Capa_1" xmlns="http://www.w3.org/2000/svg" xmlns:xlink="http://www.w3.org/1999/xlink" x="0px" y="0px"
	 viewBox="0 0 385.949 385.949" style="enable-background:new 0 0 385.949 385.949;" xml:space="preserve">
<g>
	<path style="fill:#8EB6CA;" d="M195.523,118.91h-5.095v10.76c0.768-0.453,1.646-0.717,2.547-0.717c0.898,0,1.778,0.266,2.548,0.723
		V118.91z"/>
	<path style="fill:#8EB6CA;" d="M195.523,138.229c-0.77,0.46-1.65,0.725-2.548,0.725c-0.901,0-1.779-0.263-2.547-0.719v47.123
		c0.768-0.455,1.646-0.723,2.547-0.723c0.898,0,1.778,0.27,2.548,0.729V138.229z"/>
	<path style="fill:#8EB6CA;" d="M195.523,82.543c-0.77,0.456-1.65,0.721-2.548,0.721c-0.896,0-1.775-0.264-2.547-0.719v26.365h5.095
		V82.543z"/>
	<path style="fill:#8EB6CA;" d="M195.523,193.915c-0.77,0.459-1.65,0.73-2.548,0.73c-0.901,0-1.779-0.269-2.547-0.724v47.118
		c0.768-0.452,1.646-0.715,2.547-0.715c0.898,0,1.778,0.265,2.548,0.721V193.915z"/>
	<path style="fill:#8EB6CA;" d="M175.411,33.361c5.33,7.518,11.342,15.426,17.564,22.512c6.225-7.088,12.238-14.996,17.566-22.512
		H175.411z"/>
	<path style="fill:#8EB6CA;" d="M195.523,70.707l-2.548-1.538l-2.547,1.537v3.281c0.768-0.455,1.646-0.724,2.547-0.724
		c0.904,0,1.781,0.27,2.548,0.729V70.707z"/>
	<path style="fill:#8EB6CA;" d="M217.407,23.361c3.433-5.156,6.365-9.789,8.566-13.361h-65.996
		c2.202,3.572,5.134,8.205,8.566,13.361H217.407z"/>
	<path style="fill:#8EB6CA;" d="M190.428,305.291v31.836h5.095v-31.841c-0.767,0.458-1.644,0.728-2.548,0.728
		C192.074,306.014,191.196,305.746,190.428,305.291z"/>
	<path style="fill:#BBD3DF;" d="M228.08,78.68c3.326-10.178,10.09-31.842,13.994-51.033l-7.348-12.762
		c-6.542,10.668-19.56,30.83-33.977,47.297L228.08,78.68z"/>
	<path style="fill:#8EB6CA;" d="M309.891,56.383c-14.98-7.104-46.257-18.478-58.813-22.969c-0.42,1.93-0.864,3.869-1.322,5.809
		l58.74,21.394L309.891,56.383z"/>
	<path style="fill:#8EB6CA;" d="M136.181,39.164c-0.454-1.919-0.894-3.84-1.309-5.75c-12.557,4.492-43.834,15.865-58.813,22.969
		l1.377,4.178L136.181,39.164z"/>
	<path style="fill:#BBD3DF;" d="M211.574,133.873c-1.918-0.633-3.268-2.357-3.421-4.371l-0.802-10.592h-1.828v218.217h26.48
		l-9.819-158.398l-6.67-1.523c-2.274-0.52-3.887-2.543-3.887-4.875v-38.439C211.6,133.883,211.578,133.875,211.574,133.873z"/>
	<path style="fill:#8EB6CA;" d="M274.492,118.91h-57.112l0.491,6.488c4.727,1.509,14.156,4.453,24.206,7.235
		c-0.716-0.885-1.143-1.993-1.143-3.14c0-1.311,0.54-2.6,1.47-3.529c0.93-0.932,2.21-1.471,3.53-1.471c1.32,0,2.61,0.539,3.54,1.471
		c0.93,0.93,1.46,2.219,1.46,3.529c0,1.145-0.419,2.253-1.131,3.137c10.046-2.781,19.471-5.725,24.197-7.232L274.492,118.91z"/>
	<path style="fill:#8EB6CA;" d="M195.523,249.602c-0.77,0.457-1.65,0.723-2.548,0.723c-0.901,0-1.779-0.264-2.547-0.717v47.122
		c0.768-0.453,1.646-0.716,2.547-0.716c0.904,0,1.781,0.265,2.548,0.721V249.602z"/>
	<path style="fill:#8EB6CA;" d="M245.94,184.025c-0.369,0-0.743-0.041-1.118-0.127l-12.476-2.85l9.675,156.078h7.827l9.675-156.078
		l-12.475,2.85l-0.003-0.014C246.686,183.968,246.318,184.025,245.94,184.025z"/>
	<path style="fill:#8EB6CA;" d="M270.244,137.055c-6.247,1.926-14.655,4.426-23.031,6.641c-0.428,0.113-0.858,0.166-1.281,0.166
		c-0.436,0-0.859-0.072-1.27-0.182l-0.004,0.016c-8.376-2.215-16.784-4.715-23.031-6.641v31.289l24.309,5.553l24.309-5.553V137.055z
		"/>
	<path style="fill:#8EB6CA;" d="M140.018,184.025c-0.369,0-0.743-0.041-1.118-0.127l-12.476-2.85l9.675,156.078h7.828l9.675-156.078
		l-12.476,2.85l-0.003-0.014C140.764,183.968,140.396,184.025,140.018,184.025z"/>
	<path style="fill:#BBD3DF;" d="M283.718,129.502c-0.153,2.014-1.503,3.738-3.421,4.371c-0.004,0.002-0.026,0.01-0.053,0.018v38.439
		c0,2.332-1.613,4.355-3.887,4.875l-6.671,1.523l-9.819,158.398h31.322V118.91h-6.669L283.718,129.502z"/>
	<path style="fill:#8EB6CA;" d="M190.428,352.42c0.768-0.453,1.646-0.717,2.547-0.717c1.31,0,2.6,0.531,3.53,1.461
		c0.93,0.93,1.47,2.221,1.47,3.539c0,1.311-0.54,2.602-1.47,3.531c-0.93,0.93-2.22,1.469-3.53,1.469
		c-0.902,0-1.778-0.269-2.547-0.725v5.357h100.762v-19.209H190.428V352.42z"/>
	<path style="fill:#BBD3DF;" d="M143.874,27.648c3.906,19.199,10.669,40.857,13.995,51.031l27.332-16.498
		c-14.417-16.467-27.435-36.629-33.977-47.297L143.874,27.648z"/>
	<path style="fill:#BBD3DF;" d="M247.315,48.977c-5.292,20.147-11.404,37.858-11.747,38.85c-0.494,1.426-1.605,2.551-3.024,3.064
		c-0.552,0.199-1.127,0.297-1.7,0.297c-0.9,0-1.795-0.242-2.584-0.719l-22.737-13.726v32.167h87.051l12.789-38.792L247.315,48.977z"
		/>
	<path style="fill:#BBD3DF;" d="M301.189,114.713v61.044c4.787,9.622,18.827,44.938,19.45,46.507
		c0.305,0.768,0.415,1.602,0.319,2.424c-4.621,39.698-10.686,83.833-14.885,113.368l45.141,8.086
		c9.122-52.492,20.928-128.793,22.393-138.29c-12.715-52.459-43.939-116.472-56.574-141.195L301.189,114.713z"/>
	<path style="fill:#BBD3DF;" d="M155.105,91.188c-0.573,0-1.148-0.098-1.7-0.297c-1.419-0.514-2.53-1.639-3.024-3.064
		c-0.343-0.992-6.467-18.736-11.763-38.906l-58.05,21.143l12.807,38.848h87.053V76.742l-22.738,13.726
		C156.9,90.945,156.005,91.188,155.105,91.188z"/>
	<path style="fill:#8EB6CA;" d="M301.847,367.267l44.109,7.893c1.075-5.582,2.265-12.067,3.528-19.169l-44.827-8.03
		C303.436,356.451,302.459,363.118,301.847,367.267z"/>
	<path style="fill:#BBD3DF;" d="M177.796,129.502c-0.153,2.014-1.503,3.738-3.421,4.371c-0.004,0.002-0.026,0.01-0.053,0.018v38.439
		c0,2.332-1.613,4.355-3.887,4.875l-6.67,1.523l-9.819,158.398h26.481V118.91H178.6L177.796,129.502z"/>
	<path style="fill:#BBD3DF;" d="M105.652,133.873c-1.918-0.633-3.268-2.357-3.421-4.371l-0.802-10.592h-6.67v218.217h31.322
		l-9.819-158.398l-6.67-1.523c-2.274-0.52-3.887-2.543-3.887-4.875v-38.439C105.678,133.883,105.656,133.875,105.652,133.873z"/>
	<rect x="94.759" y="347.127" style="fill:#8EB6CA;" width="85.669" height="19.209"/>
	<path style="fill:#BBD3DF;" d="M12.342,207.852c1.465,9.497,13.272,85.798,22.393,138.29l45.141-8.086
		c-4.199-29.535-10.264-73.67-14.885-113.368c-0.096-0.822,0.014-1.656,0.319-2.424c0.623-1.568,14.663-36.885,19.449-46.508
		v-61.043L68.916,66.658C56.28,91.386,25.052,155.412,12.342,207.852z"/>
	<path style="fill:#8EB6CA;" d="M36.466,355.991c1.263,7.102,2.452,13.587,3.527,19.169l44.108-7.893
		c-0.612-4.149-1.588-10.816-2.809-19.307L36.466,355.991z"/>
	<path style="fill:#8EB6CA;" d="M164.322,137.055c-6.247,1.926-14.655,4.426-23.031,6.641c-0.428,0.113-0.858,0.166-1.281,0.166
		c-0.435,0-0.859-0.072-1.27-0.182l-0.004,0.016c-8.375-2.215-16.784-4.715-23.031-6.641v31.289l24.309,5.553l24.309-5.553V137.055z
		"/>
	<path style="fill:#8EB6CA;" d="M168.57,118.91h-57.113l0.491,6.488c4.726,1.508,14.151,4.451,24.197,7.232
		c-0.713-0.884-1.131-1.992-1.131-3.137c0-1.311,0.53-2.6,1.46-3.529c0.93-0.932,2.22-1.471,3.54-1.471
		c1.32,0,2.61,0.539,3.54,1.471c0.93,0.93,1.46,2.219,1.46,3.529c0,1.145-0.418,2.252-1.131,3.137
		c10.046-2.781,19.469-5.725,24.195-7.232L168.57,118.91z"/>
	<path style="fill:#3F352F;" d="M320.391,51.467c-0.732-1.391-2.086-2.055-2.093-2.059c-14.961-7.974-58.141-23.399-67.543-26.726
		L239.138,2.506C238.246,0.955,236.593,0,234.805,0c-0.001,0-0.003,0-0.005,0H151.15c-0.002,0-0.003,0-0.005,0
		c-1.788,0-3.44,0.955-4.333,2.506l-11.617,20.176c-9.404,3.327-52.599,18.76-67.552,26.732c-0.002,0-1.375,0.693-2.084,2.053
		c-0.455,0.873-47.036,87.426-63.172,155.012c-0.15,0.629-0.177,1.281-0.079,1.922c0.196,1.271,19.674,127.793,28.822,173.527
		c0.475,2.373,2.558,4.021,4.897,4.021c1.682,0,54.175-9.613,54.175-9.613h205.543c0,0,52.022,9.613,54.176,9.613
		c2.339,0,4.423-1.648,4.897-4.021c9.148-45.734,28.627-172.256,28.822-173.527c0.098-0.641,0.072-1.293-0.079-1.922
		C367.427,138.893,320.849,52.338,320.391,51.467z M251.077,33.414c12.557,4.491,43.833,15.864,58.813,22.969l-1.396,4.233
		l-58.74-21.394C250.213,37.283,250.657,35.344,251.077,33.414z M242.074,27.646c-3.903,19.191-10.668,40.855-13.994,51.033
		l-27.332-16.498c14.417-16.467,27.435-36.629,33.977-47.297L242.074,27.646z M215.514,177.205l6.67,1.523l9.819,158.398h-26.48
		V118.91h1.828l0.802,10.592c0.153,2.014,1.503,3.738,3.421,4.371c0.004,0.002,0.026,0.01,0.053,0.018v38.439
		C211.627,174.662,213.24,176.686,215.514,177.205z M245.936,173.896l-24.309-5.553v-31.289c6.247,1.926,14.655,4.426,23.031,6.641
		l0.004-0.016c0.412,0.109,0.835,0.182,1.27,0.182c0.423,0,0.853-0.053,1.281-0.166c8.376-2.215,16.784-4.715,23.031-6.641v31.289
		L245.936,173.896z M259.524,181.049l-9.675,156.078h-7.827l-9.675-156.078l12.476,2.85c0.374,0.086,0.749,0.127,1.118,0.127
		c0.378,0,0.746-0.058,1.106-0.141l0.003,0.014L259.524,181.049z M249.803,132.631c0.713-0.884,1.131-1.992,1.131-3.137
		c0-1.311-0.53-2.6-1.46-3.529c-0.93-0.932-2.22-1.471-3.54-1.471c-1.32,0-2.6,0.539-3.53,1.471c-0.93,0.93-1.47,2.219-1.47,3.529
		c0,1.146,0.426,2.255,1.143,3.14c-10.051-2.782-19.479-5.727-24.206-7.235l-0.491-6.488h57.112L274,125.398
		C269.274,126.906,259.85,129.85,249.803,132.631z M192.975,296.014c-0.901,0-1.779,0.263-2.547,0.716v-47.122
		c0.768,0.453,1.646,0.717,2.547,0.717c0.898,0,1.778-0.266,2.548-0.723v47.133C194.755,296.278,193.879,296.014,192.975,296.014z
		 M195.523,305.286v31.841h-5.095v-31.836c0.768,0.455,1.646,0.723,2.547,0.723C193.879,306.014,194.755,305.744,195.523,305.286z
		 M192.975,240.324c-0.901,0-1.779,0.263-2.547,0.715v-47.118c0.768,0.455,1.646,0.724,2.547,0.724c0.898,0,1.778-0.271,2.548-0.73
		v47.13C194.753,240.589,193.873,240.324,192.975,240.324z M192.975,184.635c-0.901,0-1.779,0.268-2.547,0.723v-47.123
		c0.768,0.456,1.646,0.719,2.547,0.719c0.898,0,1.778-0.265,2.548-0.725v47.135C194.753,184.904,193.873,184.635,192.975,184.635z
		 M192.975,128.953c-0.901,0-1.779,0.264-2.547,0.717v-10.76h5.095v10.766C194.753,129.219,193.873,128.953,192.975,128.953z
		 M190.428,108.91V82.545c0.772,0.455,1.65,0.719,2.547,0.719c0.898,0,1.778-0.265,2.548-0.721v26.367H190.428z M192.975,73.264
		c-0.901,0-1.779,0.269-2.547,0.724v-3.281l2.547-1.537l2.548,1.538v3.285C194.755,73.533,193.879,73.264,192.975,73.264z
		 M192.975,55.873c-6.222-7.086-12.234-14.994-17.564-22.512h35.13C205.213,40.877,199.199,48.785,192.975,55.873z M225.973,10
		c-2.201,3.572-5.133,8.205-8.566,13.361h-48.863c-3.433-5.156-6.365-9.789-8.566-13.361H225.973z M134.872,33.414
		c0.415,1.91,0.855,3.831,1.309,5.75L77.436,60.561l-1.377-4.178C91.038,49.279,122.314,37.906,134.872,33.414z M39.993,375.16
		c-1.075-5.582-2.265-12.067-3.527-19.169l44.826-8.03c1.221,8.49,2.197,15.157,2.809,19.307L39.993,375.16z M84.759,300.617
		c-3.233-23.745-6.745-50.642-9.689-75.834c2.255-5.662,6.032-15.045,9.689-23.898V300.617z M84.759,175.756
		c-4.786,9.623-18.826,44.939-19.449,46.508c-0.305,0.768-0.415,1.602-0.319,2.424c4.621,39.698,10.686,83.833,14.885,113.368
		l-45.141,8.086c-9.122-52.492-20.928-128.793-22.393-138.29C25.052,155.412,56.28,91.386,68.916,66.658l15.842,48.055V175.756z
		 M180.428,366.336H94.759v-19.209h85.669V366.336z M109.592,177.205l6.67,1.523l9.819,158.398H94.759V118.91h6.67l0.802,10.592
		c0.153,2.014,1.502,3.738,3.421,4.371c0.004,0.002,0.026,0.01,0.053,0.018v38.439C105.705,174.662,107.318,176.686,109.592,177.205
		z M140.014,173.896l-24.309-5.553v-31.289c6.247,1.926,14.655,4.426,23.031,6.641l0.004-0.016c0.412,0.109,0.835,0.182,1.27,0.182
		c0.423,0,0.853-0.053,1.281-0.166c8.376-2.215,16.784-4.715,23.031-6.641v31.289L140.014,173.896z M153.603,181.049l-9.675,156.078
		H136.1l-9.675-156.078l12.476,2.85c0.374,0.086,0.749,0.127,1.118,0.127c0.378,0,0.746-0.058,1.106-0.141l0.003,0.014
		L153.603,181.049z M143.884,132.631c0.712-0.885,1.131-1.992,1.131-3.137c0-1.311-0.53-2.6-1.46-3.529
		c-0.93-0.932-2.22-1.471-3.54-1.471c-1.32,0-2.61,0.539-3.54,1.471c-0.93,0.93-1.46,2.219-1.46,3.529
		c0,1.145,0.418,2.253,1.131,3.137c-10.046-2.781-19.471-5.725-24.197-7.232l-0.491-6.488h57.113l-0.492,6.488
		C163.353,126.906,153.93,129.85,143.884,132.631z M180.428,337.127h-26.481l9.819-158.398l6.67-1.523
		c2.274-0.52,3.887-2.543,3.887-4.875v-38.439c0.027-0.008,0.049-0.016,0.053-0.018c1.918-0.633,3.268-2.357,3.421-4.371
		l0.803-10.592h1.828V337.127z M180.428,108.91H93.375L80.568,70.062l58.05-21.143c5.296,20.17,11.42,37.914,11.763,38.906
		c0.494,1.426,1.605,2.551,3.024,3.064c0.552,0.199,1.127,0.297,1.7,0.297c0.9,0,1.795-0.242,2.584-0.719l22.738-13.726V108.91z
		 M157.869,78.68c-3.325-10.174-10.088-31.832-13.995-51.031l7.349-12.764c6.542,10.668,19.56,30.83,33.977,47.297L157.869,78.68z
		 M291.189,366.336H190.428v-5.357c0.769,0.456,1.645,0.725,2.547,0.725c1.31,0,2.6-0.539,3.53-1.469
		c0.93-0.93,1.47-2.221,1.47-3.531c0-1.318-0.54-2.609-1.47-3.539c-0.93-0.93-2.22-1.461-3.53-1.461
		c-0.901,0-1.779,0.264-2.547,0.717v-5.293h100.762V366.336z M291.189,337.127h-31.322l9.819-158.398l6.671-1.523
		c2.274-0.52,3.887-2.543,3.887-4.875v-38.439c0.027-0.008,0.049-0.016,0.053-0.018c1.918-0.633,3.268-2.357,3.421-4.371
		l0.802-10.592h6.669V337.127z M292.573,108.91h-87.051V76.743l22.737,13.726c0.789,0.477,1.684,0.719,2.584,0.719
		c0.573,0,1.148-0.098,1.7-0.297c1.419-0.514,2.53-1.639,3.024-3.064c0.343-0.991,6.456-18.702,11.747-38.85l58.047,21.142
		L292.573,108.91z M301.189,200.882c3.657,8.854,7.435,18.239,9.69,23.901c-2.944,25.193-6.456,52.091-9.69,75.838V200.882z
		 M345.956,375.16l-44.109-7.893c0.612-4.149,1.589-10.816,2.81-19.307l44.827,8.03C348.221,363.093,347.031,369.578,345.956,375.16
		z M351.214,346.142l-45.141-8.086c4.199-29.535,10.265-73.67,14.885-113.368c0.096-0.822-0.014-1.656-0.319-2.424
		c-0.623-1.568-14.663-36.885-19.45-46.507v-61.044l15.844-48.057c12.635,24.724,43.859,88.736,56.574,141.195
		C372.143,217.349,360.336,293.649,351.214,346.142z"/>
</g>
<g>
</g>
<g>
</g>
<g>
</g>
<g>
</g>
<g>
</g>
<g>
</g>
<g>
</g>
<g>
</g>
<g>
</g>
<g>
</g>
<g>
</g>
<g>
</g>
<g>
</g>
<g>
</g>
<g>
</g>
</svg>
