<?xml version="1.0" encoding="iso-8859-1"?>
<!-- Generator: Adobe Illustrator 19.1.0, SVG Export Plug-In . SVG Version: 6.00 Build 0)  -->
<svg version="1.1" id="Capa_1" xmlns="http://www.w3.org/2000/svg" xmlns:xlink="http://www.w3.org/1999/xlink" x="0px" y="0px"
	 viewBox="0 0 418.715 418.715" style="enable-background:new 0 0 418.715 418.715;" xml:space="preserve">
<g>
	<path style="fill:#E3D282;" d="M288.745,196.352c27.267,0,42.565,13.867,49.617,22.855c2.995-6.857,4.995-20.857-17.431-37.283
		c-21.898-16.04-47.574-18.574-68.965-10.779l23.107,26.826C279.349,196.96,283.881,196.352,288.745,196.352z"/>
	<path style="fill:#C4573F;" d="M402.94,233.821H15.773c-1.428,0-5.773,0-5.773,8.849c0,8.85,4.346,8.85,5.773,8.85H402.94
		c1.428,0,5.774,0,5.774-8.85C408.715,233.821,404.368,233.821,402.94,233.821z"/>
	<path style="fill:#AB9E85;" d="M264.758,201.317l-22.8-26.471c-3.989,1.696-14.865,7.419-16.237,8.165l23.111,26.567
		C253.777,206.62,259.025,203.677,264.758,201.317z"/>
	<path style="fill:#E3D282;" d="M240.146,214.829l-23.478-26.987c-31.731,16.644-60.096,28.505-79.743,35.979h78.248
		C223.893,223.821,231.659,219.882,240.146,214.829z"/>
	<path style="fill:#3F352F;" d="M402.94,223.821h-55.583c4.508-10.799,5-27.472-11.656-42.519
		c-31.612-28.558-69.817-31.85-110.681-9.306c-60.558,33.41-111.787,49.822-118.226,51.824H15.773C6.044,223.821,0,231.043,0,242.67
		c0,11.627,6.044,18.85,15.773,18.85H402.94c9.73,0,15.774-7.223,15.774-18.85C418.715,231.043,412.671,223.821,402.94,223.821z
		 M320.932,181.924c22.426,16.426,20.426,30.426,17.431,37.283c-7.052-8.987-22.351-22.855-49.617-22.855
		c-4.864,0-9.396,0.607-13.671,1.618l-23.107-26.826C273.357,163.349,299.033,165.884,320.932,181.924z M329.24,223.821h-84.665
		c1.792-1.054,22.005-17.391,44.17-17.469C310.411,206.276,323.006,216.542,329.24,223.821z M241.958,174.847l22.8,26.471
		c-5.732,2.359-10.981,5.303-15.926,8.261l-23.111-26.567C227.093,182.266,237.969,176.542,241.958,174.847z M216.669,187.842
		l23.478,26.987c-8.487,5.053-16.254,8.992-24.973,8.992h-78.248C156.573,216.347,184.938,204.486,216.669,187.842z M402.94,251.519
		H15.773c-1.428,0-5.773,0-5.773-8.85c0-8.849,4.346-8.849,5.773-8.849H402.94c1.428,0,5.774,0,5.774,8.849
		C408.715,251.519,404.368,251.519,402.94,251.519z"/>
</g>
<g>
</g>
<g>
</g>
<g>
</g>
<g>
</g>
<g>
</g>
<g>
</g>
<g>
</g>
<g>
</g>
<g>
</g>
<g>
</g>
<g>
</g>
<g>
</g>
<g>
</g>
<g>
</g>
<g>
</g>
</svg>
