<?xml version="1.0" encoding="iso-8859-1"?>
<!-- Generator: Adobe Illustrator 19.1.0, SVG Export Plug-In . SVG Version: 6.00 Build 0)  -->
<svg version="1.1" id="Capa_1" xmlns="http://www.w3.org/2000/svg" xmlns:xlink="http://www.w3.org/1999/xlink" x="0px" y="0px"
	 viewBox="0 0 395.048 395.048" style="enable-background:new 0 0 395.048 395.048;" xml:space="preserve">
<g>
	<path style="fill:#AB9E85;" d="M27.313,331.686H40.91v-8.967H26.912C27.087,326.355,27.219,329.391,27.313,331.686z"/>
	<path style="fill:#AB9E85;" d="M26.398,312.719H40.91v-68.45c0-7.834,0.008-26.062,8.402-32.975L12.1,186.829
		C20.518,223.415,24.645,280.615,26.398,312.719z"/>
	<path style="fill:#7E6F83;" d="M333.895,277.502c-19.955-0.902-40.703-12.104-48.891-17.005
		c-10.436,10.482-21.375,15.588-33.336,15.589c-27.35,0.003-59.053-26.525-99.77-83.488C97.32,116.246,61.176,76.916,49.605,64.915
		L38.738,79.573c44.404,51.609,72.938,92.08,84.822,120.322c9.193,21.845,5.428,29.664,3.383,32.012
		c-1.564,1.793-4.176,2.237-6.242,1.061c-0.277-0.157-101.381-62.064-110.082-66.851c-0.361,1.983-0.641,4.475-0.61,7.371
		c0,0,93.64,57.835,139.567,106.925c6.34,6.775,12.166,13.325,19.035,19.92c30.516,29.301,72.33,32.465,88.893,32.465
		c6.023,0,11.803-0.359,17.172-1.068c57.477-7.59,102.613-28.357,109.859-31.829c0.686-1.112,0.699-2.22,0.086-3.642
		C381.82,289.768,365.572,278.936,333.895,277.502z"/>
	<path style="fill:#3F352F;" d="M334.346,267.513c-22.25-1.006-47.139-17.417-47.387-17.581c-2.064-1.378-4.828-1.033-6.488,0.812
		c-9.434,10.467-18.586,15.342-28.805,15.343c-23.512,0.003-53.486-25.937-91.633-79.304C92.658,92.526,54.133,55.188,52.525,53.645
		c-1.037-0.995-2.445-1.498-3.883-1.376c-1.432,0.12-2.742,0.851-3.598,2.005L28.322,76.832c-1.395,1.881-1.297,4.478,0.236,6.249
		c77.377,89.443,89.398,125.41,90.709,137.514c-10.041-5.837-99.381-61.007-109.432-66.235c-1.211-0.63-2.625-0.738-3.916-0.299
		c-1.291,0.439-2.348,1.387-2.924,2.623c-0.229,0.493-5.574,12.262-1.42,29.111c12.381,50.175,15.893,150.057,15.928,151.06
		c0.092,2.694,2.301,4.831,4.996,4.831h23.41c2.762,0,5-2.239,5-5v-92.417c0-18.955,3.236-25.661,6.266-25.708
		c2.351-0.037,36.351,19.963,85.016,68.594c6.683,6.678,12.389,13.568,19.494,20.391c31.941,30.672,73.744,35.252,95.818,35.252
		c6.461,0,12.678-0.389,18.48-1.154c64.252-8.485,112.061-32.296,114.064-33.305c0.586-0.297,1.109-0.705,1.537-1.203
		c3.65-4.236,4.457-9.645,2.217-14.838C387.988,278.819,364.094,268.859,334.346,267.513z M40.91,331.686H27.313
		c-0.094-2.295-0.226-5.331-0.4-8.967H40.91V331.686z M40.91,244.269v68.45H26.398c-1.754-32.104-5.881-89.304-14.299-125.89
		l37.213,24.465C40.918,218.206,40.91,236.435,40.91,244.269z M384.535,299.9c-7.246,3.472-52.383,24.239-109.859,31.829
		c-5.369,0.709-11.148,1.068-17.172,1.068c-16.562,0-58.377-3.164-88.893-32.465c-6.869-6.595-12.695-13.145-19.035-19.92
		C103.648,231.322,10.009,173.487,10.009,173.487c-0.03-2.895,0.249-5.387,0.61-7.371c8.701,4.786,109.805,66.693,110.082,66.851
		c2.066,1.176,4.678,0.732,6.242-1.061c2.045-2.348,5.811-10.167-3.383-32.012c-11.885-28.242-40.418-68.713-84.822-120.322
		l10.867-14.657c11.57,12.001,47.715,51.331,102.293,127.683c40.717,56.963,72.42,83.491,99.77,83.488
		c11.961-0.001,22.9-5.107,33.336-15.589c8.188,4.901,28.936,16.103,48.891,17.005c31.678,1.434,47.926,12.266,50.727,18.756
		C385.234,297.68,385.221,298.788,384.535,299.9z"/>
</g>
<g>
</g>
<g>
</g>
<g>
</g>
<g>
</g>
<g>
</g>
<g>
</g>
<g>
</g>
<g>
</g>
<g>
</g>
<g>
</g>
<g>
</g>
<g>
</g>
<g>
</g>
<g>
</g>
<g>
</g>
</svg>
