<?xml version="1.0" encoding="iso-8859-1"?>
<!-- Generator: Adobe Illustrator 19.1.0, SVG Export Plug-In . SVG Version: 6.00 Build 0)  -->
<svg version="1.1" id="Capa_1" xmlns="http://www.w3.org/2000/svg" xmlns:xlink="http://www.w3.org/1999/xlink" x="0px" y="0px"
	 viewBox="0 0 415.75 415.75" style="enable-background:new 0 0 415.75 415.75;" xml:space="preserve">
<g>
	<path style="fill:#7E6F83;" d="M134.478,331.547v21.166h68.393v-90.694h-43.037C155.612,295.838,138.49,325.073,134.478,331.547z"
		/>
	<polygon style="fill:#C4573F;" points="118.373,382.864 202.87,382.864 202.87,362.713 113.81,362.713 	"/>
	<path style="fill:#7E6F83;" d="M158.228,41.393c2.257,1.782,15.659,11.189,19.706,14.4h59.883
		c4.047-3.211,17.447-12.618,19.703-14.399c-9.158-0.877-26.09-1.688-49.646-1.688C184.328,39.705,167.39,40.516,158.228,41.393z"/>
	<path style="fill:#C4573F;" d="M160.584,55.473c-7.729-5.4-14.673-10.27-18.371-17.045c-0.314,1.402-0.488,2.809-0.503,4.221
		c-0.098,9.668,6.931,16.856,7.315,17.24c0.804,0.714,8.92,7.881,15.407,12.042c2.325,1.491,3.001,4.584,1.51,6.908
		c-0.955,1.489-2.567,2.301-4.214,2.301c-0.924,0-1.859-0.256-2.694-0.791c-5.467-3.506-11.684-8.687-14.786-11.356
		c-19.942,4.92-30.198,15.163-33.992,19.833c22.81,38.203,7.654,86.372,6.105,91.021c-11.741,54.229-5.753,150.788-4.171,172.867
		h12.288V330.1c0-0.971,0.282-1.92,0.813-2.732c0.216-0.332,21.811-33.862,25.067-70.788c0.228-2.581,2.39-4.561,4.98-4.561h47.531
		c0,0,0.003-129.132,0.003-129.258c-0.034-3.613-1.024-30.045-22.057-51.078C173.928,64.795,166.84,59.842,160.584,55.473z
		 M188.532,96.799v131.228c0,2.761-2.239,5-5,5c-2.761,0-5-2.239-5-5V96.799c0-6.876-0.982-9.531-1.347-10.281
		c-1.67-1.103-2.58-3.153-2.133-5.228c0.582-2.699,3.242-4.418,5.941-3.834C184.434,78.197,188.532,82.155,188.532,96.799z"/>
	<path style="fill:#C4573F;" d="M165.326,30.82c11.382-0.719,26.492-1.115,42.548-1.115c16.056,0,31.167,0.396,42.549,1.115
		c5.626,0.356,14.345,1.414,14.959,1.526c0.438-1.082,1.939-5.54-1.896-9.553C259.012,18.114,246.084,10,207.878,10
		c-0.001,0-0.003,0-0.004,0c-0.001,0-0.003,0-0.004,0c-38.999,0-51.766,8.34-55.995,13.235c-3.686,4.264-1.947,8.028-1.51,9.11
		C150.98,32.232,159.699,31.176,165.326,30.82z"/>
	<path style="fill:#C4573F;" d="M104.265,98.75c-4.241,8.426-11.284,24.704-18.602,51.501C75.082,189,61.783,258.158,58.081,368.451
		l34.535,4.771l8.913-29.741c-2.116-33.469-5.802-115.97,5.121-166.036C106.69,177.256,121.33,133.39,104.265,98.75z"/>
	<polygon style="fill:#7E6F83;" points="57.938,401.742 81.799,405.207 89.471,382.884 57.938,378.526 	"/>
	<polygon style="fill:#7E6F83;" points="333.949,405.207 357.812,401.742 357.812,378.526 326.278,382.884 	"/>
	<path style="fill:#C4573F;" d="M311.485,98.748c-17.067,34.641-2.428,78.511-2.387,78.698
		c10.924,50.064,7.237,132.559,5.121,166.031l8.915,29.746l34.534-4.771C351.83,194.366,322.373,120.418,311.485,98.748z"/>
	<path style="fill:#AB9E85;" d="M189.031,65.793c9.661,10.041,15.422,20.928,18.843,30.518c3.423-9.59,9.183-20.477,18.844-30.518
		H189.031z"/>
	<path style="fill:#C4573F;" d="M305.495,88.824c-3.782-4.656-14.039-14.908-33.995-19.832c-3.102,2.67-9.319,7.85-14.786,11.356
		c-0.835,0.536-1.77,0.791-2.694,0.791c-1.646,0-3.259-0.812-4.214-2.301c-1.49-2.324-0.814-5.417,1.51-6.908
		c6.482-4.158,14.563-11.292,15.403-12.037c0.339-0.338,7.463-7.57,7.318-17.338c-0.021-1.38-0.192-2.757-0.5-4.129
		c-3.698,6.775-10.642,11.646-18.372,17.046c-6.255,4.37-13.344,9.322-20.233,16.211c-20.94,20.939-22.057,51.492-22.057,51.498
		c0.001,0.05,0.002,128.837,0.002,128.837h47.531c2.591,0,4.753,1.979,4.98,4.561c3.259,36.926,24.854,70.456,25.071,70.79
		c0.528,0.812,0.812,1.762,0.812,2.73v22.613h12.286c1.582-22.079,7.572-118.638-4.171-172.866
		C297.839,175.198,282.684,127.026,305.495,88.824z M238.562,86.518c-0.365,0.751-1.347,3.406-1.347,10.281v131.228
		c0,2.761-2.238,5-5,5c-2.762,0-5-2.239-5-5V96.799c0-14.644,4.1-18.602,7.538-19.343c2.699-0.584,5.358,1.135,5.941,3.834
		C241.143,83.364,240.232,85.415,238.562,86.518z"/>
	<polygon style="fill:#C4573F;" points="212.878,382.864 297.376,382.864 301.938,362.713 212.878,362.713 	"/>
	<path style="fill:#7E6F83;" d="M255.915,262.019h-43.037v90.694h68.395v-21.166C277.26,325.073,260.138,295.838,255.915,262.019z"
		/>
	<path style="fill:#3F352F;" d="M175.053,81.29c-0.447,2.074,0.463,4.125,2.133,5.228c0.365,0.751,1.347,3.406,1.347,10.281v131.228
		c0,2.761,2.239,5,5,5c2.761,0,5-2.239,5-5V96.799c0-14.644-4.099-18.602-7.538-19.343C178.295,76.872,175.635,78.591,175.053,81.29
		z"/>
	<path style="fill:#3F352F;" d="M234.754,77.456c-3.438,0.741-7.538,4.699-7.538,19.343v131.228c0,2.761,2.238,5,5,5
		c2.762,0,5-2.239,5-5V96.799c0-6.876,0.981-9.531,1.347-10.281c1.67-1.103,2.58-3.153,2.133-5.228
		C240.112,78.591,237.453,76.872,234.754,77.456z"/>
	<path style="fill:#3F352F;" d="M339.427,146.498c-11.624-42.16-22.52-58.848-23.72-60.607
		c-1.182-1.888-11.596-17.516-36.999-25.283c2.686-4.336,5.405-10.589,5.329-18.059c-0.098-9.729-4.809-18.933-14-27.357
		C260.4,6.737,239.094,0,207.878,0c-0.001,0-0.003,0.001-0.004,0.001c-0.001,0-0.003-0.001-0.004-0.001
		c-31.2,0-51.079,5.65-62.145,15.176c-0.001,0-0.001,0-0.001,0c-9.201,8.428-13.916,17.638-14.014,27.372
		c-0.076,7.47,2.643,13.724,5.328,18.059c-25.393,7.765-35.808,23.386-36.994,25.281c-1.196,1.751-12.094,18.437-23.721,60.609
		C65.33,186.371,51.482,257.97,47.941,372.634c-0.001,0.027-0.002,33.436-0.002,33.436c0,2.483,1.824,4.591,4.282,4.948
		c0,0,32.725,4.732,32.964,4.732c2.106,0,4.023-1.334,4.725-3.375l10.994-31.987c0.01-0.027,3.793-12.644,3.793-12.644l4.805,21.225
		c0.516,2.277,2.541,3.896,4.877,3.896H301.37c2.336,0,4.36-1.618,4.877-3.896l4.806-21.227c0,0,3.784,12.617,3.794,12.646
		l10.992,31.987c0.701,2.041,2.618,3.375,4.726,3.375c0.238,0,32.966-4.732,32.966-4.732c2.458-0.357,4.281-2.465,4.281-4.948
		c0,0-0.001-33.407-0.002-33.436C364.268,257.97,350.42,186.371,339.427,146.498z M151.875,23.235
		C156.104,18.34,168.871,10,207.87,10c0.001,0,0.003,0,0.004,0c0.001,0,0.003,0,0.004,0c38.206,0,51.134,8.114,55.607,12.794
		c3.836,4.013,2.335,8.47,1.896,9.553c-0.614-0.113-9.333-1.171-14.959-1.526c-11.382-0.719-26.493-1.115-42.549-1.115
		c-16.056,0-31.166,0.396-42.548,1.115c-5.627,0.356-14.346,1.412-14.961,1.525C149.928,31.263,148.189,27.499,151.875,23.235z
		 M257.52,41.394c-2.256,1.781-15.656,11.188-19.703,14.399h-59.883c-4.047-3.211-17.449-12.619-19.706-14.4
		c9.162-0.877,26.1-1.688,49.646-1.688C231.43,39.705,248.361,40.517,257.52,41.394z M81.799,405.207l-23.86-3.465v-23.216
		l31.533,4.357L81.799,405.207z M101.528,343.481l-8.913,29.741l-34.535-4.771C61.783,258.158,75.082,189,85.663,150.251
		c7.318-26.797,14.361-43.075,18.602-51.501c17.065,34.64,2.425,78.506,2.384,78.696C95.727,227.512,99.413,310.013,101.528,343.481
		z M202.87,382.864h-84.497l-4.562-20.151h89.06V382.864z M202.87,352.713h-68.393v-21.166c4.013-6.474,21.135-35.709,25.355-69.528
		h43.037V352.713z M202.87,252.019h-47.531c-2.591,0-4.753,1.979-4.98,4.561c-3.257,36.926-24.851,70.456-25.067,70.788
		c-0.531,0.812-0.813,1.762-0.813,2.732v22.613h-12.288c-1.582-22.079-7.57-118.638,4.171-172.867
		c1.549-4.649,16.705-52.818-6.105-91.021c3.794-4.671,14.05-14.913,33.992-19.833c3.102,2.67,9.319,7.85,14.786,11.356
		c0.835,0.536,1.771,0.791,2.694,0.791c1.647,0,3.259-0.812,4.214-2.301c1.491-2.324,0.815-5.417-1.51-6.908
		c-6.487-4.16-14.604-11.327-15.407-12.042c-0.385-0.384-7.413-7.572-7.315-17.24c0.015-1.412,0.188-2.819,0.503-4.221
		c3.698,6.775,10.643,11.645,18.371,17.045c6.256,4.369,13.344,9.322,20.232,16.21c21.033,21.033,22.022,47.465,22.057,51.078
		C202.873,122.886,202.87,252.019,202.87,252.019z M189.031,65.793h37.687c-9.661,10.041-15.421,20.928-18.844,30.518
		C204.453,86.721,198.692,75.834,189.031,65.793z M297.376,382.864h-84.498v-20.151h89.059L297.376,382.864z M212.878,352.713
		v-90.694h43.037c4.223,33.819,21.345,63.055,25.357,69.528v21.166H212.878z M303.559,352.713h-12.286V330.1
		c0-0.969-0.283-1.919-0.812-2.73c-0.218-0.334-21.812-33.864-25.071-70.79c-0.228-2.581-2.39-4.561-4.98-4.561h-47.531
		c0,0-0.001-128.787-0.002-128.837c0-0.007,1.116-30.56,22.057-51.498c6.889-6.889,13.978-11.841,20.233-16.211
		c7.73-5.399,14.674-10.271,18.372-17.046c0.308,1.372,0.479,2.749,0.5,4.129c0.145,9.769-6.979,17-7.318,17.338
		c-0.84,0.746-8.921,7.879-15.403,12.037c-2.324,1.491-3,4.584-1.51,6.908c0.955,1.489,2.567,2.301,4.214,2.301
		c0.924,0,1.859-0.256,2.694-0.791c5.467-3.506,11.684-8.687,14.786-11.356c19.956,4.924,30.213,15.176,33.995,19.832
		c-22.811,38.202-7.656,86.374-6.107,91.022C311.131,234.075,305.141,330.634,303.559,352.713z M323.135,373.223l-8.915-29.746
		c2.116-33.472,5.803-115.967-5.121-166.031c-0.041-0.187-14.681-44.057,2.387-78.698c10.888,21.67,40.345,95.618,46.184,269.703
		L323.135,373.223z M357.812,401.742l-23.862,3.465l-7.671-22.323l31.533-4.357V401.742z"/>
</g>
<g>
</g>
<g>
</g>
<g>
</g>
<g>
</g>
<g>
</g>
<g>
</g>
<g>
</g>
<g>
</g>
<g>
</g>
<g>
</g>
<g>
</g>
<g>
</g>
<g>
</g>
<g>
</g>
<g>
</g>
</svg>
