<?xml version="1.0" encoding="iso-8859-1"?>
<!-- Generator: Adobe Illustrator 19.1.0, SVG Export Plug-In . SVG Version: 6.00 Build 0)  -->
<svg version="1.1" id="Capa_1" xmlns="http://www.w3.org/2000/svg" xmlns:xlink="http://www.w3.org/1999/xlink" x="0px" y="0px"
	 viewBox="0 0 406.973 406.973" style="enable-background:new 0 0 406.973 406.973;" xml:space="preserve">
<g>
	<path style="fill:#8EB6CA;" d="M110.457,177.673c-4.204-53.245-17.01-104.426-22.159-123.429
		c-4.755,7.308-12.013,26.077-12.733,72.897c-1.094,71.13-4.232,224.321-4.723,248.151c4.517,1.889,15.561,4.929,32.424-0.468
		c-1.396-32.741,4.354-80.733,8.421-109.523C116.912,228.307,110.464,177.756,110.457,177.673z"/>
	<path style="fill:#8EB6CA;" d="M198.486,173.37c-6.638-10.274-48.985-76.898-59.19-119.99c-0.459-1.936,0.273-3.959,1.865-5.152
		l5.77-4.328l-5.18-2.849c-2.162-1.19-3.134-3.78-2.286-6.098l2.893-7.909c-14.355,8.058-31.417,16.775-45.293,21.364
		c4.497,16.204,18.817,71.1,23.352,128.354c0.437,3.398,6.272,50.281,1.471,87.716l31.312,4.178c1.37,0.183,2.604,0.925,3.407,2.05
		c0.804,1.124,1.105,2.531,0.835,3.887l-5.384,26.927c-0.388,1.936-1.879,3.464-3.807,3.897c-0.373,0.084-4.71,1.025-11.056,1.025
		c-5.598,0-12.76-0.741-20.142-3.44c-3.171,29.298-5.726,64.87-2.536,85.525c6.79,2.71,26.902,9.885,45.55,8.186
		c2.951-0.79,27.302-8.35,38.42-44.126V173.37z"/>
	<path style="fill:#BBD3DF;" d="M146.588,277.861l-26.057-3.476c-0.722,5.366-1.517,11.564-2.313,18.312
		c9.891,4.289,19.822,3.976,24.718,3.435L146.588,277.861z"/>
	<path style="fill:#8EB6CA;" d="M208.486,154.491c14.039-23.012,40.106-68.276,48.663-100.26l-9.305-6.979
		c-1.358-1.019-2.107-2.658-1.987-4.352c0.119-1.694,1.09-3.211,2.577-4.029l8.207-4.514l-5.535-15.136
		c-3.361-2.004-6.327-3.816-8.787-5.339c-0.531,5.202-1.65,11.217-3.382,18.035c-7.503,29.539-23.659,89.553-30.451,114.702V154.491
		z"/>
	<path style="fill:#8EB6CA;" d="M196.472,380.057h14.029c-2.488-3.671-4.864-7.818-7.015-12.534
		C201.336,372.238,198.96,376.386,196.472,380.057z"/>
	<path style="fill:#8EB6CA;" d="M159.128,47.252l-9.305,6.979c8.557,31.984,34.624,77.248,48.663,100.26v-7.871
		c-6.792-25.149-22.948-85.163-30.451-114.702c-1.731-6.818-2.853-12.836-3.382-18.036c-2.46,1.523-5.426,3.335-8.787,5.339
		l-5.535,15.136l8.207,4.514c1.487,0.818,2.458,2.335,2.577,4.029C161.235,44.594,160.486,46.233,159.128,47.252z"/>
	<path style="fill:#BBD3DF;" d="M203.486,126.75c7.849-29.16,19.667-73.312,25.76-97.295c1.969-7.752,3.097-14.267,3.375-19.455
		h-58.249c0.271,5.188,1.381,11.686,3.355,19.455C183.819,53.438,195.638,97.59,203.486,126.75z"/>
	<path style="fill:#8EB6CA;" d="M318.676,54.245c-5.15,19.01-17.96,70.216-22.16,123.428c-0.007,0.083-6.455,50.634-1.229,87.629
		c4.065,28.785,9.814,76.763,8.422,109.503c16.827,5.381,27.879,2.384,32.423,0.484c-0.491-23.846-3.629-177.023-4.723-248.147
		C330.688,80.322,323.431,61.553,318.676,54.245z"/>
	<path style="fill:#8EB6CA;" d="M269.778,306.441c-6.347,0-10.683-0.941-11.056-1.025c-1.928-0.434-3.419-1.961-3.807-3.897
		l-5.384-26.927c-0.271-1.355,0.031-2.763,0.835-3.887c0.804-1.125,2.037-1.867,3.407-2.05l31.312-4.178
		c-4.802-37.435,1.034-84.318,1.471-87.716c4.534-57.254,18.855-112.15,23.352-128.354c-13.876-4.588-30.937-13.306-45.292-21.364
		l2.892,7.909c0.848,2.318-0.124,4.909-2.286,6.098l-5.18,2.849l5.77,4.328c1.592,1.193,2.324,3.217,1.865,5.152
		c-10.205,43.093-52.553,109.716-59.19,119.99v179.25c11.099,35.69,35.373,43.272,38.424,44.093
		c18.648,1.703,38.752-5.474,45.546-8.186c3.19-20.656,0.635-56.231-2.537-85.529C282.537,305.699,275.376,306.441,269.778,306.441z
		 M220.346,273.596c-0.93,0.931-2.22,1.471-3.529,1.471c-1.32,0-2.61-0.54-3.54-1.471c-0.931-0.93-1.46-2.22-1.46-3.529
		c0-1.32,0.529-2.61,1.46-3.54c0.93-0.931,2.22-1.46,3.54-1.46c1.31,0,2.6,0.529,3.529,1.46c0.931,0.93,1.471,2.22,1.471,3.54
		C221.816,271.376,221.276,272.666,220.346,273.596z M220.346,206.026c-0.93,0.93-2.22,1.46-3.529,1.46c-1.32,0-2.61-0.53-3.54-1.46
		c-0.931-0.94-1.46-2.22-1.46-3.54c0-1.32,0.529-2.6,1.46-3.54c0.93-0.931,2.22-1.46,3.54-1.46c1.31,0,2.6,0.529,3.529,1.46
		c0.931,0.93,1.471,2.22,1.471,3.54C221.816,203.807,221.276,205.096,220.346,206.026z M244.289,145.313
		c-1.791,0-3.445-0.958-4.337-2.511c-0.892-1.554-0.884-3.465,0.021-5.012l15.486-26.498c0.946-1.62,2.664-2.477,4.416-2.477
		c2.408,0,3.778,1.769,4.198,2.488l0.019-0.011l15.486,26.498c0.904,1.546,0.912,3.458,0.021,5.012
		c-0.892,1.553-2.546,2.511-4.337,2.511H244.289z"/>
	<path style="fill:#BBD3DF;" d="M260.385,277.861l3.65,18.258c4.906,0.53,14.881,0.831,24.72-3.423
		c-0.797-6.748-1.592-12.944-2.313-18.311L260.385,277.861z"/>
	<polygon style="fill:#C7BEA8;" points="253.003,135.313 266.548,135.313 259.775,123.725 	"/>
	<path style="fill:#3F352F;" d="M216.816,197.486c-1.32,0-2.61,0.529-3.54,1.46c-0.931,0.94-1.46,2.22-1.46,3.54
		c0,1.32,0.529,2.6,1.46,3.54c0.93,0.93,2.22,1.46,3.54,1.46c1.31,0,2.6-0.53,3.529-1.46c0.931-0.931,1.471-2.22,1.471-3.54
		c0-1.32-0.54-2.61-1.471-3.54C219.416,198.016,218.126,197.486,216.816,197.486z"/>
	<path style="fill:#3F352F;" d="M216.816,265.066c-1.32,0-2.61,0.529-3.54,1.46c-0.931,0.93-1.46,2.22-1.46,3.54
		c0,1.309,0.529,2.6,1.46,3.529c0.93,0.931,2.22,1.471,3.54,1.471c1.31,0,2.6-0.54,3.529-1.471c0.931-0.93,1.471-2.22,1.471-3.529
		c0-1.32-0.54-2.61-1.471-3.54C219.416,265.596,218.126,265.066,216.816,265.066z"/>
	<path style="fill:#3F352F;" d="M279.599,142.802c0.892-1.554,0.884-3.465-0.021-5.012l-15.486-26.498l-0.019,0.011
		c-0.42-0.719-1.79-2.488-4.198-2.488c-1.752,0-3.47,0.857-4.416,2.477l-15.486,26.498c-0.904,1.546-0.912,3.458-0.021,5.012
		c0.892,1.553,2.546,2.511,4.337,2.511h30.973C277.053,145.313,278.707,144.355,279.599,142.802z M253.003,135.313l6.772-11.589
		l6.772,11.589H253.003z"/>
	<path style="fill:#3F352F;" d="M317.335,40.211C289.7,32.711,240.82,1.124,240.33,0.805C239.52,0.28,238.574,0,237.608,0h-68.244
		c-0.966,0-1.911,0.28-2.722,0.806c-0.49,0.318-49.356,31.901-77.005,39.405c-4.223,1.073-22.893,10.182-24.071,86.776
		c-1.183,76.837-4.751,249.495-4.787,251.23c-0.035,1.712,0.808,3.323,2.234,4.27c0.478,0.317,8.3,5.352,22.249,5.351
		c5.355-0.001,11.639-0.779,18.734-2.82c0.303,2.858,0.678,5.552,1.147,8.006c0.306,1.594,1.365,2.94,2.842,3.611
		c1.019,0.464,23.039,10.339,46.186,10.339c2.403,0,7.646-0.395,7.851-0.441c0.843-0.191,13.665-3.318,26.364-16.475h30.197
		c12.699,13.156,25.521,16.283,26.364,16.475c0.205,0.047,5.446,0.441,7.851,0.441c23.145,0,45.167-9.875,46.187-10.339
		c1.477-0.671,2.536-2.018,2.842-3.611c0.47-2.45,0.843-5.137,1.146-7.989c7.101,2.041,13.376,2.804,18.736,2.804
		c13.946-0.001,21.771-5.033,22.249-5.351c1.427-0.946,2.27-2.558,2.234-4.27c-0.036-1.734-3.604-174.393-4.787-251.23
		C340.228,50.392,321.558,41.284,317.335,40.211z M238.938,31.917c1.731-6.818,2.851-12.833,3.382-18.035
		c2.46,1.523,5.426,3.335,8.787,5.339l5.535,15.136l-8.207,4.514c-1.487,0.818-2.458,2.335-2.577,4.029
		c-0.12,1.694,0.629,3.333,1.987,4.352l9.305,6.979c-8.557,31.984-34.624,77.248-48.663,100.26v-7.871
		C215.278,121.471,231.434,61.457,238.938,31.917z M232.621,10c-0.278,5.188-1.406,11.704-3.375,19.455
		c-6.093,23.983-17.911,68.134-25.76,97.295c-7.849-29.16-19.667-73.312-25.76-97.295c-1.974-7.77-3.083-14.267-3.355-19.455
		H232.621z M161.115,42.9c-0.119-1.694-1.09-3.211-2.577-4.029l-8.207-4.514l5.535-15.136c3.361-2.004,6.327-3.816,8.787-5.339
		c0.529,5.2,1.65,11.217,3.382,18.036c7.503,29.539,23.659,89.553,30.451,114.702v7.871c-14.039-23.012-40.106-68.276-48.663-100.26
		l9.305-6.979C160.486,46.233,161.235,44.594,161.115,42.9z M103.266,374.825c-16.863,5.396-27.907,2.356-32.424,0.468
		c0.49-23.83,3.629-177.021,4.723-248.151c0.721-46.821,7.979-65.59,12.733-72.897c5.149,19.002,17.955,70.184,22.159,123.429
		c0.007,0.083,6.455,50.634,1.229,87.629C107.62,294.093,101.87,342.084,103.266,374.825z M160.066,396.713
		c-18.647,1.699-38.76-5.476-45.55-8.186c-3.189-20.655-0.635-56.227,2.536-85.525c7.382,2.698,14.544,3.44,20.142,3.44
		c6.346,0,10.683-0.941,11.056-1.025c1.928-0.434,3.419-1.961,3.807-3.897l5.384-26.927c0.27-1.355-0.031-2.763-0.835-3.887
		c-0.804-1.125-2.037-1.867-3.407-2.05l-31.312-4.178c4.802-37.435-1.034-84.318-1.471-87.716
		c-4.534-57.254-18.854-112.15-23.352-128.354c13.876-4.588,30.938-13.306,45.293-21.364l-2.893,7.909
		c-0.848,2.318,0.124,4.909,2.286,6.098l5.18,2.849l-5.77,4.328c-1.592,1.193-2.324,3.217-1.865,5.152
		c10.205,43.093,52.553,109.716,59.19,119.99v179.217C187.368,388.363,163.018,395.923,160.066,396.713z M118.218,292.698
		c0.797-6.749,1.592-12.946,2.313-18.312l26.057,3.476l-3.652,18.271C138.04,296.674,128.108,296.987,118.218,292.698z
		 M196.472,380.057c2.488-3.671,4.864-7.818,7.015-12.534c2.15,4.716,4.526,8.863,7.015,12.534H196.472z M292.456,388.527
		c-6.794,2.712-26.897,9.889-45.546,8.186c-3.051-0.82-27.325-8.402-38.424-44.093V173.37c6.638-10.274,48.985-76.898,59.19-119.99
		c0.459-1.936-0.273-3.959-1.865-5.152l-5.77-4.328l5.18-2.849c2.162-1.19,3.134-3.78,2.286-6.098l-2.892-7.909
		c14.355,8.058,31.416,16.775,45.292,21.364c-4.497,16.204-18.817,71.1-23.352,128.354c-0.436,3.398-6.272,50.281-1.471,87.716
		l-31.312,4.178c-1.37,0.183-2.604,0.925-3.407,2.05c-0.804,1.124-1.105,2.531-0.835,3.887l5.384,26.927
		c0.388,1.936,1.879,3.464,3.807,3.897c0.373,0.084,4.709,1.025,11.056,1.025c5.598,0,12.759-0.742,20.141-3.443
		C293.091,332.296,295.646,367.871,292.456,388.527z M288.755,292.696c-9.839,4.254-19.813,3.953-24.72,3.423l-3.65-18.258
		l26.057-3.476C287.163,279.752,287.958,285.948,288.755,292.696z M303.708,374.805c1.392-32.74-4.357-80.718-8.422-109.503
		c-5.226-36.995,1.223-87.545,1.229-87.629c4.2-53.212,17.01-104.418,22.16-123.428c4.755,7.308,12.012,26.077,12.732,72.896
		c1.094,71.124,4.231,224.302,4.723,248.147C331.587,377.188,320.535,380.185,303.708,374.805z"/>
</g>
<g>
</g>
<g>
</g>
<g>
</g>
<g>
</g>
<g>
</g>
<g>
</g>
<g>
</g>
<g>
</g>
<g>
</g>
<g>
</g>
<g>
</g>
<g>
</g>
<g>
</g>
<g>
</g>
<g>
</g>
</svg>
