<?xml version="1.0" encoding="iso-8859-1"?>
<!-- Generator: Adobe Illustrator 19.1.0, SVG Export Plug-In . SVG Version: 6.00 Build 0)  -->
<svg version="1.1" id="Capa_1" xmlns="http://www.w3.org/2000/svg" xmlns:xlink="http://www.w3.org/1999/xlink" x="0px" y="0px"
	 viewBox="0 0 435.871 435.871" style="enable-background:new 0 0 435.871 435.871;" xml:space="preserve">
<g>
	<path style="fill:#C4573F;" d="M262.308,88.183c-0.001-0.043,0.406-16.299-13.059-16.299h-62.628
		c-12.981,0-13.058,16.259-13.059,16.308c-0.006,0.215-0.271,15.867,7.369,32.852h74.008
		C262.58,104.058,262.314,88.404,262.308,88.183z"/>
	<path style="fill:#C7BEA8;" d="M242.083,140.472c2.848-3.029,5.32-6.198,7.422-9.428h-63.139c2.102,3.23,4.574,6.398,7.422,9.428
		H242.083z"/>
	<path style="fill:#C4573F;" d="M269.436,277.716c0.01-1.914,0.018-46.492,0.018-46.492c0-59.102-21.889-77.457-26.662-80.753
		h-49.677c-4.697,3.355-26.697,22.208-26.697,80.753c0,0,0.008,44.578,0.018,46.492c0.411,80.293-4.505,129.002-15.001,148.154
		h14.545c2.754-3.977,13.591-29.184,13.591-179.34c0-2.762,2.239-5,5-5c2.761,0,5,2.238,5,5c0,68.912-2.234,119.994-6.641,151.826
		c-1.896,13.691-3.985,22.17-6.002,27.514h36.008V210.666c0-2.762,2.239-5.001,5-5.001s5,2.238,5,5.001v215.205h36.008
		c-2.018-5.344-4.107-13.822-6.002-27.516c-4.407-31.83-6.642-82.912-6.642-151.824c0-2.762,2.239-5,5-5c2.761,0,5,2.238,5,5
		c0,150.164,10.838,175.365,13.592,179.34h14.545C273.941,406.718,269.025,358.009,269.436,277.716z"/>
	<path style="fill:#3F352F;" d="M298.099,425.871c-0.279,0-1.13,0-2.457-1.334c-6.3-6.332-16.784-33.82-16.207-146.768
		c0.01-1.936,0.018-46.545,0.018-46.545c0-55.124-18.517-78.292-27.786-86.434c20.992-24.367,20.691-54.609,20.639-56.813
		c-0.022-12.393-5.866-21.548-15.164-24.797v-7.828c0-0.859-0.12-21.18-10.586-34.132C233.51,5.075,220.089,0.442,219.524,0.253
		l-0.006,0.017c-0.996-0.335-2.099-0.377-3.172-0.017c-0.565,0.189-13.986,4.823-27.032,20.967
		c-10.466,12.952-10.586,33.273-10.586,34.132v7.827c-9.298,3.249-15.143,12.404-15.165,24.797
		c-0.053,2.197-0.356,32.444,20.639,56.814c-9.269,8.143-27.785,31.311-27.785,86.434c0,0,0.008,44.609,0.018,46.545
		c0.578,112.947-9.906,140.436-16.206,146.768c-1.327,1.334-2.177,1.334-2.457,1.334c-2.761,0-5,2.238-5,5c0,2.762,2.239,5,5,5
		h160.327c2.761,0,5-2.238,5-5C303.099,428.109,300.86,425.871,298.099,425.871z M188.728,55.358
		c0.001-0.176,0.143-17.679,8.364-27.853c8.624-10.672,17.348-15.474,20.841-17.096c3.51,1.629,12.227,6.432,20.845,17.096
		c8.222,10.174,8.364,27.678,8.364,27.847v6.532h-58.415V55.358z M180.931,121.044c-7.641-16.985-7.375-32.637-7.369-32.852
		c0.001-0.049,0.078-16.308,13.059-16.308h62.628c13.465,0,13.058,16.256,13.059,16.299c0.006,0.221,0.271,15.875-7.369,32.861
		H180.931z M249.504,131.044c-2.102,3.23-4.574,6.398-7.422,9.428h-48.295c-2.848-3.029-5.32-6.198-7.422-9.428H249.504z
		 M269.891,425.871c-2.754-3.975-13.592-29.176-13.592-179.34c0-2.762-2.239-5-5-5c-2.761,0-5,2.238-5,5
		c0,68.912,2.234,119.994,6.642,151.824c1.895,13.693,3.984,22.172,6.002,27.516h-36.008V210.666c0-2.762-2.239-5.001-5-5.001
		s-5,2.238-5,5.001v215.205h-36.008c2.018-5.344,4.106-13.822,6.002-27.514c4.407-31.832,6.641-82.914,6.641-151.826
		c0-2.762-2.239-5-5-5c-2.761,0-5,2.238-5,5c0,150.156-10.837,175.363-13.591,179.34h-14.545
		c10.495-19.152,15.411-67.861,15.001-148.154c-0.01-1.914-0.018-46.492-0.018-46.492c0-58.544,22-77.398,26.697-80.753h49.677
		c4.772,3.295,26.662,21.651,26.662,80.753c0,0-0.008,44.578-0.018,46.492c-0.411,80.293,4.505,129.002,15,148.154H269.891z"/>
</g>
<g>
</g>
<g>
</g>
<g>
</g>
<g>
</g>
<g>
</g>
<g>
</g>
<g>
</g>
<g>
</g>
<g>
</g>
<g>
</g>
<g>
</g>
<g>
</g>
<g>
</g>
<g>
</g>
<g>
</g>
</svg>
