<?xml version="1.0" encoding="iso-8859-1"?>
<!-- Generator: Adobe Illustrator 19.1.0, SVG Export Plug-In . SVG Version: 6.00 Build 0)  -->
<svg version="1.1" id="Capa_1" xmlns="http://www.w3.org/2000/svg" xmlns:xlink="http://www.w3.org/1999/xlink" x="0px" y="0px"
	 viewBox="0 0 418.331 418.331" style="enable-background:new 0 0 418.331 418.331;" xml:space="preserve">
<g>
	<path style="fill:#CBE8DE;" d="M261.883,46.396c0,0.597,0.116,1.262,0.961,2.092c2.789,2.741,10.502,4.557,20.369,4.933
		c-1.514-9.544-2.861-16.429-3.684-20.351h-17.647V46.396z"/>
	<rect x="177.692" y="10" style="fill:#8EB6CA;" width="26.473" height="13.07"/>
	<path style="fill:#8EB6CA;" d="M240.638,10h-26.474v13.07h26.474V10z M225.465,20.075c-0.93,0.93-2.22,1.459-3.54,1.459
		c-1.319,0-2.601-0.529-3.53-1.459c-0.94-0.93-1.47-2.221-1.47-3.541c0-1.319,0.53-2.609,1.47-3.54c0.93-0.93,2.211-1.46,3.53-1.46
		c1.32,0,2.61,0.53,3.54,1.46c0.93,0.93,1.46,2.22,1.46,3.54C226.925,17.854,226.394,19.146,225.465,20.075z"/>
	<path style="fill:#8EB6CA;" d="M222.539,72.839V33.07h-8.374v58.046c1.077-0.389,2.227-0.996,3.302-1.96
		C220.785,86.183,222.539,80.54,222.539,72.839z"/>
	<path style="fill:#CBE8DE;" d="M126.258,408.331h65.896c0.009-2.92,0.027-7.055,0.059-12.191h-65.955V408.331z"/>
	<rect x="139.778" y="10" style="fill:#8EB6CA;" width="27.914" height="13.07"/>
	<path style="fill:#CBE8DE;" d="M156.446,46.396V33.07h-17.645c-0.822,3.923-2.17,10.807-3.683,20.35
		c9.863-0.376,17.577-2.191,20.365-4.931C156.33,47.659,156.446,46.993,156.446,46.396z"/>
	<path style="fill:#8EB6CA;" d="M166.446,46.396c0,3.494-1.366,6.685-3.952,9.226c-3.276,3.218-8.322,5.183-13.922,6.35
		c-0.058,0.666-0.114,1.352-0.17,2.068c-0.202,2.621-2.393,4.613-4.979,4.613c-0.13,0-4.914,0.033-4.99-5.373
		c-1.626,0.105-3.241,0.172-4.818,0.201c-3.553,25.198-7.357,63.303-7.357,110.969v211.689h9.7l-0.009-0.949
		c-0.026-2.76,2.191-5.02,4.953-5.047h0.047c2.74,0,4.974,2.209,5,4.953l0.01,1.043h46.328
		c0.486-58.424,2.611-195.601,11.878-257.072V33.07h-37.719V46.396z M135.754,151.186c0.033-2.74,2.266-4.939,4.999-4.939
		c0.02,0,0.04,0,0.061,0.001c2.762,0.033,4.973,2.299,4.939,5.06c-0.051,4.114-0.096,8.292-0.137,12.519
		c-0.026,2.746-2.26,4.952-4.998,4.952c-0.018,0-0.033,0-0.05,0c-2.761-0.026-4.977-2.287-4.952-5.048
		C135.659,159.493,135.705,155.308,135.754,151.186z M135.45,184.633c0.018-2.751,2.253-4.968,4.999-4.968c0.012,0,0.021,0,0.033,0
		c2.761,0.018,4.985,2.27,4.968,5.031c-0.026,4.15-0.05,8.328-0.07,12.524c-0.014,2.753-2.249,4.976-4.999,4.976
		c-0.009,0-0.018,0-0.025,0c-2.762-0.014-4.989-2.264-4.976-5.025C135.4,192.971,135.424,188.788,135.45,184.633z M135.303,218.081
		c0.007-2.758,2.244-4.988,5-4.988c0.004,0,0.009,0,0.013,0c2.762,0.006,4.994,2.25,4.987,5.012
		c-0.011,4.178-0.019,8.357-0.023,12.527c-0.003,2.758-2.241,4.992-5,4.992c-0.002,0-0.004,0-0.007,0
		c-2.762-0.002-4.996-2.244-4.993-5.006C135.285,226.444,135.293,222.262,135.303,218.081z M135.273,251.508
		c-0.002-2.762,2.236-5,4.998-5.002h0.001c2.761,0,4.999,2.238,5.001,4.998c0.001,4.201,0.006,8.377,0.012,12.516
		c0.004,2.762-2.23,5.004-4.992,5.008c-0.002,0-0.006,0-0.008,0c-2.758,0-4.996-2.234-5-4.992
		C135.279,259.893,135.274,255.713,135.273,251.508z M135.332,284.924c-0.008-2.762,2.225-5.006,4.985-5.014
		c0.005,0,0.011,0,0.016,0c2.755,0,4.991,2.228,4.999,4.984c0.014,4.242,0.027,8.422,0.043,12.525c0.01,2.762-2.22,5.01-4.98,5.02
		c-0.007,0-0.014,0-0.02,0c-2.753,0-4.989-2.227-5-4.98C135.359,293.352,135.345,289.17,135.332,284.924z M135.468,318.348
		c-0.014-2.76,2.213-5.01,4.975-5.025c0.008,0,0.018,0,0.025,0c2.75,0,4.986,2.223,5,4.975c0.021,4.309,0.045,8.49,0.068,12.527
		c0.017,2.762-2.209,5.014-4.97,5.029c-0.011,0-0.02,0-0.03,0c-2.748,0-4.982-2.219-5-4.971
		C135.513,326.844,135.49,322.659,135.468,318.348z M140.807,369.27c-0.014,0-0.026,0-0.04,0c-2.744,0-4.977-2.213-5-4.961
		l-0.094-12.535c-0.02-2.762,2.203-5.016,4.965-5.035c0.012,0,0.023,0,0.036,0c2.745,0,4.98,2.215,4.999,4.965l0.094,12.525
		C145.789,366.991,143.568,369.247,140.807,369.27z M146.054,130.446c-0.047,2.731-2.276,4.914-4.998,4.914
		c-0.029,0-0.058,0-0.087,0c-2.761-0.048-4.961-2.324-4.914-5.086c0.073-4.291,0.153-8.48,0.239-12.551
		c0.059-2.76,2.352-4.951,5.105-4.893c2.761,0.059,4.952,2.344,4.893,5.105C146.207,121.992,146.127,126.167,146.054,130.446z
		 M146.826,97.103c-0.084,2.707-2.305,4.846-4.994,4.846c-0.053,0-0.105-0.001-0.158-0.002c-2.76-0.086-4.928-2.393-4.842-5.152
		c0.137-4.43,0.285-8.632,0.445-12.574c0.111-2.76,2.428-4.882,5.198-4.794c2.759,0.112,4.905,2.439,4.794,5.198
		C147.11,88.537,146.963,92.706,146.826,97.103z"/>
	<path style="fill:#CBE8DE;" d="M226.175,408.331h65.897v-12.191h-65.958C226.148,401.276,226.166,405.411,226.175,408.331z"/>
	<rect x="250.638" y="10" style="fill:#8EB6CA;" width="27.913" height="13.07"/>
	<path style="fill:#8EB6CA;" d="M279.893,63.28c-0.052,4.872-3.772,5.25-4.987,5.25c-2.586,0-4.776-1.992-4.978-4.613
		c-0.053-0.672-0.105-1.314-0.159-1.943c-5.604-1.166-10.655-3.131-13.933-6.352c-2.586-2.541-3.953-5.731-3.953-9.226V33.07
		h-19.344v39.768c0,10.907-2.892,18.961-8.596,23.939c-3.312,2.891-6.891,4.145-9.778,4.66v27.629
		c9.266,61.471,11.391,198.646,11.877,257.072h46.329l0.01-1.043c0.026-2.744,2.26-4.953,5-4.953h0.047
		c2.762,0.027,4.979,2.287,4.953,5.047l-0.009,0.949h9.701V174.45c0-47.666-3.805-85.77-7.356-110.969
		C283.137,63.452,281.52,63.386,279.893,63.28z M283.05,230.559c0.003,2.762-2.232,5.004-4.993,5.006c-0.002,0-0.005,0-0.007,0
		c-2.759,0-4.997-2.234-5-4.992c-0.005-4.172-0.013-8.354-0.023-12.531c-0.007-2.762,2.227-5.006,4.987-5.014
		c0.004,0,0.009,0,0.014,0c2.756,0,4.992,2.23,4.999,4.988C283.037,222.2,283.045,226.383,283.05,230.559z M282.95,197.101
		c0.013,2.761-2.214,5.01-4.976,5.023c-0.008,0-0.017,0-0.025,0c-2.75,0-4.985-2.223-4.999-4.975
		c-0.021-4.199-0.044-8.379-0.07-12.529c-0.017-2.762,2.207-5.015,4.968-5.032c0.012,0,0.021,0,0.033,0
		c2.746,0,4.982,2.218,4.999,4.968C282.906,188.712,282.929,192.897,282.95,197.101z M282.713,163.645
		c0.026,2.761-2.19,5.022-4.951,5.048c-0.017,0-0.033,0-0.05,0c-2.739,0-4.972-2.206-4.999-4.952
		c-0.041-4.229-0.086-8.408-0.136-12.523c-0.034-2.762,2.178-5.027,4.939-5.061c2.77-0.033,5.027,2.178,5.06,4.939
		C282.626,155.22,282.672,159.407,282.713,163.645z M271.061,84.511c-0.112-2.76,2.034-5.088,4.794-5.199
		c2.748-0.108,5.086,2.034,5.198,4.793c0.159,3.943,0.308,8.147,0.445,12.579c0.085,2.761-2.083,5.067-4.843,5.152
		c-0.053,0.001-0.105,0.003-0.158,0.003c-2.689,0-4.91-2.139-4.994-4.846C271.367,92.595,271.22,88.423,271.061,84.511z
		 M272.275,130.349c-0.072-4.28-0.152-8.457-0.238-12.515c-0.059-2.761,2.133-5.046,4.892-5.104
		c2.784-0.018,5.047,2.133,5.105,4.893c0.086,4.071,0.166,8.262,0.238,12.556c0.048,2.761-2.152,5.038-4.913,5.085
		c-0.028,0-0.058,0-0.087,0C274.55,135.263,272.322,133.081,272.275,130.349z M282.562,364.301c-0.022,2.748-2.257,4.961-5,4.961
		c-0.014,0-0.026,0-0.04,0c-2.761-0.023-4.981-2.279-4.96-5.041l0.094-12.531c0.02-2.748,2.255-4.965,4.999-4.965
		c0.013,0,0.024,0,0.036,0c2.762,0.022,4.984,2.275,4.965,5.037L282.562,364.301z M282.793,330.864c-0.018,2.75-2.252,4.969-5,4.969
		c-0.01,0-0.02,0-0.03,0c-2.761-0.016-4.986-2.268-4.97-5.029c0.023-4.039,0.047-8.221,0.068-12.531c0.014-2.752,2.25-4.975,5-4.975
		c0.008,0,0.017,0,0.025,0c2.762,0.016,4.988,2.266,4.975,5.025C282.84,322.635,282.816,326.821,282.793,330.864z M282.955,297.426
		c-0.011,2.754-2.247,4.98-5,4.98c-0.006,0-0.012,0-0.02,0c-2.761-0.012-4.99-2.258-4.98-5.02c0.016-4.105,0.029-8.287,0.043-12.531
		c0.008-2.756,2.245-4.984,4.999-4.984c0.005,0,0.011,0,0.016,0c2.761,0.008,4.993,2.254,4.985,5.016
		C282.984,289.133,282.97,293.317,282.955,297.426z M283.045,263.989c-0.004,2.758-2.242,4.992-5,4.992c-0.002,0-0.005,0-0.008,0
		c-2.762-0.004-4.996-2.246-4.992-5.008c0.006-4.141,0.011-8.316,0.012-12.52c0.002-2.762,2.24-4.998,5-4.998
		c0.001,0,0.002,0,0.002,0c2.762,0,5,2.24,4.998,5.002C283.055,255.665,283.05,259.844,283.045,263.989z"/>
	<path style="fill:#3F352F;" d="M140.355,202.196c0.008,0,0.017,0,0.025,0c2.75,0,4.985-2.223,4.999-4.976
		c0.021-4.196,0.044-8.374,0.07-12.524c0.018-2.762-2.207-5.014-4.968-5.031c-0.012,0-0.021,0-0.033,0
		c-2.746,0-4.981,2.217-4.999,4.968c-0.026,4.155-0.05,8.338-0.07,12.539C135.366,199.933,137.593,202.183,140.355,202.196z"/>
	<path style="fill:#3F352F;" d="M140.569,168.777c0.017,0,0.032,0,0.05,0c2.738,0,4.972-2.206,4.998-4.952
		c0.041-4.227,0.086-8.404,0.137-12.519c0.033-2.761-2.178-5.026-4.939-5.06c-0.021-0.001-0.041-0.001-0.061-0.001
		c-2.733,0-4.966,2.199-4.999,4.939c-0.049,4.122-0.095,8.308-0.137,12.544C135.592,166.49,137.808,168.751,140.569,168.777z"/>
	<path style="fill:#3F352F;" d="M140.273,235.624c0.003,0,0.005,0,0.007,0c2.759,0,4.997-2.234,5-4.992
		c0.005-4.17,0.013-8.35,0.023-12.527c0.007-2.762-2.226-5.006-4.987-5.012c-0.004,0-0.009,0-0.013,0c-2.756,0-4.993,2.23-5,4.988
		c-0.011,4.182-0.019,8.363-0.023,12.537C135.277,233.379,137.511,235.622,140.273,235.624z"/>
	<path style="fill:#3F352F;" d="M140.675,346.739c-0.013,0-0.024,0-0.036,0c-2.762,0.02-4.984,2.273-4.965,5.035l0.094,12.535
		c0.023,2.748,2.256,4.961,5,4.961c0.014,0,0.026,0,0.04,0c2.761-0.023,4.981-2.279,4.96-5.041l-0.094-12.525
		C145.654,348.954,143.42,346.739,140.675,346.739z"/>
	<path style="fill:#3F352F;" d="M141.399,112.831c-2.753-0.059-5.046,2.133-5.105,4.893c-0.086,4.07-0.166,8.26-0.239,12.551
		c-0.047,2.762,2.153,5.038,4.914,5.086c0.029,0,0.058,0,0.087,0c2.722,0,4.951-2.183,4.998-4.914
		c0.072-4.279,0.152-8.454,0.238-12.51C146.351,115.175,144.16,112.89,141.399,112.831z"/>
	<path style="fill:#3F352F;" d="M142.475,79.426c-2.771-0.088-5.087,2.034-5.198,4.794c-0.16,3.942-0.309,8.144-0.445,12.574
		c-0.086,2.76,2.082,5.066,4.842,5.152c0.053,0.001,0.105,0.002,0.158,0.002c2.689,0,4.91-2.139,4.994-4.846
		c0.137-4.396,0.284-8.565,0.443-12.479C147.381,81.865,145.234,79.538,142.475,79.426z"/>
	<path style="fill:#3F352F;" d="M140.285,269.028c0.002,0,0.006,0,0.008,0c2.762-0.004,4.996-2.246,4.992-5.008
		c-0.006-4.139-0.011-8.314-0.012-12.516c-0.002-2.76-2.24-4.998-5.001-4.998h-0.001c-2.762,0.002-5,2.24-4.998,5.002
		c0.001,4.205,0.006,8.385,0.012,12.527C135.289,266.793,137.527,269.028,140.285,269.028z"/>
	<path style="fill:#3F352F;" d="M140.375,302.44c0.006,0,0.013,0,0.02,0c2.761-0.01,4.99-2.258,4.98-5.02
		c-0.016-4.104-0.029-8.283-0.043-12.525c-0.008-2.756-2.244-4.984-4.999-4.984c-0.005,0-0.011,0-0.016,0
		c-2.761,0.008-4.993,2.252-4.985,5.014c0.014,4.246,0.027,8.428,0.043,12.535C135.385,300.213,137.622,302.44,140.375,302.44z"/>
	<path style="fill:#3F352F;" d="M140.537,335.854c0.01,0,0.02,0,0.03,0c2.761-0.016,4.986-2.268,4.97-5.029
		c-0.023-4.037-0.047-8.219-0.068-12.527c-0.014-2.752-2.25-4.975-5-4.975c-0.008,0-0.018,0-0.025,0
		c-2.762,0.016-4.988,2.266-4.975,5.025c0.021,4.311,0.045,8.496,0.068,12.535C135.554,333.635,137.789,335.854,140.537,335.854z"/>
	<path style="fill:#3F352F;" d="M276.498,101.839c0.053,0,0.105-0.002,0.158-0.003c2.76-0.085,4.928-2.392,4.843-5.152
		c-0.138-4.432-0.286-8.636-0.445-12.579c-0.112-2.759-2.45-4.901-5.198-4.793c-2.76,0.111-4.906,2.439-4.794,5.199
		c0.159,3.912,0.306,8.084,0.442,12.482C271.588,99.7,273.808,101.839,276.498,101.839z"/>
	<path style="fill:#3F352F;" d="M277.273,135.263c0.029,0,0.059,0,0.087,0c2.761-0.047,4.961-2.324,4.913-5.085
		c-0.072-4.294-0.152-8.484-0.238-12.556c-0.059-2.76-2.321-4.91-5.105-4.893c-2.76,0.059-4.951,2.344-4.892,5.104
		c0.086,4.058,0.166,8.234,0.238,12.515C272.322,133.081,274.55,135.263,277.273,135.263z"/>
	<path style="fill:#3F352F;" d="M277.515,146.157c-2.761,0.033-4.973,2.299-4.939,5.061c0.05,4.115,0.095,8.294,0.136,12.523
		c0.027,2.746,2.26,4.952,4.999,4.952c0.017,0,0.033,0,0.05,0c2.761-0.026,4.978-2.287,4.951-5.048
		c-0.041-4.238-0.087-8.426-0.137-12.549C282.543,148.335,280.285,146.124,277.515,146.157z"/>
	<path style="fill:#3F352F;" d="M277.881,179.588c-0.012,0-0.022,0-0.033,0c-2.761,0.017-4.985,2.27-4.968,5.032
		c0.026,4.15,0.05,8.33,0.07,12.529c0.014,2.752,2.249,4.975,4.999,4.975c0.009,0,0.018,0,0.025,0
		c2.762-0.014,4.988-2.263,4.976-5.023c-0.021-4.203-0.044-8.389-0.07-12.545C282.862,181.806,280.627,179.588,277.881,179.588z"/>
	<path style="fill:#3F352F;" d="M278.058,246.456c0,0-0.001,0-0.002,0c-2.76,0-4.998,2.236-5,4.998
		c-0.001,4.203-0.006,8.379-0.012,12.52c-0.004,2.762,2.23,5.004,4.992,5.008c0.003,0,0.006,0,0.008,0c2.758,0,4.996-2.234,5-4.992
		c0.006-4.145,0.011-8.324,0.012-12.531C283.058,248.696,280.82,246.456,278.058,246.456z"/>
	<path style="fill:#3F352F;" d="M277.886,313.297c-0.009,0-0.018,0-0.025,0c-2.75,0-4.986,2.223-5,4.975
		c-0.022,4.311-0.045,8.492-0.068,12.531c-0.017,2.762,2.209,5.014,4.97,5.029c0.011,0,0.021,0,0.03,0c2.748,0,4.982-2.219,5-4.969
		c0.023-4.043,0.047-8.229,0.068-12.541C282.875,315.563,280.648,313.313,277.886,313.297z"/>
	<path style="fill:#3F352F;" d="M277.691,346.725c-0.012,0-0.023,0-0.036,0c-2.744,0-4.979,2.217-4.999,4.965l-0.094,12.531
		c-0.022,2.762,2.199,5.018,4.96,5.041c0.014,0,0.026,0,0.04,0c2.743,0,4.978-2.213,5-4.961l0.094-12.539
		C282.675,349,280.453,346.747,277.691,346.725z"/>
	<path style="fill:#3F352F;" d="M278.012,279.872c-0.005,0-0.011,0-0.016,0c-2.754,0-4.991,2.228-4.999,4.984
		c-0.014,4.244-0.027,8.426-0.043,12.531c-0.01,2.762,2.22,5.008,4.98,5.02c0.008,0,0.014,0,0.02,0c2.753,0,4.989-2.227,5-4.98
		c0.016-4.109,0.029-8.293,0.043-12.539C283.006,282.125,280.773,279.879,278.012,279.872z"/>
	<path style="fill:#3F352F;" d="M278.027,213.028c-0.005,0-0.01,0-0.014,0c-2.761,0.008-4.994,2.252-4.987,5.014
		c0.011,4.178,0.019,8.359,0.023,12.531c0.003,2.758,2.241,4.992,5,4.992c0.002,0,0.005,0,0.007,0
		c2.762-0.002,4.996-2.244,4.993-5.006c-0.005-4.176-0.013-8.359-0.023-12.543C283.019,215.258,280.783,213.028,278.027,213.028z"/>
	<path style="fill:#3F352F;" d="M221.925,11.535c-1.319,0-2.601,0.53-3.53,1.46c-0.94,0.93-1.47,2.22-1.47,3.54
		c0,1.32,0.53,2.611,1.47,3.541c0.93,0.93,2.211,1.459,3.53,1.459c1.32,0,2.61-0.529,3.54-1.459c0.93-0.93,1.46-2.221,1.46-3.541
		c0-1.319-0.53-2.609-1.46-3.54C224.535,12.065,223.245,11.535,221.925,11.535z"/>
	<path style="fill:#3F352F;" d="M288.551,5c0-2.761-2.239-5-5-5H134.778c-2.761,0-5,2.239-5,5v22.518
		c-1.464,6.397-13.52,61.731-13.52,146.933v238.88c0,2.76,2.239,5,5,5h75.885c2.762,0,5-2.24,5-5
		c0-1.709,0.097-143.822,7.023-235.941c6.925,92.119,7.021,234.232,7.021,235.941c0,2.76,2.239,5,5,5h75.887c2.761,0,5-2.24,5-5
		V174.45c0-85.22-12.062-140.561-13.521-146.938V5z M139.778,10h27.914v13.07h-27.914V10z M138.801,33.07h17.645v13.326
		c0,0.597-0.116,1.263-0.962,2.093c-2.788,2.739-10.502,4.555-20.365,4.931C136.632,43.877,137.979,36.993,138.801,33.07z
		 M192.154,408.331h-65.896v-12.191h65.955C192.181,401.276,192.163,405.411,192.154,408.331z M204.165,129.067
		c-9.267,61.471-11.392,198.648-11.878,257.072h-46.328l-0.01-1.043c-0.026-2.744-2.26-4.953-5-4.953h-0.047
		c-2.762,0.027-4.98,2.287-4.953,5.047l0.009,0.949h-9.7V174.45c0-47.666,3.805-85.77,7.357-110.969
		c1.577-0.029,3.192-0.096,4.818-0.201c0.076,5.406,4.86,5.373,4.99,5.373c2.586,0,4.776-1.992,4.979-4.613
		c0.056-0.717,0.112-1.402,0.17-2.068c5.6-1.167,10.646-3.132,13.922-6.35c2.586-2.541,3.952-5.731,3.952-9.226V33.07h37.719
		V129.067z M204.165,23.07h-26.473V10h26.473V23.07z M283.213,53.422c-9.867-0.377-17.58-2.192-20.369-4.933
		c-0.845-0.83-0.961-1.495-0.961-2.092V33.07h17.647C280.351,36.993,281.699,43.878,283.213,53.422z M250.638,10h27.913v13.07
		h-27.913V10z M214.165,10h26.474v13.07h-26.474V10z M214.165,33.07h8.374v39.768c0,7.701-1.754,13.344-5.072,16.317
		c-1.075,0.964-2.225,1.571-3.302,1.96V33.07z M292.073,408.331h-65.897c-0.01-2.92-0.027-7.055-0.061-12.191h65.958V408.331z
		 M292.073,174.45v211.689h-9.701l0.009-0.949c0.026-2.76-2.191-5.02-4.953-5.047h-0.047c-2.74,0-4.974,2.209-5,4.953l-0.01,1.043
		h-46.329c-0.486-58.426-2.611-195.601-11.877-257.072v-27.629c2.888-0.516,6.466-1.77,9.778-4.66
		c5.704-4.979,8.596-13.032,8.596-23.939V33.07h19.344v13.326c0,3.494,1.367,6.685,3.953,9.226
		c3.277,3.221,8.328,5.186,13.933,6.352c0.054,0.629,0.107,1.271,0.159,1.943c0.202,2.621,2.393,4.613,4.978,4.613
		c1.215,0,4.936-0.378,4.987-5.25c1.627,0.105,3.244,0.172,4.823,0.201C288.268,88.68,292.073,126.784,292.073,174.45z"/>
</g>
<g>
</g>
<g>
</g>
<g>
</g>
<g>
</g>
<g>
</g>
<g>
</g>
<g>
</g>
<g>
</g>
<g>
</g>
<g>
</g>
<g>
</g>
<g>
</g>
<g>
</g>
<g>
</g>
<g>
</g>
</svg>
