<?xml version="1.0" encoding="iso-8859-1"?>
<!-- Generator: Adobe Illustrator 19.1.0, SVG Export Plug-In . SVG Version: 6.00 Build 0)  -->
<svg version="1.1" id="Capa_1" xmlns="http://www.w3.org/2000/svg" xmlns:xlink="http://www.w3.org/1999/xlink" x="0px" y="0px"
	 viewBox="0 0 440.443 440.443" style="enable-background:new 0 0 440.443 440.443;" xml:space="preserve">
<g>
	<path style="fill:#E3D282;" d="M165.013,136.982h-25.352c-0.235,17.172-0.052,36.699,0.239,56.043h25.113V136.982z"/>
	<path style="fill:#E3D282;" d="M146.804,404.363c0.194,1.861,0.363,3.446,0.5,4.713c6.657,1.392,14.015,2.096,21.929,2.096
		c10.811,0,20.142-1.334,25.022-2.19c0.085-1.341,0.189-3.018,0.311-4.985c-9.911,1.473-18.693,2.014-26.146,2.014
		C159,406.01,151.697,405.176,146.804,404.363z"/>
	<path style="fill:#AB9E85;" d="M142.076,57.989l21.878-15.748c1.1-0.792,2.472-1.103,3.807-0.863l15.128,2.723
		c1.406,0.253,2.637,1.096,3.382,2.315c0.745,1.22,0.932,2.699,0.514,4.066c-9.454,30.951-34.479,36.398-45.448,37.269
		c-0.155,5.477-0.363,11.269-0.673,17.377h29.199c2.761,0,5,2.238,5,5v87.896c0,2.762-2.239,5-5,5h-29.954
		c0.079,4.747,0.161,9.455,0.242,14.086c0.518,29.607,1.007,57.571,0.227,73.424c-1.385,28.149,2.773,76.885,5.378,103.46
		c6.888,1.359,24.492,3.78,49.433-0.202c2.146-35.705,6.521-113.675,7.066-164.258c0.642-59.625,11.671-113,12.945-118.968V40.923
		c-30.772-0.598-60.141-6.47-70.859-8.848C143.003,40.081,142.416,48.592,142.076,57.989z"/>
	<path style="fill:#AB9E85;" d="M146.451,22.29c10.293,2.261,39.193,8.02,68.748,8.629V19.186
		c-33.55-0.475-55.942-5.626-64.928-8.132C148.715,14.748,147.47,18.48,146.451,22.29z"/>
	<path style="fill:#E3D282;" d="M175.292,52.895l-7.217-1.299l-26.341,18.959c-0.025,1.142-0.126,5.953-0.153,7.224
		C149.867,77.038,166.799,72.991,175.292,52.895z"/>
	<path style="fill:#E3D282;" d="M164.862,115.129h-24.735c-0.176,3.733-0.316,7.695-0.423,11.854h25.158V115.129z"/>
	<path style="fill:#AB9E85;" d="M290.126,11.055c-8.986,2.505-31.378,7.657-64.928,8.132v11.733
		c29.583-0.608,58.462-6.367,68.748-8.628C292.927,18.48,291.682,14.748,290.126,11.055z"/>
	<path style="fill:#E3D282;" d="M275.536,126.982h25.158c-0.107-4.158-0.247-8.121-0.423-11.854h-24.735V126.982z"/>
	<path style="fill:#AB9E85;" d="M300.489,203.025h-29.954c-2.761,0-5-2.238-5-5v-87.896c0-2.762,2.239-5,5-5h29.199
		c-0.311-6.109-0.519-11.901-0.674-17.378c-10.967-0.87-35.993-6.314-45.447-37.268c-0.418-1.367-0.23-2.846,0.514-4.066
		c0.745-1.22,1.976-2.062,3.382-2.315l15.128-2.723c1.333-0.241,2.707,0.071,3.807,0.863l21.877,15.748
		c-0.341-9.398-0.927-17.908-2.264-25.914c-10.718,2.377-40.087,8.25-70.859,8.848v69.645c1.273,5.968,12.303,59.343,12.945,118.968
		c0.545,50.586,4.919,128.554,7.065,164.258c24.945,3.984,42.548,1.561,49.433,0.202c2.604-26.575,6.763-75.311,5.378-103.46
		c-0.78-15.853-0.29-43.816,0.227-73.424C300.328,212.48,300.411,207.772,300.489,203.025z"/>
	<path style="fill:#E3D282;" d="M275.536,136.982v56.043h25.113c0.292-19.344,0.474-38.871,0.239-56.043H275.536z"/>
	<path style="fill:#E3D282;" d="M265.099,52.896c4.513,10.726,11.919,18.152,22.074,22.11c4.458,1.737,8.625,2.452,11.642,2.737
		c-0.027-1.26-0.128-6.047-0.152-7.188l-26.341-18.959L265.099,52.896z"/>
	<path style="fill:#E3D282;" d="M245.831,403.993c0.122,1.969,0.227,3.647,0.312,4.988c4.879,0.856,14.211,2.19,25.022,2.19
		c0.001,0,0.002,0,0.003,0c7.913,0,15.27-0.704,21.926-2.096c0.137-1.266,0.306-2.852,0.5-4.712
		c-4.892,0.811-12.192,1.645-21.616,1.645C264.525,406.01,255.741,405.467,245.831,403.993z"/>
	<path style="fill:#3F352F;" d="M297.376,2.821c-1.28-2.196-3.753-3.386-6.154-2.546c-0.256,0.089-26.094,8.946-71.024,8.946
		c-44.746,0-70.771-8.858-71.024-8.946c-2.4-0.841-4.939,0.311-6.154,2.546c-18.129,33.346-11.462,171.012-12.869,214.466
		c-0.953,29.424,1.001,57.237,0.237,72.758c-2.003,40.73,6.98,120.303,7.364,123.67c0.235,2.066,1.724,3.771,3.739,4.281
		c8.312,2.107,17.645,3.176,27.74,3.176c8.801,0,16.594-0.806,22.156-1.603l-3.47,9.689c-0.931,2.6,0.421,5.463,3.021,6.394
		c2.597,0.933,5.462-0.421,6.393-3.02l2.285-6.379l5.3,11.312c0.851,1.814,2.651,2.879,4.531,2.879c0.71,0,1.432-0.152,2.118-0.473
		c2.501-1.172,3.578-4.149,2.406-6.65l-9.901-21.132c0.819-12.814,7.499-119.065,8.182-182.546
		c0.381-35.391,4.482-68.534,7.946-90.533c3.464,21.999,7.564,55.142,7.946,90.533c0.683,63.48,7.363,169.732,8.182,182.546
		l-9.901,21.132c-1.171,2.501-0.094,5.478,2.406,6.65c0.686,0.32,1.408,0.473,2.118,0.473c1.88,0,3.681-1.065,4.531-2.879
		l5.299-11.312l2.284,6.378c0.931,2.6,3.793,3.953,6.393,3.02c2.6-0.931,3.952-3.793,3.021-6.394l-3.47-9.689
		c5.562,0.797,13.355,1.603,22.156,1.603c0.001,0,0.002,0,0.003,0c10.094,0,19.426-1.068,27.737-3.176
		c2.015-0.511,3.504-2.215,3.739-4.281c0.384-3.367,9.368-82.939,7.364-123.67c-0.764-15.52,1.238-43.336,0.237-72.758
		C308.892,177.5,316.225,35.167,297.376,2.821z M141.734,70.556l26.341-18.959l7.217,1.299
		c-8.494,20.096-25.426,24.143-33.711,24.884C141.608,76.508,141.709,71.698,141.734,70.556z M140.126,115.129h24.735v11.854
		h-25.158C139.811,122.824,139.95,118.862,140.126,115.129z M139.51,136.982h25.352v56.043h-25.113
		C139.457,173.682,139.275,154.154,139.51,136.982z M194.255,408.981c-4.88,0.856-14.211,2.19-25.022,2.19
		c-7.914,0-15.272-0.704-21.929-2.096c-0.137-1.267-0.306-2.852-0.5-4.713c4.893,0.812,12.196,1.646,21.616,1.646
		c7.453,0,16.235-0.541,26.146-2.014C194.444,405.964,194.339,407.641,194.255,408.981z M215.199,110.567
		c-1.273,5.968-12.303,59.343-12.945,118.968c-0.545,50.583-4.92,128.553-7.066,164.258c-24.94,3.982-42.544,1.561-49.433,0.202
		c-2.605-26.575-6.763-75.311-5.378-103.46c0.78-15.853,0.29-43.816-0.227-73.424c-0.081-4.631-0.164-9.339-0.242-14.086h29.954
		c2.761,0,5-2.238,5-5v-87.896c0-2.762-2.239-5-5-5h-29.199c0.31-6.109,0.519-11.901,0.673-17.377
		c10.969-0.871,35.994-6.318,45.448-37.269c0.417-1.367,0.23-2.846-0.514-4.066c-0.745-1.22-1.975-2.062-3.382-2.315l-15.128-2.723
		c-1.335-0.24-2.707,0.071-3.807,0.863l-21.878,15.748c0.341-9.398,0.927-17.908,2.264-25.914
		c10.718,2.377,40.087,8.25,70.859,8.848V110.567z M215.199,30.919c-29.555-0.609-58.456-6.368-68.748-8.629
		c1.02-3.811,2.264-7.543,3.82-11.236c8.986,2.505,31.378,7.657,64.928,8.132V30.919z M300.694,126.982h-25.158v-11.854h24.735
		C300.447,118.862,300.587,122.824,300.694,126.982z M298.815,77.743c-3.016-0.286-7.183-1-11.642-2.737
		c-10.155-3.958-17.562-11.384-22.074-22.11l7.223-1.3l26.341,18.959C298.687,71.696,298.788,76.483,298.815,77.743z
		 M225.199,19.186c33.55-0.475,55.942-5.626,64.928-8.132c1.556,3.693,2.801,7.426,3.82,11.236
		c-10.286,2.262-39.164,8.02-68.748,8.628V19.186z M293.094,409.076c-6.657,1.392-14.014,2.096-21.926,2.096c0,0-0.002,0-0.003,0
		c-10.811,0-20.143-1.334-25.022-2.19c-0.085-1.341-0.189-3.02-0.312-4.988c9.91,1.474,18.694,2.017,26.147,2.017
		c9.424,0,16.725-0.834,21.616-1.645C293.399,406.225,293.23,407.81,293.094,409.076z M300.02,290.535
		c1.385,28.149-2.773,76.885-5.378,103.46c-6.885,1.359-24.488,3.782-49.433-0.202c-2.146-35.704-6.521-113.672-7.065-164.258
		c-0.642-59.625-11.671-113-12.945-118.968V40.923c30.772-0.598,60.141-6.47,70.859-8.848c1.337,8.006,1.923,16.516,2.264,25.914
		l-21.877-15.748c-1.1-0.792-2.474-1.104-3.807-0.863l-15.128,2.723c-1.406,0.253-2.637,1.096-3.382,2.315
		c-0.745,1.22-0.932,2.699-0.514,4.066c9.454,30.954,34.48,36.399,45.447,37.268c0.155,5.477,0.363,11.269,0.674,17.378h-29.199
		c-2.761,0-5,2.238-5,5v87.896c0,2.762,2.239,5,5,5h29.954c-0.079,4.747-0.161,9.455-0.242,14.086
		C299.729,246.719,299.24,274.683,300.02,290.535z M300.648,193.025h-25.113v-56.043h25.352
		C301.122,154.154,300.94,173.682,300.648,193.025z"/>
</g>
<g>
</g>
<g>
</g>
<g>
</g>
<g>
</g>
<g>
</g>
<g>
</g>
<g>
</g>
<g>
</g>
<g>
</g>
<g>
</g>
<g>
</g>
<g>
</g>
<g>
</g>
<g>
</g>
<g>
</g>
</svg>
