<?xml version="1.0" encoding="iso-8859-1"?>
<!-- Generator: Adobe Illustrator 19.1.0, SVG Export Plug-In . SVG Version: 6.00 Build 0)  -->
<svg version="1.1" id="Capa_1" xmlns="http://www.w3.org/2000/svg" xmlns:xlink="http://www.w3.org/1999/xlink" x="0px" y="0px"
	 viewBox="0 0 426.09 426.09" style="enable-background:new 0 0 426.09 426.09;" xml:space="preserve">
<g>
	<path style="fill:#C4573F;" d="M183.255,48.538c-0.369,2.482-2.503,4.265-4.939,4.265c-0.244,0-0.492-0.019-0.742-0.056
		c-2.731-0.406-4.616-2.95-4.209-5.682l3.41-22.904h-14.979c-19.901,38.824-14.538,112.825-11.932,148.794
		c0.191,2.633,0.369,5.091,0.525,7.351c2.432,35.257-1.181,82.893-3.719,97.484c-2.157,12.407-20.258,111.784-24.227,133.564
		c5.788,1.76,18.462,4.735,37.984,4.735c20.535,0,34.87-3.293,41.042-5.045c-0.961-21.77-5.679-129.924-6.223-166.945
		c-0.597-40.549,11.807-134.372,12.796-141.786V24.161h-21.16L183.255,48.538z"/>
	<rect x="163.792" y="10" style="fill:#E3D282;" width="44.252" height="4.161"/>
	<rect x="218.044" y="10" style="fill:#E3D282;" width="44.254" height="4.161"/>
	<path style="fill:#C4573F;" d="M275.698,180.306c0.156-2.26,0.334-4.718,0.525-7.352c2.607-35.969,7.97-109.969-11.93-148.793
		h-14.979l3.408,22.904c0.406,2.731-1.479,5.275-4.209,5.682c-0.25,0.037-0.498,0.056-0.742,0.056c-2.436,0-4.57-1.783-4.939-4.265
		l-3.628-24.377h-21.161v78.152c0.99,7.414,13.393,101.237,12.796,141.786c-0.544,37.021-5.262,145.175-6.223,166.946
		c6.166,1.75,20.503,5.044,41.044,5.044c19.516,0,32.188-2.974,37.983-4.736c-3.969-21.78-22.07-121.155-24.228-133.563
		C276.879,263.198,273.267,215.562,275.698,180.306z"/>
	<path style="fill:#3F352F;" d="M289.269,276.077c-2.467-14.188-5.972-60.608-3.594-95.084c0.155-2.248,0.332-4.695,0.522-7.316
		c2.916-40.235,8.301-114.76-13.899-155.72V5c0-2.762-2.238-5-5-5H158.792c-2.762,0-5,2.238-5,5v12.956
		c-22.202,40.961-16.817,115.485-13.901,155.722c0.191,2.621,0.367,5.067,0.523,7.315c2.378,34.476-1.127,80.896-3.594,95.084
		c-2.406,13.836-24.752,136.445-24.978,137.683c-0.413,2.267,0.776,4.522,2.88,5.462c0.628,0.28,15.723,6.868,45.707,6.868
		c29.836,0,47.255-6.483,47.982-6.759c2.018-0.767,3.317-2.741,3.221-4.898c-0.058-1.291-5.783-129.589-6.385-170.479
		c-0.351-23.85,4.067-67.873,7.798-100.339c3.731,32.465,8.148,76.486,7.798,100.339c-0.602,40.89-6.327,169.189-6.385,170.479
		c-0.097,2.157,1.202,4.132,3.221,4.898c0.727,0.275,18.146,6.759,47.983,6.759c29.984,0,45.079-6.588,45.707-6.868
		c2.104-0.939,3.293-3.195,2.88-5.462C314.022,412.522,291.675,289.913,289.269,276.077z M208.044,102.313
		c-0.989,7.414-13.393,101.237-12.796,141.786c0.544,37.021,5.262,145.175,6.223,166.945c-6.172,1.752-20.507,5.045-41.042,5.045
		c-19.522,0-32.196-2.976-37.984-4.735c3.969-21.78,22.069-121.157,24.227-133.564c2.538-14.592,6.15-62.228,3.719-97.484
		c-0.156-2.26-0.334-4.718-0.525-7.351c-2.606-35.969-7.97-109.97,11.932-148.794h14.979l-3.41,22.904
		c-0.407,2.731,1.478,5.275,4.209,5.682c0.25,0.037,0.498,0.056,0.742,0.056c2.437,0,4.57-1.783,4.939-4.265l3.629-24.377h21.16
		V102.313z M208.044,14.161h-44.252V10h44.252V14.161z M218.044,10h44.254v4.161h-44.254V10z M265.661,416.09
		c-20.541,0-34.878-3.294-41.044-5.044c0.961-21.771,5.679-129.925,6.223-166.946c0.597-40.549-11.806-134.372-12.796-141.786
		V24.161h21.161l3.628,24.377c0.369,2.482,2.503,4.265,4.939,4.265c0.244,0,0.492-0.019,0.742-0.056
		c2.73-0.406,4.615-2.95,4.209-5.682l-3.408-22.904h14.979c19.899,38.824,14.536,112.824,11.93,148.793
		c-0.191,2.634-0.369,5.092-0.525,7.352c-2.432,35.257,1.181,82.893,3.719,97.484c2.157,12.408,20.259,111.783,24.228,133.563
		C297.849,413.116,285.177,416.09,265.661,416.09z"/>
</g>
<g>
</g>
<g>
</g>
<g>
</g>
<g>
</g>
<g>
</g>
<g>
</g>
<g>
</g>
<g>
</g>
<g>
</g>
<g>
</g>
<g>
</g>
<g>
</g>
<g>
</g>
<g>
</g>
<g>
</g>
</svg>
