<?xml version="1.0" encoding="iso-8859-1"?>
<!-- Generator: Adobe Illustrator 19.1.0, SVG Export Plug-In . SVG Version: 6.00 Build 0)  -->
<svg version="1.1" id="Capa_1" xmlns="http://www.w3.org/2000/svg" xmlns:xlink="http://www.w3.org/1999/xlink" x="0px" y="0px"
	 viewBox="0 0 415.423 415.423" style="enable-background:new 0 0 415.423 415.423;" xml:space="preserve">
<g>
	<path style="fill:#D68E7E;" d="M263.372,26.986h-1.114c3.369,5.716,8.4,14.06,13.979,22.679
		C271.189,36.585,265.724,29.597,263.372,26.986z"/>
	<path style="fill:#D68E7E;" d="M152.049,26.986c-2.353,2.613-7.819,9.604-12.865,22.681c5.58-8.62,10.611-16.965,13.981-22.681
		H152.049z"/>
	<path style="fill:#AB9E85;" d="M284.6,78.856c-13.529-16.979-29.129-43.537-33.926-51.87h-0.993
		c2.904,11.686,10.419,38.24,23.21,59.428c1.426,2.364,0.667,5.438-1.697,6.864c-0.809,0.488-1.699,0.721-2.579,0.721
		c-1.694,0-3.347-0.861-4.286-2.417c-14.596-24.18-22.447-53.93-24.951-64.596h-1.488c0.804,14.19,3.57,53.817,10.239,73.825
		c0.874,2.619-0.542,5.451-3.162,6.324c-0.524,0.175-1.058,0.258-1.581,0.258c-2.094,0-4.045-1.324-4.743-3.42
		c-7.227-21.678-10.01-62.897-10.775-76.987h-15.154v124.101c0,54.612,20.213,224.756,23.778,254.336h41.746
		c1.458-33.348,9.922-231.133,8.408-294.521c-2.732,4.33-5.749,8.411-8.911,11.492c-0.972,0.947-2.231,1.419-3.489,1.419
		c-1.301,0-2.602-0.505-3.581-1.511c-1.927-1.977-1.886-5.143,0.092-7.07c8.021-7.814,15.511-24.375,18.321-31.034
		c-1.45-1.626-2.946-3.421-4.467-5.329C284.605,78.864,284.603,78.86,284.6,78.856z"/>
	<polygon style="fill:#D68E7E;" points="257.873,10 157.55,10 156.1,16.986 259.323,16.986 	"/>
	<path style="fill:#AB9E85;" d="M176.783,103.974c-0.699,2.095-2.649,3.42-4.743,3.42c-0.524,0-1.057-0.083-1.581-0.258
		c-2.62-0.873-4.036-3.704-3.163-6.324c6.669-20.008,9.435-59.635,10.239-73.825h-1.487c-2.504,10.666-10.357,40.416-24.952,64.596
		c-0.939,1.556-2.592,2.417-4.286,2.417c-0.88,0-1.771-0.232-2.579-0.721c-2.364-1.427-3.124-4.5-1.697-6.864
		c12.789-21.188,20.305-47.741,23.21-59.428h-0.994c-4.797,8.334-20.398,34.894-33.927,51.872c-0.002,0.003-0.004,0.006-0.007,0.009
		c-1.521,1.909-3.018,3.704-4.468,5.33c2.811,6.659,10.301,23.219,18.322,31.034c1.978,1.927,2.019,5.093,0.092,7.07
		c-0.98,1.006-2.281,1.511-3.582,1.511c-1.258,0-2.517-0.472-3.489-1.419c-3.163-3.081-6.181-7.162-8.912-11.492
		c-1.514,63.388,6.95,261.174,8.409,294.521h41.746c3.565-29.58,23.779-199.724,23.779-254.336V26.986h-15.155
		C186.791,41.076,184.008,82.296,176.783,103.974z"/>
	<path style="fill:#3F352F;" d="M293.101,73.483c-6.247-34.138-18.897-49.686-23.046-54.003l-3.218-15.497
		C266.355,1.663,264.311,0,261.941,0h-108.46c-2.37,0-4.414,1.663-4.896,3.983l-3.217,15.498c-4.15,4.316-16.8,19.865-23.046,54.002
		c-1.876,2.318-3.692,4.409-5.405,6.181c-1.354,1.401-1.771,3.46-1.069,5.277c0.149,0.386,1.539,3.948,3.804,8.866
		c-0.339,4.021-0.59,8.171-0.739,12.372c-2.247,63.45,8.388,302.064,8.495,304.467c0.12,2.672,2.321,4.776,4.995,4.776h50.961
		c2.526,0,4.656-1.885,4.963-4.392c0.7-5.711,12.456-102.017,19.386-179.669c6.929,77.651,18.685,173.958,19.385,179.669
		c0.307,2.507,2.437,4.392,4.963,4.392h50.961c2.675,0,4.876-2.104,4.995-4.776c0.107-2.402,10.74-241.017,8.495-304.466
		c-0.147-4.183-0.399-8.335-0.739-12.375c2.266-4.916,3.654-8.479,3.804-8.864c0.702-1.817,0.284-3.876-1.069-5.277
		C296.793,77.893,294.978,75.802,293.101,73.483z M263.372,26.986c2.352,2.61,7.817,9.599,12.865,22.679
		c-5.579-8.619-10.61-16.963-13.979-22.679H263.372z M152.049,26.986h1.117c-3.37,5.716-8.401,14.061-13.981,22.681
		C144.23,36.59,149.696,29.6,152.049,26.986z M202.712,151.087c0,54.612-20.214,224.756-23.779,254.336h-41.746
		c-1.459-33.348-9.923-231.134-8.409-294.521c2.731,4.33,5.749,8.411,8.912,11.492c0.972,0.947,2.231,1.419,3.489,1.419
		c1.301,0,2.602-0.505,3.582-1.511c1.927-1.977,1.886-5.143-0.092-7.07c-8.021-7.815-15.512-24.375-18.322-31.034
		c1.45-1.626,2.947-3.421,4.468-5.33c0.002-0.003,0.004-0.006,0.007-0.009c13.53-16.978,29.13-43.538,33.927-51.872h0.994
		c-2.905,11.686-10.42,38.24-23.21,59.428c-1.427,2.364-0.667,5.438,1.697,6.864c0.808,0.488,1.699,0.721,2.579,0.721
		c1.694,0,3.346-0.861,4.286-2.417c14.595-24.18,22.448-53.93,24.952-64.596h1.487c-0.804,14.19-3.569,53.817-10.239,73.825
		c-0.873,2.62,0.543,5.451,3.163,6.324c0.524,0.175,1.058,0.258,1.581,0.258c2.094,0,4.044-1.325,4.743-3.42
		c7.226-21.678,10.008-62.897,10.774-76.987h15.155V151.087z M156.1,16.986L157.55,10h100.323l1.45,6.986H156.1z M270.755,115.231
		c-1.978,1.927-2.018,5.093-0.092,7.07c0.979,1.006,2.28,1.511,3.581,1.511c1.258,0,2.518-0.472,3.489-1.419
		c3.162-3.081,6.18-7.162,8.911-11.492c1.514,63.389-6.95,261.174-8.408,294.521H236.49c-3.565-29.58-23.778-199.724-23.778-254.336
		V26.986h15.154c0.766,14.09,3.549,55.31,10.775,76.987c0.698,2.096,2.649,3.42,4.743,3.42c0.523,0,1.057-0.083,1.581-0.258
		c2.62-0.873,4.036-3.705,3.162-6.324c-6.669-20.008-9.436-59.635-10.239-73.825h1.488c2.504,10.666,10.356,40.416,24.951,64.596
		c0.939,1.556,2.592,2.417,4.286,2.417c0.88,0,1.77-0.232,2.579-0.721c2.364-1.427,3.123-4.5,1.697-6.864
		c-12.791-21.188-20.306-47.741-23.21-59.428h0.993c4.797,8.333,20.396,34.892,33.926,51.87c0.003,0.004,0.006,0.008,0.01,0.012
		c1.521,1.908,3.017,3.703,4.467,5.329C286.266,90.856,278.775,107.417,270.755,115.231z"/>
</g>
<g>
</g>
<g>
</g>
<g>
</g>
<g>
</g>
<g>
</g>
<g>
</g>
<g>
</g>
<g>
</g>
<g>
</g>
<g>
</g>
<g>
</g>
<g>
</g>
<g>
</g>
<g>
</g>
<g>
</g>
</svg>
