<?xml version="1.0" encoding="iso-8859-1"?>
<!-- Generator: Adobe Illustrator 19.1.0, SVG Export Plug-In . SVG Version: 6.00 Build 0)  -->
<svg version="1.1" id="Capa_1" xmlns="http://www.w3.org/2000/svg" xmlns:xlink="http://www.w3.org/1999/xlink" x="0px" y="0px"
	 viewBox="0 0 360.593 360.593" style="enable-background:new 0 0 360.593 360.593;" xml:space="preserve">
<g>
	<path style="fill:#DAB342;" d="M168.318,58.119c3.848,0,6.978-3.13,6.978-6.977c0-3.848-3.13-6.979-6.978-6.979
		c-3.848,0-6.978,3.13-6.978,6.979C161.34,54.99,164.471,58.119,168.318,58.119z"/>
	<path style="fill:#DAB342;" d="M192.274,58.119c3.848,0,6.978-3.13,6.978-6.977c0-3.848-3.13-6.979-6.978-6.979
		c-3.848,0-6.978,3.13-6.978,6.979C185.296,54.99,188.427,58.119,192.274,58.119z"/>
	<path style="fill:#C7BEA8;" d="M251.6,212.332c-2.097-5.549-4.264-11.287-6.544-17.467c-14.713-39.899-15.652-77.325-15.425-90.9
		h-98.67c0.227,13.573-0.71,51-15.425,90.9c-2.279,6.18-4.447,11.916-6.543,17.465c-17.753,46.99-26.009,68.91-2.806,99.585
		c20.176,2.853,44.581,4.514,74.11,4.514c28.125,0,52.847-1.517,74.114-4.52C277.607,281.239,269.351,259.318,251.6,212.332z"/>
	<path style="fill:#D68E7E;" d="M337.902,210.106c-4.215-4.164-9.462-9.348-16.003-17.082
		c-13.179-15.58-15.573-28.653-19.197-48.441l-0.561-3.054c-2.867-15.551-11.437-26.581-25.471-32.783
		c-10.694-4.726-20.488-4.78-20.586-4.78h-16.429c-0.175,12.665,0.722,49.312,14.784,87.44c2.265,6.142,4.426,11.862,6.515,17.392
		c16.517,43.721,26.32,69.687,7.112,100.891c26.134-4.857,46.157-12.322,59.844-22.373c19.988-14.676,22.683-31.934,22.683-46.881
		C350.593,222.644,347.904,219.989,337.902,210.106z"/>
	<path style="fill:#DAB342;" d="M48.618,139.715c4.363-23.666,19.409-34.878,31.263-40.116c12.604-5.57,24.143-5.634,24.628-5.634
		h151.576c0.485,0,12.024,0.064,24.628,5.634c11.854,5.238,26.9,16.45,31.263,40.116l0.563,3.066
		c2.356,12.867,4.031,21.917,8.179,30.479v-41.614c-0.009-1.968-0.826-48.483-52.772-48.483H92.648
		c-51.946,0-52.763,46.515-52.772,48.495v41.602c4.147-8.561,5.821-17.61,8.178-30.475L48.618,139.715z"/>
	<path style="fill:#D68E7E;" d="M99.638,208.797c2.089-5.531,4.25-11.25,6.515-17.392c14.086-38.195,14.969-74.785,14.788-87.44
		h-16.433c-1.588,0.007-39.243,0.606-46.057,37.563l-0.562,3.058c-3.625,19.787-6.018,32.858-19.197,48.438
		c-6.541,7.734-11.787,12.918-16.003,17.082C12.689,219.989,10,222.644,10,240.434c0,16.325,0.006,53.887,82.526,69.254
		C73.317,278.483,83.121,252.517,99.638,208.797z"/>
	<path style="fill:#3F352F;" d="M344.93,202.993c-3.811-3.766-8.507-8.418-14.213-15.051v-56.296c0-0.598-0.089-14.799-7.822-29.118
		c-7.235-13.396-22.642-29.366-54.95-29.366H205.48l-3.921-7.824c4.626-3.036,7.693-8.261,7.693-14.195
		c0-9.362-7.616-16.978-16.978-16.978c-4.679,0-8.917,1.907-11.99,4.98c-3.07-3.069-7.292-4.98-11.966-4.98
		c-9.362,0-16.978,7.617-16.978,16.978c0,5.935,3.066,11.159,7.692,14.195l-3.921,7.824H92.648
		c-32.308,0-47.714,15.969-54.95,29.366c-7.733,14.318-7.822,28.52-7.822,29.118v56.295c-5.707,6.633-10.403,11.286-14.213,15.051
		C4.908,213.618,0,218.467,0,240.434c0,16.43,3.042,37.523,26.764,54.941c16.687,12.253,41.719,20.914,74.789,25.922
		c0.638,0.279,35.359,5.132,78.743,5.132s78.105-4.853,78.743-5.132c33.07-5.008,58.102-13.669,74.789-25.922
		c23.722-17.418,26.765-38.512,26.765-54.941C360.593,218.467,355.685,213.618,344.93,202.993z M192.274,44.164
		c3.848,0,6.978,3.13,6.978,6.979c0,3.847-3.13,6.977-6.978,6.977c-3.848,0-6.978-3.13-6.978-6.977
		C185.296,47.295,188.427,44.164,192.274,44.164z M180.299,63.14c2.956,2.955,6.988,4.816,11.455,4.953l2.54,5.069h-27.997
		l2.54-5.069C173.307,67.956,177.344,66.096,180.299,63.14z M168.318,44.164c3.848,0,6.978,3.13,6.978,6.979
		c0,3.847-3.13,6.977-6.978,6.977c-3.848,0-6.978-3.13-6.978-6.977C161.34,47.295,164.471,44.164,168.318,44.164z M39.876,131.658
		c0.009-1.98,0.826-48.495,52.772-48.495h175.297c51.946,0,52.763,46.515,52.772,48.483v41.614
		c-4.147-8.562-5.822-17.612-8.179-30.479l-0.563-3.066c-4.363-23.666-19.409-34.878-31.263-40.116
		c-12.604-5.57-24.143-5.634-24.628-5.634H104.508c-0.485,0-12.024,0.064-24.628,5.634c-11.854,5.238-26.9,16.45-31.263,40.116
		l-0.564,3.07c-2.356,12.865-4.031,21.913-8.178,30.475V131.658z M10,240.434c0-17.79,2.689-20.445,12.691-30.328
		c4.215-4.164,9.462-9.348,16.003-17.082c13.178-15.579,15.572-28.651,19.197-48.438l0.562-3.058
		c6.813-36.957,44.468-37.556,46.057-37.563h16.433c0.182,12.655-0.702,49.245-14.788,87.44c-2.265,6.142-4.426,11.861-6.515,17.392
		c-16.518,43.72-26.321,69.686-7.112,100.891C10.006,294.321,10,256.759,10,240.434z M254.411,311.909
		c-21.268,3.003-45.989,4.52-74.114,4.52c-29.529,0-53.934-1.661-74.11-4.514c-23.203-30.675-14.946-52.595,2.806-99.585
		c2.097-5.549,4.264-11.285,6.543-17.465c14.714-39.901,15.652-77.327,15.425-90.9h98.67c-0.227,13.576,0.712,51.002,15.425,90.9
		c2.279,6.18,4.447,11.918,6.544,17.467C269.351,259.318,277.607,281.239,254.411,311.909z M327.91,287.315
		c-13.687,10.051-33.71,17.517-59.844,22.373c19.208-31.204,9.405-57.17-7.112-100.891c-2.089-5.53-4.25-11.25-6.515-17.392
		c-14.062-38.128-14.958-74.774-14.784-87.44h16.429c0.098,0,9.892,0.055,20.586,4.78c14.034,6.202,22.603,17.231,25.471,32.783
		l0.561,3.054c3.625,19.789,6.019,32.861,19.197,48.441c6.541,7.734,11.788,12.918,16.003,17.082
		c10.002,9.883,12.691,12.538,12.691,30.328C350.593,255.38,347.898,272.639,327.91,287.315z"/>
</g>
<g>
</g>
<g>
</g>
<g>
</g>
<g>
</g>
<g>
</g>
<g>
</g>
<g>
</g>
<g>
</g>
<g>
</g>
<g>
</g>
<g>
</g>
<g>
</g>
<g>
</g>
<g>
</g>
<g>
</g>
</svg>
