<?xml version="1.0" encoding="iso-8859-1"?>
<!-- Generator: Adobe Illustrator 19.1.0, SVG Export Plug-In . SVG Version: 6.00 Build 0)  -->
<svg version="1.1" id="Capa_1" xmlns="http://www.w3.org/2000/svg" xmlns:xlink="http://www.w3.org/1999/xlink" x="0px" y="0px"
	 viewBox="0 0 399.242 399.242" style="enable-background:new 0 0 399.242 399.242;" xml:space="preserve">
<g>
	<path style="fill:#BBD3DF;" d="M47.825,164.392c-3.574,9.925-7.725,21.559-12.584,35.398l5.217,1.572l12.498-35.503L47.825,164.392
		z"/>
	<polygon style="fill:#BBD3DF;" points="50.044,204.249 78.733,212.893 89.009,194.577 56.78,185.111 	"/>
	<path style="fill:#8EB6CA;" d="M81.999,68.502c-3.318,4.909-5.625,10.746-7.732,18.559c-4.865,18.054-8.809,28.86-17.445,52.538
		c-1.66,4.555-3.516,9.641-5.591,15.365l9.579,2.74c1.324,0.379,2.434,1.288,3.066,2.513c0.633,1.225,0.732,2.655,0.275,3.955
		l-4.047,11.494l33.924,9.965l5.234-9.329l2.334-42.384C101.571,131.743,100.839,94.257,81.999,68.502z"/>
	<path style="fill:#BBD3DF;" d="M150.862,166.699c-0.498,0-0.998-0.074-1.479-0.224l-19.432-6.021l1.387,27.726l19.523,8.729
		l19.523-8.729l1.389-27.725l-19.432,6.02C151.86,166.625,151.362,166.699,150.862,166.699z"/>
	<path style="fill:#8EB6CA;" d="M235.187,70.538c3.068-6.776,13.666-28.815,17.699-38.747l-13.734-16.245
		c-2.236,8.486-6.102,23.3-11.996,46.362L235.187,70.538z"/>
	<path style="fill:#BBD3DF;" d="M261.011,82.838h36.971c3.125-7.59,7.197-15.146,12.496-21.98
		c-3.381-2.998-7.512-5.827-12.693-8.869c-16.402-9.627-29.811-13.771-36.078-15.345c-3.902,9.537-12.396,27.205-13.814,30.227
		L261.011,82.838z"/>
	<path style="fill:#BBD3DF;" d="M138.235,82.838l13.131-15.938c-1.426-3.034-9.928-20.72-13.828-30.255
		c-6.268,1.573-19.676,5.716-36.078,15.345c-5.184,3.042-9.314,5.871-12.695,8.87c5.299,6.834,9.371,14.39,12.496,21.978H138.235z"
		/>
	<path style="fill:#BBD3DF;" d="M226.716,23.559c1.543-5.923,2.717-10.384,3.559-13.559H168.97c0.84,3.175,2.014,7.636,3.559,13.559
		H226.716z"/>
	<path style="fill:#BBD3DF;" d="M150.862,156.465l21.445-6.643l0.539-10.791h-43.969l0.541,10.791L150.862,156.465z M147.331,143.85
		c0.92-0.93,2.211-1.46,3.531-1.46c1.318,0,2.609,0.53,3.539,1.46c0.93,0.94,1.461,2.23,1.461,3.54c0,1.32-0.531,2.601-1.461,3.53
		c-0.93,0.94-2.221,1.47-3.539,1.47c-1.32,0-2.602-0.529-3.531-1.47c-0.939-0.92-1.469-2.21-1.469-3.53
		C145.862,146.07,146.392,144.78,147.331,143.85z"/>
	<path style="fill:#8EB6CA;" d="M172.087,61.908c-5.895-23.067-9.76-37.879-11.996-46.362l-13.732,16.245
		c4.031,9.932,14.629,31.97,17.697,38.747L172.087,61.908z"/>
	<path style="fill:#8EB6CA;" d="M294.376,92.838h-35.729c-1.496,0-2.912-0.67-3.863-1.826l-11.531-14.034
		c-0.639,1.424-1.303,2.918-2.006,4.512c-0.678,1.539-2.084,2.635-3.742,2.915c-0.277,0.047-0.557,0.069-0.832,0.069
		c-1.377,0-2.707-0.568-3.66-1.594l-11.494-12.351l-16.896,17.005v6.589c0.233-0.444,0.512-0.866,0.869-1.223
		c0.93-0.931,2.221-1.471,3.529-1.471c1.32,0,2.611,0.54,3.541,1.471c0.93,0.93,1.459,2.22,1.459,3.539
		c0,1.311-0.529,2.601-1.459,3.53c-0.93,0.931-2.221,1.47-3.541,1.47c-1.309,0-2.6-0.539-3.529-1.47
		c-0.357-0.357-0.636-0.778-0.869-1.223v28.355c0.233-0.444,0.512-0.865,0.869-1.223c0.93-0.93,2.211-1.46,3.529-1.46
		c1.32,0,2.611,0.53,3.541,1.46c0.93,0.93,1.459,2.22,1.459,3.54c0,1.31-0.529,2.6-1.459,3.53c-0.93,0.93-2.221,1.47-3.541,1.47
		c-1.309,0-2.6-0.53-3.529-1.47c-0.357-0.357-0.636-0.777-0.869-1.22v28.355c0.233-0.443,0.512-0.862,0.869-1.216
		c0.93-0.94,2.221-1.47,3.529-1.47c1.32,0,2.611,0.529,3.541,1.47c0.93,0.93,1.459,2.22,1.459,3.53c0,1.309-0.529,2.6-1.459,3.539
		c-0.93,0.931-2.221,1.461-3.541,1.461c-1.309,0-2.6-0.53-3.529-1.461c-0.357-0.36-0.636-0.782-0.869-1.227v28.356
		c0.233-0.442,0.512-0.862,0.869-1.22c0.93-0.93,2.221-1.47,3.529-1.47c1.32,0,2.611,0.54,3.541,1.47
		c0.93,0.931,1.459,2.221,1.459,3.53c0,1.32-0.529,2.61-1.459,3.54c-0.93,0.93-2.221,1.46-3.541,1.46c-1.309,0-2.6-0.53-3.529-1.46
		c-0.357-0.356-0.636-0.778-0.869-1.223v28.354c0.233-0.443,0.512-0.864,0.869-1.222c0.93-0.93,2.221-1.47,3.529-1.47
		c1.32,0,2.611,0.54,3.541,1.47c0.93,0.93,1.459,2.22,1.459,3.53c0,1.319-0.529,2.609-1.459,3.54c-0.93,0.93-2.221,1.46-3.541,1.46
		c-1.309,0-2.6-0.53-3.529-1.46c-0.357-0.357-0.636-0.778-0.869-1.224v28.357c0.233-0.445,0.512-0.866,0.869-1.224
		c0.93-0.93,2.211-1.46,3.529-1.46c1.32,0,2.611,0.53,3.541,1.46c0.93,0.931,1.459,2.221,1.459,3.54c0,1.31-0.529,2.601-1.459,3.53
		c-0.93,0.93-2.221,1.47-3.541,1.47c-1.309,0-2.6-0.54-3.529-1.47c-0.357-0.358-0.636-0.778-0.869-1.223v28.355
		c0.233-0.444,0.512-0.865,0.869-1.223c0.93-0.93,2.211-1.46,3.529-1.46c1.32,0,2.611,0.53,3.541,1.46
		c0.93,0.939,1.459,2.22,1.459,3.54c0,1.309-0.529,2.6-1.459,3.53c-0.93,0.94-2.221,1.47-3.541,1.47c-1.309,0-2.6-0.53-3.529-1.47
		c-0.357-0.357-0.636-0.777-0.869-1.22v28.355c0.233-0.443,0.512-0.862,0.869-1.216c0.93-0.931,2.221-1.471,3.529-1.471
		c1.32,0,2.611,0.54,3.541,1.471c0.93,0.93,1.459,2.22,1.459,3.529c0,1.32-0.529,2.6-1.459,3.54c-0.93,0.931-2.221,1.46-3.541,1.46
		c-1.309,0-2.6-0.529-3.529-1.46c-0.357-0.357-0.636-0.778-0.869-1.223v28.355c0.233-0.443,0.512-0.864,0.869-1.222
		c0.93-0.93,2.221-1.47,3.529-1.47c1.32,0,2.611,0.54,3.541,1.47c0.93,0.93,1.459,2.22,1.459,3.53c0,1.32-0.529,2.61-1.459,3.54
		c-0.93,0.93-2.221,1.46-3.541,1.46c-1.309,0-2.6-0.53-3.529-1.46c-0.357-0.358-0.636-0.778-0.869-1.223v26.595
		c78.275-1.111,93.408-28.205,95.283-32.456l-12.252-222.44C287.651,134.259,287.767,113.909,294.376,92.838z M277.739,191.743
		c-0.096,1.879-1.236,3.547-2.953,4.314l-24.365,10.893c-0.662,0.297-1.355,0.437-2.037,0.437c-0.709,0-1.404-0.153-2.043-0.439
		l-0.002,0.002l-24.363-10.893c-1.719-0.768-2.859-2.436-2.953-4.314l-2.877-57.463c-0.068-1.368,0.428-2.704,1.371-3.696
		c0.943-0.992,2.254-1.554,3.623-1.554h54.482c1.369,0,2.678,0.561,3.623,1.554c0.943,0.992,1.44,2.328,1.371,3.696L277.739,191.743
		z"/>
	<path style="fill:#BBD3DF;" d="M346.288,165.859l12.496,35.503l5.217-1.572c-4.859-13.84-9.01-25.474-12.582-35.398
		L346.288,165.859z"/>
	<polygon style="fill:#BBD3DF;" points="310.235,194.579 320.509,212.893 349.198,204.249 342.462,185.111 	"/>
	<path style="fill:#BBD3DF;" d="M226.937,149.821l21.443,6.643l21.445-6.643l0.539-10.791h-43.969L226.937,149.821z M244.841,143.85
		c0.93-0.93,2.221-1.46,3.541-1.46s2.6,0.53,3.529,1.46c0.939,0.931,1.471,2.221,1.471,3.54c0,1.311-0.531,2.601-1.471,3.54
		c-0.93,0.931-2.221,1.46-3.529,1.46c-1.32,0-2.611-0.529-3.541-1.46c-0.93-0.939-1.459-2.23-1.459-3.54
		C243.382,146.07,243.911,144.79,244.841,143.85z"/>
	<path style="fill:#8EB6CA;" d="M335.093,164.172c-0.457-1.3-0.357-2.73,0.273-3.955c0.633-1.225,1.742-2.133,3.068-2.513
		l9.578-2.74c-2.078-5.73-3.934-10.821-5.598-15.379c-8.633-23.671-12.574-34.475-17.441-52.524
		c-2.105-7.815-4.412-13.652-7.732-18.562c-18.887,25.798-19.572,63.236-19.596,65.417l2.336,42.385l5.234,9.332l33.922-9.966
		L335.093,164.172z"/>
	<path style="fill:#AB9E85;" d="M224.118,33.559h-48.994c1.926,7.443,4.242,16.445,6.99,27.2l17.508,17.619l17.506-17.619
		C219.876,50.004,222.192,41.002,224.118,33.559z"/>
	<path style="fill:#8EB6CA;" d="M166.229,82.88c-0.953,1.025-2.283,1.594-3.66,1.594c-0.275,0-0.555-0.022-0.832-0.069
		c-1.658-0.28-3.064-1.376-3.742-2.915c-0.699-1.585-1.359-3.071-1.994-4.487l-11.547,14.015c-0.949,1.153-2.365,1.821-3.859,1.821
		h-35.729c6.611,21.071,6.727,41.421,6.725,41.468L99.337,356.743c1.867,4.24,16.893,31.349,95.285,32.46V87.534l-16.896-17.005
		L166.229,82.88z M181.728,130.584c0.943,0.992,1.439,2.329,1.371,3.696l-2.879,57.463c-0.094,1.879-1.234,3.547-2.953,4.314
		l-24.363,10.893v-0.002c-0.639,0.285-1.334,0.439-2.043,0.439c-0.682,0-1.375-0.14-2.039-0.437l-24.363-10.893
		c-1.719-0.768-2.859-2.436-2.953-4.314l-2.877-57.463c-0.068-1.368,0.428-2.704,1.371-3.696c0.943-0.992,2.254-1.554,3.623-1.554
		h54.482C179.474,129.03,180.782,129.592,181.728,130.584z"/>
	<path style="fill:#BBD3DF;" d="M248.38,166.699c-0.498,0-0.998-0.074-1.479-0.224l-19.432-6.021l1.387,27.726l19.523,8.729
		l19.524-8.729l1.389-27.725l-19.432,6.02C249.378,166.625,248.88,166.699,248.38,166.699z"/>
	<path style="fill:#3F352F;" d="M119.999,130.584c-0.943,0.992-1.439,2.328-1.371,3.696l2.877,57.463
		c0.094,1.879,1.234,3.547,2.953,4.314l24.363,10.893c0.664,0.297,1.357,0.437,2.039,0.437c0.709,0,1.404-0.153,2.043-0.439v0.002
		l24.363-10.893c1.719-0.768,2.859-2.436,2.953-4.314l2.879-57.463c0.068-1.367-0.428-2.704-1.371-3.696
		c-0.945-0.992-2.254-1.554-3.623-1.554h-54.482C122.253,129.03,120.942,129.592,119.999,130.584z M170.386,188.181l-19.523,8.729
		l-19.523-8.729l-1.387-27.726l19.432,6.021c0.48,0.149,0.98,0.224,1.479,0.224c0.5,0,0.998-0.074,1.48-0.224l19.432-6.02
		L170.386,188.181z M172.847,139.03l-0.539,10.791l-21.445,6.643l-21.443-6.643l-0.541-10.791H172.847z"/>
	<path style="fill:#3F352F;" d="M150.862,152.39c1.318,0,2.609-0.529,3.539-1.47c0.93-0.93,1.461-2.21,1.461-3.53
		c0-1.31-0.531-2.6-1.461-3.54c-0.93-0.93-2.221-1.46-3.539-1.46c-1.32,0-2.611,0.53-3.531,1.46
		c-0.939,0.931-1.469,2.221-1.469,3.54c0,1.32,0.529,2.61,1.469,3.53C148.261,151.86,149.542,152.39,150.862,152.39z"/>
	<path style="fill:#3F352F;" d="M275.622,129.03H221.14c-1.369,0-2.68,0.561-3.623,1.554c-0.943,0.992-1.439,2.328-1.371,3.696
		l2.877,57.463c0.094,1.879,1.234,3.547,2.953,4.314l24.363,10.893l0.002-0.002c0.639,0.285,1.334,0.439,2.043,0.439
		c0.682,0,1.375-0.14,2.037-0.437l24.365-10.893c1.717-0.768,2.857-2.436,2.953-4.314l2.877-57.463
		c0.068-1.368-0.428-2.704-1.371-3.696C278.3,129.592,276.991,129.03,275.622,129.03z M267.903,188.181l-19.524,8.729l-19.523-8.729
		l-1.387-27.726l19.432,6.021c0.48,0.149,0.98,0.224,1.479,0.224c0.5,0,0.998-0.074,1.48-0.224l19.432-6.02L267.903,188.181z
		 M269.825,149.821l-21.445,6.643l-21.443-6.643l-0.541-10.791h43.969L269.825,149.821z"/>
	<path style="fill:#3F352F;" d="M248.382,152.39c1.309,0,2.6-0.529,3.529-1.46c0.939-0.939,1.471-2.23,1.471-3.54
		c0-1.319-0.531-2.609-1.471-3.54c-0.93-0.93-2.209-1.46-3.529-1.46s-2.611,0.53-3.541,1.46c-0.93,0.94-1.459,2.221-1.459,3.54
		c0,1.311,0.529,2.601,1.459,3.54C245.77,151.86,247.062,152.39,248.382,152.39z"/>
	<path style="fill:#3F352F;" d="M351.81,136.158c-8.531-23.392-12.426-34.068-17.18-51.701
		c-5.506-20.425-12.932-30.026-31.783-41.093c-20.285-11.905-36.191-15.965-41.523-17.081L240.603,1.772
		c-0.961-1.138-2.365-1.759-3.818-1.76V0H162.46v0.013c-1.455,0-2.857,0.622-3.818,1.76l-20.721,24.511
		c-5.334,1.116-21.24,5.175-41.523,17.081C77.546,54.43,70.12,64.031,64.612,84.457c-4.754,17.637-8.65,28.316-17.185,51.715
		c-5.391,14.777-12.771,35.016-23.354,65.246c-0.449,1.287-0.355,2.703,0.264,3.919c0.619,1.216,1.707,2.126,3.014,2.52
		c0,0,49.223,15.697,53.781,15.982c1.768,0.11,3.457-0.946,4.359-2.555l12.524-22.319l-8.719,158.253
		c-0.029,0.531,0.027,1.064,0.166,1.578c0.445,1.651,12.041,40.447,110.16,40.447c98.117,0,109.713-38.796,110.158-40.447
		c0.139-0.514,0.195-1.047,0.166-1.578l-8.717-158.254l12.522,22.32c0.902,1.608,2.598,2.74,4.359,2.555
		c5.164-0.543,53.781-15.982,53.781-15.982c1.307-0.393,2.395-1.304,3.014-2.52s0.713-2.632,0.264-3.919
		C364.585,171.179,357.202,150.938,351.81,136.158z M261.706,36.644c6.268,1.574,19.676,5.718,36.078,15.345
		c5.182,3.042,9.312,5.871,12.693,8.869c-5.299,6.835-9.371,14.391-12.496,21.98h-36.971L247.892,66.87
		C249.31,63.849,257.804,46.181,261.706,36.644z M239.151,15.546l13.734,16.245c-4.033,9.933-14.631,31.971-17.699,38.747
		l-8.031-8.63C233.05,38.846,236.915,24.032,239.151,15.546z M230.274,10c-0.842,3.175-2.016,7.636-3.559,13.559h-54.188
		c-1.545-5.923-2.719-10.384-3.559-13.559H230.274z M160.091,15.546c2.236,8.483,6.102,23.295,11.996,46.362l-8.031,8.63
		c-3.068-6.777-13.666-28.816-17.697-38.747L160.091,15.546z M101.46,51.989c16.402-9.629,29.81-13.771,36.078-15.345
		c3.9,9.535,12.402,27.221,13.828,30.255l-13.131,15.938h-36.975c-3.125-7.589-7.197-15.145-12.496-21.978
		C92.145,57.86,96.276,55.031,101.46,51.989z M35.241,199.79c4.859-13.84,9.01-25.474,12.584-35.398l5.131,1.468l-12.498,35.503
		L35.241,199.79z M78.733,212.893l-28.689-8.644l6.736-19.138l32.228,9.466L78.733,212.893z M94.028,185.631l-33.924-9.965
		l4.047-11.494c0.457-1.3,0.357-2.73-0.275-3.955c-0.633-1.225-1.742-2.134-3.066-2.513l-9.579-2.74
		c2.075-5.725,3.931-10.811,5.591-15.365c8.637-23.678,12.58-34.484,17.445-52.538c2.107-7.812,4.414-13.649,7.732-18.559
		c18.84,25.755,19.572,63.241,19.598,65.416l-2.334,42.384L94.028,185.631z M194.622,389.203
		c-78.393-1.111-93.418-28.22-95.285-32.46l12.254-222.438c0.002-0.047-0.113-20.396-6.725-41.468h35.729
		c1.494,0,2.91-0.668,3.859-1.821l11.547-14.015c0.635,1.416,1.295,2.902,1.994,4.487c0.678,1.539,2.084,2.635,3.742,2.915
		c0.277,0.047,0.557,0.069,0.832,0.069c1.377,0,2.707-0.568,3.66-1.594l11.496-12.351l16.896,17.005V389.203z M182.114,60.759
		c-2.748-10.755-5.064-19.757-6.99-27.2h48.994c-1.926,7.443-4.242,16.445-6.99,27.2l-17.506,17.619L182.114,60.759z
		 M204.622,389.202v-26.595c0.233,0.444,0.512,0.865,0.869,1.223c0.93,0.93,2.221,1.46,3.529,1.46c1.32,0,2.611-0.53,3.541-1.46
		c0.93-0.93,1.459-2.22,1.459-3.54c0-1.311-0.529-2.601-1.459-3.53c-0.93-0.93-2.221-1.47-3.541-1.47c-1.309,0-2.6,0.54-3.529,1.47
		c-0.357,0.357-0.636,0.778-0.869,1.222v-28.355c0.233,0.444,0.512,0.865,0.869,1.223c0.93,0.931,2.221,1.46,3.529,1.46
		c1.32,0,2.611-0.529,3.541-1.46c0.93-0.94,1.459-2.22,1.459-3.54c0-1.31-0.529-2.6-1.459-3.529
		c-0.93-0.931-2.221-1.471-3.541-1.471c-1.309,0-2.6,0.54-3.529,1.471c-0.357,0.353-0.636,0.772-0.869,1.216v-28.355
		c0.233,0.442,0.512,0.862,0.869,1.22c0.93,0.94,2.221,1.47,3.529,1.47c1.32,0,2.611-0.53,3.541-1.47
		c0.93-0.931,1.459-2.221,1.459-3.53c0-1.32-0.529-2.601-1.459-3.54c-0.93-0.93-2.221-1.46-3.541-1.46c-1.318,0-2.6,0.53-3.529,1.46
		c-0.357,0.357-0.636,0.778-0.869,1.223v-28.355c0.233,0.444,0.512,0.865,0.869,1.223c0.93,0.93,2.221,1.47,3.529,1.47
		c1.32,0,2.611-0.54,3.541-1.47c0.93-0.93,1.459-2.22,1.459-3.53c0-1.319-0.529-2.609-1.459-3.54c-0.93-0.93-2.221-1.46-3.541-1.46
		c-1.318,0-2.6,0.53-3.529,1.46c-0.357,0.357-0.636,0.778-0.869,1.224v-28.357c0.233,0.445,0.512,0.866,0.869,1.224
		c0.93,0.93,2.221,1.46,3.529,1.46c1.32,0,2.611-0.53,3.541-1.46c0.93-0.931,1.459-2.221,1.459-3.54c0-1.311-0.529-2.601-1.459-3.53
		c-0.93-0.93-2.221-1.47-3.541-1.47c-1.309,0-2.6,0.54-3.529,1.47c-0.357,0.357-0.636,0.778-0.869,1.222v-28.354
		c0.233,0.444,0.512,0.866,0.869,1.223c0.93,0.93,2.221,1.46,3.529,1.46c1.32,0,2.611-0.53,3.541-1.46
		c0.93-0.93,1.459-2.22,1.459-3.54c0-1.31-0.529-2.6-1.459-3.53c-0.93-0.93-2.221-1.47-3.541-1.47c-1.309,0-2.6,0.54-3.529,1.47
		c-0.357,0.357-0.636,0.777-0.869,1.22v-28.356c0.233,0.444,0.512,0.866,0.869,1.227c0.93,0.931,2.221,1.461,3.529,1.461
		c1.32,0,2.611-0.53,3.541-1.461c0.93-0.939,1.459-2.23,1.459-3.539c0-1.311-0.529-2.601-1.459-3.53
		c-0.93-0.94-2.221-1.47-3.541-1.47c-1.309,0-2.6,0.529-3.529,1.47c-0.357,0.354-0.636,0.772-0.869,1.216V131.73
		c0.233,0.442,0.512,0.862,0.869,1.22c0.93,0.939,2.221,1.47,3.529,1.47c1.32,0,2.611-0.54,3.541-1.47
		c0.93-0.931,1.459-2.221,1.459-3.53c0-1.32-0.529-2.61-1.459-3.54c-0.93-0.93-2.221-1.46-3.541-1.46c-1.318,0-2.6,0.53-3.529,1.46
		c-0.357,0.357-0.636,0.778-0.869,1.223V98.747c0.233,0.444,0.512,0.865,0.869,1.223c0.93,0.931,2.221,1.47,3.529,1.47
		c1.32,0,2.611-0.539,3.541-1.47c0.93-0.93,1.459-2.22,1.459-3.53c0-1.319-0.529-2.609-1.459-3.539
		c-0.93-0.931-2.221-1.471-3.541-1.471c-1.309,0-2.6,0.54-3.529,1.471c-0.357,0.356-0.636,0.778-0.869,1.223v-6.589l16.896-17.005
		l11.494,12.351c0.953,1.025,2.283,1.594,3.66,1.594c0.275,0,0.555-0.022,0.832-0.069c1.658-0.28,3.064-1.376,3.742-2.915
		c0.703-1.594,1.367-3.088,2.006-4.512l11.531,14.034c0.951,1.156,2.367,1.826,3.863,1.826h35.729
		c-6.609,21.071-6.725,41.421-6.723,41.468l12.252,222.44C298.03,360.997,282.897,388.091,204.622,389.202z M299.981,176.3
		l-2.336-42.385c0.023-2.181,0.709-39.619,19.596-65.417c3.32,4.91,5.627,10.747,7.732,18.562
		c4.867,18.05,8.809,28.854,17.441,52.524c1.664,4.558,3.52,9.648,5.598,15.379l-9.578,2.74c-1.326,0.38-2.436,1.288-3.068,2.513
		c-0.631,1.225-0.73,2.655-0.273,3.955l4.045,11.494l-33.922,9.966L299.981,176.3z M320.509,212.893l-10.273-18.313l32.227-9.468
		l6.736,19.138L320.509,212.893z M358.784,201.362l-12.496-35.503l5.131-1.468c3.572,9.925,7.723,21.559,12.582,35.398
		L358.784,201.362z"/>
</g>
<g>
</g>
<g>
</g>
<g>
</g>
<g>
</g>
<g>
</g>
<g>
</g>
<g>
</g>
<g>
</g>
<g>
</g>
<g>
</g>
<g>
</g>
<g>
</g>
<g>
</g>
<g>
</g>
<g>
</g>
</svg>
