<?xml version="1.0" encoding="iso-8859-1"?>
<!-- Generator: Adobe Illustrator 19.1.0, SVG Export Plug-In . SVG Version: 6.00 Build 0)  -->
<svg version="1.1" id="Capa_1" xmlns="http://www.w3.org/2000/svg" xmlns:xlink="http://www.w3.org/1999/xlink" x="0px" y="0px"
	 viewBox="0 0 412.177 412.177" style="enable-background:new 0 0 412.177 412.177;" xml:space="preserve">
<g>
	<path style="fill:#A9D8C8;" d="M159.257,87.84l28.271-7.512l-24.759-67.59c-10.898,8.131-15.375,16.84-14.028,27.078
		C150.207,50.957,156.549,76.978,159.257,87.84z"/>
	<polygon style="fill:#CBE8DE;" points="198.586,81.442 206.089,92.354 213.595,81.441 234.351,24.77 177.827,24.77 	"/>
	<polygon style="fill:#CBE8DE;" points="238.014,14.77 239.762,10 172.417,10 174.164,14.77 	"/>
	<path style="fill:#A9D8C8;" d="M252.921,87.84c2.708-10.861,9.051-36.885,10.516-48.023c1.348-10.238-3.13-18.947-14.028-27.079
		l-24.757,67.59L252.921,87.84z"/>
	<path style="fill:#A9D8C8;" d="M319.871,172.543l56.469-27.625l-36.848-72.996c-6.854,16.039-19.621,49.497-19.621,76.157V172.543z
		"/>
	<polygon style="fill:#A9D8C8;" points="319.871,183.676 319.871,190.598 383.762,159.623 380.846,153.846 	"/>
	<polygon style="fill:#A9D8C8;" points="28.415,159.623 92.307,190.598 92.307,183.676 31.331,153.846 	"/>
	<path style="fill:#CBE8DE;" d="M273.093,29.911c0.685,3.585,0.77,7.318,0.258,11.211c-1.943,14.777-11.564,52.492-11.973,54.09
		c-0.33,1.293-0.949,2.079-2.315,3.075c-1.395,1.017-3.391,0.631-3.813,0.52l-35.056-9.314l-9.112,13.248v40.903
		c0,2.761-2.238,5-5,5c-2.762,0-5-2.239-5-5v-40.921l-9.098-13.23l-35.057,9.314c-1.395,0.441-3.04-0.066-3.814-0.52
		c-1.151-0.676-1.984-1.783-2.314-3.075c-0.409-1.599-10.028-39.313-11.973-54.091c-0.512-3.892-0.426-7.623,0.258-11.207
		c-27.834,9.132-55.861,21.93-60.687,30.214c4.63,9.911,23.909,53.261,23.909,87.951v249.674
		c8.228,1.426,33.848,4.424,103.781,4.424c69.936,0,95.555-2.998,103.782-4.424V148.08c0-34.69,19.278-78.04,23.908-87.951
		C328.956,51.84,300.927,39.04,273.093,29.911z M222.619,117.231c-0.931,0.93-2.211,1.469-3.53,1.469
		c-1.32,0-2.601-0.539-3.54-1.469c-0.93-0.92-1.46-2.211-1.46-3.531c0-1.319,0.53-2.609,1.46-3.539c0.93-0.93,2.22-1.461,3.54-1.461
		c1.319,0,2.609,0.531,3.53,1.461c0.939,0.939,1.47,2.22,1.47,3.539C224.089,115.01,223.558,116.3,222.619,117.231z"/>
	<path style="fill:#A9D8C8;" d="M35.838,144.918l56.47,27.625V148.08c0-26.688-12.766-60.13-19.62-76.16L35.838,144.918z"/>
	<path style="fill:#3F352F;" d="M219.089,108.7c-1.32,0-2.61,0.531-3.54,1.461c-0.93,0.93-1.46,2.22-1.46,3.539
		c0,1.32,0.53,2.611,1.46,3.531c0.939,0.93,2.22,1.469,3.54,1.469c1.319,0,2.6-0.539,3.53-1.469c0.939-0.931,1.47-2.221,1.47-3.531
		c0-1.319-0.53-2.6-1.47-3.539C221.698,109.231,220.408,108.7,219.089,108.7z"/>
	<path style="fill:#3F352F;" d="M343.909,58.481c-1.734-5.758-8.383-14.839-41.633-28.439c-14.847-6.072-29.102-10.62-34.093-12.161
		c-3.997-6.169-10.186-11.851-18.615-17.121l-0.026,0.009C248.78,0.29,247.887,0,246.918,0H165.26c-0.971,0-1.867,0.285-2.629,0.768
		l-0.021-0.007c-8.43,5.27-14.618,10.952-18.614,17.12c-4.99,1.542-19.247,6.089-34.095,12.162
		c-33.251,13.6-39.898,22.682-41.632,28.44l-51.07,101.172c-0.604,1.196-0.702,2.585-0.273,3.855c0.429,1.27,1.35,2.312,2.555,2.897
		l72.827,35.306v200.055c0,2.115,1.33,4.002,3.322,4.711c1.639,0.583,18.656,5.699,110.452,5.7c0.002,0,0.004,0,0.007,0
		c0.002,0,0.004,0,0.006,0c91.799-0.001,108.815-5.117,110.454-5.7c1.992-0.709,3.322-2.596,3.322-4.711V201.711l72.826-35.306
		c1.205-0.585,2.126-1.628,2.555-2.897c0.43-1.27,0.331-2.658-0.272-3.855L343.909,58.481z M339.492,71.922l36.848,72.996
		l-56.469,27.625V148.08C319.871,121.419,332.637,87.961,339.492,71.922z M249.408,12.739c10.899,8.131,15.376,16.84,14.028,27.079
		c-1.465,11.138-7.808,37.162-10.516,48.023l-28.27-7.512L249.408,12.739z M213.595,81.441l-7.506,10.913l-7.503-10.912
		L177.827,24.77h56.524L213.595,81.441z M239.762,10l-1.747,4.77h-63.851L172.417,10H239.762z M162.769,12.739l24.759,67.59
		l-28.271,7.512c-2.708-10.862-9.05-36.884-10.516-48.023C147.394,29.579,151.872,20.87,162.769,12.739z M92.307,190.598
		l-63.893-30.975l2.916-5.777l60.977,29.83V190.598z M92.307,172.543l-56.47-27.625l36.85-72.999
		c6.854,16.03,19.62,49.472,19.62,76.16V172.543z M309.871,148.08v249.674c-8.228,1.426-33.847,4.424-103.782,4.424
		c-69.934,0-95.554-2.998-103.781-4.424V148.08c0-34.69-19.279-78.04-23.909-87.951c4.825-8.284,32.853-21.082,60.687-30.214
		c-0.684,3.584-0.77,7.315-0.258,11.207c1.944,14.778,11.563,52.492,11.973,54.091c0.33,1.292,1.163,2.399,2.314,3.075
		c0.773,0.453,2.419,0.961,3.814,0.52l35.057-9.314l9.098,13.23v40.921c0,2.761,2.238,5,5,5c2.762,0,5-2.239,5-5v-40.903
		l9.112-13.248l35.056,9.314c0.423,0.111,2.419,0.498,3.813-0.52c1.365-0.997,1.984-1.782,2.315-3.075
		c0.409-1.599,10.029-39.313,11.973-54.09c0.513-3.893,0.427-7.626-0.258-11.211c27.834,9.129,55.863,21.929,60.686,30.217
		C329.149,70.039,309.871,113.389,309.871,148.08z M319.871,190.598v-6.922l60.976-29.83l2.916,5.777L319.871,190.598z"/>
</g>
<g>
</g>
<g>
</g>
<g>
</g>
<g>
</g>
<g>
</g>
<g>
</g>
<g>
</g>
<g>
</g>
<g>
</g>
<g>
</g>
<g>
</g>
<g>
</g>
<g>
</g>
<g>
</g>
<g>
</g>
</svg>
