<?xml version="1.0" encoding="iso-8859-1"?>
<!-- Generator: Adobe Illustrator 19.1.0, SVG Export Plug-In . SVG Version: 6.00 Build 0)  -->
<svg version="1.1" id="Capa_1" xmlns="http://www.w3.org/2000/svg" xmlns:xlink="http://www.w3.org/1999/xlink" x="0px" y="0px"
	 viewBox="0 0 385.088 385.088" style="enable-background:new 0 0 385.088 385.088;" xml:space="preserve">
<g>
	<path style="fill:#D68E7E;" d="M266.374,27.392V10H118.726v17.392c7.965,1.405,33.454,3.09,73.824,3.09
		S258.409,28.797,266.374,27.392z"/>
	<path style="fill:#7E6F83;" d="M248.584,39.097c-14.983,0.894-34.884,1.385-56.034,1.385s-41.051-0.491-56.034-1.385
		c-7.373-0.438-19.595-1.856-20.779-2.104c-5.911,10.623-22.952,49.604-16.938,137.82c6.572,96.378,13.22,173.035,14.647,189.228
		c8.478,2.906,36.077,11.047,79.099,11.047c11.869,0,23.478-0.621,34.575-1.84c2.426-17.759,12.53-92.664,15.154-126.907
		c0.196-2.559,2.297-4.554,4.863-4.616c0.041-0.002,0.083-0.002,0.124-0.002c2.512,0,4.643,1.869,4.959,4.374
		c0.07,0.562,6.864,55.161,7.279,121.501c5.591-1.402,9.675-2.699,12.144-3.551c1.426-16.179,8.075-92.843,14.647-189.234
		c6.056-88.823-10.964-127.34-16.897-137.826C268.198,37.237,255.957,38.658,248.584,39.097z"/>
	<path style="fill:#3F352F;" d="M276.374,5c0-2.762-2.238-5-5-5H113.726c-2.762,0-5,2.238-5,5v24.211
		c-5.19,7.892-26.669,47.062-19.904,146.281c7.387,108.322,14.869,191.769,14.944,192.599c0.166,1.849,1.343,3.453,3.057,4.167
		c1.257,0.524,31.416,12.83,85.722,12.83c13.643,0,26.972-0.792,39.615-2.354l-0.002-0.017c2.193-0.271,4.024-1.966,4.342-4.26
		c0.085-0.612,5.74-41.533,10.381-80.3c1.429,21.255,2.639,47.566,2.639,75.741c0,2.761,2.236,4.998,4.997,5v0.001
		c2.656-0.098,23.427-6.506,23.75-6.641c1.714-0.714,2.891-2.318,3.057-4.167c0.075-0.83,7.56-84.276,14.944-192.599
		c6.761-99.157-14.687-138.34-19.893-146.266V5z M118.726,10h147.648v17.392c-7.965,1.405-33.454,3.09-73.824,3.09
		s-65.859-1.685-73.824-3.09V10z M286.29,174.812c-6.572,96.392-13.222,173.056-14.647,189.234
		c-2.469,0.852-6.553,2.148-12.144,3.551c-0.415-66.34-7.209-120.939-7.279-121.501c-0.316-2.505-2.447-4.374-4.959-4.374
		c-0.041,0-0.083,0-0.124,0.002c-2.566,0.062-4.667,2.058-4.863,4.616c-2.624,34.243-12.729,109.148-15.154,126.907
		c-11.098,1.219-22.706,1.84-34.575,1.84c-43.021,0-70.621-8.141-79.099-11.047c-1.428-16.193-8.075-92.85-14.647-189.228
		c-6.014-88.217,11.027-127.197,16.938-137.82c1.185,0.248,13.406,1.666,20.779,2.104c14.983,0.894,34.884,1.385,56.034,1.385
		s41.051-0.491,56.034-1.385c7.373-0.438,19.614-1.859,20.809-2.11C275.326,47.473,292.346,85.989,286.29,174.812z"/>
</g>
<g>
</g>
<g>
</g>
<g>
</g>
<g>
</g>
<g>
</g>
<g>
</g>
<g>
</g>
<g>
</g>
<g>
</g>
<g>
</g>
<g>
</g>
<g>
</g>
<g>
</g>
<g>
</g>
<g>
</g>
</svg>
