<?xml version="1.0" encoding="iso-8859-1"?>
<!-- Generator: Adobe Illustrator 19.1.0, SVG Export Plug-In . SVG Version: 6.00 Build 0)  -->
<svg version="1.1" id="Capa_1" xmlns="http://www.w3.org/2000/svg" xmlns:xlink="http://www.w3.org/1999/xlink" x="0px" y="0px"
	 viewBox="0 0 392.639 392.639" style="enable-background:new 0 0 392.639 392.639;" xml:space="preserve">
<g>
	<path style="fill:#C7BEA8;" d="M196.334,38.611c-0.005,0-0.01-0.002-0.015-0.002c-0.005,0-0.01,0.002-0.015,0.002
		c-29.812,0.229-56.224-0.938-74.065-5.34c-6.443,16.654-25.701,70.342-26.045,117.895c-0.401,55.145,18.135,182.76,19.825,194.268
		c5.649,10.723,13.383,18.469,21.113,24.023L253.648,36.346C240.165,37.85,220.969,38.611,196.334,38.611z"/>
	<path style="fill:#7E6F83;" d="M270.399,33.271c-1.747,0.572-3.659,1.018-5.572,1.402L145.829,374.883
		c6.876,3.703,13.071,5.781,16.922,6.85L276.128,49.045C273.828,42.318,271.808,36.91,270.399,33.271z"/>
	<path style="fill:#7E6F83;" d="M267.384,23.764L264.727,10H127.912l-2.658,13.764c4.814,1.602,33.774,4.848,71.05,4.848
		S266.109,24.188,267.384,23.764z"/>
	<polygon style="fill:#C7BEA8;" points="189.712,333.621 202.927,333.621 196.319,314.232 	"/>
	<path style="fill:#C7BEA8;" d="M281.265,64.975l-65.27,191.523l39.512,112.959c7.73-5.555,15.464-13.299,21.113-24.023
		c1.689-11.51,20.226-139.127,19.825-194.268C296.228,121.287,288.545,88.99,281.265,64.975z"/>
	<path style="fill:#7E6F83;" d="M201.602,298.732l28.287,83c3.849-1.066,10.044-3.145,16.922-6.85L210.767,271.84L201.602,298.732z"
		/>
	<path style="fill:#3F352F;" d="M277.745,24.676l-3.982-20.625C273.309,1.699,271.249,0,268.853,0H123.785
		c-2.396,0-4.455,1.699-4.909,4.051l-3.982,20.625c-2.764,6.647-28.287,69.539-28.7,126.418
		c-0.423,58.256,19.219,191.012,20.055,196.633c0.08,0.539,0.247,1.059,0.495,1.543c18.628,36.404,56.765,43.369,59.281,43.369
		c2.108,0,4.03-1.336,4.73-3.387l15.55-45.631h20.031l15.551,45.631c0.699,2.051,2.621,3.387,4.729,3.387
		c3.541,0,40.653-6.965,59.281-43.369c0.248-0.484,0.415-1.004,0.495-1.543c0.836-5.621,20.478-138.377,20.055-196.633
		C306.032,94.215,280.509,31.322,277.745,24.676z M127.912,10h136.815l2.658,13.764c-1.275,0.424-33.804,4.848-71.08,4.848
		s-66.236-3.246-71.05-4.848L127.912,10z M116.019,345.434c-1.69-11.508-20.226-139.123-19.825-194.268
		c0.345-47.553,19.602-101.24,26.045-117.895c17.842,4.402,44.253,5.569,74.065,5.34c0.005,0,0.01-0.002,0.015-0.002
		c0.005,0,0.01,0.002,0.015,0.002c24.635,0,43.831-0.762,57.314-2.266L137.132,369.457
		C129.401,363.902,121.667,356.156,116.019,345.434z M162.751,381.732c-3.851-1.068-10.046-3.146-16.922-6.85L264.828,34.674
		c1.913-0.385,3.824-0.83,5.572-1.402c1.408,3.639,3.428,9.047,5.729,15.773L162.751,381.732z M189.712,333.621l6.607-19.389
		l6.607,19.389H189.712z M229.888,381.732l-28.287-83l9.165-26.893l36.044,103.043C239.932,378.588,233.737,380.666,229.888,381.732
		z M276.62,345.434c-5.649,10.725-13.383,18.469-21.113,24.023l-39.512-112.959l65.27-191.523
		c7.28,24.016,14.963,56.312,15.18,86.191C296.846,206.307,278.31,333.924,276.62,345.434z"/>
</g>
<g>
</g>
<g>
</g>
<g>
</g>
<g>
</g>
<g>
</g>
<g>
</g>
<g>
</g>
<g>
</g>
<g>
</g>
<g>
</g>
<g>
</g>
<g>
</g>
<g>
</g>
<g>
</g>
<g>
</g>
</svg>
