<?xml version="1.0" encoding="iso-8859-1"?>
<!-- Generator: Adobe Illustrator 19.1.0, SVG Export Plug-In . SVG Version: 6.00 Build 0)  -->
<svg version="1.1" id="Capa_1" xmlns="http://www.w3.org/2000/svg" xmlns:xlink="http://www.w3.org/1999/xlink" x="0px" y="0px"
	 viewBox="0 0 422.606 422.606" style="enable-background:new 0 0 422.606 422.606;" xml:space="preserve">
<g>
	<rect x="169.31" y="10" style="fill:#AB9E85;" width="7.15" height="22.314"/>
	<path style="fill:#AB9E85;" d="M349.439,114.871V101.94l-7.875,7.129c0.225,1.44-0.156,2.963-1.21,4.128
		c-0.987,1.09-2.345,1.645-3.709,1.645c-0.424,0-0.844-0.073-1.258-0.182l-12.469,11.288l12.471,11.289
		c1.744-0.452,3.67,0.033,4.964,1.462c1.054,1.164,1.435,2.688,1.211,4.127l7.875,7.129v-12.933
		c-0.752,0.417-1.581,0.637-2.412,0.637c-1.363,0-2.721-0.554-3.708-1.645c-1.853-2.048-1.696-5.209,0.352-7.062l3.318-3.004
		l-3.318-3.004c-2.047-1.854-2.205-5.015-0.352-7.062C344.907,114.127,347.453,113.771,349.439,114.871z"/>
	<path style="fill:#AB9E85;" d="M157.114,155.899c1.293-1.429,3.22-1.915,4.964-1.462l12.471-11.289L162.08,131.86
		c-0.414,0.107-0.834,0.181-1.258,0.181c-1.363,0-2.721-0.555-3.708-1.645c-1.054-1.165-1.435-2.688-1.21-4.127l-7.875-7.129v12.93
		c1.985-1.099,4.531-0.743,6.121,1.012c1.853,2.047,1.696,5.209-0.352,7.062l-3.318,3.004l3.318,3.004
		c2.047,1.854,2.205,5.015,0.352,7.062c-0.987,1.09-2.345,1.645-3.708,1.645c-0.831,0-1.66-0.221-2.412-0.637v12.934l7.875-7.129
		C155.679,158.587,156.06,157.064,157.114,155.899z"/>
	<path style="fill:#AB9E85;" d="M68.273,312.573c-3.059,5.218-5.025,10.112-5.142,15.732c-0.347,16.717,12.971,30.599,29.687,30.945
		c7.37,0.168,14.327-2.298,19.856-6.863C102.639,327.182,77.509,315.945,68.273,312.573z"/>
	<path style="fill:#C7BEA8;" d="M221.841,245.043l-25.011-13.017c-2.449-1.275-3.401-4.294-2.126-6.744
		c1.274-2.449,4.294-3.4,6.744-2.126l24.19,12.59c1.811-10.146-2.087-22.345-7.119-35.513c-0.821-2.149-1.597-4.18-2.262-6.065
		c-0.189-0.533-0.285-1.096-0.285-1.662v-11.861l-14.486-13.113l-2.365,2.141c-0.957,0.867-2.157,1.293-3.354,1.293
		c-1.363,0-2.721-0.554-3.708-1.645c-1.853-2.047-1.696-5.209,0.352-7.062l1.625-1.471l-12.035-10.895l-12.035,10.895l1.626,1.472
		c2.047,1.854,2.205,5.015,0.352,7.062c-0.987,1.091-2.345,1.645-3.709,1.645c-1.197,0-2.397-0.427-3.354-1.293l-2.366-2.142
		l-14.697,13.305c-1.473,29.16-10.377,41.33-11.457,42.701l-62.061,80.59c11.503,4.534,34.329,16.19,45.825,40.342l62.61-70.61
		c0.4-0.464,11-12.655,22.82-17.262C213.443,253.522,218.643,249.617,221.841,245.043z M188.741,179.067l-3.386,3.065
		c-0.957,0.866-2.157,1.293-3.354,1.293l-0.001-0.004l-0.001,0.004c-1.197,0-2.397-0.426-3.354-1.293l-3.386-3.064
		c-2.047-1.854-2.205-5.016-0.351-7.062c1.853-2.048,5.015-2.205,7.062-0.352l0.03,0.027l0.031-0.027
		c2.046-1.854,5.209-1.696,7.062,0.352C190.946,174.053,190.788,177.215,188.741,179.067z"/>
	<path style="fill:#AB9E85;" d="M157.115,85.344c1.293-1.43,3.219-1.916,4.963-1.463l12.471-11.289L162.08,61.305
		c-0.414,0.107-0.834,0.181-1.257,0.181c-1.363,0-2.721-0.554-3.708-1.644c-1.054-1.165-1.435-2.687-1.21-4.128l-7.875-7.129v12.931
		c1.985-1.099,4.531-0.743,6.121,1.011c1.853,2.048,1.696,5.209-0.352,7.062l-3.318,3.004l3.318,3.004
		c2.047,1.854,2.205,5.016,0.352,7.062c-0.987,1.091-2.345,1.644-3.708,1.644c-0.831,0-1.66-0.22-2.412-0.637V96.6l7.875-7.13
		C155.679,88.03,156.06,86.508,157.115,85.344z"/>
	<path style="fill:#C7BEA8;" d="M174.025,42.314h-18.022l6.512,5.895l2.365-2.142c2.047-1.852,5.208-1.696,7.062,0.352
		c1.853,2.048,1.696,5.209-0.352,7.062l-1.626,1.472l12.035,10.895l12.035-10.895l-1.625-1.471
		c-2.047-1.854-2.205-5.016-0.352-7.062c1.853-2.049,5.015-2.205,7.062-0.352l2.365,2.141l6.512-5.895h-18.022
		c-0.213,0.506-0.493,0.99-0.882,1.42c-0.987,1.091-2.345,1.645-3.708,1.645c-1.197,0-2.397-0.426-3.354-1.293l-0.031-0.027
		l-0.03,0.027c-0.957,0.865-2.158,1.293-3.354,1.293c-1.363,0-2.721-0.555-3.708-1.645
		C174.518,43.305,174.238,42.819,174.025,42.314z"/>
	<path style="fill:#AB9E85;" d="M215.971,61.515V48.584l-7.875,7.129c0.225,1.44-0.156,2.963-1.211,4.129
		c-0.987,1.09-2.345,1.645-3.708,1.645c-0.424,0-0.844-0.074-1.258-0.182L189.45,72.592l12.471,11.289
		c1.744-0.452,3.67,0.033,4.964,1.463c1.054,1.164,1.435,2.687,1.21,4.127l7.876,7.129V83.666c-0.752,0.417-1.581,0.637-2.412,0.637
		c-1.363,0-2.721-0.554-3.708-1.644c-1.853-2.047-1.696-5.209,0.352-7.062l3.318-3.004l-3.318-3.004
		c-2.047-1.854-2.205-5.015-0.352-7.062C211.439,60.771,213.986,60.416,215.971,61.515z"/>
	<path style="fill:#8EB6CA;" d="M169.964,125.509l12.035,10.896l12.035-10.896l-1.625-1.472c-2.047-1.853-2.205-5.015-0.352-7.062
		c1.853-2.048,5.015-2.204,7.062-0.352l2.365,2.141l12.035-10.895l-12.035-10.894l-2.365,2.142
		c-0.957,0.865-2.157,1.293-3.354,1.293c-1.363,0-2.721-0.555-3.708-1.645c-1.853-2.048-1.696-5.209,0.352-7.062l1.625-1.473
		l-12.035-10.894L169.965,90.23l1.626,1.473c2.047,1.854,2.205,5.015,0.352,7.062c-0.987,1.09-2.345,1.645-3.708,1.645
		c-1.197,0-2.397-0.428-3.354-1.293l-2.366-2.142l-12.035,10.895l12.035,10.895l2.366-2.142c2.047-1.854,5.208-1.696,7.062,0.352
		c1.853,2.047,1.696,5.209-0.352,7.062L169.964,125.509z M174.907,101.449c1.854-2.048,5.015-2.204,7.062-0.352l0.03,0.027
		l0.03-0.027c2.048-1.852,5.208-1.696,7.062,0.352c1.655,1.828,1.695,4.54,0.228,6.42c1.468,1.881,1.428,4.593-0.228,6.422
		c-0.987,1.09-2.345,1.645-3.708,1.645c-1.197,0-2.397-0.428-3.354-1.294l-0.031-0.028l-0.03,0.027
		c-0.957,0.867-2.158,1.294-3.354,1.294c-1.363,0-2.721-0.554-3.708-1.645c-1.656-1.828-1.696-4.54-0.228-6.421
		C173.212,105.989,173.252,103.278,174.907,101.449z"/>
	<path style="fill:#AB9E85;" d="M215.971,132.07v-12.93l-7.875,7.129c0.225,1.439-0.156,2.963-1.211,4.127
		c-0.987,1.091-2.345,1.645-3.708,1.645c-0.424,0-0.844-0.072-1.258-0.18l-12.469,11.287l12.472,11.289
		c1.744-0.452,3.67,0.033,4.963,1.461c1.055,1.165,1.436,2.688,1.211,4.128l7.876,7.13v-12.934
		c-0.752,0.416-1.581,0.637-2.412,0.637c-1.363,0-2.721-0.555-3.708-1.645c-1.853-2.048-1.696-5.209,0.352-7.062l3.318-3.004
		l-3.318-3.004c-2.047-1.854-2.205-5.016-0.352-7.062C211.439,131.326,213.986,130.971,215.971,132.07z"/>
	<path style="fill:#AB9E85;" d="M212.606,26.488c-0.133-0.455-0.2-0.926-0.2-1.4V10h-8.795v22.314h10.694L212.606,26.488z"/>
	<rect x="186.46" y="10" style="fill:#AB9E85;" width="7.15" height="22.314"/>
	<path style="fill:#AB9E85;" d="M159.31,10h-7.714v15.088c0,0.475-0.067,0.946-0.2,1.4l-1.7,5.826h9.614V10z"/>
	<path style="fill:#AB9E85;" d="M290.582,209.256c1.294-1.43,3.22-1.916,4.964-1.463l12.471-11.289l-12.469-11.287
		c-0.414,0.107-0.834,0.18-1.258,0.18c-1.363,0-2.721-0.554-3.709-1.645c-1.054-1.164-1.435-2.688-1.21-4.127l-7.875-7.129v12.93
		c1.985-1.098,4.531-0.742,6.121,1.012c1.853,2.047,1.696,5.209-0.352,7.062l-3.318,3.004l3.318,3.004
		c2.047,1.854,2.205,5.016,0.352,7.062c-0.987,1.09-2.345,1.645-3.708,1.645c-0.831,0-1.66-0.221-2.412-0.637v12.934l7.875-7.129
		C289.147,211.943,289.528,210.42,290.582,209.256z"/>
	<path style="fill:#AB9E85;" d="M290.582,138.699c1.293-1.43,3.219-1.916,4.963-1.463l12.471-11.288l-12.469-11.288
		c-0.414,0.107-0.834,0.182-1.257,0.182c-1.363,0-2.721-0.555-3.709-1.645c-1.054-1.166-1.435-2.688-1.21-4.128l-7.875-7.129v12.931
		c1.985-1.1,4.531-0.744,6.121,1.011c1.853,2.048,1.696,5.209-0.352,7.062l-3.318,3.004l3.318,3.004
		c2.047,1.854,2.205,5.015,0.352,7.062c-0.987,1.091-2.345,1.645-3.708,1.645c-0.831,0-1.66-0.22-2.412-0.637v12.933l7.875-7.129
		C289.147,141.387,289.528,139.863,290.582,138.699z"/>
	<path style="fill:#AB9E85;" d="M292.778,63.355h-7.714v15.089c0,0.474-0.067,0.946-0.2,1.4l-1.7,5.825h9.614V63.355z"/>
	<path style="fill:#C7BEA8;" d="M349.723,247.524c-0.188-0.534-0.285-1.097-0.285-1.663V234l-14.486-13.113l-2.365,2.142
		c-0.957,0.866-2.157,1.293-3.354,1.293c-1.363,0-2.721-0.554-3.708-1.645c-1.853-2.048-1.696-5.21,0.352-7.062l1.625-1.472
		l-12.035-10.895l-12.035,10.895l1.626,1.473c2.047,1.854,2.205,5.015,0.352,7.062c-0.987,1.09-2.345,1.645-3.708,1.645
		c-1.197,0-2.397-0.428-3.354-1.293l-2.366-2.143l-14.697,13.305c-1.473,29.161-10.378,41.33-11.457,42.701l-62.061,80.59
		c11.503,4.535,34.329,16.191,45.825,40.342l62.61-70.609c0.4-0.465,11-12.656,22.82-17.262c7.888-3.075,13.088-6.98,16.286-11.555
		l-25.011-13.018c-2.449-1.274-3.401-4.294-2.126-6.743c1.274-2.449,4.294-3.401,6.744-2.127l24.19,12.59
		c1.811-10.146-2.087-22.345-7.119-35.513C351.164,251.438,350.388,249.409,349.723,247.524z M322.209,232.424l-3.386,3.064
		c-0.957,0.867-2.157,1.294-3.354,1.294l-0.002-0.004l-0.001,0.004c-1.197,0-2.397-0.427-3.354-1.294l-3.386-3.064
		c-2.047-1.854-2.205-5.016-0.351-7.062c1.853-2.047,5.015-2.205,7.062-0.351l0.03,0.027l0.031-0.028
		c2.046-1.853,5.209-1.695,7.062,0.352C324.413,227.408,324.256,230.57,322.209,232.424z"/>
	<rect x="302.778" y="63.355" style="fill:#AB9E85;" width="7.15" height="22.315"/>
	<path style="fill:#AB9E85;" d="M201.741,365.93c-3.059,5.217-5.025,10.111-5.142,15.732c-0.347,16.717,12.971,30.598,29.686,30.945
		c7.37,0.168,14.327-2.299,19.856-6.863C236.107,380.537,210.977,369.301,201.741,365.93z"/>
	<rect x="319.928" y="63.355" style="fill:#AB9E85;" width="7.15" height="22.315"/>
	<path style="fill:#AB9E85;" d="M346.073,79.844c-0.133-0.455-0.2-0.926-0.2-1.399V63.355h-8.795V85.67h10.694L346.073,79.844z"/>
	<path style="fill:#8EB6CA;" d="M303.432,178.865l12.035,10.895l12.035-10.895l-1.625-1.472c-2.047-1.852-2.205-5.015-0.352-7.062
		c1.853-2.048,5.015-2.204,7.062-0.351l2.365,2.141l12.035-10.895l-12.035-10.894l-2.365,2.141
		c-0.957,0.866-2.157,1.293-3.354,1.293c-1.363,0-2.721-0.555-3.708-1.645c-1.853-2.047-1.696-5.209,0.352-7.062l1.625-1.472
		l-12.035-10.894l-12.035,10.894l1.626,1.472c2.047,1.854,2.205,5.016,0.352,7.062c-0.987,1.09-2.345,1.645-3.708,1.645
		c-1.197,0-2.397-0.427-3.354-1.293l-2.366-2.141l-12.035,10.895l12.035,10.895l2.366-2.143c2.047-1.853,5.208-1.695,7.062,0.352
		c1.853,2.048,1.696,5.209-0.352,7.062L303.432,178.865z M308.375,154.806c1.854-2.048,5.015-2.204,7.062-0.352l0.03,0.027
		l0.03-0.027c2.048-1.853,5.208-1.696,7.062,0.351c1.655,1.829,1.695,4.541,0.228,6.421c1.468,1.88,1.428,4.593-0.228,6.421
		c-0.987,1.09-2.345,1.645-3.708,1.645c-1.197,0-2.397-0.427-3.354-1.293l-0.031-0.028l-0.03,0.027
		c-0.957,0.866-2.158,1.294-3.354,1.294c-1.363,0-2.721-0.555-3.708-1.645c-1.656-1.828-1.696-4.541-0.228-6.421
		C306.679,159.346,306.719,156.635,308.375,154.806z"/>
	<path style="fill:#C7BEA8;" d="M307.492,95.67H289.47l6.512,5.895l2.365-2.141c2.047-1.854,5.208-1.697,7.062,0.352
		c1.853,2.047,1.696,5.209-0.352,7.062l-1.626,1.471l12.035,10.896l12.035-10.896l-1.625-1.471
		c-2.047-1.854-2.205-5.016-0.352-7.062c1.853-2.049,5.015-2.205,7.062-0.352l2.365,2.141l6.512-5.895h-18.022
		c-0.213,0.506-0.493,0.991-0.882,1.421c-0.987,1.091-2.345,1.645-3.708,1.645c-1.197,0-2.397-0.427-3.354-1.294l-0.031-0.027
		l-0.03,0.027c-0.957,0.866-2.158,1.293-3.354,1.293c-1.363,0-2.721-0.554-3.708-1.645C307.986,96.66,307.705,96.176,307.492,95.67z
		"/>
	<path style="fill:#AB9E85;" d="M349.439,185.426v-12.93l-7.875,7.129c0.225,1.44-0.156,2.963-1.21,4.128
		c-0.987,1.091-2.345,1.645-3.709,1.645c-0.424,0-0.844-0.073-1.258-0.181l-12.469,11.287l12.472,11.289
		c1.744-0.451,3.67,0.033,4.963,1.461c1.055,1.166,1.436,2.688,1.211,4.129l7.875,7.129v-12.934
		c-0.752,0.416-1.581,0.637-2.412,0.637c-1.363,0-2.721-0.555-3.708-1.645c-1.853-2.047-1.696-5.209,0.352-7.062l3.318-3.004
		l-3.318-3.004c-2.047-1.854-2.205-5.016-0.352-7.062C344.907,184.682,347.453,184.327,349.439,185.426z"/>
	<path style="fill:#3F352F;" d="M359.439,244.995V90.67c0-0.001,0-0.002,0-0.003c0-0.702-0.176-1.315-0.2-1.397l-3.365-11.539
		V58.355c0-2.762-2.239-5-5-5h-70.81c-2.761,0-5,2.238-5,5V77.73l-3.367,11.539c-0.024,0.082-0.2,0.621-0.2,1.398v0.002v135.188
		c0,32.403-9.406,44.697-9.464,44.773c-0.037,0.045-66.635,86.543-66.673,86.604c-4.429,6.865-8.556,14.553-8.758,24.219
		c-0.461,22.23,17.249,40.691,39.477,41.152c0.289,0.006,19.653,0,32.322-15.131l65.327-73.676
		c0.093-0.107,9.446-10.834,18.926-14.527c39.287-15.312,25.877-50.402,18.673-69.254C360.647,248.24,360,246.547,359.439,244.995z
		 M343.67,122.944l3.318,3.004l-3.318,3.004c-2.047,1.854-2.205,5.015-0.352,7.062c0.987,1.091,2.345,1.645,3.708,1.645
		c0.832,0,1.66-0.22,2.412-0.637v12.933l-7.875-7.129c0.225-1.439-0.156-2.963-1.211-4.127c-1.294-1.429-3.22-1.914-4.964-1.462
		l-12.471-11.289l12.469-11.288c0.414,0.108,0.835,0.182,1.258,0.182c1.363,0,2.722-0.555,3.709-1.645
		c1.054-1.165,1.436-2.688,1.21-4.128l7.875-7.129v12.931c-1.985-1.1-4.532-0.744-6.121,1.011
		C341.465,117.93,341.622,121.091,343.67,122.944z M343.67,193.5l3.318,3.004l-3.318,3.004c-2.047,1.854-2.205,5.016-0.352,7.062
		c0.987,1.09,2.345,1.645,3.708,1.645c0.832,0,1.66-0.221,2.412-0.637v12.934l-7.875-7.129c0.225-1.441-0.156-2.963-1.211-4.129
		c-1.293-1.428-3.219-1.912-4.963-1.461l-12.472-11.289l12.469-11.287c0.414,0.107,0.835,0.181,1.258,0.181
		c1.363,0,2.722-0.554,3.709-1.645c1.054-1.165,1.435-2.688,1.21-4.128l7.875-7.129v12.93c-1.985-1.099-4.532-0.744-6.121,1.012
		C341.465,188.484,341.622,191.646,343.67,193.5z M305.409,170.33c-1.854-2.047-5.015-2.204-7.062-0.352l-2.366,2.143
		l-12.035-10.895l12.035-10.895l2.366,2.141c0.957,0.866,2.157,1.293,3.354,1.293c1.363,0,2.721-0.555,3.708-1.645
		c1.853-2.047,1.696-5.209-0.352-7.062l-1.626-1.472l12.035-10.894l12.035,10.894l-1.625,1.472
		c-2.047,1.854-2.205,5.016-0.352,7.062c0.987,1.09,2.345,1.645,3.708,1.645c1.197,0,2.397-0.427,3.354-1.293l2.365-2.141
		l12.035,10.894l-12.035,10.895l-2.365-2.141c-2.047-1.853-5.21-1.696-7.062,0.351c-1.853,2.048-1.696,5.21,0.352,7.062l1.625,1.472
		l-12.035,10.895l-12.035-10.895l1.626-1.473C307.105,175.539,307.262,172.378,305.409,170.33z M337.078,63.355h8.795v15.089
		c0,0.474,0.067,0.944,0.2,1.399l1.699,5.826h-10.694V63.355z M319.928,63.355h7.15V85.67h-7.15V63.355z M315.437,97.441l0.03-0.027
		l0.031,0.027c0.957,0.867,2.157,1.294,3.354,1.294c1.363,0,2.721-0.554,3.708-1.645c0.389-0.43,0.669-0.915,0.882-1.421h18.022
		l-6.512,5.895l-2.365-2.141c-2.047-1.854-5.21-1.697-7.062,0.352c-1.853,2.047-1.696,5.209,0.352,7.062l1.625,1.471l-12.035,10.896
		l-12.035-10.896l1.626-1.471c2.047-1.854,2.205-5.016,0.352-7.062c-1.854-2.049-5.015-2.205-7.062-0.352l-2.365,2.141l-6.512-5.895
		h18.022c0.213,0.506,0.493,0.99,0.882,1.42c0.987,1.091,2.345,1.645,3.708,1.645C313.279,98.734,314.48,98.308,315.437,97.441z
		 M302.778,63.355h7.15V85.67h-7.15V63.355z M284.864,79.845c0.133-0.454,0.2-0.927,0.2-1.4V63.355h7.714V85.67h-9.614
		L284.864,79.845z M281.496,137.022c0.752,0.417,1.581,0.637,2.412,0.637c1.363,0,2.721-0.554,3.708-1.645
		c1.853-2.048,1.696-5.209-0.352-7.062l-3.318-3.004l3.318-3.004c2.047-1.854,2.205-5.015,0.352-7.062
		c-1.589-1.755-4.135-2.11-6.121-1.011V101.94l7.875,7.129c-0.225,1.44,0.156,2.962,1.21,4.128c0.987,1.09,2.345,1.645,3.709,1.645
		c0.424,0,0.844-0.074,1.257-0.182l12.469,11.288l-12.471,11.288c-1.744-0.453-3.67,0.033-4.963,1.463
		c-1.054,1.164-1.435,2.688-1.21,4.127l-7.875,7.129V137.022z M281.496,207.578c0.752,0.416,1.581,0.637,2.412,0.637
		c1.363,0,2.721-0.555,3.708-1.645c1.853-2.047,1.696-5.209-0.352-7.062l-3.318-3.004l3.318-3.004
		c2.047-1.854,2.205-5.016,0.352-7.062c-1.589-1.754-4.135-2.109-6.121-1.012v-12.93l7.875,7.129
		c-0.225,1.439,0.156,2.963,1.21,4.127c0.987,1.091,2.345,1.645,3.709,1.645c0.424,0,0.844-0.072,1.258-0.18l12.469,11.287
		l-12.471,11.289c-1.744-0.453-3.67,0.033-4.964,1.463c-1.054,1.164-1.435,2.688-1.21,4.127l-7.875,7.129V207.578z M226.285,412.607
		c-16.716-0.348-30.033-14.228-29.686-30.945c0.117-5.621,2.083-10.516,5.142-15.732c9.236,3.371,34.366,14.607,44.4,39.814
		C240.612,410.309,233.656,412.775,226.285,412.607z M359.104,289.101l-24.19-12.59c-2.45-1.274-5.469-0.322-6.744,2.127
		c-1.275,2.449-0.323,5.469,2.126,6.743l25.011,13.018c-3.198,4.574-8.398,8.479-16.286,11.555
		c-11.82,4.605-22.421,16.797-22.82,17.262l-62.61,70.609c-11.497-24.15-34.322-35.807-45.825-40.342l62.061-80.59
		c1.08-1.371,9.984-13.54,11.457-42.701l14.697-13.305l2.366,2.143c0.957,0.865,2.157,1.293,3.354,1.293
		c1.363,0,2.721-0.555,3.708-1.645c1.853-2.048,1.696-5.209-0.352-7.062l-1.626-1.473l12.035-10.895l12.035,10.895l-1.625,1.472
		c-2.047,1.853-2.205,5.015-0.352,7.062c0.987,1.091,2.345,1.645,3.708,1.645c1.197,0,2.397-0.427,3.354-1.293l2.365-2.142
		L349.439,234v11.861c0,0.566,0.096,1.129,0.285,1.663c0.665,1.885,1.44,3.914,2.262,6.064
		C357.017,266.756,360.916,278.954,359.104,289.101z"/>
	<path style="fill:#3F352F;" d="M315.498,225.01l-0.031,0.028l-0.03-0.027c-2.047-1.854-5.21-1.696-7.062,0.351
		c-1.853,2.047-1.696,5.209,0.351,7.062l3.386,3.064c0.957,0.867,2.157,1.294,3.354,1.294l0.001-0.004l0.002,0.004
		c1.197,0,2.397-0.427,3.354-1.294l3.386-3.064c2.047-1.854,2.205-5.016,0.351-7.062
		C320.707,223.314,317.544,223.157,315.498,225.01z"/>
	<path style="fill:#3F352F;" d="M308.375,167.646c0.987,1.09,2.345,1.645,3.708,1.645c1.196,0,2.397-0.428,3.354-1.294l0.03-0.027
		l0.031,0.028c0.957,0.866,2.157,1.293,3.354,1.293c1.363,0,2.721-0.555,3.708-1.645c1.656-1.828,1.696-4.541,0.228-6.421
		c1.467-1.88,1.427-4.592-0.228-6.421c-1.854-2.047-5.015-2.203-7.062-0.351l-0.03,0.027l-0.03-0.027
		c-2.048-1.853-5.209-1.696-7.062,0.352c-1.655,1.829-1.695,4.54-0.228,6.42C306.679,163.105,306.719,165.818,308.375,167.646z"/>
	<path style="fill:#3F352F;" d="M209.186,265.915c39.287-15.312,25.877-50.401,18.673-69.253c-0.68-1.777-1.327-3.471-1.888-5.023
		V37.314c0-0.002-0.001-0.002-0.001-0.004c0-0.701-0.176-1.315-0.2-1.396l-3.365-11.54V5c0-2.762-2.239-5-5-5h-70.81
		c-2.761,0-5,2.238-5,5v19.374l-3.367,11.54c-0.024,0.082-0.2,0.621-0.2,1.398v0.002v135.188c0,32.402-9.406,44.697-9.464,44.773
		c-0.037,0.045-66.635,86.543-66.673,86.602c-4.429,6.866-8.556,14.553-8.758,24.22c-0.461,22.23,17.248,40.69,39.478,41.151
		c0.289,0.006,19.653,0,32.322-15.13l65.327-73.676C190.353,280.336,199.706,269.608,209.186,265.915z M210.202,69.588l3.318,3.004
		l-3.318,3.004c-2.047,1.854-2.205,5.016-0.352,7.062c0.987,1.091,2.345,1.644,3.708,1.644c0.832,0,1.66-0.22,2.412-0.637V96.6
		l-7.876-7.129c0.225-1.441-0.156-2.963-1.21-4.127c-1.294-1.43-3.22-1.915-4.964-1.463L189.45,72.592l12.469-11.287
		c0.414,0.107,0.835,0.182,1.258,0.182c1.363,0,2.722-0.555,3.708-1.645c1.054-1.166,1.436-2.688,1.211-4.129l7.875-7.129v12.931
		c-1.985-1.099-4.532-0.744-6.121,1.011C207.997,64.573,208.155,67.734,210.202,69.588z M210.202,140.145l3.318,3.004l-3.318,3.004
		c-2.047,1.854-2.205,5.015-0.352,7.062c0.987,1.09,2.345,1.645,3.708,1.645c0.832,0,1.66-0.221,2.412-0.637v12.934l-7.876-7.13
		c0.225-1.44-0.156-2.963-1.211-4.128c-1.293-1.428-3.219-1.913-4.963-1.461l-12.472-11.289l12.469-11.287
		c0.414,0.107,0.835,0.18,1.258,0.18c1.363,0,2.722-0.554,3.708-1.645c1.054-1.164,1.435-2.688,1.211-4.127l7.875-7.129v12.93
		c-1.985-1.1-4.532-0.744-6.121,1.012C207.997,135.129,208.155,138.291,210.202,140.145z M171.942,116.975
		c-1.855-2.048-5.015-2.205-7.062-0.352l-2.366,2.142l-12.035-10.895l12.035-10.895l2.366,2.142
		c0.957,0.865,2.157,1.293,3.354,1.293c1.363,0,2.721-0.555,3.708-1.645c1.853-2.048,1.696-5.209-0.352-7.062l-1.626-1.473
		l12.035-10.894l12.035,10.894l-1.625,1.473c-2.047,1.854-2.205,5.015-0.352,7.062c0.987,1.09,2.345,1.645,3.708,1.645
		c1.197,0,2.397-0.428,3.354-1.293l2.365-2.142l12.035,10.894l-12.035,10.895l-2.365-2.141c-2.047-1.853-5.21-1.696-7.062,0.352
		c-1.853,2.048-1.696,5.21,0.352,7.062l1.625,1.472l-12.035,10.896l-12.035-10.896l1.626-1.472
		C173.637,122.184,173.795,119.021,171.942,116.975z M203.611,10h8.795v15.088c0,0.475,0.067,0.945,0.2,1.4l1.699,5.826h-10.694V10z
		 M186.46,10h7.15v22.314h-7.15V10z M181.969,44.086l0.03-0.027l0.031,0.027c0.957,0.867,2.157,1.293,3.354,1.293
		c1.363,0,2.721-0.554,3.708-1.645c0.389-0.43,0.669-0.914,0.882-1.42h18.022l-6.512,5.895l-2.365-2.141
		c-2.047-1.853-5.21-1.697-7.062,0.352c-1.853,2.047-1.696,5.209,0.352,7.062l1.625,1.471l-12.035,10.895l-12.035-10.895
		l1.626-1.472c2.047-1.854,2.205-5.015,0.352-7.062c-1.855-2.048-5.015-2.204-7.062-0.352l-2.365,2.142l-6.512-5.895h18.022
		c0.213,0.505,0.493,0.99,0.882,1.42c0.987,1.09,2.345,1.645,3.708,1.645C179.811,45.379,181.012,44.951,181.969,44.086z M169.31,10
		h7.15v22.314h-7.15V10z M151.396,26.488c0.133-0.454,0.2-0.926,0.2-1.4V10h7.714v22.314h-9.614L151.396,26.488z M148.029,83.666
		c0.752,0.417,1.581,0.637,2.412,0.637c1.363,0,2.721-0.554,3.708-1.644c1.853-2.047,1.696-5.209-0.352-7.062l-3.318-3.004
		l3.318-3.004c2.047-1.854,2.205-5.015,0.352-7.062c-1.589-1.754-4.135-2.109-6.121-1.011V48.584l7.875,7.129
		c-0.225,1.441,0.156,2.963,1.21,4.128c0.987,1.091,2.345,1.644,3.708,1.644c0.424,0,0.844-0.073,1.257-0.181l12.469,11.287
		l-12.471,11.289c-1.744-0.453-3.67,0.033-4.963,1.463c-1.054,1.164-1.435,2.687-1.211,4.126l-7.875,7.13V83.666z M148.029,154.223
		c0.752,0.416,1.581,0.637,2.412,0.637c1.363,0,2.721-0.555,3.708-1.645c1.853-2.048,1.696-5.209-0.352-7.062l-3.318-3.004
		l3.318-3.004c2.047-1.854,2.205-5.016,0.352-7.062c-1.589-1.755-4.135-2.11-6.121-1.012v-12.93l7.875,7.129
		c-0.225,1.439,0.156,2.962,1.21,4.127c0.987,1.09,2.345,1.645,3.708,1.645c0.424,0,0.844-0.073,1.258-0.181l12.469,11.288
		l-12.471,11.289c-1.744-0.453-3.67,0.033-4.964,1.462c-1.054,1.165-1.435,2.688-1.21,4.128l-7.875,7.129V154.223z M92.818,359.251
		c-16.716-0.347-30.033-14.228-29.687-30.945c0.117-5.62,2.083-10.515,5.142-15.732c9.236,3.372,34.366,14.608,44.4,39.814
		C107.144,356.953,100.188,359.419,92.818,359.251z M182.735,273.858l-62.61,70.61c-11.497-24.151-34.322-35.808-45.825-40.342
		l62.061-80.59c1.08-1.371,9.984-13.541,11.457-42.701l14.697-13.305l2.366,2.142c0.957,0.866,2.157,1.293,3.354,1.293
		c1.363,0,2.721-0.554,3.709-1.645c1.853-2.048,1.696-5.209-0.352-7.062l-1.626-1.472l12.035-10.895l12.035,10.895l-1.625,1.471
		c-2.047,1.854-2.205,5.016-0.352,7.062c0.987,1.091,2.345,1.645,3.708,1.645c1.197,0,2.397-0.426,3.354-1.293l2.365-2.141
		l14.486,13.113v11.861c0,0.566,0.096,1.129,0.285,1.662c0.665,1.885,1.44,3.915,2.262,6.065
		c5.032,13.168,8.931,25.366,7.119,35.513l-24.19-12.59c-2.45-1.274-5.469-0.323-6.744,2.126c-1.275,2.45-0.323,5.469,2.126,6.744
		l25.011,13.017c-3.198,4.574-8.398,8.48-16.286,11.554C193.735,261.203,183.135,273.395,182.735,273.858z"/>
	<path style="fill:#3F352F;" d="M182.03,171.654l-0.031,0.027l-0.03-0.027c-2.047-1.854-5.209-1.696-7.062,0.352
		c-1.853,2.047-1.696,5.209,0.351,7.062l3.386,3.064c0.957,0.867,2.157,1.293,3.354,1.293l0.001-0.004l0.001,0.004
		c1.197,0,2.397-0.427,3.354-1.293l3.386-3.065c2.047-1.853,2.205-5.015,0.351-7.062
		C187.239,169.958,184.076,169.801,182.03,171.654z"/>
	<path style="fill:#3F352F;" d="M174.907,114.29c0.987,1.091,2.345,1.645,3.708,1.645c1.196,0,2.397-0.427,3.354-1.294l0.03-0.027
		l0.031,0.028c0.957,0.866,2.157,1.294,3.354,1.294c1.363,0,2.721-0.555,3.708-1.645c1.656-1.829,1.696-4.541,0.228-6.422
		c1.467-1.88,1.427-4.592-0.228-6.42c-1.854-2.048-5.015-2.203-7.062-0.352l-0.03,0.027l-0.03-0.027
		c-2.048-1.853-5.209-1.696-7.062,0.352c-1.655,1.829-1.695,4.54-0.228,6.42C173.211,109.75,173.251,112.462,174.907,114.29z"/>
</g>
<g>
</g>
<g>
</g>
<g>
</g>
<g>
</g>
<g>
</g>
<g>
</g>
<g>
</g>
<g>
</g>
<g>
</g>
<g>
</g>
<g>
</g>
<g>
</g>
<g>
</g>
<g>
</g>
<g>
</g>
</svg>
