<?xml version="1.0" encoding="iso-8859-1"?>
<!-- Generator: Adobe Illustrator 19.1.0, SVG Export Plug-In . SVG Version: 6.00 Build 0)  -->
<svg version="1.1" id="Capa_1" xmlns="http://www.w3.org/2000/svg" xmlns:xlink="http://www.w3.org/1999/xlink" x="0px" y="0px"
	 viewBox="0 0 423.371 423.371" style="enable-background:new 0 0 423.371 423.371;" xml:space="preserve">
<g>
	<path style="fill:#8EB6CA;" d="M109.42,143.167c-15.59,0-38.043,1.977-56.469,11.395c-24.281,12.412-22.833,54.758-22.832,54.803
		c0.344,24.113,5.359,42.164,14.504,52.205c11.103,12.191,24.597,18.635,39.019,18.635c6.288,0,12.693-1.24,19.04-3.685
		c20.127-7.754,50.385-38.17,68.888-69.244c11.893-19.949,13.27-39.592,3.429-48.877
		C167.062,150.911,140.363,143.167,109.42,143.167z M77.172,168.173c-24.198,2.783-24.448,28.131-24.447,29.207
		c0.003,2.762-2.232,5.004-4.994,5.006c-0.002,0-0.004,0-0.006,0c-2.759,0-4.997-2.234-5-4.994
		c-0.014-12.215,6.93-36.119,33.305-39.152c2.739-0.312,5.224,1.652,5.539,4.396C81.883,165.378,79.915,167.858,77.172,168.173z"/>
	<path style="fill:#AB9E85;" d="M10,194.714c0,3.127,2.544,5.672,5.671,5.672h4.667c0.221-3.238,0.628-7.125,1.355-11.344h-6.023
		C12.544,189.042,10,191.587,10,194.714z"/>
	<path style="fill:#AB9E85;" d="M407.7,189.042h-6.023c0.728,4.219,1.136,8.105,1.356,11.344h4.667c3.127,0,5.671-2.545,5.671-5.672
		S410.827,189.042,407.7,189.042z"/>
	<path style="fill:#8EB6CA;" d="M370.42,154.562c-18.427-9.418-40.878-11.395-56.469-11.395c-30.942,0-57.642,7.744-65.578,15.23
		c-9.842,9.287-8.465,28.928,3.429,48.875c18.503,31.076,48.762,61.492,68.889,69.246c6.347,2.445,12.752,3.685,19.039,3.685
		c14.422,0,27.914-6.443,39.019-18.635c9.145-10.041,14.16-28.092,14.505-52.205C393.253,209.319,394.628,166.937,370.42,154.562z
		 M375.647,202.386c-0.002,0-0.004,0-0.006,0c-2.757-0.002-4.99-2.236-4.994-4.992c-0.006-1.113-0.43-26.459-24.447-29.221
		c-2.743-0.314-4.711-2.795-4.396-5.537c0.316-2.742,2.785-4.717,5.538-4.396c26.375,3.033,33.318,26.938,33.305,39.152
		C380.644,200.151,378.405,202.386,375.647,202.386z"/>
	<path style="fill:#3F352F;" d="M76.029,158.239c-26.375,3.033-33.318,26.938-33.305,39.152c0.003,2.76,2.241,4.994,5,4.994
		c0.002,0,0.004,0,0.006,0c2.762-0.002,4.997-2.244,4.994-5.006c-0.001-1.076,0.249-26.424,24.447-29.207
		c2.743-0.314,4.711-2.795,4.396-5.537C81.253,159.892,78.769,157.927,76.029,158.239z"/>
	<path style="fill:#3F352F;" d="M407.7,179.042h-8.29c-3.669-12.844-10.765-26.395-24.439-33.385
		c-20.198-10.324-44.331-12.49-61.02-12.49c-10.375,0-20.691,0.852-30.245,2.373H139.665c-9.553-1.521-19.87-2.373-30.245-2.373
		c-16.688,0-40.822,2.166-61.02,12.49c-13.674,6.99-20.769,20.541-24.439,33.385h-8.29C7.029,179.042,0,186.073,0,194.714
		c0,8.641,7.029,15.672,15.671,15.672h4.466c0.352,18.456,3.644,43.151,17.094,57.918c13.051,14.328,29.099,21.9,46.411,21.9
		c7.522,0,15.138-1.465,22.636-4.353c22.301-8.594,54.064-40.174,73.883-73.457c4.788-8.031,8.064-16.018,9.84-23.578
		c0.5,0.168,1.025,0.279,1.582,0.279c2.762,0,5-2.238,5-5v-11.98c0.946-1.152,4.446-4.172,15.104-4.177
		c10.657,0.005,14.157,3.024,15.104,4.177v11.98c0,2.762,2.238,5,5,5c0.557,0,1.082-0.111,1.582-0.279
		c1.775,7.56,5.052,15.545,9.84,23.574c19.818,33.287,51.581,64.867,73.884,73.459c7.498,2.891,15.113,4.355,22.635,4.355
		c17.312,0,33.361-7.572,46.411-21.9c13.449-14.767,16.742-39.462,17.095-57.918h4.465c8.641,0,15.671-7.031,15.671-15.672
		C423.371,186.073,416.341,179.042,407.7,179.042z M20.338,200.386h-4.667c-3.127,0-5.671-2.545-5.671-5.672
		s2.544-5.672,5.671-5.672h6.023C20.966,193.261,20.559,197.148,20.338,200.386z M171.569,207.274
		c-18.503,31.074-48.761,61.49-68.888,69.244c-6.347,2.445-12.752,3.685-19.04,3.685c-14.422,0-27.915-6.443-39.019-18.635
		c-9.145-10.041-14.16-28.092-14.504-52.205c-0.001-0.045-1.449-42.391,22.832-54.803c18.426-9.418,40.879-11.395,56.469-11.395
		c30.943,0,57.642,7.744,65.578,15.23C184.84,167.683,183.463,187.325,171.569,207.274z M233.387,164.566
		c-3.225-3.148-7.555-6.629-21.726-6.629c-14.171,0-18.453,3.48-21.678,6.63c-1.557-5.229-4.26-9.797-8.124-13.442
		c-2.094-1.976-4.891-3.848-8.255-5.584h76.162c-3.365,1.736-6.162,3.608-8.256,5.584
		C237.647,154.77,234.943,159.337,233.387,164.566z M393.253,209.364c-0.345,24.113-5.36,42.164-14.505,52.205
		c-11.104,12.191-24.597,18.635-39.019,18.635c-6.287,0-12.692-1.24-19.039-3.685c-20.127-7.754-50.386-38.17-68.889-69.246
		c-11.894-19.947-13.27-39.588-3.429-48.875c7.937-7.486,34.636-15.23,65.578-15.23c15.591,0,38.042,1.977,56.469,11.395
		C394.628,166.937,393.253,209.319,393.253,209.364z M407.7,200.386h-4.667c-0.221-3.238-0.628-7.125-1.356-11.344h6.023
		c3.127,0,5.671,2.545,5.671,5.672S410.827,200.386,407.7,200.386z"/>
	<path style="fill:#3F352F;" d="M347.342,158.239c-2.753-0.32-5.223,1.654-5.538,4.396c-0.315,2.742,1.652,5.223,4.396,5.537
		c24.018,2.762,24.441,28.107,24.447,29.221c0.004,2.756,2.237,4.99,4.994,4.992c0.002,0,0.004,0,0.006,0
		c2.759,0,4.997-2.234,5-4.994C380.66,185.177,373.717,161.273,347.342,158.239z"/>
</g>
<g>
</g>
<g>
</g>
<g>
</g>
<g>
</g>
<g>
</g>
<g>
</g>
<g>
</g>
<g>
</g>
<g>
</g>
<g>
</g>
<g>
</g>
<g>
</g>
<g>
</g>
<g>
</g>
<g>
</g>
</svg>
