<?xml version="1.0" encoding="iso-8859-1"?>
<!-- Generator: Adobe Illustrator 19.1.0, SVG Export Plug-In . SVG Version: 6.00 Build 0)  -->
<svg version="1.1" id="Capa_1" xmlns="http://www.w3.org/2000/svg" xmlns:xlink="http://www.w3.org/1999/xlink" x="0px" y="0px"
	 viewBox="0 0 423.132 423.132" style="enable-background:new 0 0 423.132 423.132;" xml:space="preserve">
<g>
	<path style="fill:#AB9E85;" d="M145.795,73.884c3.037-8.593,8.906-28.501,11.892-38.757h-9.604
		c-3.442,5.943-12.618,24.121-15.013,52.314C139.552,86.343,142.685,82.687,145.795,73.884z"/>
	<path style="fill:#7E6F83;" d="M199.477,22.273h-1.419c-2.761,0-5-2.238-5-5c0-2.762,2.239-5,5-5h27.017c2.762,0,5,2.238,5,5
		c0,2.762-2.238,5-5,5h-1.42l0.288,2.854h48.893V10H150.298v15.127h48.891L199.477,22.273z"/>
	<path style="fill:#7E6F83;" d="M132.58,406.601c0,3.539,4.047,6.531,8.838,6.531h30.156c4.791,0,8.839-2.992,8.839-6.531v-6.531
		H132.58V406.601z"/>
	<path style="fill:#AB9E85;" d="M277.336,73.884c3.107,8.793,6.254,12.443,12.727,13.543c-2.389-28.325-11.558-46.397-15.003-52.3
		h-9.615C268.432,45.389,274.3,65.295,277.336,73.884z"/>
	<path style="fill:#C4573F;" d="M290.646,365.614c0,0-0.018-266.859-0.044-268.064c-11.484-1.24-18.07-7.249-22.694-20.334
		c-3.475-9.83-10.274-33.098-12.877-42.089h-30.079l5.097,50.509c0.277,2.748-1.725,5.199-4.473,5.477
		c-0.17,0.018-4.766,0.361-5.477-4.473l-3.534-35.023v85.068l18.648,234.609c0.045,0.568-0.008,1.141-0.155,1.691
		c-3.268,12.182,1.923,16.127,3.684,17.084h54.717c8.711-10.847-1.379-20.951-1.407-20.98
		C291.15,368.155,290.646,366.909,290.646,365.614z"/>
	<path style="fill:#C4573F;" d="M197.556,91.112c-2.747-0.277-4.75-2.729-4.473-5.477l5.097-50.509h-30.078
		c-2.604,8.992-9.403,32.259-12.878,42.089c-4.628,13.096-11.196,19.127-22.696,20.363c-0.026,1.195-0.042,268.035-0.042,268.035
		c0,1.297-0.503,2.541-1.404,3.475c-1.053,1.113-9.776,10.9-1.399,20.98h54.702c1.822-0.99,6.946-4.947,3.69-17.084
		c-0.148-0.551-0.2-1.123-0.155-1.691l18.645-234.61V51.626l-3.533,35.014C202.174,91.538,197.727,91.13,197.556,91.112z"/>
	<path style="fill:#7E6F83;" d="M242.72,406.601c0,3.539,4.047,6.531,8.837,6.531h30.158c4.79,0,8.837-2.992,8.837-6.531v-6.531
		H242.72V406.601z"/>
	<polygon style="fill:#7E6F83;" points="209.527,22.273 209.239,25.127 213.893,25.127 213.604,22.273 	"/>
	<path style="fill:#3F352F;" d="M300.646,101.21c0-41.278-14.044-66.532-17.812-72.563V5c0-2.762-2.239-5-5-5H145.298
		c-2.761,0-5,2.238-5,5v23.645c-3.779,6.055-17.812,31.316-17.812,72.565v262.516c-5.631,6.911-11.238,20.675,0.094,33.418v9.457
		c0,9.115,8.451,16.531,18.838,16.531h30.156c10.388,0,18.839-7.416,18.839-16.531v-8.491c5.423-3.597,11.24-11.958,7.542-26.858
		l13.61-171.258l13.612,171.258c-3.698,14.9,2.119,23.261,7.542,26.858v8.491c0,9.115,8.45,16.531,18.837,16.531h30.158
		c10.387,0,18.837-7.416,18.837-16.531v-9.456c11.331-12.744,5.726-26.508,0.095-33.419V101.21z M290.063,87.427
		c-6.473-1.1-9.62-4.75-12.727-13.543c-3.036-8.589-8.904-28.495-11.891-38.757h9.615C278.505,41.03,287.674,59.102,290.063,87.427z
		 M150.298,10h122.537v15.127h-48.893l-0.288-2.854h1.42c2.762,0,5-2.238,5-5c0-2.762-2.238-5-5-5h-27.017c-2.761,0-5,2.238-5,5
		c0,2.762,2.239,5,5,5h1.419l-0.288,2.854h-48.891V10z M148.083,35.127h9.604c-2.986,10.256-8.855,30.164-11.892,38.757
		c-3.111,8.803-6.244,12.459-12.726,13.558C135.465,59.248,144.641,41.07,148.083,35.127z M180.413,406.601
		c0,3.539-4.048,6.531-8.839,6.531h-30.156c-4.791,0-8.838-2.992-8.838-6.531v-6.531h47.833V406.601z M206.565,136.684
		l-18.645,234.61c-0.045,0.568,0.007,1.141,0.155,1.691c3.255,12.137-1.868,16.094-3.69,17.084h-54.702
		c-8.376-10.08,0.346-19.867,1.399-20.98c0.901-0.934,1.404-2.178,1.404-3.475c0,0,0.016-266.84,0.042-268.035
		c11.5-1.236,18.067-7.268,22.696-20.363c3.474-9.83,10.274-33.097,12.878-42.089h30.078l-5.097,50.509
		c-0.277,2.748,1.726,5.199,4.473,5.477c0.171,0.018,4.618,0.426,5.477-4.473l3.533-35.014V136.684z M209.239,25.127l0.288-2.854
		h4.077l0.288,2.854H209.239z M290.552,406.601c0,3.539-4.047,6.531-8.837,6.531h-30.158c-4.79,0-8.837-2.992-8.837-6.531v-6.531
		h47.832V406.601z M293.458,390.069h-54.717c-1.761-0.957-6.952-4.902-3.684-17.084c0.148-0.551,0.2-1.123,0.155-1.691
		l-18.648-234.609V51.616L220.1,86.64c0.71,4.834,5.307,4.49,5.477,4.473c2.748-0.277,4.75-2.729,4.473-5.477l-5.097-50.509h30.079
		c2.604,8.991,9.403,32.259,12.877,42.089c4.624,13.085,11.21,19.094,22.694,20.334c0.026,1.205,0.044,268.064,0.044,268.064
		c0,1.295,0.504,2.541,1.404,3.475C292.079,369.118,302.169,379.223,293.458,390.069z"/>
</g>
<g>
</g>
<g>
</g>
<g>
</g>
<g>
</g>
<g>
</g>
<g>
</g>
<g>
</g>
<g>
</g>
<g>
</g>
<g>
</g>
<g>
</g>
<g>
</g>
<g>
</g>
<g>
</g>
<g>
</g>
</svg>
