<?xml version="1.0" encoding="iso-8859-1"?>
<!-- Generator: Adobe Illustrator 19.1.0, SVG Export Plug-In . SVG Version: 6.00 Build 0)  -->
<svg version="1.1" id="Capa_1" xmlns="http://www.w3.org/2000/svg" xmlns:xlink="http://www.w3.org/1999/xlink" x="0px" y="0px"
	 viewBox="0 0 419.389 419.389" style="enable-background:new 0 0 419.389 419.389;" xml:space="preserve">
<g>
	<path style="fill:#C7BEA8;" d="M187.281,146.168c0-1.846-1.502-3.348-3.348-3.348c-1.847,0-3.349,1.502-3.349,3.348
		s1.502,3.348,3.349,3.348C185.779,149.516,187.281,148.014,187.281,146.168z"/>
	<rect x="205.235" y="200.271" style="fill:#C7BEA8;" width="8.913" height="27.457"/>
	<path style="fill:#C7BEA8;" d="M192.644,115.112c12.556-8.697,32.174-19.939,59.07-28.629c-2.844-5.428-9.104-15.207-21.519-26.707
		C213.393,78.864,201.314,97.894,192.644,115.112z"/>
	<rect x="170.858" y="207.5" style="fill:#AB9E85;" width="24.377" height="13.002"/>
	<path style="fill:#C7BEA8;" d="M183.934,194.34c-1.782,0-3.23,1.403-3.33,3.16h6.658
		C187.163,195.743,185.715,194.34,183.934,194.34z"/>
	<path style="fill:#C7BEA8;" d="M190.405,58.14c-4.895,4.699-14.409,14.377-21.844,25.278c5.753,3.188,15.534,8.729,22.634,13.375
		c4.433-7.614,9.549-15.55,15.464-23.653C202.918,69.622,196.465,63.596,190.405,58.14z"/>
	<path style="fill:#E3D282;" d="M286.433,225.275l3.755,41.498h32.373c-2.148-91.682-9.625-142.64-15.577-169.355
		c-2.786-12.501-5.513-21.043-7.757-26.774l-12.794,55.012V225.275z"/>
	<path style="fill:#AB9E85;" d="M230.306,11.644C227.353,10.935,220.491,10,209.704,10c-10.788,0-17.649,0.935-20.603,1.644
		l-1.567,13.864h44.339L230.306,11.644z"/>
	<path style="fill:#AB9E85;" d="M233.667,41.378l-0.664-5.87h-46.6l-0.615,5.443c7.119,5.686,20.313,17.942,26.952,24.179
		C218.926,57.265,225.874,49.302,233.667,41.378z"/>
	<path style="fill:#E3D282;" d="M276.433,128.919c-7.118-1.795-23.91-5.493-41.453-5.493c-1.953,0-3.728-1.137-4.543-2.912
		l-5.719-12.442c-20.488,9.966-33.438,20.199-38.843,24.906c6.441,0.945,11.407,6.491,11.407,13.191
		c0,7.36-5.988,13.348-13.348,13.348c-2.871,0-5.525-0.919-7.705-2.468c-4.304,15.277-5.26,25.26-5.37,26.576v11.46
		c1.215-6.116,6.607-10.744,13.075-10.744c5.472,0,10.181,3.312,12.238,8.036c0.907-1.27,2.385-2.105,4.064-2.105h18.913
		c1.68,0,3.159,0.835,4.065,2.106c2.058-4.725,6.767-8.038,12.24-8.038c7.296,0,13.236,5.887,13.338,13.16h27.641V128.919z
		 M235.454,159.516c-7.36,0-13.348-5.987-13.348-13.348c0-7.36,5.988-13.348,13.348-13.348c7.36,0,13.348,5.987,13.348,13.348
		C248.802,153.528,242.814,159.516,235.454,159.516z"/>
	<path style="fill:#C7BEA8;" d="M249.752,44.402c0.517,0.344,0.965,0.779,1.323,1.287l6.858,9.736
		c1.844-8.382,3.41-17.602,2.979-22.022c-1.896-2.487-10.464-8.76-19.767-14.898l2.467,21.821L249.752,44.402z"/>
	<path style="fill:#E3D282;" d="M297.829,48.227c-3.414-1.555-6.658-2.732-9.677-3.635l8.247,5.34L297.829,48.227z"/>
	<rect x="224.148" y="207.5" style="fill:#AB9E85;" width="52.284" height="13.002"/>
	<path style="fill:#E3D282;" d="M263.345,88.112c0.393,1.274,0.262,2.653-0.366,3.83c-0.628,1.177-1.701,2.054-2.979,2.436
		c-9.64,2.883-18.363,6.139-26.193,9.523l4.395,9.562c16.648,0.379,31.885,3.577,39.53,5.462l13.98-60.115l-21.614-13.994
		c-1.525,10.447-4.59,21.953-5.091,23.795c-0.507,1.87-2.05,3.278-3.958,3.614c-0.29,0.052-0.58,0.076-0.868,0.076
		c-1.608,0-3.14-0.777-4.087-2.121L243.44,52.215l-3.878-2.574c-0.889,0.915-1.763,1.829-2.629,2.745
		C258.171,72.03,263.134,87.431,263.345,88.112z"/>
	<path style="fill:#C7BEA8;" d="M235.454,142.82c-1.846,0-3.348,1.502-3.348,3.348s1.502,3.348,3.348,3.348s3.348-1.502,3.348-3.348
		S237.3,142.82,235.454,142.82z"/>
	<path style="fill:#C7BEA8;" d="M235.454,194.34c-1.781,0-3.229,1.403-3.329,3.16h6.657
		C238.683,195.743,237.235,194.34,235.454,194.34z"/>
	<path style="fill:#C7BEA8;" d="M168.332,45.689c0.357-0.508,0.806-0.943,1.323-1.287l6.141-4.076l2.467-21.821
		c-9.303,6.139-17.871,12.411-19.767,14.899c-0.432,4.419,1.134,13.639,2.979,22.021L168.332,45.689z"/>
	<path style="fill:#C7BEA8;" d="M235.454,245.863c-1.846,0-3.348,1.501-3.348,3.346c0,1.846,1.502,3.348,3.348,3.348
		s3.348-1.502,3.348-3.348C238.802,247.364,237.3,245.863,235.454,245.863z"/>
	<path style="fill:#E3D282;" d="M141.666,118.968c7.836-1.875,23.713-5.133,40.61-5.504c1.267-2.582,2.606-5.219,4.042-7.913
		c-9.949-6.589-27.044-15.822-27.239-15.927c-1.206-0.65-2.092-1.767-2.452-3.088c-0.359-1.322-0.161-2.733,0.549-3.905
		c8.05-13.282,19.579-25.226,25.689-31.126c-0.92-0.785-1.793-1.516-2.58-2.156l-4.317,2.866L163.313,70.18
		c-0.946,1.344-2.479,2.121-4.087,2.121c-0.288,0-0.578-0.024-0.868-0.076c-1.908-0.336-3.451-1.744-3.958-3.614
		c-0.501-1.844-3.568-13.355-5.093-23.806L127.675,58.81L141.666,118.968z"/>
	<polygon style="fill:#AB9E85;" points="292.026,287.103 322.673,287.103 322.673,276.773 291.092,276.773 	"/>
	<path style="fill:#C7BEA8;" d="M235.454,297.385c-1.846,0-3.348,1.502-3.348,3.348s1.502,3.348,3.348,3.348
		s3.348-1.502,3.348-3.348S237.3,297.385,235.454,297.385z"/>
	<path style="fill:#C7BEA8;" d="M187.281,249.209c0-1.845-1.502-3.346-3.348-3.346c-1.847,0-3.349,1.501-3.349,3.346
		c0,1.846,1.502,3.348,3.349,3.348C185.779,252.557,187.281,251.055,187.281,249.209z"/>
	<path style="fill:#E3D282;" d="M224.148,230.502v2.227c0,2.762-2.239,5-5,5h-18.913c-2.761,0-5-2.238-5-5v-2.227h-24.377v16.014
		c1.25-6.071,6.637-10.652,13.075-10.652c7.36,0,13.348,5.987,13.348,13.346c0,7.36-5.988,13.348-13.348,13.348
		c-6.438,0-11.826-4.581-13.075-10.654v46.137c1.25-6.073,6.637-10.654,13.075-10.654c7.36,0,13.348,5.987,13.348,13.348
		c0,7.36-5.988,13.348-13.348,13.348c-6.438,0-11.826-4.581-13.075-10.654v103.98c10.924,1.185,23.835,1.982,38.835,1.983
		c47.072-0.001,73.663-7.836,82.366-10.947l-15.195-167.939H224.148z M235.454,314.08c-7.36,0-13.348-5.987-13.348-13.348
		c0-7.36,5.988-13.348,13.348-13.348c7.36,0,13.348,5.987,13.348,13.348C248.802,308.093,242.814,314.08,235.454,314.08z
		 M235.454,262.557c-7.36,0-13.348-5.987-13.348-13.348c0-7.358,5.988-13.346,13.348-13.346c7.36,0,13.348,5.987,13.348,13.346
		C248.802,256.569,242.814,262.557,235.454,262.557z"/>
	<path style="fill:#C7BEA8;" d="M187.281,300.732c0-1.846-1.502-3.348-3.348-3.348c-1.847,0-3.349,1.502-3.349,3.348
		s1.502,3.348,3.349,3.348C185.779,304.08,187.281,302.578,187.281,300.732z"/>
	<polygon style="fill:#AB9E85;" points="96.716,307.432 125.521,307.432 126.456,297.103 96.716,297.103 	"/>
	<polygon style="fill:#AB9E85;" points="128.295,276.773 96.716,276.773 96.716,287.103 127.36,287.103 	"/>
	<path style="fill:#E3D282;" d="M132.952,225.298l0.002-99.643l-12.793-55.01c-2.244,5.731-4.971,14.272-7.756,26.773
		c-5.953,26.715-13.429,77.673-15.577,169.355H129.2L132.952,225.298z"/>
	<path style="fill:#E3D282;" d="M131.155,44.644c-2.997,0.896-6.207,2.059-9.574,3.586l1.42,1.693L131.155,44.644z"/>
	<rect x="142.954" y="207.5" style="fill:#AB9E85;" width="17.904" height="13.002"/>
	<polygon style="fill:#AB9E85;" points="293.866,307.432 322.673,307.432 322.673,297.103 292.931,297.103 	"/>
	<path style="fill:#E3D282;" d="M177.545,123.659c-14.801,0.84-28.348,3.77-34.591,5.295V197.5h17.904v-14.068
		c0-0.112,1.385-19.372,11.252-46.27C172.909,134.987,176.558,125.917,177.545,123.659z"/>
	<path style="fill:#E3D282;" d="M127.327,398.441c5.023,1.797,16.044,5.172,33.531,7.702V230.502h-18.336L127.327,398.441z"/>
	<path style="fill:#3F352F;" d="M235.454,132.82c-7.36,0-13.348,5.987-13.348,13.348c0,7.36,5.988,13.348,13.348,13.348
		c7.36,0,13.348-5.987,13.348-13.348C248.802,138.808,242.814,132.82,235.454,132.82z M235.454,149.516
		c-1.846,0-3.348-1.502-3.348-3.348s1.502-3.348,3.348-3.348s3.348,1.502,3.348,3.348S237.3,149.516,235.454,149.516z"/>
	<path style="fill:#3F352F;" d="M235.454,235.863c-7.36,0-13.348,5.987-13.348,13.346c0,7.36,5.988,13.348,13.348,13.348
		c7.36,0,13.348-5.987,13.348-13.348C248.802,241.851,242.814,235.863,235.454,235.863z M235.454,252.557
		c-1.846,0-3.348-1.502-3.348-3.348c0-1.845,1.502-3.346,3.348-3.346s3.348,1.501,3.348,3.346
		C238.802,251.055,237.3,252.557,235.454,252.557z"/>
	<path style="fill:#3F352F;" d="M235.454,287.385c-7.36,0-13.348,5.987-13.348,13.348c0,7.36,5.988,13.348,13.348,13.348
		c7.36,0,13.348-5.987,13.348-13.348C248.802,293.372,242.814,287.385,235.454,287.385z M235.454,304.08
		c-1.846,0-3.348-1.502-3.348-3.348s1.502-3.348,3.348-3.348s3.348,1.502,3.348,3.348S237.3,304.08,235.454,304.08z"/>
	<path style="fill:#3F352F;" d="M332.672,271.669c-3.287-157.102-21.49-202.716-28.947-214.91l5.826-6.946
		c0.961-1.146,1.358-2.661,1.084-4.131c-0.274-1.47-1.193-2.74-2.502-3.462c-16.323-8.99-30.553-10.373-37.35-10.432
		c-0.022-0.181-0.042-0.367-0.069-0.54c-0.304-1.923-1.127-6.999-31.906-26.124c-2.253-2.814-7.213-3.531-10.506-4.006
		C223.296,0.397,216.691,0,209.704,0c-6.988,0-13.593,0.397-18.599,1.118c-3.293,0.475-8.254,1.19-10.506,4.007
		c-30.778,19.124-31.602,24.2-31.905,26.124c-0.027,0.172-0.046,0.357-0.068,0.537c-6.797,0.058-21.026,1.442-37.35,10.434
		c-1.31,0.722-2.228,1.992-2.503,3.462c-0.274,1.47,0.123,2.985,1.084,4.131l5.814,6.932
		c-7.452,12.174-25.666,57.763-28.954,214.925c0,0.018,0.004,0.035,0.004,0.053c0,0.017-0.005,0.034-0.005,0.052v40.658
		c0,2.762,2.239,5,5,5h32.9l-7.586,83.843c-0.19,2.097,0.955,4.089,2.863,4.98c1.148,0.536,28.806,13.13,89.787,13.134
		c0.001,0,0.001,0,0.002,0c0.004,0,0.008,0,0.012,0c0.004,0,0.008,0,0.012,0h0.001c60.98-0.004,88.638-12.598,89.786-13.134
		c1.908-0.892,3.053-2.884,2.863-4.98l-7.586-83.843h32.902c2.761,0,5-2.238,5-5v-40.658c0-0.018-0.005-0.034-0.005-0.052
		C332.667,271.704,332.672,271.686,332.672,271.669z M306.983,97.419c5.953,26.715,13.429,77.673,15.577,169.355h-32.373
		l-3.755-41.498v-99.619l12.794-55.012C301.471,76.376,304.198,84.918,306.983,97.419z M297.829,48.227l-1.43,1.705l-8.247-5.34
		C291.171,45.495,294.415,46.672,297.829,48.227z M260.912,33.403c0.431,4.421-1.134,13.641-2.979,22.022l-6.858-9.736
		c-0.358-0.508-0.806-0.943-1.323-1.287l-6.141-4.076l-2.467-21.821C250.448,24.643,259.016,30.916,260.912,33.403z M239.562,49.641
		l3.878,2.574l12.654,17.965c0.947,1.344,2.479,2.121,4.087,2.121c0.288,0,0.579-0.024,0.868-0.076
		c1.908-0.336,3.451-1.744,3.958-3.614c0.501-1.842,3.565-13.348,5.091-23.795l21.614,13.994l-13.98,60.115
		c-7.645-1.885-22.881-5.083-39.53-5.462l-4.395-9.562c7.831-3.385,16.553-6.641,26.193-9.523c1.278-0.382,2.351-1.259,2.979-2.436
		c0.628-1.177,0.76-2.556,0.366-3.83c-0.211-0.682-5.174-16.082-26.412-35.727C237.799,51.47,238.673,50.556,239.562,49.641z
		 M276.433,207.5v13.002h-52.284V207.5H276.433z M232.126,197.5c0.1-1.757,1.547-3.16,3.329-3.16c1.781,0,3.229,1.403,3.329,3.16
		H232.126z M248.792,197.5c-0.102-7.273-6.042-13.16-13.338-13.16c-5.473,0-10.183,3.314-12.24,8.038
		c-0.906-1.271-2.385-2.106-4.065-2.106h-18.913c-1.679,0-3.156,0.835-4.064,2.105c-2.058-4.724-6.766-8.036-12.238-8.036
		c-6.468,0-11.86,4.628-13.075,10.744v-11.46c0.11-1.316,1.066-11.299,5.37-26.576c2.18,1.549,4.835,2.468,7.705,2.468
		c7.36,0,13.348-5.987,13.348-13.348c0-6.699-4.966-12.245-11.407-13.191c5.405-4.707,18.355-14.94,38.843-24.906l5.719,12.442
		c0.815,1.775,2.59,2.912,4.543,2.912c17.543,0,34.335,3.698,41.453,5.493V197.5H248.792z M214.148,200.271v27.457h-8.913v-27.457
		H214.148z M195.235,207.5v13.002h-24.377V207.5H195.235z M180.604,197.5c0.1-1.757,1.547-3.16,3.33-3.16
		c1.781,0,3.229,1.403,3.329,3.16H180.604z M180.585,146.168c0-1.846,1.502-3.348,3.349-3.348c1.846,0,3.348,1.502,3.348,3.348
		s-1.502,3.348-3.348,3.348C182.087,149.516,180.585,148.014,180.585,146.168z M251.713,86.483
		c-26.896,8.689-46.514,19.932-59.07,28.629c8.67-17.219,20.749-36.248,37.551-55.336C242.609,71.276,248.869,81.056,251.713,86.483
		z M191.195,96.793c-7.1-4.646-16.88-10.187-22.634-13.375c7.435-10.901,16.948-20.579,21.844-25.278
		c6.06,5.456,12.513,11.483,16.254,15C200.745,81.243,195.628,89.179,191.195,96.793z M189.102,11.644
		c2.953-0.709,9.814-1.644,20.603-1.644c10.787,0,17.648,0.935,20.602,1.644l1.567,13.864h-44.339L189.102,11.644z M186.403,35.508
		h46.6l0.664,5.87c-7.794,7.924-14.741,15.887-20.927,23.752c-6.639-6.236-19.833-18.493-26.952-24.179L186.403,35.508z
		 M158.496,33.404c1.896-2.488,10.464-8.761,19.767-14.899l-2.467,21.821l-6.141,4.076c-0.517,0.344-0.965,0.779-1.323,1.287
		l-6.858,9.736C159.629,47.043,158.063,37.823,158.496,33.404z M149.308,44.805c1.524,10.45,4.592,21.962,5.093,23.806
		c0.507,1.87,2.05,3.278,3.958,3.614c0.29,0.052,0.58,0.076,0.868,0.076c1.608,0,3.141-0.777,4.087-2.121l12.654-17.965l4.317-2.866
		c0.787,0.641,1.659,1.371,2.58,2.156c-6.11,5.899-17.639,17.844-25.689,31.126c-0.71,1.172-0.908,2.583-0.549,3.905
		c0.36,1.321,1.246,2.438,2.452,3.088c0.194,0.104,17.29,9.338,27.239,15.927c-1.436,2.694-2.775,5.331-4.042,7.913
		c-16.897,0.371-32.773,3.629-40.61,5.504l-13.99-60.158L149.308,44.805z M131.155,44.644l-8.154,5.279l-1.42-1.693
		C124.948,46.702,128.158,45.54,131.155,44.644z M112.404,97.419c2.785-12.501,5.512-21.042,7.756-26.773l12.793,55.01
		l-0.002,99.643l-3.752,41.476H96.828C98.976,175.092,106.452,124.134,112.404,97.419z M96.716,276.773h31.579l-0.935,10.33H96.716
		V276.773z M125.521,307.432H96.716v-10.328h29.74L125.521,307.432z M160.858,406.143c-17.488-2.53-28.508-5.905-33.531-7.702
		l15.195-167.939h18.336V406.143z M160.858,220.502h-17.904V207.5h17.904V220.502z M160.858,197.5h-17.904v-68.546
		c6.243-1.525,19.79-4.455,34.591-5.295c-0.987,2.258-4.636,11.328-5.434,13.503c-9.868,26.898-11.252,46.157-11.252,46.27V197.5z
		 M209.694,409.389c-15-0.001-27.911-0.798-38.835-1.983v-103.98c1.25,6.073,6.637,10.654,13.075,10.654
		c7.36,0,13.348-5.987,13.348-13.348c0-7.36-5.988-13.348-13.348-13.348c-6.438,0-11.826,4.581-13.075,10.654v-46.137
		c1.25,6.073,6.637,10.654,13.075,10.654c7.36,0,13.348-5.987,13.348-13.348c0-7.358-5.988-13.346-13.348-13.346
		c-6.438,0-11.826,4.581-13.075,10.652v-16.014h24.377v2.227c0,2.762,2.239,5,5,5h18.913c2.761,0,5-2.238,5-5v-2.227h52.716
		l15.195,167.939C283.356,401.553,256.766,409.388,209.694,409.389z M180.585,300.732c0-1.846,1.502-3.348,3.349-3.348
		c1.846,0,3.348,1.502,3.348,3.348s-1.502,3.348-3.348,3.348C182.087,304.08,180.585,302.578,180.585,300.732z M180.585,249.209
		c0-1.845,1.502-3.346,3.349-3.346c1.846,0,3.348,1.501,3.348,3.346c0,1.846-1.502,3.348-3.348,3.348
		C182.087,252.557,180.585,251.055,180.585,249.209z M322.673,307.432h-28.807l-0.935-10.328h29.742V307.432z M322.673,287.103
		h-30.646l-0.935-10.33h31.581V287.103z"/>
</g>
<g>
</g>
<g>
</g>
<g>
</g>
<g>
</g>
<g>
</g>
<g>
</g>
<g>
</g>
<g>
</g>
<g>
</g>
<g>
</g>
<g>
</g>
<g>
</g>
<g>
</g>
<g>
</g>
<g>
</g>
</svg>
