<?xml version="1.0" encoding="iso-8859-1"?>
<!-- Generator: Adobe Illustrator 19.1.0, SVG Export Plug-In . SVG Version: 6.00 Build 0)  -->
<svg version="1.1" id="Capa_1" xmlns="http://www.w3.org/2000/svg" xmlns:xlink="http://www.w3.org/1999/xlink" x="0px" y="0px"
	 viewBox="0 0 425.111 425.111" style="enable-background:new 0 0 425.111 425.111;" xml:space="preserve">
<g>
	<polygon style="fill:#A9D8C8;" points="188.692,182.191 236.43,182.191 212.561,153.029 	"/>
	<path style="fill:#A9D8C8;" d="M208.692,108.395c0.949-1.16,2.369-1.832,3.869-1.832s2.92,0.672,3.869,1.832l30.553,37.328
		l28.246-34.508c-2.684-2.68-5.488-5.195-8.395-7.533l-15.982,19.527c-0.949,1.16-2.369,1.832-3.869,1.832
		c-1.498,0-2.92-0.672-3.869-1.832l-30.553-37.328l-30.553,37.328c-0.951,1.16-2.371,1.832-3.869,1.832
		c-1.5,0-2.92-0.672-3.869-1.832l-15.988-19.531c-2.906,2.338-5.713,4.854-8.396,7.533l28.254,34.512L208.692,108.395z"/>
	<path style="fill:#D68E7E;" d="M143.711,140.137c1.5,0,2.92,0.672,3.869,1.832l30.559,37.328l30.553-37.328
		c0.949-1.16,2.371-1.832,3.869-1.832c1.5,0,2.92,0.672,3.869,1.832l30.553,37.328l30.553-37.328
		c0.949-1.16,2.369-1.832,3.869-1.832s2.92,0.672,3.869,1.832l20.775,25.383c-3.197-13.055-8.248-25.225-14.992-36.104
		l-9.652-11.793l-30.553,37.328c-0.949,1.16-2.369,1.832-3.869,1.832s-2.92-0.672-3.869-1.832l-30.553-37.328l-30.553,37.328
		c-0.951,1.16-2.371,1.832-3.869,1.832c-1.5,0-2.92-0.672-3.869-1.832l-30.559-37.328l-9.674,11.818
		c-6.736,10.875-11.783,23.039-14.978,36.084l20.783-25.389C140.791,140.809,142.211,140.137,143.711,140.137z"/>
	<path style="fill:#D68E7E;" d="M201.256,83.904c-11.914,1.896-23.896,6.695-34.873,13.885l11.756,14.359L201.256,83.904z"/>
	<path style="fill:#E3D282;" d="M192.451,73.803c-1.918-2.226-3.502-4.787-4.631-7.644c-1.014-2.568,0.246-5.473,2.814-6.486
		c2.566-1.018,5.473,0.244,6.486,2.812c2.521,6.381,8.578,10.504,15.434,10.504c6.857,0,12.914-4.123,15.434-10.502
		c1.014-2.568,3.92-3.832,6.486-2.814c2.568,1.014,3.828,3.918,2.814,6.486c-1.127,2.857-2.711,5.418-4.629,7.644
		c9.311-6.527,14.973-17.217,14.973-28.725c0-19.342-15.736-35.078-35.078-35.078s-35.076,15.736-35.076,35.078
		C177.479,56.586,183.141,67.277,192.451,73.803z"/>
	<path style="fill:#D68E7E;" d="M246.983,112.146l11.75-14.355c-10.975-7.188-22.953-11.986-34.865-13.883L246.983,112.146z"/>
	<path style="fill:#A9D8C8;" d="M257.469,182.273h24.234c7.604,0,19.44,2.273,28.049,9.189c-0.098-1.412-0.207-2.82-0.344-4.219
		l-28.004-34.215L257.469,182.273z"/>
	<path style="fill:#D68E7E;" d="M296.578,380.756c-9.471,0-17.176,7.707-17.176,17.178c0,9.473,7.705,17.178,17.176,17.178
		c9.471,0,17.178-7.705,17.178-17.178C313.756,388.463,306.049,380.756,296.578,380.756z"/>
	<path style="fill:#E3D282;" d="M297.424,314.287c15.325-17.714,13.031-101.568,13.023-101.676
		c-1.549-20.096-27.592-20.338-28.756-20.338c-0.002,0-0.002,0-0.004,0h-2.436c0.635,0.602,11.391,9.464,11.391,32.824v37.443
		c0.094,25.043,0.629,39.535,2.6,46.75C294.248,312.98,297.028,314.365,297.424,314.287z"/>
	<path style="fill:#A9D8C8;" d="M167.653,182.273l-23.941-29.244l-28.01,34.219c-0.135,1.391-0.244,2.793-0.341,4.197
		c8.606-6.906,20.437-9.172,28.039-9.172H167.653z"/>
	<path style="fill:#E3D282;" d="M145.856,192.273h-2.443c-1.102,0.004-27.216,0.332-28.759,20.34
		c-0.006,0.076-2.693,81.998,13.031,101.674c0.398,0.078,3.178-1.307,4.184-4.994c1.984-7.264,2.512-21.902,2.6-47.262v-36.934
		C134.467,200.963,145.223,192.875,145.856,192.273z"/>
	<path style="fill:#D68E7E;" d="M111.355,397.934c0,9.473,7.706,17.178,17.178,17.178c9.471,0,17.176-7.705,17.176-17.178
		c0-9.471-7.705-17.178-17.176-17.178C119.061,380.756,111.355,388.463,111.355,397.934z"/>
	<path style="fill:#D68E7E;" d="M252.819,192.273h-80.527c-9.121,0.482-16.365,3.113-20.787,8.508
		c-7.438,9.076-7.037,25.662-7.037,25.662c2.857-3.064,6.301-5.768,10.328-8.064c13.477-7.684,29.697-8.83,38.166-8.83h39.186
		c8.469,0,24.689,1.146,38.168,8.83c4.029,2.297,7.473,5.002,10.328,8.066c0,0,0.656-17.566-7.039-25.666
		C268.801,195.725,261.94,192.756,252.819,192.273z"/>
	<path style="fill:#3F352F;" d="M301.867,371.277v-47.936c0.342-0.141,1.549-0.848,1.914-1.213
		c20.521-20.518,16.85-109.797,16.328-120.547c-0.027-36.674-12.365-70.148-34.75-94.275C273,93.986,258.287,84.143,242.778,78.492
		c9.33-8.447,14.855-20.531,14.855-33.414C257.633,20.223,237.41,0,212.555,0s-45.076,20.223-45.076,45.078
		c0,12.883,5.527,24.967,14.855,33.414c-15.51,5.65-30.223,15.494-42.582,28.814c-22.385,24.127-34.724,57.603-34.752,94.275
		c-0.521,10.76-4.189,100.031,16.326,120.547c0.365,0.365,1.574,1.072,1.918,1.215v47.934c-12.463,2.467-21.89,13.48-21.89,26.656
		c0,14.986,12.192,27.178,27.178,27.178c14.984,0,27.176-12.191,27.176-27.178c0-13.379-9.719-24.521-22.465-26.76v-47.928
		c3.928-1.811,6.309-5.736,8.271-11.32c3.947-11.215,2.967-55.812,2.967-59.02c0-31.75,40.383-33.357,48.479-33.357h39.186
		c8.096,0,48.48,1.607,48.48,33.357c0,32.623,0.443,49.775,2.967,59.02c1.56,5.711,4.346,9.512,8.273,11.322v47.926
		c-12.746,2.238-22.465,13.381-22.465,26.76c0,14.986,12.191,27.178,27.176,27.178c14.986,0,27.178-12.191,27.178-27.178
		C323.756,384.758,314.33,373.746,301.867,371.277z M309.752,191.463c-8.609-6.916-20.445-9.189-28.049-9.189h-24.234l23.935-29.244
		l28.004,34.215C309.545,188.643,309.655,190.051,309.752,191.463z M258.733,97.791l-11.75,14.355l-23.115-28.238
		C235.78,85.805,247.758,90.604,258.733,97.791z M177.479,45.078c0-19.342,15.734-35.078,35.076-35.078s35.078,15.736,35.078,35.078
		c0,11.508-5.662,22.197-14.973,28.725c1.918-2.226,3.502-4.787,4.629-7.644c1.014-2.568-0.246-5.473-2.814-6.486
		c-2.566-1.018-5.473,0.246-6.486,2.814c-2.52,6.379-8.576,10.502-15.434,10.502c-6.855,0-12.912-4.123-15.434-10.504
		c-1.014-2.568-3.92-3.83-6.486-2.812c-2.568,1.014-3.828,3.918-2.814,6.486c1.129,2.857,2.713,5.418,4.631,7.644
		C183.141,67.277,177.479,56.586,177.479,45.078z M201.256,83.904l-23.117,28.244l-11.756-14.359
		C177.36,90.6,189.342,85.801,201.256,83.904z M158.282,103.678l15.988,19.531c0.949,1.16,2.369,1.832,3.869,1.832
		c1.498,0,2.918-0.672,3.869-1.832l30.553-37.328l30.553,37.328c0.949,1.16,2.371,1.832,3.869,1.832c1.5,0,2.92-0.672,3.869-1.832
		l15.982-19.527c2.906,2.338,5.711,4.854,8.395,7.533l-28.246,34.508l-30.553-37.328c-0.949-1.16-2.369-1.832-3.869-1.832
		s-2.92,0.672-3.869,1.832l-30.553,37.328l-28.254-34.512C152.569,108.531,155.375,106.016,158.282,103.678z M134.037,131.273
		l9.674-11.818l30.559,37.328c0.949,1.16,2.369,1.832,3.869,1.832c1.498,0,2.918-0.672,3.869-1.832l30.553-37.328l30.553,37.328
		c0.949,1.16,2.369,1.832,3.869,1.832s2.92-0.672,3.869-1.832l30.553-37.328l9.652,11.793c6.744,10.879,11.795,23.049,14.992,36.104
		l-20.775-25.383c-0.949-1.16-2.369-1.832-3.869-1.832s-2.92,0.672-3.869,1.832l-30.553,37.328l-30.553-37.328
		c-0.949-1.16-2.369-1.832-3.869-1.832c-1.498,0-2.92,0.672-3.869,1.832l-30.553,37.328l-30.559-37.328
		c-0.949-1.16-2.369-1.832-3.869-1.832s-2.92,0.672-3.869,1.832l-20.783,25.389C122.255,154.312,127.301,142.148,134.037,131.273z
		 M236.43,182.191h-47.738l23.869-29.162L236.43,182.191z M115.701,187.248l28.01-34.219l23.941,29.244h-24.254
		c-7.602,0-19.432,2.266-28.039,9.172C115.457,190.041,115.566,188.639,115.701,187.248z M145.709,397.934
		c0,9.473-7.705,17.178-17.176,17.178c-9.472,0-17.178-7.705-17.178-17.178c0-9.471,7.706-17.178,17.178-17.178
		C138.004,380.756,145.709,388.463,145.709,397.934z M134.467,225.098v36.934c-0.088,25.359-0.615,39.998-2.6,47.262
		c-1.006,3.688-3.785,5.072-4.184,4.994c-15.724-19.676-13.037-101.598-13.031-101.674c1.543-20.008,27.658-20.336,28.759-20.34
		h2.443C145.223,192.875,134.467,200.963,134.467,225.098z M280.643,226.445c-2.855-3.064-6.299-5.77-10.328-8.066
		c-13.478-7.684-29.699-8.83-38.168-8.83h-39.186c-8.469,0-24.689,1.146-38.166,8.83c-4.027,2.297-7.471,5-10.328,8.064
		c0,0-0.4-16.586,7.037-25.662c4.422-5.395,11.666-8.025,20.787-8.508h80.527c9.121,0.482,15.982,3.451,20.785,8.506
		C281.299,208.879,280.643,226.445,280.643,226.445z M290.643,262.541v-37.443c0-23.36-10.756-32.223-11.391-32.824h2.436
		c0.002,0,0.002,0,0.004,0c1.164,0,27.207,0.242,28.756,20.338c0.008,0.107,2.302,83.962-13.023,101.676
		c-0.396,0.078-3.176-1.307-4.182-4.996C291.272,302.076,290.737,287.584,290.643,262.541z M296.578,415.111
		c-9.471,0-17.176-7.705-17.176-17.178c0-9.471,7.705-17.178,17.176-17.178c9.471,0,17.178,7.707,17.178,17.178
		C313.756,407.406,306.049,415.111,296.578,415.111z"/>
</g>
<g>
</g>
<g>
</g>
<g>
</g>
<g>
</g>
<g>
</g>
<g>
</g>
<g>
</g>
<g>
</g>
<g>
</g>
<g>
</g>
<g>
</g>
<g>
</g>
<g>
</g>
<g>
</g>
<g>
</g>
</svg>
