<?xml version="1.0" encoding="iso-8859-1"?>
<!-- Generator: Adobe Illustrator 19.1.0, SVG Export Plug-In . SVG Version: 6.00 Build 0)  -->
<svg version="1.1" id="Capa_1" xmlns="http://www.w3.org/2000/svg" xmlns:xlink="http://www.w3.org/1999/xlink" x="0px" y="0px"
	 viewBox="0 0 332.34 332.34" style="enable-background:new 0 0 332.34 332.34;" xml:space="preserve">
<g>
	<rect x="129.636" y="264.627" style="fill:#7E6F83;" width="73.066" height="23.092"/>
	<path style="fill:#A9D8C8;" d="M119.636,292.719v-33.092c0-2.762,2.238-5,5-5h10.885v-15.623H94.225v83.336h41.296v-24.621h-10.885
		C121.874,297.719,119.636,295.48,119.636,292.719z"/>
	<rect x="145.521" y="239.004" style="fill:#C7BEA8;" width="41.299" height="15.623"/>
	<path style="fill:#A9D8C8;" d="M166.17,21.935c0.001,0,0.001,0,0.001,0c5.555,0,11.033,0.33,16.424,0.949
		C180.772,15.5,174.11,10,166.17,10s-14.602,5.5-16.425,12.885c5.391-0.619,10.868-0.949,16.423-0.949
		C166.169,21.935,166.17,21.935,166.17,21.935z"/>
	<path style="fill:#A9D8C8;" d="M13.123,256.502v48.34c0,9.648,7.85,17.498,17.499,17.498h2.304v-83.336h-2.304
		C20.973,239.004,13.123,246.854,13.123,256.502z"/>
	<rect x="42.926" y="239.004" style="fill:#C7BEA8;" width="41.299" height="83.336"/>
	<path style="fill:#A9D8C8;" d="M301.718,239.004h-2.304v83.336h2.304c9.648,0,17.498-7.85,17.498-17.498v-48.34
		C319.216,246.854,311.367,239.004,301.718,239.004z"/>
	<path style="fill:#7E6F83;" d="M205.252,37.797c6.125,5.412,11.796,12.146,16.866,20.111
		c14.321,22.496,22.209,52.305,22.209,83.939c0,2.762-2.238,5-5,5c-2.762,0-5-2.238-5-5c0-60.605-30.575-109.911-68.157-109.912
		c0,0-0.001,0-0.002,0c-37.581,0.002-68.155,49.307-68.155,109.912c0,2.762-2.238,5-5,5c-2.762,0-5-2.238-5-5
		c0-31.635,7.888-61.443,22.209-83.939c5.069-7.964,10.741-14.699,16.865-20.11C72.74,54.533,33.125,105.217,33.125,164.982v64.021
		h266.09v-64.021C299.215,105.216,259.601,54.531,205.252,37.797z"/>
	<rect x="145.521" y="297.719" style="fill:#C7BEA8;" width="41.299" height="24.621"/>
	<path style="fill:#A9D8C8;" d="M196.82,254.627h10.883c2.762,0,5,2.238,5,5v33.092c0,2.762-2.238,5-5,5H196.82v24.621h41.296
		v-83.336H196.82V254.627z"/>
	<rect x="248.116" y="239.004" style="fill:#C7BEA8;" width="41.299" height="83.336"/>
	<path style="fill:#3F352F;" d="M309.215,230.052v-65.069c0-69.711-50.127-127.926-116.228-140.515
		C191.737,10.769,180.191,0,166.17,0c-14.02,0-25.567,10.769-26.817,24.469C73.252,37.059,23.125,95.271,23.125,164.982v65.068
		c-11.529,3.273-20.002,13.888-20.002,26.451v48.34c0,15.162,12.336,27.498,27.499,27.498h271.096
		c15.162,0,27.498-12.336,27.498-27.498v-48.34C329.216,243.939,320.744,233.324,309.215,230.052z M166.17,10
		c7.939,0,14.602,5.5,16.425,12.885c-5.391-0.619-10.869-0.949-16.424-0.949c0,0,0,0-0.001,0c0,0-0.001,0-0.002,0
		c-5.555,0-11.032,0.33-16.423,0.949C151.569,15.5,158.231,10,166.17,10z M32.926,322.34h-2.304c-9.649,0-17.499-7.85-17.499-17.498
		v-48.34c0-9.648,7.85-17.498,17.499-17.498h2.304V322.34z M84.225,322.34H42.926v-83.336h41.299V322.34z M135.521,322.34H94.225
		v-83.336h41.296v15.623h-10.885c-2.762,0-5,2.238-5,5v33.092c0,2.762,2.238,5,5,5h10.885V322.34z M202.703,264.627v23.092h-73.066
		v-23.092H202.703z M145.521,254.627v-15.623h41.299v15.623H145.521z M186.82,322.34h-41.299v-24.621h41.299V322.34z
		 M238.116,322.34H196.82v-24.621h10.883c2.762,0,5-2.238,5-5v-33.092c0-2.762-2.238-5-5-5H196.82v-15.623h41.296V322.34z
		 M289.414,322.34h-41.299v-83.336h41.299V322.34z M299.215,229.004H33.125v-64.021c0-59.766,39.614-110.449,93.962-127.185
		c-6.124,5.411-11.796,12.147-16.865,20.11c-14.321,22.496-22.209,52.305-22.209,83.939c0,2.762,2.238,5,5,5c2.762,0,5-2.238,5-5
		c0-60.605,30.574-109.91,68.155-109.912c0.001,0,0.002,0,0.002,0c37.582,0.001,68.157,49.307,68.157,109.912c0,2.762,2.238,5,5,5
		c2.762,0,5-2.238,5-5c0-31.635-7.888-61.443-22.209-83.939c-5.07-7.965-10.741-14.699-16.866-20.111
		c54.349,16.734,93.963,67.419,93.963,127.186V229.004z M319.216,304.842c0,9.648-7.85,17.498-17.498,17.498h-2.304v-83.336h2.304
		c9.648,0,17.498,7.85,17.498,17.498V304.842z"/>
</g>
<g>
</g>
<g>
</g>
<g>
</g>
<g>
</g>
<g>
</g>
<g>
</g>
<g>
</g>
<g>
</g>
<g>
</g>
<g>
</g>
<g>
</g>
<g>
</g>
<g>
</g>
<g>
</g>
<g>
</g>
</svg>
