<?xml version="1.0" encoding="iso-8859-1"?>
<!-- Generator: Adobe Illustrator 19.1.0, SVG Export Plug-In . SVG Version: 6.00 Build 0)  -->
<svg version="1.1" id="Capa_1" xmlns="http://www.w3.org/2000/svg" xmlns:xlink="http://www.w3.org/1999/xlink" x="0px" y="0px"
	 viewBox="0 0 394.71 394.71" style="enable-background:new 0 0 394.71 394.71;" xml:space="preserve">
<g>
	<path style="fill:#D68E7E;" d="M197.613,110.125c-2.15,0-4.176,0.809-5.559,2.219c-1.238,1.262-2.462,2.453-3.676,3.605
		c3.598,2.661,8.188,6.628,11.66,11.574c0.196-0.316,6.918-9.084,3.301-14.477C202.167,111.3,200.16,110.125,197.613,110.125z"/>
	<rect x="94.256" y="226.487" style="fill:#D68E7E;" width="16.856" height="80.395"/>
	<path style="fill:#D68E7E;" d="M51.369,62.209c-0.682-4.1-3.594-5.555-5.879-5.555c-1.633,0-3.192,0.715-4.371,2.031
		c-3.733,4.168-2.613,12.445-2.605,12.529c3.441-1.301,8.092-2.733,13.73-3.707C51.956,65.747,51.664,63.98,51.369,62.209z"/>
	<rect x="121.113" y="226.487" style="fill:#7E6F83;" width="16.857" height="80.395"/>
	<path style="fill:#7E6F83;" d="M180.632,122.694c-8.317,6.541-15.752,10.042-21.574,10.042c-4.982,0-7.309-2.459-8.254-3.932
		c-1.576-2.457-1.592-5.506-0.158-29.66c0.989-16.676,2.255-38.105,2.007-56.989c-2.659-1.19-9.275-1.888-16.207-1.728
		c-1.21,11.518-2.762,25.69-3.989,36.914c-1,9.141-1.79,16.359-1.896,17.596c-0.223,2.586-2.393,4.494-4.984,4.494
		c-3.316,0-4.746-1.131-5.574-3.035c-2.445-5.617-4.026-62.604-4.034-63.024c-5.565-1.939-10.884-0.333-13.751,0.914
		c-0.834,50.013-2.047,62.337-3.805,65.81c-0.479,0.943-1.243,1.711-2.186,2.193c-0.92,0.469-1.967,0.654-3.094,0.6
		c-1.707-0.006-3.309-0.887-4.223-2.355c-2.149-3.451-3.217-14.676-5.541-48.949c-0.15-2.217-0.298-4.389-0.444-6.518
		c-5.934-0.62-10.797,1.476-13.399,2.963c2.341,52.53,1.124,55.123,0.216,57.057c-0.831,1.768-2.653,2.709-4.497,2.873
		c-0.163,0.016-3.625,0.211-5.205-2.494c-1.76-3.011-3.29-10.803-6.167-28.086c-6.432,1.123-11.348,2.923-14.224,4.17
		c5.62,46.704,16.736,82.516,22.908,102.389c2.432,7.828,4.188,13.484,4.775,17.031c0.045,0.271,0.067,15.52,0.067,15.52h70.571
		v-10.076c0-0.92,0.254-1.822,0.732-2.605c3.689-6.043,13.695-17.709,25.28-31.217c10.443-12.176,21.903-25.543,29.79-36.057
		C191.044,130.713,184.843,125.559,180.632,122.694z"/>
	<rect x="67.399" y="226.487" style="fill:#7E6F83;" width="16.858" height="80.395"/>
	<path style="fill:#D68E7E;" d="M152.334,31.704c-0.092-1.809-0.195-3.591-0.328-5.31c-0.431-5.582-4.029-8.596-7.197-8.596
		c-3.76,0-6.486,4.002-7.117,10.441c-0.066,0.682-0.138,1.402-0.212,2.145C142.041,30.312,147.565,30.557,152.334,31.704z"/>
	<path style="fill:#D68E7E;" d="M349.22,134.483c-2.285,0-5.197,1.455-5.879,5.554c-0.295,1.771-0.587,3.539-0.876,5.299
		c5.639,0.975,10.289,2.407,13.73,3.708c0.009-0.085,1.128-8.361-2.604-12.53C352.413,135.197,350.853,134.483,349.22,134.483z"/>
	<path style="fill:#D68E7E;" d="M69.028,37.25c3.516-1.377,8.028-2.49,13.183-2.254c-0.07-0.957-0.142-1.903-0.213-2.826
		c-0.395-5.127-2.835-8.31-6.368-8.31c-1.64,0-3.274,0.726-4.483,1.996c-1.662,1.744-2.459,4.336-2.306,7.496
		C68.905,34.68,68.966,35.973,69.028,37.25z"/>
	<path style="fill:#D68E7E;" d="M115.738,22.97c-0.071-2.819-0.146-5.192-0.232-6.921c-0.223-4.465-3.463-6.049-6.17-6.049
		c-3.12,0-6.793,2.064-6.875,7.883c0,0-0.069,4.926-0.081,5.783C106.04,22.627,110.703,21.979,115.738,22.97z"/>
	<rect x="283.597" y="304.316" style="fill:#D68E7E;" width="16.856" height="80.394"/>
	<rect x="256.74" y="304.316" style="fill:#7E6F83;" width="16.857" height="80.394"/>
	<path style="fill:#D68E7E;" d="M202.656,190.172c-1.383-1.41-3.408-2.219-5.559-2.219c-2.547,0-4.554,1.176-5.727,2.923
		c-3.617,5.392,3.104,14.159,3.301,14.476c3.473-4.945,8.062-8.912,11.66-11.573C205.118,192.625,203.894,191.435,202.656,190.172z"
		/>
	<path style="fill:#7E6F83;" d="M334.671,183.294c-1.58,2.704-5.042,2.509-5.205,2.494c-1.844-0.165-3.666-1.105-4.497-2.873
		c-0.908-1.933-2.125-4.526,0.216-57.058c-2.603-1.486-7.466-3.582-13.399-2.963c-0.147,2.129-0.294,4.301-0.444,6.518
		c-2.324,34.274-3.393,45.499-5.541,48.949c-0.914,1.469-2.516,2.35-4.223,2.357c-1.127,0.054-2.174-0.131-3.094-0.601
		c-0.942-0.481-1.707-1.25-2.186-2.193c-1.758-3.473-2.971-15.797-3.805-65.809c-2.867-1.247-8.186-2.853-13.751-0.914
		c-0.008,0.42-1.589,57.407-4.034,63.023c-0.828,1.905-2.258,3.035-5.574,3.035c-2.592,0-4.762-1.907-4.984-4.494
		c-0.106-1.235-0.897-8.455-1.897-17.596c-1.227-11.224-2.779-25.396-3.989-36.914c-6.932-0.159-13.548,0.537-16.207,1.729
		c-0.248,18.884,1.018,40.313,2.007,56.988c1.434,24.154,1.418,27.203-0.158,29.661c-0.945,1.472-3.271,3.932-8.254,3.932
		c-5.822,0-13.257-3.501-21.574-10.042c-4.211,2.863-10.412,8.019-13.141,13.838c7.887,10.515,19.347,23.881,29.79,36.058
		c11.585,13.507,21.591,25.173,25.28,31.216c0.479,0.784,0.733,1.686,0.733,2.605v10.076h70.571c0,0,0.022-15.248,0.067-15.518
		c0.588-3.547,2.344-9.204,4.775-17.032c6.172-19.872,17.288-55.684,22.908-102.389c-2.876-1.246-7.792-3.047-14.224-4.17
		C337.961,172.49,336.431,180.283,334.671,183.294z"/>
	<rect x="310.454" y="304.316" style="fill:#7E6F83;" width="16.857" height="80.394"/>
	<path style="fill:#D68E7E;" d="M257.231,108.213c-0.074-0.742-0.145-1.463-0.212-2.145c-0.631-6.439-3.357-10.44-7.117-10.44
		c-3.168,0-6.767,3.013-7.197,8.596c-0.133,1.718-0.236,3.501-0.328,5.31C247.145,108.386,252.669,108.141,257.231,108.213z"/>
	<path style="fill:#D68E7E;" d="M325.682,115.079c0.062-1.278,0.123-2.571,0.188-3.899c0.153-3.159-0.643-5.751-2.306-7.495
		c-1.209-1.27-2.844-1.997-4.483-1.997c-3.533,0-5.974,3.185-6.368,8.311c-0.071,0.924-0.143,1.869-0.213,2.826
		C317.654,112.589,322.167,113.701,325.682,115.079z"/>
	<path style="fill:#D68E7E;" d="M292.331,101.494c-0.012-0.857-0.081-5.782-0.081-5.782c-0.082-5.818-3.755-7.883-6.875-7.883
		c-2.707,0-5.947,1.584-6.17,6.049c-0.086,1.728-0.161,4.102-0.232,6.921C284.007,99.809,288.67,100.455,292.331,101.494z"/>
	<path style="fill:#3F352F;" d="M212.035,108.109c-2.84-5-8.23-7.984-14.422-7.984c-4.818,0-9.447,1.9-12.698,5.217
		c-14.839,15.133-22.925,17.135-25.328,17.367c-0.074-4.174,0.491-13.705,1.042-22.973c1.296-21.846,3.072-51.764,1.348-74.111
		c-0.785-10.162-8.165-17.826-17.168-17.826c-6.996,0-15.664,5.1-17.068,19.469c-0.406,4.145-0.958,9.476-1.578,15.332
		c-0.066-2.992-0.475-23.111-0.67-27.045C124.985,5.342,116.98,0,109.336,0c-8.26,0-16.709,6.094-16.875,17.742
		c0,0-0.178,12.518-0.252,16.844c-0.08-1.08-0.847-20.726-16.579-20.726c-4.362,0-8.636,1.857-11.724,5.1
		c-3.543,3.719-5.338,9.002-5.054,14.877c0.407,8.383,0.739,15.744,1.009,22.201c-2.598-5.693-8.023-9.383-14.371-9.383
		c-4.49,0-8.674,1.889-11.78,5.314c-2.938,3.24-6.22,9.336-5.175,19.973c5.197,52.9,17.735,93.272,24.471,114.961
		c2.133,6.865,3.836,12.348,4.393,15.322v109.657c0,2.762,2.239,5,5,5h80.571c2.762,0,5-2.238,5-5V207.879
		c3.884-5.787,13.482-16.977,23.604-28.779c14.421-16.812,30.767-35.871,37.646-47.408
		C216.444,119.578,214.084,111.717,212.035,108.109z M137.691,28.24c0.631-6.439,3.357-10.441,7.117-10.441
		c3.168,0,6.767,3.014,7.197,8.596c0.133,1.719,0.236,3.501,0.328,5.31c-4.769-1.147-10.293-1.392-14.855-1.319
		C137.553,29.643,137.625,28.922,137.691,28.24z M102.461,17.883c0.082-5.818,3.755-7.883,6.875-7.883
		c2.707,0,5.947,1.584,6.17,6.049c0.086,1.729,0.161,4.102,0.232,6.921c-5.035-0.99-9.698-0.343-13.358,0.696
		C102.391,22.809,102.461,17.883,102.461,17.883z M71.146,25.855c1.209-1.27,2.844-1.996,4.483-1.996
		c3.533,0,5.974,3.184,6.368,8.31c0.071,0.923,0.143,1.869,0.213,2.826c-5.154-0.236-9.667,0.877-13.183,2.254
		c-0.062-1.277-0.123-2.57-0.188-3.898C68.687,30.191,69.484,27.6,71.146,25.855z M41.119,58.686
		c1.179-1.317,2.738-2.031,4.371-2.031c2.285,0,5.197,1.455,5.879,5.555c0.295,1.771,0.587,3.538,0.876,5.299
		c-5.639,0.974-10.289,2.406-13.73,3.707C38.505,71.131,37.386,62.854,41.119,58.686z M84.256,306.882H67.399v-80.395h16.857
		V306.882z M111.113,306.882H94.256v-80.395h16.856V306.882z M137.97,306.882h-16.857v-80.395h16.857V306.882z M163.983,172.59
		c-11.585,13.508-21.591,25.174-25.28,31.217c-0.479,0.783-0.732,1.686-0.732,2.605v10.076H67.399c0,0-0.022-15.248-0.067-15.52
		c-0.588-3.547-2.344-9.203-4.775-17.031c-6.172-19.873-17.288-55.685-22.908-102.389c2.876-1.247,7.792-3.047,14.224-4.17
		c2.877,17.283,4.407,25.075,6.167,28.086c1.58,2.705,5.042,2.51,5.205,2.494c1.844-0.164,3.666-1.105,4.497-2.873
		c0.908-1.934,2.125-4.526-0.216-57.057c2.603-1.487,7.466-3.583,13.399-2.963c0.146,2.129,0.294,4.301,0.444,6.518
		c2.324,34.273,3.392,45.498,5.541,48.949c0.914,1.469,2.516,2.35,4.223,2.355c1.127,0.055,2.174-0.131,3.094-0.6
		c0.942-0.482,1.707-1.25,2.186-2.193c1.758-3.473,2.971-15.797,3.805-65.81c2.867-1.247,8.186-2.852,13.751-0.914
		c0.008,0.421,1.589,57.407,4.034,63.024c0.828,1.904,2.258,3.035,5.574,3.035c2.592,0,4.762-1.908,4.984-4.494
		c0.106-1.236,0.896-8.455,1.896-17.596c1.227-11.225,2.779-25.396,3.989-36.914c6.932-0.16,13.548,0.537,16.207,1.728
		c0.248,18.884-1.018,40.314-2.007,56.989c-1.434,24.154-1.418,27.203,0.158,29.66c0.945,1.473,3.271,3.932,8.254,3.932
		c5.822,0,13.257-3.501,21.574-10.042c4.211,2.864,10.412,8.019,13.141,13.839C185.886,147.047,174.426,160.414,163.983,172.59z
		 M200.039,127.523c-3.473-4.946-8.062-8.913-11.66-11.574c1.214-1.152,2.438-2.344,3.676-3.605c1.383-1.41,3.408-2.219,5.559-2.219
		c2.547,0,4.554,1.175,5.727,2.922C206.957,118.439,200.235,127.207,200.039,127.523z"/>
	<path style="fill:#3F352F;" d="M349.22,124.483c-6.348,0-11.773,3.689-14.371,9.382c0.27-6.457,0.602-13.817,1.009-22.201
		c0.284-5.875-1.511-11.158-5.054-14.877c-3.088-3.241-7.361-5.1-11.724-5.1c-15.732,0-16.499,19.646-16.579,20.728
		c-0.074-4.327-0.252-16.845-0.252-16.845c-0.166-11.647-8.615-17.741-16.875-17.741c-7.645,0-15.649,5.342-16.156,15.554
		c-0.195,3.934-0.603,24.053-0.67,27.045c-0.62-5.854-1.172-11.188-1.578-15.332c-1.404-14.369-10.072-19.468-17.068-19.468
		c-9.003,0-16.383,7.664-17.168,17.826c-1.725,22.347,0.052,52.265,1.348,74.11c0.551,9.268,1.116,18.8,1.042,22.974
		c-2.403-0.232-10.489-2.235-25.328-17.368c-3.251-3.315-7.88-5.217-12.698-5.217c-6.191,0-11.582,2.985-14.422,7.984
		c-2.049,3.608-4.409,11.47,2.815,23.582c6.88,11.538,23.225,30.596,37.646,47.409c10.122,11.802,19.72,22.991,23.604,28.778V389.71
		c0,2.762,2.238,5,5,5h80.571c2.761,0,5-2.238,5-5V280.053c0.558-2.974,2.261-8.457,4.394-15.321
		c6.735-21.689,19.273-62.062,24.471-114.961c1.045-10.638-2.237-16.733-5.175-19.974
		C357.894,126.371,353.711,124.483,349.22,124.483z M312.712,109.998c0.395-5.126,2.835-8.311,6.368-8.311
		c1.64,0,3.274,0.728,4.483,1.997c1.662,1.744,2.459,4.336,2.306,7.495c-0.064,1.328-0.126,2.621-0.188,3.899
		c-3.516-1.378-8.028-2.49-13.183-2.255C312.57,111.867,312.641,110.922,312.712,109.998z M279.205,93.878
		c0.223-4.465,3.463-6.049,6.17-6.049c3.12,0,6.793,2.064,6.875,7.883c0,0,0.069,4.925,0.081,5.782
		c-3.66-1.039-8.323-1.686-13.358-0.695C279.044,97.979,279.119,95.605,279.205,93.878z M242.705,104.224
		c0.431-5.583,4.029-8.596,7.197-8.596c3.76,0,6.486,4.001,7.117,10.44c0.066,0.682,0.138,1.402,0.212,2.145
		c-4.562-0.072-10.086,0.173-14.854,1.32C242.468,107.725,242.572,105.941,242.705,104.224z M194.671,205.352
		c-0.196-0.316-6.918-9.084-3.301-14.476c1.173-1.747,3.18-2.923,5.727-2.923c2.15,0,4.176,0.809,5.559,2.219
		c1.238,1.263,2.462,2.453,3.676,3.606C202.734,196.439,198.144,200.406,194.671,205.352z M273.597,384.71H256.74v-80.394h16.857
		V384.71z M300.454,384.71h-16.856v-80.394h16.856V384.71z M327.311,384.71h-16.857v-80.394h16.857V384.71z M332.154,261.766
		c-2.432,7.828-4.188,13.485-4.775,17.032c-0.045,0.27-0.067,15.518-0.067,15.518H256.74V284.24c0-0.919-0.254-1.821-0.733-2.605
		c-3.689-6.043-13.695-17.709-25.28-31.216c-10.443-12.177-21.903-25.543-29.79-36.058c2.729-5.819,8.93-10.975,13.141-13.838
		c8.317,6.541,15.752,10.042,21.574,10.042c4.982,0,7.309-2.46,8.254-3.932c1.576-2.458,1.592-5.507,0.158-29.661
		c-0.989-16.676-2.255-38.105-2.007-56.988c2.659-1.191,9.275-1.888,16.207-1.729c1.21,11.519,2.762,25.69,3.989,36.914
		c1,9.141,1.79,16.36,1.897,17.596c0.223,2.587,2.393,4.494,4.984,4.494c3.316,0,4.746-1.13,5.574-3.035
		c2.445-5.616,4.026-62.603,4.034-63.023c5.565-1.939,10.884-0.333,13.751,0.914c0.834,50.012,2.047,62.336,3.805,65.809
		c0.479,0.943,1.243,1.712,2.186,2.193c0.92,0.47,1.967,0.654,3.094,0.601c1.707-0.007,3.309-0.888,4.223-2.357
		c2.148-3.45,3.217-14.675,5.541-48.949c0.15-2.217,0.298-4.389,0.444-6.518c5.934-0.619,10.797,1.477,13.399,2.963
		c-2.341,52.531-1.124,55.124-0.216,57.058c0.831,1.768,2.653,2.708,4.497,2.873c0.163,0.015,3.625,0.21,5.205-2.494
		c1.76-3.011,3.29-10.804,6.167-28.087c6.432,1.123,11.348,2.924,14.224,4.17C349.442,206.082,338.326,241.894,332.154,261.766z
		 M356.196,149.044c-3.441-1.301-8.092-2.733-13.73-3.708c0.289-1.76,0.581-3.527,0.876-5.299c0.682-4.099,3.594-5.554,5.879-5.554
		c1.633,0,3.192,0.714,4.371,2.03C357.324,140.683,356.205,148.959,356.196,149.044z"/>
</g>
<g>
</g>
<g>
</g>
<g>
</g>
<g>
</g>
<g>
</g>
<g>
</g>
<g>
</g>
<g>
</g>
<g>
</g>
<g>
</g>
<g>
</g>
<g>
</g>
<g>
</g>
<g>
</g>
<g>
</g>
</svg>
