<?xml version="1.0" encoding="iso-8859-1"?>
<!-- Generator: Adobe Illustrator 18.0.0, SVG Export Plug-In . SVG Version: 6.00 Build 0)  -->
<!DOCTYPE svg PUBLIC "-//W3C//DTD SVG 1.1//EN" "http://www.w3.org/Graphics/SVG/1.1/DTD/svg11.dtd">
<svg version="1.1" id="Capa_1" xmlns="http://www.w3.org/2000/svg" xmlns:xlink="http://www.w3.org/1999/xlink" x="0px" y="0px"
	 viewBox="0 0 402.832 402.832" style="enable-background:new 0 0 402.832 402.832;" xml:space="preserve">
<path d="M402.763,300.085c-2.406-14.434-11.918-32.164-43.578-34.664c-21.768-1.717-45.629-9.09-47.012-9.521
	c-24.178-8.432-43.982-26.119-47.536-29.414L182.071,66.211c-0.73-1.419-2.096-2.404-3.674-2.65
	c-1.583-0.249-3.178,0.275-4.307,1.404c-1.65,1.65-10.972,9.892-32.507,10.126c-7.153,0.078-12.655,2.201-16.353,6.312
	c-2.18,2.422-3.314,5.095-3.896,7.402L54,84.205c-0.029-7.178-0.187-13.849-1.103-19.159c-1.997-11.586-7.735-14.018-12.196-14.018
	c-11.117,0-13.014,14.84-13.272,31.411c-1.212,0.035-2.379,0.483-3.273,1.318c-1.013,0.945-1.588,2.269-1.588,3.654
	c0,0,0.004,52.592,0.004,52.659c0.01,14.3-10.646,43.135-10.646,43.135c-10.34,26.729-9.389,47.842-7.1,60.189
	c-0.813,0.028-1.625,0.243-2.357,0.674c-1.783,1.047-2.738,3.082-2.402,5.123l15.859,96.379c0.396,2.414,2.484,4.188,4.933,4.188
	h87.838c2.762,0,5-2.238,5-5v-59.313c46.439,8.589,88.764,50.609,89.704,51.451c6.754,6.047,16.646,14.91,46.604,14.908
	c13.379,0,30.765-1.77,53.649-6.346c80.404-16.082,97.643-40.736,98.338-41.779C402.697,302.622,402.972,301.337,402.763,300.085z
	 M40.793,61.039c0.652,0.157,1.604,1.957,2.25,5.705c0.76,4.409,0.921,10.32,0.955,16.777l-6.564-0.448
	C37.76,65.366,39.944,61.761,40.793,61.039z M103.697,339.757H25.104l-13.371-81.254c13.877,7.598,43.066,20.078,91.965,25.488
	V339.757z M120.778,276.705c-7.848-2.787-70.131-6.819-103.992-26.902c-2.083-6.15-8.361-29.831,4.467-62.989
	c0,0,2.17-5.617,3.125-8.145l96.4,41.879V276.705z M120.778,209.646l-93.018-40.41c3.336-10.021,5.218-18.898,4.809-29.465V92.764
	l88.209,6.026V209.646z M130.778,279.429V92.878c0.081-1.139,0.445-3.229,1.947-4.854c1.758-1.901,4.774-2.888,8.967-2.934
	c17.295-0.188,28.217-5.014,34.255-8.931l80.193,155.667c0.248,0.48,24.044,23.533,52.821,33.543
	c0.043,0.014,23.994,8.099,49.438,10.02c10.223,0.772,18.125,3.364,23.844,7.697c-9.59,7.845-38.728,27.323-100.289,36.578
	c-43.175,6.488-73.932,3.285-80.415,2.465C189.117,311.309,163.957,289.83,130.778,279.429z M301.693,335.651
	c-58.161,11.634-77.351,4.632-86.968-2.352c12.715,1.974,47.447-0.549,68.714-3.746c64.453-9.688,94.924-30.127,105.512-38.99
	c1.572,2.64,2.756,5.605,3.512,8.94C387.537,304.595,366.072,322.776,301.693,335.651z"/>
<g>
</g>
<g>
</g>
<g>
</g>
<g>
</g>
<g>
</g>
<g>
</g>
<g>
</g>
<g>
</g>
<g>
</g>
<g>
</g>
<g>
</g>
<g>
</g>
<g>
</g>
<g>
</g>
<g>
</g>
</svg>
