<?xml version="1.0" encoding="iso-8859-1"?>
<!-- Generator: Adobe Illustrator 18.0.0, SVG Export Plug-In . SVG Version: 6.00 Build 0)  -->
<!DOCTYPE svg PUBLIC "-//W3C//DTD SVG 1.1//EN" "http://www.w3.org/Graphics/SVG/1.1/DTD/svg11.dtd">
<svg version="1.1" id="Capa_1" xmlns="http://www.w3.org/2000/svg" xmlns:xlink="http://www.w3.org/1999/xlink" x="0px" y="0px"
	 viewBox="0 0 393.59 393.59" style="enable-background:new 0 0 393.59 393.59;" xml:space="preserve">
<path d="M345.346,79.68c1.246-1.668,1.33-3.93,0.211-5.684c-16.892-26.467-48.395-27.283-50-27.307
	c-0.537-0.027-17.385-1.119-50.553-24.377c-0.855-0.682-10.008-8.184-10.008-17.305c0-2.582-1.967-4.74-4.537-4.978
	c-0.59-0.053-5.896-0.412-10.621,3.895c-4.494,4.094-6.771,10.781-6.771,19.875c0,9.906-6.398,12.654-7.057,12.908
	c-1.416,0.494-2.535,1.598-3.049,3.004l-6.166,16.859l-6.166-16.859c-0.516-1.406-1.635-2.51-3.051-3.004
	c-0.07-0.023-7.055-2.578-7.055-12.908c0-9.094-2.279-15.781-6.771-19.875c-4.727-4.307-10.031-3.947-10.623-3.895
	c-2.57,0.238-4.536,2.397-4.536,4.978c0,9.125-9.166,16.633-10.013,17.307c-33.542,23.52-50.404,24.369-50.513,24.373h-0.005
	c-1.342,0.018-33.06,0.723-50.03,27.309c-1.119,1.754-1.036,4.016,0.21,5.684c0.292,0.391,29.227,39.139,53.109,73.371
	c1.414,9.516,2.458,18.945,2.458,31.336c0,26.508-16.979,102.133-17.363,103.65c-3.005,11.852-6.09,24.07,6.73,33.174
	c-2.267,7.486-6.914,25.545-8.837,52.957c-0.003,0.041-0.006,0.084-0.008,0.125c-0.046,1.023,0.188,3.063,2.268,5.236
	c11.114,11.621,66.056,14.061,110.193,14.061c0,0,0,0,0.002,0c0,0,0,0,0.002,0c44.137,0,99.078-2.44,110.191-14.061
	c2.08-2.174,2.314-4.213,2.268-5.236c-0.002-0.041-6.578-45.602-8.844-53.08c12.82-9.105,9.734-21.324,6.73-33.176
	c-0.385-1.518-17.363-77.158-17.363-103.65c0-12.391,1.043-21.82,2.457-31.336C316.12,118.818,345.055,80.07,345.346,79.68z
	 M300.446,57.207c8.123,1.236,24.236,5.4,34.742,19.373c-5.822,7.834-22.592,30.498-39.506,54.242
	C298.028,114.424,300.237,92.84,300.446,57.207z M58.402,76.58C68.91,62.607,85.021,58.443,93.144,57.207
	c0.208,35.635,2.417,57.217,4.764,73.615C80.995,107.078,64.224,84.416,58.402,76.58z M242.811,38.643
	c2.105,6.135,4.898,16.414,7.676,33.029c6.018,36.004,13.182,109.088,13.303,253.02c-9.262,2.109-18.846,3.494-27.791,4.385
	c0.982-2.721,2.801-4.498,5.143-6.771c4.551-4.416,10.215-9.912,10.215-23.469c0-6.359-3.979-12.197-8.189-18.379
	c-3.922-5.758-7.977-11.711-7.977-17.203c0-3.883,3.5-9.027,6.883-14.002c4.352-6.396,9.283-13.645,9.283-21.578
	c0-7.256-4.482-13.848-8.818-20.221c-3.613-5.313-7.348-10.805-7.348-15.363c0-4.393,3.678-9.801,7.234-15.031
	c4.391-6.457,8.932-13.133,8.932-20.555c0-7.695-4.637-14.514-9.121-21.105c-3.463-5.092-7.045-10.357-7.045-14.473
	c0-4.959,3.873-10.654,7.619-16.16c4.201-6.174,8.547-12.561,8.547-19.42c0-8.902-5.277-16.637-9.932-23.459
	c-2.596-3.803-5.258-7.711-6.016-10.631C238.653,46.805,241.053,42.422,242.811,38.643z M222.96,280.457
	c-3.922-5.758-7.977-11.711-7.977-17.203c0-3.883,3.5-9.027,6.885-14.002c4.35-6.396,9.281-13.645,9.281-21.578
	c0-7.256-4.482-13.848-8.818-20.221c-3.613-5.313-7.348-10.805-7.348-15.363c0-4.393,3.678-9.801,7.234-15.031
	c4.391-6.457,8.932-13.133,8.932-20.555c0-7.695-4.637-14.514-9.121-21.105c-3.463-5.092-7.045-10.357-7.045-14.473
	c0-4.959,3.873-10.654,7.619-16.16c4.203-6.174,8.547-12.561,8.547-19.42c0-7.857-4.109-14.801-8.273-21.014
	c1.904-1.494,3.662-3.059,5.295-4.666c1.41,2.596,3.176,5.193,4.994,7.858c4.027,5.902,8.191,12.006,8.191,17.822
	c0,3.781-3.465,8.871-6.814,13.795c-4.383,6.443-9.352,13.746-9.352,21.785c0,7.193,4.461,13.754,8.775,20.098
	c3.633,5.34,7.391,10.863,7.391,15.48c0,4.344-3.66,9.727-7.201,14.932c-4.408,6.48-8.965,13.182-8.965,20.654
	c0,7.639,4.615,14.424,9.078,20.986c3.484,5.123,7.088,10.42,7.088,14.598c0,4.855-3.838,10.496-7.551,15.953
	c-4.236,6.227-8.615,12.664-8.615,19.627c0,8.576,5.16,16.15,9.713,22.834c3.172,4.656,6.453,9.471,6.453,12.748
	c0,9.326-3.168,12.4-7.178,16.293c-3.389,3.287-7.465,7.27-8.645,14.805c-3.604,0.236-7.008,0.398-10.139,0.508
	c0.82-3.539,2.828-5.506,5.539-8.137c4.551-4.416,10.215-9.912,10.215-23.469C231.149,292.477,227.171,286.639,222.96,280.457z
	 M211.663,45.031c3.943-2.234,11.404-8.188,11.404-21.232c0-5.453,1.037-9.633,2.934-11.885c2.135,7.369,7.188,13.076,10.34,16.08
	c-2.439,7.301-10.67,26.631-31.365,35.32L211.663,45.031z M201.798,75.025c4.691-1.336,8.912-3.119,12.723-5.199
	c3.473,5.176,6.629,10.455,6.629,15.52c0,3.781-3.465,8.871-6.814,13.795c-4.383,6.443-9.352,13.746-9.352,21.785
	c0,7.193,4.461,13.754,8.775,20.098c3.633,5.34,7.391,10.863,7.391,15.48c0,4.344-3.66,9.727-7.201,14.932
	c-4.408,6.48-8.965,13.182-8.965,20.654c0,7.639,4.615,14.424,9.078,20.986c3.484,5.123,7.088,10.42,7.088,14.598
	c0,4.855-3.838,10.496-7.551,15.953c-4.236,6.227-8.615,12.664-8.615,19.627c0,8.576,5.16,16.15,9.713,22.834
	c3.172,4.656,6.453,9.471,6.453,12.748c0,9.326-3.168,12.4-7.178,16.293c-3.492,3.387-7.709,7.52-8.734,15.518
	c-0.488,0.002-2.82,0-3.439-0.004V75.025z M191.794,75.025v255.617c-0.619,0.004-2.953,0.006-3.441,0.004
	c-1.029-7.996-5.242-12.129-8.732-15.518c-4.01-3.893-7.178-6.967-7.178-16.293c0-3.277,3.279-8.092,6.453-12.748
	c4.553-6.684,9.713-14.258,9.713-22.834c0-6.963-4.381-13.4-8.617-19.627c-3.711-5.457-7.549-11.098-7.549-15.953
	c0-4.178,3.602-9.475,7.086-14.598c4.463-6.563,9.08-13.348,9.08-20.986c0-7.473-4.559-14.174-8.967-20.654
	c-3.539-5.205-7.199-10.588-7.199-14.932c0-4.617,3.756-10.141,7.389-15.48c4.314-6.344,8.777-12.904,8.777-20.098
	c0-8.039-4.969-15.342-9.354-21.785c-3.35-4.924-6.813-10.014-6.813-13.795c0-5.063,3.156-10.344,6.629-15.52
	C182.882,71.908,187.102,73.689,191.794,75.025z M159.784,243.627c-3.712-5.457-7.55-11.098-7.55-15.953
	c0-4.178,3.603-9.475,7.087-14.598c4.463-6.563,9.08-13.348,9.08-20.986c0-7.473-4.559-14.174-8.967-20.654
	c-3.54-5.205-7.2-10.588-7.2-14.932c0-4.617,3.757-10.141,7.39-15.48c4.314-6.344,8.777-12.904,8.777-20.098
	c0-8.039-4.969-15.342-9.354-21.785c-3.35-4.924-6.814-10.014-6.814-13.795c0-5.816,4.164-11.92,8.191-17.822
	c1.819-2.666,3.579-5.266,4.987-7.865c1.635,1.609,3.396,3.178,5.303,4.674c-4.164,6.211-8.273,13.156-8.273,21.014
	c0,6.859,4.344,13.246,8.545,19.42c3.746,5.506,7.621,11.201,7.621,16.16c0,4.115-3.582,9.381-7.045,14.473
	c-4.484,6.592-9.121,13.41-9.121,21.105c0,7.422,4.539,14.098,8.932,20.555c3.557,5.23,7.234,10.639,7.234,15.031
	c0,4.559-3.736,10.051-7.348,15.363c-4.336,6.373-8.818,12.965-8.818,20.221c0,7.934,4.93,15.182,9.281,21.578
	c3.385,4.975,6.885,10.119,6.885,14.002c0,5.492-4.057,11.445-7.979,17.203c-4.211,6.182-8.188,12.02-8.188,18.379
	c0,13.557,5.662,19.053,10.213,23.469c2.715,2.635,4.729,4.594,5.547,8.137c-3.133-0.109-6.541-0.271-10.15-0.508
	c-1.178-7.537-5.252-11.518-8.64-14.805c-4.01-3.893-7.178-6.967-7.178-16.293c0-3.277,3.28-8.092,6.453-12.748
	c4.554-6.684,9.714-14.258,9.714-22.834C168.401,256.291,164.02,249.853,159.784,243.627z M167.591,11.914
	c1.896,2.254,2.934,6.422,2.934,11.885c0,13.045,7.459,18.998,11.402,21.232l6.688,18.283c-20.699-8.691-28.93-28.029-31.365-35.32
	C160.402,24.99,165.454,19.283,167.591,11.914z M150.754,38.586c1.759,3.793,4.168,8.197,7.427,12.67
	c-0.757,2.92-3.419,6.828-6.015,10.631c-4.655,6.822-9.932,14.557-9.932,23.459c0,6.859,4.345,13.246,8.546,19.42
	c3.746,5.506,7.62,11.201,7.62,16.16c0,4.115-3.582,9.381-7.045,14.473c-4.484,6.592-9.121,13.41-9.121,21.105
	c0,7.422,4.54,14.098,8.932,20.555c3.557,5.23,7.234,10.639,7.234,15.031c0,4.559-3.735,10.051-7.348,15.363
	c-4.336,6.373-8.818,12.965-8.818,20.221c0,7.934,4.931,15.182,9.282,21.578c3.384,4.975,6.884,10.119,6.884,14.002
	c0,5.492-4.056,11.445-7.977,17.203c-4.211,6.182-8.189,12.02-8.189,18.379c0,13.557,5.663,19.053,10.214,23.469
	c2.341,2.271,4.155,4.051,5.137,6.771c-8.944-0.891-18.525-2.277-27.785-4.385C129.967,123.422,143.686,58.619,150.754,38.586z
	 M103.136,56.006c3.863-0.797,9.974-2.531,18.326-6.291c-5.452,10.938-12.482,27.139-17.111,45.639
	C103.666,84.445,103.208,71.584,103.136,56.006z M96.14,290.496c0.397-1.57,17.67-79.965,17.67-106.109
	c0-16.236-1.68-27.461-3.689-40.033C104.895,98.42,132.812,49.07,137.32,41.461c0.836-0.488,1.686-0.992,2.549-1.514
	c-2.116,6.994-4.388,16.668-6.629,30.076c-8.635,51.65-13.27,138.725-13.436,252.045c-6.588-1.984-12.812-4.41-18.26-7.396
	C91.806,309.33,92.782,303.742,96.14,290.496z M94.442,373.127c1.751-23.121,5.532-39.19,7.724-46.973
	c39.597,14.637,89.005,14.492,89.632,14.488l-0.004,42.936C114.234,383.25,97.554,375.303,94.442,373.127z M201.794,383.58
	l0.004-42.938c0.625,0.004,52.094,1.224,89.627-14.488c2.191,7.781,5.973,23.85,7.723,46.973
	C296.036,375.303,279.362,383.252,201.794,383.58z M297.45,290.496c3.357,13.246,4.334,18.834-5.404,24.176
	c-5.449,2.986-11.672,5.412-18.26,7.396c-0.166-113.32-4.801-200.394-13.436-252.045c-2.242-13.41-4.516-23.084-6.631-30.076
	c0.863,0.52,1.713,1.025,2.551,1.514c4.508,7.609,32.424,56.959,27.199,102.893c-2.01,12.572-3.689,23.797-3.689,40.033
	C279.78,210.516,297.052,288.926,297.45,290.496z M289.237,95.385c-4.629-18.512-11.656-34.729-17.111-45.67
	c8.353,3.76,14.465,5.494,18.328,6.291C290.382,71.6,289.923,84.471,289.237,95.385z"/>
<g>
</g>
<g>
</g>
<g>
</g>
<g>
</g>
<g>
</g>
<g>
</g>
<g>
</g>
<g>
</g>
<g>
</g>
<g>
</g>
<g>
</g>
<g>
</g>
<g>
</g>
<g>
</g>
<g>
</g>
</svg>
