<?xml version="1.0" encoding="iso-8859-1"?>
<!-- Generator: Adobe Illustrator 18.0.0, SVG Export Plug-In . SVG Version: 6.00 Build 0)  -->
<!DOCTYPE svg PUBLIC "-//W3C//DTD SVG 1.1//EN" "http://www.w3.org/Graphics/SVG/1.1/DTD/svg11.dtd">
<svg version="1.1" id="Capa_1" xmlns="http://www.w3.org/2000/svg" xmlns:xlink="http://www.w3.org/1999/xlink" x="0px" y="0px"
	 viewBox="0 0 412.527 412.527" style="enable-background:new 0 0 412.527 412.527;" xml:space="preserve">
<path d="M292.56,60.565c-5.928-8.861,3.334-15.678,3.4-15.738c14.486-12.996,12.344-29.293,9.188-36.095
	c-0.363-0.784-0.926-1.461-1.629-1.963c-17.898-12.793-37.906-4.071-43.637-1.085l-11.764-1.377
	c-1.418-0.165-2.838,0.282-3.904,1.231c-1.066,0.949-1.676,2.308-1.676,3.735c0,11.992-4.805,25.508-11.084,38.061
	c-5.706,5.769-15.056,9.203-25.19,9.203c-10.119,0-19.461-3.426-25.171-9.183C174.811,34.796,170,21.272,170,9.273
	c0-1.427-0.611-2.787-1.678-3.735c-1.064-0.949-2.484-1.394-3.904-1.231l-11.773,1.377c-5.729-2.984-25.739-11.708-43.64,1.085
	c-0.703,0.502-1.264,1.179-1.627,1.963c-3.156,6.802-5.299,23.099,9.186,36.095c0.053,0.047,8.987,7.468,3.4,15.739
	c-10.713,15.86-10.217,30.154,2.15,44.136c10.402,11.761,9.17,15.224,7.307,20.468c-2.414,6.787-1.711,14.559,1.879,20.792
	c2.596,4.505,7.822,10.183,18.12,13.003l1.411,11.078c-7.719,9.379-30.911,51.671-38.059,225.279c0,0-0.414,5.205,4.996,5.205
	c9.793,0,14.402,2.5,19.738,5.395c5.707,3.097,12.178,6.605,24.508,6.605c12.328,0,18.797-3.51,24.504-6.605
	c5.338-2.895,9.945-5.395,19.738-5.395s14.402,2.5,19.74,5.395c5.708,3.097,12.177,6.605,24.509,6.605
	c12.33,0,18.772-3.561,24.508-6.605c10.939-5.805,19.879-5.396,19.947-5.398c2.76-0.113,4.904-2.443,4.791-5.201
	c-7.146-173.547-30.324-215.87-38.051-225.268l1.412-11.09c10.291-2.822,15.516-8.497,18.109-13.001
	c3.59-6.233,4.293-14.005,1.881-20.793c-1.865-5.243-3.098-8.706,7.305-20.467C302.779,90.72,303.203,76.474,292.56,60.565z
	 M206.264,66.537c5.479,0,10.811-0.847,15.715-2.408c-6.026,9.644-11.99,17.675-15.709,22.452
	c-3.717-4.774-9.676-12.799-15.699-22.435C195.471,65.7,200.797,66.537,206.264,66.537z M139.967,140.971
	c-2.148-3.73-2.568-8.385-1.123-12.451c3.365-9.46,2.859-16.766-9.238-30.443c-9.236-10.442-9.662-19.954-1.428-31.805
	c8.732-12.564,0.596-24.379-5.023-28.969c-10.361-9.366-8.227-19.781-7.129-23.212c10.824-6.887,22.814-3.545,28.945-0.975
	c-6.121,13.62-20.947,54.714-1.467,99.423l4.504,35.337C144.389,146.232,141.657,143.902,139.967,140.971z M156.455,179.529
	c3.664,2.134,8.674,3.441,13.328,4.395c9.797,2.007,22.752,3.113,36.48,3.113c8.24,0,16.197-0.401,23.365-1.154l0.609,5.316
	c-36.05,14.785-69.314,8.317-81.23,5.117C151.987,187.841,154.606,182.606,156.455,179.529z M230.207,201.921l-8.908,161.834
	c-8.279-3.656-12.645-9.869-14.158-12.41l16.519-147.15C225.827,203.505,228.01,202.748,230.207,201.921z M268.712,213.522
	c7.211,27.541,16.617,80.551,20.838,177.241c-9.055,0.826-14.459,3.742-19.303,6.369c-5.338,2.895-9.947,5.395-19.74,5.395
	c-9.795,0-14.404-2.5-19.742-5.395c-5.706-3.097-12.177-6.605-24.507-6.605c-12.33,0-18.799,3.51-24.506,6.605
	c-5.336,2.895-9.945,5.395-19.736,5.395c-9.793,0-14.402-2.5-19.74-5.395c-4.842-2.627-10.246-5.543-19.299-6.369
	c4.22-96.69,13.626-149.7,20.836-177.241c0.717-2.738,1.426-5.268,2.126-7.642c6.728,1.886,19.65,4.75,36.099,4.75
	c9.424,0,20.01-0.964,31.239-3.578L197.03,351.789c-0.104,0.916,0.049,1.843,0.439,2.678c0.314,0.67,7.904,16.457,27.34,20.943
	c0.373,0.086,0.75,0.128,1.125,0.128c1.072,0,2.129-0.346,3.004-1.003c1.18-0.887,1.905-2.249,1.987-3.723l6.461-117.379
	l9.289,80.883c0.16,1.391,0.896,2.65,2.027,3.474c0.861,0.626,1.893,0.956,2.941,0.956c0.328,0,0.66-0.033,0.988-0.099
	c9.863-1.989,27.848-10.94,25.289-30.667c-0.074-0.502-6.521-44.178-19.07-102.927c0.918,0.023,5.91-0.003,7.469-0.07
	C267.105,207.609,267.904,210.433,268.712,213.522z M239.538,184.525c1.1-0.191,3.979-0.765,4.365-0.849
	c15.873,69.865,24.039,125.187,24.111,125.671c1.324,10.209-6.514,15.405-12.1,17.779L239.538,184.525z M263.079,195.084
	c-2.482,0.034-4.66-0.027-6.41-0.117c-1.02-4.647-2.072-9.371-3.164-14.165c0.904-0.39,1.771-0.807,2.568-1.27
	C257.831,182.457,260.285,187.33,263.079,195.084z M259.591,109.163c-0.195,0.443-0.326,0.913-0.389,1.394l-7.648,60.022
	c-3.105,2.348-18.914,6.458-45.29,6.458c-26.352,0-42.152-4.101-45.281-6.45l-7.65-60.03c-0.061-0.481-0.191-0.95-0.389-1.394
	c-19.096-43.089-2.621-83.836,1.973-93.676l5.359-0.627c3.561,37.128,40.535,81.002,42.186,82.942
	c1.787,2.102,5.353,2.656,7.605-0.011l0.013,0.011c1.65-1.94,38.622-45.814,42.185-82.942l5.363,0.628
	C262.24,25.313,278.745,65.945,259.591,109.163z M284.347,66.272c8.236,11.852,7.809,21.363-1.428,31.805
	c-12.098,13.677-12.602,20.982-9.236,30.442c1.445,4.067,1.025,8.722-1.125,12.452c-1.686,2.929-4.414,5.256-8.029,6.901
	l4.502-35.333c19.473-44.69,4.668-85.768-1.459-99.406c6.141-2.542,18.172-5.871,28.926,0.957
	c1.107,3.471,3.217,13.864-7.125,23.213C283.751,41.893,275.617,53.708,284.347,66.272z"/>
<g>
</g>
<g>
</g>
<g>
</g>
<g>
</g>
<g>
</g>
<g>
</g>
<g>
</g>
<g>
</g>
<g>
</g>
<g>
</g>
<g>
</g>
<g>
</g>
<g>
</g>
<g>
</g>
<g>
</g>
</svg>
