<?xml version="1.0" encoding="iso-8859-1"?>
<!-- Generator: Adobe Illustrator 18.0.0, SVG Export Plug-In . SVG Version: 6.00 Build 0)  -->
<!DOCTYPE svg PUBLIC "-//W3C//DTD SVG 1.1//EN" "http://www.w3.org/Graphics/SVG/1.1/DTD/svg11.dtd">
<svg version="1.1" id="Capa_1" xmlns="http://www.w3.org/2000/svg" xmlns:xlink="http://www.w3.org/1999/xlink" x="0px" y="0px"
	 viewBox="0 0 379.892 379.892" style="enable-background:new 0 0 379.892 379.892;" xml:space="preserve">
<g>
	<g>
		<path d="M358.352,298.888l-22.225-151.272c-0.001-0.005-0.003-0.01-0.004-0.015c-6.69-46.838-22.723-83.462-47.656-108.854
			C263.223,13.037,230.077,0.001,189.949,0h0c0,0-0.002,0-0.002,0c0,0-0.002,0-0.002,0h0c-40.128,0.001-73.274,13.037-98.519,38.747
			c-24.931,25.391-40.964,62.011-47.655,108.846c-0.002,0.008-0.005,0.016-0.006,0.024L21.538,298.902
			c-4.173,28.97-0.023,50.886,12.335,65.141c13.574,15.657,31.928,15.849,32.759,15.849c0.001,0,0.003,0,0.004,0h246.617
			c0.001,0,0.003,0,0.004,0c0.837,0,19.19-0.193,32.763-15.849C358.378,349.788,362.528,327.872,358.352,298.888z M189.947,10
			c40.926,0,73.921,14.674,97.547,42.541c-25.119-21.723-57.929-32.743-97.544-32.744c0,0,0,0,0,0s-0.002,0-0.002,0
			c0,0-0.002,0-0.002,0h0c-39.616,0.001-72.426,11.021-97.544,32.744C116.025,24.674,149.021,10,189.947,10z M189.947,29.797
			c42.273,0,76.084,13.414,99.845,38.852c-2.691,45.47-35.269,84.36-78.721,93.964v-0.081c0-2.761-2.239-5-5-5h-32.247
			c-2.761,0-5,2.239-5,5v0.073c-43.45-9.605-76.03-48.488-78.721-93.957C113.863,43.211,147.673,29.797,189.947,29.797z
			 M189.948,206.706c-6.134,0-11.125-4.99-11.125-11.124v-28.049h22.247v28.049C201.07,201.715,196.08,206.706,189.948,206.706z
			 M66.655,369.892c-0.6-0.005-14.809-0.268-25.339-12.53c-10.283-11.975-13.607-31.164-9.883-57.02l4.76-32.399
			c3.608,9.908,9.006,22.203,16.916,35.143c13.706,22.422,37.327,50.089,75.815,66.805H66.655z M160.691,369.892
			c-42.477-9.94-75.736-34.058-98.855-71.705c-15.808-25.742-21.245-49.418-22.169-53.879l13.977-95.134
			c0-0.005,0.002-0.009,0.003-0.014c4.624-27.925,13.945-51.295,27.531-69.743c3.093,20.838,11.854,40.493,25.481,56.589
			c16.159,19.087,38.103,32.05,62.164,36.836v22.74c0,9.598,6.44,17.707,15.222,20.269l-14.368,73.719
			c-0.528,2.711,1.241,5.336,3.951,5.864c0.323,0.063,0.645,0.093,0.962,0.093c2.344,0,4.437-1.657,4.902-4.044l5.454-27.983v46.891
			c0,2.761,2.239,5,5,5s5-2.239,5-5v-46.895l5.454,27.986c0.465,2.387,2.558,4.044,4.902,4.044c0.317,0,0.639-0.03,0.962-0.093
			c2.71-0.528,4.48-3.154,3.951-5.864l-14.367-73.719c8.781-2.562,15.221-10.67,15.221-20.269v-22.74
			c24.06-4.786,46.004-17.749,62.164-36.836c13.628-16.098,22.389-35.754,25.478-56.595c13.587,18.45,22.911,41.821,27.535,69.749
			c0,0.002,0.001,0.003,0.001,0.005l13.979,95.146c-0.913,4.433-6.263,27.854-21.977,53.561
			c-23.122,37.827-56.447,62.052-99.049,72.021H160.691z M338.577,357.362c-10.53,12.262-24.739,12.525-25.32,12.53h-62.282
			c38.482-16.719,62.103-44.385,75.808-66.805c7.911-12.942,13.307-25.238,16.916-35.147l4.758,32.388
			C352.184,326.199,348.86,345.388,338.577,357.362z"/>
		<g>
			<path d="M189.947,200.666c-1.32,0-2.61-0.53-3.53-1.46c-0.94-0.93-1.47-2.22-1.47-3.54c0-1.31,0.53-2.6,1.47-3.53
				c0.92-0.93,2.21-1.47,3.53-1.47c1.32,0,2.6,0.54,3.54,1.47c0.93,0.93,1.46,2.22,1.46,3.53c0,1.32-0.53,2.61-1.46,3.54
				C192.546,200.136,191.266,200.666,189.947,200.666z"/>
		</g>
	</g>
</g>
<g>
</g>
<g>
</g>
<g>
</g>
<g>
</g>
<g>
</g>
<g>
</g>
<g>
</g>
<g>
</g>
<g>
</g>
<g>
</g>
<g>
</g>
<g>
</g>
<g>
</g>
<g>
</g>
<g>
</g>
</svg>
