<?xml version="1.0" encoding="iso-8859-1"?>
<!-- Generator: Adobe Illustrator 18.0.0, SVG Export Plug-In . SVG Version: 6.00 Build 0)  -->
<!DOCTYPE svg PUBLIC "-//W3C//DTD SVG 1.1//EN" "http://www.w3.org/Graphics/SVG/1.1/DTD/svg11.dtd">
<svg version="1.1" id="Capa_1" xmlns="http://www.w3.org/2000/svg" xmlns:xlink="http://www.w3.org/1999/xlink" x="0px" y="0px"
	 viewBox="0 0 412.732 412.732" style="enable-background:new 0 0 412.732 412.732;" xml:space="preserve">
<g>
	<path d="M276.56,219.499c22.68-75.354,26.846-134.841,12.381-176.809c-11.184-32.448-29.77-41.804-30.556-42.187
		c-1.895-0.921-4.167-0.557-5.678,0.916c-4.618,4.502-24.549,4.491-42.14,4.456h-8.403c-17.583,0.033-37.521,0.046-42.141-4.456
		c-1.51-1.473-3.78-1.838-5.678-0.916c-0.786,0.383-19.372,9.738-30.556,42.187c-14.464,41.968-10.299,101.455,12.382,176.809
		c2.793,9.278,1.278,16.539-1.015,27.529c-5.15,24.687-12.934,61.994,18.387,162.196c0.653,2.087,2.586,3.508,4.773,3.508h26.867
		c2.728,0,4.951-2.187,4.999-4.914c0.011-0.599,0.972-165.408,1.795-177.215c1.299-18.626,9.102-70.111,14.388-103.752
		c5.283,33.641,13.086,85.126,14.385,103.752c0.824,11.807,1.787,176.617,1.798,177.215c0.047,2.728,2.271,4.914,4.999,4.914h26.867
		c2.186,0,4.12-1.421,4.772-3.508c31.323-100.206,23.539-137.513,18.388-162.199C275.283,236.036,273.768,228.776,276.56,219.499z
		 M250.733,402.732h-18.266c-0.244-15.003-0.891-160.666-1.738-172.824C228.712,200.996,212.01,98.683,211.3,94.342l-0.021,0.004
		c-0.337-2.061-1.931-3.775-4.105-4.132c-2.726-0.452-5.296,1.402-5.742,4.128c-0.709,4.341-17.412,106.654-19.428,135.566
		c-0.848,12.158-1.494,157.821-1.736,172.824h-18.266c-29.275-95.068-21.934-130.274-17.055-153.662
		c2.418-11.587,4.327-20.74,0.801-32.454c-27.191-90.341-22.025-142.026-12.905-169.478c7.462-22.459,18.709-32.615,23.54-36.125
		c8.885,4.907,25.479,4.888,45.795,4.862h8.378c20.304,0.034,36.906,0.045,45.791-4.861c4.854,3.528,16.087,13.686,23.542,36.124
		c9.121,27.451,14.286,79.137-12.905,169.479c-3.525,11.713-1.614,20.864,0.803,32.451
		C272.667,272.455,280.01,307.66,250.733,402.732z"/>
</g>
<g>
</g>
<g>
</g>
<g>
</g>
<g>
</g>
<g>
</g>
<g>
</g>
<g>
</g>
<g>
</g>
<g>
</g>
<g>
</g>
<g>
</g>
<g>
</g>
<g>
</g>
<g>
</g>
<g>
</g>
</svg>
