<?xml version="1.0" encoding="iso-8859-1"?>
<!-- Generator: Adobe Illustrator 18.0.0, SVG Export Plug-In . SVG Version: 6.00 Build 0)  -->
<!DOCTYPE svg PUBLIC "-//W3C//DTD SVG 1.1//EN" "http://www.w3.org/Graphics/SVG/1.1/DTD/svg11.dtd">
<svg version="1.1" id="Capa_1" xmlns="http://www.w3.org/2000/svg" xmlns:xlink="http://www.w3.org/1999/xlink" x="0px" y="0px"
	 viewBox="0 0 432.54 432.54" style="enable-background:new 0 0 432.54 432.54;" xml:space="preserve">
<path d="M279.133,95.807c4.705-10.895,5.819-19.578,3.313-25.812c-1.77-4.401-4.783-6.127-5.76-6.588l-36.74-17.43
	c-0.694-2.708-1.885-7.473-2.85-11.972c-0.902-4.218-3.99-6.811-7.549-8.404l-3.191-12.257c-0.574-2.203-5.087-3.74-5.087-3.74V5
	c0-2.762-2.238-5-5-5s-5,2.238-5,5v4.604c0,0-4.511,1.535-5.086,3.735l-3.207,12.268c-3.551,1.595-6.631,4.186-7.533,8.396
	c-0.964,4.5-2.154,9.265-2.849,11.973l-36.741,17.43c-0.978,0.461-3.99,2.186-5.761,6.588c-2.506,6.233-1.392,14.917,3.313,25.812
	c9.026,20.902,21.038,61.876,21.68,64.074c0.306,1.257,3.833,17.217-7.679,33.101c-15.122,20.865-3.296,71.43-3.276,71.503
	c1.152,4.228,8.118,13.831,47.141,14.59v106.683c-4.849,0.428-12.047,2.014-18.165,7.257c-6.792,5.819-10.509,14.516-11.048,25.849
	c-0.002,0.04,0.052,3.678-3.446,3.678c-1.898,0-3.443-1.543-3.443-3.44c0-2.762-2.238-5-5-5c-2.762,0-5,2.238-5,5
	c0,7.411,6.03,13.44,13.443,13.44c13.186,0,13.434-13.181,13.435-13.203c0.401-8.43,2.923-14.711,7.497-18.67
	c3.788-3.279,8.394-4.457,11.728-4.859v31.732c0,2.762,2.238,5,5,5c2.762,0,5-2.238,5-5v-31.733c3.311,0.4,7.884,1.567,11.657,4.8
	c4.618,3.957,7.164,10.259,7.567,18.731c0.001,0.022-0.017,13.202,13.435,13.202c7.411,0,13.441-6.029,13.441-13.44
	c0-2.762-2.238-5-5-5c-2.762,0-5,2.238-5,5c0,1.897-1.544,3.44-3.441,3.44c-3.215,0-3.444-3.639-3.446-3.679
	c-0.539-11.332-4.257-20.029-11.05-25.849c-6.117-5.24-13.315-6.827-18.163-7.255V279.073c39.024-0.758,45.987-10.363,47.139-14.591
	c0.02-0.072,0.038-0.145,0.055-0.219c1.172-5.222,11.039-51.591-3.328-71.282c-11.608-15.905-7.959-31.963-7.682-33.093
	C258.067,157.789,270.093,116.742,279.133,95.807z M214.883,19.604h2.77l0.925,3.553c-1.013-0.065-3.606-0.065-4.623,0
	L214.883,19.604z M257.058,198.876c9.744,13.355,4.737,48.945,1.805,62.491c-1.111,1.226-8.642,7.76-42.593,7.76
	c-33.95,0-41.481-6.534-42.593-7.76c-2.933-13.546-7.939-49.136,1.808-62.491c14.679-20.118,9.491-40.708,9.264-41.575
	c-0.012-0.041-12.684-43.51-22.162-65.459c-5.709-13.22-3.673-18.471-2.352-19.444l38.754-18.385c1.327-0.63,2.31-1.81,2.688-3.229
	c0.083-0.311,2.042-7.672,3.544-14.684c0.279-1.302,5.686-2.999,11.049-3.021c5.363,0.021,10.77,1.718,11.049,3.021
	c1.504,7.014,3.463,14.374,3.546,14.684c0.379,1.419,1.361,2.599,2.688,3.229l38.753,18.385c1.321,0.974,3.357,6.225-2.353,19.444
	c-9.477,21.949-22.147,65.418-22.158,65.459C247.566,158.167,242.376,178.758,257.058,198.876z"/>
<g>
</g>
<g>
</g>
<g>
</g>
<g>
</g>
<g>
</g>
<g>
</g>
<g>
</g>
<g>
</g>
<g>
</g>
<g>
</g>
<g>
</g>
<g>
</g>
<g>
</g>
<g>
</g>
<g>
</g>
</svg>
