<?xml version="1.0" encoding="iso-8859-1"?>
<!-- Generator: Adobe Illustrator 18.0.0, SVG Export Plug-In . SVG Version: 6.00 Build 0)  -->
<!DOCTYPE svg PUBLIC "-//W3C//DTD SVG 1.1//EN" "http://www.w3.org/Graphics/SVG/1.1/DTD/svg11.dtd">
<svg version="1.1" id="Capa_1" xmlns="http://www.w3.org/2000/svg" xmlns:xlink="http://www.w3.org/1999/xlink" x="0px" y="0px"
	 viewBox="0 0 414.779 414.779" style="enable-background:new 0 0 414.779 414.779;" xml:space="preserve">
<path d="M334.389,86.936c3.59-18.201-8.739-27.592-15.825-30.047l-58.744-21.98V18.797c0-0.002-0.001-0.006-0.001-0.01
	c0-1.053-0.313-4.244-3.688-7.689C248.917,3.734,232.518,0,207.389,0s-41.528,3.734-48.741,11.098
	c-3.374,3.445-3.688,6.635-3.688,7.689c0,0.004-0.001,0.008-0.001,0.01v16.111l-58.746,21.98
	c-7.085,2.455-19.412,11.846-15.823,30.047c3.537,17.939,16.847,73.66,18.445,80.34v195.381c0,1.67,0.203,15.67,6.676,23.953v12.748
	c0,1.988,1.18,3.789,3.004,4.584c1.016,0.441,25.726,10.838,98.874,10.838c73.149,0,97.859-10.396,98.875-10.838
	c1.824-0.795,3.004-2.596,3.004-4.584v-12.785c5.853-7.793,6.603-22.004,6.673-23.715c0.003-0.066,0.004-195.582,0.004-195.582
	C317.543,160.596,330.852,104.875,334.389,86.936z M301.074,380.801c-2.964,1.51-22.641,10.033-88.685,10.445v-15.318l93.556-39.565
	v26.186C305.747,367.045,304.311,376.99,301.074,380.801z M113.699,380.799c-3.921-4.463-4.854-14.781-4.863-18.145v-26.291
	l93.554,39.565v15.318C136.294,390.834,116.639,382.297,113.699,380.799z M212.389,44.734c8.375-0.709,25.494-3.271,37.431-12.506
	c0,0,0.016,6.563,0.023,6.629c0.023,0.262,0.479,6.492-4.939,12.387c-6.035,6.564-17.229,10.32-32.515,10.984V44.734z
	 M312.469,138.57l-100.08,26.949v-29.641l106.61-25.434C316.9,119.635,314.568,129.639,312.469,138.57z M305.945,325.506
	l-93.556,39.565v-29.16l93.556-36.689V325.506z M305.945,251.445l-93.556,33.816v-29.377l93.556-30.941V251.445z M108.835,224.943
	l93.554,30.941v29.377l-93.554-33.816V224.943z M202.389,245.354l-93.554-30.943v-26.598l93.554,28.066V245.354z M202.389,295.895
	v29.273l-93.554-36.689v-26.4L202.389,295.895z M108.835,299.221l93.554,36.689v29.16l-93.554-39.565V299.221z M305.945,288.478
	l-93.556,36.689v-29.273l93.556-33.816V288.478z M305.945,214.41l-93.556,30.943v-29.475l93.556-28.066V214.41z M324.578,85
	c-0.696,3.533-1.798,8.637-3.123,14.58l-109.066,26.018V95.885L323.03,72.891C324.675,75.73,325.632,79.656,324.578,85z
	 M212.389,85.672V72.238c18.633-0.729,32.128-5.59,40.127-14.502c3.855-4.297,5.708-8.791,6.583-12.422l52.66,19.703L212.389,85.672
	z M202.389,62.229c-15.285-0.664-26.479-4.42-32.514-10.984c-5.371-5.844-4.944-12.492-4.941-12.549
	c0.007-0.108,0.024-6.467,0.024-6.467c11.937,9.234,29.055,11.797,37.43,12.506V62.229z M162.264,57.736
	c7.999,8.912,21.493,13.773,40.125,14.502v13.434l-99.37-20.654l52.661-19.703C156.555,48.945,158.408,53.439,162.264,57.736z
	 M202.389,95.885v29.713L93.324,99.58c-1.325-5.943-2.426-11.047-3.123-14.578c-1.054-5.346-0.096-9.273,1.548-12.111
	L202.389,95.885z M202.389,135.879v29.641L102.31,138.57c-2.099-8.932-4.432-18.936-6.53-28.125L202.389,135.879z M202.389,175.877
	v29.563l-93.554-28.066c0,0-0.046-11.471-0.138-11.852c-0.048-0.199-1.588-6.633-3.779-15.892L202.389,175.877z M306.082,165.521
	c-0.092,0.381-0.138,11.85-0.138,11.85l-93.556,28.068v-29.563l97.472-26.248C307.67,158.889,306.13,165.322,306.082,165.521z
	 M207.389,10c31.441,0,39.811,6.092,41.86,8.428c-10.289,15.766-40.718,16.555-41.86,16.576
	c-9.024-0.107-33.134-3.346-41.854-16.582C167.594,16.08,175.977,10,207.389,10z M115.511,392.275
	c10.964,3.6,35.47,8.662,86.878,8.973v3.514c-53.352-0.363-78.768-6.496-86.878-8.969V392.275z M212.389,404.762v-3.514
	c51.409-0.31,75.915-5.373,86.879-8.973v3.516C291.134,398.271,265.717,404.398,212.389,404.762z"/>
<g>
</g>
<g>
</g>
<g>
</g>
<g>
</g>
<g>
</g>
<g>
</g>
<g>
</g>
<g>
</g>
<g>
</g>
<g>
</g>
<g>
</g>
<g>
</g>
<g>
</g>
<g>
</g>
<g>
</g>
</svg>
