<?xml version="1.0" encoding="iso-8859-1"?>
<!-- Generator: Adobe Illustrator 18.0.0, SVG Export Plug-In . SVG Version: 6.00 Build 0)  -->
<!DOCTYPE svg PUBLIC "-//W3C//DTD SVG 1.1//EN" "http://www.w3.org/Graphics/SVG/1.1/DTD/svg11.dtd">
<svg version="1.1" id="Capa_1" xmlns="http://www.w3.org/2000/svg" xmlns:xlink="http://www.w3.org/1999/xlink" x="0px" y="0px"
	 viewBox="0 0 392.639 392.639" style="enable-background:new 0 0 392.639 392.639;" xml:space="preserve">
<g>
	<path d="M306.445,151.094c-0.413-56.879-25.936-119.771-28.7-126.418l-3.982-20.625C273.309,1.699,271.25,0,268.853,0H123.785
		c-2.396,0-4.455,1.699-4.909,4.051l-3.982,20.625c-2.764,6.647-28.287,69.539-28.7,126.418
		c-0.423,58.256,19.219,191.012,20.055,196.633c0.08,0.539,0.247,1.059,0.495,1.543c18.628,36.404,56.765,43.369,59.281,43.369
		c2.108,0,4.03-1.336,4.73-3.387l15.55-45.631h20.031l15.551,45.631c0.699,2.051,2.622,3.387,4.73,3.387
		c3.541,0,40.653-6.965,59.281-43.369c0.247-0.484,0.414-1.004,0.495-1.543C287.226,342.105,306.868,209.35,306.445,151.094z
		 M264.727,10l2.658,13.764c-1.275,0.424-33.804,4.848-71.079,4.848c-37.276,0-66.236-3.246-71.05-4.848L127.912,10H264.727z
		 M116.019,345.434c-1.689-11.508-20.226-139.123-19.825-194.268c0.345-47.553,19.602-101.24,26.045-117.895
		c17.842,4.402,44.253,5.569,74.065,5.34c0.005,0,0.01-0.002,0.015-0.002s0.01,0.002,0.015,0.002
		c24.635,0,43.831-0.762,57.314-2.266L137.132,369.457C129.401,363.902,121.667,356.156,116.019,345.434z M162.751,381.732
		c-3.851-1.068-10.046-3.146-16.922-6.85L264.828,34.674c1.913-0.385,3.824-0.83,5.572-1.402c1.408,3.639,3.428,9.047,5.729,15.773
		L162.751,381.732z M189.712,333.621l6.607-19.389l6.607,19.389H189.712z M201.602,298.732l9.165-26.893l36.044,103.043
		c-6.878,3.705-13.074,5.783-16.922,6.85L201.602,298.732z M276.62,345.434c-5.649,10.725-13.383,18.469-21.113,24.023
		l-39.512-112.959l65.27-191.523c7.28,24.016,14.963,56.313,15.18,86.191C296.846,206.307,278.31,333.924,276.62,345.434z"/>
</g>
<g>
</g>
<g>
</g>
<g>
</g>
<g>
</g>
<g>
</g>
<g>
</g>
<g>
</g>
<g>
</g>
<g>
</g>
<g>
</g>
<g>
</g>
<g>
</g>
<g>
</g>
<g>
</g>
<g>
</g>
</svg>
