<?xml version="1.0" encoding="iso-8859-1"?>
<!-- Generator: Adobe Illustrator 18.0.0, SVG Export Plug-In . SVG Version: 6.00 Build 0)  -->
<!DOCTYPE svg PUBLIC "-//W3C//DTD SVG 1.1//EN" "http://www.w3.org/Graphics/SVG/1.1/DTD/svg11.dtd">
<svg version="1.1" id="Capa_1" xmlns="http://www.w3.org/2000/svg" xmlns:xlink="http://www.w3.org/1999/xlink" x="0px" y="0px"
	 viewBox="0 0 432.83 432.83" style="enable-background:new 0 0 432.83 432.83;" xml:space="preserve">
<path d="M420.151,182.917h-11.524c-3.518-9.32-8.691-17.467-15.44-24.176c-15.582-15.492-38.976-23.347-69.529-23.347
	c-5.628,0-11.063,0.335-16.305,0.962c-21.712,1.525-67.574,4.542-90.938,4.542c-23.365,0-69.231-3.017-90.941-4.543
	c-5.242-0.626-10.677-0.961-16.304-0.961c-30.553,0-53.945,7.854-69.527,23.347c-6.749,6.709-11.922,14.855-15.44,24.176H12.678
	C0,182.917,0,195.583,0,200.352c0,4.77,0,17.438,12.678,17.438h6.058c0.49,34.98,11.367,79.646,90.435,79.646
	c26.414,0,49.229-8.493,65.981-24.56c15.243-14.622,23.847-34.254,24.419-55.482c0.021-0.188,1.356-24.477,16.846-24.477
	s16.823,24.276,16.843,24.458c0.568,21.236,9.172,40.875,24.42,55.501c16.75,16.066,39.565,24.56,65.979,24.56
	c79.07,0,89.947-44.666,90.438-79.646h6.057c12.679,0,12.679-12.668,12.679-17.438C432.83,195.583,432.83,182.917,420.151,182.917z
	 M18.98,207.789h-6.303c-1.612,0-2.678,0-2.678-7.438c0-7.435,1.065-7.435,2.678-7.435h8.507
	C20.077,197.644,19.337,202.608,18.98,207.789z M401.688,194.163H245.859c2.374-8.788,6.302-16.531,11.692-23.098h133.094
	C395.784,177.588,399.481,185.311,401.688,194.163z M323.657,145.394c24.171,0,43.276,5.381,56.797,15.671H268.083
	C281.706,150.9,300.536,145.394,323.657,145.394z M109.17,145.394c23.121,0,41.951,5.506,55.575,15.671H52.375
	C65.896,150.775,85,145.394,109.17,145.394z M42.185,171.065h133.092c5.39,6.566,9.318,14.31,11.692,23.098H31.142
	C33.349,185.311,37.045,177.588,42.185,171.065z M109.17,287.436c-30.266,0-49.347-6.664-61.284-17.079h115.011
	C149.713,280.774,131.751,287.436,109.17,287.436z M173.2,260.356H39.164c-4.562-6.951-7.233-14.821-8.73-23.096h155.614
	C183.316,245.546,179.023,253.41,173.2,260.356z M188.554,227.261H29.16c-0.32-4.015-0.445-8.073-0.445-12.122
	c0-3.809,0.222-7.46,0.629-10.976h159.591c0.448,3.524,0.691,7.179,0.691,10.976C189.625,219.192,189.254,223.249,188.554,227.261z
	 M216.415,182.917c-8.304,0-14.761,4.445-19.254,10.636c-3.828-15.924-12.085-29.193-24.46-38.999
	c-2.596-2.057-5.373-3.939-8.29-5.674c18.936,1.09,38.915,2.019,52.004,2.019c13.088,0,33.066-0.929,52.002-2.019
	c-2.917,1.735-5.694,3.617-8.29,5.674c-12.376,9.808-20.633,23.078-24.461,39.004C231.174,187.365,224.72,182.917,216.415,182.917z
	 M323.657,287.436c-22.581,0-40.542-6.661-53.727-17.079h115.013C373.006,280.771,353.924,287.436,323.657,287.436z
	 M393.666,260.356H259.628c-5.823-6.946-10.116-14.811-12.848-23.096h155.616C400.899,245.535,398.228,253.405,393.666,260.356z
	 M403.67,227.261H244.274c-0.7-4.012-1.071-8.068-1.071-12.122c0-3.797,0.242-7.451,0.69-10.976h159.593
	c0.407,3.516,0.629,7.167,0.629,10.976C404.115,219.187,403.99,223.246,403.67,227.261z M420.151,207.789h-6.302
	c-0.357-5.181-1.097-10.145-2.205-14.872h8.507c1.613,0,2.679,0,2.679,7.435C422.83,207.789,421.765,207.789,420.151,207.789z"/>
<g>
</g>
<g>
</g>
<g>
</g>
<g>
</g>
<g>
</g>
<g>
</g>
<g>
</g>
<g>
</g>
<g>
</g>
<g>
</g>
<g>
</g>
<g>
</g>
<g>
</g>
<g>
</g>
<g>
</g>
</svg>
