<?xml version="1.0" encoding="iso-8859-1"?>
<!-- Generator: Adobe Illustrator 18.0.0, SVG Export Plug-In . SVG Version: 6.00 Build 0)  -->
<!DOCTYPE svg PUBLIC "-//W3C//DTD SVG 1.1//EN" "http://www.w3.org/Graphics/SVG/1.1/DTD/svg11.dtd">
<svg version="1.1" id="Capa_1" xmlns="http://www.w3.org/2000/svg" xmlns:xlink="http://www.w3.org/1999/xlink" x="0px" y="0px"
	 viewBox="0 0 383.715 383.715" style="enable-background:new 0 0 383.715 383.715;" xml:space="preserve">
<g>
	<g>
		<g>
			<path d="M332.465,159.959c-24.351-9.06-31.978-44.011-34.087-71.734c-2.372-31.166,1.579-60.481,1.619-60.773
				c0.315-2.289-0.98-4.496-3.131-5.338l-55.634-21.77c-1.435-0.563-3.049-0.43-4.374,0.357c-1.325,0.786-2.213,2.141-2.408,3.67
				c-0.023,0.178-0.386,2.973-1.117,7.84c-10.22,3.783-25.427,6.012-41.474,6.012c-16.046,0-31.254-2.228-41.476-6.011
				c-0.733-4.884-1.095-7.677-1.116-7.841c-0.194-1.529-1.083-2.884-2.408-3.67c-1.326-0.787-2.939-0.92-4.374-0.357l-55.635,21.77
				c-2.151,0.842-3.446,3.049-3.131,5.338c0.04,0.292,3.99,29.607,1.619,60.773c-2.109,27.724-9.736,62.675-34.088,71.734
				c-2.38,0.886-3.719,3.416-3.111,5.883c0.224,0.91,22.307,92.003,12.262,175.996c-0.279,2.336,1.108,4.551,3.331,5.319
				l104.942,36.283c0.536,0.186,1.087,0.274,1.633,0.274c1.471,0,2.901-0.65,3.869-1.831l17.682-21.579l17.682,21.579
				c0.968,1.182,2.398,1.831,3.869,1.831c0.546,0,1.097-0.089,1.633-0.274l104.944-36.283c2.224-0.768,3.61-2.983,3.331-5.319
				c-10.039-83.933,12.037-175.086,12.261-175.997C336.183,163.375,334.845,160.845,332.465,159.959z M191.859,28.223
				c14.898,0,28.847-1.765,39.721-4.927c-5.134,31.049-17.494,95.002-39.729,151.57c-22.23-56.505-34.585-120.506-39.717-151.57
				C163.01,26.458,176.96,28.223,191.859,28.223z M168.649,372.851l-97.863-33.835c7.998-74.323-7.852-152.787-11.987-171.43
				C104.448,145.19,96.471,50.86,94.109,30.012l46.128-18.05c3.446,23.387,17.181,107.04,46.185,176.096
				c-2.91,6.743-5.971,13.329-9.187,19.683c-0.354,0.7-0.539,1.475-0.539,2.259v130.015c0,1.155,0.4,2.275,1.132,3.169l7.565,9.232
				L168.649,372.851z M312.931,339.016l-97.865,33.835l-28.37-34.624V211.188c3.431-6.84,6.686-13.934,9.771-21.192
				c0.013-0.031,0.027-0.061,0.039-0.093c29.554-69.582,43.496-154.369,46.974-177.94l46.128,18.05
				c-2.362,20.848-10.339,115.178,35.309,137.574C320.781,186.229,304.932,264.693,312.931,339.016z"/>
			<g>
				<g>
					<path d="M149.63,301.579c-2.761,0-5-2.238-5-5v-6.561l-53.972-9.302v4.837c0,2.762-2.239,5-5,5c-2.761,0-5-2.238-5-5v-10.772
						c0-1.475,0.651-2.874,1.779-3.824c1.128-0.949,2.618-1.355,4.07-1.104l63.972,11.025c2.398,0.414,4.151,2.494,4.151,4.928
						v10.773C154.63,299.341,152.391,301.579,149.63,301.579z"/>
				</g>
				<g>
					<path d="M234.087,301.579c-2.761,0-5-2.238-5-5v-10.773c0-2.434,1.752-4.514,4.151-4.928l63.972-11.025
						c1.454-0.253,2.942,0.154,4.07,1.104c1.128,0.95,1.779,2.35,1.779,3.824v10.772c0,2.762-2.239,5-5,5c-2.761,0-5-2.238-5-5
						v-4.837l-53.972,9.302v6.561C239.087,299.341,236.848,301.579,234.087,301.579z"/>
				</g>
			</g>
		</g>
		<g>
			<g>
				<path d="M196.377,227.877c-1.32,0-2.6-0.54-3.54-1.47c-0.93-0.93-1.46-2.22-1.46-3.53c0-1.319,0.53-2.609,1.46-3.54
					c0.94-0.93,2.22-1.46,3.54-1.46c1.32,0,2.61,0.53,3.54,1.46c0.93,0.931,1.46,2.221,1.46,3.54c0,1.311-0.53,2.601-1.46,3.53
					C198.987,227.337,197.697,227.877,196.377,227.877z"/>
			</g>
			<g>
				<path d="M196.377,260.438c-1.32,0-2.6-0.53-3.53-1.46c-0.94-0.931-1.47-2.221-1.47-3.54c0-1.311,0.53-2.601,1.47-3.53
					c0.93-0.93,2.21-1.47,3.53-1.47c1.32,0,2.61,0.54,3.54,1.47c0.93,0.93,1.46,2.22,1.46,3.53c0,1.319-0.53,2.609-1.46,3.54
					C198.987,259.908,197.697,260.438,196.377,260.438z"/>
			</g>
			<g>
				<path d="M196.377,293.007c-1.32,0-2.61-0.529-3.53-1.46c-0.93-0.93-1.47-2.22-1.47-3.54c0-1.31,0.54-2.6,1.47-3.529
					c0.92-0.931,2.21-1.471,3.53-1.471c1.32,0,2.6,0.54,3.54,1.471c0.93,0.93,1.46,2.22,1.46,3.529c0,1.32-0.53,2.61-1.46,3.54
					C198.977,292.478,197.697,293.007,196.377,293.007z"/>
			</g>
			<g>
				<path d="M196.377,325.577c-1.32,0-2.61-0.53-3.53-1.46c-0.93-0.93-1.47-2.22-1.47-3.54s0.54-2.61,1.47-3.54
					c0.93-0.93,2.21-1.46,3.53-1.46c1.32,0,2.6,0.53,3.54,1.46c0.93,0.94,1.46,2.22,1.46,3.54s-0.53,2.61-1.46,3.54
					C198.977,325.047,197.697,325.577,196.377,325.577z"/>
			</g>
		</g>
	</g>
</g>
<g>
</g>
<g>
</g>
<g>
</g>
<g>
</g>
<g>
</g>
<g>
</g>
<g>
</g>
<g>
</g>
<g>
</g>
<g>
</g>
<g>
</g>
<g>
</g>
<g>
</g>
<g>
</g>
<g>
</g>
</svg>
