<?xml version="1.0" encoding="iso-8859-1"?>
<!-- Generator: Adobe Illustrator 18.0.0, SVG Export Plug-In . SVG Version: 6.00 Build 0)  -->
<!DOCTYPE svg PUBLIC "-//W3C//DTD SVG 1.1//EN" "http://www.w3.org/Graphics/SVG/1.1/DTD/svg11.dtd">
<svg version="1.1" id="Capa_1" xmlns="http://www.w3.org/2000/svg" xmlns:xlink="http://www.w3.org/1999/xlink" x="0px" y="0px"
	 viewBox="0 0 332.34 332.34" style="enable-background:new 0 0 332.34 332.34;" xml:space="preserve">
<path d="M309.215,230.052v-65.069c0-69.711-50.127-127.926-116.228-140.515C191.737,10.769,180.191,0,166.17,0
	c-14.02,0-25.567,10.769-26.817,24.469C73.252,37.059,23.125,95.271,23.125,164.982v65.068
	c-11.529,3.273-20.002,13.888-20.002,26.451v48.34c0,15.162,12.336,27.498,27.499,27.498h271.096
	c15.162,0,27.498-12.336,27.498-27.498v-48.34C329.216,243.939,320.744,233.324,309.215,230.052z M166.17,10
	c7.939,0,14.602,5.5,16.425,12.885c-5.391-0.619-10.869-0.949-16.424-0.949c0,0,0,0-0.001,0c0,0-0.001,0-0.002,0
	c-5.555,0-11.032,0.33-16.423,0.949C151.569,15.5,158.231,10,166.17,10z M32.926,322.34h-2.304c-9.649,0-17.499-7.85-17.499-17.498
	v-48.34c0-9.648,7.85-17.498,17.499-17.498h2.304V322.34z M84.225,322.34H42.926v-83.336h41.299V322.34z M135.521,322.34H94.225
	v-83.336h41.296v15.623h-10.885c-2.762,0-5,2.238-5,5v33.092c0,2.762,2.238,5,5,5h10.885V322.34z M202.703,264.627v23.092h-73.066
	v-23.092H202.703z M145.521,254.627v-15.623h41.299v15.623H145.521z M186.82,322.34h-41.299v-24.621h41.299V322.34z M238.116,322.34
	H196.82v-24.621h10.883c2.762,0,5-2.238,5-5v-33.092c0-2.762-2.238-5-5-5H196.82v-15.623h41.296V322.34z M289.414,322.34h-41.299
	v-83.336h41.299V322.34z M299.215,229.004H33.125v-64.021c0-59.766,39.614-110.449,93.962-127.185
	c-6.124,5.411-11.796,12.147-16.865,20.11c-14.321,22.496-22.209,52.305-22.209,83.939c0,2.762,2.238,5,5,5c2.762,0,5-2.238,5-5
	c0-60.605,30.574-109.91,68.155-109.912c0.001,0,0.002,0,0.002,0c37.582,0.001,68.157,49.307,68.157,109.912c0,2.762,2.238,5,5,5
	c2.762,0,5-2.238,5-5c0-31.635-7.888-61.443-22.209-83.939c-5.07-7.965-10.741-14.699-16.866-20.111
	c54.349,16.734,93.963,67.419,93.963,127.186V229.004z M319.216,304.842c0,9.648-7.85,17.498-17.498,17.498h-2.304v-83.336h2.304
	c9.648,0,17.498,7.85,17.498,17.498V304.842z"/>
<g>
</g>
<g>
</g>
<g>
</g>
<g>
</g>
<g>
</g>
<g>
</g>
<g>
</g>
<g>
</g>
<g>
</g>
<g>
</g>
<g>
</g>
<g>
</g>
<g>
</g>
<g>
</g>
<g>
</g>
</svg>
