<?xml version="1.0" encoding="iso-8859-1"?>
<!-- Generator: Adobe Illustrator 18.0.0, SVG Export Plug-In . SVG Version: 6.00 Build 0)  -->
<!DOCTYPE svg PUBLIC "-//W3C//DTD SVG 1.1//EN" "http://www.w3.org/Graphics/SVG/1.1/DTD/svg11.dtd">
<svg version="1.1" id="Capa_1" xmlns="http://www.w3.org/2000/svg" xmlns:xlink="http://www.w3.org/1999/xlink" x="0px" y="0px"
	 viewBox="0 0 385.065 385.065" style="enable-background:new 0 0 385.065 385.065;" xml:space="preserve">
<g>
	<path d="M380.065,304.64h-3.441c-3.819-9.781-21.582-29.236-91.985-60.314l-99.618-42.148V28.133c0-2.761-2.239-5-5-5H9.487
		c-2.132,0-4.03,1.352-4.726,3.367C4.154,28.257-8.431,69.887,9.974,137.473c17.896,65.714,16.958,88.698,16.402,98.382
		c-0.246,4.285-2.381,10.123-4.938,16.877c-6.529,17.244-15.283,40.404-4.492,70.061c-2.576,0.201-4.61,2.332-4.61,4.961v29.178
		c0,2.762,2.239,5,5,5h267.586c3.059-0.043,75.18-1.307,98.679-24.807c0.938-0.938,1.465-2.209,1.465-3.535V309.64
		C385.065,306.879,382.826,304.64,380.065,304.64z M134.485,33.133h40.535v171.954c-0.746,4.424-9.429,51.527-40.535,56.152V33.133z
		 M134.485,271.339c33.473-3.617,45.705-43.168,49.257-58.846l96.928,41.012c71.453,31.543,84.165,49.361,86.4,54.271
		c-17.948,15.235-85.097,14.977-85.136,14.977h-147.45V271.339z M19.564,134.64C3.793,81.26,10.556,44.115,13.278,33.133h111.207
		v251.345c-23.466-0.17-34.202-19.596-44.586-38.449c-4.223-7.666-8.211-14.906-12.97-20.68
		c-9.477-11.494-25.346-18.229-32.048-20.689C32.824,187.839,28.459,164.743,19.564,134.64z M30.79,256.273
		c2.866-7.568,5.341-14.106,5.579-20.016c0,0,0.366-9.307-0.361-20.365c6.827,2.943,16.955,8.238,23.205,15.82
		c4.166,5.051,7.936,11.895,11.926,19.141c10.761,19.537,24.006,43.576,53.346,43.658v28.242H27.644
		C16.156,294.923,24.246,273.556,30.79,256.273z M375.065,331.416c-22.303,19.332-89.588,20.506-90.213,20.516H22.335v-19.178
		h259.544c0.315,0.006,70.686,0.585,92.563-18.113h0.623V331.416z"/>
</g>
<g>
</g>
<g>
</g>
<g>
</g>
<g>
</g>
<g>
</g>
<g>
</g>
<g>
</g>
<g>
</g>
<g>
</g>
<g>
</g>
<g>
</g>
<g>
</g>
<g>
</g>
<g>
</g>
<g>
</g>
</svg>
